<svg xmlns="http://www.w3.org/2000/svg" width="256" height="256" fill="none" viewBox="0 0 256 256"><rect width="256" height="256" fill="#F4F2ED" rx="60"/><path fill="#242938" fill-rule="evenodd" d="M121.35 30.25c-1.2 7.64-7.26 8.05-9.68.65-1.64-5.03-5.71-4.89-5.21.18.76 7.73-5.26 10.27-9.03 3.82-1.36-2.32-2.63-3.41-3.57-3.05a8 8 0 0 1-2.15.57c-.39 0-.53 1.83-.31 4.08.68 7.27-3.75 9.41-8.26 3.99-3.45-4.13-7.17-2.83-5.4 1.89 2.6 7-1.96 10.73-7.62 6.23-2.1-1.67-3.03-1.86-4.66-.98-2.43 1.31-2.4 1-.51 4.81 2.89 5.86-1.13 9.02-7 5.52-4.92-2.93-7.63-.29-4.54 4.44 3.9 5.97.34 10.45-5.83 7.34-4.3-2.16-6.39 1.01-3.29 4.99 4.16 5.34 1.1 10.56-4.87 8.29-1.33-.5-2.47-.79-2.55-.64a34 34 0 0 1-1.4 1.95c-1.06 1.4-.76 2.17 1.9 4.85 3.92 3.96 2.52 7.47-3.2 8.04-5.6.55-6.54 3.8-1.9 6.47 4.84 2.78 2.6 8.92-3.24 8.92-3.04 0-2.2 4.33 1.23 6.3 4.2 2.42 4.2 6.63 0 8.23-3.24 1.23-4.57 6.8-1.62 6.8 5.84 0 6.57 7.03.95 9.2-1.74.66-2.36 1.48-1.95 2.56.34.88.6 2.02.6 2.53s1.27.93 2.82.93c5.57 0 7.07 5.04 2.58 8.66-3.14 2.52-2.03 6.82 1.53 5.88 5.26-1.4 7.95 4.2 4.04 8.4-3.13 3.37-1.38 5.8 4.25 5.91 5.1.1 6.33 2.78 3.38 7.33-2.42 3.73.2 6.78 4.43 5.17 5.16-1.97 8.24 2.43 5.15 7.36-1.8 2.87 1.68 5.3 5.07 3.53 5.5-2.87 9-.3 6.96 5.12-1.3 3.46-1.34 3.3 1.09 4.61 1.62.88 2.47.8 3.77-.32 4.65-4.02 8.82-1.9 7.87 4-.79 4.9 2.25 6.43 5.76 2.88 4.05-4.09 9.8-1 8.37 4.5-.3 1.17.09 2.2.97 2.53 2.71 1.06 3.98.6 5.3-1.9 2.65-4.99 7.22-3.61 8.44 2.53.79 3.98 5.12 4.32 6.07.49 1.39-5.58 6.8-5.54 8.81.06 1.57 4.37 5.46 4.9 6.46.9 1.43-5.76 6.4-6.48 9.04-1.32 2.14 4.18 5.61 3.62 6.55-1.06 1.4-6.94 7.4-7.64 9.46-1.1.42 1.34 1.21 1.91 2.16 1.54a9 9 0 0 1 2.37-.58c.48 0 1-2.17 1.17-4.82.4-6.11 4.1-7.37 7.79-2.64 3.2 4.12 5.58 2.28 5.59-4.32 0-5.97 2.74-7.18 7.78-3.42 3.91 2.92 6.52 1.04 4.82-3.47-2.66-7.06.65-10.33 6.75-6.69 5.23 3.12 7.08.76 3.94-5.03-3.25-5.99 1.33-9.7 7.01-5.68 4.05 2.87 6.52-1.7 2.95-5.46-4.64-4.9-3.4-7.7 3.41-7.7 6.74 0 7.62-1.82 3.09-6.4-5.14-5.19-3.31-8.76 4.18-8.16 5.65.45 6.89-3.1 1.8-5.23-7.66-3.21-5.51-9.61 3.16-9.36 2.5.07 5.15-3.89 3.1-4.6-9.54-3.35-11-9.42-2.64-11 4.76-.91 4.93-4.94.24-5.89-8.01-1.62-7.72-8.26.46-10.32 4.91-1.23 3.32-4.98-2.22-5.23-7.9-.35-9.43-6.6-2.37-9.66a72 72 0 0 0 3.08-1.4c2.4-1.45-1.43-5.1-4.4-4.19-9.1 2.83-11.27-4.13-3.06-9.8 3.8-2.62.44-5.96-4.07-4.05-7.63 3.22-11.3-2.61-5.4-8.57 3.98-4.02 1.32-7.84-3.32-4.77-6.32 4.18-11.82-1.8-6.73-7.33 4.05-4.39.27-7.6-4.34-3.68-6.07 5.16-11.41 1.42-7.98-5.58 2.85-5.83-.13-9.55-3.84-4.79-6.28 8.06-11.73 4.1-8.44-6.14.54-1.69.19-2.28-1.66-2.77-1.28-.34-2.48-.2-2.66.32-2.95 8.7-12.97 7.15-10.78-1.67.93-3.75.92-3.77-1.98-4.56-1.97-.53-2.5-.3-2.5 1.13 0 2.62-3.84 7.16-6.06 7.16-2.44 0-3.99-2.94-3.99-7.55 0-2-.41-3.62-.92-3.62-.5 0-1.64-.28-2.51-.62q-1.6-.6-1.6 1.07c0 9-9.02 10.66-10.64 1.95-.97-5.24-4.94-4.89-5.8.51m22.96 16.9c34.63 7.4 30.32 31.55-8.02 44.97-50.35 17.62-90.85 2-64.04-24.7 17.1-17.03 47.39-25.55 72.06-20.27m39.22 28.92c2.48 2.77 2.2 8.14-.56 10.4-6.86 5.6-16.22-4.12-10-10.4 2.66-2.68 8.15-2.68 10.56 0m11.95 17.65c16.91 7.14 18.6 46.22 3.24 74.8-9.36 17.4-25.18 30.24-34.4 27.9-27.17-6.88-2.73-99.3 27.53-104.06.16-.03 1.79.59 3.63 1.36m-128.43 8.25c5.13 5.19.4 14.2-6.29 11.95-6.04-2.03-7.02-9.94-1.6-12.91 3.84-2.1 5-1.96 7.89.96m65.47 6.75c9.23 2.35 16.63 13.66 14.77 22.56-4.18 19.97-31.11 22.89-38.2 4.15-5.88-15.56 7.47-30.77 23.43-26.7m-57.88 17.86c30.76 15.3 60.99 60.2 50.8 75.47-11.96 17.96-54.97-4.49-71.36-37.24-15.38-30.74-4.62-50.75 20.56-38.23m72.75 63.65c4.08 4.11 2.93 9.42-2.51 11.7-5.89 2.46-11.6-4.25-8.6-10.1 2.44-4.78 7.28-5.48 11.11-1.6" clip-rule="evenodd"/></svg>