<svg xmlns="http://www.w3.org/2000/svg" width="256" height="256" fill="none" viewBox="0 0 256 256"><rect width="256" height="256" fill="#5A45FE" rx="60"/><path fill="#fff" fill-rule="evenodd" d="m46.62 160.69 42.84-97.37C96.7 46.9 110.6 38 128.13 38s31.44 8.9 38.67 25.32l42.85 97.37c1.94 4.73 3.61 10.85 3.61 16.13 0 24.2-16.97 41.18-41.17 41.18-8.25 0-14.8-2.1-21.42-4.23-6.8-2.19-13.67-4.4-22.54-4.4-8.77 0-15.81 2.24-22.74 4.43-6.7 2.12-13.28 4.2-21.22 4.2C59.97 218 43 201.03 43 176.82c0-5.28 1.67-11.4 3.62-16.13m81.51-80.4-42.29 95.7c12.52-5.84 26.99-8.62 42.3-8.62 14.74 0 29.76 2.78 41.72 8.62z" clip-rule="evenodd"/></svg>