<svg xmlns="http://www.w3.org/2000/svg" width="256" height="256" fill="none" viewBox="0 0 256 256"><rect width="256" height="256" fill="#00005B" rx="60"/><path fill="#99F" d="M105.16 156.12H65.48l-8.11 25.17a1.87 1.87 0 0 1-2.03 1.5H35.3c-1.17 0-1.5-.64-1.17-1.92L68.46 82.4c.32-1.06.64-2.02 1.07-3.3.43-2.24.64-4.59.64-6.94-.1-.53.32-1.06.85-1.17h27.63c.75 0 1.28.32 1.39.85l38.93 108.8c.32 1.18 0 1.71-1.07 1.71h-22.29a1.6 1.6 0 0 1-1.7-1.17l-8.75-25.6zm-33.5-21.23h27.1c-.64-2.24-1.5-4.9-2.46-7.68a321 321 0 0 1-2.88-9.17c-1.06-3.3-2.02-6.5-3.09-9.81a231 231 0 0 1-2.88-9.5c-.85-2.98-1.6-5.76-2.35-8.32h-.21c-.96 4.59-2.13 9.18-3.63 13.76-1.6 5.12-3.2 10.46-4.9 15.79a166 166 0 0 1-4.7 14.93m130.14 11.63h-33.82a23.5 23.5 0 0 0 3.31 9.5 17 17 0 0 0 7.79 6.4 33 33 0 0 0 13.65 2.66 64 64 0 0 0 11.1-1.17 40 40 0 0 0 9.49-2.46c.53-.42.85-.21.85.86v16.32c0 .42-.1.85-.21 1.28-.22.32-.43.53-.75.74a46 46 0 0 1-10.67 3.2 72 72 0 0 1-15.14 1.28c-8.11 0-14.94-1.28-20.48-3.73a36 36 0 0 1-13.44-10.13 39 39 0 0 1-7.36-13.98 55 55 0 0 1-2.24-15.57c0-5.76.85-11.41 2.66-16.96a44 44 0 0 1 8-14.61A39 39 0 0 1 167.45 100c5.01-2.45 10.99-3.3 17.81-3.3a39 39 0 0 1 16.54 3.3 29.4 29.4 0 0 1 11.2 8.54 39 39 0 0 1 6.4 12.16 42 42 0 0 1 2.02 13.01c0 2.56-.1 4.8-.21 6.83-.21 2.02-.32 3.52-.43 4.48-.1.74-.74 1.38-1.49 1.38-.64 0-1.81.11-3.52.22-1.7.21-3.73.32-6.19.32-2.45 0-5.01-.43-7.78-.43m-33.82-15.57h22.51c2.77 0 4.8 0 6.08-.11.85-.1 1.7-.32 2.45-.85v-1.07c0-1.39-.21-2.67-.64-3.95a14.1 14.1 0 0 0-13.86-9.81 15 15 0 0 0-14.19 8.1 22 22 0 0 0-2.35 7.69"/></svg>