<svg xmlns="http://www.w3.org/2000/svg" width="256" height="256" fill="none" viewBox="0 0 256 256"><rect width="256" height="256" fill="#242938" rx="60"/><path fill="url(#a)" d="M115.5 36.08c-2.25-4.56-7.1-7.08-12.13-7.08-4.85 0-9.7 2.52-11.78 7.08l-42.8 86.48c-2.95 5.82 0 12.9 6.58 15.4 1.73.8 3.46 1.1 5.2 1.1 5.02 0 9.7-2.5 11.95-6.91l5.9-11.95h50.25l5.9 11.95c2.08 4.4 6.93 6.92 11.78 6.92 1.73 0 3.64-.32 5.37-1.1 6.41-2.52 9.36-9.6 6.41-15.41zm2.95 63.36h-29.8l14.72-30.34z"/><path fill="url(#b)" d="M195.05 44.41c0 6.29-5.55 11.32-12.48 11.32s-12.65-5.03-12.65-11.32c0-6.13 5.72-11.16 12.65-11.16s12.48 5.03 12.48 11.16m-12.48 94.66c-7.63 0-13.7-5.66-13.7-12.42V72.87c0-6.76 6.07-12.42 13.7-12.42 7.45 0 13.52 5.66 13.52 12.42v53.78c0 6.76-6.07 12.42-13.52 12.42"/><path fill="url(#c)" d="M35.96 213.1a27 27 0 0 1-13.89-4.13 6.7 6.7 0 0 1-1.85-9.46 6.9 6.9 0 0 1 9.54-1.84c4.26 2.85 12.31 2.2 12.96-4.04a6 6 0 0 0-2.4-5.51c-2.04-1.47-4.91-1.56-7.14-2.57a21 21 0 0 1-7.22-4.69c-3.8-3.49-5.92-7.99-6.11-12.49 0-2.57.46-5.05 1.39-7.53.93-2.2 2.31-4.22 3.98-6.06a21 21 0 0 1 5.83-4.13 21 21 0 0 1 7.32-1.93c3.43-.09 8.52.65 12.22 2.85a6.97 6.97 0 0 1 2.5 9.46 6.95 6.95 0 0 1-9.44 2.3c-2.32-1.3-5.65-1.3-7.78.36a5.2 5.2 0 0 0-2.04 3.95c-.18 5.42 6.76 5.51 10.37 6.98a21 21 0 0 1 7.41 5.23c3.15 3.5 5 7.9 5.1 12.68a19 19 0 0 1-5.75 14.32 21 21 0 0 1-13.8 6.16c-.36 0-.83.09-1.2.09"/><path fill="url(#d)" d="M84.48 213a22.7 22.7 0 0 1-16.39-6.7 24 24 0 0 1-5-7.25 25 25 0 0 1-1.76-9c0-3.03.65-6.06 1.76-9a26 26 0 0 1 5-7.26 24 24 0 0 1 7.4-4.86 21 21 0 0 1 9-1.84c2.58 0 5.08.46 7.58 1.28 2.41.74 4.54 1.93 6.48 3.5a7.2 7.2 0 0 1 1.4 10.1 7.5 7.5 0 0 1-5.84 2.84 7.7 7.7 0 0 1-4.44-1.56 8 8 0 0 0-5.19-1.74 8.56 8.56 0 0 0-8.61 8.54 8.5 8.5 0 0 0 8.61 8.54c1.95 0 3.7-.55 5.19-1.75a7.3 7.3 0 0 1 10.18 1.38 7.14 7.14 0 0 1-1.3 10.1 22.8 22.8 0 0 1-14.07 4.69"/><path fill="url(#e)" d="M126.8 167.18c-.28-.1-.65-.1-1.02-.1-3.15 0-6.3.74-9.08 2.12a6.2 6.2 0 0 0-4.72-2.02 6.4 6.4 0 0 0-6.39 6.34v32.23a7.2 7.2 0 0 0 7.22 7.25 7.24 7.24 0 0 0 7.32-7.25V187.2c0-3.12 2.6-5.6 5.65-5.6h.65a7.3 7.3 0 0 0 7.31-6.89 7.2 7.2 0 0 0-6.94-7.53"/><path fill="url(#f)" d="M153.28 157.72a6.6 6.6 0 0 1-6.67 6.61 6.7 6.7 0 0 1-6.76-6.6 6.67 6.67 0 0 1 6.76-6.53 6.6 6.6 0 0 1 6.67 6.52m-6.67 55.29a7.3 7.3 0 0 1-7.31-7.26v-31.4a7.28 7.28 0 0 1 14.54 0v31.4a7.3 7.3 0 0 1-7.23 7.25"/><path fill="url(#g)" d="M183.56 166.9c-4.08 0-7.97 1.1-11.4 2.94a6.3 6.3 0 0 0-5.46-2.94 6.3 6.3 0 0 0-6.38 6.34v47.02a7.36 7.36 0 0 0 14.72 0v-8.9a22 22 0 0 0 8.52 1.64 23.1 23.1 0 0 0 23.24-23.04 23.1 23.1 0 0 0-23.24-23.06m6.1 29.12a8.5 8.5 0 0 1-6.1 2.48 8.5 8.5 0 0 1-6.12-2.48 8.3 8.3 0 0 1-2.59-6.06 8.66 8.66 0 0 1 8.7-8.64 8.66 8.66 0 0 1 8.7 8.63 8.3 8.3 0 0 1-2.58 6.07"/><path fill="url(#h)" d="M230.22 198.59a4.7 4.7 0 0 1-4.72-4.69v-14.05h5.56a6.38 6.38 0 1 0 0-12.76h-5.56v-7.44a7.2 7.2 0 0 0-7.22-7.16 7.2 7.2 0 0 0-7.32 7.16v34.25c0 5.15 2.04 9.92 5.65 13.6a19.5 19.5 0 0 0 13.61 5.5 7.22 7.22 0 1 0 0-14.41"/><defs><linearGradient id="a" x1="47.64" x2="617.89" y1="96.45" y2="96.45" gradientUnits="userSpaceOnUse"><stop stop-color="#82E97A"/><stop offset="1" stop-color="#21DEBB"/></linearGradient><linearGradient id="b" x1="47.64" x2="617.89" y1="96.45" y2="96.45" gradientUnits="userSpaceOnUse"><stop stop-color="#82E97A"/><stop offset="1" stop-color="#21DEBB"/></linearGradient><linearGradient id="c" x1="-67.24" x2="237.44" y1="188.12" y2="188.12" gradientUnits="userSpaceOnUse"><stop stop-color="#82E97A"/><stop offset="1" stop-color="#21DEBB"/></linearGradient><linearGradient id="d" x1="-67.24" x2="237.44" y1="188.12" y2="188.12" gradientUnits="userSpaceOnUse"><stop stop-color="#82E97A"/><stop offset="1" stop-color="#21DEBB"/></linearGradient><linearGradient id="e" x1="-67.24" x2="237.44" y1="188.12" y2="188.12" gradientUnits="userSpaceOnUse"><stop stop-color="#82E97A"/><stop offset="1" stop-color="#21DEBB"/></linearGradient><linearGradient id="f" x1="-67.24" x2="237.44" y1="188.12" y2="188.12" gradientUnits="userSpaceOnUse"><stop stop-color="#82E97A"/><stop offset="1" stop-color="#21DEBB"/></linearGradient><linearGradient id="g" x1="-67.24" x2="237.44" y1="188.12" y2="188.12" gradientUnits="userSpaceOnUse"><stop stop-color="#82E97A"/><stop offset="1" stop-color="#21DEBB"/></linearGradient><linearGradient id="h" x1="-67.24" x2="237.44" y1="188.12" y2="188.12" gradientUnits="userSpaceOnUse"><stop stop-color="#82E97A"/><stop offset="1" stop-color="#21DEBB"/></linearGradient></defs></svg>