<svg xmlns="http://www.w3.org/2000/svg" width="256" height="256" fill="none" viewBox="0 0 256 256"><rect width="256" height="256" fill="#242938" rx="60"/><path fill="#43B049" fill-rule="evenodd" d="M128.22 28c-3.83 0-7.65.3-11.24.59a119 119 0 0 1 15.07 12.15l3.83 3.56-3.83 3.82q-5.06 4.72-9.45 10.06v.29q-.8.84-1.48 1.77a68 68 0 1 1 7.1 135.7 66.3 66.3 0 0 1-35.48-10.06q-7.66.9-15.37.9a55 55 0 0 1-7.1-.31q.42 12.02 2.08 23.94a98 98 0 0 0 55.87 17.16 99.77 99.77 0 1 0 0-199.57m-54.1 15.96c6.82-4.43 14.17-8 21.87-10.64q-3.78 6.9-6.82 14.19a138 138 0 0 0-15.05-3.55M68.5 80.24a174 174 0 0 1 11.82-.52c-4.19 4-7.77 8.58-10.65 13.6a101 101 0 0 1-2.37-13zm-3.55 100.3v.59l-.9-.27a117 117 0 0 1-22.46-4.14l-.59-.3.3-.6a158 158 0 0 1 8.27-20.65l.3-.6.59.3q7.46 4.25 15.37 7.64l.6.3v.58q-1.43 8.51-1.48 17.15m0 5.9v-.59h-.6a153 153 0 0 1-19.22-3.25l-1.77-.3.9 1.49a103 103 0 0 0 20.98 23.05l1.18 1.19v-2.08q-1.36-9.71-1.47-19.51m56.16-141.6a143 143 0 0 0-6.2 6.8c-.26.3-1.78 2.07-3.56 4.46a207 207 0 0 0-12.57-5.33l-.73-.3q3.51-8.6 8.27-16.56a175 175 0 0 1 14.79 10.93m-73.9 63.87.3.58.58-.29q6.98-5 14.49-9.16l.58-.3v-.6a114 114 0 0 1-3.25-17.42v-.6h-.58a129 129 0 0 0-21.6 5.92l-.58.3.3.59a90 90 0 0 0 9.76 20.98m-1.77 10.04.58-.58.36.84q4.82 6.77 10.35 13l.29.29-.3.6a135 135 0 0 0-8.91 13.6l-.3.58-.58-.3q-8.66-5.7-16.57-12.4l-.6-.6.6-.54q7-7.81 15.08-14.49m39.9 62.68h1.77l-1.48-1.19a62 62 0 0 1-13.6-15.37v-.3l-1.17-.59v.9q-1.05 7.79-1.19 15.67v.58h.6c1.18 0 2.36.08 3.54.15s2.36.15 3.55.15zm.89-125.05q-2.55 7.12-4.14 14.5-7.71-.03-15.37.85-.51-9.76.3-19.51a140 140 0 0 1 19.2 4.16m5.31 14.18a87 87 0 0 1 13.9-6.8 82 82 0 0 0-10.65-4.43c-1.17 3.54-2.36 7.4-3.25 11.23m-46.98 81.06h.57l-.28 1.17a165 165 0 0 0-7.1 16.57l-.58 1.47-.6-1.47a93 93 0 0 1-7.98-27.78l-.3-1.79 1.48 1.19q7.11 5.71 14.79 10.64m13.29-94.65a99 99 0 0 0-15.37 19.8 235 235 0 0 1 15.54-3.8l.12-.02c-.3-5.34-.3-10.65-.3-15.98m2.95 68.29v1.77l-.84-1.5c-2.24-2.46-4.3-5.27-6.33-8.03l-1.94-2.6-.89-.6.6-.3c3.67-2.55 7.34-4.83 11.01-7.1l.46-.29 1.48-.88-.59 1.79a70 70 0 0 0-2.96 17.74m.88 12.12-.29-1.77-.88 1.48a149 149 0 0 0-7.64 12.12l-.31.58.6.3c4.01 2.3 8.32 4.32 12.63 6.34l.37.17 1.48.59-.59-1.48a66 66 0 0 1-5.37-18.33m-18.9-24.3-.6.3a73 73 0 0 0-13 12.46L28 127.03v-1.77a100 100 0 0 1 4.73-28.1l.6-1.76.58 1.48a160 160 0 0 0 8.58 15.6z" clip-rule="evenodd"/></svg>