<svg xmlns="http://www.w3.org/2000/svg" width="256" height="256" fill="none" viewBox="0 0 256 256"><rect width="256" height="256" fill="#F4F2ED" rx="60"/><path fill="#073042" d="M107.03 48.82H60.79c-9.21 0-16.78 7.86-16.78 17.6-.33 9.4 6.9 17.25 15.96 17.6h47.55z"/><path fill="#4285F4" d="M211.84 205.3H60.79c-9.38 0-16.78-7.86-16.78-17.6V66.26c0 9.73 7.57 17.6 16.78 17.76h126.53S212 81.8 212 101.1v104.2z"/><path fill="#3870B2" d="M141.41 143.12a16.04 16.04 0 0 0 2.97-22.04 15.4 15.4 0 0 0-11.69-6.32h.5a7 7 0 0 1 2.63 0v-9.74c0-1.2-.5-2.22-1.48-2.73a2.93 2.93 0 0 0-4.11 1.2c-.33.51-.5 1.02-.33 1.7v9.91c-8.23 1.37-13.99 9.4-12.68 18.11v.17c.67 4.1 2.8 7.86 6.1 10.25L95.5 205.47h18.1l12.83-28.35a6.46 6.46 0 0 1 8.89-3.25 7.3 7.3 0 0 1 3.12 3.25l13.33 28.35h18.43zm-9.37-2.73c-5.27 0-9.38-4.44-9.38-9.91s4.28-9.74 9.54-9.57a9.2 9.2 0 0 1 6.42 2.74 10 10 0 0 1 .16 13.83 9.5 9.5 0 0 1-6.74 2.9"/><path fill="#fff" d="M97 57.36h64.82v12.3H96.99z"/><path fill="#073042" d="M127.1 120.74c5.1 0 9.38 4.44 9.22 9.9 0 5.3-4.28 9.75-9.55 9.58-5.1 0-9.21-4.44-9.21-9.74a9.7 9.7 0 0 1 2.8-6.83 9.4 9.4 0 0 1 6.74-2.9m3.62-5.64v-10.25c0-1.2-.5-2.22-1.48-2.73a2.94 2.94 0 0 0-4.12 1.2c-.33.5-.49 1.02-.33 1.7v9.91c-8.22 1.37-13.98 9.4-12.66 18.11v.17a15.7 15.7 0 0 0 6.09 10.25l-35.05 78.07a8.7 8.7 0 0 0 .66 8.72c2.63 3.92 7.73 4.95 11.51 2.22a9 9 0 0 0 2.97-3.6l23.36-51.93a6.46 6.46 0 0 1 8.89-3.24 7.3 7.3 0 0 1 3.12 3.24l23.86 51.43a8.1 8.1 0 0 0 11.03 3.92c4.1-2.04 5.75-7.17 3.78-11.44l-36.03-77.73a16.4 16.4 0 0 0 2.46-22.38 15.4 15.4 0 0 0-8.06-5.64"/><path fill="#3DDC84" d="M152.28 68.3a4.37 4.37 0 0 1-4.45-4.45c0-1.2.5-2.56 1.32-3.41a4.46 4.46 0 0 1 6.25 0 4.8 4.8 0 0 1 1.32 3.24 4.74 4.74 0 0 1-4.44 4.62m-48.7-.17a4.47 4.47 0 0 1-4.45-4.45c0-1.2.5-2.39 1.31-3.24a4.3 4.3 0 0 1 6.1-.68h.16a4.7 4.7 0 0 1 .33 6.49l-.5.68a4.4 4.4 0 0 1-3.12 1.37zm50.01-27.51 8.72-15.72c.5-.85.16-1.87-.5-2.56-.81-.34-1.64-.17-2.13.52l-9.05 16.22a53.7 53.7 0 0 0-45.25 0L96.5 23.03c-.33-.52-1-1.03-1.65-1.03a1.8 1.8 0 0 0-1.65 1.02 1.9 1.9 0 0 0 0 1.88l8.89 15.72c-15.47 8.71-25.5 25.11-26.98 43.22h105.63c-1.32-18.28-11.52-34.51-26.99-43.22"/><path fill="#073042" d="M197.37 117.84h-6.91c-.33.17-.66.5-.66 1.02v113.6c0 .52.33.86.82.86h7.24c8.4 0 15.14-7.18 15.14-15.72V101.95c0 8.71-6.75 15.72-15.14 15.72h-.49z"/></svg>