<svg xmlns="http://www.w3.org/2000/svg" width="256" height="256" fill="none" viewBox="0 0 256 256"><rect width="256" height="256" fill="#000" rx="60"/><path fill="#fff" d="M96.04 163.88a4.8 4.8 0 0 1-3.58-1.56 4.9 4.9 0 0 1-.9-5.38l15.9-35.25.06-.13 15.5-34.37a5.1 5.1 0 0 1 8.96 0l31.46 69.75a4.91 4.91 0 0 1-7.43 5.95l-42.09-31.63-13.4 29.72a4.9 4.9 0 0 1-4.48 2.9m22.03-41.8 28.54 21.45-19.11-42.36z"/><path fill="#E00" d="M127.5 215a87.5 87.5 0 1 1 87.5-87.5 87.6 87.6 0 0 1-87.5 87.5m0-165.17a77.67 77.67 0 1 0 77.67 77.67 77.76 77.76 0 0 0-77.67-77.67"/></svg>