<svg xmlns="http://www.w3.org/2000/svg" width="256" height="256" fill="none" viewBox="0 0 256 256"><rect width="256" height="256" fill="url(#a)" rx="60"/><path fill="#fff" d="M140.28 73.05 113.62 73l-36.94 97.89 24.11.04 6.03-16.59 36.37.06-6.87-18.36-23.95-.04 14.91-42.12 28.93 77.14 24.12.04z"/><path fill="#fff" d="M233.14 99.12a5 5 0 0 0-.43-1.27 5.6 5.6 0 0 0-5.04-3.15c-1.46 0-2.85.56-3.86 1.57a5.2 5.2 0 0 0-1.23 5.54h-.02a96 96 0 0 1 4.1 26.37 93.8 93.8 0 0 1-27.9 68.57c-18.4 18.3-43.1 28.35-69.54 28.3a101 101 0 0 1-70.44-28.54c-18.98-18.36-29.66-42.75-30.07-68.67a93.8 93.8 0 0 1 27.9-68.57c18.4-18.3 43.1-28.34 69.54-28.3a101 101 0 0 1 64.13 22.94q-.9 2.33-.86 4.82c.12 7.28 6.23 13.2 13.65 13.2a13.03 13.03 0 0 0 13.24-13.15c-.12-7.28-6.23-13.19-13.65-13.2q-2.44 0-4.6.78a112.7 112.7 0 0 0-72.09-26.17c-60.73-.1-109.2 48.08-108.26 107.63s50.94 107.9 111.68 108.01S238.6 187.75 237.66 128.2a107 107 0 0 0-4.52-29.08"/><defs><linearGradient id="a" x1="0" x2="256" y1="0" y2="256" gradientUnits="userSpaceOnUse"><stop stop-color="#4010AC"/><stop offset="1" stop-color="#D540A8"/></linearGradient></defs></svg>