<svg xmlns="http://www.w3.org/2000/svg" width="256" height="256" fill="none" viewBox="0 0 256 256"><g clip-path="url(#a)"><path fill="#242938" d="M196 0H60A60 60 0 0 0 0 60v136a60 60 0 0 0 60 60h136a60 60 0 0 0 60-60V60a60 60 0 0 0-60-60"/><path fill="#00A0E2" fill-rule="evenodd" d="M191.07 195a61 61 0 0 1-10.48 13.19c-4.43 3.94-5.68 7.4-15.87 8.75-7.22 1.35-13.47-1.35-15.87-2.4-7.22-3.37-10.97-4.43-15.3-4.43-4.23 0-7.79 1.06-14.9 4.33a24.6 24.6 0 0 1-15.49 2.4c-7.5-1.34-11.35-4.23-14.14-6.63a87 87 0 0 1-14.04-15.49z" clip-rule="evenodd"/><path fill="#34BE2D" fill-rule="evenodd" d="M58.73 105.27c3.36-7.6 7.79-12.7 12.21-16.25 11.25-9.24 29.63-9.82 38.09-7.6 6.92 1.73 11.83 5.96 19.62 5.96 8.18 0 12.89-4.14 19.33-5.96 8.47-2.12 26.94-1.45 38.96 7.79 3.56 2.7 6.82 6.35 8.65 8.37a66 66 0 0 0-9.04 7.69z" clip-rule="evenodd"/><path fill="#FFB400" fill-rule="evenodd" d="M186.55 105.27a35 35 0 0 0-5.1 7.31 36 36 0 0 0-4.8 15.3H53.05c.1-1.16.2-2.41.39-3.66 1.15-7.6 2.98-13.85 5.29-18.95z" clip-rule="evenodd"/><path fill="#FF7A00" fill-rule="evenodd" d="M176.65 127.87q-.15 3.28 0 6.54c.28 5.3 2.11 11.16 4.52 15.87L55.46 150c-1.74-7.6-2.7-15.4-2.4-22.13z" clip-rule="evenodd"/><path fill="#F41E34" fill-rule="evenodd" d="M181.17 150.28a33 33 0 0 0 3.55 5.78c8.28 10.57 11.84 10.57 18.28 13.85-.48 1.15-.87 2.2-1.35 3.17l-138.88-.29a114 114 0 0 1-7.31-22.8z" clip-rule="evenodd"/><path fill="#A2359C" fill-rule="evenodd" d="M201.65 173.08c-4.04 9.43-7.3 16.35-10.58 21.93l-116.09-.29c-3.85-5.67-7.3-11.93-11.25-19.72-.3-.67-.68-1.44-.96-2.2z" clip-rule="evenodd"/><path fill="#34BE2D" fill-rule="evenodd" d="M161.35 52.66c-.67 4.8-3.08 10.96-6.92 14.9C150.29 72 143.85 76.8 140 79.2c-2.12 1.35-7.6 1.54-12.12 2.02-.58-4.04-.67-7.5.58-11.25 1.63-4.42 3.75-10.77 7.11-15.2 4.14-5.48 8.85-9.23 11.45-10.58 3.46-1.73 9.23-4.32 14.24-5.19.19 4.42.86 9.43.1 13.66" clip-rule="evenodd"/></g><defs><clipPath id="a"><path fill="#fff" d="M0 0h256v256H0z"/></clipPath></defs></svg>