<svg xmlns="http://www.w3.org/2000/svg" width="256" height="256" fill="none" viewBox="0 0 256 256"><rect width="256" height="256" fill="#F02E65" rx="60"/><path fill="#fff" fill-rule="evenodd" d="M159.95 192.8a64 64 0 0 1-32.27-8.66 64.35 64.35 0 0 1-71.04-4.33 64.4 64.4 0 0 1 71.04-107.13 64.39 64.39 0 1 1 32.27 120.12M116.9 80.53l.02-.02a52.5 52.5 0 1 0 24.54 22.67 52.7 52.7 0 0 0-24.56-22.65" clip-rule="evenodd"/><path fill="#fff" d="M97.15 106.14c-.08.19-1.06 4.05-2.12 8.64-1.1 4.59-2.85 11.83-3.83 16.1-1.9 7.85-3.03 13-3.03 13.7 0 .18 1.17.33 2.61.33h2.62l1.17-5.23c.68-2.84 2.2-9.36 3.41-14.48 1.22-5.12 2.7-11.33 3.26-13.83.57-2.5 1.14-4.78 1.25-5.04.12-.34-.53-.46-2.5-.46-1.48 0-2.77.12-2.84.27m-20.36 16.4-3.48 3.8 1.02 1.21c.57.68 2.12 2.4 3.45 3.8l2.43 2.57h6.9l-3.26-3.53c-1.79-1.89-3.27-3.7-3.27-3.94 0-.26 1.37-1.97 3.04-3.79 1.66-1.85 3.03-3.45 3.03-3.64 0-.15-1.44-.26-3.18-.26h-3.15zm26.54-3.55c0 .11.64.83 1.44 1.63 2.95 2.95 5.04 5.46 4.92 5.95-.07.26-1.51 2.04-3.25 3.9l-3.15 3.45h3.52l3.53-.04 3.22-3.52c1.78-1.97 3.22-3.72 3.22-3.95 0-.18-1.51-1.97-3.41-3.97l-3.41-3.68h-3.3c-1.86 0-3.33.11-3.33.23"/></svg>