<svg xmlns="http://www.w3.org/2000/svg" width="256" height="256" fill="none" viewBox="0 0 256 256"><g clip-path="url(#a)"><path fill="#242938" d="M196 0H60A60 60 0 0 0 0 60v136a60 60 0 0 0 60 60h136a60 60 0 0 0 60-60V60a60 60 0 0 0-60-60"/><g clip-path="url(#b)"><path fill="#1793D1" d="M127.5 41c-7.79 19.1-12.52 31.6-21.2 50.14a137 137 0 0 0 22.46 19.59c-11.4-4.7-19.16-9.39-24.97-14.27C92.69 119.62 75.29 152.59 40 216c27.73-16 49.22-25.88 69.26-29.65a51 51 0 0 1-1.29-11.88l.03-.87c.44-17.77 9.68-31.44 20.63-30.51s19.48 16.09 19.04 33.86a50 50 0 0 1-1.14 9.55c19.82 3.88 41.11 13.7 68.47 29.5-5.4-9.93-10.23-18.88-14.82-27.4-7.25-5.62-14.8-12.93-30.21-20.84 10.6 2.76 18.18 5.94 24.1 9.49C147.3 90.2 143.53 78.63 127.5 41"/><path fill="#fff" fill-opacity=".17" d="M176.76 145.01c-37.93-51.48-46.73-92.97-48.95-102.88 20.23 46.67 20.1 47.24 48.94 102.89"/><path fill="url(#c)" d="M127.82 41.75 125 48.67l-2.88 7.07a1008 1008 0 0 1-5.6 13.3q-1.41 3.3-2.9 6.67a572 572 0 0 1-6.67 14.4l-.56 1.13a137 137 0 0 0 22.37 19.49c-11.36-4.68-19.12-9.36-24.93-14.23l-.87 1.8-1.33 2.62q-1.11 2.3-2.33 4.72c-.3.62-.58 1.15-.9 1.78a1485 1485 0 0 1-19.46 37.5c22.2-12.5 46.14-30.54 89.62-15a1534 1534 0 0 1-11.32-21.93 819 819 0 0 1-8.46-17.34 508 508 0 0 1-12.12-27.9l-.96-2.44z"/></g></g><defs><clipPath id="a"><path fill="#fff" d="M0 0h256v256H0z"/></clipPath><clipPath id="b"><path fill="#fff" d="M40 41h175v175H40z"/></clipPath><linearGradient id="c" x1="127.9" x2="104.12" y1="61.73" y2="133.77" gradientUnits="userSpaceOnUse"><stop stop-color="#fff" stop-opacity="0"/><stop offset="1" stop-color="#fff" stop-opacity=".27"/></linearGradient></defs></svg>