<svg xmlns="http://www.w3.org/2000/svg" width="256" height="256" fill="none" viewBox="0 0 256 256"><rect width="256" height="256" fill="#00979C" rx="60"/><path fill="#fff" fill-rule="evenodd" d="M19 136.51V120.1c.34-.18.34-.52.34-.86C24.51 96.84 38.62 83.33 61 78.03c1.9-.52 3.96-.35 5.86-1.03h11.01c.17.34.69.17 1.03.17 11.02 1.2 21 5.13 29.78 11.97 7.57 5.65 13.42 12.83 18.76 20.52.69 1.03 1.03 1.03 1.72 0a103 103 0 0 1 10.15-12.65c9.12-9.75 20.14-16.59 33.56-18.98 1.9-.52 4.13-.35 6.03-1.03h10.67c.17.34.51.17.86.17 3.27.34 6.37 1.03 9.46 1.88 23.07 6.67 39.42 27.7 38.04 51.48-1.03 20-11.19 34.37-28.91 43.43-8.78 4.8-18.42 5.99-28.4 5.82-13.08-.17-24.44-4.62-34.25-13.17-6.89-5.99-12.22-13.17-17.21-20.7-.69-1.02-1.03-.85-1.72.18a148 148 0 0 1-10.16 13.68c-6.7 7.52-14.45 13.68-24.1 16.93-11.87 4.1-23.92 4.28-35.96 1.03-17.39-4.96-29.26-15.9-35.8-32.67-1.03-2.73-1.55-5.81-2.41-8.55m54.73 25.14c9.81.34 18.24-2.9 25.47-9.58 7.4-6.84 12.74-15.39 18.07-23.77.17-.5.17-.85-.17-1.36-4.47-7.02-9.12-14.03-15.32-19.84C89.91 95.8 75.97 92.05 60.31 97c-12.91 4.28-21.17 13.35-23.07 27.03-1.89 12.82 3.1 23.09 13.43 30.78 6.88 4.96 14.63 7.01 23.06 6.84m109.12 0c3.78 0 7.57-.17 11.18-1.2 13.6-4.1 22.55-12.48 25.13-26.5 2.58-13.85-2.75-24.97-14.46-32.84-12.9-8.89-31.66-8.03-44.74 1.71-8.78 6.5-14.63 15.22-20.49 24.29-.34.51-.17.85 0 1.36 4.65 7.36 9.3 14.71 15.32 21.04 7.57 8.04 16.7 12.65 28.06 12.14" clip-rule="evenodd"/><path fill="#fff" fill-rule="evenodd" d="M73.56 122.83c5.5 0 11.18.17 16.7 0 1.37 0 1.54.34 1.54 1.71a21 21 0 0 0 0 4.62c.17 1.37-.17 1.7-1.72 1.7H68.05c-3.79 0-7.57-.16-11.36 0-1.2 0-1.55-.33-1.55-1.7.17-1.54.17-3.08 0-4.79 0-1.2.35-1.54 1.55-1.54 5.5.17 11.19 0 16.87 0m108.43-10.94c1.37 0 2.75.17 3.95 0 .86 0 1.2.34 1.2 1.2-.16 2.39 0 4.78-.16 7.18 0 1.2.34 1.54 1.55 1.54 2.23-.18 4.64 0 7.05-.18 1.03 0 1.38.18 1.38 1.37v7.87c0 .85-.35 1.2-1.2 1.2-2.42-.17-4.83 0-7.4-.17-1.04 0-1.38.34-1.38 1.36.17 2.4 0 4.8.17 7.19 0 1.02-.35 1.54-1.38 1.54a59 59 0 0 0-7.74 0c-1.04 0-1.38-.35-1.38-1.37.17-2.57 0-4.96.17-7.53 0-.85-.34-1.2-1.2-1.2-2.41.18-4.82 0-7.23.18-1.38 0-1.55-.52-1.55-1.54 0-2.4.17-4.8 0-7.19-.17-1.36.52-1.7 1.72-1.7 2.41.17 4.65 0 7.06.17.86 0 1.2-.35 1.2-1.2-.17-2.4 0-4.96-.17-7.36 0-1.02.34-1.36 1.38-1.36 1.37.17 2.58 0 3.96 0" clip-rule="evenodd"/></svg>