<svg xmlns="http://www.w3.org/2000/svg" width="256" height="256" fill="none"><rect width="256" height="256" fill="#242938" rx="60"/><g transform="translate(128 128)"><circle cy="-20" r="45" fill="#EF7B4D"/><circle cx="-15" cy="-30" r="12" fill="#fff"/><circle cx="15" cy="-30" r="12" fill="#fff"/><circle cx="-15" cy="-30" r="6" fill="#242938"/><circle cx="15" cy="-30" r="6" fill="#242938"/><path fill="#EF7B4D" d="M-50 20q-10 30 5 50 5-20 10-45Zm25 10q-5 30 10 45 0-20 5-45Zm25 5q0 30 10 45 5-20 0-45Z"/><path fill="#EF7B4D" d="M25 30q5 30-10 45 0-20-5-45Zm25-10q10 30-5 50-5-20-10-45Z"/></g></svg>