<svg xmlns="http://www.w3.org/2000/svg" width="256" height="256" fill="none" viewBox="0 0 256 256"><rect width="256" height="256" fill="url(#a)" rx="60"/><path fill="#31274A" fill-rule="evenodd" d="M157.72 33.01c1.63 2.03 2.47 4.77 4.13 10.24l36.4 119.56a152 152 0 0 0-43.52-14.73L131.03 68a3.09 3.09 0 0 0-5.91 0l-23.41 80.04A152 152 0 0 0 58 162.79L94.57 43.22c1.68-5.46 2.51-8.2 4.14-10.22a13.4 13.4 0 0 1 5.45-4.03c2.42-.97 5.27-.97 10.99-.97h26.12c5.72 0 8.58 0 11 .97 2.13.86 4 2.25 5.45 4.04" clip-rule="evenodd"/><path fill="#FF5D01" fill-rule="evenodd" d="M162.07 168.5c-6 5.13-17.97 8.63-31.77 8.63-16.93 0-31.12-5.27-34.88-12.36-1.35 4.06-1.65 8.71-1.65 11.68 0 0-.89 14.59 9.26 24.73a9.54 9.54 0 0 1 9.53-9.54c9.03 0 9.02 7.88 9.01 14.27v.57A23.3 23.3 0 0 0 135.93 228a19.6 19.6 0 0 1-1.96-8.57c0-9.25 5.43-12.7 11.74-16.7 5.02-3.19 10.6-6.72 14.45-13.82a26.2 26.2 0 0 0 1.92-20.4" clip-rule="evenodd"/><path fill="url(#b)" fill-rule="evenodd" d="M162.07 168.5c-6 5.13-17.97 8.63-31.77 8.63-16.93 0-31.12-5.27-34.88-12.36-1.35 4.06-1.65 8.71-1.65 11.68 0 0-.89 14.59 9.26 24.73a9.54 9.54 0 0 1 9.53-9.54c9.03 0 9.02 7.88 9.01 14.27v.57A23.3 23.3 0 0 0 135.93 228a19.6 19.6 0 0 1-1.96-8.57c0-9.25 5.43-12.7 11.74-16.7 5.02-3.19 10.6-6.72 14.45-13.82a26.2 26.2 0 0 0 1.92-20.4" clip-rule="evenodd"/><defs><linearGradient id="a" x1="128" x2="128" y1="0" y2="256" gradientUnits="userSpaceOnUse"><stop offset=".19" stop-color="#FCB3B2"/><stop offset="1" stop-color="#C587EE"/></linearGradient><linearGradient id="b" x1="189.09" x2="153.56" y1="126.77" y2="201.13" gradientUnits="userSpaceOnUse"><stop stop-color="#FF1639"/><stop offset="1" stop-color="#FF1639" stop-opacity="0"/></linearGradient></defs></svg>