<svg xmlns="http://www.w3.org/2000/svg" width="256" height="256" fill="none" viewBox="0 0 256 256"><rect width="256" height="256" fill="#242938" rx="60"/><rect width="256" height="256" fill="url(#a)" rx="60"/><path fill="#F2F8F6" d="M95.9 106.85a264 264 0 0 0-4.7 7.54 195 195 0 0 1-4.36-13.44q6.62-.95 14.03-1.48-2.51 3.6-4.97 7.38m121.87 8.83c-4.88-4.68-11.86-8.98-20.75-12.76-17.63-7.51-41.25-12.38-66.51-13.7a277 277 0 0 0-8.9-.33c19.29-23.02 37.91-35.27 48.76-35.68q3.46-.13 5.73 1.35c5.08 3.3 6.49 13.53 3.77 27.37a5.04 5.04 0 0 0 9.9 1.95c4.66-23.8-1.87-33.68-8.17-37.77q-4.97-3.22-11.62-2.97c-16.68.63-40.06 18.42-61.39 45.85-8.44.29-16.58 1.02-24.2 2.15q-1.26-5.83-1.92-11.25c-1.91-15.76.43-26.95 6.28-29.93a8 8 0 0 1 3.13-.85c5.22-.39 12.59 3.12 20.73 9.88a5.04 5.04 0 0 0 6.44-7.76C108.6 42.55 99.2 38.45 91.13 39.06q-3.77.29-6.96 1.91c-5.43 2.77-9.14 8.07-11.03 15.76-1.61 6.58-1.84 14.78-.68 24.38q.7 5.7 2 11.81a124 124 0 0 0-16.42 4.57c-21.64 7.82-26.64 18.13-27.02 25.4-.36 6.94 3.2 17.27 22.19 27.06a5.04 5.04 0 1 0 4.62-8.96c-10.93-5.63-17.03-12.04-16.74-17.58.41-7.8 13.5-16.06 35.77-20.72 2.07 7.46 4.72 15.2 7.9 23.05-8.01 15.03-13.85 29.85-16.88 43.03-2.17 9.41-2.8 17.59-1.88 24.3 1.07 7.83 4.2 13.49 9.3 16.81a19.3 19.3 0 0 0 10.74 3.02c6.68 0 15.68-2.79 27.58-11.27a5.04 5.04 0 1 0-5.86-8.21c-11.72 8.36-21.8 11.36-26.96 8-5.5-3.56-6.65-14.93-3.1-30.4 2.36-10.25 6.57-21.61 12.27-33.33q1.86 3.98 3.88 7.96c11.48 22.55 25.54 42.17 39.58 55.25 7.07 6.59 13.83 11.22 20.1 13.78a28 28 0 0 0 10.68 2.33q4.61 0 8.53-2c5.23-2.67 8.88-7.7 10.82-14.96 1.67-6.22 2.04-13.98 1.11-23.06-1.82-17.85-8.57-39.62-19-61.31a5.04 5.04 0 0 0-9.08 4.37c9.93 20.66 16.35 41.25 18.05 57.97 1.5 14.7-.92 25.18-6.48 28.01-5.84 2.98-16.25-1.7-27.86-12.5-13.2-12.3-26.5-30.93-37.47-52.46q-3.75-7.39-6.9-14.75a250 250 0 0 1 17.74-27.37l2.5-.02c4.33-.02 8.97.1 13.8.36 24.12 1.26 46.53 5.85 63.1 12.9 14.59 6.22 23.09 13.84 22.74 20.39-.29 5.56-7.05 11.31-18.54 15.77a5.04 5.04 0 0 0 3.64 9.4c19.98-7.75 24.6-17.68 24.97-24.65.32-6.08-2.4-11.94-8.1-17.42"/><path fill="#F1F8F3" d="M118.05 129.34a11.02 11.02 0 1 0 22.04.01 11.02 11.02 0 0 0-22.04 0"/><defs><linearGradient id="a" x1="128" x2="128" y1="10.14" y2="256" gradientUnits="userSpaceOnUse"><stop stop-color="#B2E198"/><stop offset="1" stop-color="#04A171"/></linearGradient></defs></svg>