<svg xmlns="http://www.w3.org/2000/svg" width="256" height="256" fill="none" viewBox="0 0 256 256"><rect width="256" height="256" fill="#F4F2ED" rx="60"/><path fill="#BF2223" d="m105.96 27.02 42.42-.02a377 377 0 0 1 24.63 53.06c2.76 6.8 5.55 13.6 7.8 20.6 3.35 10.28 7.58 20.21 10.79 30.54 6.3 21.74 11.87 43.71 17.47 65.66 2.1 8.74 4.98 17.24 6.86 26.03-2.96 1.01-5.95 1.98-8.9 3.02-3.34 1.1-6.87 1-10.32 1.3-4.93.5-9.9.82-14.83 1.27l-11.9-8.57c-.55-3.95-.47-7.99-1.18-11.92-2.02-12.62-5.2-25.01-8.8-37.23l-66.19 9.58-1.5 8.34c-2.22 9.86-1.67 20.07-2.26 30.11l-15.12 9.74c-.97.78-2.24.35-3.35.34-3.73-.4-7.5-.38-11.22-.85-3.79-.5-7.85.21-11.4-1.58-2.97-1.44-6.03-2.68-8.96-4.2 3.38-16.76 7.87-33.24 12.25-49.74 5.4-20.58 11.88-40.84 18.54-61a550 550 0 0 1 35.17-84.48m18.38 59.4c-5.5 16.67-11.88 33-17.77 49.53l35.2-20.23a1559 1559 0 0 0-10.51-29.81c-.69-1.67-1.38-3.83-3.29-4.3-2.26.28-2.92 2.94-3.63 4.81"/></svg>