<svg xmlns="http://www.w3.org/2000/svg" width="256" height="256" fill="none" viewBox="0 0 256 256"><rect width="256" height="256" fill="#242938" rx="60"/><path fill="#fff" d="M84.74 111.96q.02 3.67.73 5.86a35 35 0 0 0 2.1 4.73q.48.81.46 1.52.01.98-1.25 1.97l-4.14 2.76q-.9.6-1.71.6-1-.01-1.97-.93a20 20 0 0 1-2.37-3.09 51 51 0 0 1-2.04-3.88q-7.7 9.08-19.34 9.08-8.31 0-13.16-4.74-4.86-4.74-4.87-12.63c0-5.6 1.97-10.13 5.99-13.55 4-3.42 9.34-5.13 16.11-5.13q3.34.02 6.98.52c2.43.33 4.93.86 7.56 1.45v-4.8q-.02-7.48-3.09-10.53-3.14-3.05-10.72-3.03-3.45-.01-7.1.86a53 53 0 0 0-7.11 2.24q-1.6.67-2.3.85-.69.2-1.06.2-1.38.02-1.38-2.04v-3.22q-.02-1.6.46-2.3t1.84-1.39a38 38 0 0 1 8.3-2.96 40 40 0 0 1 10.26-1.25q11.72 0 17.23 5.33 5.45 5.33 5.46 16.18v21.32zm-26.7 10q3.23 0 6.77-1.18a14.7 14.7 0 0 0 6.25-4.21 10.4 10.4 0 0 0 2.24-4.21c.4-1.58.66-3.5.66-5.73v-2.76q-2.88-.71-6.06-1.12a50 50 0 0 0-6.18-.4c-4.41 0-7.63.86-9.8 2.64q-3.25 2.64-3.23 7.56-.01 4.63 2.44 6.98 2.37 2.44 6.9 2.43m52.82 7.1c-1.18 0-1.97-.2-2.5-.65-.52-.4-.98-1.32-1.38-2.57L91.52 75q-.6-1.96-.6-2.63c0-1.06.54-1.65 1.59-1.65h6.45q1.87-.02 2.56.66c.53.4.92 1.31 1.32 2.56l11.05 43.56 10.26-43.56q.48-1.97 1.25-2.56a4.5 4.5 0 0 1 2.63-.66h5.27q1.85-.02 2.63.66c.53.4.99 1.31 1.25 2.56l10.4 44.08 11.38-44.08q.6-1.97 1.31-2.56a4.3 4.3 0 0 1 2.57-.66h6.12c1.05 0 1.64.53 1.64 1.65q-.02.47-.13 1.05c-.07.4-.2.92-.46 1.64l-15.86 50.86q-.6 1.97-1.38 2.56c-.53.4-1.38.66-2.5.66h-5.66q-1.86.02-2.63-.66c-.52-.46-.98-1.31-1.25-2.63l-10.2-42.43-10.13 42.37q-.47 1.95-1.25 2.63c-.52.46-1.45.66-2.63.66zm84.54 1.78c-3.42 0-6.84-.4-10.13-1.18-3.29-.8-5.85-1.65-7.56-2.63-1.06-.6-1.78-1.25-2.04-1.85a5 5 0 0 1-.4-1.84V120c0-1.38.53-2.04 1.51-2.04q.6 0 1.19.2c.4.13.99.39 1.64.65q3.37 1.5 7.24 2.3c2.63.53 5.2.8 7.83.8 4.14 0 7.37-.73 9.6-2.18a7.1 7.1 0 0 0 3.43-6.25q0-2.74-1.78-4.6-1.8-1.86-6.65-3.42l-9.53-2.96c-4.8-1.52-8.36-3.75-10.53-6.71a15.7 15.7 0 0 1-3.3-9.54q0-4.15 1.79-7.3a17 17 0 0 1 4.73-5.4 21 21 0 0 1 6.84-3.42 28 28 0 0 1 8.3-1.12c1.44 0 2.95.07 4.4.26 1.52.2 2.9.46 4.28.73 1.31.33 2.56.65 3.75 1.05q1.77.6 2.76 1.18a6 6 0 0 1 1.97 1.65q.6.78.6 2.17v3.1c0 1.37-.53 2.1-1.52 2.1q-.8 0-2.5-.8a30 30 0 0 0-12.63-2.56c-3.75 0-6.7.6-8.75 1.84s-3.09 3.16-3.09 5.86q0 2.78 1.97 4.67c1.32 1.25 3.75 2.5 7.24 3.62l9.34 2.96q7.13 2.27 10.2 6.31a15 15 0 0 1 3.03 9.22c0 2.82-.6 5.39-1.71 7.63a18 18 0 0 1-4.8 5.79 21 21 0 0 1-7.3 3.68 31 31 0 0 1-9.42 1.38"/><path fill="#F90" fill-rule="evenodd" d="M207.84 162.82c-21.65 15.98-53.1 24.47-80.14 24.47-37.89 0-72.03-14.01-97.82-37.3-2.04-1.84-.2-4.34 2.23-2.9 27.9 16.19 62.3 25.99 97.9 25.99 24.01 0 50.4-5 74.67-15.26 3.62-1.65 6.7 2.36 3.16 5" clip-rule="evenodd"/><path fill="#F90" fill-rule="evenodd" d="M216.85 152.55c-2.76-3.55-18.29-1.7-25.33-.85-2.1.26-2.43-1.58-.53-2.96 12.37-8.69 32.7-6.19 35.07-3.3 2.37 2.97-.66 23.3-12.24 33.03-1.77 1.52-3.48.73-2.7-1.25 2.64-6.5 8.5-21.18 5.73-24.67" clip-rule="evenodd"/></svg>