<svg xmlns="http://www.w3.org/2000/svg" width="256" height="256" fill="none" viewBox="0 0 256 256"><rect width="256" height="256" fill="url(#a)" rx="60"/><g clip-path="url(#b)"><path fill="#fff" fill-rule="evenodd" d="m140.5 39.3.1 11.3 20.87.2 20.87.2-2.36 3.8-3.12 5-12.09 19.49a698 698 0 0 0-5.63 9.11l-3.35 5.4A3361 3361 0 0 1 143 114.4q-2.61 4.06-2.61 4.75c0 .34 11.28.43 43.7.35l43.7-.1V96.6l-23.1-.1-23.12-.1.67-1.3c.37-.72.99-1.75 1.37-2.3s2.19-3.43 4-6.4c1.82-2.97 3.7-6.03 4.2-6.8s2.55-4.1 4.58-7.4 4.1-6.63 4.6-7.4 2.12-3.38 3.6-5.8c1.49-2.42 3.1-5.03 3.6-5.8s2.4-3.83 4.22-6.8 3.88-6.3 4.6-7.4c2.42-3.77 6.58-10.59 6.58-10.8 0-.1-18.72-.2-41.6-.2h-41.61zm-69.08-3.2L66.2 46.2l-6.2 12-6.4 12.4c-6.2 11.95-8.69 16.77-18.05 34.9a795 795 0 0 1-4.8 9.15 51 51 0 0 0-1.93 3.9l-.4 1.05H61.8l2.5-4.9c8.04-15.72 11.61-22.47 11.94-22.57.2-.07.99 1 1.76 2.37a849 849 0 0 0 5.4 9.5l2.45 4.27c.52.92 2.19 3.8 3.71 6.4l2.76 4.73 17.22.1 17.22.1-1.43-2.5-2.23-3.9c-.43-.77-2.82-4.91-5.3-9.2a1214 1214 0 0 1-5.62-9.8c-.61-1.1-2.22-3.89-3.58-6.2a710 710 0 0 1-7-12.2c-.49-.88-3.6-6.28-6.91-12s-6.52-11.3-7.12-12.4-3.14-5.51-5.64-9.8a571 571 0 0 1-5.32-9.3c-1.42-2.68-2.1-2.18-5.19 3.8M28.1 163.9l.11 29.1 1.13 3.2c5 14.23 15.23 25.16 28.65 30.62l2.9 1.18h15.06c16.81-.01 15.96.1 22.06-3.02 15.31-7.85 25-22.08 26.78-39.3.44-4.34.6-48.34.18-49.45-.22-.56-2-.63-15.98-.63H93.24l-.14 24.7c-.15 27.35-.02 25.94-2.85 30.41-6.73 10.65-23.54 9.75-29.28-1.56-1.78-3.53-1.88-4.97-2.13-30.15l-.24-24-15.31-.1-15.31-.11zm112.18-28.03c-.15.14-.27 20.93-.27 46.2V228h88v-26.4l-30.7-.1-30.7-.1-.1-32.9-.1-32.9h-12.94c-7.1 0-13.05.12-13.2.27" clip-rule="evenodd"/></g><defs><linearGradient id="a" x1="0" x2="256" y1="0" y2="266" gradientUnits="userSpaceOnUse"><stop stop-color="#014C8E"/><stop offset="1" stop-color="#013B70"/></linearGradient><clipPath id="b"><path fill="#fff" d="M28 28h200v200H28z"/></clipPath></defs></svg>