<svg xmlns="http://www.w3.org/2000/svg" width="256" height="256" fill="none" viewBox="0 0 256 256"><rect width="256" height="256" fill="#F4F2ED" rx="60"/><path fill="url(#a)" d="M94.67 34h59.19L92.42 216.03a9.4 9.4 0 0 1-8.94 6.42H37.42a9.42 9.42 0 0 1-8.93-12.43l57.24-169.6A9.4 9.4 0 0 1 94.67 34"/><path fill="#0078D4" d="M180.67 156.1H86.83a4.34 4.34 0 0 0-2.97 7.52l60.3 56.28a9.5 9.5 0 0 0 6.47 2.55h53.14z"/><path fill="url(#b)" d="M94.67 34a9.4 9.4 0 0 0-8.96 6.55L28.56 209.86a9.4 9.4 0 0 0 8.89 12.6h47.24a10.1 10.1 0 0 0 7.75-6.6l11.4-33.59 40.7 37.97a9.6 9.6 0 0 0 6.07 2.21h52.94l-23.22-66.35-67.69.01 41.43-122.1z"/><path fill="url(#c)" d="M170.26 40.41a9.4 9.4 0 0 0-8.92-6.4H95.38a9.4 9.4 0 0 1 8.93 6.4l57.24 169.6a9.43 9.43 0 0 1-8.93 12.44h65.96a9.43 9.43 0 0 0 8.92-12.43z"/><defs><linearGradient id="a" x1="116.24" x2="54.78" y1="47.97" y2="229.54" gradientUnits="userSpaceOnUse"><stop stop-color="#114A8B"/><stop offset="1" stop-color="#0669BC"/></linearGradient><linearGradient id="b" x1="135.44" x2="121.23" y1="132.59" y2="137.39" gradientUnits="userSpaceOnUse"><stop stop-opacity=".3"/><stop offset=".07" stop-opacity=".2"/><stop offset=".32" stop-opacity=".1"/><stop offset=".62" stop-opacity=".05"/><stop offset="1" stop-opacity="0"/></linearGradient><linearGradient id="c" x1="127.63" x2="195.09" y1="42.67" y2="222.41" gradientUnits="userSpaceOnUse"><stop stop-color="#3CCBF4"/><stop offset="1" stop-color="#2892DF"/></linearGradient></defs></svg>