<svg xmlns="http://www.w3.org/2000/svg" width="256" height="256" fill="none" viewBox="0 0 256 256"><rect width="256" height="256" fill="#3B3C37" rx="60"/><path fill="#000" d="m165.16 95.91-.04-.43-.7.06.05.43zm4.67 11.23.02.23.48-.04q0-.23.15-.68l-.04-.43q-.32.03-.6.92m-18.21 14.14q-.04-.59-3.72-4.69-.07-.75 2.52-2.24l4.94-4.3q1.65-2.1 1.95-6.84l-.06-.72q-.29-3.28-4.78-5.3-2.66-1.79-9.57-1.97-5.7.48-14.92 4.09a61 61 0 0 1-5.76 3.63l.03.37q.22-.01.58-.25.39-.03.41.33l.37-.2.18-.01.02.16q.02.3-4 3.12l.2.38-.18.02-.44-.16q.01.2-.55.25l.02.16.42.53a2 2 0 0 1-.61-.15q-.94.09-1.84 1l.25-1.08q1.36-5.83 1.85-10.32l-.04-.19a8 8 0 0 1-1.8-1.67q.03-.68 0-.78l-.03-.16-.18.04q-2.92 4.4-11.27 14.98-6.36 7.53-6.56 8.38-2.6 2.67-2.47 3.23-.69.44-.57.92-.21.05-.26-.15a5 5 0 0 1-3.29 2.3l-1.54.36q-.3.06-.3.44l.05.2.58-.14.04.16-1.3.5-2.3.54-1.21.07c-.18.18.96-.02.52.09l-1.51.35q-1.38.32-1.5-.23l-.19.04q.06.23.02.38l-.09-.36-1.21.28q-.14-.84-4.9-6.12-.09-1.02 3.35-2.95l6.47-5.69q2.17-2.79 2.58-8.95l-.09-.96q-.37-4.34-6.29-7.03-3.5-2.36-12.58-2.56-7.54.66-19.65 5.33a75 75 0 0 1-7.58 4.79l.05.5q.3-.02.75-.3.49-.02.53.42l.5-.28.26-.02.01.24q.03.36-5.3 4.12l.28.45-.25.01-.55-.2q.03.24-.75.3l.03.27.59.65q-.3.02-.8-.16-1.72.15-3.38 2.5l.28.44q1.44-1.33 1.68-1.35l.06.73q-.24.02-.75.3l.6.9a20 20 0 0 1 3.86-3.23q1.05.28 1.08.64l.53-.05a41 41 0 0 1 11.31-6.11l.05.5q-1.05 1.55-1.42 1.6.04.52.37.93.08.95-5.08 12.83-11.71 27.61-19.7 40.83 0 .27.3.7 1.98-.46 2.5-.94l.28-.03.05.5.48-.04.5-.28q.02.23.52.2l.05.5q.06.72-.83 2.24-.8.9-1.71 3.81l.01.24.49-.05a31 31 0 0 0 4.84-6.98q9.3-2.72 14.21-5.37 4.95-.43 7.52-2.58l-.03-.27-1.24.37-.28.03-.03-.26q3.63-.54 5.02-1.64A156 156 0 0 1 72 142.4q7.43-5.45 9.63-10.62l.83-.19q1.04-.03 1.18-.07-.04-.2.16-.24c1.11-.12.58.07 1.29-.09l1.86-.43q-.18.05-.13.2l.28-.17-.15-.03.31-.07-.15.09q.31.04.68-.05l.14.55-8.47 13.46-1.87 2.34-.92 3.08.18-.05.91-.38-.3 1.2.1.35.25.31q-.17.04-.14.24l.05.19.38-.1q.84-.72.71-1.32.9.16 1.21.09l.05.2q-.55.13-.6.88l.05.19.2-.04c3.08-3.36 10.61-14.84 16.66-22.62q-.3-1.25 9.45-3.52l.2-.04q.36 1.53-1.5 7.4-1.2 3.55-1.12 3.87-1.55 4.72-1.47 5.11l-2.3 7.55a69 69 0 0 0-3.43 12.22q.2-.05.64.05l.32-.28q.05.2.25.15l-.13-.54 1-.03q.45-.12.76-1.13-.07-1.51.62-1.68.93-3.62 1.14-3.68.86-3.6 1.28-4.12 1.3-4.7 1.92-4.84l.09.38-.63 1.64a80 80 0 0 1-3.37 11.65l.32 1.42.2-.04q4.13-8.87 11.87-35.1a4.6 4.6 0 0 1 2.2-3.57l-.3-.31-.04-.17q.89-.2 1.24-.7-.04-.19-1.55-.58l2.57-11.02q.84-.76 1-.77l.03.56q-.2.03-.57.25l.49.7q1.31-1.44 2.9-2.48.78.22.82.5l.38-.03a31 31 0 0 1 8.62-4.61l.02.37q-.77 1.17-1.06 1.2.04.4.24.7.06.74-3.83 9.77-8.9 20.93-14.96 30.99.02.19.26.54a5 5 0 0 0 1.88-.72l.18-.01.03.36.41-.02.37-.2q.02.15.4.14l.03.4q.05.53-.64 1.68-.64.69-1.34 2.88l.01.2.39-.04a23 23 0 0 0 3.67-5.31q7.07-2.09 10.79-4.07 3.78-.33 5.73-1.96l-.02-.2-.96.29-.2.01-.02-.2q2.77-.4 3.81-1.22 5.37-4.12 8.11-5.86 8.53-6.22 8.04-11.97m-.98.25.14 1.49q-.28.56-.55.57l-.22-2.54q.61.22.63.48M38.8 109.5l-.25.02-.05-.46 1.02-.09.02.24q-.26 0-.74.3m-4.98 49.8a3 3 0 0 0-1.58-.33l-.06-.72q-.05-.43.49-.55.49-.04.54.68a11 11 0 0 1 1.42-1.6l.55.23q-.28 2.2-1.36 2.28m53.19-55.65q-.38.03-1.48-2.3l-.04-.46q.7-.07 1.48 2.3zm-.7-5.5-.22.48-7.22-3.01q7.23.24 7.43 2.52m-30.5 26.18-1.02.1-.04-.47 1.01-.09zm-.83-15.73.25-.01.06.72q-.34.03-.93 1.05l-.04-.5c.45-.55.7-.96.66-1.26m-2.14 5.05.09.96-.25.02-.1-.96zm-1.12 1.8.48-.04q-.06 1.2-.66 1.26l-.25.01q.46-.8.43-1.23m-.84 2.52.28-.03.01.23-.46.77-.48.05-.02-.24q.73-.07.67-.78m-.83 2.26-.15 1.2-.25.02-.1-1.2zm-8.29 23.56q-.49 2.48-1.05 2.52l-.01-.24q-.14-1.2 1.06-2.28m-1.52 3.29.02.24q.04.49-.45.53l-.01-.24q-.04-.42.44-.53m-.44 6.84.77-.07.02.26a2 2 0 0 0-.75.3l-.49.04q-.03-.38.45-.53m21.86-6.75q-6.48 3.2-7.6 4.33-7.02 2.43-6.95 3.02a76 76 0 0 0-8.2 3.6q-.45.06-1.34-.35-.12-1.25 1.12-2.06 1.09-.1 2.08.32 1.16-.6 4.02-1.31l-.04-.5-1.54.13q.29-.4 4.45-2.09l.76-.07.02.24q-1.97.16-2.2 1.2.04.45.53.4 1.49-.92 1.46-1.09 2.81-.53 15.56-8.13l.04.45q.02.32-2.17 1.9m-13.03 4.28q1.86-.16 3.2-1.47.53-.05.55.4-.91.1-3.47 1.55h-.25zm21.02-16.14-6.51 5.15q-7.27 4.76-7.82 4.8-11.57 6.36-14.37 6.6l-.28.03q.35-1.29 10.3-21.09 4.4-.37 13.82-4.09l1.54-.13q4.76-.4 7.12 1.81l.08.96q-1.78 5.1-3.88 5.96m-12.73-7.17 1.05-.08.01.23-1.05.09zm14.72-2.5.77-.07q1.07.51 1.1.9l.02.24q-1.02.09-1.89-1.06m2.09-11.85q-1.02 1.21-5.59 4.15-1.5.12-11.2 4.37-.49-.22-1.04-.18l-.05-.46q-.11-1.4 1.26-3.51.75-4 1.65-4.55l5.4-12.13q-.09-1.13 3.45-1.73l.77-.07.06.7q3.48-.54 4.33-.61 6.42-.55 6.69 2.58l.48-.04-.1-1.23.53-.04q1.9 1.04 2.03 2.52.09 1.03-1.1 2.53-.49.04-.54-.68l-.53.05-.12 1.47q-3.26 4.88-4.73 5-1.33 1.84-1.65 1.86m3.3 8.49q-.66-.44-1.06-.41l-.06-.73.49-.04 1.08.63q.07.5-.44.55m3.43 4.06q.72.3.81.6l-.23.05.01.02-.15.02-.35.29zm.33 2.04-.05-.2.62-.14.05.2zm1.49 1.67c.63-.1.94-.15 2.13-.42l.04.2-2.25.51zm2.18.93c-.94.09-.73-.03-2.24.3l-.04-.18 1.87-.6.9-.22.1.36c-.4.09-.11.09-.59.34m2-.47q-.34.08-.5-.3l.57-.13q.38-.09.48.3zm5.4-5.82-.04-.2.93-.22.09.36zm5.78 35.42q.09-.4.04-.6l.21-.04q.37-.09.46.27l.04.2zm4.05-33.9-.42-.08q-.99.4-1.68.57l-.38.08q-.35.09-.5-.26l2.71-.62.89-.42.3.34q-.65.15-.92.39m2.08-.67-.04-.19q.2-.04.5-.32l1.92-.45.04.2q-1.53.37-2.42.76m.3-3.88q-.2.06-.54.32-.04-.2-.8-.01-.12-.55 4.28-1.57l.4-.09.1.36zm5.17-5.58q-.31 3.5-2.5 4.01l-.05-.19-1.3.5-.57.14q-.45.1-.8-.02l-.12-.52q-.07-.29 5.65-7.78l.44.07q.24 1.02-.75 3.78m9.14-7.83-.18.01-.03-.37.77-.07.01.19q-.2.04-.57.24m-3.77 37.82q-.67-.3-1.18-.26l-.04-.56q-.03-.3.35-.4.38-.04.43.53a7 7 0 0 1 1.06-1.22l.4.16q-.23 1.69-1.02 1.75M155 103.83q-.28.02-1.14-1.77l-.03-.37q.56-.04 1.14 1.73zm-.53-4.22-.18.38-5.47-2.29q5.48.18 5.65 1.9m-23.18 19.9-.77.07-.03-.37.77-.06zm-.64-11.96.21-.01.05.56q-.3.02-.71.8l-.03-.37q.51-.65.48-.98m-1.6 3.84.05.73-.2.01-.06-.72zm-.88 1.38.39-.03q-.07.93-.5.97l-.2.02a2 2 0 0 0 .31-.96m-.62 1.89.18-.02.01.2-.34.58-.38.03-.02-.19q.6-.05.55-.6m-.62 1.71-.13.95-.18.01-.07-.93zm-6.3 17.92q-.38 1.86-.8 1.9l-.02-.16q-.07-.94.81-1.74m-1.17 2.5.01.16q.04.4-.35.43l-.02-.2q-.02-.28.36-.4m-.33 5.2.6-.05v.2a2 2 0 0 0-.57.21l-.38.03q-.03-.3.35-.4m16.59-5.13q-4.88 2.41-5.79 3.26-5.31 1.86-5.27 2.32a56 56 0 0 0-6.2 2.73 2 2 0 0 1-1.01-.28q-.09-.95.86-1.53.84-.07 1.58.23.88-.44 3.05-.99l-.03-.36-1.2.08q.22-.3 3.39-1.6l.6-.04v.17q-1.5.13-1.68.91.03.37.41.33 1.1-.73 1.1-.86 2.13-.38 11.8-6.19l.03.37q.03.24-1.64 1.45m-9.9 3.25a4 4 0 0 0 2.46-1.11q.39-.04.4.32a9 9 0 0 0-2.62 1.13l-.2.01zm15.99-12.28-4.92 3.96q-5.52 3.6-5.98 3.65-8.78 4.83-10.92 5l-.2.02q.25-1 7.84-16.01 3.3-.3 10.47-3.13l1.2-.1q3.6-.31 5.39 1.4l.06.72q-1.35 3.8-2.94 4.5m-9.66-5.43.76-.08.02.2-.77.07zm11.18-1.9.59-.05q.83.4.84.7l.01.15q-.77.07-1.44-.8m1.55-9q-.78.94-4.21 3.16-1.15.1-8.5 3.3-.37-.15-.8-.11l-.02-.37q-.09-1.06.93-2.67.58-3.05 1.25-3.45l4.13-9.21q-.07-.83 2.6-1.33l.59-.05.04.56q2.62-.42 3.28-.48 4.88-.42 5.08 1.96l.38-.03-.07-.89.38-.02q1.42.76 1.51 1.87.07.8-.78 1.94-.38.05-.43-.54l-.38.03-.12 1.11q-2.46 3.75-3.6 3.84-.98 1.35-1.26 1.38m1.73 6.14-.05-.56.39-.03.82.5q.03.36-.35.4-.52-.33-.81-.3m-68.76 35.88-.39.09-.32.28q.08.35.46.27.38-.09.3-.45zm-1.47-2.91.05.2q.37-.1.3-.45l-.05-.2q-.36.1-.3.45m10.4-24.74.45-.1-.1-.39-.43.1zm134.04 11.25c-4.5 1-5.06.83-6 .9l.03.37.41-.02.22-.02-.06-.04.5-.2c4.44-.48 4.96-.3 4.91-.8zm-24.18 3.2.03.38h.06l-.03-.37zm-2.78-9.72-.4-.14a7 7 0 0 0-.47 1.54l.01.16q.47-.03.86-1.56m27.87 6.45.03.37.65.12-.03-.37zm-30.56 3.74-1-.12-.18.38.01.2 5.99-.5-.03-.38zm-2.72-13.1-.01-.2-.2.02-.38.23.2.36q.43-.04.4-.41m36.12 6.64.28-.03q.24-.03.22-.38l-.16-.36c-1.02.1-1.5.14-2.32.6l-.02-.2-1.22.12q-.04-.56-.3-.55l-.63.06c-.74.06-1.1.03-1.47.31q-.01-.2-.13-.19l-.7.06-.42.24q-.02-.2-.13-.2l-.25.23-.02-.2-.99-.07-.24.02.03.37.5.13.48-.03q.24.14.55.12l.4-.21.02.16c-2.31.58-2.3.47-3.9.74q-.25-.19-.4-.16l-.02.03q-.27-.03-.3-.33l.83-.1c.06 0 .1.06.56.15.66-.33.7-.46 1.05-.49l-.03-.37c-2.28.44-1.36.15-4.21.4l-.13.01-.03-.37c3.66-.44 2.43-.19 3.69-.54q.02.2.13.19a1 1 0 0 1 .5-.25l.25-.02c1.29-.1 1.72.15 4.26-.56l.01.17.42-.21.38-.03c-.03-.37.53-.43.73-.44l-.03-.4c-4.47.9-5.63.65-6.87 1l-.02-.16c-1.16.2-1.2.12-1.5.13a1 1 0 0 0-.37.24q-.02-.2-.15-.2l-.07.02-3.79.62q-.02-.16-.14-.15c-1.97.42-1.44.5-4.07.73q-.17.01-.48.2-.02-.16-.21-.14l-1.61.13-1.08.27q-.01-.16-.2-.15a9 9 0 0 1-1.57.3h-.03c-.27.02.13-.08-.07-.17l-.33.2c-.47.04-.22-.04-1.85-.02-2.85.35-2.54.4-2.85.41l-1.06-.07q.03.16-.16.18-1.82-.25-1.85-.58.24-1.73.84-1.77l.21-.02-.18.39.2-.02q.59-.3.56-.58l-.03-.4-.39.04-.03-.37q-.04-.42.12-.74l.87-1.4.03.36.42-.03-.03-.37-.24-.34q.46-.39.74-.42l-.02-.2-.56.05-.04-.56q1.67-3.51 1.62-4.08l.4.16q.38-.02.36-.42l-.39.03-.01-.17q-.04-.42.15-.78.9-.95.82-1.94.18-.02.2.18.76-.44 1.2-2.38 1.38-2.48 3.92-9.9c3.25-8.75 3.12-9.68 3.57-11.75l-.38.03q.04.4-.15.75-.4-.16-.62-.15l-.01-.16q-.1-1.12.96-2.72l.17-.01.33 1.27.38-.03q0-.14.3-1.52-.02-.3-.46-.33l-.37.24q-.04-.4.03-2.07l-.2.02q-.47-.5-.5-.82l-2.1.21a2 2 0 0 0-.24-.65q-.03-.3 1.43-.57l.43.16.4-.24q.02.2.23.18l.4-.24q.03.21.24.18l.2-.02-.04-.42q-.46.05-2.32-.02l-.4.27-.01-.24q-14.87 1.21-16.88 1.4-.26.02-2.1-.03.02.25-.43.29l-.43-.2-1.44.37q-.51.05-1.72-.07-.33.27-.81.3c-.18.02 2.11-.1 4.24-.26q-.33.26-1.04.33-.48.05-.84-.15-.49.21-3.13.74l-.43-.16-6.91 1.06a2 2 0 0 0-.93-.15q-.57.04-1.85.4l-3.34 1.39.26.41q.25-.02.68-.26l1.18.1-.15 1.1q-1.65.76-1.9 2.14-2.47 1.08-2.46 1.55l.02.19.25-.02.44-.23.52.62.07.86q.04.4-8.26 17.41-7.18 16.38-7.53 18-2.45.67-2.86 2 .04.42 1.46.55l.04.43-.43.7.08.86q.06.66 3.59 1.02-.03-.23.22-.25.06.8-.44 3.1l.25-.01q1.46-2 1.38-2.75l.21-.02q.35-.03.78.83-.45.18-3.1 7.06l.25.41.25-.01q3.26-8.25 4.1-9.11 4.28-.38 14.78-1.51l.45-.27q.02.22.26.21l.46-.04.44-.27q.02.23.27.2l5.3-.45q2.1-.19 2.01-1.27-.03-.3 2.48-.65a2 2 0 0 1 .72.13q0-.19 2.52-.41.06-1.34.82-1.4l-.04-.43q-.7.06-1.62.37a10 10 0 0 1-2.12-.26q-.44.25-.68.27l-3.69.12-.44.23q-.02-.2-.27-.17l-.2.01-.48.24q-.02-.2-1.16-.34l-.48.28-.91.07-.02-.23q7.13-.78 7.05-1.94.45-.04.5.43l1.39-.35-.05-.43-11.38.3q.02.24-.23.26l-1.39-.12q-.52.04-.88.31l-.52-.2q-2.15.19-3.2.53a20 20 0 0 0-3.25.04l-2.56.22-1.18-.13q-.1-1.13 4.42-11.1 1.29-3.39 2.43-4.19.24-.02.73.18l1.81-.62.94.15q2.34-.2 5.46-1.35.77-.06 1.18.1l1.39-.32 4.14-.35q2.63-.23 5.73-1.17l-.05-.43q-1.14.1-1.2-.37-.06-.86-1.68-.72l-.04-.43 1.14-.33 2.98-.25-.04-.43q-.17.02-1.85-.04l-.05-.46 1.16-.1q.45-.04.41-.47-2.32.07-2.35-.24-16.22.8-16.26.3-.23.02-.68.3l-.28-.45q4.3-9.14 5.03-9.2.03.36-.36 1.13l.01.2.46-.05q1.7-4.09 2.9-4.18c3.4-.3-.48-.52 6.79-1.65q.44.2.65.17 4.27-.86 11.92-1.8l-.03-.43-2.72.25-.03-.42q.5-.05.81-.31l.02.23q.22-.02.62-.3.7-.07 1.08.14 1.42-.37 2.27-.46l1.7-.16q.6-.4.6-.73l-.02-.19q-.64.07-1.5-.09-.03-.36.39-.47l3.16-.3 1.45-.36q.02.23.2.22.23-.03.63-.3l.23.03q-.3.6-.63 1.73l-.42.03q-.04-.42-.23-.75l-.21.01c-3.84 10.7-5.55 15.67-9.1 23.89q-.97 3.14-1.67 3.51.03.37.42.33a5 5 0 0 1-.73 3.05q-2.45 7.09-3.3 7.79l.38 2.23q.02.36-.36.4l-.38.03q-.09-.94-.68-.87l-.2.01a9 9 0 0 0-1.15 2.73l.39-.03q.77-.51.7-1.2l.78-.07.44.17q-.54.83-.49 1.34l.2.36-.5 1.18.02.19q.66-.07 1.45.41.53-.05 1.16-.47.67-.07 4.95-.06l1.44-.49c1.74-.01 2.02.03 3.53-.1l.62-.06.32-.22.02.2c1.58-.14 1.68-.04 2.92.1l.02.2-.88.07.03.37q.4-.03.7-.26.33-.03.37.37a5 5 0 0 0-1.2.26l-.38-.13c-.6.16-.48.2-.89.24l-.6-.12q0 .16-.15.18.03.35.37.34l.62-.06 3.23-.28 1.23-.27q.01.16.16.15l.6-.22 1.1-.1c.86-.07.84-.12 2.7-.42q-.01-.17.12-.18l.01.16c3.03-.51 3.22-.54 3.71-.7l.05.08c.75-.17.32-.13.53-.28q.02.2.13.2l.53-.05-.03-.4-1.07-.01-.02-.03-.12.03h-.15v.03c-.72.15-.73.04-1.2.09l-2.7.14-.02-.19 1.5-.2.55-.05.3-.22.02.2c2.13-.19 2.88.34 12.72-1.75.53-.05.49-.49.83-1.4a1 1 0 0 1-.52-.12c-.81.3-1.24.16-2.8.41q-.21.03-.29-.34l-.01-.16 1.5.04c.29-.03.83-.07 1.65-.53 0 .13-.3.2-.12.2m-72.73 1.17-.7.06q-.04-.43 1.1-3.16l.47-.05q.02.64-.87 3.15m.84-3.37-.02-.2q-.02-.35.46-.46l.01.19q.03.42-.45.47m9.23 7.14.01.19-1.15.1-.01-.2zm-1.39-.12q.03.35-1.1.77l-1.42-.1-.46.04-.05-.43zm9.34-42.97-.7.06-.01-.24q-.03-.36.41-.47l.25-.02.47.2q.04.42-.42.47m10.56-2.07.22-.01.03.42-.64.06q-.03-.36.39-.47m-2.66.93-1.05-.12-.01-.19c1.37-.12 1.83-.26 2.67-.5q.02.23.43.2l.03.42-.42.04q-.48.05-.84-.14a2 2 0 0 1-.81.3m1.31 3.83-.01-.2 1.7-.16.01.2zm1.82-1.48-.01-.24.82-.07.02.24zm.2-2.9-.23.02.2-.46 1.88-.18.02.24q-.74.08-1.88.38m.95 4.08-.03-.43.83-.07q.42-.05.44.4zm5.01-6.82-1.06.3h-.2q-.76.08-1.92-.04c1.38-.09 2.7-.19 3.18-.26m-1.14 4.72.02.2-1.46.13-.02-.2zm2.4 1.14q-.02-.27-.88-.35l-1.46.41-1.12.04q-.37-.25-.4-.38l1.3.07 2.92-.47 1.5.06.01.24q-1.1.1-1.87.38m15.05-3.88.34.01q.76-.75 1.75-1.18-.78 3.5-2.5 5.18l-.82-.5q1.04-2.63 1.23-3.51m-2.54 4.35.2-.01q-.42.8-.73.83l-.05-.56q.2-.01.58-.26m-1.64 3.92q.6-2.4 1.13-2.73l.02.19q-.3 2.23-.96 2.32l.07.93q-.52.74-.5 1.18l-.2.01-.12-1.28q.35-.05.56-.62m-.64 2.13q.03.33-.43 1.53l-.2.02-.05-.57q.43-.96.68-.98m-11.92 34.59-.01-.16.38-.03.05.56q-.32.02-.42-.37m17.03.44q-.01-.2-.2-.17l-.97.08v-.19h.08l2.27-.19.02.2q-1 .05-1.2.27m-1.13-.47c.08.04.04.09 0 .12-.05-.02-.1-.06 0-.12m.11-2.66-1.27.1-.01-.19 1.15-.1 1-.25q.02.17.21.15c1.2-.21 1.08-.27 1.66-.31q.29-.02.32.33zm4.45-.38c-.71-.08-.75-.14-1.26-.1l-.01-.15 1.14-.1.01.16c-.12.01.31.04.12.19m.09-.21-.02-.16.62-.06.02.16zm1.37-.12-.01-.16q.15-.01.44-.24c.31-.03.47.18.5.42zm1.76-.22-.01-.2.75-.05.01.2zm1.05-.09q-.03-.33.26-.38l.25.32q-.02-.15.12-.17l.2.35zm-11.15 4.82-.03-.37-.12.01.03.37zm25.95-6.72c.12-.08.18-.15-.1-.2-.14.15.14.2-.15.21l.01.13.16-.11-.16.13v.01l-.3.4.61-.22h.08l-.03-.37zm1.08.84-.12.01.03.37.87-.07c-.01-.24-.6-.31-.78-.31m-1.35-.65.02-.02v-.01z"/><path fill="#F9DC3E" d="m169.17 105.96.01.23.49-.04q-.02-.24.15-.68l-.05-.43q-.3.03-.6.92m-4.67-11.23-.04-.43-.7.06.05.43zm-13.55 25.36q-.04-.6-3.72-4.68-.06-.75 2.53-2.24l4.93-4.3q1.66-2.1 1.95-6.84l-.06-.73q-.28-3.27-4.77-5.28-2.66-1.8-9.57-1.98-5.72.48-14.92 4.09a61 61 0 0 1-5.76 3.63l.03.37q.2-.01.58-.25.39-.04.4.33l.38-.2.18-.01.01.16q.03.3-4 3.12l.2.38-.17.02-.45-.17q.02.21-.54.25l.01.17.43.53q-.2.02-.62-.15-.93.09-1.83 1l.25-1.09q1.35-5.83 1.85-10.3l-.05-.2a8 8 0 0 1-1.79-1.67q.03-.69 0-.78l-.04-.16-.18.04q-2.92 4.4-11.27 14.98-6.36 7.53-6.56 8.37-2.59 2.7-2.46 3.24-.69.44-.58.91-.2.05-.25-.14a5 5 0 0 1-3.3 2.3l-1.53.36q-.3.06-.3.44l.05.2.57-.14.05.16-1.3.5-2.3.53-1.22.08c-.17.17.96-.02.52.09l-1.5.35q-1.38.3-1.51-.23l-.18.04q.05.23.02.38l-.1-.37-1.2.28q-.15-.84-4.9-6.11-.1-1.03 3.34-2.95l6.47-5.7q2.16-2.78 2.59-8.94l-.09-.96q-.37-4.34-6.3-7.03-3.5-2.37-12.58-2.56-7.54.66-19.64 5.33a75 75 0 0 1-7.58 4.79l.04.5q.3-.02.76-.3.48-.03.53.42l.5-.28.25-.02.02.24q.02.36-5.3 4.12l.28.44-.26.02-.54-.2q.02.23-.76.3l.03.27.6.65q-.3.01-.8-.16-1.73.15-3.39 2.5l.29.44q1.44-1.34 1.68-1.35l.06.73q-.24.01-.76.29l.61.92a20 20 0 0 1 3.86-3.24q1.05.28 1.07.64l.54-.05a41 41 0 0 1 11.31-6.11l.04.5q-1.03 1.54-1.41 1.6.03.53.37.92.08.96-5.09 12.84Q36 145.58 28 158.81q.02.27.31.7 1.96-.46 2.5-.94l.28-.03.04.5.49-.04.5-.28q.02.23.52.2l.04.5q.07.71-.82 2.24-.8.9-1.72 3.81l.02.24.48-.05a31 31 0 0 0 4.85-6.98q9.3-2.72 14.2-5.37 4.95-.43 7.53-2.58l-.03-.27-1.24.37-.28.03-.03-.27q3.63-.54 5.02-1.63a156 156 0 0 1 10.68-7.73q7.43-5.45 9.63-10.62l.83-.2q1.02-.03 1.18-.07-.04-.19.16-.23c1.1-.12.58.07 1.29-.1l1.86-.42.3-.07-.14.09q.3.04.68-.05l.13.55-8.46 13.45-1.88 2.35-.91 3.08.17-.05.92-.38-.3 1.2.1.35.24.3q-.17.05-.13.24l.04.2.39-.1q.85-.72.7-1.32.91.16 1.22.09l.04.19q-.55.13-.59.88l.05.2.2-.05c3.08-3.35 10.6-14.83 16.65-22.61q-.3-1.26 9.45-3.52l.21-.04q.35 1.53-1.5 7.4-1.21 3.55-1.13 3.87-1.55 4.72-1.46 5.11l-2.3 7.55a69 69 0 0 0-3.43 12.21q.2-.04.63.06l.33-.28q.05.2.25.15l-.13-.55 1-.03q.45-.1.75-1.12-.06-1.51.62-1.68.93-3.62 1.14-3.68.86-3.6 1.29-4.12 1.3-4.69 1.92-4.85l.09.39-.64 1.64a80 80 0 0 1-3.37 11.65l.33 1.42.2-.05q4.13-8.85 11.87-35.1a4.6 4.6 0 0 1 2.2-3.57l-.3-.3-.04-.17q.88-.2 1.24-.7-.05-.2-1.55-.58l2.57-11.02q.83-.76.99-.77l.04.56q-.2.02-.58.25l.5.7q1.32-1.45 2.89-2.49.8.24.82.5l.39-.02a31 31 0 0 1 8.61-4.61l.03.37q-.78 1.17-1.06 1.2.04.4.23.7.08.73-3.82 9.77-8.9 20.93-14.97 30.99.02.19.27.54a5 5 0 0 0 1.88-.72l.17-.02.03.37.42-.03.36-.19q.03.15.4.14l.03.4q.05.53-.63 1.68-.64.69-1.35 2.88l.02.19.38-.03a23 23 0 0 0 3.68-5.32q7.06-2.07 10.78-4.06 3.8-.33 5.74-1.96l-.02-.2-.96.28-.2.02-.02-.2q2.76-.4 3.8-1.22 5.37-4.13 8.12-5.86 8.54-6.23 8.03-11.97m-.97.25.13 1.5q-.28.55-.54.57l-.23-2.54q.63.22.64.47M38.13 108.32l-.25.02-.04-.46 1.02-.1.01.25q-.24 0-.74.3m-4.97 49.8a3 3 0 0 0-1.59-.33l-.05-.72q-.05-.44.48-.55.5-.04.55.68a11 11 0 0 1 1.42-1.6l.54.22q-.26 2.22-1.35 2.3m53.19-55.65q-.4.04-1.48-2.3l-.05-.46q.71-.07 1.48 2.3zm-.71-5.5-.21.48-7.22-3.01q7.23.24 7.43 2.52m-30.5 26.18-1.02.09-.05-.46 1.02-.09zm-.83-15.73.25-.02.06.73q-.36.02-.93 1.05l-.05-.5q.7-.83.67-1.26m-2.14 5.05.08.96-.25.02-.09-.96zm-1.13 1.8.49-.04q-.07 1.2-.66 1.25l-.26.02q.47-.8.43-1.23m-.84 2.51.28-.03.02.24-.46.77-.49.04-.01-.23q.72-.06.66-.79m-.83 2.26-.14 1.22-.26.01-.1-1.2zM41.1 142.6q-.5 2.49-1.05 2.53l-.02-.24q-.13-1.21 1.07-2.29m-1.52 3.3.01.23q.04.5-.44.54l-.02-.24q-.05-.42.45-.53m-.45 6.84.77-.08.03.27q-.3.02-.75.3l-.5.04q-.02-.38.45-.53m21.86-6.75q-6.46 3.19-7.6 4.32-7 2.44-6.95 3.03a76 76 0 0 0-8.2 3.6q-.45.06-1.34-.35-.1-1.25 1.12-2.07 1.09-.09 2.09.33 1.16-.6 4.02-1.31l-.05-.5-1.54.13q.29-.4 4.45-2.09l.77-.07.01.24q-1.95.16-2.2 1.2.05.45.53.4 1.5-.92 1.47-1.09 2.81-.53 15.55-8.14l.05.46q.02.32-2.18 1.9m-13.02 4.28q1.86-.16 3.19-1.48.53-.05.56.42-.91.08-3.47 1.53l-.25.02zm21.01-16.14-6.5 5.16q-7.27 4.77-7.84 4.8-11.56 6.38-14.37 6.6l-.28.04q.35-1.3 10.3-21.1 4.4-.36 13.82-4.09l1.54-.13q4.76-.41 7.12 1.82l.08.96q-1.75 5.07-3.87 5.94m-12.73-7.17 1.05-.09.02.24-1.05.09zm14.73-2.5.77-.07q1.06.51 1.1.9l.02.24q-1.02.09-1.9-1.06m2.08-11.86q-1.02 1.23-5.58 4.16-1.5.12-11.21 4.37-.49-.23-1.04-.18l-.04-.46q-.12-1.4 1.25-3.51.75-4 1.66-4.55l5.39-12.13q-.09-1.13 3.46-1.73l.76-.07.06.7q3.48-.55 4.33-.61 6.43-.55 6.7 2.58l.48-.04-.1-1.23.53-.04q1.88 1.04 2.02 2.52.1 1.02-1.1 2.53-.48.04-.54-.68l-.53.04-.12 1.48q-3.26 4.88-4.72 5-1.33 1.84-1.66 1.85m3.31 8.5q-.66-.44-1.06-.42l-.06-.72.49-.04 1.07.63q.07.5-.44.55m3.43 4.06q.71.3.81.59l-.24.06.02.01-.15.03-.35.28zm.32 2.04-.04-.2.62-.14.04.19zm1.5 1.67c.63-.1.94-.15 2.12-.42l.05.2-2.25.51q.05-.15.07-.3m2.18.93c-.95.09-.74-.03-2.24.3l-.05-.18 1.9-.61.9-.2.08.35c-.41.09-.12.09-.59.34m2-.48q-.35.09-.5-.29l.57-.13q.38-.09.47.3zm5.4-5.81-.04-.2.93-.22.09.36zm5.78 35.42q.09-.4.04-.6l.2-.04q.38-.09.47.27l.04.19zm4.04-33.9-.41-.08q-1 .4-1.68.56l-.39.1q-.34.07-.49-.27l2.7-.62.9-.42.29.34q-.65.14-.92.39m2.09-.67-.05-.19q.21-.04.5-.33l1.92-.44.05.2q-1.53.37-2.42.76m.3-3.88q-.21.05-.54.32-.05-.2-.8-.01-.14-.55 4.27-1.57l.41-.09.1.36-3.45.99m5.16-5.59q-.3 3.52-2.5 4.02l-.04-.2-1.3.51-.58.14q-.45.1-.8-.02l-.11-.52q-.07-.29 5.64-7.78l.44.07q.25 1.02-.75 3.78m9.14-7.83-.17.02-.03-.37.77-.07.01.19q-.2.04-.58.23m-3.76 37.83q-.66-.31-1.18-.26l-.05-.56q-.02-.3.36-.4.38-.04.43.53.94-1.22 1.06-1.23l.4.17q-.23 1.68-1.02 1.75m40.38-42.24q-.28.02-1.13-1.77l-.03-.37q.55-.05 1.13 1.72zm-.53-4.23-.18.39-5.46-2.3q5.48.19 5.64 1.91m-23.18 19.9-.76.07-.03-.36.77-.08zm-.63-11.95.2-.01.05.56q-.3.02-.7.8l-.04-.37q.5-.65.49-.98m-1.61 3.84.06.73-.2.01-.07-.72zm-.87 1.38.38-.03q-.06.93-.49.97l-.2.02q.33-.63.3-.97m-.62 1.89.18-.02v.2l-.33.58-.38.03-.02-.19q.6-.05.55-.6m-.62 1.7-.14.95-.17.02-.08-.93zm-6.31 17.93q-.38 1.86-.8 1.9l-.01-.16q-.07-.94.81-1.74m-1.17 2.5.02.15q.04.41-.36.43l-.01-.19q-.03-.29.35-.4m-.32 5.2.59-.05.01.19a2 2 0 0 0-.57.22l-.39.03q-.02-.3.36-.4m16.59-5.13q-4.88 2.41-5.8 3.26-5.31 1.86-5.27 2.32a56 56 0 0 0-6.19 2.73 2 2 0 0 1-1.02-.28q-.07-.95.86-1.53.85-.07 1.58.23.9-.44 3.06-.99l-.03-.37-1.2.1q.23-.3 3.4-1.59l.6-.04v.16q-1.5.13-1.68.91.03.37.42.33 1.1-.73 1.09-.86 2.13-.38 11.8-6.19l.03.37q0 .22-1.65 1.44m-9.9 3.25a4 4 0 0 0 2.45-1.11q.39-.03.41.32-.66.07-2.62 1.13l-.21.01zm15.98-12.28-4.92 3.96q-5.52 3.6-5.98 3.65-8.77 4.83-10.91 5l-.21.02q.26-1 7.84-16.01 3.3-.3 10.47-3.13l1.2-.1q3.6-.31 5.4 1.4l.05.72q-1.34 3.8-2.94 4.5m-9.66-5.43.77-.08.01.2-.76.07zm11.18-1.91.6-.04q.81.4.84.69l.01.16q-.78.08-1.45-.81m1.55-9q-.77.95-4.2 3.17-1.16.1-8.51 3.29-.36-.13-.79-.1l-.03-.37q-.08-1.06.93-2.68.6-3.05 1.26-3.44l4.12-9.22q-.06-.82 2.6-1.32l.6-.05.04.56q2.6-.42 3.28-.49 4.87-.42 5.08 1.97l.38-.03-.07-.89.38-.03q1.42.77 1.5 1.88.07.8-.78 1.94-.38.04-.42-.54l-.39.03-.12 1.11q-2.45 3.75-3.59 3.84-.98 1.35-1.27 1.38m1.73 6.15-.04-.56.38-.03.83.5q.02.36-.36.4-.53-.33-.8-.31m-68.76 35.88-.38.09-.33.28q.09.35.46.26.38-.08.3-.44zm-1.46-2.91.04.19q.39-.08.3-.44l-.04-.2q-.36.09-.3.45m10.46-19.65.28-.17-.15-.03q-.16.05-.13.2m-.06-5.1.44-.1-.09-.38-.44.1zm104.39 14.93-1-.12-.19.38.02.2 5.98-.5-.03-.38zm5.46-.46.03.37h.06l-.03-.37zm25.1-3.28.03.37.65.12-.03-.37zm-.92.07c-4.49 1-5.05.83-6 .9l.03.37.42-.03.22-.01-.06-.05.49-.19c4.44-.49 4.96-.3 4.92-.81zm-26.95-6.53-.4-.13a7 7 0 0 0-.48 1.54l.02.16q.46-.03.85-1.57m-5.41-2.9-.02-.2-.2.02-.37.23.2.36q.44-.05.39-.42m11.74 12.14-.03-.37-.12.01.03.37zm24.37-5.5.28-.03q.25-.02.23-.38l-.17-.36c-1.02.1-1.49.14-2.32.6l-.01-.2-1.23.12q-.04-.56-.3-.55l-.63.06c-.74.06-1.09.03-1.46.31q-.02-.2-.13-.19l-.71.06-.41.24q-.03-.2-.14-.2l-.25.22-.01-.19-1-.07-.23.01.03.37.5.14.47-.03q.24.14.55.11l.42-.2.01.16c-2.32.58-2.3.47-3.9.74q-.27-.19-.4-.16l-.03.03q-.27-.04-.3-.33l.83-.1c.06 0 .1.06.56.15.67-.33.7-.46 1.05-.5l-.03-.36c-2.27.44-1.35.15-4.2.4l-.14.01-.03-.37c3.67-.44 2.44-.19 3.7-.54q0 .2.13.19a1 1 0 0 1 .5-.25l.25-.02c1.29-.1 1.71.15 4.25-.56l.02.16.41-.2.39-.03c-.03-.37.53-.43.72-.44l-.03-.4c-4.46.9-5.63.65-6.87 1l-.01-.16c-1.17.2-1.21.12-1.5.13q-.15.02-.38.24-.01-.2-.15-.2l-.07.02-3.78.62q-.02-.16-.15-.15c-1.96.42-1.43.49-4.06.73q-.18.01-.49.2-.01-.16-.2-.15l-1.62.14-1.07.26q-.02-.16-.21-.14-.91.24-1.57.3h-.03c-.26.02.14-.08-.07-.17l-.32.2c-.48.04-.23-.04-1.85-.02-2.85.35-2.54.4-2.85.41l-1.06-.07q.01.16-.17.17-1.81-.24-1.84-.57.24-1.74.84-1.78l.2-.01-.17.38.2-.01q.58-.3.55-.58l-.03-.4-.38.03-.03-.37q-.05-.43.12-.73l.87-1.4.03.36.41-.03-.03-.37-.23-.34q.45-.4.73-.43l-.01-.19-.56.05-.05-.56q1.68-3.51 1.63-4.08l.4.16q.38-.02.35-.43l-.38.03-.02-.16a1.4 1.4 0 0 1 .15-.78q.91-.95.83-1.94.18-.02.19.18.78-.44 1.21-2.38 1.38-2.48 3.91-9.9c3.25-8.75 3.12-9.68 3.58-11.75l-.38.03q.03.39-.15.75-.4-.16-.62-.15l-.02-.16q-.1-1.12.96-2.72l.18-.01.32 1.27.39-.03q-.02-.14.3-1.52-.03-.3-.46-.33l-.37.24q-.05-.4.03-2.07l-.2.02q-.47-.5-.5-.82l-2.11.21a2 2 0 0 0-.24-.65q-.02-.29 1.44-.58l.43.17.4-.24q0 .2.23.18l.4-.24q.01.2.24.18l.19-.02-.03-.43a24 24 0 0 1-2.32-.01l-.4.27-.02-.24q-14.85 1.21-16.88 1.4-.26.02-2.1-.03.02.25-.42.28l-.43-.19-1.45.37q-.52.05-1.71-.07-.33.26-.82.3c-.17.02 2.12-.11 4.24-.26q-.33.26-1.03.33-.49.05-.84-.15-.5.21-3.13.74l-.43-.17-6.91 1.07a2 2 0 0 0-.94-.15q-.56.04-1.84.4l-3.34 1.39.25.41q.25-.02.68-.26l1.18.1-.15 1.1q-1.63.76-1.9 2.13-2.45 1.09-2.45 1.56l.01.19.25-.02.45-.23.51.62.08.85q.03.4-8.26 17.42-7.19 16.38-7.53 17.99-2.45.69-2.87 2 .05.44 1.46.56l.05.42-.43.71.07.86q.07.66 3.6 1.02-.03-.23.21-.25.07.8-.44 3.1l.25-.02q1.47-2 1.4-2.74l.2-.02q.34-.03.78.83-.45.18-3.1 7.06l.25.41.25-.01q3.25-8.25 4.1-9.12 4.27-.38 14.78-1.5l.44-.27q.02.23.27.2l.46-.03.44-.27q.02.23.26.2l5.3-.45q2.11-.19 2.02-1.27-.03-.3 2.48-.65.24-.03.72.13-.01-.2 2.51-.41.08-1.34.83-1.4l-.04-.44q-.71.07-1.63.37a10 10 0 0 1-2.11-.25q-.44.25-.68.27l-3.7.12-.44.23q-.02-.2-.26-.17l-.21.01-.47.24q-.02-.2-1.17-.34l-.47.28-.92.07-.01-.23q7.13-.78 7.04-1.94.46-.04.5.43l1.4-.35-.05-.43-11.39.3q.02.23-.22.26l-1.39-.12q-.53.04-.89.31l-.51-.2q-2.16.19-3.2.53-1.47-.12-3.26.04l-2.55.22-1.19-.13q-.1-1.14 4.42-11.11 1.3-3.37 2.44-4.18.24-.03.72.18l1.82-.62.93.14q2.34-.19 5.47-1.34.76-.07 1.18.1l1.39-.32 4.13-.36q2.63-.21 5.73-1.16l-.04-.43q-1.16.1-1.2-.37-.06-.86-1.68-.72l-.05-.43 1.14-.33 2.98-.25-.04-.43q-.17.03-1.85-.04l-.04-.46 1.15-.1q.46-.04.42-.48-2.33.07-2.35-.23-16.22.8-16.27.3-.24.01-.68.29l-.28-.44q4.3-9.14 5.04-9.2.03.35-.35 1.13l.01.2.46-.05q1.7-4.08 2.9-4.18c3.4-.3-.48-.52 6.79-1.66q.44.21.65.18a163 163 0 0 1 11.92-1.8l-.03-.43-2.72.25-.03-.43q.5-.04.81-.3l.02.23q.22-.03.62-.3.7-.07 1.08.14 1.42-.37 2.27-.46l1.7-.16q.61-.4.6-.73l-.02-.19q-.64.07-1.5-.09c0-.23.1-.4.39-.47l3.16-.3 1.45-.36q.03.23.2.22.23-.03.63-.3l.23.03q-.3.6-.63 1.73l-.42.03q-.04-.42-.23-.75l-.21.01c-3.84 10.7-5.55 15.67-9.1 23.89q-.97 3.14-1.67 3.51.03.37.41.33a5 5 0 0 1-.72 3.05q-2.45 7.08-3.3 7.79l.38 2.23q.02.35-.36.4l-.38.03q-.08-.93-.68-.88l-.2.02a9 9 0 0 0-1.14 2.73l.38-.03q.78-.51.7-1.2l.78-.07.44.16q-.54.84-.49 1.35l.2.35-.5 1.19.02.19q.66-.07 1.45.41.53-.05 1.17-.47.67-.07 4.94-.06l1.44-.49c1.74-.01 2.02.03 3.53-.1l.62-.06.32-.22.02.19c1.58-.13 1.68-.03 2.92.12l.02.19-.87.07.02.37q.4-.03.7-.26.33-.03.37.37-.54.04-1.2.26l-.38-.13c-.6.16-.47.2-.89.24l-.6-.12q0 .16-.15.17.02.37.37.34l.62-.06 3.23-.28 1.23-.26q.01.16.16.15l.6-.22 1.1-.1c.86-.07.84-.13 2.7-.42q-.01-.17.12-.18l.01.16c3.03-.51 3.22-.54 3.71-.7l.05.08c.75-.18.32-.13.53-.28q.02.2.13.2l.53-.05-.03-.4-1.07-.01-.02-.03-.12.03h-.15v.03c-.72.14-.73.04-1.2.08l-2.7.15-.02-.19 1.5-.2.55-.05.3-.22.02.19c2.13-.18 2.89.35 12.72-1.74.53-.05.49-.5.83-1.4a1 1 0 0 1-.52-.12c-.81.3-1.24.16-2.8.4q-.21.02-.28-.33l-.02-.16 1.5.04c.29-.03.83-.07 1.65-.53 0 .13-.31.2-.14.2m-72.73 1.17-.7.06q-.03-.43 1.11-3.16l.46-.05q.04.64-.87 3.15m.84-3.37-.01-.2q-.03-.35.46-.47l.01.2q.03.42-.46.47m9.24 7.13.01.2-1.15.1-.02-.2zm-1.4-.11q.04.36-1.1.76l-1.42-.1-.46.05-.04-.43zM169.19 95l-.7.06v-.24q-.03-.36.4-.47l.26-.02.47.2q.02.42-.43.47m10.56-2.07.22-.02.03.43-.63.06q-.04-.36.38-.47m-2.66.93-1.05-.12v-.2c1.36-.1 1.82-.26 2.66-.5q.03.25.43.2l.03.43-.41.04q-.49.05-.84-.15-.37.25-.82.3m1.32 3.83-.02-.2 1.7-.16.02.2zm1.82-1.48-.02-.24.83-.07.01.23zm.19-2.9-.22.02.19-.46 1.89-.18.01.24q-.73.07-1.87.38m.96 4.08-.03-.43.82-.07q.43-.05.45.4zm5-6.82-1.06.3h-.19q-.76.08-1.92-.04c1.37-.09 2.69-.19 3.18-.26m-1.13 4.72.01.2-1.46.13-.01-.2zm2.4 1.14q-.02-.27-.88-.35l-1.46.4-1.13.05q-.37-.26-.4-.38l1.3.07 2.93-.47 1.5.06v.24q-1.1.1-1.87.38m15.04-3.88.34.01q.78-.76 1.76-1.18-.8 3.5-2.5 5.18l-.82-.5q1.04-2.63 1.22-3.51m-2.54 4.35.2-.01q-.41.8-.73.82l-.04-.56q.2 0 .57-.25m-1.64 3.92q.6-2.39 1.14-2.74l.01.2q-.3 2.22-.96 2.31l.08.94q-.54.74-.5 1.18l-.21.01-.12-1.28q.36-.05.56-.62m-.63 2.12q.01.34-.43 1.54l-.2.02-.05-.57q.43-.97.68-.99m-11.92 34.6-.02-.16.39-.03.04.56q-.31.02-.41-.37m17.03.44q-.03-.2-.2-.18l-.97.1-.01-.2h.08l2.28-.2.01.2q-.99.05-1.2.28m-1.14-.47c.09.04.04.09 0 .12-.04-.02-.1-.06 0-.12m.12-2.66-1.27.1-.02-.19 1.16-.1 1-.25q.01.17.2.14c1.2-.2 1.09-.26 1.66-.3q.3-.02.33.33zm4.44-.38c-.7-.08-.75-.14-1.25-.1l-.02-.16 1.14-.1.02.16c-.12.02.3.05.12.2m.1-.21-.02-.16.62-.06.01.16zm1.37-.12-.02-.16q.15-.03.44-.24c.32-.03.48.18.5.41zm1.75-.22-.01-.2.75-.05.02.19zm1.05-.09q-.01-.33.27-.38l.25.32q-.02-.15.12-.18l.2.36zm14.54-1.71.01-.02v-.01zm.26-.2c.12-.07.18-.14-.1-.19-.13.15.15.2-.15.2l.02.14.16-.12-.16.14v.01l-.31.4.62-.22h.07l-.03-.37zm1.08.85-.12.01.03.37.88-.07c-.02-.24-.6-.31-.79-.31"/></svg>