<svg xmlns="http://www.w3.org/2000/svg" width="256" height="256" fill="none" viewBox="0 0 256 256"><rect width="256" height="256" fill="#F4F2ED" rx="60"/><path fill="#FEFEFE" fill-rule="evenodd" d="m203.82 68.84-63.14-37.48a23.8 23.8 0 0 0-24.36 0L53.18 68.84A25.2 25.2 0 0 0 41 90.52v74.96a25.2 25.2 0 0 0 12.18 21.7l63.14 37.47a23.8 23.8 0 0 0 24.36 0l63.14-37.48A25.2 25.2 0 0 0 216 165.48V90.52c0-8.94-4.65-17.21-12.18-21.68" clip-rule="evenodd"/><path fill="#3E474A" fill-rule="evenodd" d="m118.53 220.8-63.14-37.47a20.8 20.8 0 0 1-10.02-17.85V90.52a20.8 20.8 0 0 1 10.01-17.85l63.15-37.48a19.6 19.6 0 0 1 19.94 0l63.14 37.48a20.6 20.6 0 0 1 9.7 14.44c-2.1-4.47-6.81-5.68-12.32-2.47l-59.73 36.9c-7.45 4.35-12.94 9.24-12.95 18.22v73.6c0 5.38 2.17 8.86 5.5 9.87q-1.64.31-3.31.33c-3.5 0-6.95-.96-9.97-2.75m85.29-151.97-63.14-37.47a23.8 23.8 0 0 0-24.36 0L53.18 68.83A25.2 25.2 0 0 0 41 90.53v74.95a25.2 25.2 0 0 0 12.18 21.7l63.14 37.47a23.8 23.8 0 0 0 24.36 0l63.14-37.48A25.2 25.2 0 0 0 216 165.48V90.52c0-8.94-4.65-17.21-12.18-21.69" clip-rule="evenodd"/><path fill="#47B353" fill-rule="evenodd" d="m187.27 172.73-15.73 9.4c-.41.25-.72.53-.72 1.03v4.11c0 .5.34.71.75.47l15.97-9.7c.42-.25.48-.71.48-1.22v-3.62c0-.5-.34-.71-.75-.47" clip-rule="evenodd"/><path fill="#FEFEFE" fill-rule="evenodd" d="M153.79 138.1c.5-.26.93.06.93.72l.06 5.44c2.27-.9 4.25-1.15 6.04-.73.4.1.56.63.4 1.26l-1.2 4.82c-.09.36-.29.73-.54.96q-.15.15-.31.23a.7.7 0 0 1-.47.08c-.82-.18-2.77-.6-5.83.94-3.2 1.63-4.33 4.42-4.3 6.49.02 2.47 1.29 3.22 5.67 3.3 5.83.09 8.35 2.64 8.41 8.51.06 5.77-3.02 11.97-7.73 15.77l.1 5.38c0 .65-.41 1.4-.92 1.65l-3.19 1.84c-.51.25-.93-.06-.94-.71l-.05-5.3c-2.73 1.14-5.5 1.41-7.27.7-.33-.13-.47-.62-.34-1.18l1.15-4.87a2 2 0 0 1 .57-1.01q.15-.15.3-.22.28-.14.52-.05c1.9.64 4.34.34 6.68-.85 2.98-1.5 4.97-4.54 4.94-7.56-.03-2.73-1.51-3.87-5.11-3.9-4.59.01-8.87-.89-8.94-7.64-.05-5.56 2.84-11.34 7.41-15l-.06-5.43c0-.67.4-1.4.93-1.67z" clip-rule="evenodd"/></svg>