<svg xmlns="http://www.w3.org/2000/svg" width="256" height="256" fill="none" viewBox="0 0 256 256"><rect width="256" height="256" fill="#F4F2ED" rx="60"/><mask id="a" fill="#fff"><path d="M200.78 121.53h-.05a40 40 0 0 0-2 10.86c-.3 7.6.48 12.21-.4 17.13-.87 4.92-3.46 9.76-10.03 17.35-7.82 9.03-20.21 16.02-34.53 18.38a74 74 0 0 1-8.43 4.65c11.14 4.2 22.8 4.42 32.03 1.4 16.28-5.35 15.02-9.18 22.3-20.36 2.3-3.52 4.96-6.2 7.62-8.41 7.6 3.3 15.07 5.43 19.72 4.9 2.5-5.8-.06-12.53-4.32-18.9 3.5-10.86-1.8-21.73-13.56-25.58q-4.57-1.5-8.35-1.42m8.81 15.95a4.4 4.4 0 0 1 3.4 1.49 4.4 4.4 0 0 1 1.08 3.23 4.5 4.5 0 0 1-1.54 3.09c-.9.79-2.07 1.2-3.26 1.13a4.4 4.4 0 0 1-3.68-6.4 4.6 4.6 0 0 1 4-2.54m-72.82 48.33.4.23.43-.16z"/><path d="M142.32 54c-6.36-.04-12.88 2.5-18.49 7.94-7.36 7.15-9.65 13.6-8.36 21.62l.36 2.2-2.2-.35c-16.18-2.63-36.2-1.3-58.98 7.91 6.7 2.87 18.99 7.66 32.62 14.21l4.33 2.08-4.7.95c-18.01 3.66-39.38 14.2-58.9 37.21 8.73-.68 26.58-2.78 45.19-2.75 10.35.02 20.54.73 28.85 2.89 8.3 2.15 15.85 7.08 16.92 10.7 1.06 3.6.46 5.5-.59 8.33-1.05 2.82-4.27 7.12-8.73 9.95s-10.11 5.3-15.99 7.41c-11.75 4.21-24.26 6.9-29.78 7.41-1.18.11-1.65.54-2.1 1.36s-.7 2.1-.74 3.46c-.05 1.8.23 2.74.74 3.46s1.3 1 2.13 1.05c34.7 2.35 60.65-6.38 79.5-13.86 21.67-9.94 35.37-29.56 38.34-47.23 1.86-11.07 1.47-16.5-.33-21.12s-5.24-8.72-9.62-16.56a51 51 0 0 1-5.34-14.58l-.2-.97.77-.62c8.03-6.44 14.57-13.47 16.94-18.58-4.87-5.19-13.29-6.28-22.7-5.27l-.78.08-.55-.56c-5.02-5.11-11.25-7.73-17.6-7.77m2.82 11.96a6 6 0 0 1 5.86 4.6 5.94 5.94 0 0 1-4.3 7.22 5.94 5.94 0 0 1-7.14-4.45 5.94 5.94 0 0 1 5.58-7.37"/><path d="M184.66 79.98q-3.06-.07-6.37.67l-.42.11q-3.66 3.61-8.03 7.16c.94 4.1 2.32 8.4 4.77 12.78 4.24 7.61 7.74 11.68 9.8 16.96 2.05 5.28 2.41 11.5.5 22.82-2.36 14.03-10.9 28.9-24.45 39.87 10.52-3.07 19.48-8.72 25.41-15.58 6.4-7.4 8.54-11.58 9.3-15.8.74-4.22.04-8.84.34-16.68a45 45 0 0 1 2.64-13.37l.32-.93.99-.13c8.76-1.13 16.68-3.37 20.78-6.01-1.32-5.92-6.9-10.5-14.3-14l-.71-.33-.18-.75c-2.34-10.08-10.21-16.58-20.4-16.8m5.1 12.44a5 5 0 0 1 4.53 2.8 5.3 5.3 0 0 1-4.19 7.63 5.1 5.1 0 0 1-4.99-2.78 5.28 5.28 0 0 1 4.64-7.65"/></mask><path fill="#787878" d="M200.78 121.53h-.05a40 40 0 0 0-2 10.86c-.3 7.6.48 12.21-.4 17.13-.87 4.92-3.46 9.76-10.03 17.35-7.82 9.03-20.21 16.02-34.53 18.38a74 74 0 0 1-8.43 4.65c11.14 4.2 22.8 4.42 32.03 1.4 16.28-5.35 15.02-9.18 22.3-20.36 2.3-3.52 4.96-6.2 7.62-8.41 7.6 3.3 15.07 5.43 19.72 4.9 2.5-5.8-.06-12.53-4.32-18.9 3.5-10.86-1.8-21.73-13.56-25.58q-4.57-1.5-8.35-1.42m8.81 15.95a4.4 4.4 0 0 1 3.4 1.49 4.4 4.4 0 0 1 1.08 3.23 4.5 4.5 0 0 1-1.54 3.09c-.9.79-2.07 1.2-3.26 1.13a4.4 4.4 0 0 1-3.68-6.4 4.6 4.6 0 0 1 4-2.54m-72.82 48.33.4.23.43-.16z"/><path fill="#ECECEC" d="M142.32 54c-6.36-.04-12.88 2.5-18.49 7.94-7.36 7.15-9.65 13.6-8.36 21.62l.36 2.2-2.2-.35c-16.18-2.63-36.2-1.3-58.98 7.91 6.7 2.87 18.99 7.66 32.62 14.21l4.33 2.08-4.7.95c-18.01 3.66-39.38 14.2-58.9 37.21 8.73-.68 26.58-2.78 45.19-2.75 10.35.02 20.54.73 28.85 2.89 8.3 2.15 15.85 7.08 16.92 10.7 1.06 3.6.46 5.5-.59 8.33-1.05 2.82-4.27 7.12-8.73 9.95s-10.11 5.3-15.99 7.41c-11.75 4.21-24.26 6.9-29.78 7.41-1.18.11-1.65.54-2.1 1.36s-.7 2.1-.74 3.46c-.05 1.8.23 2.74.74 3.46s1.3 1 2.13 1.05c34.7 2.35 60.65-6.38 79.5-13.86 21.67-9.94 35.37-29.56 38.34-47.23 1.86-11.07 1.47-16.5-.33-21.12s-5.24-8.72-9.62-16.56a51 51 0 0 1-5.34-14.58l-.2-.97.77-.62c8.03-6.44 14.57-13.47 16.94-18.58-4.87-5.19-13.29-6.28-22.7-5.27l-.78.08-.55-.56c-5.02-5.11-11.25-7.73-17.6-7.77m2.82 11.96a6 6 0 0 1 5.86 4.6 5.94 5.94 0 0 1-4.3 7.22 5.94 5.94 0 0 1-7.14-4.45 5.94 5.94 0 0 1 5.58-7.37"/><path fill="#B2B2B2" d="M184.66 79.98q-3.06-.07-6.37.67l-.42.11q-3.66 3.61-8.03 7.16c.94 4.1 2.32 8.4 4.77 12.78 4.24 7.61 7.74 11.68 9.8 16.96 2.05 5.28 2.41 11.5.5 22.82-2.36 14.03-10.9 28.9-24.45 39.87 10.52-3.07 19.48-8.72 25.41-15.58 6.4-7.4 8.54-11.58 9.3-15.8.74-4.22.04-8.84.34-16.68a45 45 0 0 1 2.64-13.37l.32-.93.99-.13c8.76-1.13 16.68-3.37 20.78-6.01-1.32-5.92-6.9-10.5-14.3-14l-.71-.33-.18-.75c-2.34-10.08-10.21-16.58-20.4-16.8m5.1 12.44a5 5 0 0 1 4.53 2.8 5.3 5.3 0 0 1-4.19 7.63 5.1 5.1 0 0 1-4.99-2.78 5.28 5.28 0 0 1 4.64-7.65"/><path fill="#000" d="m200.78 121.53.02 1 1.04-.02-.06-1.04zm-.05 0v-1H200l-.22.7zm-2 10.86 1 .04zm-.4 17.13-.98-.18zm-10.03 17.35-.75-.66zm-34.53 18.38-.16-.98-.2.03-.17.11zm-8.43 4.65-.43-.9-2.14 1 2.22.84zm32.03 1.4-.3-.96zm22.3-20.36.85.55zm7.62-8.41.4-.92-.56-.25-.47.4zm19.72 4.9.12 1 .57-.07.23-.53zm-4.32-18.9-.95-.3-.15.46.27.4zm-13.56-25.58.31-.95zm-8.35-1.42-.02-1-1.04.02.06 1.04zm8.81 15.95.02 1zm3.4 1.49.76-.66zm-.46 6.32-.66-.75zm-6.32-.35.75-.66zm.46-6.32-.66-.75zm-69.9 47.2.1-1-.61 1.85zm.4.22-.5.87.41.23.45-.16zm.43-.16.35.94-.26-1.94zM142.32 54v-1zm-18.49 7.94.7.72zm-8.36 21.62.99-.16zm.36 2.2-.16 1 1.36.21-.22-1.36zm-2.2-.35.16-1zm-58.98 7.91-.37-.92-2.23.9 2.2.94zm32.62 14.21.44-.9zm4.33 2.08.2.98 2.92-.59-2.69-1.29zm-4.7.95-.2-.98zM28 147.77l-.76-.65-1.55 1.84 2.39-.2zm45.19-2.75v-1zm28.85 2.89-.25.97zm-8.39 36.4-.34-.95zm-29.78 7.4-.1-1zm-2.1 1.36.88.48zm-.74 3.46 1 .03zm2.87 4.51-.07 1zm79.5-13.86.36.93h.03l.02-.02zm38.34-47.23-.99-.17zm-.33-21.12.93-.36zm-9.62-16.56.88-.49zm-5.34-14.58.98-.2zm-.2-.97-.63-.78-.48.39.13.6zm.77-.62.62.78zm16.94-18.58.91.42.28-.62-.46-.49zm-22.7-5.27.1 1zm-.78.08-.72.7.34.34.48-.05zm-.55-.56.72-.7zm-14.79 4.2.02 1zm5.86 4.6.97-.24zm-4.3 7.2-.24-.96zm-7.14-4.44-.97.24zm4.31-7.2-.23-.98zm40.79 13.85.02-1zm-6.37.67-.22-.97zm-.42.11-.24-.97-.27.06-.2.2zm-8.03 7.16-.63-.78-.48.4.14.6zm4.77 12.78.87-.49zm10.3 39.78-.98-.17zm-24.45 39.87-.63-.78.91 1.74zm25.41-15.58.76.66zm9.3-15.8-1-.18zm.34-16.68 1 .03zm2.64-13.37-.95-.33zm.32-.93-.13-.99-.6.08-.2.58zm.99-.13-.13-.99zm20.78-6.01.54.84.58-.38-.15-.68zm-14.3-14-.43.91zm-.71-.33-.98.23.11.47.44.2zm-.18-.75-.97.22zm-15.3-4.35v1zm1.54.24.3-.95zm3.3 6.55-.95-.3zm-6.48 3.42-.3.96zm-3.3-6.55-.96-.3zm15.95 24.45h-.03v2h.07zm-.98.7a41 41 0 0 0-2.06 11.12l2 .08a39 39 0 0 1 1.96-10.6zm-2.06 11.12c-.14 3.84-.02 6.93.03 9.63.04 2.7.02 5-.4 7.36l1.97.35c.45-2.56.47-5.02.43-7.75-.05-2.74-.17-5.75-.03-9.51zm-.37 17c-.83 4.65-3.28 9.32-9.8 16.86l1.51 1.31c6.62-7.64 9.34-12.65 10.26-17.83zm-9.8 16.86c-7.66 8.84-19.83 15.73-33.94 18.06l.33 1.97c14.52-2.4 27.13-9.5 35.12-18.72zm-34.31 18.2a73 73 0 0 1-8.33 4.59l.85 1.8q4.5-2.11 8.55-4.7zm-8.25 6.43c11.33 4.26 23.22 4.51 32.7 1.4l-.63-1.9c-9 2.96-20.42 2.75-31.37-1.37zm32.7 1.4c8.2-2.69 12.15-5.05 14.96-8.28a33 33 0 0 0 3.62-5.38c1.17-2.03 2.44-4.33 4.25-7.1l-1.68-1.08c-1.84 2.82-3.15 5.19-4.3 7.19a32 32 0 0 1-3.4 5.06c-2.45 2.82-6 5.04-14.08 7.7zm22.83-20.75a36 36 0 0 1 7.41-8.2l-1.28-1.53a38 38 0 0 0-7.8 8.64zm6.37-8.05A76 76 0 0 0 218 167.4c3.45.89 6.62 1.32 9.13 1.04l-.23-1.99c-2.15.24-5.04-.12-8.4-.99a74 74 0 0 1-10.8-3.84zm21.04 4.39c2.73-6.32-.12-13.46-4.4-19.85l-1.67 1.11c4.24 6.33 6.52 12.66 4.24 17.95zm-4.29-18.99c3.67-11.4-1.93-22.82-14.2-26.84l-.62 1.9c11.24 3.68 16.24 14 12.92 24.33zM209.44 122a26 26 0 0 0-8.68-1.47l.04 2c2.4-.05 5.03.4 8.02 1.38zm-9.66-.4 2-.13zm9.83 16.88q.76-.01 1.45.28l.8-1.83a5.4 5.4 0 0 0-2.29-.45zm1.45.28q.7.3 1.19.87l1.5-1.32a5 5 0 0 0-1.88-1.38zm1.19.87q.45.5.66 1.16l1.9-.64a5 5 0 0 0-1.06-1.84zm.66 1.16q.22.64.17 1.33l2 .15a6 6 0 0 0-.27-2.12zm.17 1.33q-.06.69-.37 1.32l1.8.9q.48-.98.56-2.07zm-.37 1.32q-.3.63-.84 1.1l1.32 1.5q.82-.73 1.31-1.7zm-.84 1.1c-.7.62-1.62.93-2.54.88l-.11 2a5.6 5.6 0 0 0 3.97-1.38zm-2.54.88a3.4 3.4 0 0 1-2.37-1.14l-1.5 1.32a5.4 5.4 0 0 0 3.76 1.82zm-2.37-1.14q-.46-.51-.67-1.16l-1.9.63q.36 1.03 1.06 1.85zm-.67-1.16q-.21-.65-.16-1.34l-2-.15q-.07 1.09.26 2.12zm-.16-1.34q.05-.69.36-1.32l-1.79-.9a6 6 0 0 0-.57 2.07zm.36-1.32q.31-.62.84-1.09l-1.32-1.5a6 6 0 0 0-1.31 1.7zm.84-1.09a3.6 3.6 0 0 1 2.28-.9l-.04-2a5.6 5.6 0 0 0-3.56 1.4zm-71.07 47.3.41.24 1-1.73-.22-.13-.18-.1zm1.27.3q.22-.07.42-.16l-.7-1.87-.42.16zm.16-2.09-.83-.06-.19 1.99.84.07zM142.32 53c-6.65-.04-13.42 2.62-19.2 8.23l1.4 1.43c5.43-5.27 11.7-7.7 17.79-7.66zm-19.2 8.23c-3.74 3.64-6.26 7.15-7.66 10.84-1.4 3.7-1.65 7.5-.98 11.65l1.97-.32c-.62-3.87-.38-7.3.88-10.62 1.26-3.33 3.57-6.6 7.19-10.12zm-8.64 22.49.35 2.2 1.97-.31-.35-2.2zm1.5 1.06-2.2-.36-.33 1.97 2.2.36zm-2.2-.36c-16.37-2.65-36.57-1.3-59.51 7.98l.75 1.85c22.61-9.15 42.45-10.45 58.44-7.86zm-59.53 9.82c6.73 2.89 18.97 7.66 32.58 14.2l.87-1.8c-13.67-6.57-26-11.38-32.67-14.24zm32.58 14.2 4.33 2.07.86-1.8-4.32-2.08zm4.56.2-4.7.94.4 1.97 4.7-.96zm-4.7.94c-18.23 3.7-39.8 14.36-59.46 37.55l1.52 1.29c19.38-22.85 40.55-33.27 58.34-36.87zm-58.62 39.19c8.78-.68 26.55-2.78 45.1-2.75l.01-2c-18.66-.03-36.59 2.08-45.27 2.75zm45.1-2.75c10.32.02 20.42.73 28.6 2.85l.5-1.93c-8.42-2.19-18.71-2.9-29.09-2.92zm28.6 2.85a39 39 0 0 1 10.9 4.68q2.24 1.44 3.64 2.86c.94.95 1.48 1.8 1.68 2.47l1.92-.56a8.4 8.4 0 0 0-2.17-3.31 23 23 0 0 0-4-3.15 41 41 0 0 0-11.46-4.92zM118 158.89c.5 1.7.6 2.95.46 4.07a15 15 0 0 1-1.03 3.64l1.88.7c.52-1.41.97-2.7 1.14-4.1.17-1.45.03-2.96-.53-4.87zm-.57 7.71c-.96 2.6-4.03 6.72-8.33 9.45l1.08 1.7c4.62-2.94 8-7.4 9.13-10.45zm-8.33 9.45c-4.36 2.78-9.94 5.23-15.79 7.32l.68 1.88c5.9-2.11 11.64-4.62 16.19-7.5zm-15.79 7.32c-11.7 4.19-24.12 6.86-29.54 7.36l.19 2c5.62-.53 18.22-3.25 30.03-7.48zm-29.54 7.36q-1.03.07-1.8.58c-.5.35-.82.82-1.07 1.28l1.75.97c.2-.35.33-.51.47-.6.13-.1.35-.2.84-.24zm-2.87 1.87a9 9 0 0 0-.87 3.91l2 .06c.04-1.29.28-2.4.62-3.01zm-.87 3.91c-.05 1.92.24 3.1.93 4.07l1.63-1.16c-.34-.47-.6-1.16-.56-2.85zm.93 4.07a3.7 3.7 0 0 0 2.87 1.47l.13-2q-.96-.06-1.37-.63zm2.87 1.47c34.92 2.36 61.03-6.43 79.93-13.93l-.74-1.86c-18.78 7.46-44.57 16.13-79.06 13.8zm79.98-13.95c21.96-10.07 35.89-29.97 38.92-47.98l-1.97-.33c-2.92 17.33-16.4 36.69-37.78 46.5zm38.92-47.98c1.87-11.13 1.5-16.77-.39-21.64l-1.86.72c1.7 4.37 2.13 9.58.28 20.6zm-.39-21.64a43 43 0 0 0-3.93-7.25c-1.64-2.6-3.57-5.55-5.74-9.44l-1.75.97c2.2 3.95 4.18 6.97 5.8 9.54 1.63 2.58 2.9 4.7 3.76 6.9zm-9.67-16.69a50 50 0 0 1-5.24-14.3l-1.96.42a52 52 0 0 0 5.45 14.85zm-5.24-14.3-.2-.97-1.97.42.21.97zm-.56.02.77-.62-1.25-1.56-.77.62zm.77-.62c8.06-6.46 14.75-13.6 17.23-18.94l-1.81-.85c-2.28 4.9-8.66 11.81-16.67 18.23zm17.05-20.05c-5.22-5.55-14.07-6.59-23.54-5.58l.2 2c9.38-1.01 17.36.14 21.88 4.95zm-23.54-5.58-.78.08.21 2 .78-.09zm.04.38-.54-.56-1.43 1.4.54.56zm-.54-.56c-5.2-5.3-11.68-8.03-18.32-8.07l-.01 2c6.08.04 12.06 2.54 16.9 7.47zm-15.5 5.9a5 5 0 0 1 4.88 3.83l1.94-.47a7 7 0 0 0-6.84-5.37zm4.88 3.83a4.94 4.94 0 0 1-3.57 6l.47 1.95a6.94 6.94 0 0 0 5.04-8.42zm-3.57 6c-2.6.64-5.27-1-5.92-3.7l-1.95.47a6.94 6.94 0 0 0 8.34 5.18zm-5.92-3.7a4.94 4.94 0 0 1 3.57-6l-.47-1.95a6.94 6.94 0 0 0-5.05 8.42zm3.57-6q.52-.13 1.05-.14l-.03-2q-.75.01-1.49.2zm40.57 11.88q-3.2-.08-6.61.7l.44 1.95q3.2-.73 6.13-.65zm-6.62.7-.25.06-.18.05.47 1.94.24-.06.17-.04zm-.9.37q-3.61 3.57-7.95 7.1l1.27 1.54a114 114 0 0 0 8.09-7.22zm-8.29 8.09a48 48 0 0 0 4.86 13.05l1.75-.98a46 46 0 0 1-4.66-12.52zm4.86 13.05c2.15 3.84 4.1 6.79 5.76 9.4a43 43 0 0 1 3.99 7.43l1.86-.72a45 45 0 0 0-4.16-7.78c-1.68-2.65-3.6-5.53-5.7-9.3zm9.75 16.83c1.96 5.04 2.34 11.04.45 22.3l1.97.33c1.92-11.4 1.6-17.82-.56-23.35zm.45 22.3c-2.32 13.77-10.72 28.42-24.1 39.25l1.26 1.56c13.72-11.12 22.4-26.19 24.81-40.48zm-23.19 40.99c10.68-3.11 19.81-8.87 25.89-15.88l-1.51-1.31c-5.8 6.69-14.59 12.25-24.94 15.27zm25.89-15.88c6.44-7.45 8.72-11.8 9.52-16.29l-1.97-.35c-.7 3.96-2.7 7.97-9.06 15.33zm9.52-16.29c.39-2.21.4-4.5.35-7.17-.04-2.68-.14-5.76 0-9.65l-2-.07c-.14 3.95-.04 7.1 0 9.75.05 2.67.03 4.8-.32 6.8zm.36-16.82a44 44 0 0 1 2.58-13.06l-1.89-.67a46 46 0 0 0-2.7 13.66zm2.58-13.06.33-.94-1.89-.66-.33.93zm-.49-.28.99-.12-.27-1.99-.98.13zm.98-.12c8.8-1.15 16.9-3.4 21.2-6.17l-1.09-1.68c-3.9 2.52-11.63 4.73-20.36 5.86zm21.63-7.23c-1.42-6.4-7.4-11.16-14.85-14.68l-.85 1.81c7.34 3.46 12.54 7.87 13.75 13.3zm-14.85-14.68-.7-.33-.86 1.8.7.34zm-.16.35-.17-.76-1.95.45.17.76zm-.17-.76c-2.45-10.51-10.7-17.34-21.35-17.56l-.04 2c9.7.2 17.2 6.37 19.44 16.01zm-16.28-3.12q.63 0 1.24.2l.6-1.91q-.89-.29-1.84-.29zm1.24.2a4 4 0 0 1 2.4 2.06l1.79-.9a6 6 0 0 0-3.58-3.07zm2.4 2.06c.5.99.6 2.15.25 3.23l1.9.6c.5-1.56.38-3.27-.36-4.73zm.25 3.23a4 4 0 0 1-.8 1.45l1.54 1.28q.79-.95 1.16-2.12zm-.8 1.45q-.54.65-1.27 1.03l.93 1.77q1.09-.58 1.88-1.52zm-1.27 1.03q-.74.4-1.56.47l.18 1.99c.8-.07 1.6-.3 2.3-.69zm-1.56.47a4 4 0 0 1-1.6-.18l-.6 1.9q1.15.38 2.38.27zm-1.6-.18a4 4 0 0 1-2.4-2.06l-1.79.9a6 6 0 0 0 3.58 3.07zm-2.4-2.06c-.5-1-.6-2.16-.25-3.23l-1.9-.6a6.3 6.3 0 0 0 .36 4.73zm-.25-3.23a4.3 4.3 0 0 1 1.53-2.15l-1.19-1.6a6.3 6.3 0 0 0-2.25 3.14zm1.53-2.15a4 4 0 0 1 2.46-.82v-2c-1.31 0-2.59.43-3.65 1.22z" mask="url(#a)"/></svg>