<svg xmlns="http://www.w3.org/2000/svg" width="256" height="256" fill="none" viewBox="0 0 256 256"><rect width="256" height="256" fill="#242938" rx="60"/><path fill="#787878" d="M200.78 121.53h-.05a40 40 0 0 0-2 10.86c-.3 7.6.48 12.21-.4 17.13-.87 4.92-3.46 9.76-10.03 17.35-7.82 9.03-20.21 16.02-34.53 18.38a74 74 0 0 1-8.43 4.65c11.14 4.2 22.8 4.42 32.03 1.4 16.28-5.35 15.02-9.18 22.3-20.36 2.3-3.52 4.96-6.2 7.62-8.41 7.6 3.3 15.07 5.43 19.72 4.9 2.5-5.8-.06-12.53-4.32-18.9 3.5-10.86-1.8-21.73-13.56-25.58q-4.57-1.5-8.35-1.42m8.81 15.95a4.4 4.4 0 0 1 3.4 1.49 4.4 4.4 0 0 1 1.08 3.23 4.5 4.5 0 0 1-1.54 3.09c-.9.79-2.07 1.2-3.26 1.13a4.4 4.4 0 0 1-3.68-6.4 4.6 4.6 0 0 1 4-2.54m-72.82 48.33.4.23.43-.16z"/><path fill="#ECECEC" d="M142.32 54c-6.36-.04-12.88 2.5-18.49 7.94-7.36 7.15-9.65 13.6-8.36 21.62l.36 2.2-2.2-.35c-16.18-2.63-36.2-1.3-58.98 7.91 6.7 2.87 18.99 7.66 32.62 14.21l4.33 2.08-4.7.95c-18.01 3.66-39.38 14.2-58.9 37.21 8.73-.68 26.58-2.78 45.19-2.75 10.35.02 20.54.73 28.85 2.89 8.3 2.15 15.85 7.08 16.92 10.7 1.06 3.6.46 5.5-.59 8.33-1.05 2.82-4.27 7.12-8.73 9.95s-10.11 5.3-15.99 7.41c-11.75 4.21-24.26 6.9-29.78 7.41-1.18.11-1.65.54-2.1 1.36s-.7 2.1-.74 3.46c-.05 1.8.23 2.74.74 3.46s1.3 1 2.13 1.05c34.7 2.35 60.65-6.38 79.5-13.86 21.67-9.94 35.37-29.56 38.34-47.23 1.86-11.07 1.47-16.5-.33-21.12s-5.24-8.72-9.62-16.56a51 51 0 0 1-5.34-14.58l-.2-.97.77-.62c8.03-6.44 14.57-13.47 16.94-18.58-4.87-5.19-13.29-6.28-22.7-5.27l-.78.08-.55-.56c-5.02-5.11-11.25-7.73-17.6-7.77m2.82 11.96a6 6 0 0 1 5.86 4.6 5.94 5.94 0 0 1-4.3 7.22 5.94 5.94 0 0 1-7.14-4.45 5.94 5.94 0 0 1 5.58-7.37"/><path fill="#B2B2B2" d="M184.66 79.98q-3.06-.07-6.37.67l-.42.11q-3.66 3.61-8.03 7.16c.94 4.1 2.32 8.4 4.77 12.78 4.24 7.61 7.74 11.68 9.8 16.96 2.05 5.28 2.41 11.5.5 22.82-2.36 14.03-10.9 28.9-24.45 39.87 10.52-3.07 19.48-8.72 25.41-15.58 6.4-7.4 8.54-11.58 9.3-15.8.74-4.22.04-8.84.34-16.68a45 45 0 0 1 2.64-13.37l.32-.93.99-.13c8.76-1.13 16.68-3.37 20.78-6.01-1.32-5.92-6.9-10.5-14.3-14l-.71-.33-.18-.75c-2.34-10.08-10.21-16.58-20.4-16.8m5.1 12.44a5 5 0 0 1 4.53 2.8 5.3 5.3 0 0 1-4.19 7.63 5.1 5.1 0 0 1-4.99-2.78 5.28 5.28 0 0 1 4.64-7.65"/></svg>