<svg xmlns="http://www.w3.org/2000/svg" width="256" height="256" fill="none" viewBox="0 0 256 256"><g clip-path="url(#a)"><path fill="#242938" d="M196 0H60A60 60 0 0 0 0 60v136a60 60 0 0 0 60 60h136a60 60 0 0 0 60-60V60a60 60 0 0 0-60-60"/><path fill="#2684FF" d="M46.3 52.03a5.7 5.7 0 0 0-4.3 1.9 5.4 5.4 0 0 0-1.27 4.44l23.62 140.76a7.4 7.4 0 0 0 2.55 4.42 7.7 7.7 0 0 0 4.85 1.77h113.33a5.6 5.6 0 0 0 3.66-1.28 5.4 5.4 0 0 0 1.9-3.3l23.63-142.35a5.4 5.4 0 0 0-1.28-4.44 5.6 5.6 0 0 0-4.28-1.9zm99.47 101.73h-36.18l-9.79-50.22h54.73z"/><path fill="url(#b)" d="M206.62 103.47h-52.19l-8.76 50.18h-36.14l-42.68 49.72a7.6 7.6 0 0 0 4.87 1.8h113.27a5.6 5.6 0 0 0 3.64-1.28 5.4 5.4 0 0 0 1.92-3.3z"/></g><defs><linearGradient id="b" x1="39228.9" x2="23538.7" y1="3347.5" y2="23660.6" gradientUnits="userSpaceOnUse"><stop offset=".18" stop-color="#0052CC"/><stop offset="1" stop-color="#2684FF"/></linearGradient><clipPath id="a"><path fill="#fff" d="M0 0h256v256H0z"/></clipPath></defs></svg>