<svg xmlns="http://www.w3.org/2000/svg" width="256" height="256" fill="none" viewBox="0 0 256 256"><rect width="256" height="256" fill="#F4F2ED" rx="60"/><path fill="#fff" d="M105.55 137.28c.78-13.88 7.54-26.1 17.75-34.78 10-8.5 23.48-13.71 38.17-13.71s28.16 5.2 38.17 13.71c10.2 8.67 16.96 20.9 17.75 34.77.77 14.26-4.93 27.5-14.94 37.33-10.2 9.99-24.72 16.26-40.98 16.26s-30.8-6.27-41-16.26c-10-9.82-15.7-23.07-14.92-37.32"/><path fill="#265787" d="M132.78 138.53a25.3 25.3 0 0 1 9.1-17.85 30.2 30.2 0 0 1 19.6-7.04c7.53 0 14.44 2.67 19.58 7.04a25.3 25.3 0 0 1 9.1 17.84c.4 7.32-2.53 14.12-7.66 19.16a30 30 0 0 1-21.03 8.34c-8.34 0-15.8-3.22-21.03-8.34-5.14-5.04-8.06-11.84-7.66-19.15"/><path fill="#EA7600" d="M87.09 152.92c.05 2.79.93 8.2 2.26 12.43a66 66 0 0 0 14.1 24.54 73 73 0 0 0 24.68 17.8 79 79 0 0 0 32.4 6.77 79 79 0 0 0 32.39-6.88 73 73 0 0 0 24.66-17.88 66 66 0 0 0 14.1-24.58 62.4 62.4 0 0 0 2.2-27.34 63.5 63.5 0 0 0-8.98-24.73 69 69 0 0 0-16.4-18.17v-.01l-66.38-51.22q-.08-.08-.17-.14c-4.36-3.36-11.68-3.35-16.47.02-4.84 3.4-5.4 9.04-1.09 12.59l-.02.02 27.7 22.62-84.4.1h-.11c-6.98 0-13.68 4.6-15.01 10.41-1.36 5.92 3.37 10.83 10.63 10.86l-.02.02 42.78-.08-76.33 58.87-.3.22c-7.2 5.54-9.52 14.75-4.98 20.58 4.6 5.93 14.39 5.94 21.66.04l41.66-34.26s-.6 4.62-.56 7.4m107.05 15.49c-8.59 8.78-20.6 13.77-33.6 13.8-13.03.02-25.04-4.92-33.63-13.7a40 40 0 0 1-9.17-14.43 38.2 38.2 0 0 1 2.5-31.3c2.5-4.58 5.94-8.7 10.2-12.2a47.5 47.5 0 0 1 30.07-10.55 47.4 47.4 0 0 1 30.1 10.46 42 42 0 0 1 10.2 12.16 38 38 0 0 1 4.6 15.17 38 38 0 0 1-2.1 16.12 40 40 0 0 1-9.17 14.47"/></svg>