<svg xmlns="http://www.w3.org/2000/svg" width="256" height="256" fill="none" viewBox="0 0 256 256"><rect width="256" height="256" fill="url(#a)" rx="60"/><g filter="url(#b)"><path fill="url(#c)" d="M131.97 196.16c29.68 0 47.56-14.53 47.56-38.5 0-18.12-12.76-31.23-31.7-33.3v-.76c13.91-2.27 24.84-15.2 24.84-29.63 0-20.57-16.24-33.97-40.99-33.97H76v136.16zM97.65 77.26h28.81c15.66 0 24.55 6.99 24.55 19.63 0 13.5-10.34 21.05-29.1 21.05H97.66zm0 101.63v-44.82h28.62c20.49 0 31.12 7.55 31.12 22.27s-10.34 22.55-29.87 22.55z"/><path stroke="#fff" stroke-width="2" d="M131.97 196.16c29.68 0 47.56-14.53 47.56-38.5 0-18.12-12.76-31.23-31.7-33.3v-.76c13.91-2.27 24.84-15.2 24.84-29.63 0-20.57-16.24-33.97-40.99-33.97H76v136.16zM97.65 77.26h28.81c15.66 0 24.55 6.99 24.55 19.63 0 13.5-10.34 21.05-29.1 21.05H97.66zm0 101.63v-44.82h28.62c20.49 0 31.12 7.55 31.12 22.27s-10.34 22.55-29.87 22.55z"/></g><defs><linearGradient id="a" x1="0" x2="256" y1="0" y2="256" gradientUnits="userSpaceOnUse"><stop stop-color="#9013FE"/><stop offset="1" stop-color="#6B11F4"/></linearGradient><linearGradient id="c" x1="85.79" x2="148.54" y1="68.96" y2="175.08" gradientUnits="userSpaceOnUse"><stop stop-color="#fff"/><stop offset="1" stop-color="#F1E5FC"/></linearGradient><filter id="b" width="137.53" height="170.16" x="59" y="47" color-interpolation-filters="sRGB" filterUnits="userSpaceOnUse"><feFlood flood-opacity="0" result="BackgroundImageFix"/><feColorMatrix in="SourceAlpha" result="hardAlpha" values="0 0 0 0 0 0 0 0 0 0 0 0 0 0 0 0 0 0 127 0"/><feOffset dy="4"/><feGaussianBlur stdDeviation="8"/><feColorMatrix values="0 0 0 0 0 0 0 0 0 0 0 0 0 0 0 0 0 0 0.15 0"/><feBlend in2="BackgroundImageFix" result="effect1_dropShadow_158_100"/><feBlend in="SourceGraphic" in2="effect1_dropShadow_158_100" result="shape"/></filter></defs></svg>