<svg xmlns="http://www.w3.org/2000/svg" width="256" height="256" fill="none" viewBox="0 0 256 256"><rect width="256" height="256" fill="#242938" rx="60"/><path fill="#D10000" d="M146.66 161.92c4.52 40.5 43.01 41.59 60 45.97 49.8 9.85 24.9 28.45 4.52 28.45l1.13 3.28-43.01 1.1 35.09-19.7 3.4 8.75c5.66 2.2 43.01-10.94-16.98-16.41-24.91-4.38-40.76-9.85-49.81-20.8l-30.57 17.52c-7.92-17.51-31.7-24.08-21.5-47.06"/><path stroke="#000" stroke-linecap="round" stroke-linejoin="round" stroke-width="1.11" d="M146.66 161.92c4.52 40.5 43.01 41.59 60 45.97 49.8 9.85 24.9 28.45 4.52 28.45l1.13 3.28-43.01 1.1 35.09-19.7 3.4 8.75c5.66 2.2 43.01-10.94-16.98-16.41-24.91-4.38-40.76-9.85-49.81-20.8l-30.57 17.52c-7.92-17.51-31.7-24.08-21.5-47.06"/><path fill="gold" stroke="#000" stroke-linecap="round" stroke-linejoin="round" stroke-width="1.11" d="M139.86 186c2.27 1.1 5.66-3.28 4.53-5.47l-82.64-59.1c0-3.28 7.93-9.85-3.4-18.6l1.14-2.2-14.72-6.56c2.27 4.38 4.53 5.47 6.8 13.13l4.52-2.19c4.53 5.48 4.53 9.85 0 12.04l-7.92-5.47c0-1.1 1.13-2.19 1.13-3.28 0 0-1.13-1.1-4.53-1.1-2.26 0-6.79-4.37-10.19-4.37 0 3.28 5.66 8.75 5.66 14.22l3.4-2.19c3.4 1.1 5.66 3.29 7.92 6.57-3.4 4.38-7.92 6.57-16.98 2.19 0-2.19 2.27-3.28 2.27-5.47-4.53 0-10.19-3.29-15.85-6.57 2.26 7.66 9.06 16.42 15.85 18.6 11.32 4.38 15.85-3.28 21.5-3.28z"/><path fill="#D10000" d="M108.17 114.86 74.2 74.37c2.26-5.47 1.13-13.13 0-16.41C68.55 39.9 81 31.69 92.3 22.94c9.06-6.57 13.6-7.66 15.86-6.57 2.26 2.19-9.06 8.75-11.32 16.42 0 0-2.27 12.03 5.66 6.56a40 40 0 0 1 26.03-3.28c7.93 1.1 20.38 5.47 28.3 14.23 23.78-4.38 10.2-18.6 7.93-27.36 7.92-6.57 49.24 33.92-1.13 60.19 0 15.32-3.4 25.17-13.59 33.92-12.45 9.85-4.53 14.23-2.26 20.8 5.66 18.6 3.4 30.64-19.25 33.92-15.84 2.2-18.11 8.76-30.56 0"/><path stroke="#000" stroke-linecap="round" stroke-linejoin="round" stroke-width="1.11" d="M108.17 114.86 74.2 74.37c2.26-5.47 1.13-13.13 0-16.41C68.55 39.9 81 31.69 92.3 22.94c9.06-6.57 13.6-7.66 15.86-6.57 2.26 2.19-9.06 8.75-11.32 16.42 0 0-2.27 12.03 5.66 6.56a40 40 0 0 1 26.03-3.28c7.93 1.1 20.38 5.47 28.3 14.23 23.78-4.38 10.2-18.6 7.93-27.36 7.92-6.57 49.24 33.92-1.13 60.19 0 15.32-3.4 25.17-13.59 33.92-12.45 9.85-4.53 14.23-2.26 20.8 5.66 18.6 3.4 30.64-19.25 33.92-15.84 2.2-18.11 8.76-30.56 0"/><path fill="#D10000" d="M102.5 49.2c1.14-4.38-10.18-12.04-22.63 10.95-1.14 3.28-5.66 12.03-5.66 12.03-1.14 4.38-2.27 9.85-4.53 12.04-11.32 10.95-5.66 25.17 9.05 30.64 3.4 1.1 13.59 8.76 20.38 12.04 3.4 2.2 0 9.85-5.66 8.76-30.56-6.57-31.7 14.22-19.24 17.5l44.15-2.18"/><path stroke="#000" stroke-linecap="round" stroke-linejoin="round" stroke-width="1.11" d="M102.5 49.2c1.14-4.38-10.18-12.04-22.63 10.95-1.14 3.28-5.66 12.03-5.66 12.03-1.14 4.38-2.27 9.85-4.53 12.04-11.32 10.95-5.66 25.17 9.05 30.64 3.4 1.1 13.59 8.76 20.38 12.04 3.4 2.2 0 9.85-5.66 8.76-30.56-6.57-31.7 14.22-19.24 17.5l44.15-2.18M109.3 48.1c4.53-4.37 12.45-4.37 15.85 2.2 1.13 2.18 1.13 4.37 2.26 5.47"/><path fill="#D10000" d="M76.47 107.2c5.66 1.1 5.66 4.38 12.45 9.85 11.32 8.76 24.9 1.1 28.3-1.1 4.53-2.18 4.53-5.46 9.06-3.27"/><path stroke="#000" stroke-linecap="round" stroke-linejoin="round" stroke-width="1.67" d="M76.47 107.2c5.66 1.1 5.66 4.38 12.45 9.85 11.32 8.76 24.9 1.1 28.3-1.1 4.53-2.18 4.53-5.46 9.06-3.27"/><path fill="#D10000" d="M91.19 91.88c-13.59-7.66-16.98 4.38-11.32 9.85 1.13 1.1 4.52 1.1 6.79 2.2 2.26 1.08 3.4-3.3 9.05-.56 4.53 2.74 6.8-2.73 2.27-4.92"/><path stroke="#000" stroke-linecap="round" stroke-linejoin="round" stroke-width="1.11" d="M91.19 91.88c-13.59-7.66-16.98 4.38-11.32 9.85 1.13 1.1 4.52 1.1 6.79 2.2 2.26 1.08 3.4-3.3 9.05-.56 4.53 2.74 6.8-2.73 2.27-4.92"/><path fill="#fff" stroke="#000" stroke-linecap="round" stroke-linejoin="round" stroke-width="1.11" d="M99.11 54.67c0-3.28-6.8-5.47-14.72 6.57-9.05 14.23-7.92 21.89-3.4 25.17 3.4 2.19 6.8 1.1 10.2-8.75 2.26-5.48 7.92-19.7 7.92-22.99"/><path fill="#fff" stroke="#000" stroke-linecap="round" stroke-linejoin="round" stroke-width="1.11" d="M112.7 53.58c11.31-2.19 10.18 38.3-7.93 39.4-20.38 1.1-6.8-36.12 7.92-39.4"/><path fill="#000" d="M107.03 73.28c5.66 4.38-1.13 21.89-9.05 15.32-5.66-5.47 2.26-20.8 9.05-15.32m-19.24-2.19c5.66 4.38-3.4 18.6-6.8 12.04-3.39-4.38 0-16.42 6.8-12.04"/><path fill="#fff" d="M84.4 72.18c1.13 0 1.13 6.57 0 6.57-3.4 0-2.27-6.57 0-6.57m18.1 4.38c1.14 0 1.14 4.38-1.13 4.38-1.13 0-2.26-4.38 1.14-4.38"/><path fill="#D10000" d="M104.77 171.77c-5.66 0-9.06 1.1-15.85-6.56Z"/><path stroke="#000" stroke-linecap="round" stroke-linejoin="round" stroke-width="1.11" d="M104.77 171.77c-5.66 0-9.06 1.1-15.85-6.56"/><path fill="#D10000" d="M99.11 165.2c-29.43 2.2-6.8-38.3 15.85-20.79 4.53 3.29 9.06 4.38 15.85 2.2"/><path stroke="#000" stroke-linecap="round" stroke-linejoin="round" stroke-width="1.11" d="M99.11 165.2c-29.43 2.2-6.8-38.3 15.85-20.79 4.53 3.29 9.06 4.38 15.85 2.2"/><path fill="#D10000" stroke="#000" stroke-linecap="round" stroke-linejoin="round" stroke-width="1.11" d="M94.58 145.5c3.4 5.48-7.92 14.23-14.71 8.76s11.32-13.13 14.71-8.75"/><path fill="#D10000" stroke="#000" stroke-linecap="round" stroke-linejoin="round" stroke-width="1.11" d="M87.79 134.56c-26.04-3.28-24.9 15.32-13.58 18.6 12.45 3.3 26.03-14.22 13.58-18.6"/><path fill="#D10000" stroke="#000" stroke-linecap="round" stroke-linejoin="round" stroke-width="1.11" d="M81 140.04c1.13 7.66-15.85 12.03-19.25 1.09-2.26-7.66 16.98-18.6 19.25-1.1"/><path fill="#D10000" stroke="#000" stroke-linecap="round" stroke-linejoin="round" stroke-width="1.11" d="M84.4 124.71c6.79 8.76-10.2 13.14-14.72 7.66-9.06-9.84 9.05-14.22 14.71-7.66"/><path fill="#00B000" stroke="#000" stroke-linecap="round" stroke-linejoin="round" stroke-width="1.11" d="M60.62 206.8c14.72-1.1 39.62-1.1 32.83-12.05-2.26-3.28-1.13-5.47-1.13-7.66 2.26 8.76 20.38 3.29 19.24 14.23l-21.5 28.46z"/><path fill="#00B000" d="M126.28 195.85c4.53-2.19 9.06 0 13.58-3.28 7.93 7.66 7.93 18.6 10.2 20.79l-38.5 15.32-24.9-12.04c11.32-13.13 23.77-7.66 24.9-15.32 2.27-13.13 9.06-9.85 14.72-4.38 0 0 1.13 10.95-2.27 10.95-7.92 1.1-24.9 7.66-24.9 7.66"/><path stroke="#000" stroke-linecap="round" stroke-linejoin="round" stroke-width="1.11" d="M126.28 195.85c4.53-2.19 9.06 0 13.58-3.28 7.93 7.66 7.93 18.6 10.2 20.79l-38.5 15.32-24.9-12.04c11.32-13.13 23.77-7.66 24.9-15.32 2.27-13.13 9.06-9.85 14.72-4.38 0 0 1.13 10.95-2.27 10.95-7.92 1.1-24.9 7.66-24.9 7.66"/><path fill="#fff" stroke="#000" stroke-linecap="round" stroke-linejoin="round" stroke-width="1.11" d="M41.38 212.27c2.26-3.29 33.96-12.04 33.96 1.09l-19.25 9.85z"/><path fill="#F4FFF4" stroke="#000" stroke-linecap="round" stroke-linejoin="round" stroke-width="1.11" d="M142.13 203.51c0 7.66-6.8 6.57-7.93 3.28-2.26-7.66 7.93-8.75 7.93-3.28"/><path fill="#fff" d="M67.41 223.2c-28.3 3.3-28.3-4.37-28.3-4.37 0-5.47 0-5.47 2.27-6.57 3.4 4.38 22.64 6.57 31.7 2.2"/><path stroke="#000" stroke-linecap="round" stroke-linejoin="round" stroke-width="1.11" d="M67.41 223.2c-28.3 3.3-28.3-4.37-28.3-4.37 0-5.47 0-5.47 2.27-6.57 3.4 4.38 22.64 6.57 31.7 2.2"/><path fill="#fff" stroke="#000" stroke-linecap="round" stroke-linejoin="round" stroke-width="1.11" d="M108.17 224.3c0-19.7-32.83-17.5-39.62-5.47l14.71 10.94z"/><path fill="#fff" stroke="#000" stroke-linecap="round" stroke-linejoin="round" stroke-width="1.11" d="M148.92 212.27c2.26-1.1 1.13 3.28 1.13 7.66-22.64 14.22-70.18 15.32-82.64 5.47 0-4.38 0-5.47 1.14-7.66 6.79 10.94 71.31 6.56 80.37-5.48"/><path fill="#D10000" d="m95.71 199.13 11.32 1.1zm-2.26 3.28 11.32 2.2zm-5.66 2.2 9.06 2.18zm-9.06 2.18 13.59 2.2zm33.96-6.56 13.59 1.1zm-1.13 3.28 13.59 2.19zm-4.53 3.28 7.93 1.1zm-6.79 2.2 9.06 1.09Z"/><path stroke="#0FF" stroke-linecap="round" stroke-linejoin="round" stroke-width="1.11" d="m100.24 208.98 9.06 1.1m-13.6-10.95 11.32 1.1zm-2.26 3.28 11.32 2.2zm-5.66 2.2 9.06 2.18zm-9.06 2.18 13.59 2.2zm33.96-6.56 13.59 1.1zm-1.13 3.28 13.59 2.19zm-4.53 3.28 7.93 1.1z"/></svg>