<svg xmlns="http://www.w3.org/2000/svg" width="256" height="256" fill="none" viewBox="0 0 256 256"><rect width="256" height="256" fill="#242938" rx="60"/><path fill="#000" d="M206.7 91.24q-.6-.65-1.26-1.26c-.43-.41-.83-.87-1.26-1.27s-.84-.86-1.27-1.27c-.43-.4-.83-.86-1.26-1.26s-.84-.86-1.27-1.27c-.43-.4-.84-.86-1.27-1.26s-.83-.86-1.26-1.27a67 67 0 0 1 20.02 46.74c0 41.94-42.58 76.07-94.93 76.07-29.32 0-55.55-10.7-73-27.5l1.27 1.27 1.27 1.27 1.27 1.26 1.26 1.27 1.27 1.27 1.26 1.26 1.27 1.27c17.42 17.5 44.23 28.76 74.25 28.76 52.36 0 94.94-34.13 94.94-75.95 0-17.88-7.7-34.81-21.3-48.13"/><path fill="#FBF0DF" d="M211.54 129.11c0 38.51-39.67 69.73-88.6 69.73-48.94 0-88.61-31.22-88.61-69.73 0-23.87 15.19-44.96 38.53-57.46s37.87-25.32 50.08-25.32c12.2 0 22.63 10.45 50.07 25.32 23.35 12.5 38.53 33.6 38.53 57.46"/><path fill="#F6DECE" d="M211.54 129.11c0-4.94-.69-9.87-2.02-14.63-6.91 84.3-109.75 88.36-150.18 63.14a101.3 101.3 0 0 0 63.6 21.22c48.86 0 88.6-31.27 88.6-69.73"/><path fill="#FFFEFC" d="M88.84 67.01c11.31-6.78 26.35-19.52 41.13-19.54a24 24 0 0 0-7.03-1.14c-6.13 0-12.66 3.16-20.89 7.92-2.86 1.67-5.82 3.52-8.96 5.45a413 413 0 0 1-20.25 11.9c-24.1 13.03-38.51 34.53-38.51 57.51v3.02C49.67 77.93 77.54 73.8 88.83 67"/><path fill="#CCBEA7" fill-rule="evenodd" d="M115.65 52.73a41.5 41.5 0 0 1-14.26 31.57c-.7.64-.15 1.85.76 1.5 8.53-3.32 20.05-13.24 15.2-33.27-.21-1.14-1.7-.83-1.7.2m5.74 0a41.1 41.1 0 0 1 4.08 34.1c-.3.9.78 1.65 1.4.92 5.53-7.1 10.37-21.17-4.11-36.36-.73-.66-1.87.36-1.37 1.24zm6.99-.43a41.6 41.6 0 0 1 17.34 29.78.84.84 0 0 0 1.65.27c2.33-8.83 1.01-23.9-18.15-31.72-1.02-.4-1.68.96-.84 1.57zM81.65 78.63a43 43 0 0 0 26.5-22.78c.46-.91 1.9-.56 1.67.45-4.38 20.26-19.04 24.48-28.15 23.93-.96.02-.94-1.32-.02-1.6" clip-rule="evenodd"/><path fill="#000" d="M122.94 205.19c-52.36 0-94.94-34.13-94.94-76.08 0-25.31 15.65-48.93 41.85-63.08 7.6-4.06 14.1-8.13 19.9-11.7a559 559 0 0 1 9.11-5.55c8.89-5.26 16.48-8.78 24.08-8.78s14.22 3.04 22.53 7.95a189 189 0 0 1 7.77 4.73c6.3 3.9 13.42 8.3 22.78 13.35 26.2 14.15 41.85 37.74 41.85 63.08 0 41.95-42.58 76.08-94.93 76.08m0-158.86c-6.13 0-12.66 3.16-20.89 7.92-2.86 1.67-5.82 3.52-8.96 5.45a413 413 0 0 1-20.25 11.9c-24.1 13.03-38.51 34.53-38.51 57.51 0 38.46 39.75 69.75 88.6 69.75 48.87 0 88.61-31.29 88.61-69.75 0-22.98-14.4-44.48-38.53-57.46-9.57-5.07-17.03-9.83-23.09-13.57q-4.13-2.56-7.6-4.66c-7.66-4.56-13.26-7.1-19.38-7.1"/><path fill="#B71422" d="M140.79 147.6a22.6 22.6 0 0 1-7.4 11.92 17.2 17.2 0 0 1-10.12 4.76 17.3 17.3 0 0 1-10.46-4.76 22.6 22.6 0 0 1-7.3-11.92 1.82 1.82 0 0 1 2.03-2.06h31.24a1.82 1.82 0 0 1 2 2.06"/><path fill="#FF6164" d="M112.81 159.72a17.5 17.5 0 0 0 10.43 4.81 17.5 17.5 0 0 0 10.4-4.8 27 27 0 0 0 2.54-2.72 17.3 17.3 0 0 0-12.4-5.84 15.6 15.6 0 0 0-12.67 7.03c.59.53 1.1 1.04 1.7 1.52"/><path fill="#000" d="M113.22 157.72a13.6 13.6 0 0 1 10.6-5.26c3.8.1 7.4 1.63 10.13 4.27q.87-.96 1.67-1.94a17.7 17.7 0 0 0-11.92-4.9 16.1 16.1 0 0 0-12.38 5.98q.9.98 1.9 1.85"/><path fill="#000" d="M123.17 165.8a18.8 18.8 0 0 1-11.27-5.07 24 24 0 0 1-7.87-12.78 3 3 0 0 1 .65-2.53 3.6 3.6 0 0 1 2.86-1.3h31.24a3.6 3.6 0 0 1 2.87 1.3 3 3 0 0 1 .63 2.53 24 24 0 0 1-7.87 12.78 18.8 18.8 0 0 1-11.24 5.07m-15.62-18.74c-.41 0-.51.18-.54.23 1.07 4.33 3.5 8.2 6.91 11.06a15.8 15.8 0 0 0 9.25 4.44 16 16 0 0 0 9.24-4.38 21 21 0 0 0 6.88-11.07.5.5 0 0 0-.5-.23z"/><path fill="#FEBBD0" d="M161.47 149.16c8.18 0 14.8-3.9 14.8-8.7 0-4.81-6.62-8.71-14.8-8.71s-14.81 3.9-14.81 8.7c0 4.81 6.63 8.71 14.8 8.71m-76.62 0c8.18 0 14.8-3.9 14.8-8.7 0-4.81-6.62-8.71-14.8-8.71s-14.81 3.9-14.81 8.7c0 4.81 6.63 8.71 14.8 8.71"/><path fill="#000" fill-rule="evenodd" d="M91.8 136.96a13.95 13.95 0 1 0 .05-27.9 13.95 13.95 0 0 0-.05 27.9m62.7 0a13.95 13.95 0 1 0 .21-27.89 13.95 13.95 0 0 0-.2 27.9" clip-rule="evenodd"/><path fill="#fff" fill-rule="evenodd" d="M87.5 123.9a5.25 5.25 0 1 0 .04-10.5 5.25 5.25 0 0 0-.05 10.5m62.7 0a5.25 5.25 0 1 0-.05 0z" clip-rule="evenodd"/></svg>