<svg xmlns="http://www.w3.org/2000/svg" width="256" height="256" fill="none" viewBox="0 0 256 256"><rect width="256" height="256" fill="#F4F2ED" rx="60"/><path fill="#373535" d="M51.86 171.69c1.64 0 3.19.39 3.96 1.16.13 1.2-.95 3.14-1.63 3.14a7 7 0 0 0-2.54-.48c-3.91 0-5.85 4.05-5.85 8.04 0 2.5.86 4 2.84 4 2.1 0 4.26-1.42 5.46-2.5.3.22.69.91.69 1.69 0 .85-.26 1.67-1.03 2.44-1.38 1.38-3.7 2.54-7.05 2.54-3.87 0-6.54-2.2-6.54-7.3 0-6.71 4.43-12.73 11.65-12.73zm12.64 15.65c2.1 0 5.93-3.7 7-10.75.05-.43.1-.56.18-.99a5 5 0 0 0-1.76-.3c-1.6 0-3.23.47-4.69 2.45a12 12 0 0 0-2.15 6.84c0 1.8.52 2.75 1.38 2.75zm-6.92-1.94c0-2.53.86-6.96 4.08-10.19 2.75-2.83 6.1-3.52 9.16-3.52 2.02 0 4.77.64 6.49.99-.43 1.89-1.46 9.03-1.93 13.15-.22 1.76-.3 4.21-.22 5.12-1.42.6-4.08.77-4.81.77-.39 0-.48-1.76-.35-3.44l.17-1.72c-1.67 2.8-4.98 5.16-8.46 5.16-2.5 0-4.13-2.06-4.13-6.27zm30.43-13.71c1.76 0 3.44.65 4.21 1.46-.04 1.2-.98 3.22-2.49 2.67a6 6 0 0 0-2.15-.39c-1.16 0-2.15.52-2.15 1.59 0 .82.6 1.42 3.48 3.44 2.07 1.5 2.88 2.84 2.88 4.73 0 3.14-2.96 6.53-8.12 6.53-2.1 0-3.95-.81-4.56-1.68-.77-1.28-.17-3.82.7-3.4 1.1.57 2.96 1.17 4.46 1.17 1.42 0 2.32-.65 2.32-1.5 0-.74-.64-1.38-3.26-3.23-2.2-1.63-2.88-3.14-2.88-4.86 0-3.56 3.05-6.53 7.52-6.53zm14.83 0c1.76 0 3.44.65 4.21 1.46-.04 1.2-.98 3.22-2.49 2.67a6 6 0 0 0-2.15-.39c-1.16 0-2.15.52-2.15 1.59 0 .82.6 1.42 3.48 3.44 2.07 1.5 2.88 2.84 2.88 4.73 0 3.14-2.96 6.53-8.12 6.53-2.1 0-3.96-.81-4.56-1.68-.77-1.28-.17-3.82.69-3.4a11 11 0 0 0 4.47 1.17c1.42 0 2.32-.65 2.32-1.5 0-.74-.64-1.38-3.27-3.23-2.19-1.63-2.88-3.14-2.88-4.86 0-3.56 3.06-6.53 7.53-6.53zm13.54 15.65c2.1 0 5.93-3.7 7-10.75.05-.43.1-.56.18-.99a5 5 0 0 0-1.77-.3 5.4 5.4 0 0 0-4.68 2.45 12 12 0 0 0-2.15 6.84c0 1.8.52 2.75 1.38 2.75zm-6.92-1.94c0-2.53.86-6.96 4.08-10.19 2.75-2.83 6.1-3.52 9.16-3.52 2.02 0 4.77.64 6.49.99-.43 1.89-1.46 9.03-1.94 13.15-.21 1.76-.3 4.21-.21 5.12-1.42.6-4.08.77-4.82.77-.38 0-.47-1.76-.34-3.44.04-.56.13-1.37.17-1.72-1.67 2.8-4.98 5.16-8.47 5.16-2.49 0-4.12-2.06-4.12-6.27zm29.44-8.12c1.98-3.18 4.56-5.59 8.17-5.59 3.05 0 4.04 2.84 3.48 6.88-.3 1.89-.82 4.6-1.16 7.09-.3 2.1-.52 4-.47 5.29-1.12.56-4.39.77-5.12.77-.3 0-.34-2.36.04-4.86.35-2.06 1.08-5.8 1.42-7.95.22-1.24.18-2.75-1.03-2.75-1.59 0-5.37 2.54-7.26 12.94-.13.86-.48 1.37-.95 1.68-.64.38-2.02.73-4.81.77.51-2.62 1.33-8 1.93-11.95.56-3.61.78-5.93.65-6.84a46 46 0 0 1 4.98-1.07c.48 0 .56 1.33.13 4.56l-.13 1.03zm21.84 10.02c1.89 0 5.71-3.53 6.79-9.76.04-.35.17-1 .26-1.38a3.4 3.4 0 0 0-2.45-.86c-4.35 0-6.28 5.2-6.28 8.94 0 2.02.69 3.05 1.63 3.05zm-2.84 4.42c-2.75 0-4.47-2.45-4.47-6.66 0-6.97 4.34-13.37 11.65-13.37 1.29 0 2.45.34 3.18.77.39-1.97 1.29-8.08 1.33-9.88 1.2-.22 3.78-.6 4.94-.6.48 0 .6.47.44 1.54-1.04 6.45-2.88 18.83-3.23 21.58-.26 2.32-.3 4.6-.26 5.89-1.37.6-4.17.73-4.9.73-.3 0-.47-1.98-.38-3.74.04-.56.12-1.37.12-1.5-2.14 3.52-5.11 5.24-8.38 5.24zm25.19-13.84c2.28-5.07 4.98-6.19 6.75-6.19.56 0 1.41.34 1.8.77.17 1.42-.94 4.26-1.93 5.33a4 4 0 0 0-1.9-.51c-1.46 0-4.34 2.28-6.14 12.08-.13.81-.39 1.16-.86 1.37-.73.43-3.61.78-4.99.82.65-3.53 1.76-10.7 2.2-14.92.12-1.07.17-3.05.08-3.82.82-.39 4.04-1.12 4.77-1.12.39 0 .69 2.37.09 6.19zm15.17 9.46c2.1 0 5.93-3.7 7-10.75.05-.43.1-.56.18-.99a5 5 0 0 0-1.76-.3c-1.6 0-3.23.47-4.69 2.45a12 12 0 0 0-2.15 6.84c0 1.8.52 2.75 1.38 2.75zm-6.92-1.94c0-2.53.86-6.96 4.08-10.19 2.75-2.83 6.1-3.52 9.16-3.52 2.02 0 4.77.64 6.49.99-.43 1.89-1.46 9.03-1.94 13.15-.21 1.76-.3 4.21-.21 5.12-1.42.6-4.08.77-4.81.77-.4 0-.48-1.76-.35-3.44l.17-1.72c-1.67 2.8-4.98 5.16-8.46 5.16-2.5 0-4.13-2.06-4.13-6.27z"/><path fill="#BBE6FB" d="M185.64 98.85c1.41 16.52-24.59 32.25-58.08 35.12-33.5 2.87-61.8-8.2-63.22-24.72C62.93 92.73 88.93 77 122.42 74.13c33.5-2.87 61.8 8.2 63.22 24.72"/><path fill="#fff" d="M123.4 76.07c-12.77-.21-27.72 4.86-38.85 9.61a32 32 0 0 0-1.78 10.57c0 19.6 17.7 35.49 39.53 35.49s39.53-15.9 39.53-35.5a32.5 32.5 0 0 0-4.89-17.1 252 252 0 0 0-33.53-3.07" opacity=".35"/><path fill="#fff" d="M122.3 76.06c-7.07-.43-19.26 3.26-29.43 6.94a30 30 0 0 0-2.4 11.82c0 17.18 15.57 31.1 32.04 31.1 16.36 0 30.84-13.95 32.04-31.1.4-5.58-1.53-10.84-4.2-15.38a275 275 0 0 0-28.05-3.38"/><path fill="#373535" d="M104.15 92.57c.87-1.92 2.18-2.86 3.46-4.48a10 10 0 0 1-.45-2.06 3.5 3.5 0 0 1 4.78-3.25 25.5 25.5 0 0 1 23.13-4.06c-7.57-1.05-16.1 1.63-21.9 6.31.17.42.66 1.62.66 2.1 0 1.93-1.25 2.4-3.18 2.4a4 4 0 0 1-1.24-.23 35 35 0 0 0-3.7 7.21c3.2 2.87 6.1 3.91 9.88 5.32 0-.18.13-.34.13-.53 0-5.82 5.13-10.55 10.95-10.55 5.22 0 9.54 3.8 10.39 8.77 2.6-1.66 5.12-2.93 7.04-5.38a6 6 0 0 1-.93-2.85 3.17 3.17 0 0 1 3.89-3.09q1.46-3.01 2.18-6.31c-9.1-6.74-26.73-5.82-26.73-5.82S108.5 75.33 99 79.96a28 28 0 0 0 5.15 12.6"/><path fill="#373535" d="M147.68 89.94c.64.58 1 1.1 1.27 1.59.85 1.53-.86 2.93-2.6 2.93q-.28 0-.53-.05c-1.97 3.08-5.43 7.04-8.5 9.03 4.7.77 9.15 2.66 12.68 5.58 2.58-4.62 4.55-11.28 4.55-16.93 0-4.31-1.9-7.47-4.77-9.78-.15 2.3-1.38 5.53-2.1 7.63m-38.24 29.22c1.57-4.34 5.43-7.7 9.08-10.65a20 20 0 0 1-1.67-3.4 25.6 25.6 0 0 1-11.45-7.25l-.08.29a23 23 0 0 0-.4 7.68 4.6 4.6 0 0 1 3.76 4.52c0 1.33-1.17 3.27-2.08 4.1a22 22 0 0 0 2.84 4.7"/><path fill="#373535" d="M109.16 122.8c-1.87-1.87-3.17-5.58-4.38-7.91q-.34.05-.7.06c-2.54 0-5.2-2.13-4.6-4.6.33-1.36 1.28-2.26 2.81-3-.35-2.83-.44-6.9.21-9.83.2-.84.59-1.24.85-2.04a27 27 0 0 1-4.6-14.82v-.58c-4.73 2.37-8.28 6.12-8.28 12 0 13.03 7.5 25.81 18.67 30.82zm27.45-18.01a10.54 10.54 0 0 1-16.45 4.79c-3.7 2.88-7.04 7.93-8.75 12.32.77.82 1.3 1.5 2.16 2.23 2.58.67 6.14 0 8.94 0 11.26 0 21.23-5 26.94-13.79-3.8-2.63-8.28-5.14-12.84-5.55"/><path fill="#1287B1" d="M103.86 94.1a26 26 0 0 1 3.23-5.32q-.22-.58-.22-1.22a3.5 3.5 0 0 1 4.78-3.25 25.5 25.5 0 0 1 23.13-4.07 28 28 0 0 0-21.2 5.96q.28.63.28 1.36a3.5 3.5 0 0 1-4.74 3.26 24 24 0 0 0-3.17 5.8 26 26 0 0 0 9.92 6.74l-.03-.55a10.54 10.54 0 0 1 20.93-1.77 27 27 0 0 0 6.83-6.24 3 3 0 0 1-.72-2 3.17 3.17 0 0 1 3.9-3.08q1.46-3.02 2.17-6.3c-9.1-6.75-26.73-5.83-26.73-5.83s-14.02-.73-23.51 3.9a28 28 0 0 0 5.15 12.6"/><path fill="#1287B1" d="M148.17 90.46a3.15 3.15 0 0 1-2.64 5.47 26 26 0 0 1-7.66 7.7c4.54.72 8.81 2.65 12.35 5.56a32 32 0 0 0 4.04-15.58c0-4.3-1.9-7.47-4.77-9.78q-.23 3.47-1.32 6.63m-38.25 29.74a25.6 25.6 0 0 1 7.95-11.18q-.8-1.1-1.3-2.4a25.6 25.6 0 0 1-11.46-7.24l-.08.3a23 23 0 0 0-.39 7.68 4.6 4.6 0 0 1 2.27 7.89q1.23 2.62 3.01 4.95"/><path fill="#1287B1" d="M109.15 122.74c-1.87-1.86-3.45-4-4.66-6.33q-.34.06-.7.06a4.6 4.6 0 0 1-2-8.73 25.5 25.5 0 0 1 1.1-11.16 25.4 25.4 0 0 1-4.44-14.4l.02-.58c-4.74 2.38-8.29 6.12-8.29 12a32 32 0 0 0 18.94 29.25zm27.17-16.44a10.54 10.54 0 0 1-16.44 4.8 26 26 0 0 0-8.2 11.19q1.16 1.23 2.45 2.33a32.1 32.1 0 0 0 34.96-13.56 27 27 0 0 0-12.77-4.75"/><path fill="#fff" d="m136.7 103.59 9.74-2.32-9.78-.5 7.95-6.08-9.03 3.23 6.14-8.5-8.47 5.63 2.96-9.95-5.82 8.2-.13-10.37-3.83 9.24-3.2-9.35.17 11.01-5.51-9.87 2.98 10.48-8.95-6.5 7.01 8.8-11.11-4.08 8.77 6.49-11.25.34 11.5 2.97-11.5 2.49 11.35.82-9.58 6.14 9.87-3.58-6.85 8.67 8.65-6.98-3.11 11.64 6.68-9.47-.94 11.18 3.8-10.14 3.22 10.66.78-10.69 4.8 9.12-2.84-10.43 8.77 6.8-5.66-8.67 9.62 3.75-7.36-7.23 9.87.78z"/><path fill="#373535" d="M32.98 122.23c30.21-30.21 54.34-39.54 76.24-43.8 2.9-.56 3.45-6.9 3.45-6.9s.4 4.67 2.43 5.28c2.03.6 4.67-7.3 4.67-7.3s-2.44 7.1 0 7.5 6.89-6.9 6.89-6.9-1.82 6.3-.6 6.7c1.2.4 7.3-9.12 7.3-9.12s-3.66 6.28-.21 6.89 8.48-4.29 8.48-4.29-3.96 4.48-2.2 5.1c7.5 2.64 13.58-7.11 13.58-7.11s-1.4 4.27-5.06 8.94c7.9 2.02 13.78-9.89 13.78-9.89l-5.87 11.91c3.04 1.63 15.2-12.37 15.2-12.37s-6.28 10.95-9.93 13.18c2.03 1.63 9.33-4.86 9.33-4.86s-5.88 7.3-3.65 7.7c3.24 2.64 15.2-13.58 15.2-13.58s-4.66 9.53-11.55 17.03c5.76 2.88 20.07-15.61 20.07-15.61s-.4 5.88-10.74 15.2c7.7-1 17.64-15.6 17.64-15.6s-3.65 10.94-12.37 18.65c7.56-.8 19.67-19.47 19.67-19.47s-4.67 12.98-14.2 20.48c10.55 2.33 25.76-13.38 25.76-13.38s-5.99 11.15-13.8 15.71c8.73 3.35 20.69-10.44 20.69-10.44s-11.96 18.45-31.02 17.64c-6.26-.27-25.17-18.97-65.7-17.44-53.53 2.03-64.89 24.74-93.48 40.15" opacity=".35"/><path fill="#373535" d="M34.22 119.94c30.21-30.22 54.34-39.54 76.24-43.8 2.9-.56 3.45-6.9 3.45-6.9s.4 4.67 2.43 5.28c2.03.6 4.66-7.3 4.66-7.3s-2.43 7.1 0 7.5 6.9-6.9 6.9-6.9-1.83 6.29-.61 6.7c1.22.4 7.3-9.13 7.3-9.13s-3.65 6.29-.2 6.9c3.44.6 8.47-4.3 8.47-4.3s-3.95 4.49-2.19 5.1c7.5 2.64 13.58-7.1 13.58-7.1s-1.41 4.27-5.06 8.93c7.9 2.03 13.78-9.88 13.78-9.88l-5.87 11.91c3.04 1.62 15.2-12.37 15.2-12.37s-6.28 10.95-9.93 13.18c2.03 1.62 9.33-4.87 9.33-4.87s-5.88 7.3-3.65 7.7c3.24 2.65 15.2-13.58 15.2-13.58s-4.66 9.53-11.55 17.04c5.76 2.88 20.07-15.62 20.07-15.62s-.4 5.88-10.75 15.21c7.71-1.01 17.65-15.61 17.65-15.61s-3.65 10.95-12.37 18.65c7.56-.78 19.66-19.46 19.66-19.46s-4.66 12.97-14.19 20.48c10.55 2.33 25.75-13.39 25.75-13.39s-5.98 11.16-13.78 15.72c8.72 3.34 20.68-10.44 20.68-10.44s-11.96 18.45-31.03 17.64c-6.25-.27-25.17-18.98-65.7-17.44-53.52 2.03-64.88 24.74-93.47 40.15"/><path fill="#373535" d="M32.19 125.54c15.97 8 30.57-1.22 48.97 3.96 13.99 3.95 31.02 8.8 54.14 5.46 23.11-3.34 42.88-13.38 52.31-31.33 2.94-8 14.9 1.83 14.9 1.83s-8.71-3.65-8.5-1.92c.2 1.72 13.07 7.7 13.07 7.7s-11.66-3.65-10.95-.91 14.6 13.68 14.6 13.68-15.72-11.96-17.03-10.34 6.69 8.22 6.69 8.22-13.28-8.22-17.95-5.8c-3.35 1.74 13.8 13 13.8 13s-11.16-8.52-13.8-6.3c-2.63 2.24 12.57 20.49 12.57 20.49s-17.23-18.66-18.95-17.75c-1.73.92 4.76 9.84 4.76 9.84s-8.52-9.33-10.85-7.7 12.17 25.85 12.17 25.85-15.72-24.84-22.2-20.69c10.19 22.36 6.38 25.55 6.38 25.55s-1.3-22.8-13.99-22.2c-6.39.3 3.04 17.03 3.04 17.03s-8.68-15.28-14.46-14.97c10.66 20.16 6.86 28.35 6.86 28.35s1.76-17.21-12.69-26.8c5.48 4.87-3.43 26.8-3.43 26.8s7.84-32.31-5.78-26.15c-2.15.97-.15 16.12-.15 16.12s-2.74-17.34-6.85-16.43c-2.39.53-15.2 24.03-15.2 24.03s10.49-25.4 7.3-24.33c-2.33.78-6.7 11.25-6.7 11.25s2.13-10.34 0-10.95-13.99 10.95-13.99 10.95 8.82-10.34 7.3-12.47c-2.3-3.22-5-3.37-8.2-2.12-4.67 1.81-10.96 10.33-10.96 10.33s6.27-8.62 5.17-11.86C81.83 129.76 63.82 145 63.82 145s10.65-10.04 8.21-12.17c-2.43-2.12-15.64-1.47-19.77-1.48-12.16-.04-16.38-2.89-20.07-5.81" opacity=".35"/><path fill="#373535" d="M31.58 123.71c15.97 8 30.57-1.22 48.97 3.97 13.99 3.94 31.03 8.8 54.14 5.46 23.12-3.35 42.88-13.38 52.32-31.33 2.94-8 14.9 1.83 14.9 1.83s-8.72-3.65-8.52-1.93 13.08 7.7 13.08 7.7-11.66-3.64-10.95-.9c.71 2.73 14.6 13.68 14.6 13.68s-15.72-11.97-17.03-10.34c-1.32 1.62 6.69 8.21 6.69 8.21s-13.28-8.21-17.95-5.8c-3.35 1.75 13.8 13 13.8 13s-11.16-8.52-13.8-6.29c-2.63 2.23 12.58 20.48 12.58 20.48s-17.24-18.65-18.96-17.74 4.76 9.83 4.76 9.83-8.52-9.32-10.85-7.7 12.17 25.85 12.17 25.85-15.72-24.84-22.2-20.68c10.19 22.36 6.38 25.55 6.38 25.55s-1.3-22.8-13.99-22.2c-6.38.3 3.04 17.03 3.04 17.03s-8.67-15.28-14.45-14.98c10.65 20.16 6.85 28.36 6.85 28.36s1.76-17.22-12.69-26.8c5.48 4.87-3.43 26.8-3.43 26.8s7.84-32.32-5.78-26.16c-2.15.98-.15 16.12-.15 16.12s-2.74-17.33-6.84-16.42c-2.4.53-15.21 24.03-15.21 24.03s10.5-25.4 7.3-24.33c-2.33.77-6.7 11.25-6.7 11.25s2.14-10.34 0-10.95c-2.12-.6-13.98 10.95-13.98 10.95s8.82-10.34 7.3-12.47c-2.31-3.23-5.01-3.38-8.22-2.13C84.1 136.48 77.81 145 77.81 145s6.27-8.63 5.17-11.86c-1.76-5.2-19.77 10.04-19.77 10.04s10.65-10.04 8.22-12.17c-2.44-2.13-15.65-1.47-19.77-1.48-12.17-.04-16.39-2.9-20.08-5.82"/></svg>