<svg xmlns="http://www.w3.org/2000/svg" width="256" height="256" fill="none" viewBox="0 0 256 256"><g clip-path="url(#a)"><path fill="#242938" d="M196 0H60A60 60 0 0 0 0 60v136a60 60 0 0 0 60 60h136a60 60 0 0 0 60-60V60a60 60 0 0 0-60-60"/><path fill="url(#b)" d="m105.02 110.07 3.46-62.57 36.39 20.17z"/><path fill="url(#c)" d="m105.02 110.07 3.46-62.57-46.2 29.12-14.78 88.51z"/><path fill="url(#d)" d="M204.32 95.45 183.73 53.6l-38.86 14.07-39.85 42.4-57.52 55.06 51.88 37.77 65.22-58.82z"/><path fill="url(#e)" d="M177.5 139.23v38.27h-62.83l27.61 21.37 40 8.63 25.22-57.08z"/><path fill="#000" d="M77.5 77.5h100v100h-100z"/><path fill="#fff" d="M89.97 158.6h37.5v6.25h-37.5zm37.61-68.7h8.34v30.65h16.41v6.95h-24.75zM87.3 108.95v-.1a19.24 19.24 0 0 1 19.72-19.57 19.5 19.5 0 0 1 14.9 5.84l-5.25 6.11a14 14 0 0 0-9.69-4.26c-6.36 0-10.95 5.28-10.95 11.76v.12c0 6.48 4.49 11.88 10.95 11.88 4.34 0 6.97-1.66 10-4.43l5.2 5.37a19.3 19.3 0 0 1-15.51 6.66 19.1 19.1 0 0 1-19.37-19.38"/></g><defs><linearGradient id="b" x1="105.02" x2="150.85" y1="78.78" y2="78.78" gradientUnits="userSpaceOnUse"><stop stop-color="#FF318C"/><stop offset=".15" stop-color="#FB348C"/><stop offset=".28" stop-color="#F03C8C"/><stop offset=".42" stop-color="#DE4A8C"/><stop offset=".54" stop-color="#C45D8B"/><stop offset=".67" stop-color="#A2778B"/><stop offset=".79" stop-color="#79958A"/><stop offset=".91" stop-color="#49B98A"/><stop offset="1" stop-color="#21D789"/></linearGradient><linearGradient id="c" x1="86.65" x2="63.12" y1="67.8" y2="225.7" gradientUnits="userSpaceOnUse"><stop offset=".09" stop-color="#21D789"/><stop offset=".9" stop-color="#009AE5"/></linearGradient><linearGradient id="d" x1="193.42" x2="32.45" y1="62.33" y2="232.33" gradientUnits="userSpaceOnUse"><stop offset=".09" stop-color="#21D789"/><stop offset=".9" stop-color="#009AE5"/></linearGradient><linearGradient id="e" x1="144.73" x2="199.78" y1="168.37" y2="176.2" gradientUnits="userSpaceOnUse"><stop offset=".09" stop-color="#21D789"/><stop offset=".9" stop-color="#009AE5"/></linearGradient><clipPath id="a"><path fill="#fff" d="M0 0h256v256H0z"/></clipPath></defs></svg>