<svg xmlns="http://www.w3.org/2000/svg" width="256" height="256" fill="none" viewBox="0 0 256 256"><rect width="256" height="256" fill="#F4F2ED" rx="60"/><g clip-path="url(#a)"><path fill="#fff" d="M128 28C72.86 28 28 72.86 28 128s44.86 100 100 100 100-44.85 100-100S183.14 28 128 28"/><path fill="#91DC47" d="M124.34 129.8a358 358 0 0 0-2.91 6.46c-3.63 8.22-7.65 18.23-9.12 24.64a37 37 0 0 0-.85 8.25q.01 1.87.17 3.87a48 48 0 0 0 16.46 2.93 48 48 0 0 0 15.07-2.45 28 28 0 0 1-3.14-3.33c-6.43-8.19-10-20.2-15.68-40.37m-23.71-40.69a47.8 47.8 0 0 0-20.32 39.06 47.8 47.8 0 0 0 19.77 38.67c2.94-12.22 10.29-23.4 21.31-45.83q-.98-2.72-2.23-5.83c-3.06-7.66-7.47-16.56-11.4-20.59a32 32 0 0 0-7.13-5.48"/><path fill="#63B132" d="M169.71 182.97c-6.32-.79-11.55-1.75-16.12-3.36a57.41 57.41 0 0 1-63.34-94.6 42 42 0 0 0-9.96-1.22c-16.85.16-34.63 9.48-42.04 34.66-.69 3.67-.52 6.44-.52 9.72a90.37 90.37 0 0 0 90.37 90.37 90.2 90.2 0 0 0 73.9-38.41 105 105 0 0 1-24.63 3.28q-4.1 0-7.67-.44"/><path fill="#90B4FE" d="M152.73 165.46c.56.28 1.83.73 3.59 1.23a47.8 47.8 0 0 0 19.56-38.52 47.85 47.85 0 0 0-47.79-47.78 48 48 0 0 0-15 2.44c9.7 11.05 14.37 26.86 18.88 44.15l.01.02c0 .01 1.44 4.8 3.9 11.15 2.45 6.34 5.94 14.2 9.74 19.91 2.5 3.84 5.24 6.6 7.11 7.4"/><path fill="#5881D8" d="M128.1 37.8a90.2 90.2 0 0 0-73.45 37.75 46 46 0 0 1 24.86-7.2c10.5.02 18.76 3.28 22.72 5.5q1.43.84 2.76 1.76a57.42 57.42 0 0 1 80.53 52.56h-.01a57.2 57.2 0 0 1-17.08 40.85c2.59.3 5.35.47 8.16.46 10.01 0 20.83-2.2 28.94-9.03 5.29-4.45 9.72-10.97 12.18-20.75q.73-5.67.75-11.53A90.37 90.37 0 0 0 128.1 37.8"/></g><defs><clipPath id="a"><path fill="#fff" d="M28 28h200v200H28z"/></clipPath></defs></svg>