<svg xmlns="http://www.w3.org/2000/svg" width="256" height="256" fill="none" viewBox="0 0 256 256"><rect width="256" height="256" fill="#F4F2ED" rx="60"/><g clip-path="url(#a)"><path fill="#fff" d="M79 171.75h132.36v-36.62L186.2 120.7l-4.34-1.88-102.87.7z"/><path fill="#F38020" d="M165.58 166.89c1.23-4.22.76-8.09-1.3-10.96-1.87-2.64-5.04-4.17-8.84-4.34l-72.16-.94c-.47 0-.87-.24-1.11-.59s-.3-.81-.18-1.28c.24-.71.94-1.24 1.7-1.3l72.8-.93c8.63-.41 18-7.39 21.28-15.94l4.16-10.84q.28-.7.13-1.4a47.4 47.4 0 0 0-91.15-4.86 21.6 21.6 0 0 0-14.95-4.17A21.3 21.3 0 0 0 56.9 128.4q-.37 3.77.52 7.45A30.25 30.25 0 0 0 28 166.12c0 1.47.13 2.94.3 4.4.12.7.7 1.23 1.4 1.23h133.18a1.8 1.8 0 0 0 1.7-1.29z"/><path fill="#FAAE40" d="m188.55 120.52-2 .06c-.47 0-.87.35-1.06.81l-2.81 9.8c-1.24 4.21-.77 8.08 1.28 10.95 1.88 2.64 5.05 4.17 8.85 4.34l15.36.94c.47 0 .87.24 1.11.59s.3.87.18 1.28a2 2 0 0 1-1.7 1.3l-16 .93c-8.68.41-18 7.39-21.28 15.94l-1.17 2.98a.84.84 0 0 0 .8 1.18h54.99a1.44 1.44 0 0 0 1.4-1.06 40 40 0 0 0 1.5-10.65 39.5 39.5 0 0 0-39.45-39.38"/></g><defs><clipPath id="a"><path fill="#fff" d="M28 28h200v200H28z"/></clipPath></defs></svg>