<svg xmlns="http://www.w3.org/2000/svg" width="256" height="256" fill="none" viewBox="0 0 256 256"><rect width="256" height="256" fill="#F4F2ED" rx="60"/><path fill="#000" d="m229.02 88.5-95.98-63.98a9.1 9.1 0 0 0-10.08 0L27 88.5a9.2 9.2 0 0 0-4 7.5v64a9.2 9.2 0 0 0 3.98 7.5l95.98 64a9.1 9.1 0 0 0 10.08 0l95.98-64A9.2 9.2 0 0 0 233 160V96a9.2 9.2 0 0 0-3.99-7.5m-92-39.6L207.7 96l-31.53 21.1-39.14-26.14zm-18.04 0v42.06L79.83 117.1 48.31 96zm-77.93 63.98L63.66 128l-22.61 15.1zm77.93 94.22L48.3 159.99l31.52-21.1 39.15 26.14zm9.02-57.78L96.13 128 128 106.67 159.87 128zm9.02 57.78v-42.07l39.14-26.14L207.7 160zm77.93-63.99L192.34 128l22.61-15.11z"/></svg>