<svg xmlns="http://www.w3.org/2000/svg" width="256" height="256" fill="none" viewBox="0 0 256 256"><rect width="256" height="256" fill="#242938" rx="60"/><path fill="#fff" d="M66.7 90.68c17.47 4.44 39.82 6.66 66.7 6.66 27.5 0 49.32-2.22 66.74-6.66 18.57-4.31 27.5-10.13 27.5-15.64 0-3.91-4-7.73-11.24-10.66 1.65 1.1 2.94 2.93 2.94 4.93 0 5.6-8.45 10.17-25.33 14-15.69 3.42-35.64 5.86-59.99 5.86-23.5 0-44.38-2.44-59.5-5.64-16.21-4-24.7-8.31-24.7-14 0-2.36 1.07-4.35 4.31-6.67C44 66.77 38.5 70.11 38.5 75.08c.58 5.65 9.64 11.29 28.22 15.6m39.07-17.95c18.92-1.65 24.43-13.82 46.6-15.82 10.9-.84 17.82 1.33 18.53 5.15.67 3.6-4.75 6-11.33 6.5-9.06.93-12.8-2.32-13.55-5.43-6.75.76-7.82 3.6-7.46 5.56.75 3.82 8.88 7.68 22.92 6.35 15.82-1.24 21.15-7.47 19.82-13.73-1.64-8.18-13.82-15.02-35.63-12.93-28 2.49-27.82 15.5-46.88 17.06-7.82.76-12.18-1.1-12.93-4.17-.49-3.12 3.33-4.58 7.82-4.94 4.18-.44 9.24.31 11.64 1.65 1.78-.94 2.36-1.87 2.18-2.94-.85-2.88-6.62-4.17-13.82-3.64-14.2 1.25-14.2 7.6-13.71 10.4 1.34 7.33 12.27 12.17 25.78 10.93m95.13 31.95c-17.51 4.08-39.82 6.75-66.74 6.75-27.46 0-49.86-2.84-67.27-6.67-15.64-4-24-8.44-26.93-12.97a158 158 0 0 0 7.42 29.55c-4 2.49-7.6 5.6-10.84 9.77a37.5 37.5 0 0 0-8.49 25.82 30 30 0 0 0 11.86 21.82c7.25 5.64 15.07 7.33 24 5.64 3.42-.58 7.24-2.31 10.75-3.47-7.33 0-13.5-2.35-19.64-7.24a29.7 29.7 0 0 1-12.44-20.13 27 27 0 0 1 4.44-21.5 26 26 0 0 1 3.25-3.34 178 178 0 0 0 8.17 17.64c6.76 10.27 13.51 19.16 20.26 28.84a72 72 0 0 1 6.14 16.84 32.4 32.4 0 0 0 18.57 12.49 77 77 0 0 0 29.81 4.26h1.07a86 86 0 0 0 30.75-4.3 35.3 35.3 0 0 0 18-12.45h.57a71 71 0 0 1 5.56-16.84c6.66-9.73 13.5-18.57 20.17-28.84A174 174 0 0 0 228 91.88c-3.64 5.02-12.04 9.38-27.1 12.8"/></svg>