<svg xmlns="http://www.w3.org/2000/svg" width="256" height="256" fill="none" viewBox="0 0 256 256"><rect width="256" height="256" fill="#00599C" rx="60"/><path fill="#fff" d="M110.76 210.52c-45.63 0-82.76-37.13-82.76-82.76S65.13 45 110.76 45a83 83 0 0 1 71.67 41.35l-35.82 20.73a41.6 41.6 0 0 0-35.85-20.7 41.43 41.43 0 0 0-41.38 41.38 41.43 41.43 0 0 0 41.38 41.38 41.6 41.6 0 0 0 35.85-20.7l35.82 20.72a83 83 0 0 1-71.67 41.36"/><path fill="#fff" d="M193.52 123.16h-9.2v-9.2h-9.2v9.2h-9.19v9.2h9.2v9.2h9.2v-9.2h9.19zm34.48 0h-9.2v-9.2h-9.19v9.2h-9.2v9.2h9.2v9.2h9.2v-9.2H228z"/></svg>