<svg xmlns="http://www.w3.org/2000/svg" width="256" height="256" fill="none" viewBox="0 0 256 256"><rect width="256" height="256" fill="#F4F4ED" rx="60"/><path fill="#000" d="m226.48 154.98-71.22 71.07c-.28.29-.71.43-1 .29l-97.28-26.07c-.43-.14-.72-.43-.72-.71l-26.2-97.14c-.15-.43 0-.72.28-1l71.22-71.08c.28-.28.71-.43 1-.28l97.28 26.06c.43.14.72.43.72.71l26.06 97.15c.29.43.14.71-.14 1m-95.43-77.35-95.58 25.5c-.14 0-.29.28-.14.42l69.93 69.8c.15.14.43.14.43-.14l25.64-95.44c.14 0-.14-.28-.29-.14"/></svg>