<svg xmlns="http://www.w3.org/2000/svg" width="256" height="256" fill="none" viewBox="0 0 256 256"><rect width="256" height="256" fill="#242938" rx="60"/><path fill="#000" stroke="#fff" stroke-linecap="round" stroke-width="5" d="m155.26 226.05 71.22-71.08c.28-.28.43-.56.14-1l-26.06-97.14c0-.28-.29-.57-.72-.7l-97.28-26.07c-.29-.15-.72 0-1 .28l-71.22 71.08c-.28.28-.43.57-.28 1l26.2 97.14c0 .28.29.57.72.71l97.28 26.07c.29.14.72 0 1-.29Z"/><path fill="#fff" d="m105.7 173.2-70.23-70.07 95.86-25.36z"/></svg>