<svg xmlns="http://www.w3.org/2000/svg" width="256" height="256" fill="none" viewBox="0 0 256 256"><rect width="256" height="256" fill="#953CAD" rx="60"/><path fill="#fff" d="M195.44 100.67v13.47h13.47v-13.47h6.74v13.47h13.47v6.74h-13.47v13.47h13.47v6.74h-13.47v13.47h-6.74V141.1h-13.47v13.47h-6.74V141.1h-13.47v-6.74h13.47v-13.47h-13.47v-6.74h13.47v-13.47zm13.47 20.2h-13.47v13.48h13.47z"/><path fill="#fff" d="M122 33a95 95 0 0 1 82.26 47.46l-.16-.28L162.75 104a47.3 47.3 0 0 0-40.21-23.3H122a47.3 47.3 0 1 0 41.22 70.5l-.2.35 41.3 23.92A95 95 0 0 1 123.06 223H122a94.96 94.96 0 0 1-95-95 95 95 0 0 1 95-95"/></svg>