<svg xmlns="http://www.w3.org/2000/svg" width="256" height="256" fill="none" viewBox="0 0 256 256"><g clip-path="url(#a)"><path fill="#242938" d="M196 0H60A60 60 0 0 0 0 60v136a60 60 0 0 0 60 60h136a60 60 0 0 0 60-60V60a60 60 0 0 0-60-60"/><path fill="#1B1E2E" d="M101.86 109.68c6.98 0 12.65 3.73 15.55 10.21l.22.51 11.7-3.98-.23-.6c-4.53-11.07-14.97-17.94-27.24-17.94-8.63 0-15.65 2.77-21.44 8.47-5.77 5.66-8.67 12.78-8.67 21.15 0 8.32 2.92 15.4 8.67 21.04 5.8 5.7 12.8 8.47 21.44 8.47 12.27 0 22.7-6.88 27.24-17.93l.24-.6-11.73-3.99-.2.53c-2.61 6.39-8.43 10.2-15.55 10.2-4.85 0-8.96-1.7-12.2-5.05-3.28-3.39-4.94-7.66-4.94-12.67 0-5.04 1.62-9.23 4.95-12.78a16.4 16.4 0 0 1 12.19-5.04"/><path fill="url(#b)" d="m152.67 210.09-3.49-11.53a73.9 73.9 0 0 0 52.63-71.06c0-9.08-1.62-17.97-4.82-26.38l11.23-4.27a86 86 0 0 1 5.62 30.67 85.9 85.9 0 0 1-61.17 82.57"/><path fill="#69D3A7" d="M198.55 105.73a73.9 73.9 0 0 0-71.05-52.51c-4.47 0-8.94.4-13.3 1.18l-2.13-11.85a87 87 0 0 1 15.43-1.38 85.85 85.85 0 0 1 82.54 61.01z"/><path fill="url(#c)" d="M46.7 157.94a86 86 0 0 1-5.52-30.44 85.97 85.97 0 0 1 77.74-85.9l1.18 11.98a74 74 0 0 0-66.9 73.92c0 9.01 1.6 17.84 4.74 26.2z"/><path fill="#1B1E2E" d="m175.15 98.98-16.67 42.3-16.79-42.3h-13.74l23.56 57.74-17.16 41.68 12.01 2.4 41.76-101.82z"/><path fill="url(#d)" d="m136.51 193.16-2.52 6.13a3.9 3.9 0 0 1-3.4 2.42q-1.54.06-3.1.07c-33 0-62.36-22.11-71.43-53.78l-11.55 3.3c10.54 36.8 44.65 62.5 82.95 62.52h.02q1.8 0 3.6-.08a16 16 0 0 0 14.03-9.86l3.41-8.32z"/></g><defs><linearGradient id="b" x1="220.45" x2="143.3" y1="128.05" y2="177.91" gradientUnits="userSpaceOnUse"><stop offset=".08" stop-color="#69D3A7"/><stop offset="1" stop-color="#69D3A7" stop-opacity="0"/></linearGradient><linearGradient id="c" x1="98.77" x2="50.21" y1="42.26" y2="145.06" gradientUnits="userSpaceOnUse"><stop stop-color="#69D3A7"/><stop offset=".82" stop-color="#2AB586"/><stop offset="1" stop-color="#1CAE7F"/></linearGradient><linearGradient id="d" x1="41.06" x2="168.06" y1="167.03" y2="206.82" gradientUnits="userSpaceOnUse"><stop offset=".08" stop-color="#1CAE7F"/><stop offset=".16" stop-color="#1CA379"/><stop offset=".32" stop-color="#1C8568"/><stop offset=".52" stop-color="#1B554D"/><stop offset=".72" stop-color="#1B1E2E"/></linearGradient><clipPath id="a"><path fill="#fff" d="M0 0h256v256H0z"/></clipPath></defs></svg>