<svg xmlns="http://www.w3.org/2000/svg" width="256" height="256" fill="none" viewBox="0 0 256 256"><rect width="256" height="256" fill="#F4F4ED" rx="60"/><path fill="#F9A03C" d="M136.75 127.66C136.75 85.87 102.8 52 60.9 52H48v33.26h12.92a42.45 42.45 0 0 1 42.5 42.4 42.45 42.45 0 0 1-42.5 42.4H48v33.25h12.92c41.87 0 75.83-33.87 75.83-75.65M208 98.15A46.2 46.2 0 0 0 161.75 52H108.4a89.3 89.3 0 0 1 31.24 33.26h22.1c7.12 0 12.92 5.77 12.92 12.89 0 7.11-5.8 12.88-12.92 12.88h-12.92a89 89 0 0 1 0 33.26h12.92c7.12 0 12.92 5.77 12.92 12.9a12.9 12.9 0 0 1-12.92 12.88h-22.1a89.3 89.3 0 0 1-31.24 33.25h53.34a46.3 46.3 0 0 0 29.58-10.67 46.1 46.1 0 0 0 5.97-64.98A46 46 0 0 0 208 98.15"/></svg>