<svg xmlns="http://www.w3.org/2000/svg" width="256" height="256" fill="none" viewBox="0 0 256 256"><rect width="256" height="256" fill="#242938" rx="60"/><path fill="#00C4B3" d="M87.45 87 75.8 75.36l.05 84.1.14 3.93c.05 1.86.4 3.94.97 6.1L169.15 202l23.06-10.2.02-.04z"/><path fill="#22D3C5" d="m76.97 169.5-.03-.12zm115.22 22.3L169.12 202l-92.16-32.5c1.76 6.75 5.66 14.35 9.85 18.5l30.06 29.92 66.9.08 8.39-26.2z"/><path fill="#0075C9" d="M76.13 75.36 40.29 129.5c-2.98 3.18-1.5 9.74 3.3 14.57l20.68 20.86 13 4.58a28 28 0 0 1-.96-6.1l-.14-3.93z"/><path fill="#0075C9" d="M169.9 76.45a28 28 0 0 0-6.1-.95l-4.16-.15-83.83.02 116.42 116.4 10.22-23.07-32.54-92.25"/><path fill="#00A8E1" d="m169.8 76.43.1.03v-.02zm18.6 9.9c-4.23-4.27-11.72-8.16-18.5-9.87l32.55 92.24-10.24 23.06 24.98-7.98.06-68.5z"/><path fill="#00C4B3" d="m165.34 63.52-20.8-20.7c-4.86-4.77-11.42-6.26-14.57-3.29L75.85 75.36l83.82-.02 4.16.15c1.87.06 3.95.4 6.11.95z"/></svg>