<svg xmlns="http://www.w3.org/2000/svg" width="256" height="256" fill="none" viewBox="0 0 256 256">
  <rect width="256" height="256" fill="#F5F0FA" rx="60"/>
  <g transform="translate(128,128) scale(0.7)">
    <!-- Datadog dog logo simplified -->
    <path fill="#632CA6" d="M-60,-80 C-80,-60 -85,0 -70,40 C-55,80 -20,100 20,95 C60,90 90,50 95,0 C100,-50 80,-90 40,-95 C0,-100 -40,-100 -60,-80 Z"/>
    <ellipse cx="-25" cy="-30" rx="12" ry="15" fill="#fff"/>
    <ellipse cx="25" cy="-25" rx="10" ry="12" fill="#fff"/>
    <circle cx="-25" cy="-28" r="6" fill="#632CA6"/>
    <circle cx="25" cy="-23" r="5" fill="#632CA6"/>
    <path fill="#fff" d="M-15,20 Q0,45 15,20 Q0,35 -15,20"/>
    <ellipse cx="50" cy="-60" rx="20" ry="30" fill="#632CA6" transform="rotate(30)"/>
  </g>
</svg>
