<svg xmlns="http://www.w3.org/2000/svg" width="256" height="256" fill="none" viewBox="0 0 256 256"><g clip-path="url(#a)"><path fill="#F4F2ED" d="M196 0H60A60 60 0 0 0 0 60v136a60 60 0 0 0 60 60h136a60 60 0 0 0 60-60V60a60 60 0 0 0-60-60"/><g clip-path="url(#b)"><path fill="#D70751" d="M215 127.5a87.5 87.5 0 1 1-175 0 87.5 87.5 0 0 1 175 0"/><path fill="#fff" d="M163.86 119.01c.12 3.18-.93 4.73-1.87 7.46l-1.7.85c-1.4 2.7.13 1.72-.87 3.87-2.17 1.93-6.59 6.04-8 6.42-1.04-.03.7-1.22.92-1.69-2.9 2-2.33 3-6.78 4.21l-.13-.29c-10.97 5.17-26.21-5.06-26.01-19.02-.12.89-.34.67-.58 1.02-.57-7.18 3.32-14.39 9.87-17.34 6.4-3.17 13.9-1.87 18.5 2.41-2.53-3.3-7.54-6.8-13.48-6.47-5.83.09-11.27 3.79-13.1 7.8-2.97 1.88-3.32 7.25-4.62 8.23-1.75 12.85 3.29 18.4 11.81 24.94 1.34.9.38 1.04.56 1.73a23 23 0 0 1-7.56-5.78 20 20 0 0 0 3.94 4.53c-2.68-.9-6.25-6.47-7.28-6.7 4.6 8.24 18.67 14.46 26.04 11.37-3.41.13-7.74.07-11.57-1.34-1.62-.83-3.8-2.55-3.41-2.87 10.06 3.76 20.44 2.85 29.14-4.13 2.22-1.72 4.64-4.66 5.34-4.7-1.06 1.59.18.77-.63 2.16 2.2-3.55-.96-1.44 2.28-6.14l1.2 1.65c-.46-2.96 3.66-6.54 3.24-11.21.94-1.43 1.05 1.53.05 4.82 1.4-3.64.37-4.23.72-7.24.39 1.01.9 2.09 1.16 3.16-.9-3.53.92-5.94 1.38-7.98-.45-.2-1.4 1.55-1.62-2.6.04-1.81.5-.95.69-1.4-.36-.2-1.29-1.59-1.85-4.24.4-.63 1.1 1.61 1.65 1.7-.36-2.1-.97-3.72-1-5.34-1.63-3.4-.58.46-1.9-1.46-1.74-5.42 1.44-1.26 1.66-3.72 2.63 3.81 4.13 9.73 4.82 12.17a50 50 0 0 0-2.42-8.67c.8.33-1.29-6.15 1.05-1.85-2.5-9.15-10.64-17.7-18.14-21.7.91.83 2.07 1.89 1.66 2.05-3.74-2.22-3.08-2.4-3.62-3.33-3.03-1.24-3.23.1-5.24 0-5.73-3.04-6.84-2.72-12.1-4.62l.23 1.13c-3.8-1.27-4.42.47-8.52 0-.25-.2 1.32-.7 2.6-.9-3.67.5-3.5-.72-7.08.14.88-.62 1.82-1.03 2.76-1.56-3 .18-7.14 1.74-5.86.32-4.88 2.18-13.55 5.24-18.41 9.8l-.16-1.02c-2.22 2.67-9.71 7.98-10.31 11.45l-.6.14c-1.15 1.96-1.9 4.19-2.83 6.2-1.51 2.6-2.22 1-2 1.4-2.99 6.06-4.47 11.14-5.75 15.3.91 1.37.02 8.22.37 13.7-1.5 27.05 18.99 53.32 41.38 59.38 3.28 1.18 8.16 1.13 12.31 1.25-4.9-1.4-5.53-.74-10.3-2.4-3.44-1.63-4.2-3.48-6.64-5.6l.97 1.71c-4.78-1.7-2.78-2.1-6.67-3.32l1.03-1.35c-1.55-.12-4.1-2.6-4.8-4l-1.7.07c-2.03-2.5-3.12-4.32-3.04-5.72l-.55.97c-.62-1.06-7.5-9.42-3.93-7.48-.66-.6-1.54-.98-2.5-2.72l.73-.83c-1.71-2.2-3.16-5.04-3.05-5.98.92 1.24 1.55 1.47 2.18 1.68-4.33-10.75-4.58-.6-7.86-10.95l.7-.05c-.53-.8-.86-1.67-1.29-2.53l.3-3c-3.11-3.61-.87-15.34-.41-21.78.3-2.61 2.6-5.4 4.34-9.77l-1.06-.18c2.03-3.54 11.6-14.22 16.02-13.67 2.15-2.7-.42-.01-.84-.7 4.71-4.87 6.2-3.44 9.37-4.31 3.43-2.04-2.94.8-1.32-.78 5.94-1.51 4.2-3.44 11.94-4.21.82.46-1.9.72-2.57 1.32 4.94-2.42 15.63-1.87 22.58 1.34 8.06 3.77 17.11 14.9 17.47 25.37l.4.11c-.2 4.17.64 8.98-.82 13.4z"/></g></g><defs><clipPath id="a"><path fill="#fff" d="M0 0h256v256H0z"/></clipPath><clipPath id="b"><path fill="#fff" d="M40 40h175v175H40z"/></clipPath></defs></svg>