<svg xmlns="http://www.w3.org/2000/svg" width="256" height="256" fill="none" viewBox="0 0 256 256"><rect width="256" height="256" fill="#242938" rx="60"/><path fill="#fff" d="M118.03 26.66c-.48.04-2 .22-3.37.35-19.56 2.04-38.82 10.33-54.52 23.47a135 135 0 0 0-11.9 11.91c-13 15.53-20.6 32.96-23.41 53.59-.63 4.58-.63 20.03 0 24.6 2.8 20.63 10.4 38.06 23.4 53.6 2.41 2.9 9.01 9.5 11.91 11.9 15.53 13 32.96 20.6 53.59 23.4 4.58.63 20.03.63 24.6 0 20.63-2.8 38.06-10.4 53.6-23.4a135 135 0 0 0 11.9-11.9c13-15.54 20.6-32.97 23.4-53.6.63-4.57.63-20.03 0-24.6-2.8-20.63-10.4-38.06-23.4-53.59a135 135 0 0 0-11.9-11.9c-15.48-12.96-33.1-20.65-53.45-23.38-2.2-.3-5.4-.43-11.32-.48a223 223 0 0 0-9.13.03m1.25 10.8c0 2.92.2 9.27.48 15.3.15 2.95.32 7.18.4 9.38.27 7.8 1.1 28.28 1.22 30.11l.13 1.82-1.13-.12c-.62-.05-1.2-.2-1.3-.28-.07-.1-.25-1.83-.35-3.85-.45-8.9-1.92-43.44-2.07-48.48l-.16-5.56.7-.1c.38-.05 1-.12 1.4-.15l.68-.02zm23.93-.6c.02.02.1 7.58.17 16.78.1 9.23.23 17.5.3 18.4.08.93.05 1.73-.07 1.78a4 4 0 0 1-1.35 0l-1.15-.1-.17-7.28q-.12-4.97-.28-9.92c-.2-4.43-.38-19.46-.22-19.83.1-.28.37-.3 1.42-.13.73.15 1.33.28 1.35.3m-57.84 8.37c.15.23 1.33 14.01 2.78 32.04a971 971 0 0 0 1.02 12.43c.13 1.27.1 1.32-.7 1.82-.45.28-.9.5-1 .5-.07 0-.22-.65-.3-1.45-.35-3.25-1.7-18.95-2.65-30.3-.55-6.68-1.05-12.66-1.12-13.31-.13-1.1-.1-1.2.55-1.55q1.18-.65 1.42-.18m68.84 5.04c.7.25.77.37.93 1.8.25 2.5.17 14.45-.1 14.45-.73 0-2.23-.86-2.35-1.33-.08-.3-.15-3.85-.15-7.88 0-8.12-.1-7.65 1.67-7.04m-46.19 1.17c0 .67.18 4.4.38 8.33s.43 8.9.53 11.05c.17 4.35.22 4.2-1.45 4.3-.83.02-.83.02-.88-1.23-.05-.7-.17-2.87-.33-4.87-.12-2-.42-6.33-.62-9.63q-.2-3.65-.52-7.28c-.15-1.25-.13-1.3.54-1.55.4-.15 1.1-.27 1.56-.27.8-.02.8-.02.8 1.15m69.37 3.43.85.34.18 3.35c.07 1.83.13 5.78.07 8.76l-.07 5.45-1.05-.53-1.05-.5-.08-8.3c-.04-4.57-.02-8.45.03-8.63.1-.37.1-.37 1.12.06m-45.66 3.27c.15.15.5 12.27.53 18.43l.02 3.7-1.17-.18c-.68-.08-1.23-.14-1.25-.17-.08-.05-.83-18.58-.83-20.38v-1.85l1.27.15c.73.1 1.36.22 1.43.3m57.59 1.77c.3.36.35 5.83.43 36.04.07 34.68.07 35.58-.38 35.58a1.6 1.6 0 0 1-.88-.33c-.37-.27-.42-3.3-.54-32.93-.1-17.95-.23-34.26-.3-36.23l-.16-3.6.73.52c.43.3.9.73 1.1.95m-22.43 5.13c.13.1.25 1.52.27 3.16.13 5.52.15 39.4.03 39.5-.05.05-.5-.08-1-.27l-.9-.38V64.51l.7.15c.38.1.78.25.9.38m-69.01 1.4c.07.68.19 2.2.27 3.45l.4 6.2c.3 4.4.25 4.68-1.18 4.68-.74 0-.85-.08-.95-.82a235 235 0 0 1-1-13.98 6 6 0 0 1 2.03-.68c.15-.02.35.5.43 1.15m-41.36 6.38 1.22 12.33c.42 4.12.78 7.62.78 7.77 0 .3-1.93 1.25-2.13 1.06a824 824 0 0 1-2.62-23.26c0-.6 1.92-3.13 2.17-2.85.08.04.33 2.27.58 4.95m98.04 2.63.73.42.02 5.4c.03 2.95.08 6.25.08 7.32.05 2.25-.23 2.63-1.58 2.16l-.77-.28v-2.15c0-1.2-.08-4.67-.18-7.75l-.15-5.55h.58c.3 0 .87.2 1.27.43m-87.07 9.7c.46 4.8 1.17 12.9 1.65 18l.85 9.26-.97.96-.95.98-.18-1.98c-.1-1.1-.6-6.19-1.12-11.35q-.86-8.3-1.65-16.6l-.7-7.2.97-.9c.88-.83.98-.85 1.15-.4.1.25.52 4.4.95 9.23m-18.72 3.02c.54 4.93 2 18.03 3.25 29.11s2.42 21.75 2.64 23.75c.2 2 .55 5.03.75 6.76.36 2.92.36 3.12-.04 3.42-.6.45-.85.4-.85-.12 0-.23-.23-2.13-.5-4.18-.46-3.43-1.2-9.23-2.88-22.25q-.78-5.81-1.5-11.63l-1.63-12.5-1.5-11.83a61 61 0 0 1-.65-6.75c.18-.68 1.65-3.03 1.8-2.88.05.07.55 4.15 1.1 9.1M41.1 98.95c.37 3 1.08 8.48 1.55 12.2.47 3.7 1.07 8.33 1.35 10.26l.47 3.5-.52.45c-.3.25-.6.34-.7.25s-.3-1.1-.45-2.2q-1.01-7.14-2.08-14.26L38.96 96.9l.57-1.7c.3-.93.63-1.68.7-1.68.1 0 .48 2.46.88 5.42m137.28-3.28c.35.35.4 1.9.4 13.38v12.98h-.7c-1.52 0-1.5.38-1.6-13.83l-.07-12.93h.8c.42 0 .98.18 1.17.4m-54.73 4.48a49 49 0 0 1 15.45 4.93c3.15 1.62 4.65 2.75 8.15 6.1 5.2 4.98 8.4 9.33 11.4 15.48 4.38 8.95 6.08 16.87 8.23 38.13a738 738 0 0 1 2.52 33.88c.08 2.06.25 5.43.41 7.5.27 4.4.6 3.8-3.28 5.68a84 84 0 0 1-17.38 6.08 83 83 0 0 1-22 2.73l-6 .02.04-2.88c0-1.57.15-5.25.3-8.12.76-13.93.6-31.5-.37-41.27-.55-5.6-1.62-12.4-2.22-13.9-.13-.32.44-.6 2.92-1.45 4.53-1.58 8.45-3.55 9.05-4.52 1.08-1.85-.85-4.5-3.3-4.5-.42 0-1.7.44-2.88.97-5.6 2.58-16.82 5.6-23.3 6.28a66 66 0 0 1-16.25-.68c-2.63-.48-7.33-2.25-11.26-4.27-4.52-2.36-7.3-5.48-8.12-9.18-.46-2-.33-6 .25-8.25a27 27 0 0 1 3.97-8.18c7.13-9.38 21.83-17.5 36.9-20.35 4.81-.9 11.61-1 16.77-.23m77.14.77c.9.38 1 .48 1 1.33.05 6.83-.1 22.43-.23 23.08-.02.22-1.32.25-1.87.05-.35-.12-.4-1.47-.4-12.5 0-7.9.1-12.36.25-12.36.12 0 .7.18 1.25.4m10.93 13.74.9.37-.18 20.7c-.2 26.39-.22 27.16-1.18 29.43-1.54 3.73-1.47 4.48-1.32-11.87.05-8.18.17-16.45.23-18.38s.1-7.36.12-12.08q-.01-8.55.25-8.55c.15 0 .68.17 1.18.38m-150.39 6.22c.15 2.03.1 2.22-.63 3.82l-.8 1.7-.3-2.5c-.47-4-.47-4.17.48-4.77.43-.3.88-.5.95-.45a9 9 0 0 1 .3 2.2m-15.46 15.08c.23 2.05 1.98 15.65 2.88 22.33 1.35 10.33 1.45 11.8.85 11.18-.07-.08-.65-3.56-1.25-7.73-3.9-26.96-3.88-26.78-3.55-26.98.67-.46.9-.2 1.07 1.2m18.01 11.45c.15.63.88 7.4.88 8.23 0 .7-.9 1.35-1.3.95-.13-.13-.45-2.25-.7-4.7l-.63-5.73-.15-1.25.88 1c.5.55.94 1.22 1.02 1.5m20.18 9.43c.27.25.45 1.25.67 3.95.38 4.87.43 4.5-.6 4.5-1.05 0-1.02.08-1.37-4.33-.35-4.48-.35-4.42.32-4.42.33 0 .75.15.98.3m19.8.37c.05.25.18 1.75.28 3.33.08 1.58.3 5.12.5 7.87.7 10.1.73 11.39.3 11.39-.47 0-.53-.38-1.08-7.51q-.36-5.17-.82-10.33c-.22-2.72-.38-5-.3-5.05.27-.3 1-.07 1.13.3m-47 4.8c.15.23 1.09 8.23 2.27 19.16l.77 7.07.13 1.08-.63-.4c-.47-.33-.64-.65-.64-1.22 0-1.58-1.08-11.96-1.9-18.31-.48-3.6-.85-6.77-.85-7.08 0-.52.6-.72.85-.3m144.3 10.46-.17 10.45-.63.92c-1.42 2.1-1.35 2.5-1.27-9.2l.05-10.73.92-.95c.5-.5 1-.92 1.1-.92.08 0 .08 4.7 0 10.43m-23.12 16.58c.12 14.53.09 15.65-.3 16.1-.26.27-.48.45-.55.37-.18-.2-.43-31.88-.23-32.05.1-.1.35-.15.58-.13.32.07.4 1.86.5 15.7m-81.67-9.96c.17 1.55.8 8.98 1.04 12.48.15 2.35.15 2.43-.4 2.6-.3.1-.65.08-.75-.04-.17-.18-.72-5.73-1.4-14.29l-.18-2.04h.79c.72 0 .77.04.9 1.3m-19.66 8.75c.17.18.3.8.3 1.43 0 .65.3 4.03.62 7.53.95 9.58 1.03 10.87.6 10.62-.65-.37-1.22-.94-1.1-1.1.06-.1-.05-1.34-.25-2.77q-.3-2.62-.5-5.25c-.1-1.45-.32-4.1-.52-5.88-.48-4.37-.45-4.87.1-4.87q.43 0 .75.3m11.83 16.83c.08.56.22 2.6.32 4.56.18 3.75.1 4.02-.92 3.25-.3-.23-.5-1.18-.8-4.03-.52-5.15-.56-4.95.42-4.85.73.07.83.17.98 1.07"/><path fill="#fff" d="M79.62 112.13c-2.6 1.12-2.8 4.65-.35 5.9 1.78.9 3.57.47 4.5-1.08a3.32 3.32 0 0 0-4.15-4.82m16.95 2.4a3.83 3.83 0 0 0 0 6.5c2.38 1.42 5.45-.45 5.45-3.3 0-2.75-3.15-4.6-5.45-3.2"/></svg>