<svg xmlns="http://www.w3.org/2000/svg" width="256" height="256" fill="none" viewBox="0 0 256 256"><rect width="256" height="256" fill="#000" rx="60"/><path fill="#fff" fill-rule="evenodd" d="M87.37 147.22c0 10.22-6.29 25.7-26.21 25.67H36V83h25.69c19.21 0 25.67 15.46 25.68 25.69zm-24.79-47.4q3.15 0 6.32 2.36 3.15 2.37 3.16 7.1v37.83q0 4.73-3.16 7.1-3.15 2.36-6.31 2.36h-9.46V99.82z" clip-rule="evenodd"/><path fill="#fff" d="M141.96 99.05h-28.89v20.87h17.66V136h-17.66v20.86h28.9v16.07h-33.72a10.96 10.96 0 0 1-11.23-10.7V94.26a10.97 10.97 0 0 1 10.69-11.24h34.26zm56.19 62.63c-7.16 16.7-19.98 13.38-25.72 0l-20.9-78.66h17.67l16.1 61.78 16.04-61.78H219z"/></svg>