<svg xmlns="http://www.w3.org/2000/svg" width="256" height="256" fill="none" viewBox="0 0 256 256"><rect width="256" height="256" fill="#5865F2" rx="60"/><g clip-path="url(#a)"><path fill="#fff" d="M197.3 64.8a165 165 0 0 0-40.7-12.63.6.6 0 0 0-.66.31c-1.75 3.13-3.7 7.2-5.06 10.41a152 152 0 0 0-45.73 0A105 105 0 0 0 100 52.48a.6.6 0 0 0-.65-.31 165 165 0 0 0-40.7 12.63.6.6 0 0 0-.28.23c-25.93 38.73-33.03 76.52-29.54 113.83q.03.3.26.47a166 166 0 0 0 49.94 25.25c.26.07.53-.02.7-.23q5.8-7.89 10.22-16.62a.63.63 0 0 0-.35-.88A109 109 0 0 1 74 179.4a.64.64 0 0 1-.07-1.06q1.59-1.19 3.1-2.43a.6.6 0 0 1 .65-.09c32.73 14.94 68.17 14.94 100.51 0 .21-.1.47-.07.66.08q1.51 1.25 3.1 2.44c.36.27.34.83-.05 1.06a103 103 0 0 1-15.61 7.43.64.64 0 0 0-.34.89c3 5.81 6.43 11.35 10.2 16.6.16.23.45.32.7.25a165 165 0 0 0 50.03-25.25.7.7 0 0 0 .26-.46c4.17-43.14-6.99-80.61-29.57-113.84a.5.5 0 0 0-.26-.23M94.84 156.14c-9.85 0-17.97-9.04-17.97-20.16 0-11.1 7.96-20.15 17.97-20.15 10.1 0 18.14 9.12 17.98 20.15 0 11.12-7.97 20.16-17.98 20.16m66.46 0c-9.85 0-17.97-9.04-17.97-20.16 0-11.1 7.96-20.15 17.97-20.15 10.09 0 18.13 9.12 17.97 20.15 0 11.12-7.88 20.16-17.97 20.16"/></g><defs><clipPath id="a"><path fill="#fff" d="M28 51h200v154.93H28z"/></clipPath></defs></svg>