<svg xmlns="http://www.w3.org/2000/svg" width="256" height="256" fill="none" viewBox="0 0 256 256"><g clip-path="url(#a)"><path fill="#242938" d="M196 0H60A60 60 0 0 0 0 60v136a60 60 0 0 0 60 60h136a60 60 0 0 0 60-60V60a60 60 0 0 0-60-60"/><g clip-path="url(#b)"><path fill="#B75CFF" d="M87.13 157.69a58 58 0 0 1-4.69 1.8c-3.18 1-5.73 1.4-8.34 1.8 3.14 10.08 15.45 19.97 29.8 19.04 13.53 0 22.9-6.67 27.88-16.35-14.13-.2-34.72 5.69-44.65-6.3m129.15 1.66c-4.94.59-8.47-.4-16.57 2.2-19.6 8.06-39 1.22-45.18-.12-2.03-.21-2.96-3.18-7.12 1.73l-2.03 2.4a52 52 0 0 0 36.31 14.83c18.31 0 30.7-8.84 34.8-20.85z"/><path fill="#5C6CFF" d="M217.32 143.62c-10.77-7.48-12.92-2.07-18.32 3.76q.76 1.9.77 4.42c0 7.88-6.34 12.98-17.61 12.98-9.43 0-19.16-4.64-26.42-11.44l-8.33 9.82c11.27.5 22.69 3.42 34.1 2.97 12.49-.5 28.99-4.45 34.77-6.78l.22.19c1-2.94 1.5-6.03 1.5-9.13q-.01-3.68-.68-6.8m-81.32.16c-6.1-4.65-11.95-3.07-17.56 3.5v1.13a16.1 16.1 0 0 1-23.86 14.12 16 16 0 0 1-5.84-5.54l-1.6.7c4.2 5.3 9.36 8.03 19.6 8.44 8.35.33 16.7-1.13 25.05-2.15a40 40 0 0 0 4.2-18.4z"/><path fill="#5CFF9D" d="M136 124.68c-5.7-5.02-11.5-6.03-17.56 1.62v20.99c5.88-1.37 11.73-2.76 17.56-3.5zm67.94 1.52c-8.77-3.83-35 0-39.65 1.76a47 47 0 0 0 5.97 2.98l13.75 6.02c7.4 3.08 13.02 5.38 14.99 10.42 5.68-.82 10.57-1.95 13.83-2.7l4.48-1.06c-1.72-8.03-6.59-13.43-13.37-17.42"/><path fill="#FFDB5C" d="M149.89 105.33c.46 11.14 6.91 18.19 14.44 22.65 5.74 1.13 11.48 2.11 17.23 2.11 8.01 0 16.02-1.9 22.38-3.88a54 54 0 0 0-6.33-3.15l-13.6-5.72c-6.72-2.74-13.03-5.18-15.24-10.13-13.54-6.88-4.46-11.22-18.88-1.88m-13.9 1.35c-5.14-3.55-10.96-2.49-17.55 3.22v16.41c5.86-.58 11.7-1.36 17.56-1.63z"/><path fill="#F79454" d="M155.94 87.33a26 26 0 0 0-6.05 18c6.27-.06 12.57.63 18.88 1.88a10 10 0 0 1-.83-4.09c0-7.42 6.18-11.9 15.76-11.9 8.65 0 15.6 3.25 21.94 8.65l6.73-8.29c-19.66-6.07-37.23-9.9-56.43-4.25M136 91.3c-7.25-6.37-12.82-1.67-17.56 7.21v11.39c5.86-.9 11.7-2.23 17.56-3.22z"/><path fill="#FF5C5C" d="M118.44 75.61v22.9c5.86-1.97 11.7-4.9 17.56-7.21V75.6zm65.26 0c-11.9 0-21.8 4.55-27.76 11.71 8.49.04 17.03 1.75 25.57 2.77 12.22 1.46 24.4 1.49 30.85 1.49l2.55-3.14A44.7 44.7 0 0 0 183.7 75.6"/><path fill="#5865F2" d="M38 75.61v77.35h29.28c7.68 0 13.56-1.22 19.01-3.97v-.58a16.1 16.1 0 0 1 16.86-16.1c2.79-5.67 3.91-11.3 3.91-18.69 0-7.62-1.44-14.25-4.3-20A32 32 0 0 0 89.7 80.36c-5.74-3.2-12.7-4.75-21-4.75zM56.56 92.2h11.16c6.52 0 11.5 1.88 14.81 5.74s4.97 9.17 4.97 16.02c0 6.97-1.77 12.38-5.2 16.36-3.42 4.09-8.5 6.07-15.24 6.07h-10.5zm45.85 46.07a10.16 10.16 0 1 0 0 20.31 10.17 10.17 0 0 0 0-20.31"/></g></g><defs><clipPath id="a"><path fill="#fff" d="M0 0h256v256H0z"/></clipPath><clipPath id="b"><path fill="#fff" d="M38 38h180v180H38z"/></clipPath></defs></svg>