<svg xmlns="http://www.w3.org/2000/svg" width="256" height="256" fill="none" viewBox="0 0 256 256"><rect width="256" height="256" fill="#5865F2" rx="60"/><path fill="#98A0F7" fill-rule="evenodd" d="M149.54 226.54c29.09-.02 58.21.15 87.34 0l8.22-45.2H10l9.3 45.2c43.41-.28 86.85.03 130.24 0" clip-rule="evenodd"/><path fill="#98A0F7" fill-rule="evenodd" d="M215.72 183.07H39.39v-59.14C39.39 72.05 78.86 30 127.55 30c48.7 0 88.17 42.05 88.17 93.93z" clip-rule="evenodd"/><path fill="#fff" fill-rule="evenodd" d="M220.88 151.22V65.41zm-186.12 0V65.41Z" clip-rule="evenodd"/><path stroke="#202225" stroke-linecap="round" stroke-linejoin="round" stroke-width="3.37" d="M34.76 151.22V65.41m186.12 85.81V65.41z"/><path fill="#fff" fill-rule="evenodd" d="M225.78 118.17H29.86c-3.6 0-6.53 10.13-6.53 22.61 0 12.5 2.92 22.62 6.53 22.62h195.92c3.6 0 6.53-10.12 6.53-22.62 0-12.48-2.92-22.6-6.53-22.6" clip-rule="evenodd"/><path fill="#fff" fill-rule="evenodd" d="M145.73 111.75c-8.78 13.1-27.04 13.1-35.82 0-4.13-6.16-10.8-9.81-17.9-9.81H72.24c-8.08 0-14.63 6.98-14.63 15.6v55.71h140.4v-55.71c0-8.62-6.55-15.6-14.63-15.6h-19.75a21.6 21.6 0 0 0-17.91 9.81" clip-rule="evenodd"/><path fill="#fff" fill-rule="evenodd" d="M137.62 97.45c0-5.77-4.39-10.44-9.8-10.44s-9.8 4.67-9.8 10.44 4.39 10.43 9.8 10.43 9.8-4.67 9.8-10.43" clip-rule="evenodd"/><path fill="#000" fill-rule="evenodd" d="M96.8 140.2c0-6.72-5.12-12.17-11.43-12.17s-11.43 5.45-11.43 12.18 5.12 12.17 11.43 12.17 11.43-5.45 11.43-12.17m84.9 0c0-6.72-5.12-12.17-11.43-12.17s-11.43 5.45-11.43 12.18 5.12 12.17 11.43 12.17 11.43-5.45 11.43-12.17" clip-rule="evenodd"/><path fill="#fff" fill-rule="evenodd" d="M202.92 209.55c0-2.88-2.19-5.22-4.9-5.22-2.7 0-4.9 2.34-4.9 5.22s2.2 5.22 4.9 5.22 4.9-2.34 4.9-5.22m-16.32 0c0-2.88-2.2-5.22-4.9-5.22s-4.9 2.34-4.9 5.22 2.2 5.22 4.9 5.22 4.9-2.34 4.9-5.22m-16.33 0c0-2.88-2.2-5.22-4.9-5.22s-4.9 2.34-4.9 5.22 2.2 5.22 4.9 5.22 4.9-2.34 4.9-5.22" clip-rule="evenodd"/></svg>