<svg xmlns="http://www.w3.org/2000/svg" width="256" height="256" fill="none" viewBox="0 0 256 256"><rect width="256" height="256" fill="#092E20" rx="60"/><path fill="#fff" d="M112.69 51h28.61v132.45c-14.68 2.79-25.45 3.9-37.16 3.9-34.93 0-53.14-15.8-53.14-46.08 0-29.17 19.33-48.12 49.24-48.12 4.65 0 8.18.37 12.45 1.48zm0 66.67a28 28 0 0 0-9.66-1.48c-14.5 0-22.86 8.92-22.86 24.52 0 15.24 8 23.6 22.67 23.6 3.16 0 5.76-.19 9.85-.74z"/><path fill="#fff" d="M186.83 95.19v66.33c0 22.86-1.68 33.82-6.7 43.3-4.64 9.1-10.77 14.86-23.4 21.18l-26.58-12.64c12.64-5.94 18.77-11.14 22.67-19.14 4.09-8.17 5.4-17.65 5.4-42.54v-56.5zM158.2 51.15h28.62v29.36H158.2z"/></svg>