<svg xmlns="http://www.w3.org/2000/svg" width="256" height="256" fill="none" viewBox="0 0 256 256"><rect width="256" height="256" fill="#2396ED" rx="60"/><path fill="#fff" d="M141.19 122.12h20.71v-18.74h-20.7zm-24.66 0h20.71v-18.74h-20.72zm-24.17 0h20.71v-18.74H92.36zm-24.17 0H88.4v-18.74H68.19zm-24.67 0h20.72v-18.74H43.52zM68.2 99.43h20.2V80.7H68.19zm24.17 0h20.71V80.7H92.36zm24.17 0h20.71V80.7h-20.72zm0-22.69h20.71V58h-20.72zm111.47 37s-8.88-8.39-27.13-5.43c-1.97-14.3-17.26-22.69-17.26-22.69s-14.3 17.27-3.95 36.5a33 33 0 0 1-15.29 3.46H28.73c-2.47 9.37-2.47 71.52 65.6 71.52 48.83 0 85.33-22.7 102.6-64.13 25.64 1.98 31.07-19.23 31.07-19.23"/></svg>