<svg xmlns="http://www.w3.org/2000/svg" width="256" height="256" fill="none" viewBox="0 0 256 256"><rect width="256" height="256" fill="#512BD4" rx="60"/><path fill="#fff" d="M24.05 168.94a8 8 0 0 1-5.7-2.2A7.2 7.2 0 0 1 16 161.4q0-3.15 2.35-5.4a8 8 0 0 1 5.7-2.25q3.42 0 5.76 2.25 2.4 2.25 2.4 5.4 0 3.1-2.4 5.35a8 8 0 0 1-5.76 2.2m89.42-1.25H98.93l-38.3-59.31a26 26 0 0 1-2.41-4.67h-.34q.45 2.59.45 11.08v52.9H45.47V87h15.49l37.02 57.91a61 61 0 0 1 3.02 4.96h.22q-.56-3.2-.56-10.87V87h12.8zm62.63 0h-45.02V87h43.23v11.37h-29.92v22.85h27.57v11.31H144.4v23.86h31.7zm63.97-69.33h-23.04v69.34h-13.3V98.37h-22.99V87h59.33z"/></svg>