<svg xmlns="http://www.w3.org/2000/svg" width="256" height="256" fill="none" viewBox="0 0 256 256"><rect width="256" height="256" fill="#F4F2ED" rx="60"/><path fill="#5294CF" d="M154.2 229.85h2.46l40.27-20.13.66-.95V48.07l-.66-.95L156.66 27h-2.5z"/><path fill="#1F5B98" d="M101.8 229.85h-2.5l-40.23-20.13-.81-1.4-.42-159.43 1.23-1.77L99.3 27h2.53z"/><path fill="#2D72B8" d="M99.37 27h57.26v202.85H99.37z"/><path fill="#1A476F" d="m218 123.87-1.36-.3-19.43-1.81-.28.14-40.3-1.61H99.37l-40.3 1.6V91.18l-.04.02.04-.09 40.3-9.34h57.26l40.3 9.34 14.8 7.88V93.9l6.27-.68-.65-1.27-19.82-14.17-.6.2-40.3-12.49H99.37l-40.3 12.49V47.12L38 71.8v21.56l.16-.12 6.1.66v5.17L38 102.43v21.46l.16-.02 6.1.09v9l-5.26.08-1-.1v21.47l6.26 3.37V163l-6 .66-.26-.2v21.57l21.07 24.69v-30.87l40.3 12.49h57.26l40.41-12.53.54.24 19.56-13.97.86-1.39-6.26-.69v-5.12l-.82-.33-13.4 7.22-.48 1.01-40.41 9.29H99.37l-40.3-9.33V134.9l40.3 1.6v.05h57.26l40.3-1.65.91.42 18.83-1.62 1.33-.65-6.26-.09v-9z"/><path fill="#2D72B8" d="M196.93 178.85v30.87l21.07-24.7v-21.41l-20.95 15.2zm0-13.04.12-.03L218 154.51v-21.55l-21.07 1.94zm.12-74.68-.12-.03v30.8l21.07 1.97v-21.54zm0-13.03L218 93.24V71.8l-21.07-24.7V78l.12.04z"/></svg>