<svg xmlns="http://www.w3.org/2000/svg" width="256" height="256" fill="none" viewBox="0 0 256 256"><rect width="256" height="256" fill="#242938" rx="60"/><path fill="#2C2255" d="M83.04 153.43H52.38q6.09 20.9 22.62 37.45 26.38 26.38 63.47 26.37 7.4-.01 14.38-1.07 27.94-4.2 48.9-25.3 16.65-16.55 22.79-37.45zm-16.91-41.65H50.11a94 94 0 0 0-1.16 10.8h179.04a93 93 0 0 0-1.18-10.8M48.95 132.6q.28 5.54 1.16 10.8h176.71q.9-5.26 1.18-10.8m-3.46-30.85q-6.13-20.94-22.78-37.62-20.91-20.9-48.77-25.1a97 97 0 0 0-14.53-1.1q-37.08 0-63.46 26.2-16.54 16.67-22.63 37.62"/><path fill="#F7941E" d="M43.62 127.6c0-47.3 35.52-86.6 81.74-93.51q-1.72-.08-3.46-.09C70.04 34 28 75.9 28 127.6s42.04 93.6 93.9 93.6q1.74-.01 3.46-.1c-46.22-6.9-81.74-46.2-81.74-93.5"/><path fill="url(#a)" d="M199.4 122.58a61 61 0 0 0-1.86-10.8H79.4a61 61 0 0 0-1.85 10.8z"/><path fill="url(#b)" d="M199.4 132.6H77.54q.45 5.57 1.85 10.8h118.16a61 61 0 0 0 1.85-10.8"/><path fill="url(#c)" d="M138.47 188.75a61.2 61.2 0 0 0 55.43-35.32H83.04a61.2 61.2 0 0 0 55.43 35.32"/><path fill="#fff" d="M68.5 132.6h159.37a92 92 0 0 0-.03-10.02H48.95a91 91 0 0 0-.03 10.03zm14.19-30.85H52.37c-1 3.27-1.64 6.62-2.26 10.03h176.14a89 89 0 0 0-2.41-10.03m-9.11 41.65H50.11c.6 3.42 1.29 6.76 2.27 10.03h172.05a89 89 0 0 0 2.36-10.03z"/><defs><linearGradient id="a" x1="138.47" x2="138.47" y1="229.42" y2="94.56" gradientUnits="userSpaceOnUse"><stop offset=".3" stop-color="#473788"/><stop offset=".87" stop-color="#2C2255"/></linearGradient><linearGradient id="b" x1="138.47" x2="138.47" y1="229.42" y2="94.56" gradientUnits="userSpaceOnUse"><stop offset=".3" stop-color="#473788"/><stop offset=".87" stop-color="#2C2255"/></linearGradient><linearGradient id="c" x1="138.47" x2="138.47" y1="229.42" y2="94.56" gradientUnits="userSpaceOnUse"><stop offset=".3" stop-color="#473788"/><stop offset=".86" stop-color="#2C2255"/></linearGradient></defs></svg>