<svg xmlns="http://www.w3.org/2000/svg" width="256" height="256" fill="none" viewBox="0 0 256 256"><rect width="256" height="256" fill="#2B2E3A" rx="60"/><path fill="#9FEAF9" d="M100.77 70.77C74.77 66.04 54.2 71 46 85.2c-6.12 10.59-4.37 24.63 4.24 39.64a2.67 2.67 0 1 0 4.62-2.65c-7.75-13.52-9.26-25.64-4.24-34.33 6.8-11.79 25.14-16.2 49.18-11.83a2.67 2.67 0 0 0 .96-5.25m-37 72.3c10.51 11.56 24.17 22.4 39.76 31.4 37.72 21.78 77.88 27.6 97.67 14.1a2.66 2.66 0 1 0-3-4.4c-17.72 12.08-55.87 6.55-92-14.32-15.12-8.73-28.35-19.22-38.49-30.36a2.67 2.67 0 1 0-3.94 3.59"/><path fill="#9FEAF9" d="M194.89 139.84c17.02-20.12 22.97-40.35 14.8-54.52-6.03-10.42-18.75-15.92-35.65-16.14a2.67 2.67 0 0 0-.07 5.33c15.2.2 26.16 4.94 31.1 13.48 6.78 11.77 1.48 29.8-14.25 48.4a2.66 2.66 0 0 0 .29 3.78 2.67 2.67 0 0 0 3.78-.33m-43.76-68.18c-15.4 3.3-31.79 9.75-47.53 18.84-38.94 22.48-64.34 55.63-60.81 79.67a2.66 2.66 0 0 0 4.01 1.93 2.7 2.7 0 0 0 1.26-2.7c-3.13-21.35 20.95-52.77 58.21-74.29 15.27-8.81 31.14-15.06 45.97-18.23a2.67 2.67 0 1 0-1.12-5.22"/><path fill="#9FEAF9" d="M88.04 186.84c8.9 24.85 23.46 40.16 39.84 40.16 11.95 0 23-8.14 31.62-22.48a2.67 2.67 0 0 0-2.93-3.99 2.7 2.7 0 0 0-1.64 1.25c-7.75 12.88-17.26 19.89-27.05 19.89-13.6 0-26.6-13.65-34.82-36.63a2.66 2.66 0 1 0-5.02 1.8m81.32-4.87c4.6-14.73 7.08-31.72 7.08-49.42 0-44.18-15.46-82.26-37.48-92.04a2.67 2.67 0 0 0-2.17 4.87c19.65 8.72 34.32 44.87 34.32 87.17 0 17.18-2.4 33.63-6.84 47.83a2.67 2.67 0 1 0 5.09 1.6m50.22-2.61a12.76 12.76 0 1 0-25.52 0 12.76 12.76 0 0 0 25.52 0m-5.33 0a7.4 7.4 0 0 1-10.27 6.86 7.44 7.44 0 1 1 10.27-6.86M48.76 192.12a12.76 12.76 0 1 0 0-25.52 12.76 12.76 0 0 0 0 25.52m0-5.33a7.43 7.43 0 1 1 0-14.86 7.43 7.43 0 0 1 0 14.86"/><path fill="#9FEAF9" d="M127.88 53.53a12.76 12.76 0 1 0 0-25.53 12.76 12.76 0 0 0 0 25.53m0-5.34a7.43 7.43 0 1 1 0-14.86 7.43 7.43 0 0 1 0 14.86m1.95 93.39a9.23 9.23 0 1 1-3.9-18.06 9.23 9.23 0 0 1 3.9 18.05"/></svg>