<svg xmlns="http://www.w3.org/2000/svg" width="256" height="256" fill="none" viewBox="0 0 256 256"><rect width="256" height="256" fill="#F4F2ED" rx="60"/><path fill="url(#a)" fill-rule="evenodd" d="M133.42 28.5q-21.8 7.73-42.08 45.1c-20.29 37.37-46.48 90.48-10.4 132.53 16.68 19.45 44.24 30.93 80.4 12.75 29.05-14.6 37.13-56.53 26.7-76.23C166.53 102.02 144.7 92 138.85 66.8q-5.84-25.2-5.43-38.3" clip-rule="evenodd"/><path fill="url(#b)" fill-rule="evenodd" d="M133.42 28q-21.9 7.8-42.08 45.1c-20.18 37.3-46.48 90.48-10.41 132.53 16.69 19.45 43.9 25.73 58.98 14.2 9.84-7.52 16.54-14.7 20.4-29.8 4.29-16.82 1-39.46-1.27-49.87q-4.28-19.73-2.8-43.34l-.78-.95c-7.86-9.62-13.92-18-16.6-29.58Q133 41.1 133.41 28" clip-rule="evenodd"/><path fill="url(#c)" fill-rule="evenodd" d="M121.33 34.54q-20.4 16.13-30.35 54.1c-9.93 37.97-11.01 72.99-7.5 93.35 6.79 39.48 42.01 54.47 78.14 36.1 22.24-11.31 31.5-35.6 31-61.94-.5-27.29-53.22-58.2-62.56-80.98q-9.34-22.77-8.73-40.63" clip-rule="evenodd"/><path fill="url(#d)" fill-rule="evenodd" d="M155.81 105.73q24.47 31.38 10.67 43.7c-13.8 12.3-47.55 20.33-68.55 5.44Q76.93 140 82.03 91a293 293 0 0 0-14.65 36.67 90 90 0 0 0-3.5 38.88q7.5 15.18 36.5 20.28c29 5.1 56.44 2.58 74.86-6.7q18.41-9.29 17.41-18.49.67-13.58-8.37-25.86-9.05-12.28-28.47-30.04" clip-rule="evenodd"/><path fill="url(#e)" fill-rule="evenodd" d="M92.06 84.84q-.2 22.66 11.66 43.1c11.86 20.42 25.7 40.6 46.41 57.33q20.72 16.74 33.11 10.81-10.17 18.22-21.64 17.85c-11.47-.36-25.44-5.37-47.84-32.29q-22.4-26.92-30.65-50.92 1.3-9.52 2.78-18.97 1.46-9.45 6.17-26.91" clip-rule="evenodd"/><path fill="url(#f)" fill-rule="evenodd" d="M127.1 105.58c1.27 12.3 6.06 32 0 45.1s-34.04 36.8-26.31 57.66c7.72 20.86 26.54 16.18 38.34 6.56 11.81-9.61 18.13-25.25 19.53-36.24s-3.35-32.15-4.9-50.55q-1.54-18.4 2.1-31.55L152.24 92l-21.29-6.3q-5.12 7.56-3.85 19.87" clip-rule="evenodd"/><path fill="url(#g)" fill-rule="evenodd" d="M134.7 44.6q-10.34 4.38-19.59 17.32c-9.25 12.94-13.96 20.7-10.47 46.35a730 730 0 0 1 4.99 47.2l29.82-86.64q-1.64-6.62-2.73-11.96-1.1-5.34-2.02-12.26" clip-rule="evenodd"/><path fill="#330A4C" fill-opacity=".32" fill-rule="evenodd" d="M139.4 68.66q-11.37 6.62-17.6 27.15-6.25 20.54-11.43 57.4 6.9-23.44 9.17-33.97c2.25-10.52 3.03-25.4 9.02-35.5q6-10.1 10.83-15.08" clip-rule="evenodd"/><path fill="#fff" fill-rule="evenodd" d="M104.34 215.3q18.69 2.68 19.54 4.75c.86 2.08-1.57 3.98-8.49 2.7q-6.91-1.28-11.05-7.44" clip-rule="evenodd"/><path fill="#EDEDED" fill-opacity=".6" fill-rule="evenodd" d="M110.6 44.6a161 161 0 0 0-17.81 26.05 462 462 0 0 0-10.77 20.52q-1 5.05-.98 14.9t1.7 21.9a176 176 0 0 1 9.01-45.82q7.53-22.22 18.85-37.54" clip-rule="evenodd"/><defs><linearGradient id="a" x1="130.62" x2="123.68" y1="43.24" y2="227.85" gradientUnits="userSpaceOnUse"><stop stop-color="#D9D8DC"/><stop offset="1" stop-color="#fff" stop-opacity=".39"/></linearGradient><linearGradient id="b" x1="133.75" x2="61.25" y1="43.2" y2="202.12" gradientUnits="userSpaceOnUse"><stop stop-color="#8D67AF" stop-opacity=".67"/><stop offset="1" stop-color="#9F8DAF"/></linearGradient><linearGradient id="c" x1="141.85" x2="141.85" y1="94.69" y2="222.48" gradientUnits="userSpaceOnUse"><stop stop-color="#26053D" stop-opacity=".76"/><stop offset="1" stop-color="#B7B4B4" stop-opacity=".28"/></linearGradient><linearGradient id="d" x1="76.28" x2="108.81" y1="103.33" y2="189.51" gradientUnits="userSpaceOnUse"><stop stop-color="#91739F" stop-opacity=".46"/><stop offset="1" stop-color="#32054F" stop-opacity=".54"/></linearGradient><linearGradient id="e" x1="163.24" x2="73.77" y1="209.3" y2="135.17" gradientUnits="userSpaceOnUse"><stop stop-color="#463D49" stop-opacity=".33"/><stop offset="1" stop-color="#340A50" stop-opacity=".82"/></linearGradient><linearGradient id="f" x1="144.85" x2="81.75" y1="95.89" y2="191.88" gradientUnits="userSpaceOnUse"><stop stop-color="#715383" stop-opacity=".15"/><stop offset="1" stop-color="#F4F4F4" stop-opacity=".23"/></linearGradient><linearGradient id="g" x1="150.88" x2="106.2" y1="125.17" y2="122.44" gradientUnits="userSpaceOnUse"><stop stop-color="#A5A1A8" stop-opacity=".36"/><stop offset="1" stop-color="#370C50" stop-opacity=".58"/></linearGradient></defs></svg>