<svg xmlns="http://www.w3.org/2000/svg" width="256" height="256" fill="none" viewBox="0 0 256 256"><g clip-path="url(#a)"><path fill="#F4F2ED" d="M196 0H60A60 60 0 0 0 0 60v136a60 60 0 0 0 60 60h136a60 60 0 0 0 60-60V60a60 60 0 0 0-60-60"/><path fill="#333" d="M186.84 175.06c.05-1.04.22-3.81.44-6.2a50.3 50.3 0 0 0-8.15-32.35c-2.12-3.16-2.12-3.16-9.3-5.54-7.2-2.39-7.2-2.39-7.24-3.99 0-1.56-.05-1.6-2.26-2.08-6.71-1.47-13.25-.82-21.61 2.17-2.69.95-5.5 1.73-6.24 1.73-1.38 0-1.38 0-1.69-4.72-.13-2.6-.65-6.24-1.12-8.06-1.56-6.06-1.91-5.72 5.76-5.98 7.23-.21 10.52-.95 16.2-3.55 3.72-1.73 7.28-4.07 6.75-4.5-.17-.18-1.42-.78-2.72-1.3-4.16-1.65-9.01-4.81-11.27-7.24-1.82-1.99-2.33-3.03-3.29-6.15-3.16-10.52-7.7-15.5-17.28-18.93a13 13 0 0 1-3.81-2.34c-2.47-2.3-5.07-5.84-5.07-6.84 0-.82.34-.91 4.03-1.17 13.81-.95 21.91-.26 31.57 2.73 20.75 6.5 36.52 20.18 45.62 39.63 6.37 13.6 8.27 30.97 5.15 46.61a80 80 0 0 1-5.93 17.33c-2.64 5.37-7.24 12.56-7.97 12.56-.4 0-.57-.65-.57-1.82M53.9 149.94c-1.2-6.33-1.51-9.92-1.51-18.76-.04-8.14.13-10.22.9-14.3a73 73 0 0 1 19.6-36.98c4.76-4.85 8.01-7.84 8.44-7.84.1 0 .52 1.04.96 2.3.95 2.99 2.77 6.5 4.68 9.18 1.04 1.43 1.56 2.65 1.56 3.56 0 1.3-.22 1.51-2.52 2.68-5.1 2.6-9.22 6.24-13.04 11.65-2.2 3.12-2.2 3.12.83 3.12s3.03 0 3.03 1.47c0 1.3-.26 1.6-1.95 2.6a56 56 0 0 0-4.6 3.34c-8.48 7.1-14.63 22.83-14.68 37.55 0 2.04-.13 2.7-.6 2.7-.44 0-.78-.79-1.09-2.26"/><path fill="#333" d="M134.43 90.9c0-1.43.09-1.52 1.52-1.52s1.51.09 1.51 1.52-.08 1.51-1.51 1.51-1.52-.08-1.52-1.51m-12.13-7.8c0-1.43.09-1.52 1.52-1.52s1.51.1 1.51 1.52c0 1.43-.08 1.52-1.51 1.52s-1.52-.09-1.52-1.52"/><path fill="url(#b)" d="M166.1 201.57c3.68-5.41 5.8-12.65 4.76-16.37a7.7 7.7 0 0 0-5.63-5.29c-4.38-1.04-9.36.52-25.17 7.97-8.97 4.25-16.11 6.8-21.87 7.89-4.47.82-15.94.69-20.15-.26-10.05-2.21-19.8-6.5-23.6-10.4-2.17-2.2-2.17-2.2-2.17-10.74 0-6.72.17-9.23.78-11.87.78-3.38.78-3.38 2.3-3.38 1.12 0 1.47.17 1.47.78.04.6.22.52 1-.39 6.15-7.32 7.88-9.31 8.1-9.48.13-.13 1.82-2.08 3.68-4.34 3.33-4.03 3.38-4.11 2.25-4.24-1-.13-1.17-.35-1.17-1.65 0-1.04.22-1.47.65-1.47.35 0 .65-.17.65-.4 0-.47 4.25-2.33 7.84-3.41 3.55-1.09 10.79-1.95 13.26-1.56 1.73.26 1.86.34 1.81 1.64 0 1.13-.34 1.56-1.99 2.65a14 14 0 0 0-3.12 2.81c-1.25 1.7-1 1.56 2.6-1.38a123 123 0 0 1 14.86-9.66c3.38-1.74 3.38-1.74 3.16-6.29a38 38 0 0 0-.95-6.92 34 34 0 0 1-.95-4c-.22-1.64-.22-1.64 1.3-1.64.95 0 1.6.26 1.77.65q.27.66-.65.65c-.7 0-.82.18-.6.78.78 2.08 1.51 6.41 1.77 10.61.17 2.56.35 4.64.4 4.64l4.93-1.73c7.88-2.82 15.55-3.73 21.96-2.56 3.38.6 11 3.08 11 3.55 0 .26-1.08.3-2.5.13-5.03-.56-4.08.22 3.24 2.69 7.2 2.47 7.2 2.47 9.31 5.63 6.5 9.62 9.32 21.53 8.19 34.65-.26 2.95-.39 5.5-.26 5.72.13.17-.13.78-.56 1.34s-1.35 2.43-2 4.08c-2.94 7.45-8.62 15.07-14.55 19.49-1.43 1.08-6.2 3.68-6.71 3.68-.13 0 .56-1.17 1.56-2.6m18.8-52.45c-.91-3.56-5.42-12.87-6.37-13.3-.22-.09-.35-.4-.35-.65 0-.3-.43-.78-.95-1.13-1.56-1-12.91-4.8-15.25-5.15-2.2-.3-2.2-.3-2.2-2.13s0-1.82-2.78-2.12c-3.94-.43-9.66.04-13.47 1.13-4.03 1.12-10 3.46-9.8 3.85.35.52 9.02 4.55 11.92 5.55a79 79 0 0 1 6.76 2.81c6.1 2.73 6.2 2.78 13.86 5.98a312 312 0 0 1 8.23 3.47c.95.43 3.3 1.38 5.2 2.16 1.9.74 3.94 1.6 4.55 1.9.6.31 1.12.53 1.2.44.1-.04-.16-1.3-.55-2.81"/><path fill="#666" d="M54.73 153.1c-.48-.9-.6-7.84-.18-9.44.18-.57.57-1 .87-1 .48 0 .6 1.13.6 5.63 0 5.5-.3 6.63-1.3 4.81m.22-13.3c.7-5.76 4.03-16.11 5.33-16.55.91-.3.6 2.13-.78 5.6-1.3 3.37-3.03 10.35-3.03 12.3 0 .82-.22 1.08-.9 1.08-.88 0-.92-.13-.62-2.43m6.29-19.19a32.5 32.5 0 0 1 11.87-12.95c2.6-1.6 2.6-1.6 1.08-1.86-.83-.17-1.13-.3-.7-.35.4 0 .74-.34.74-.7 0-.47.48-.64 1.73-.64 1.7 0 1.74.04 1.74 1.52 0 1.08-.22 1.64-.74 1.81-.43.18-1.04.57-1.34.87s-.87.56-1.22.56-.6.22-.6.44c0 .26-.26.43-.61.43s-.7.3-.87.65c-.13.35-.65.65-1.12.65s-.87.26-.87.56c0 .7-3.55 4.2-4.24 4.2-.3 0-.52.4-.52.87 0 .48-.18.87-.44.87-.21 0-.43.3-.43.65 0 .34-.17.65-.39.65s-.52.47-.65 1.08c-.22.78-.56 1.08-1.34 1.08-.6 0-1.08-.17-1.08-.39m77.53-9.83c0-.7.52-.95 2.95-1.34 3.72-.65 8.4-1.95 9-2.52a21 21 0 0 1 2.82-1.51c1.3-.6 2.43-1.21 2.47-1.39.09-.21.35-.34.57-.34s.73-.35 1.17-.78c.64-.65.69-.91.25-1.3-.3-.3-.95-.52-1.47-.52-.47 0-.86-.18-.86-.44 0-.21-.4-.43-.83-.43-1.3 0-2.2-.48-2.2-1.13 0-.34-.44-.6-1.05-.6-.6 0-1.34-.26-1.64-.6a5 5 0 0 0-1.56-.87c-.52-.18-.95-.61-.95-.96s-.35-.6-.78-.6c-.87 0-3.12-2.13-3.12-2.95 0-.3-.18-.52-.44-.52-.21 0-.43-.56-.43-1.3 0-.78-.22-1.3-.56-1.3-.52 0-2.47-5.63-2.47-7.15 0-.34-.17-.65-.4-.65-.2 0-.73-.86-1.2-1.95-.44-1.08-.91-1.94-1.09-1.94-.21 0-.34-.4-.34-.87 0-.48-.26-.87-.57-.87-.69 0-2.9-2.25-2.9-2.94 0-.3-.39-.52-.87-.52-.47 0-.86-.18-.86-.35s-.7-.6-1.52-.9-1.51-.83-1.51-1.18c0-.39-.48-.6-1.3-.6-.7 0-1.3-.13-1.3-.35 0-.17-1-.56-2.25-.87-2.56-.6-4.68-2.34-4.68-3.8 0-.7-.3-1.05-.96-1.14s-1.04-.47-1.12-1.08c-.09-.56-.44-1-.78-1s-.6-.3-.6-.64-.18-.65-.44-.65c-.22 0-.44-.4-.44-.87 0-1.3 1.43-1.08 2.26.35 1.34 2.3 5.93 6.93 7.14 7.19.7.17 3.04 1.17 5.25 2.25 7.06 3.42 10.44 7.8 13.25 17.15.95 3.12 1.47 4.16 3.3 6.15 2.42 2.65 7.18 5.6 12.3 7.67 1.81.74 3.29 1.56 3.29 1.82 0 1.04-3.77 3.9-7.5 5.67a45 45 0 0 1-12.73 3.99c-2.08.26-2.3.22-2.3-.52m-71.04-5.28c0-.22.65-1.13 1.43-2.08a62 62 0 0 0 3.42-4.55 25 25 0 0 1 2.69-3.38c.6-.52.7-.4.7 1.04 0 1.21-.22 1.64-.87 1.82-.48.13-.87.6-.87 1.04 0 .47-.17.82-.43.82-.22 0-.44.3-.44.65s-.17.65-.43.65c-.22 0-.43.3-.43.65s-.4.65-.87.65c-.65 0-.87.3-.87 1.08 0 .6-.34 1.26-.82 1.52-1.04.52-2.2.56-2.2.09m9.96-12.26c1.81-1.6 5.71-4.3 6.15-4.3.21 0 .34.48.34 1.1 0 .68-.26 1.07-.65 1.07-.34 0-.65.22-.65.44 0 .26-.3.43-.65.43-.34 0-.65.22-.65.43 0 .26-.47.44-1.08.44-.78 0-1.08.21-1.08.86 0 .74-.3.87-1.6.87-1.65-.04-1.65-.04-.13-1.34"/><path fill="#666" d="M128.1 91.76c-4.71-2.38-7.27-6.58-5.97-9.92.43-1.17 2.94-.9 3.64.35.73 1.39 3.33 3.2 7.7 5.42 3.56 1.77 3.56 1.77 3.56 3.5 0 1.74 0 1.74-3.38 1.74-2.73 0-3.77-.22-5.54-1.09m-43.49-2.81c0-.22.6-.74 1.3-1.08 1.43-.74 1.47-.65-.7-3.69a33 33 0 0 1-4.11-8.1c-.78-2.3-.78-2.3.26-2.3.82 0 1.08.35 1.56 2.17.3 1.22.69 2.17.86 2.17s.65.87 1.13 1.95c.43 1.08.9 1.95 1.13 1.95.17 0 .3.3.3.65 0 .34.22.65.43.65.26 0 .44.39.44.86 0 .48.3.87.64.87q.66-.02.65 1.52c0 .82-.17 1.51-.43 1.51-.22 0-.43.3-.43.65q.02.65-1.52.65c-.82 0-1.51-.17-1.51-.43m97.24-9.19c-2.16-2.3-2.16-2.3.13-.13a47 47 0 0 1 2.25 2.26c0 .34-.39-.05-2.38-2.13"/><path fill="url(#c)" d="M73.18 183.86c-1.6-1.78-2.08-11.79-.9-19.02 2.98-18.45 19.4-32.14 38.59-32.14 4.07 0 4.07 0 4.07 1.51q.01 1.54-.95 2.3c-2.56 2.08-4.25 3.68-4.25 4.12 0 .25.3.04.7-.48.34-.52.9-.95 1.16-.95.3 0 .78-.4 1.09-.87.3-.48.69-.87.95-.87.22 0 .9-.47 1.56-1.08.65-.6 1.43-1.08 1.73-1.08.35 0 .6-.18.6-.4 0-.69 12.79-8.27 13.96-8.27.17 0 .34.3.34.65 0 .87.3.83 3.73-.56 6.75-2.77 9.7-3.33 17.71-3.33 7.32.04 7.41.04 11.92 1.6 4.54 1.56 4.54 1.56.08 1.6-4.59.04-5.63.6-1.95 1.04 1.17.13 5.03 1.26 8.58 2.56 6.5 2.3 6.5 2.3 8.14 4.67a50 50 0 0 1 6.59 14.69c.6 2.47 1.04 4.8.95 5.2-.17.56-.22.56-.26-.09 0-.43-.26-.65-.52-.52-.22.17-1.43-.17-2.69-.78a94 94 0 0 0-5.71-2.47 118 118 0 0 1-5.2-2.16c-.95-.44-4.64-2-8.23-3.47-7.67-3.2-7.75-3.25-13.86-5.98a80 80 0 0 0-6.76-2.81c-1.9-.65-4.98-2.04-10.53-4.72a15 15 0 0 0-3.16-1.22c-.39 0-.56-.26-.43-.6q.24-.66-.35-.4c-.34.14-.52.44-.34.7q.2.39-.26.13c-1.04-.65-11.74 6.37-19.5 12.86a46 46 0 0 1-3.72 2.9c-.26 0 .17-2.33.7-4.2.64-2.12 2.8-4.8 4.97-6.15 1.9-1.25 1.9-1.25.65-1.43-3.64-.52-14.6 1.78-14.16 3 .13.3.08.56-.13.56-.18 0-1.22 1.2-2.25 2.68-1.7 2.43-7.93 10.18-8.62 10.74-.13.13-1.4 1.6-2.82 3.25-8.19 9.8-9.66 11.22-9.79 9.45-.04-.44-.3.47-.65 2.03-.74 3.55-.74 11.4 0 15.51.3 1.69.39 3.12.26 3.12-.17 0-.6-.35-1.04-.83"/><path fill="#999" d="M54.94 140.84a69 69 0 0 1 3.69-14.42c1.77-4.5 5.28-10.61 6.93-12.13.9-.82.9-.82.78.86-.09 1.43-.3 1.78-1.09 1.87-.78.13-1 .43-1 1.43q.01 1.24-.64 1.25c-.35 0-.65.4-.65.87 0 1.04-1.78 4.76-2.25 4.76-.18 0-.35.48-.35 1.09 0 .6-.17 1.08-.43 1.08-.22 0-.44.3-.44.65s-.52 2.34-1.12 4.42a74 74 0 0 0-1.6 7.19c-.4 2.81-.61 3.33-1.3 3.33-.74 0-.79-.21-.53-2.25M130.1 120c0-.77-.4-2.9-.87-4.67a26 26 0 0 1-.86-4.38c0-1.21 0-1.21 3.25-1.21 2.94 0 3.24.09 3.24.87s-.3.86-2.6.86c-2.5 0-2.6.05-2.16.87.52.95 1.73 6.84 1.73 8.27 0 .52-.3.83-.87.83-.69 0-.86-.3-.86-1.43m-61.08-9.19a33 33 0 0 1 3.64-2.68c1.69-1.09 3.2-2.12 3.38-2.25.17-.18-1-.22-2.64-.14-2.65.18-3.04.1-3.2-.6-.18-.74-.22-.74-.27-.05q-.04.73-1.12.74c-1.3 0-1.26-.13 1.08-3.16.82-1.13 1.69-2.04 1.9-2.04.18 0 .26.78.18 1.74-.18 1.73-.18 1.73 2.99 1.73 3.16 0 3.16 0 3.16 1.52 0 1.04-.22 1.51-.65 1.51-.35 0-.65.22-.65.43 0 .26-.48.44-1.08.44-.7 0-1.09.26-1.09.65 0 .34-.3.65-.65.65-.34 0-.65.21-.65.43 0 .26-.39.43-.86.43-.48 0-.87.3-.87.65 0 .48-.48.65-1.56.65-1.34 0-1.51-.08-1.04-.65m68.01-.08c0-.78.39-.91 2.99-1.17 3.16-.26 11.13-2.64 12.08-3.6.3-.3 1.17-.56 1.87-.56q1.24 0 1.25-.65c0-.35.3-.65.65-.65s.65-.17.65-.43c0-.22.4-.44.87-.44.48 0 .87-.26.87-.6 0-.35-.4-.78-.87-.91-.48-.13-.87-.48-.87-.7s-.47-.39-1.08-.39c-.7 0-1.08-.26-1.08-.65s-.4-.65-1.04-.65c-1.52 0-2.43-.43-2.43-1.12 0-.35-.43-.6-1.08-.6s-1.09-.27-1.09-.62c0-.38-.51-.69-1.16-.77-1.04-.13-1.26-.35-1.35-1.6-.17-1.52-.17-1.52 1.3-.4a55 55 0 0 0 10.1 5.6c1.77.73 3.33 1.46 3.46 1.68.48.74-3.33 3.68-7.36 5.67a40 40 0 0 1-13.78 4.08c-2.68.3-2.9.26-2.9-.52M73 98.4c1.78-2.6 5.38-5.9 8.8-8.1 1.86-1.22 3.6-2.22 3.9-2.22s.78-.3 1.08-.65c.4-.47.3-.9-.56-2.03-2.69-3.51-6.33-11.48-5.72-12.48.13-.26.52-.43.87-.43.65 0 2.38 4.72 2.38 6.58 0 .91.22 1.21.87 1.21.56 0 .95.4 1.12 1.09.13.6.44 1.08.65 1.08s.4.3.4.65.2.65.43.65c.26 0 .43.39.43.87 0 .47.26.86.6.86.74 0 1.13.96 1.13 2.65 0 1.03-.17 1.25-1.08 1.25-1.08 0-4.25 1.3-4.46 1.86-.09.18-.44.3-.78.3s-.6.22-.6.44c0 .26-.27.43-.62.43s-.69.3-.86.65c-.13.35-.65.65-1.13.65s-.86.26-.86.57c0 .82-2.73 3.33-3.6 3.33q-.73 0-.74 1.08c0 .91-.21 1.09-1.34 1.09-1.3 0-1.3 0-.3-1.39m57.87-5.41c-.7-.09-1.21-.4-1.21-.61 0-.22-.48-.39-1.09-.39-.6 0-1.08-.17-1.08-.43 0-.22-.3-.44-.65-.44s-.65-.17-.65-.43c0-.22-.26-.43-.56-.43-.6 0-2.47-1.9-2.47-2.56 0-.21-.22-.47-.52-.56-.26-.09-.57-1.34-.7-2.86-.17-2.69-.17-2.69 1.83-2.69 1.42 0 1.99.18 1.99.61 0 .35.3.7.65.87.34.13.65.52.65.9 0 .35.39.66.86.66.48 0 .87.17.87.39 0 .21.48.52 1.08.65.78.21 1.09.56 1.09 1.34 0 .6-.18 1.08-.4 1.08-.82 0-5.54-3.5-6.1-4.55-.91-1.69-1.52-.26-.7 1.65 1.3 3.2 6.24 6.37 9.84 6.37 2.6 0 2.94-.52 1.04-1.43-1.87-.87-1.95-1.6-.22-1.6q3.46 0 3.47 2.46c0 1.3-.13 1.43-1.3 1.43-.7 0-1.3.22-1.3.44 0 .43-2.08.47-4.42.13m12.22-.61c0-.26-.3-.74-.66-1.08a3 3 0 0 1-.65-1.7c0-.56-.12-1.08-.34-1.16-.48-.22-2.25-6.07-2.25-7.45 0-2.38 1.08-.83 2.64 3.72.82 2.56 2.03 5.42 2.68 6.37 1.17 1.78 1.17 1.78-.13 1.78-.69 0-1.3-.22-1.3-.48m-6.06-14.42c0-.35-.22-.7-.48-.78-.26-.1-.39-.83-.3-1.65.13-1.52.13-1.52 1.56.39 1.69 2.3 1.73 2.64.3 2.64-.65 0-1.08-.26-1.08-.6m-5.2-5.46c0-.22-.3-.44-.65-.44-.34 0-.65-.39-.65-.86 0-.65-.3-.87-1.17-.87-.6 0-2.55-.52-4.29-1.17-2.64-1-3.2-1.38-3.2-2.16 0-1 0-1 3.16.13 3.3 1.2 8.45 4.02 9.4 5.1.48.61.35.7-1.04.7-.86 0-1.56-.17-1.56-.43m-33.7-7.19c-1.08-.74-1.3-1.9-.35-1.9.35 0 .7-.31.87-.66.13-.35.48-.65.78-.65s1.08-.3 1.78-.6c.65-.35 1.17-.48 1.17-.3 0 .2 1.12.51 2.5.64 1.35.13 4 .52 5.86.78 3.33.52 3.33.52 3.33 1.95s0 1.43-7.5 1.43c-6.06 0-7.66-.13-8.44-.7m20.14-.47c-.17-.13-.3-.74-.3-1.3 0-.74-.26-1-.9-1-.53 0-1-.34-1.13-.86-.13-.48-.4-.87-.61-.87-.22 0-.4-.56-.4-1.3 0-.69.18-1.3.35-1.3.22 0 1.35 1.22 2.52 2.69 3.6 4.59 3.42 4.24 1.99 4.24-.7 0-1.39-.13-1.52-.3"/><path fill="#CCC" d="M73.22 183.81c-.6-.7-1.3-1.3-1.47-1.3-.78 0-3.03-2.9-3.72-4.76-1.56-4.33-2.04-7.54-2.04-14.3 0-10.13 1.82-17.28 6.67-26.16 4.38-8.06 12.48-17.15 19.15-21.57 4.68-3.12 11.56-6.28 16.41-7.58 3.82-1 5.2-1.13 11.48-1.17 5.76 0 7.41.13 8.45.7 2 1.03 6.5 2.07 9.14 2.07 1.73 0 2.34.17 2.34.6 0 .96-2.21 1.26-6.37.92-3.55-.3-3.72-.3-3.42.47 1.04 2.64 1.65 6.24 1.86 11.05.26 5.46.26 5.46-3.6 7.5a98 98 0 0 0-15.46 10.39c-6.62 5.37-6.36 5.2-6.36 4.5 0-3.03 2.81-7.58 5.84-9.44.83-.52 1.52-1.13 1.52-1.34 0-.6-5.16-.48-9.01.26-15.86 3.03-28.5 15.85-31.06 31.49-1 6.15-.7 14.38.7 17.63.64 1.51.21 1.56-1.05.04m-18.06-29.84c-.7-1.35-.52-2.21.43-2.21.7 0 .87.3.87 1.51 0 1.7-.6 2-1.3.7m-.43-9.88c0-2.2 1.25-9 2.38-12.82 1.3-4.46 3.42-9.4 4.07-9.4.87 0 .48 2.25-1.04 6.02a55 55 0 0 0-3.55 14.25c-.22 2.64-.39 3.12-1.04 3.12-.6 0-.82-.3-.82-1.17m6.5-22.91c0-.61 2.68-4.86 4.07-6.46 1.51-1.73 1.51-1.73 1.56-.08 0 1.3-.13 1.6-.87 1.6-.65 0-.87.3-.87 1.08 0 .7-.26 1.08-.65 1.08-.34 0-.65.4-.65.83 0 1.51-.52 2.2-1.56 2.2-.56 0-1.03-.12-1.03-.25m7.19-9.75c.43-.52 2.55-2.08 4.67-3.47 3.17-2.07 3.69-2.55 2.73-2.55-.65 0-1.17-.17-1.17-.4 0-.51 1.13-.9 2.65-.9 1.12 0 1.25.13 1.25 1.47 0 1.52-.56 2-2.2 2-.44 0-.83.3-.83.64s-.3.65-.65.65-.65.22-.65.44c0 .26-.3.43-.65.43s-.65.22-.65.43c0 .26-.35.44-.82.44-.44 0-.91.39-1.04.86-.18.7-.6.87-1.86.87-1.6 0-1.6 0-.78-.91m72.08-1.17c0-.87 1.64-1.39 4.46-1.39.65 0 1.17-.17 1.17-.43 0-.22.6-.43 1.3-.43.73 0 1.3-.18 1.3-.44 0-.21.47-.43 1.08-.43.6 0 1.08-.17 1.08-.43 0-.22.6-.43 1.3-.43.82 0 1.3-.22 1.3-.61 0-.7.91-1.13 2.43-1.13.73 0 1.04-.26 1.04-.86 0-.65.3-.87 1.12-.87 1 0 1.04-.09.43-.65-.34-.35-.86-.65-1.16-.65-.35 0-1.43-.3-2.43-.7q-1.87-.75-1.86-1.5c0-.66-.35-.83-1.52-.83-1.04 0-1.51-.22-1.51-.65 0-.4-.4-.65-1.09-.65-.86 0-1.08-.22-1.08-1.08 0-.61.09-1.09.22-1.09s1.73.87 3.6 1.9a53 53 0 0 0 6.27 3.13c1.6.65 2.9 1.43 2.9 1.73 0 .95-3.5 3.6-7.1 5.33a46 46 0 0 1-11.4 3.72c-1.64.26-1.85.22-1.85-.56m-72.34-4.86c0-.2.52-1.03 1.2-1.81a56 56 0 0 0 2.82-3.86 26 26 0 0 1 2.47-3.2c.87-.78.87-.74.87.82 0 1.26-.17 1.7-.87 1.86-.47.13-.86.61-.86 1.04 0 .48-.18.83-.4.83-.2 0-.51.47-.64 1.08-.22.78-.57 1.08-1.35 1.08-.6 0-1.08.22-1.08.44 0 .26.6.43 1.3.43 1.56 0 1.78 1.08.35 1.47-1.52.4-3.81.3-3.81-.17m9.09-11.48c0-.39 5.42-4.2 7.45-5.24 1.26-.6 2.34-.91 2.82-.74.73.3.73.26.04-.73-4.16-5.9-6.76-11.35-7.15-14.95-.08-.95-.26-4.37-.39-7.62-.21-5.94-.21-5.94 4.03-5.11 4.33.78 9.97 2.38 10.75 2.98a7 7 0 0 0 2.16.65c.95.18 2 .52 2.3.78.3.22.95.48 1.51.52.52.05 1.22.13 1.52.18 1 .08.52 1.17-.87 1.99-.95.56-2.5.87-4.9 1-3.02.17-3.89.04-6.27-.91-1.52-.65-2.82-1.09-2.9-1-.22.22 3.9 6.15 6.58 9.57 1.78 2.26 2.38 3.38 2.38 4.42 0 1.34-.08 1.43-1.56 1.43-1.82 0-2.94.52-4.8 2.3-1.4 1.3-1.87 2.47-1 2.47.26 0 .43.65.43 1.47 0 1.25-.17 1.56-1.34 1.95a10 10 0 0 1-2.38.47c-.65 0-1.04.26-1.04.65 0 .35-.3.65-.65.65s-.65.22-.65.44c0 .26-.3.43-.65.43s-.65.22-.65.43c0 .26-.4.44-.87.44-.48 0-.87.3-.87.65 0 .43-.47.65-1.51.65-.82 0-1.52-.1-1.52-.22m52.55-1.13c-.78-.21-1.43-.6-1.43-.82 0-.26-.4-.43-.87-.43-.48 0-.87-.18-.87-.44 0-.21-.3-.43-.65-.43q-.65 0-.65-1.3c0-1.17-.13-1.3-1.3-1.3-1 0-1.3-.17-1.3-.86 0-.48-.17-.87-.43-.87-.22 0-.43-.7-.43-1.52s.21-1.51.43-1.51c.26 0 .44-.48.44-1.09 0-.95.17-1.08 1.51-1.08s1.56.13 1.82 1.3c.17.91.48 1.3 1.08 1.3.44 0 .91.3 1.04.65.18.35.52.65.87.65s.6.3.6.65.4.65.87.65c1.04 0 4.77 1.78 4.77 2.25 0 .17.47.35 1.08.35 1 0 1.08.17 1.08 1.9 0 1.6-.17 1.95-.95 2.17-1.43.35-5.11.26-6.71-.22m5.89-1.47c.86-.26.34-.65-3.47-2.51-2.99-1.47-5.2-2.9-6.54-4.25-2.17-2.16-2.77-2.12-2.3.13.57 2.52 4.94 5.98 8.67 6.9 1.3.3 1.77.25 3.64-.27m6.97-.22q0-1.3-.65-1.3t-.65-1.3c0-.69-.17-1.3-.35-1.3s-.9-1.73-1.6-3.9c-.73-2.12-1.43-3.9-1.6-3.9-.22 0-.35-.3-.35-.64s-.17-.65-.43-.65c-.22 0-.43-.3-.43-.65s-.18-.65-.44-.65c-.21 0-.43-.7-.43-1.56 0-1 .17-1.43.48-1.21 1.3.78 3.98 5.93 5.37 10.3.86 2.65 2.03 5.55 2.64 6.46 1.04 1.6 1.04 1.6-.26 1.6-1.17 0-1.3-.13-1.3-1.3m-10.4-18.19c0-.22-.3-.43-.64-.43s-.65-.18-.65-.35-.7-.6-1.52-.9-1.52-.74-1.52-.96-.39-.4-.86-.4c-.48 0-.87-.16-.87-.42 0-.22-.39-.44-.87-.44-.47 0-1.86-.39-3.11-.86-2.34-.91-8.23-1.74-12.35-1.74-1.69 0-2.3-.17-2.3-.6 0-.35-.25-.74-.51-.83-.3-.13.9-.26 2.68-.3 3.25-.09 3.25-.09.22-.65-1.65-.3-4.33-.7-5.94-.87-1.64-.17-2.94-.47-2.94-.69s.47-1.12 1.04-2.03a10 10 0 0 0 1.3-2.9c1.2-6.76.95-6.42 3.72-4.94 1.39.73 3.73 2.3 5.16 3.46 1.47 1.17 2.81 2.12 3.03 2.12.17 0 .86.74 1.47 1.65.6.87 2.04 2.68 3.25 3.98 1.82 2.08 2.69 2.6 5.8 3.82 3.47 1.3 8.58 4.2 9.19 5.24q.3.46-1.22.47c-.86 0-1.56-.17-1.56-.43"/><path fill="#fff" d="M69.59 180.7c-4.6-4.73-12.7-17.6-12.7-20.1 0-.44-.26-1.56-.6-2.56-1.39-3.94-1.7-6.67-1.43-12.13.47-9.23 2.3-16.33 6.24-24.34 3.16-6.46 7.1-10.62 13.73-14.6 2.6-1.56 2.6-1.56-2.08-1.56-4.72 0-4.72 0-3.55-1.43.6-.74 1.77-2.34 2.55-3.55C75.3 95.1 82.88 88.82 86.48 88.2c.87-.13 1.6-.34 1.6-.52 0-.13-.43-.82-1-1.51-1-1.26-1-1.26.74-3.17 2.12-2.34 2.95-2.81 5.37-3.16 1.82-.21 1.82-.21-.56-3.25-4.72-5.93-9.44-13.64-8.8-14.33.18-.14 2.3.69 4.77 1.81 3.94 1.87 4.81 2.13 7.28 2.13 2.08 0 3.2-.22 4.11-.83 1.13-.73 1.78-.78 7.32-.52 9.92.48 13.39.96 17.46 2.47 9.66 3.56 13.34 7.24 16.55 16.6a74 74 0 0 0 2.25 5.97c1.56 3.08 8.32 7.88 14.38 10.31 1.34.52 2.6 1.17 2.73 1.39.87 1.38-8.53 6.8-14.55 8.36-4.38 1.12-11.4 1.34-15 .43a23 23 0 0 1-4.28-1.43c-1-.52-2.6-.7-7.15-.65-7.23.04-12.3 1.21-19.01 4.46-6.11 3-9.97 5.59-14.51 9.97-9.1 8.7-15.77 20.31-18.07 31.4-1.04 4.9-1.08 13.52-.17 17.54.74 3.16 2.6 8.4 3.5 9.88 1 1.52.1 1.13-1.85-.87m66.66-89.5c.22-.22-1.04-1.08-3.38-2.2-4.37-2.09-7.8-4.47-8.19-5.68-.34-1.04-1-1.13-1.34-.22-.95 2.38 2.9 6.58 7.58 8.32 1.65.6 4.64.47 5.33-.22"/></g><defs><linearGradient id="b" x1="43.25" x2="41.08" y1="41.95" y2="43.9" gradientUnits="userSpaceOnUse"><stop stop-color="#8D8E8D"/><stop offset=".01" stop-color="#8B8C8B"/><stop offset=".02" stop-color="#8A8C8A"/><stop offset=".03" stop-color="#8A8B8A"/><stop offset=".04" stop-color="#828382"/><stop offset=".05" stop-color="#878987"/><stop offset=".12" stop-color="#848584"/><stop offset=".13" stop-color="#838583"/><stop offset=".14" stop-color="#838483"/><stop offset=".24" stop-color="#7D7E7D"/><stop offset=".25" stop-color="#7C7E7C"/><stop offset=".26" stop-color="#7C7D7C"/><stop offset=".28" stop-color="#7B7C7B"/><stop offset=".29" stop-color="#7A7C7A"/><stop offset=".3" stop-color="#7A7B7A"/><stop offset=".31" stop-color="#797B79"/><stop offset=".37" stop-color="#777877"/><stop offset=".38" stop-color="#767876"/><stop offset=".92" stop-color="#616261"/><stop offset=".93" stop-color="#5F605E"/><stop offset=".94" stop-color="#5F5F5E"/><stop offset=".98" stop-color="#5D5E5C"/><stop offset="1" stop-color="#5D5D5D"/></linearGradient><linearGradient id="c" x1="43.25" x2="41.08" y1="41.95" y2="43.9" gradientUnits="userSpaceOnUse"><stop stop-color="#8D8E8D"/><stop offset=".01" stop-color="#8B8C8B"/><stop offset=".02" stop-color="#8A8C8A"/><stop offset=".03" stop-color="#8A8B8A"/><stop offset=".04" stop-color="#828382"/><stop offset=".05" stop-color="#878987"/><stop offset=".12" stop-color="#848584"/><stop offset=".13" stop-color="#838583"/><stop offset=".14" stop-color="#838483"/><stop offset=".24" stop-color="#7D7E7D"/><stop offset=".25" stop-color="#7C7E7C"/><stop offset=".26" stop-color="#7C7D7C"/><stop offset=".28" stop-color="#7B7C7B"/><stop offset=".29" stop-color="#7A7C7A"/><stop offset=".3" stop-color="#7A7B7A"/><stop offset=".31" stop-color="#797B79"/><stop offset=".37" stop-color="#777877"/><stop offset=".38" stop-color="#767876"/><stop offset=".92" stop-color="#616261"/><stop offset=".93" stop-color="#5F605E"/><stop offset=".94" stop-color="#5F5F5E"/><stop offset=".98" stop-color="#5D5E5C"/><stop offset="1" stop-color="#5D5D5D"/></linearGradient><clipPath id="a"><path fill="#fff" d="M0 0h256v256H0z"/></clipPath></defs></svg>