<svg xmlns="http://www.w3.org/2000/svg" width="256" height="256" fill="none" viewBox="0 0 256 256"><rect width="256" height="256" fill="url(#a)" rx="60"/><path fill="#fff" fill-rule="evenodd" d="M86.53 227.75s11.67.82 26.68-.5c6.08-.53 29.17-2.79 46.43-6.56 0 0 21.04-4.48 32.3-8.62 11.78-4.32 18.19-7.99 21.07-13.19-.12-1.06.9-4.84-4.54-7.1-13.89-5.8-30-4.76-61.87-5.43-35.34-1.21-47.1-7.1-53.36-11.85-6-4.81-2.99-18.13 22.75-29.86 12.96-6.24 63.78-17.77 63.78-17.77-17.12-8.43-49.03-23.23-55.59-26.43-5.75-2.8-14.96-7.03-16.96-12.14-2.26-4.9 5.35-9.13 9.6-10.34 13.68-3.93 33-6.37 50.58-6.65 8.84-.14 10.27-.7 10.27-.7 12.2-2.02 20.23-10.32 16.88-23.48-3-13.43-18.84-21.32-33.89-18.6C146.5 31.12 112.34 41 112.34 41c42.22-.36 49.28.34 52.44 4.73 1.86 2.6-.85 6.16-12.1 7.99-12.27 2-37.75 4.4-37.75 4.4-24.44 1.44-41.66 1.53-46.83 12.42-3.37 7.12 3.6 13.4 6.66 17.34 12.9 14.3 31.56 22.02 43.57 27.7 4.52 2.13 17.77 6.17 17.77 6.17-38.95-2.13-67.05 9.78-83.53 23.49-18.64 17.17-10.4 37.64 27.8 50.24 22.55 7.44 33.74 10.94 67.39 7.93 19.82-1.07 22.94-.44 23.14 1.18.28 2.28-22.01 7.95-28.1 9.7-15.48 4.44-56.07 13.42-56.27 13.47" clip-rule="evenodd"/><defs><linearGradient id="a" x1="0" x2="256" y1="0" y2="256" gradientUnits="userSpaceOnUse"><stop stop-color="#8381C5"/><stop offset=".61" stop-color="#7E55B3"/><stop offset="1" stop-color="#A52ECB"/></linearGradient></defs></svg>