<svg xmlns="http://www.w3.org/2000/svg" width="256" height="256" fill="none" viewBox="0 0 256 256"><rect width="256" height="256" fill="#E04E39" rx="60"/><path fill="#fff" d="m66.5 184.97.56-1.3.07-.19q.67-1.59 1.29-3.2c.54-1.41 1.03-2.84 1.58-4.23l.89-2.4c.7-1.92 1.66-4.48 2.83-6.94a45 45 0 0 1 3.92-6.68l.64-.87.9-.57.42-.25q.62-.34 1.28-.6.94-.4 2.26-.8a123 123 0 0 1 12.64-2.56c4.95-.78 10.24-1.48 16.64-2.18a618 618 0 0 1 33.36-2.65c5.74-.27 10.14-.4 14.26-.4h2.6q4.39.02 8.73.58 1.38.19 2.7.63.41.15.65.26l.84.38.68.63q.41.38.82.8a38 38 0 0 1 3.01 3.4 74 74 0 0 1 8.92 15c2.3 4.87 4 10 5.07 15.27l1.28 6.73h-15.9l-.96-4.49c-1.03-4.88-14.2-17.74-20.74-20.27-.66-.25-3.49-1.04-12.1-1.04-17.73 0-42.91 3.16-46.54 3.91-4.24 1.98-10.82 10.43-14.56 18.75l-1.53 3.42"/><path fill="#BA8449" d="M175.58 159.42q-1.2-1.54-2.57-2.93l-.65-.62-.17-.06a9 9 0 0 0-1.61-.36q-3.98-.5-7.98-.51c-5.46-.07-10.97.1-16.48.36a551 551 0 0 0-33.02 2.63c-5.48.6-10.95 1.28-16.37 2.14-2.7.43-5.4.89-8.04 1.47a49 49 0 0 0-3.85.96q-.87.25-1.71.6-.34.12-.67.3l-.1.06q-.97 1.32-1.81 2.7c-.57.93-1.1 1.99-1.6 3.03a79 79 0 0 0-2.64 6.48c-.82 2.21-1.61 4.46-2.5 6.7-.42 1.11-.86 1.89-1.33 3-.22.53-.44 1.24-.67 1.24h7.44c4.02-9.3 11.57-18.9 17.91-21.5 1.75-.7 29.86-4.04 48.44-4.04 6.89 0 11.65.25 14.18 1.24 7.61 2.93 22.76 17.06 24.32 24.3h4.31a55 55 0 0 0-4.63-13.72 66 66 0 0 0-8.2-13.47"/><path fill="#fff" d="m172.3 155.82-.02-.01.04.03z"/><path fill="#BA8449" d="m172.3 155.82-.02-.01.04.03z"/><path fill="#fff" d="m183.57 192.82-.89-4.6a56 56 0 0 0-4.23-12.69 63 63 0 0 0-7.46-12.57 22 22 0 0 0-1.6-1.84q-3.46-.4-6.94-.4h-2.36c-3.93 0-8.16.12-13.7.38-10.62.52-21.6 1.4-32.65 2.6a415 415 0 0 0-16.11 2.06c-3.1.49-5.54.93-7.7 1.4q-1.74.37-3.43.85l-.36.12q-.32.48-.62 1.03c-.4.68-.82 1.46-1.35 2.56a74 74 0 0 0-2.42 5.96l-.87 2.36c-.53 1.45-1.03 2.94-1.66 4.45-.45 1.14-.91 2.32-1.4 3.46l-.06.16c-.21.5-.43.87-.64 1.38l-1.51 3.33H65.4l-1.46-.59h-.16a6 6 0 0 1-3.38-6.2v-.26l.19-.79.24-.95.55-1.93q.57-1.93 1.18-3.72a87 87 0 0 1 8.66-18.14 48 48 0 0 1 2.55-3.6 10 10 0 0 1 3.3-2.74q.9-.5 1.86-.87 1.35-.55 2.75-.94c1.76-.52 3.4-.88 4.65-1.15a127 127 0 0 1 8.66-1.53 319 319 0 0 1 16.9-2.06 571 571 0 0 1 33.67-2.47c5.25-.21 9.31-.3 13.11-.3h4.03q4.76 0 9.48.66h.1q1.73.26 3.38.82h.07a11 11 0 0 1 2.5 1.3l.43.32.33.27.34.3q.5.47.97.95a45 45 0 0 1 3.35 3.83 79 79 0 0 1 9.39 16 83 83 0 0 1 3.3 8.6q1.38 4.2 2.13 8.58l1.08 6.59z"/><path fill="#fff" d="m72.08 192.82 3.9-8.12c3.26-6.92 11.06-19.5 19.66-23.03h.17c2.9-1.08 32.07-4.44 49.8-4.44 9.99 0 13.71 1.03 15.65 1.74 9 3.47 24.62 18.15 26.73 26.85l1.73 7.03z"/><path fill="#fff" d="m177.79 192.82-1.04-4.3c-1.03-4.08-13.29-16.38-19.65-18.83-.6-.23-3.1-.93-11.47-.93-17.15 0-41.87 3.04-45.91 3.83-3.33 1.65-9.31 8.61-13.25 17.02l-1.6 3.21H70.3l3.67-8.04c4.3-9.58 12.7-21.36 21-24.75 3.2-1.31 32.74-4.61 50.63-4.61 7.8 0 12.97.6 16.27 1.88 8.97 3.46 25.8 18.62 27.93 28.67l1.44 6.85z"/><path fill="#fff" d="m184.45 192.82-1.67-1.42c-6.3-5.85-8.02-17.9-6.06-22.89a6.5 6.5 0 0 1 7.9-4.2c1.1-.08 3.76-2.23 4.55-3.53a7 7 0 0 1 6.4-3.66c4.3 0 11.23 3.4 13.51 6.62a6.5 6.5 0 0 1 .93 5.97l-.33.97c-2.36 7.09-5.4 15.6-7.9 19.56l-1.66 2.58z"/><path fill="#fff" d="m183.92 192.82 5.4-8.69a91 91 0 0 0 5.63-10.41c-3.05 2.13-7.34 3.55-13.68 3.83l-.17-.12-.12.59a7.1 7.1 0 0 1-2.99-13.49q1.26-.59 2.64-.65c6.2-.28 7.02-1.75 8.19-3.97 1.58-2.96 5-4.68 9.4-4.68q1.66 0 3.3.35c5.27.97 9.14 5.49 9.3 10.84.26 5.53-2.74 13.45-8.9 23.71l-1.7 2.7z"/><path fill="#fff" d="M206.93 175.9c-7.07 0-14.75-4.6-18.7-9.15-3.58-4.13-3.94-7.78-3.6-10.11a6.74 6.74 0 0 1 7.06-5.78q1.14.01 2.26.21c.69-3.1 2.34-9.65 9.04-9.65q.45-.03.9 0a7.6 7.6 0 0 1 6.65 5.44 7.6 7.6 0 0 1 9.24 1.57 8.3 8.3 0 0 1 1.41 9.31 7.6 7.6 0 0 1 3.3 4.38 8.2 8.2 0 0 1-1.32 7.24c-3.1 4.23-10.1 6.3-15.73 6.48zm-7.04-143.76c-6.39 4-13.37 13.19-21.87 25.76a7 7 0 0 1-6 3.1c-3.15 0-7.11-1.9-11.75-5.63-7.35-5.91-7.5-9.3-7.57-10.52a6.5 6.5 0 0 1 6.04-6.82c7.07-.67 12.92-4.9 18.62-8.98s10.95-7.9 17.22-7.9q1.88 0 3.71.48"/><path fill="#FFF8EF" d="M159.32 43.79c17.1-1.6 27.08-19.3 37.5-16.55-6.95 4.34-13.9 13.07-23.6 27.41-2.28 3.36-18.55-10.43-13.9-10.86"/><path fill="#fff" d="M48.52 35.59c4.27-3.95 10.04-5.94 17.14-5.94 6.13 0 13.36 1.5 21.5 4.46 2.35.69 4.8.99 7.24.9h3.17c2.07 0 6.32 0 8.08 3.96a8.3 8.3 0 0 1-.98 8.16c-2.82 4.43-10.44 9.14-17.74 9.14h-.35c-3.92 0-7.61-2.06-11.9-4.5-5.33-2.97-11.37-6.35-18.48-6.35q-1.5 0-2.97.2zm131.62 42.4c-3.17 0-9.04-1.3-12.88-10.17a36 36 0 0 1-2.8-13.05c0-6.2 3.23-7.8 5.17-8.27 1.4-1.42 4-4.96 5.99-7.62C183.63 28.08 189.36 21 196.03 21q1.67 0 3.23.61c9.02 3.61 13.35 11.17 11.87 20.75-1.04 7.08-5.47 15.52-12.05 23.11-3.1 3.57-11.03 11.95-18.03 12.48z"/><path fill="#fff" d="M77.02 81.1q-1.14.09-2.27 0c-11.17-1.82-25.12-13.05-30.38-24.66-3.6-7.93-2-13.33 0-16.5a15.8 15.8 0 0 1 13.94-7.83c7.12 0 14.29 3.92 20.6 7.38 2.4 1.27 5.93 3.23 7.42 3.6a6 6 0 0 1 1.69-.26 6.5 6.5 0 0 1 5.55 3.37c2.9 5.04 1.15 18.55-3.4 26.44-3.17 5.55-7.86 8.46-13.15 8.46"/><path fill="#fff" d="M115.9 178.34c-26.2 0-52.09-12.72-60.7-22.01-8.98-9.7-12.26-20.63-9.75-32.62 2.07-9.85 7.56-18.68 12.42-26.51 3.34-5.38 6.5-10.46 7.32-14.11 10.64-47.02 37.35-53.04 59.42-53.04q2.09-.02 4.5.07c47.01 1.42 51.73 24.13 54.51 37.7q.57 3.3 1.66 6.46c15.77 38.77 18.37 61.99 8.7 77.68-9.49 15.42-30.33 22.93-71.9 26.29-2.08.15-4.14.09-6.21.09z"/><path fill="#fff" d="M114.93 178.72c-26.68 0-51.4-13.28-59.72-22.25-9-9.7-12.27-20.69-9.76-32.69 2.07-9.85 7.56-18.71 12.42-26.54 3.34-5.4 6.5-10.48 7.32-14.13 10.64-47.02 37.35-53.05 59.42-53.05q2.09-.02 4.5.07c47.01 1.41 51.73 24.12 54.51 37.69q.57 3.3 1.66 6.46c15.51 38.15 18.08 61.14 8.54 76.86-10.93 18.03-36.57 23.93-71.67 27.24a75 75 0 0 1-7.23.34"/><path fill="#fff" d="M182.87 145.92q.5-1.24 1.03-2.47c3.61-8.59 6.2-16.08 1.97-20.83-5.05-5.6-26.5-15.66-45.44-24.63-36.37-17.15-58.82-28.22-62.06-39.3a10 10 0 0 1 1.03-8.13c6.2-9.83 23.8-20.42 47.76-20.42h.73c22.56.2 39 6.7 48.87 19.33 8.34 10.66 10.23 23.1 11.61 32.17.48 3.1 1.03 6.95 1.66 8 17.12 29.42 9.31 51.1 3.1 61.4z"/><path fill="#fff" d="M165 112.14c-8.82 0-23.54-2.2-28.65-7.08-4-3.83-5.55-10.15-7.03-16.32a55 55 0 0 0-2.64-8.67h-.09c-.37 1.03-.8 2.07-1.15 3.1-2.38 6.66-5.64 15.78-12.58 20.69-3 2.14-13.67 4.14-21.97 4.14-8.27 0-14.55-1.8-18.72-5.33-6-5.08-10.6-14.41-13.61-27.71l-.42-.27a11 11 0 0 1-4.2-4.14c-1.58-3.16-.94-8.76.7-11.68a7.1 7.1 0 0 1 5.6-3.77h.73q1.96.07 3.87.45a29 29 0 0 0 5.19.53 164 164 0 0 1 23.14-1.87c17.2 0 26.23 3.52 29.63 4.85l.68.26q2.31.57 4.7.59 1.04 0 2.06-.15a148 148 0 0 1 22-1.78c18.16 0 27.8 4.14 31.91 5.92l.91.38h.35a23 23 0 0 0 4.2-.66c1.09-.24 2.12-.46 3.1-.57q.42-.05.82-.05a7.5 7.5 0 0 1 6.62 4.2c1.66 3.04 2.78 9.44.45 13.1-1.56 2.45-4.14 3.6-6.2 4.54l-.89.4c-.7 1.19-1.93 3.65-2.97 5.69-3.03 5.99-6.45 12.76-9.6 16.41-2.76 3.22-7.97 4.8-15.94 4.8"/><path fill="#fff" d="M161.49 110.67c-7 0-16.81-1.04-23.89-6.04-4.06-2.84-5.88-8.65-8.4-17.88a81 81 0 0 0-2.52-8.16c-.45 1.03-.96 2.44-1.38 3.57-2.63 7.03-6.2 16.67-12.74 20.69-3.37 2.06-13.92 3.98-22.13 3.98-8.8 0-15.13-1.97-18.84-5.84-9.3-9.76-11.2-19.1-12.29-24.66-.15-.8-.35-1.8-.52-2.48-5.49-2.88-5.85-7.17-5.74-8.96a6.2 6.2 0 0 1 6.14-5.93 7.7 7.7 0 0 1 4.58 1.74l.32.22.47.14a8.3 8.3 0 0 1 6.36 6.88q1.5 6.35 3.85 12.42c3.62 9.3 6.14 10.91 6.36 11.03a32 32 0 0 0 10.34 1.53c4.75.01 9.47-.69 14.01-2.06 1.3-2.07 3.92-7.25 5.74-10.85 5.54-10.93 6.48-12.58 8.77-13.78 1.5-.74 3.17-1.1 4.84-1.04q4.2.05 8.17 1.43c4.03 1.7 6.2 6.98 10.8 20.5.82 2.43 1.9 5.6 2.56 7.24 3.48 1.68 11.38 2.84 19.75 2.84 2.36 0 4.07-.1 5.17-.2.79-1.62 1.9-4 2.87-6.03 6.69-14.2 7.7-15.82 9.44-17.15a21.3 21.3 0 0 1 10.8-3.66 6.2 6.2 0 0 1 6.43 5c.94 5.1-4 6.98-5.61 7.6-.4.14-1.04.39-1.47.59-.6 1.03-1.72 3.28-2.66 5.17-7.13 13.97-9.53 17.79-12.23 19.4-3.2 1.87-11.25 2.75-17.35 2.75" opacity=".3"/><path fill="#fff" d="M69.56 69.35a22 22 0 0 1-7.08-1.5c-1.1-.36-1.96-.7-2.55-.93-1.28-.5-4.63-1.8-4.63-5.8v-5.88h5.68a6 6 0 0 1 1.73.3c1.2.18 5.17.48 6.48.57l.77.06c1.03 0 4.26-.43 5.65-.64q1.46-.26 2.93-.29h5.01l.78 4.92a5.83 5.83 0 0 1-4.2 6.46l-1.3.44a32 32 0 0 1-8.75 2.31zm115.27 8.4a12 12 0 0 1-6.76-2.62c-2.52-1.76-4.84-3.45-4.84-6.52v-5.79h6.07q1.3 0 2.52.5c.65.28 3.1 1.03 4.14 1.28.35-.05 1.12-.35 2.5-.64q.9-.31 1.82-.42h4.93l.8 5.04a5.9 5.9 0 0 1-3.93 6.53c-.2.08-.73.4-1.03.57a18 18 0 0 1-5.17 2q-.52.07-1.05.07" opacity=".3"/><path fill="#fff" d="M144.26 186.61h20.69v18.62h-20.69z"/><path fill="#BA8449" d="M175.58 159.42q-1.2-1.54-2.57-2.93l-.65-.62-.17-.06a9 9 0 0 0-1.61-.36q-3.98-.5-7.98-.51c-5.46-.07-10.97.1-16.48.36a551 551 0 0 0-33.02 2.63c-5.48.6-10.95 1.28-16.37 2.14-2.7.43-5.4.89-8.04 1.47a49 49 0 0 0-3.85.96q-.87.25-1.71.6-.34.12-.67.3l-.1.06q-.97 1.32-1.81 2.7c-.57.93-1.1 1.99-1.6 3.03a79 79 0 0 0-2.64 6.48c-.82 2.21-1.61 4.46-2.5 6.7-.42 1.11-.86 1.89-1.33 3-.22.53-.44 1.24-.67 1.24h7.44c4.02-9.3 11.57-18.9 17.91-21.5 1.75-.7 29.86-4.04 48.44-4.04 6.89 0 11.65.25 14.18 1.24 7.61 2.93 22.76 17.06 24.32 24.3h4.31a55 55 0 0 0-4.63-13.72 66 66 0 0 0-8.2-13.47m-3.28-3.6-.02-.01.04.03z"/><path fill="#895C2F" d="M187.77 171.43a73 73 0 0 0-8.66-14.81 38 38 0 0 0-2.9-3.34l-.82-.78-.16-.15-.11-.09-.17-.12a5 5 0 0 0-1.23-.62 14 14 0 0 0-2.43-.58q-4.29-.6-8.6-.61c-5.63-.12-11.2 0-16.78.25a554 554 0 0 0-33.32 2.44 363 363 0 0 0-16.63 2.06q-4.16.63-8.27 1.47-2.1.43-4.23 1.04-1.12.32-2.2.74a12 12 0 0 0-1.94 1.03q-.5.37-.89.85-1.2 1.5-2.23 3.1a42 42 0 0 0-2 3.29 80 80 0 0 0-3.38 6.81 73 73 0 0 0-2.7 6.86 85 85 0 0 0-1.59 5.25l-.23.88-.1.44c0 .07.14-.14.5.06l.1-.29h5.05c.23 0 .46-.7.67-1.24.47-1.11.91-2.07 1.34-3.17.88-2.24 1.66-4.4 2.49-6.61a83 83 0 0 1 2.65-6.44 32 32 0 0 1 3.4-5.7l.1-.05q.33-.18.67-.3.84-.36 1.71-.6 1.87-.55 3.85-.96c2.64-.58 5.34-1.03 8.04-1.47 5.42-.86 10.9-1.54 16.38-2.14q16.48-1.8 33.01-2.63c5.5-.26 11.02-.43 16.48-.36q4 0 7.98.5.83.12 1.61.37l.17.06.65.62q1.37 1.39 2.58 2.93a66 66 0 0 1 8.19 13.45 55 55 0 0 1 4.6 13.75h4.34a81 81 0 0 0-1.93-7.55 72 72 0 0 0-3.06-7.64"/><path fill="#FFF8EF" d="M159.16 164.01c-2.33-.9-6.9-1.18-13.56-1.18-18.7 0-46.27 3.28-47.79 3.85-5.66 2.35-12.72 11.66-16.65 19.93h101.15c-1.55-6.2-15.62-19.65-23.15-22.6"/><path fill="#E5D1AE" d="M159.78 162.39c-2.53-1.04-7.3-1.32-14.18-1.32-18.62 0-46.69 3.24-48.44 3.96-6.34 2.6-13.93 12.28-17.91 21.59h1.91c3.9-8.28 10.96-17.54 16.62-19.86 1.51-.56 29.1-3.93 47.79-3.93 6.67 0 11.23.2 13.56 1.1 7.53 2.9 21.6 16.48 23.18 22.69h1.76c-1.53-7.25-16.68-21.3-24.3-24.23"/><path fill="#BA8449" d="M194.32 163.44c-1.04 2.12-6.56 7.46-11.2 6.14-2.44-.7-2 11.86 3.6 17.03h10.16c2.8-4.13 7.17-17.75 7.67-19.15.58-1.65-9.18-6.14-10.23-4.02"/><path fill="#895C2F" d="M205.08 166.34c-.13-2.8-1.88-4.62-4.8-5.29-2.36-.53-5.53 0-6.31 1.48-1.56 2.94-3.49 6.63-13.05 7.05a1.18 1.18 0 0 0 .1 2.34c9.98-.43 12.87-4.25 14.95-8.16 1.5-.6 3.19-.6 4.69 0a2.74 2.74 0 0 1 2.07 2.68c.25 5.43-5.4 15-8.5 20.17h2.79c3.45-6.2 8.27-14.69 8.06-20.27"/><path fill="#C7893E" d="M185.43 187.58c6.2-1.45 11.68-7.63 12.17-16.56.09-1.64-3.28-4.81-3.28-5.68s10.43.18 10.9 2.6-6.46 17.19-8.78 19.6c-2.32 2.4-14.62.88-11 .04" opacity=".15"/><path fill="#F8B1AB" stroke="#F38089" stroke-width=".53" d="M190.36 157.46c-.78 5.36 9.76 12.87 16.89 12.6 5.99-.2 12.65-2.99 11.68-6.27s-6.76.58-7.24-1.73 6.76-6.57 3.87-9.66c-2.68-2.85-5.8 4.54-8.98 3.47s.62-8.28-3.28-8.69c-4.64-.47-2.9 9.85-6.37 10.05-2.52.17-6.33-1.53-6.57.23Z"/><path fill="#F8B1AB" d="M193.32 157.43c1.14.85 5.17 2 5.87.5s1.25-4.4.78-4.84c-.32 1.37-.77 4-2.3 4.57-1.17.46-3.55-.1-4.35-.23m11.3-5.79c-.2.96-.94 5.48 1.36 6.11 2.06.55 3.5-.68 5.06-3.26-.84.82-3.02 2.7-4.75 1.96-1.74-.73-1.8-2.5-1.67-4.81" opacity=".5"/><path fill="#F8B1AB" d="M194.43 163.86c11.88-5.8 14.3 3.64 13.72 5.57-4.64.82-13-4.03-13.72-5.57" opacity=".25"/><path fill="#F8B1AB" d="M211.74 160.12c-2.07 2.29-1.04 4.14.27 4.34 1.7.32 3.78-1.36 3.51-1.38-.46 0-3.67 1.1-4.29-.5-.46-1.22.27-1.91.5-2.46" opacity=".5"/><path fill="#C7893E" d="M76.26 175.32c38.07 21.87 113.79-.32 109.75-7.53-5.3-9.46-7.43-15.52-19.08-14.89-11.66.63-86.3 6.52-89.35 8.84-3.04 2.31-6.3 10.71-1.32 13.58" opacity=".15"/><path fill="#FFF8EF" stroke="#E5D1AE" stroke-linecap="round" stroke-linejoin="round" stroke-width=".8" d="M159.32 43.79c17.1-1.6 27.08-19.3 37.5-16.55-6.95 4.34-13.9 13.07-23.6 27.41-2.28 3.36-18.55-10.43-13.9-10.86"/><path fill="#BA8449" stroke="#895C2F" stroke-linecap="round" stroke-linejoin="round" stroke-width=".53" d="M52.45 39.88c7.73-7.14 21.53-4.36 32.73-.3 6.38 2.33 14.63.44 15.21 1.75 1.37 3.1-6.88 9.3-13.68 9.2-6.81-.12-18.04-12.82-34.26-10.65"/><path fill="#F8B1AB" stroke="#F38089" stroke-width=".53" d="M171.05 52.19c3.91 1.16 18.82-28.1 26.06-25.2 23.04 9.22-6.95 44.48-16.55 45.18s-11.75-20.64-9.5-19.98ZM87.8 48.7c-6.37 2.75-28.96-20.85-38.52-5.65C42.97 53.08 62 73.33 75.63 75.5c13.61 2.18 15.52-28.24 12.16-26.79Z"/><path fill="#F8B1AB" d="M188.82 32.64c-1.27 4-11.54 14.39-10.1 23.31.54 3.28 4.05 13.08 5.55 12.7s5.27-2.7 4.93-2.18a43 43 0 0 1-7.1 5.07c-1.78-.96-9.6-18.98-8.5-19.98 3.34-3 13.77-18.73 15.22-18.92m-139.21 11c6.95-4.25 19.65-2.46 27.08 4.78 2.63 2.58 3.37 11.38-2.56 17.33-2.35 2.38 14-8.44 14.04-11.54.06-3.1-1.03-4.03-3.47-4.93-8.97-3.35-18.4-10.94-26.6-10.78a9.8 9.8 0 0 0-8.49 5.14"/><path fill="#F8B1AB" d="M191.6 30.41c15.87 8.77-9.69 22.02-7.81 38.53-3.32-.37-11.52-16.34-9.48-17.74 2.83-1.98 14.64-21.54 17.3-20.79" opacity=".25"/><path fill="#E5D1AE" d="m72.56 84.82-.08.3c0 .21-.12.52-.28 1.04q-.58 1.92-1.45 3.74-3.24 6.47-7.24 12.51a137 137 0 0 0-5.1 8.69 61 61 0 0 0-4.6 10.69 31 31 0 0 0-1.32 12.69c.6 4.7 2.42 9.15 5.26 12.94a34 34 0 0 0 5.07 5.64 48 48 0 0 0 6.55 4.59 89 89 0 0 0 15.51 7.34 99 99 0 0 0 17.59 4.68 79 79 0 0 0 18.84 1.03c13.03-1.03 26.58-2.33 39.75-5.84 6.55-1.76 13.06-4.02 18.83-7.69a31 31 0 0 0 7.62-6.8c.54-.68 1.04-1.4 1.62-2.07q.9-.97 1.47-2.17a30 30 0 0 0 1.81-4.94c1.77-6.82 1.44-13.96.3-20.8q-1.86-10.22-5.3-20.04c-2.19-6.51-4.74-12.86-7.23-19.1-.65-1.59-1.3-3.05-1.95-4.72a24 24 0 0 1-.8-2.55 49 49 0 0 1-.62-2.5c-.76-3.32-1.32-6.53-2.26-9.56a33 33 0 0 0-3.82-8.43 27 27 0 0 0-6.11-6.6 44 44 0 0 0-16.22-7.36 96 96 0 0 0-17.16-2.49 96 96 0 0 0-16.27.09c-4.96.47-9.8 1.71-14.37 3.69a38 38 0 0 0-18.18 16.83q-2.33 4.42-3.95 9.13a113 113 0 0 0-3.02 10.8q-.45 1.28-1.03 2.49a26 26 0 0 0-1.45 3.44c-.27.8-.36 1.22-.36 1.22zm-3.44-.83q.55-2.56.63-5.17.13-1.43.42-2.82.28-.74.65-1.46l.64-1.65q1.55-3.9 3.5-7.65a69 69 0 0 1 13.58-18 42 42 0 0 1 11.48-7.63 52 52 0 0 1 14.72-4.02q8.25-.98 16.55-.61 8.91.18 17.66 1.94c5.98 1.31 12.18 3.38 17.58 7.36 2.73 2 5.1 4.44 7 7.24a35 35 0 0 1 4.28 9.3 99 99 0 0 1 2.27 9.94q.25 1.2.55 2.38.26 1.15.69 2.25l1.78 4.7q3.62 9.55 6.45 19.66 2.91 10.11 4.14 20.57.61 5.26.41 10.55c-.1 3.5-.66 6.98-1.64 10.34q-.72 2.55-1.88 4.93l-.52 1.2c-.18.42-.27.85-.45 1.27q-.23.63-.56 1.22l-.7 1.14c-1.99 3-4.46 5.64-7.3 7.84a46 46 0 0 1-9.18 5.54 71 71 0 0 1-9.93 3.7 154 154 0 0 1-20.32 4.28 285 285 0 0 1-20.03 2.25c-6.62.5-13.27.18-19.8-.95a103 103 0 0 1-18.27-4.87 95 95 0 0 1-16.21-7.69 53 53 0 0 1-7.07-5.04q-1.66-1.44-3.1-3.1a41 41 0 0 1-2.6-3.29 31 31 0 0 1-5.84-14.75 34 34 0 0 1 1.69-14.2q1.96-5.86 4.97-11.25c1.81-3.3 3.64-6.21 5.26-8.84q3.83-5.89 6.95-12.19a25 25 0 0 0 1.48-4.13l.08-.31z"/><path fill="#FFF8EF" d="M70.82 84.38c-3.68 16.22-35.72 41.9-11.38 68.16 8.27 8.94 35.17 22.62 62.17 20.08 70.12-6.62 87.84-23.56 58.3-96.15-4.8-11.8.58-39-50.97-40.54-21.63-.65-47.66 2.31-58.12 48.45"/><path fill="#E5BFA1" d="m84.76 53.73-.14.24a16 16 0 0 0-1.49 3.42 33 33 0 0 0-1.04 11.58 53 53 0 0 0 4.39 17.72c3.15 7.3 8 13.73 14.16 18.76a48 48 0 0 0 11.55 6.98 57 57 0 0 0 13.98 3.84c5.12.7 10.3.86 15.44.47q1.99-.14 3.97-.37h.48l.49-.09q.44-.08.92-.2.95-.23 1.93-.52c2.62-.75 5.29-1.56 8.04-2.18 5.48-1.23 11.38-1.86 17.13-.6 2.88.65 5.64 1.78 8.14 3.35q.94.54 1.82 1.18l.88.69.83.73c.57.49 1.03 1.04 1.6 1.58a12 12 0 0 1 1.44 1.77 16.4 16.4 0 0 1 2.16 8.76c-.02 3-.37 6-1.03 8.92a78 78 0 0 1-1.09 4.37l-.58 2.14-.3 1.03-.11.5v.06c-.22-.15.5.42-.52-.81-1.45 0-.73.24-.94.17v-.06q2.25-3.73 3.73-7.82a43 43 0 0 0 2.46-17.02 54 54 0 0 0-3.7-16.67q-1.52-4-3.5-7.76a72 72 0 0 0-2.07-3.71 15 15 0 0 1-1.8-4.5c-.7-3-1.04-5.8-1.48-8.6-.45-2.8-.85-5.5-1.43-8.16a51 51 0 0 0-5.42-14.75 35 35 0 0 0-9.74-11.04 44 44 0 0 0-12.75-6.37 69 69 0 0 0-13.26-2.8 100 100 0 0 0-12.58-.63q-5.67.05-11.3.86a55 55 0 0 0-17.46 5.36 34 34 0 0 0-9.3 6.98q-1.05 1.14-1.97 2.36l-.6.87zm-1.74-1.03.63-.95a30 30 0 0 1 2.07-2.58 36 36 0 0 1 9.8-7.57 59 59 0 0 1 18.1-6.01 83 83 0 0 1 11.67-1.15q6.49-.22 12.96.38 7.11.62 13.97 2.63a47 47 0 0 1 13.89 6.66 39 39 0 0 1 11.05 12.1 54 54 0 0 1 5.88 15.91c.61 2.8 1.04 5.62 1.48 8.43.45 2.82.73 5.66 1.32 8.28q.2.93.51 1.83.34.87.82 1.66a74 74 0 0 1 5.52 12.2 57 57 0 0 1 3.24 17.81 45.5 45.5 0 0 1-7.6 25.95l-.13.17c-.26 0 .4.32-1.13.34-1.1-1.3-.33-.85-.55-1.1v-.2q.06-.3.16-.59l.36-1.03.66-2.07q.65-2.1 1.17-4.23 1.05-4.24 1.22-8.6a15.3 15.3 0 0 0-1.78-8.18q-.27-.44-.58-.84-.33-.42-.72-.8-.74-.75-1.53-1.5l-.8-.7-.83-.66c-.55-.46-1.16-.83-1.74-1.23a23 23 0 0 0-7.82-3.1c-5.53-1.1-11.2-.27-16.48 1.12-2.67.67-5.26 1.54-7.89 2.37l-2 .6q-.51.14-1.03.26l-.5.1h-.55q-2.03.26-4.06.44c-5.3.5-10.64.43-15.93-.2a56 56 0 0 1-14.7-3.87 50 50 0 0 1-12.2-7.24 52 52 0 0 1-14.69-19.9 55 55 0 0 1-4.4-18.54c-.3-4.15.14-8.33 1.3-12.33q.52-1.6 1.3-3.1c.19-.37.34-.56.43-.73l.14-.23z"/><path fill="#895C2F" d="m86.9 54.96-.28.56-.07.13v.26q.07.65.37 1.21a14 14 0 0 0 2.54 3.18 54 54 0 0 0 7.4 5.78 238 238 0 0 0 16.93 9.85c11.61 6.14 23.55 11.8 35.45 17.58a947 947 0 0 1 17.8 8.82q4.44 2.3 8.8 4.68 4.38 2.37 8.62 5.18 2.12 1.4 4.14 3a34 34 0 0 1 1.95 1.77l.48.5.23.24.06.06.1.13.08.12.75 1.03.37.5q.2.3.36.61l.7 1.26q.3.63.52 1.29.27.62.44 1.29.36 1.31.5 2.67c0 .44.1.89.1 1.33v1.34a33 33 0 0 1-2.14 10.06c-1.13 3.19-2.54 6.2-3.8 9.23l-2.08-1.03a43 43 0 0 0 4.53-11.14c.98-3.9 1.43-7.9 1.34-11.91-.06-1.04 0-2-.13-3l-.32-3c-.1-1.03-.35-1.97-.51-2.95q-.25-1.5-.66-2.94l-.8-2.9c-.22-1.04-.66-1.9-.96-2.86l-1.04-2.84-1.25-2.76c-.44-.9-.8-1.85-1.28-2.74l-1.46-2.66-.74-1.32-.37-.75-.24-.45-.17-.35c-.12-.25-.23-.44-.34-.73l-.35-.9-.15-.46-.11-.4-.22-.81c-1.04-4.27-1.45-8.28-2.24-12.32a70 70 0 0 0-3.1-11.6 42 42 0 0 0-5.53-10.35 35 35 0 0 0-8.34-8.02 43 43 0 0 0-10.5-5.17 27 27 0 0 0-2.81-.87c-.97-.25-1.9-.53-2.88-.76-1.96-.36-3.88-.81-5.88-1.03-1.03-.12-1.97-.3-2.97-.38l-3-.22-1.5-.11h-1.5l-3-.06h-3c-1.03 0-2.06 0-3.03.13l-2.9.25-2.94.4a63 63 0 0 0-11.45 2.92 49 49 0 0 0-10.5 5.09l-1.21.8-1.17.9c-.79.55-1.48 1.2-2.2 1.8a23 23 0 0 0-3.57 4.12zm-4.94-2.82c2.58-3.73 5.9-6.9 9.75-9.31a55 55 0 0 1 11.7-5.83A69 69 0 0 1 116 33.9l3.2-.4 3.28-.24c1.11-.1 2.06-.08 3.16-.1h3.2l3.18.13 1.59.07 1.59.16 3.18.3q1.53.2 3.16.46c2.07.27 4.21.8 6.31 1.24 1.03.27 2.07.6 3.1.88q1.56.45 3.1 1.04a47 47 0 0 1 11.6 5.98c3.6 2.56 6.75 5.7 9.31 9.3a47 47 0 0 1 5.91 11.58q2.1 6.08 3.1 12.42c.73 4.13 1.11 8.27 1.94 12.12l.16.68.1.34.09.28.16.56c.07.2.21.46.31.68l.17.36s-.1-.2 0-.08v.09l.1.17.37.7.72 1.41 1.47 2.82c.48.93.86 1.93 1.28 2.9l1.25 2.9 1.04 3.02c.3 1.03.73 1.98.96 3.03l.77 3.1q.39 1.54.6 3.1c.15 1.04.38 2.08.46 3.11l.25 3.19c.11 1.03 0 2.13 0 3.2-.03 4.25-.63 8.5-1.77 12.6a46 46 0 0 1-5.12 11.63 1.16 1.16 0 0 1-2.07-1.03c1.22-3.1 2.53-6.12 3.52-9.2a30 30 0 0 0 1.76-9.3c.1-3-.81-5.93-2.6-8.34l-.78-.96-.09-.12c-.07-.09.07.08 0 .06l-.05-.05-.2-.2-.39-.4a23 23 0 0 0-1.76-1.5 57 57 0 0 0-3.95-2.71q-8.4-5.1-17.28-9.31a951 951 0 0 0-17.9-8.44c-12-5.48-24.07-10.86-35.95-16.89a210 210 0 0 1-17.58-9.76 80 80 0 0 1-4.23-2.9 41 41 0 0 1-4.08-3.36 19 19 0 0 1-3.67-4.51 9 9 0 0 1-1.04-3.49q-.05-.52 0-1.03v-.54c0-.2.1-.42.16-.63l.2-.62.1-.28.07-.13.28-.56z"/><path fill="#BA8449" d="M83.88 53.17C74.3 67.97 85.76 125 146 117.31c6.38-.81 27.57-12.1 41.84 3.76 7.82 8.7-2.73 30.77 0 26.21 3.04-5.06 14.77-24.61-2.75-54.74-5.66-9.6 3.65-56.19-56.7-56.72-23.2-.23-38.14 7.53-44.5 17.35"/><path fill="#C7893E" d="M82.2 56.77c17.37-11.2 69.9-10.43 86.68 16.42 11.17 17.83-9.3 61.77-16.79 67.38s-18.02 10.46-45.56 3.86c-23.3-5.6 11.87-27.34-15.6-30.5-25.1-2.9-27.57-44.98-8.74-57.16" opacity=".15"/><path fill="#C7893E" d="M130.81 100.02c0 1.34-2.54 2.41-5.69 2.41-3.14 0-5.7-1.03-5.7-2.4 0-1.38 2.53-2.38 5.68-2.38 3.16 0 5.71 1.04 5.71 2.37" opacity=".25"/><path fill="#F38089" d="M120.8 92.87c1.3-.87 8.28-.58 9.12.3.85.86 2.83 4.55.58 6.08-.76.52-.82-1.66-2.53-1.3-2.07.43-1.04 3.16-2.6 3.1-2.54-.08-.1-2.94-2.33-3.34-1.66-.29-2.06 1.29-2.75 1.16-2.46-.42-1.31-4.78.51-6"/><path fill="#F38089" d="M124.6 92.94q2.55-.15 4.97.64a6 6 0 0 1 1.44 3.82 1.7 1.7 0 0 1-.64 1.27l-.14-.17a2.2 2.2 0 0 0-1.85-1.17 2 2 0 0 0-.47 0 2.7 2.7 0 0 0-1.96 2.4c-.2.8-.28.97-.52.97-.7 0-.73-.3-.7-1.17.01-.86 0-2.06-1.53-2.35a3 3 0 0 0-.5-.09c-.75.02-1.46.35-1.96.91l-.3.27a1 1 0 0 1-.87-.93 4.7 4.7 0 0 1 1.6-4.03q1.67-.55 3.44-.43zm0-.64a9 9 0 0 0-3.75.52c-1.82 1.22-2.97 5.58-.5 6.01h.08c.6 0 1.03-1.2 2.27-1.2.13 0 .26-.14.4-.11 2.22.38-.22 3.17 2.31 3.17 1.57 0 .49-2.53 2.57-2.96h.36c1.2 0 1.43 1.46 1.95 1.46q.11.05.22 0c2.25-1.52.3-5.17-.57-6.07-.51-.5-3.1-.8-5.37-.8z"/><path fill="#F6E8D0" d="M178.93 115.79c2.56 16.74-18.34 37.84-46.5 42.15-28.14 4.31-48.97-20.9-51.55-37.64s14.76-10.36 42.87-14.68 52.58-6.58 55.18 10.17" opacity=".25"/><path fill="#D7CAB2" d="M105.47 141.22a5 5 0 0 0 2 1.62q1.16.56 2.43.88 2.55.62 5.17.81 5.17.41 10.34.06 5.2-.3 10.35-1.1 2.56-.37 5.1-.93a26 26 0 0 0 4.9-1.5c.32-.15.75-.44.73-.54l.32-1.25q.38-1.27.82-2.53.93-2.44 1.94-4.86c1.34-3.22 2.81-6.37 4.32-9.51.75-1.58 1.53-3.1 2.32-4.7s1.6-3.1 2.42-4.65q1.24-2.32 2.62-4.59.69-1.12 1.46-2.28l.82-1.12q.51-.6 1.04-1.17l1.67 2.98c-3.18 1.03-6.37 2.07-9.59 2.96q-2.4.67-4.84 1.29-2.43.61-4.87 1.18c-1.62.4-3.26.7-4.9 1.03q-2.45.48-4.92.93c-1.63.31-3.3.53-4.95.81s-3.31.47-4.97.66q-2.48.32-5 .53c-1.67.13-3.32.32-5 .37l-5 .21h-5.04c-1.68 0-3.37-.16-5.04-.24l-2.52-.15-2.5-.3-2.5-.33-1.24-.16-1.26-.34-4.97-1.04.93-3.23 2.1 1.11.52.31.48.36.98.7q.48.33.93.71l.86.8.84.8.75.89q.76.86 1.4 1.8.66.93 1.2 1.91c.34.68.74 1.31 1.04 2q.46 1 .9 2.06l.77 2.07.68 2.07q.63 2.1 1.18 4.24t1.17 4.25c.22.7.41 1.4.69 2.06q.38 1.07.92 2.06m0 0q-.57-.95-.97-1.97c-.3-.68-.5-1.39-.74-2.07l-1.27-4.21a94 94 0 0 0-1.4-4.14l-.8-2.07-.93-1.96q-.52-.98-1.04-1.9c-.33-.64-.8-1.22-1.2-1.8q-.61-.88-1.34-1.66-.69-.82-1.5-1.5l-.79-.69-.95-.55-.86-.57q-.44-.27-.92-.47l-.93-.42-.4-.2-.5-.15-1.95-.52a1.7 1.7 0 0 1-1.22-2.07 1.7 1.7 0 0 1 1.8-1.23l.37.06 4.76.9 1.2.2 1.2.15 2.43.3 2.42.3 2.43.14c1.63.07 3.24.26 4.88.22h4.9l4.9-.2c1.63 0 3.26-.25 4.9-.36q2.45-.2 4.88-.52c1.63-.2 3.25-.37 4.87-.65s3.25-.47 4.86-.79c1.6-.32 3.23-.58 4.84-.91q2.4-.5 4.8-1.03 2.4-.54 4.8-1.16c1.59-.43 3.18-.8 4.75-1.27q4.75-1.3 9.4-2.9a1.72 1.72 0 0 1 1.82 2.83l-.15.16-.75.68-.8.91c-.53.61-1.03 1.3-1.55 1.96-1.03 1.37-1.96 2.8-2.9 4.24q-1.4 2.16-2.72 4.4-1.33 2.21-2.6 4.47-2.54 4.53-4.8 9.2a68 68 0 0 0-2.95 7.12l-.37 1.24q-.16.46-.6.71-.3.2-.63.34a27 27 0 0 1-5.1 1.36q-2.58.48-5.18.82-5.15.65-10.34.85-5.21.26-10.42-.16a31 31 0 0 1-5.17-.87q-1.27-.33-2.44-.9a5 5 0 0 1-2.06-1.66z" opacity=".5"/><path fill="#D7CAB2" d="M105.46 141.23q.79 1.06 2 1.62 1.17.57 2.44.88 2.56.63 5.17.82 5.17.39 10.34.08a112 112 0 0 0 15.46-1.93q2.54-.5 4.93-1.47c.35-.17.8-.41.86-.66l.33-1.26q.39-1.26.84-2.48.93-2.45 1.98-4.84 2.1-4.78 4.47-9.43a193 193 0 0 1 4.87-9.23c.84-1.47 1.75-3.02 2.7-4.5q.7-1.1 1.48-2.19l.81-1.03q.48-.56 1.04-1.04l.84 1.5a192 192 0 0 1-9.54 2.93c-1.6.47-3.22.87-4.82 1.3-1.6.42-3.23.77-4.85 1.16-1.63.4-3.25.7-4.88 1.04-1.62.33-3.27.6-4.9.92-1.63.3-3.28.52-4.92.8q-2.47.37-4.95.67c-1.65.2-3.3.4-4.96.51-1.67.12-3.32.32-4.99.38l-5.02.16h-5c-1.67 0-3.33-.15-5-.24l-2.5-.15-2.5-.31-2.49-.3-1.24-.16-1.23-.43-4.92-1.18.47-1.48 2.07 1.09.52.29.47.33.97.64c.3.21.65.4.94.64l.84.75.86.75.75.85q.8.8 1.48 1.72.67.9 1.24 1.86c.35.66.75 1.28 1.03 1.94s.64 1.34.93 2.07l.81 2.07.72 2.07q.65 2.1 1.23 4.23.56 2.13 1.2 4.23c.22.7.4 1.4.7 2.07q.38 1 .92 1.94m0 0q-.57-.95-.96-1.97c-.3-.67-.49-1.39-.73-2.07l-1.25-4.22q-.61-2.1-1.34-4.14l-.77-2.07-.89-2q-.5-.98-1.03-1.94c-.35-.65-.77-1.23-1.15-1.84q-.62-.9-1.31-1.73-.64-.85-1.42-1.6-.37-.37-.78-.73l-.92-.65-.86-.63a8 8 0 0 0-.92-.53l-.94-.5-.46-.24-.5-.17-2-.67a.87.87 0 0 1-.55-1.1.8.8 0 0 1 .95-.45l.07.14 4.82.82 1.2.17 1.23.11 2.44.29 2.44.29 2.46.14c1.64.08 3.27.26 4.93.23l4.97.03 4.94-.2c1.64 0 3.28-.25 4.92-.37a87 87 0 0 0 4.92-.51c1.63-.21 3.26-.39 4.89-.67 1.62-.27 3.27-.46 4.88-.78s3.25-.58 4.86-.92q2.43-.5 4.83-1.04 2.42-.54 4.81-1.15c1.6-.42 3.2-.82 4.78-1.29a166 166 0 0 0 9.44-2.9 1 1 0 0 1 .66.03 1 1 0 0 1 .44.5.9.9 0 0 1-.2.9l-.07.06-.83.8-.81.96q-.79 1-1.53 2.07-1.45 2.12-2.81 4.33-1.37 2.2-2.65 4.46-1.3 2.24-2.54 4.53c-1.63 3.1-3.2 6.14-4.66 9.3l-2.07 4.75q-.47 1.2-.88 2.43l-.36 1.25q-.15.39-.5.6-.3.2-.6.33-2.48.94-5.07 1.38-2.55.5-5.17.85-5.15.72-10.34.94-5.21.28-10.41-.14a31 31 0 0 1-5.17-.87 13 13 0 0 1-2.45-.9q-1.22-.58-2-1.69z" opacity=".5"/><path fill="#333" d="M105.45 141.24c4.49 6.95 40.8 2.16 41.38-.58 1.59-7.1 14.62-32 18.82-35.48-7.53 2.61-46.48 15.06-78.19 7.53 14.39 4.6 14.5 23.13 17.99 28.53"/><path fill="#333" d="M160.9 108.56c-5.46 8.22-13.83 24.26-15.6 31.26-2.16 1.18-13.45 3.28-24.55 3.28-8.86 0-12.95-1.44-13.82-2.8a29 29 0 0 1-2.32-6.55c-1.5-5.35-3.55-12.64-8.55-17.74q6.81.85 13.7.83c20.89 0 41.27-5.28 51.15-8.28zm4.8-3.37c-5.82 2.07-30.43 9.92-55.95 9.92a97 97 0 0 1-22.24-2.39c14.34 4.59 14.45 23.12 17.94 28.52 1.72 2.65 8.07 3.6 15.29 3.6 11.72 0 25.75-2.48 26.13-4.15 1.6-7.1 14.63-32 18.82-35.48z"/><path fill="#818181" d="M103.29 135.16c2.4 2.07 10.61-7.15 9.74-10.72-2.22-9.07-12.26-7.82-15.93-8.4s-10.77-3.7-7.82-2.79c8.5 2.6 24.71 1.45 26.65 2.07 2.44.73 4.14 10.61 1.74 12.84-2.4 2.22-10.9 15.15-12.17 12.94s-1.58-4.58-2.21-5.94m38.42-10.72c1.94 1.9 7.04 4.14 10.23 3a25 25 0 0 1-2.32 5.11c-22.01-1.93-16.02-17.37-14.39-18.82 1.64-1.45 22.01-4.35 25.98-5.17-6 1.3-26.26 9.33-19.5 15.88"/><path fill="#F8B1AB" d="M120.47 144.88c-7.49 0-12.41-1.03-14.3-3.1-.14-.17-.17-1.22.69-3.18 2.06-4.77 8.53-13.04 19.65-13.71.74 0 1.49-.07 2.21-.07 13.09 0 20.97 6.64 21 7.83l-.65 1.54c-.7 1.7-1.78 4.26-2.73 7.12-.93.93-14.1 3.57-25.87 3.57"/><path fill="#F38089" d="M128.75 124.55v.84c11.37 0 19.5 5.61 20.34 7.24l-.56 1.33c-.69 1.66-1.73 4.14-2.66 6.91-1.86 1.04-14.1 3.44-25.45 3.44-7.1 0-12-1.04-13.8-2.84-.07-.6.52-3.02 2.7-6.12 1.94-2.78 7.53-9.31 17.2-9.88.73 0 1.48-.07 2.2-.07v-1.16zm-.03-.31q-1.1-.02-2.25.07c-15.31.91-22.39 16.09-20.77 17.82 2.23 2.46 8.1 3.3 14.72 3.3 11.8 0 26.02-2.7 26.45-3.97 1.3-3.9 2.8-7.24 3.38-8.69s-8.28-8.56-21.55-8.56z"/><path fill="#F8B1AB" d="M105.99 141.29c-1.04 4.74 27.84-18.39 43.44-7.25 3.1-4.32-14.1-11.56-24.14-9.89-8.47 1.43-17.18 6.86-19.3 17.13"/><path fill="#FEF6E4" d="M111.82 116.48c1.4 2.6 4.2 15.3 5.36 15.64s8.27 2.32 9.31 1.88c1.03-.43.94-2.9 2.07-2.17.87.58 1.3 1.74 2.17 1.3 1.55-.77 6.2-3.62 6.95-4.92s.58-8.55 0-14.34c-3.12 1.3-20.65 3.19-25.86 2.6"/><path fill="#FFD085" d="M137.1 114.66c.54 5.95.55 12.27 0 13.27-.57 1-4.82 3.73-6.71 4.69h-.11c-.14 0-.4-.28-.61-.52q-.4-.45-.87-.79-.3-.21-.69-.22c-.74 0-1.03.75-1.3 1.36-.16.37-.36.9-.58 1.04H126a52 52 0 0 1-7.8-1.7l-.8-.2c-.54-.63-1.7-4.7-2.55-7.7a116 116 0 0 0-2.07-6.76h1.62c6.65 0 18.85-1.38 22.75-2.51zm.56-.83c-2.65 1.14-16.32 2.72-23.23 2.72q-1.27 0-2.55-.11c1.35 2.65 4.14 15.35 5.3 15.68s6.95 1.94 8.82 1.94q.23.02.45-.06c.89-.38.94-2.3 1.66-2.3q.2 0 .37.13c.73.49 1.16 1.4 1.8 1.4q.2 0 .37-.1c1.55-.77 6.2-3.62 6.95-4.92.74-1.3.58-8.55 0-14.34z"/><path fill="#EADCBE" d="M113.85 122.56c-.48-4.68 21.24-6.2 23.95-5.84 0-1.11-.2-1.88-.15-3.1-3.58 1.8-23.08 3.69-25.78 2.91q1.22 2.94 1.98 6.03"/><path fill="#FFD085" d="M124.69 119.02q.45.94.8 1.9a56 56 0 0 1 1.5 4.29c.47 1.56 1.04 3.1 1.36 4.31l.6 1.95-1.5.43-.46-2.07a167 167 0 0 0-2.2-8.72c-.35-1.17-.64-1.91-.64-1.91z"/><path fill="#F8B1AB" d="M51.16 45.14c11.54 2.94 9.65 22.88 16.55 24.43s15.88-16.4 16.75-20.35C71.16 43.57 65.01 36.9 55.5 38.88c-3.15.6-7.57 5.43-4.34 6.26" opacity=".4"/><path fill="#C7893E" d="M83.1 103.4c14.49 1.16 26.46 1.74 30.7-2.7 4.26-4.45 5.8-24.14 12.85-23.65 5.9.4 7.9 26.06 11.77 26.83s31.03 8.21 37.74 1.26 9.85-11.3 8.28-15.52-41.21-17.83-49.3-18.56c-8.1-.74-62.94 6.08-64.32 9.55-1.39 3.48-2.84 2.98-2.58 6.7.5 6.92.38 14.94 14.87 16.1" opacity=".5"/><path fill="#333" d="M123.7 74.2c1.03 0 5.17-.29 6.08.44 5.25 4.13 5.03 20.9 10.57 26.2 4.9 4.67 31.57 8.1 36.2 2.75 4.64-5.36 11.44-21.57 13.03-22.76 1.6-1.19 5.07-2.07 6.08-3.62 1.02-1.55.15-8.69-2.31-8.4-2.47.3-7.1 1.88-10 1.04-2.9-.85-16.93-9.7-52.27-4.35-3.05.39-6.14.2-9.12-.58-2.32-.58-15.64-8.27-51.11-3.18-3.55.5-8.4-1.04-10.14-.87-1.74.16-2.3 5.66-1.6 7.1.72 1.45 4.35 2.61 4.79 4.35.43 1.74 3.62 18.82 12.02 25.91 8.84 7.48 31.58 2.3 33.58.87 9.13-6.52 11.16-24.9 14.2-24.9"/><path fill="#1A1A1A" d="M93.17 61.76c15.79 0 23.86 3.15 26.9 4.33q.7.3 1.43.53 3.27.81 6.63.84 1.6 0 3.17-.23a140 140 0 0 1 20.92-1.65c16.6 0 25.24 3.72 28.96 5.31.75.32 1.28.55 1.72.68q1.24.35 2.52.33 2.94-.1 5.78-.83c.81-.17 1.58-.33 2.18-.43.8.88 1.29 4.8.87 5.71a9 9 0 0 1-2.96 1.65q-1.44.58-2.72 1.44c-.94.67-1.93 2.53-4.75 8.12-2.7 5.31-6.03 11.93-8.58 14.87-.89 1.04-4.04 2.07-10.24 2.07-9.2 0-20.81-2.47-23.45-4.99-2.4-2.3-3.68-7.59-4.91-12.7-1.38-5.7-2.72-11.1-5.83-13.54-.78-.62-2.06-.87-4.49-.87h-2.66c-2.45 0-3.53 3.03-5.33 8.07-2 5.8-4.81 13.63-9.8 17.18-1.11.67-9.32 2.77-17.6 2.77-6.32 0-11.12-1.22-13.87-3.53-3.32-2.8-7.97-9.31-11.28-24.28l-.17-.74c-.4-1.61-1.95-2.62-3.33-3.51a9 9 0 0 1-1.57-1.17 8.7 8.7 0 0 1 .5-4.6q1.2.12 2.4.35 2.81.54 5.68.63.9.03 1.8-.05 10.98-1.66 22.08-1.76m0-1.74q-11.24.06-22.35 1.73-.8.1-1.6.1c-3.1 0-6.65-1.03-8.27-1.03h-.26c-1.74.14-2.32 5.64-1.6 7.1.73 1.44 4.35 2.6 4.79 4.34.43 1.73 3.62 18.81 12.01 25.9 3.53 2.99 9.25 3.96 15 3.96 8.67 0 17.4-2.21 18.61-3.1 9.13-6.52 11.16-24.9 14.2-24.9.46 0 1.54-.06 2.67-.06 1.4 0 2.9.09 3.4.5 5.26 4.13 5.04 20.9 10.58 26.2 3.1 2.98 15.17 5.47 24.65 5.47 5.35 0 9.88-.79 11.56-2.72 4.63-5.36 11.43-21.57 13.02-22.76 1.6-1.2 5.07-2.07 6.08-3.62 1.02-1.55.19-8.41-2.17-8.41h-.14c-1.95.23-5.24 1.27-7.97 1.27q-1.06.02-2.07-.26c-2.22-.67-11.07-6.06-31.13-6.06q-10.64.06-21.14 1.72-1.44.2-2.9.2-3.16 0-6.21-.78c-1.72-.26-9.74-4.8-28.76-4.8"/><path stroke="#333" stroke-width="1.06" d="M73.74 72.46c-.8 1.04-1.3 16.5 5.18 20.7 4.27 2.75 22.44 2.16 26.06.14 5.75-3.19 11.35-17.88 9.74-19.97-2.6-3.47-21.43-8.1-35.63-4.49a13 13 0 0 0-5.35 3.62Z" clip-rule="evenodd" opacity=".5"/><path fill="#fff" d="M73.74 72.46c-.8 1.04-1.3 16.5 5.18 20.7 4.27 2.75 22.44 2.16 26.06.14 5.75-3.19 11.35-17.88 9.74-19.97-2.6-3.47-21.43-8.1-35.63-4.49a13 13 0 0 0-5.35 3.62"/><path stroke="#333" stroke-width="1.06" d="M180.37 79.23c.67 1.13-.84 16.55-7.85 19.86-4.6 2.17-22.54-.76-25.86-3.24-5.25-3.9-8.86-19.2-7.03-21.07 3.03-3.1 22.3-5.26 35.9.17a13 13 0 0 1 4.84 4.28Z" clip-rule="evenodd" opacity=".5"/><path fill="#fff" d="M180.37 79.23c.67 1.13-.84 16.55-7.85 19.86-4.6 2.17-22.54-.76-25.86-3.24-5.25-3.9-8.86-19.2-7.03-21.07 3.03-3.1 22.3-5.26 35.9.17a13 13 0 0 1 4.84 4.28"/><path fill="#010101" d="M94.41 81.85c-.47 3.36-2.18 5.9-3.8 5.66-1.63-.23-2.55-3.1-2.07-6.5.47-3.4 2.18-5.9 3.8-5.67 1.63.24 2.55 3.14 2.07 6.5m69.5 3.9c.37 3.39-.68 6.21-2.3 6.43s-3.24-2.43-3.59-5.81c-.35-3.39.68-6.26 2.32-6.43s3.23 2.43 3.58 5.82"/><path fill="#333" d="M60.93 65.8c1.97 1.32 3.83.5 4.27 3.1s6.44 25.34 13.97 27.93c12.33 4.3 27.85.1 29.92-1.25 2.07-1.34 11.95-23.37 13.61-24.24s6.91.09 8.04.58c3.4 1.44 9.64 25.35 11.38 26.56 7.6 5.36 31.93 4.92 33.1 3.47s10.35-22.34 11.94-23.59c2.39-1.81 7.9-3.04 8.04-2.24s-4.42 1.52-5.8 3.25c-1.37 1.74-10.56 21.73-13.44 23.46-2.89 1.72-24.22 4.6-34.98-2.97-5.17-3.62-7.17-25.41-11.22-26.57a11.6 11.6 0 0 0-6.52-.22c-2.53 1.67-6.08 20.12-13.68 24.83-3.01 1.87-26.7 6.42-33.74-.94-13.18-13.75-9.2-26.06-13.45-27.87-2.93-1.24-3.54-2.75-3.47-3.84s.94-.17 2.03.55m.21-4.63c-1.37-.5 5.94 2.53 8.64 2.35 2.7-.19 7.24-2.07 8.7-2.54 1.44-.46-6.82 1.04-8.84.94-2.03-.1-7.7-.47-8.5-.75m56.62 4.05c2.53 1.16 3.7 3.98 6.2 4.27 2.52.3 5.44.73 6.81-.07q2.79-1.65 5.82-2.8c1.03-.22-7.6 1.16-10.8.87-3.38-.33-7.09-2.12-8.03-2.27m61.91 3.4c-1.03-.43 3.83 3.55 5.28 3.34 1.44-.22 4.13-1.88 5.17-2.25.87-.29-3.48.87-4.78.65a41 41 0 0 1-5.67-1.73" opacity=".3"/><path fill="#333" d="M71 70.22c6.44-6.37 21.78-4.2 24.57-3.62-18.42 1.33-18.75 2.7-21.97 5.97a38 38 0 0 0 1.79 18.18c-3.17-1.82-6.55-18.4-4.4-20.53m112.88 6.85c-5.54-7.16-21.04-7.03-23.88-6.82 18.09 3.74 18.22 5.17 21 8.8a38 38 0 0 1-4.14 17.8c3.35-1.4 8.88-17.38 7.02-19.78" opacity=".3"/><path fill="#D0DDDC" d="M73.92 83.1c.64-7.55 1.3-13.57 16.19-14.04 11.92-.37 21.42 2.42 22.83 5.29.88 1.8.19 9.84-5.78 17.19 3.87-3.45 9.97-16.9 7.31-18.62-9.7-6.2-28.97-6.37-36.13-3.8-1.85.8-3.49 2-4.81 3.5-.19 1.9-.22 9.43.39 10.49"/><path fill="#D0DDDC" d="M74.37 83.61c2.27 14.62 29.06 10.18 30.66 9.6-.1.82-14.05 4.69-25.78.2-4.72-1.8-5.14-11.47-4.88-9.8m104.76 6.04c.3-7.59.38-13.64-14.34-15.94-11.78-1.83-21.56-.21-23.3 2.45-1.1 1.68-1.4 9.75 3.63 17.78-3.42-3.9-7.83-18-4.98-19.37 10.35-4.98 29.56-2.77 36.32.67a13.5 13.5 0 0 1 4.35 4.07c-.05 1.88-.93 9.36-1.68 10.34"/><path fill="#D0DDDC" d="M178.63 90.1c-4.05 14.22-30.09 6.54-31.6 5.76 0 .83 13.37 6.38 25.56 3.35 4.9-1.2 6.5-10.75 6.04-9.12"/><path fill="#fff" d="M93.16 78.56a.95.95 0 1 0 0-1.9.95.95 0 0 0 0 1.9m68.92 4.06a.95.95 0 1 0 0-1.9.95.95 0 0 0 0 1.9" opacity=".25"/><path fill="#D0DDDC" d="M61.36 64.86c2.07 2.39 3.36 2.62 6.2 2.25 27.18-3.6 42.16-3.4 49.55 3.54 1.6 1.51.72-4.41-2.32-5.17-22.87-6.05-39.45-.62-42.94-.19-3.49.44-6.07-.36-10.49-.43m75 3.48c-.6.63-.34 6.92 2.61 4.56 8.55-6.8 26.44-5.17 38.89-1.04-2.07-3.9-16.55-6.66-24.77-6.51-3.84.08-15.03 1.27-16.72 2.99" opacity=".1"/><path fill="#D0DDDC" d="M185.02 74.8c1.68 0 3.04-.43 3.04-.95 0-.53-1.36-.95-3.04-.95s-3.04.42-3.04.95c0 .52 1.36.95 3.04.95M70.44 65.77c0 .25-1.42.23-3.1 0s-2.96-.71-2.92-.97 1.43-.24 3.1 0 2.97.71 2.92.97"/><path fill="#fff" d="M239.36 205.63c-.53-5.32-4.42-7.7-8.04-7.7q-1.81.01-3.5.68l-.71.31-.6.45q-1.7 1.25-3.67 2a21 21 0 0 1 .12-3.64v-.2c.98-9.35-.97-14.82-5.82-16.23a9 9 0 0 0-2.52-.36 13 13 0 0 0-7.24 2.65 8.4 8.4 0 0 0-6.77-2.81c-4.44 0-8 2.07-9.31 5.41q-.2.5-.52 1.52a13.6 13.6 0 0 0-12.89-7.99c-3.87 0-7.66 1.08-10.95 3.1l-.27.2a33 33 0 0 0-10.35 11.92 19 19 0 0 0-8.49-10.93l-.08-.05-.36-.22c4.58-8.15 8.63-18.96 6.2-29.25-2.58-10.97-9.04-12.62-12.65-12.62q-2.36.03-4.58.83h-.2c-6.8 2.68-9.8 6.7-10.46 7.67a68 68 0 0 0-9.93 28.96q-.3 2.82-.62 5.62a10 10 0 0 0-5.54-3.7 9 9 0 0 0-2.63-.39c-3.76 0-6.84 2.3-8.46 3.84a8 8 0 0 0-6.2-3.47h-.62c-3.53.06-6.92 1.4-9.56 3.75a8.4 8.4 0 0 0-7.48-4.24h-1.28c-4.46 0-7.96 2.07-9.4 5.6l-.35 1.03c-3.5-4.34-7.96-6.38-13.94-6.38h-.6c-3.72.07-13.02 1.63-18.74 14.48a37 37 0 0 0-2.07 5.93 7.74 7.74 0 0 0-9.59 2.6c-.89 1.3-3.7 5.88-2.32 10.34a8.1 8.1 0 0 0 4.92 5.17c2.14.84 4.84 1.66 6.89 2.24a23.3 23.3 0 0 0 7.47 9.25 17.2 17.2 0 0 0 10.63 3.2 39 39 0 0 0 14.77-3.45l.28-.12.07-.05a10 10 0 0 0 5.42 2.86q1.27.24 2.57.24c3.86 0 6.57-1.91 9.05-5.6a11.6 11.6 0 0 0 10.1 5.08c.24 0 .5.13.75.13 2.3 0 5.17-.85 7.6-4.7a11.1 11.1 0 0 0 10.03 5.6c2.72-.05 5.4-.7 7.85-1.9l.12-.07q1.94-1.03 3.24-1.79a27 27 0 0 0 15.44 3.13h.48c11.38-2.24 18.77-4.97 23.18-7.03a22 22 0 0 0 14.96 7.24q1.2.1 2.38.1c4.81.01 9.56-1.17 13.8-3.45a12 12 0 0 0 4.2 2.9q1.56.66 3.25.66c7.07 0 10.34-8.4 11.28-11.26l1.72-4.57a12.6 12.6 0 0 0 5.78 3.63q2.07.6 4.21.58c7.76 0 15.26-5.5 16.44-6.4a11.3 11.3 0 0 0 4.1-10.33"/><path fill="#fff" d="M208.05 229.92a6 6 0 1 0 0-11.99 6 6 0 0 0 0 12"/><path fill="#E24C32" d="M208.06 220.4a3.51 3.51 0 0 1 1.33 6.79 3.53 3.53 0 1 1-1.33-6.79m0 .58a2.95 2.95 0 1 0 0 5.9 2.95 2.95 0 0 0 0-5.9m.1 1.01q.45-.03.86.1.28.11.43.36.16.26.15.58a1 1 0 0 1-.24.67q-.3.3-.72.35.22.12.4.3.24.27.43.57l.45.72h-.88l-.55-.81c-.18-.28-.38-.46-.38-.54l-.23-.15a1 1 0 0 0-.37 0h-.15v1.53h-.72v-3.68zm.31.63h-1.11v.93h.53q.35 0 .68-.06a.4.4 0 0 0 .2-.16l.08-.27a.5.5 0 0 0-.09-.3.5.5 0 0 0-.29-.14"/><path fill="#E24C32" d="M233.6 206.2c-.36-3.55-3.56-2.23-3.56-2.23s-5.17 4-9.7 3.55-3.1-10.6-3.1-10.6 1.04-9.3-1.69-10.07-5.96 2.43-5.96 2.43a34 34 0 0 0-6.05 10.35l-.53.17s.62-10.13-.1-12.41c-.52-1.15-5.42-1.03-6.2.98-.79 2.02-4.7 16.28-4.98 22.24 0 0-7.65 6.5-14.32 7.56-6.68 1.07-8.28-3.1-8.28-3.1s18.15-5.07 17.59-19.57c-.57-14.5-14.64-9.15-16.22-7.94-1.59 1.2-9.73 6.09-12.12 19.76-.08.47-.23 2.5-.23 2.5s-7.02 4.71-10.94 5.97c0 0 10.94-18.42-2.4-26.79-6.13-3.73-10.9 3.92-10.9 3.92s18.07-20.1 14.06-37.1c-1.9-8.08-5.94-8.95-9.66-7.65-5.63 2.24-7.78 5.53-7.78 5.53a62 62 0 0 0-9.03 26.33 1963 1963 0 0 1-4.13 34.78s-3.47 3.38-6.67 3.56-1.78-9.53-1.78-9.53 2.49-14.76 2.31-17.25c-.17-2.5-.35-3.83-3.29-4.72s-6.17 2.85-6.17 2.85-8.45 12.81-9.17 14.77l-.44.8-.45-.53s5.96-17.44.27-17.7-9.43 6.2-9.43 6.2-6.5 10.86-6.77 12.1l-.44-.54s2.72-12.61 2.14-15.72a2.85 2.85 0 0 0-3.48-2.5s-3.73-.44-4.7 1.96-4.55 18.32-4.99 23.4c0 0-9.31 6.66-15.52 6.75-6.2.1-5.51-3.89-5.51-3.89s22.5-7.7 16.36-22.92c-2.76-3.91-5.95-5.17-10.5-5.05s-10.22 2.86-13.86 11.04a28 28 0 0 0-2.74 10.44s-3.89.8-6.03-.99c-2.14-1.78-3.2 0-3.2 0s-3.66 5.23 0 6.65a75 75 0 0 0 9.3 2.63c1.01 3.83 3.3 7.2 6.49 9.55 6.67 5.07 19.48-.73 19.48-.73l5.24-3.1s.18 4.74 4 5.44c3.83.7 5.44-.05 12.1-16.23 3.92-8.28 4.15-7.85 4.15-7.85l.44-.1s-3.03 15.83-1.87 20.1 6.2 3.83 6.2 3.83 2.77.73 5-7.09a107 107 0 0 1 6.6-16.25h.52s-1.86 15.98 1.03 21.14 10.2 1.62 10.2 1.62a55 55 0 0 0 5.96-3.46 21 21 0 0 0 14.76 4.24c19.32-3.8 26.18-8.95 26.18-8.95a16 16 0 0 0 13.57 9.2 22.6 22.6 0 0 0 18.15-6.5s-.1 4.8 4 6.5c4.1 1.69 6.85-7.4 6.85-7.4l6.85-18.46h.62s.36 11.86 7.12 13.81 15.51-4.79 15.51-4.79 2.2-1.39 1.84-4.94m-191.38 1.76c.27-10.59 7.25-15.21 9.61-12.9 2.37 2.32 1.51 7.3-3.02 10.41s-6.57 2.49-6.57 2.49zm90.32-41s6.32-16.46 7.83-8.45c1.51 8-13.26 31.85-13.26 31.85.19-5.35 5.43-23.4 5.43-23.4m7.58 45.8c-4.13 10.95-14.32 6.5-14.32 6.5s-1.15-3.92 2.14-14.86 11.03-6.67 11.03-6.67 5.3 4.09 1.15 15.03m28.03-4.8s-.99-3.47 2.67-10.14c3.65-6.67 6.5-3.02 6.5-3.02s3.1 3.38-.45 8.45a10.5 10.5 0 0 1-8.74 4.7z"/></svg>