<svg xmlns="http://www.w3.org/2000/svg" width="256" height="256" fill="none" viewBox="0 0 256 256"><rect width="256" height="256" fill="#242938" rx="60"/><path fill="#000" fill-rule="evenodd" d="M112.13 28.19c-7.03.39-11.31 1.96-14.96 5.48-5.65 5.46-6.54 10.27-3.62 19.55.7 2.26 1.08 2.9.56 1-2.6-9.77-2.11-13.88 2.29-18.88 4.48-5.1 8.84-6.51 20-6.52 6.94 0 7.77.1 16.65 1.78 18.84 3.59 39.07 16.28 53.47 33.55 3.38 4.05 5.74 8.27 10.95 19.56l2.7 5.84c2.3 5 4.4 9.72 4.33 9.79-.1.09-2.4-1.94-7.41-6.5-4.87-4.43-7.26-7.01-10.4-11.22-.79-1.04-1.5-1.84-1.6-1.78-.1.05-1.47-1.1-3.04-2.59-3.46-3.24-4.88-4.44-5.07-4.25-.07.07.5.7 1.28 1.4a9 9 0 0 1 1.4 1.44c0 .1.87 1.6 1.93 3.34 4.51 7.44 8.15 17.03 8.96 23.67 1.65 13.35-2.1 23.29-14.73 39.12-2.14 2.68-2.75 3.27-2.1 2.02 1.6-3.12 2.49-12.13 1.76-18.09a92 92 0 0 1-.36-8.32c-.08-7.62-.66-11.23-2.86-17.7-1.71-5.06-2.38-5.85-.9-1.06 4.8 15.44 4.26 27-1.82 39.78-1.57 3.32-1.54 3.34-1.55-1.26-.03-17.53-2.33-26.35-10.43-40a189 189 0 0 1-3.83-6.72 26 26 0 0 0-1.3-2.33c-.08-.06-.86-1.23-1.75-2.62-2.08-3.26-4.93-7.08-5.03-6.76-.05.14.78 1.54 1.85 3.11 5.6 8.28 7.46 12.22 10.27 21.74a78 78 0 0 1 2.23 11.39c.71 6.57.65 6.78-.86 3.01-4.31-10.7-10.51-19.98-19.3-28.86a20 20 0 0 1-3.58-4.54c-2.3-3.84-7.07-9.7-7.9-9.7-.63 0-.18.78 1.3 2.23 2.3 2.26 6.21 7.48 6.21 8.27 0 .12.21.5.47.84 2.21 2.95 5.33 11.78 5.86 16.63.2 1.75 0 1.57-2.04-2.05-8.22-14.52-16.28-22.94-28.91-30.2-8.21-4.74-12.06-8.45-15.42-14.9-1.29-2.47-1.33-2.24-.07.36 3.13 6.46 6.86 10.16 15.02 14.94 8.6 5.03 16.38 11.56 19.79 16.62.29.43 1.32 1.87 2.3 3.21s2.04 2.85 2.39 3.35l.62.92-2.2 2.97-3.45 4.67c-.7.93-1.75 2.46-2.33 3.4-.58.95-1.83 2.91-2.77 4.37-2.53 3.9-2.67 3.85 4.61 1.69 8.47-2.52 8.46-2.52 5.8.06a940 940 0 0 0-13.78 14 411 411 0 0 0-17.25 19.46 112 112 0 0 1-5.92 6.33l-3.56 3.5-1.26-1.53-1.26-1.54 1.31-1.19c.72-.65 1.87-1.85 2.55-2.65a213 213 0 0 1 10.77-11.47c1.4-1.34 3.82-3.73 5.37-5.34s6.24-6.33 10.42-10.52 7.9-8 8.26-8.48-.52.27-1.95 1.68c-1.44 1.4-3.45 3.27-4.46 4.15-1.02.88-4.33 4.16-7.37 7.28-3.03 3.12-7.6 7.73-10.14 10.24-2.54 2.52-6.62 6.7-9.05 9.3s-4.49 4.68-4.56 4.63c-.08-.04-.43.26-.8.69-.83.99-.9.97-2-.4-.73-.92-1.22-1.93-2.37-4.85a28 28 0 0 0-1.85-4.1c-.22-.22-.4-.5-.4-.62s-.57-1.98-1.26-4.13c-.69-2.16-1.42-4.58-1.63-5.38s-.52-1.8-.7-2.2c-.39-.9-.53-.85 2.8-1a73 73 0 0 0 6.68-.58l.74-.08-.8 1.49c-.45.82-1.19 2.32-1.65 3.34l-2.22 4.85a26 26 0 0 0-1.38 3.36c0 .69.42.34.92-.76 1.82-4.06 4.3-9.32 4.94-10.5 1.36-2.46 1.25-2.54-2.79-2.13-1.63.16-3.75.36-4.7.43l-1.74.13 1.93-1.86c1.97-1.9 3.58-4.1 3.13-4.28-.14-.05-.74.48-1.35 1.2-1.39 1.62-4.77 5-4.9 4.88-.28-.3-.64-3.4-.4-3.54.14-.08.5-.56.78-1.07.52-.9 1.03-1.62 5.06-7.16a67 67 0 0 0 2.7-3.99c.84-1.43 2.67-3.44 2.37-2.62-1.16 3.25-1.35 5-.73 7.03.88 2.88 3 5.17 5.68 6.16 7.46 2.75 14-1.56 15.05-9.9l.24-1.93.98 1.38c.53.76 1.7 2.79 2.58 4.5 1.67 3.24 2.37 4.23 2.37 3.36 0-.48-2.6-5.63-3.74-7.4-3.49-5.4-8.47-8.55-13.2-8.33-.85.04-1.55.05-1.55.04 0-.2.67-1.19 1.38-2.03.5-.58 1.67-2.11 2.62-3.4.94-1.28 2.64-3.43 3.77-4.77 3-3.55 5.25-6.5 11.27-14.79 1.27-1.75-.54.45-5.23 6.33a468 468 0 0 1-6.7 8.27 98 98 0 0 0-3.56 4.48 224 224 0 0 1-3 3.93c-.57.71-1.18 1.5-1.36 1.76-.18.25-1.27.92-2.42 1.48a33 33 0 0 0-2.96 1.6c-1.34.91-1.21.62 1.17-2.58l3.87-5.22a91 91 0 0 1 3.1-3.9c.8-.9 2.47-2.92 3.7-4.47 1.24-1.55 3.07-3.74 4.07-4.86a49 49 0 0 0 6.24-8.47q1.17-2.12-.35.2a86 86 0 0 1-5.81 7.3c-1.66 1.8-3.45 3.89-5.15 6.03a230 230 0 0 1-3.44 4.15 86 86 0 0 0-3.67 4.67c-.94 1.3-2.4 3.28-3.23 4.38a33 33 0 0 0-2.1 3.12 17 17 0 0 1-1.89 2.56 23 23 0 0 0-3.5 5.17c-.27.6-1.16 1.88-1.98 2.87s-1.97 2.51-2.56 3.39c-1.23 1.84-1.36 1.91-1.36.76 0-.46-.1-1.56-.21-2.43a8 8 0 0 1 .01-2.9c.13-.73.3-2.76.4-4.53.33-6.64 1.47-10.35 6.95-22.48.53-1.18 1.03-2.3 1.1-2.51.52-1.46 1.2 3.1 1.18 7.96 0 3.89-.01 3.9-.63 5.58q-2.1 5.66 3.7-2.1c6.87-9.13 10.55-20.14 9.56-28.63a30 30 0 0 0-.35-2.55c-.04-.04-.02 1.3.04 2.95.34 9.39-3.38 19.55-10.49 28.66-1.8 2.3-1.84 2.32-1.43.75.78-3 .53-8.39-.6-13.22-1.24-5.35-1.28-5.6-1.39-9.1-.1-3.59-.31-4.4-.55-2.16-.24 2.2.03 6.17.58 8.5l.49 2.12-.47.61c-.26.34-.9 1.62-1.43 2.85A89 89 0 0 1 86 93.64c-.86 1.71-2.84 6.24-3.4 7.78-.72 1.94-1.84 8.77-2.21 13.44-.6 7.49 1.08 16.02 4.87 24.71.2.43.65 1.62 1.03 2.63 1.27 3.4 2.5 6.5 4.17 10.42a423 423 0 0 1 2.82 6.8c1.34 3.35 1.66 4.01 4.27 8.8 1.93 3.53 2.1 3.9 1.71 3.66-.38-.24-3.77-4.62-6.01-7.78a416 416 0 0 0-4-5.57 119 119 0 0 1-7.97-13.5c-5.97-12.18-8.12-16.74-8.54-18.1-1.95-6.36-3.63-15.3-4.4-23.46-.1-1.12-.38-3.58-.6-5.45-1.48-12.35-.1-23.56 3.89-31.83 2.93-6.06 10.24-13.85 16-17.07.9-.5 1.73-1 1.86-1.11s.3-.21.39-.21c.6 0 1.63-.45 1.46-.62-.59-.59-5.2 1.75-8.22 4.17-13.99 11.21-18.54 25.1-15.87 48.42.98 8.6 1.12 9.68 1.68 13.3 1.53 9.8 3.03 14.79 6.57 21.82 1.36 2.68 3.25 6.54 4.22 8.58 1.8 3.8 3.98 7.75 6.59 11.95 1.75 2.82 1.64 2.4.74 2.99-.41.27-2.17 1.7-3.92 3.19-5.82 4.95-6.52 5.53-7.5 6.19-1.06.7-2.65 2.32-5.6 5.67a43 43 0 0 1-3.88 3.8c-1.08.9-3.04 2.77-4.36 4.15-3.69 3.87-4.07 5.05-1.52 4.61 5.01-.85 14.27.04 20.32 1.96 2.83.9 2.8.93-1.75 1.32-11.36 1-31.05 6.3-30.64 8.27.17.85 3.12 6.46 5.36 10.2 2.11 3.5 2.09 3.45 1.54 3.63-.65.2-2.9 2.82-4.08 4.77l-2.55 4.09c-3.44 5.4-4.47 7.14-4.47 7.48 0 .06.68.1 1.5.08.84-.02 1.28-.07.98-.11-.3-.05-.53-.19-.53-.31 0-.41 2.05-4.47 3.21-6.37.62-1.01 1.53-2.54 2.02-3.38.87-1.52 1.36-1.8.64-.38-.99 1.96-3.38 8.45-3.66 9.93l-.12.65h20.52l-.74-1.03a1154 1154 0 0 0-9.72-12.7 9 9 0 0 1-1.2-1.85c-.06-.26-.28-.7-.49-.97-1.24-1.63-7.74-13.22-7.74-13.82 0-.15 2.77-1.55 3.07-1.56.08 0 .8-.27 1.6-.6 2.31-.94 13.22-3.55 19.09-4.54 1.54-.27 3.07-.53 3.4-.6.32-.06 2.39-.27 4.6-.47l4.03-.37 2.88 1.16c5.99 2.43 6.58 2.78 13.82 8.09 8.75 6.42 14.14 12.14 19.73 20.89 2.32 3.63 3.35 5.07 4.2 5.84q.52.46-.25-.5a62 62 0 0 1-2.89-4.5c-5.87-9.88-11.16-15.48-22.08-23.43-5.35-3.9-11.39-7.2-13.16-7.2-.16 0-.88-.26-1.6-.6-6.8-3.11-17.64-4.75-24.8-3.75-.59.08-.93.05-.93-.07 0-.42 4.82-5.42 6.89-7.14 1.2-1 2.87-2.59 3.72-3.54a52 52 0 0 1 6.52-6.27c1.55-1.31 3.87-3.3 5.15-4.44 2.68-2.34 6.34-5.33 6.54-5.33.07 0 .9 1.07 1.85 2.37l1.71 2.37-.47.3c-.26.18-1.52 1.1-2.8 2.07a49 49 0 0 1-4 2.7 30 30 0 0 0-5.54 3.99 47 47 0 0 1-3.7 2.88 57 57 0 0 0-5.85 4.53c-.53.5-1.6 1.32-2.38 1.83q-1.41.94-1.41 1.3c0 .48-.44.41 3.6.58 3.67.15 6.03.53 10.8 1.77 5.09 1.32 5.68 1.58 16.45 7.21 3.87 2.02 4.28 2.29 8.07 5.12 10.37 7.75 14.42 12.21 18.14 19.96 1.88 3.9 4.13 7.85 3.17 5.56-5.15-12.33-8.74-16.87-20.13-25.49-3.83-2.9-5.88-4.22-8.86-5.7-1.4-.7-3.98-2.05-5.75-2.99-6.78-3.62-15.36-6.02-21.55-6.03-3.28 0-3.25.05-.98-1.55.98-.69 2.58-1.96 3.55-2.82s2.5-2.06 3.42-2.67c.9-.61 2.24-1.62 2.98-2.24a39 39 0 0 1 6.18-4.54 66 66 0 0 0 4.73-3.2 27 27 0 0 1 2.65-1.86c.09 0 .93 1.06 1.86 2.35 3.4 4.73 5.92 7.58 6.72 7.58.82 0 .33-1.12-3.56-8.13-1.86-3.35-1.88-3.57-.35-4.22 2.96-1.25 2.68-1.19 3.16-.75 2.63 2.37 16.28 10.01 19.93 11.15 4.68 1.46 12.43 1.32 16.32-.28.86-.36 2.74-1.06 4.19-1.57 1.44-.5 2.87-1.04 3.16-1.19l.54-.28v3.46c0 5.48 1.36 9.5 4.21 12.51 1.48 1.55 2.22 1.49.87-.07a20 20 0 0 1-4.1-7.92c-.5-2.17-.9-8.02-.55-8.14 2.93-.96 11.3-6.1 14.41-8.86l1.9-1.68 2.87 1.44c6.44 3.24 9.88 5.46 17.88 11.54 7.96 6.05 14.48 12.03 14.48 13.29 0 .08-1.37.2-3.04.28-5.4.23-7.6.63-14.29 2.58-16.53 4.8-26.42 10.47-35.14 20.12a76 76 0 0 1-3.08 3c-2.73 2.55-3.86 4-5.31 6.83a51 51 0 0 1-1.94 3.46 31 31 0 0 0-1.23 2.07c-.54 1.06-1.41 3.12-1.12 2.66l1.84-2.78a47 47 0 0 0 2.4-4c1.74-3.46 3.37-5.52 6.81-8.58.92-.81 2.24-2.15 2.92-2.97 6.18-7.4 18.49-14.62 31.22-18.3l5.55-1.63c1.02-.3 2.6-.71 3.5-.9l1.66-.33 4.76 2.5a154 154 0 0 0 6.71 3.36 42 42 0 0 1 5.44 2.67c2.3 1.3 2.32 1.32 1.44 1.77-.95.48-4.78 3.38-7.64 5.79-7.84 6.6-12.9 13.17-15.88 20.66-1.23 3.1-1.96 5.2-1.84 5.31.17.18.69-.14.69-.43 0-.62 2.8-7.3 3.84-9.15 4.06-7.23 9.14-12.7 18.54-19.95 1.02-.78 2.13-1.7 2.48-2.02l.63-.59 1 .47 1 .46-.76.65c-.41.35-1.5 1.16-2.42 1.79-11.39 7.86-20.6 19.26-22.87 28.3-.35 1.42.56.4 1.19-1.33 2.3-6.32 4.63-10.15 9.4-15.44a119 119 0 0 1 12.59-11.03c.75-.52 1.72-1.32 2.16-1.78l.8-.84.9.57c1.17.74 1.18.69-.7 2.36-4.35 3.87-10.52 9.87-12.68 12.35a137 137 0 0 0-5.81 7.34c-.94 1.22-3.75 6.6-3.96 7.59l-.12.53h11.45c6.3 0 11.79-.09 12.2-.18.42-.1.77-.1.83 0 .14.23 1.45.24 1.45 0 0-.09.15-.15.34-.14.3.03.33-.15.28-1.72-.18-5.22-3.66-12.34-8.72-17.79l-1.33-1.44 1.65-1.53c.9-.85 2.76-2.55 4.13-3.78 2.42-2.2 2.88-2.7 2.86-3.23 0-.56-6.56-4.58-10.1-6.2-5.7-2.6-12.27-5.84-12.27-6.04 0-.08 1.02-.2 2.28-.27l4.01-.22c1.87-.1 2.07-.16 2.07-.6 0-1.3-4.92-6.37-10.16-10.48l-3.23-2.53-1.46-3.02c-2.65-5.44-3.91-9.2-3.57-10.56.2-.78.3-.74 4.43 1.74 5.6 3.36 9.06 4.76 11.32 4.57.6-.05.37-.72-.77-2.3-6.57-9.08-9.98-15.5-11.64-21.92a10 10 0 0 0-.63-2.01c-.04.04.2 1.2.54 2.58 1.49 6.07 4.87 12.84 9.97 19.95a22 22 0 0 1 2 3.05c-.61.6-6.33-1.92-11.2-4.93-3.31-2.05-3.77-2.25-4.23-1.8-1.08 1.09-.06 5.13 2.85 11.32l1 2.16c0 .03-1.08-.67-2.4-1.54-1.3-.87-2.99-1.97-3.74-2.44a17 17 0 0 1-2.43-1.9c-1.29-1.28-6.75-4.48-8.72-5.13-.72-.23-1.8-.69-2.42-1.01l-1.12-.59 1.4-1.53c3.07-3.34 4.31-4.82 5.58-6.69a51 51 0 0 0 5.77-11q1.04-2.77.77-.87a25 25 0 0 1-2.93 8.62c-1.13 2.15-1.2 2.38-.78 2.38.35 0 1.94-1.82 5.45-6.23l3.13-3.94c1.77-2.17 6.97-10.69 8.54-13.98 4.63-9.72 4.63-21.68 0-33.37-1.29-3.23-5.7-12.34-6.28-12.97-.43-.46-.53-.75-.24-.75.25 0 3.35 3.4 4.68 5.14 3.86 5.06 17.26 17.82 18.72 17.82.84 0 .42-1.11-4.34-11.38l-2.72-5.92c-4.95-10.9-8.38-16.72-12.53-21.24-16.8-18.3-34.1-28.57-54.2-32.18-8.25-1.49-12.48-1.8-19.07-1.44m29.51 63.8c3.65 4.08 10.2 12.64 10.2 13.32 0 .06-.18.1-.39.1-2.05 0-5.87 2.38-7.84 4.87-1.7 2.15-5.45 9.16-5.1 9.52.12.12.08.2 1.7-2.7 2.7-4.86 2.77-4.95 2.97-3.75.26 1.58 1.14 4.3 1.79 5.55 2.45 4.71 9.49 6.97 14.37 4.61.48-.23.9-.4.93-.36s.17.45.32.91c.43 1.37.9 1.04.81-.58l-.06-1.28 1.33-1.08c.73-.6 1.68-1.61 2.1-2.26 1.02-1.52.94-1.6 1.44 1.5 1 6.36 1.56 18.02 1.02 21.8q-.42 2.82 1.3-.1a56 56 0 0 0 5.58-14.46c.3-1.23.58-2.36.65-2.53.2-.5.39 1.9.4 5.21l.03 3.16-1.48 3.65c-3.38 8.36-5.68 12.06-11.05 17.8-3.2 3.43-3.25 3.48-4.4 4.36l-2.24 1.72c-3.95 3.05-11.03 6.78-16.2 8.55a74 74 0 0 0-3.88 1.45c-3.87 1.64-11.32 1.78-15.93.3-3.07-.99-14.8-7.49-19.17-10.63a73 73 0 0 1-4.77-3.64c-.17-.28 2.35-3.39 4.88-6.03a84 84 0 0 0 3.59-4c.79-.96 2.01-2.4 2.72-3.21.71-.8 2.29-2.64 3.5-4.09 1.22-1.44 3.23-3.72 4.47-5.06 1.25-1.34 3.4-3.7 4.81-5.25a566 566 0 0 1 15.6-16.07c3.67-3.5 2.87-4.26-2.69-2.52-3.2 1-8.42 2.44-8.52 2.35-.04-.05.27-.6.7-1.22s1.57-2.45 2.56-4.05c1-1.6 2.53-3.93 3.4-5.16a163 163 0 0 0 3.21-4.72c.89-1.36 1.69-2.43 1.77-2.38.15.1 2.14 3.38 4.54 7.52 1.33 2.3 1.61 2.6 2.02 2.27 1.03-.85-1-9.79-3.37-14.93-.36-.8-.66-1.52-.66-1.61 0-.17 1.19 1.06 3.04 3.14m16.08 6.36a113 113 0 0 1 3.65 6.73c0 .05-.33-.02-.73-.17-.4-.14-1-.26-1.32-.27-.6 0-.6-.02-1.25-2.29a89 89 0 0 0-2.45-7.14c-.47-1.13.46.26 2.1 3.14m-46.81 10.23c1.08.73 1.22 1.03 1.21 2.61 0 8.72-7.58 14-14.9 10.39-5.89-2.9-6.5-11.72-1.03-14.7 1.07-.58 1.1-.57.56.34-1.93 3.27-2 8.35-.17 11.12 2.18 3.3 8.37 2.79 11.02-.9l.66-.92-.4-.43c-.77-.82-.09-2.7.97-2.7.24 0 .23-2.01-.01-3.29-.16-.85-.53-1.89-1.32-3.7-.06-.16.49.14 1.23.66zm37.13-.3c-2.9 7.33 2.81 14.51 9.43 11.85 1.55-.63 1.41-.64 1.9.22 1.18 2.1-.6 3.45-4.52 3.43-5.9-.05-10.26-4.4-11.1-11.08-.14-1.16.45-1.94 2.83-3.77 1.36-1.04 1.67-1.18 1.46-.64m-46.43 1.32a2.64 2.64 0 0 1 .9 3.9c-1.35 1.76-4.4.64-4.43-1.63-.03-1.85 1.92-3.1 3.53-2.27m51.78.9c1.52 1.22 1.9 2.75.89 3.64-1.74 1.53-4 .53-4-1.78 0-2.05 1.64-3.04 3.11-1.86m11.36 3.36.7 2.5-.53 1c-.52.97-3.15 3.82-3.52 3.82-.1 0-.18-.28-.17-.63s-.05-1.15-.14-1.77c-.13-1.01-.1-1.17.24-1.4.47-.34 1.27-1.65 1-1.65-.11 0-.41-.21-.68-.48-1.1-1.1-.21-2.97 1.33-2.77l.73.1v-.8c0-1.21.26-.7 1.04 2.08m-13.34 5.1c-.3.3-2.5-1.41-2.5-1.94 0-.74.46-.6 1.6.51 1.01 1 1.14 1.2.9 1.43m-53.58-1.64c.18.33.63.9 1 1.24.66.6.73 1.06.17 1.06-.67 0-2.21-2.2-1.85-2.64.3-.37.32-.37.68.34M71.1 131.94c-3.68 7.35-6.75 11.64-12.8 17.85-5.73 5.88-5.77 5.95-3.03 5.88 3.74-.09 11.35-2.47 16.94-5.28.64-.33 1.22-.6 1.27-.6.57 0-.86 5.14-2.13 7.7-1.53 3.1-7.34 9.75-11.14 12.78-1.33 1.05-1.49 1.43-.74 1.71.53.2 1.1.12 4.49-.66 1.17-.26 3.53-.71 5.25-1 1.7-.27 3.4-.62 3.74-.78.78-.34.85-.75.1-.59-.3.06-2.08.37-3.96.68s-4.58.85-6 1.18c-3.24.76-3.24.76-1.43-.85 7.48-6.62 11.12-12 12.34-18.2.6-3.02.38-3.25-2-2.04-.77.38-2.15.98-3.07 1.33s-2.63 1.05-3.8 1.56c-3.2 1.37-8.37 2.58-10.23 2.4l-.67-.06 3.4-3.5c7.73-7.97 11.87-13.97 14.48-20.97.7-1.88.55-1.67-1.01 1.46m63.44 6.14c-.2 2.76-5.78 4.92-8.95 3.44a11 11 0 0 1-2.26-1.65c-1.33-1.29-1.86-1.52-1.4-.63a9 9 0 0 0 3.3 2.87c3.74 1.72 9.8-.74 9.42-3.83q-.09-.6-.11-.2M92.01 152.9c.87 1.31.97 1.56.73 1.77-.39.31-.5.17-1.3-1.72-.86-2-.72-2.01.57-.05m22.34 1.52c.53.58 4.09 2.83 5.21 3.3 1.94.82 4.97 1.45 8.96 1.88 1.92.21 4.06-.57 7.86-2.85q4.36-2.62-1.24.17c-4.09 2.03-5.08 2.3-7.93 2.14-4.14-.23-7.27-1.19-10.03-3.07a69 69 0 0 0-2.62-1.72l-.78-.46zm2.15-.4c.04.05.59.2 1.21.34s1.83.45 2.69.69c1.34.37 2 .43 4.67.41 1.71-.01 3.85.06 4.76.16 2.36.27 9.49-1.09 8.89-1.7-.05-.04-.42.07-.83.24-1.76.74-6.05 1.35-8.15 1.16-.86-.07-3.05-.15-4.87-.16-2.73-.02-3.39-.09-3.8-.35-.65-.44-4.97-1.18-4.57-.79m-21.6 2.4c.64.66 1.66 1.61 2.27 2.12q1.56 1.34.46 1.37c-.1 0-.76.35-1.44.79a8 8 0 0 1-1.28.72 105 105 0 0 1-2.2-5.7c.15-.12.84-.47.93-.48.06 0 .63.53 1.27 1.18m61.01 6.5c.13.15 1.96 1.17 4.07 2.25 2.1 1.09 5.4 3 7.33 4.26a483 483 0 0 0 6.03 3.86c5.84 3.64 10.64 7.71 9.91 8.4-.1.1-.97.37-1.93.6-.96.24-2.85.83-4.18 1.31-1.34.49-4.3 1.5-6.6 2.23-9.75 3.17-16.73 6.89-23.1 12.3-5.98 5.1-16.14 17.65-17.7 21.87-.83 2.22-1.13 3.87-.4 2.1 1.92-4.59 2.74-5.73 12.2-16.96 7.6-9.04 15.63-14.11 29.85-18.86l7.44-2.5a39 39 0 0 1 3.35-1.01c3.92-.9 1.2-3.94-9.58-10.78a651 651 0 0 1-6.51-4.19c-3.79-2.49-11.1-6-10.18-4.89m-44.15 8.99c-.04 4.66-.7 6.99-2.73 9.56-1.2 1.52-.87 2.08.4.67 2.43-2.68 3.43-7.14 2.63-11.63l-.28-1.55zm-4.56 12.13 1.33 2.43c.4.75 1.24 2.24 1.85 3.31 7.24 12.67 12.87 23.24 14.5 27.25.96 2.33 2.2 4.77 2.42 4.77.41 0 .33-.4-.4-2.05-.43-.96-1.08-2.47-1.45-3.36-1.87-4.46-9.1-17.86-14.45-26.73-2.73-4.53-5.24-8.26-3.8-5.62m40.7 3.46c-.81 1.03-4.23 6.27-7.64 11.72-.77 1.23-2.04 3.38-2.82 4.77-2.02 3.6-3.04 5.3-4.87 8.15-2.22 3.45-5.24 10.13-4.79 10.59q.43.47 1.27-1.93a49 49 0 0 1 4.75-9.22c.9-1.39 2.46-4.02 3.48-5.84a199 199 0 0 1 5.92-9.92c.74-1.18 2-3.28 2.79-4.68a78 78 0 0 1 2.19-3.64c.4-.62.71-1.12.67-1.12s-.47.5-.95 1.12m26.53 7.35c-1.43 1.3-6.86 10.33-7.53 12.53-.33 1.09-.33 1-.02 1 .13 0 1.1.34 2.15.77s2.03.78 2.19.78c.58 0-.05 3.15-1.47 7.36-1.15 3.41-1.62 5.04-1.54 5.29.4 1.2 9.9-12.79 9.9-14.57 0-.67-.87-1.24-3.04-1.98-1.46-.5-2.1-.8-2.05-1 .03-.14.19-.83.33-1.54a14 14 0 0 1 .56-1.96 47 47 0 0 0 1.59-6.16c.16-1.27-.1-1.4-1.07-.52m.26 1.21a43 43 0 0 1-1.17 4.2 18 18 0 0 0-.67 2.55c0 .24-.13.87-.28 1.4-.4 1.3-.28 1.52 1.12 2q2.8.98 3.45 1.68l.4.43-1.15 1.53c-.63.85-1.75 2.54-2.47 3.78-2.42 4.08-4.88 7.73-5.08 7.53-.13-.13.9-3.05 1.72-4.87 1.08-2.4 1.92-4.97 1.8-5.51l-.19-.94c-.08-.4-.34-.55-1.8-1-1.93-.58-2.77-.97-2.77-1.27 0-.8 3.23-6.5 6.3-11.12q1.05-1.57.79-.39m-120.18-.13c-.02.84 2.64 5.91 5.05 9.61 1.04 1.61 2.34 3.67 2.88 4.58 2.24 3.75 6.57 9.49 10.69 14.15.77.88 1.56 1.84 1.75 2.15.91 1.47 2.57 2.2 1.89.83-.16-.32-.36-.58-.45-.58-.24 0-6.22-7-8.5-9.93a77 77 0 0 1-4.95-7.2c-.88-1.45-2.24-3.55-3-4.67a69 69 0 0 1-4.3-7.1 19 19 0 0 0-1.06-1.84m-2.32.33c-.08 1.3 4.06 10.4 6.65 14.64 4.31 7.06 4.52 7.35 8.11 11.49a59 59 0 0 1 2.99 3.74c.9 1.26 1.32 1.7 1.63 1.7.73 0-1.15-2.58-5.75-7.88-1.8-2.09-2.23-2.7-5.51-7.88-2.41-3.8-6.98-12.76-7.9-15.47-.12-.33-.21-.48-.22-.34m153.46 14.64c.3.43.5.83.45.88a7 7 0 0 1-1.32-1.77c0-.22.34.13.87.89m.41 1.51a22 22 0 0 1 2.9 4.69c2.37 4.75 3.26 8.98 1.9 8.98-.17 0-.4.15-.54.32-.32.45-.68.17-.68-.54 0-.32-.17-1.22-.38-1.98-.2-.77-.6-2.45-.9-3.73a31 31 0 0 0-2.8-7.74c-.41-.72-.69-1.31-.61-1.31s.58.59 1.11 1.31" clip-rule="evenodd"/><path fill="#C968BC" fill-rule="evenodd" d="M112.01 28.93c-8.43.54-13.78 3.25-17.37 8.81-1.07 1.65-2.39 5.47-1.76 5.08.1-.06.17-.3.17-.53.02-1.87 1.85-.05 4.67 4.63 2.95 4.9 4.97 6.98 9.78 10.11 1.74 1.14 2.33 1.43 9.35 4.66 2.22 1.03 4.9 2.4 5.94 3.07l3.74 2.37c10.06 6.36 18.99 18.66 25.23 34.76.99 2.55 1 2.71.07 1.33a117 117 0 0 0-11.82-14.23 18 18 0 0 1-3.55-4.6c-3.66-6.13-8.89-11.57-8.74-9.09l.03.43.08-.44c.31-1.6 5.17 3.62 8.36 9a21 21 0 0 0 3.96 5.07c5.25 5.4 10.55 12.1 13.25 16.74 2.02 3.48 5.64 11.05 6.4 13.38.62 1.9.66.36.07-3.07-.17-.96-.3-2.06-.28-2.45 0-.38-.11-1.3-.27-2.04-.28-1.33-.28-.73 0 1.18.17 1.25 0 .66-1.17-3.99a139 139 0 0 0-2.23-7.78c-.62-1.88-1.46-4.46-1.86-5.74a44 44 0 0 0-1.49-3.98c-1.45-3.19-.6-1.8 1.31 2.13.5 1.01.84 1.58.77 1.26-.39-1.8-3.36-7.1-7.1-12.65-2.17-3.24-2.36-3.6-1.87-3.6.33 0 3.54 4.27 5.34 7.1a32 32 0 0 0 1.52 2.24c.16.16.7 1.13 1.22 2.15s2.15 3.91 3.63 6.42a202 202 0 0 1 3.92 6.9 19 19 0 0 0 1.22 2.2c.01-.37-2-4.1-4.53-8.42-3.22-5.5-4.03-6.95-4.69-8.38-.26-.58-.56-1.06-.65-1.06s-.32-.29-.52-.64c-.2-.34-.7-1.13-1.12-1.75-.96-1.43-.87-1.4.68.2q14.76 15.34 18.32 31.48c.5 2.25 1.11 4.88 1.38 5.84.93 3.36 1.02 7.36.2 9.29-.45 1.07-.36 1.37.1.34 3.7-8.09 3.58-20.68-.32-33.36q-1.08-3.49-.88-3.68c.19-.19 1.43 2.23 1.7 3.3.06.26.17.42.25.37.35-.22 3.33 5.64 4.79 9.43 2.76 7.17 2.8 27.28.06 30.8-.35.46-1.07 1.35-1.59 1.98l-.94 1.15.13-.76c.09-.57 0-.44-.35.53-.26.7-.54 1.4-.63 1.56-.29.5.22-.1 2.65-3.21 12.96-16.56 16.25-26.92 13.2-41.58-1.56-7.56-7.89-20.98-11.61-24.66-1.37-1.34-1.67-1.82-1.17-1.81.25 0 4 3.26 6.52 5.66.78.74 1.41 1.27 1.41 1.17s-.53-.67-1.18-1.27c-1.38-1.28-1.34-1.33.27-.38 2.66 1.55 4.74 3.55 8.69 8.34a119 119 0 0 0 6.33 6.82c3.59 3.55 4.76 4.85 4.56 5.04-.1.1-5.08-4.4-8.8-7.92A73 73 0 0 1 190 85.2a78 78 0 0 1-3.99-5.13c-.3-.4-.64-.73-.77-.72q-.25 0-.01.14c.12.08.9 1.06 1.73 2.19 3.15 4.24 5.2 6.44 10.52 11.3 4.61 4.2 6.12 5.5 6.13 5.32 0-.1.1.02.19.26.1.24.25.44.35.44s-.1-.55-.41-1.21a360 360 0 0 1-2.29-5.02c-10.17-22.68-11.57-25.05-19.7-33.65-12.48-13.17-27.3-22.5-42.87-27-3.32-.97-13.43-2.9-14.46-2.78-.19.02-.47-.01-.63-.08-1.03-.43-7.4-.6-11.79-.32M91.75 44.1c0 .7.04.98.08.63s.04-.91 0-1.26-.08-.06-.08.63m.97.1c0 .64.04.88.08.53.05-.35.04-.87 0-1.17s-.08 0-.08.64m.16 2.2c-.03.55.5 3.7.84 5.1.15.59.28.9.29.68s-.09-.74-.2-1.17-.38-1.74-.57-2.92-.35-1.94-.36-1.7m-1.26.46c-.14.71-.41.94-1.14.94-.21 0-.88.3-1.49.65l-2.17 1.28c-7.9 4.6-14.82 13.8-17.6 23.37-2.05 7.02-2.45 16.03-1.19 26.09a255 255 0 0 0 2.54 18.7c1.49 7.11 2.65 10.51 5.57 16.33 1.37 2.73 3.53 7.11 4.81 9.73 2.48 5.07 5.13 9.65 8.5 14.65.56.84 1.5 2.14 5.24 7.22 1.71 2.33 4.2 5.47 4.2 5.31 0-.04-.9-1.73-2-3.75s-2.31-4.35-2.68-5.18-.7-1.42-.73-1.32c-.08.22 1.75 3.97 3.07 6.31 1.34 2.37 1.14 2.28-.84-.35-1.44-1.92-1.66-2.32-1.57-2.8q.12-.56-.29-1.2a18 18 0 0 1-1-2.57 18 18 0 0 0-1.3-3.02c-4.38-7.25-10.24-21.93-12.22-30.62-1.41-6.24-1.77-14.56-.8-18.76 1.75-7.54 5.08-15.54 7.53-18.07a13 13 0 0 0 2.72-3.88c.3-.88.34-.92.43-.45.07.37-.07.77-.46 1.36-.31.46-.57.95-.57 1.08s.3-.24.67-.86c.67-1.1.67-1.12.4-2.03-1.06-3.62-1.14-11.87-.1-10.83.1.1.2 1.36.23 2.8.02 1.45.15 3.3.29 4.1s.2 1.02.15.48c-.15-1.66-.33-7.4-.22-7.3.15.14 1.03 3.33 1.31 4.77.13.64.57 2.35.98 3.8 1.05 3.72 1.3 6.46 1.2 13.24-.04 2.16-1.01 4.5-1.41 3.38q-.13-.45-.23.31c-.06.38-.09.7-.07.73.1.12 2.96-3.62 4.2-5.5 4.7-7.2 8.05-18.04 7.47-24.23l-.14-1.46-1.18-1.06c-1.49-1.32-4.4-4.5-4.4-4.82 0-.12-.61-1.48-1.37-3.01a23 23 0 0 1-1.44-3.37 26 26 0 0 0-.76-2.73 49 49 0 0 1-1.84-7.03c-.15-1.13-.16-1.13-.3-.43m2.5 6.3c.25 1.47.35 1.84.5 1.84.1 0 .12.12.07.27-.06.15.03.56.19.92l.3.66-.1-.58c-.07-.37.25.08.86 1.2a27 27 0 0 0 4.7 6.5q1.74 1.77.38.3a31 31 0 0 1-6.27-9.85l-.61-1.56c-.07-.16-.07-.03-.02.3m1.73 2.34a32 32 0 0 0 13.13 13.71l3.92 2.3c8.66 5.05 14.66 10.61 21.05 19.53 1.72 2.4 2.92 3.93 2.58 3.28-.4-.77-5.2-7.15-6.79-9.05a62 62 0 0 0-16.54-13.82l-3.8-2.2c-6.47-3.78-10.5-8-13.72-14.43a12 12 0 0 0-1.04-1.84c-.1-.06.45 1.07 1.2 2.52m81.68-2c0 .04.28.32.63.64l.63.57-.57-.63c-.53-.6-.7-.72-.7-.57m5.44 5.64c.47.5.9.92.92.92.15 0 0-.17-.87-.98l-.92-.87zm-80.33 9c0 .43.04.58.08.34.05-.24.05-.6 0-.78s-.08.01-.08.44m22.53 6.31c0 .1 1.1 1.74 2.47 3.65 3.82 5.36 9.06 14.78 9.06 16.29 0 .3.08.46.2.38q.16-.09.07.08c-.07.12.65 1.51 1.59 3.1a205 205 0 0 1 2.55 4.41c.46.84.88 1.48.94 1.42.64-.65-2.85-12.77-3.69-12.77q-.16-.02-.07-.18c.13-.2-.81-2.18-1.13-2.4q-.19-.12-.06-.14c.1 0-.07-.42-.36-.93-.3-.5-.85-1.51-1.24-2.24-1.53-2.86-6.84-9.29-7.68-9.3a7 7 0 0 1-1.44-.77c-.67-.42-1.21-.7-1.21-.6m-35.21 8.39c0 .16.1.73.25 1.26.17.58.28.78.28.49 0-.54-.5-2.22-.53-1.75m.56 2.36c0 .05.2 1.1.46 2.32.73 3.5.97 5.9.87 8.87-.05 1.48-.03 2.44.04 2.12.46-1.95.09-7.33-.78-11.37-.32-1.51-.59-2.39-.59-1.94m-24.26 1.82c0 .96.03 1.38.07.93s.04-1.24 0-1.75-.07-.14-.07.82m21.26 2.35a58 58 0 0 1-1.78 3.91c-.7 1.44-1.45 3.03-1.67 3.53-.9 2.08-1.73 4.2-1.66 4.26.05.04.37-.65.72-1.54.35-.88 1.12-2.62 1.7-3.85 1.86-3.92 3.35-7.27 3.27-7.34-.04-.05-.3.42-.58 1.03m67.3 6.6c.21.84 2.44 7.2 2.45 6.97.02-.3-1.81-5.8-2.22-6.67-.18-.38-.28-.51-.22-.3m1.59.69c.16.32.34.58.4.58s-.04-.26-.2-.58a2 2 0 0 0-.4-.59c-.06 0 .03.26.2.59m16.11 3.2c.55 1.91 1.28 4.03 1.3 3.76 0-.37-1.12-3.88-1.3-4.04-.06-.06-.06.07 0 .29m-90.53 1.96c-.13.28-.22.7-.22.93q.03.36.29-.44c.3-.98.27-1.23-.07-.49m-.58 2.42c-.13.55-.23 1.2-.22 1.43.01.24.14-.14.3-.84.14-.7.24-1.34.21-1.44s-.16.29-.29.84m75.89-.71c-.02.36.5 1.5.67 1.5.06 0 0-.2-.12-.43-.13-.24-.3-.65-.38-.92q-.15-.51-.17-.15m16.54.72c0 .16.09.46.18.68l.17.39.01-.4c0-.2-.07-.51-.18-.67-.17-.26-.19-.26-.18 0m.39 1.46c0 .21.07.7.18 1.07q1.02 3.68 1.04 11.87c.01 4.97.03 5.25.16 2.73.2-3.75.03-7.84-.45-11.3-.38-2.72-.9-5.18-.93-4.37m-16.34.2c0 .4.52 1.89.54 1.55 0-.1-.11-.59-.26-1.07s-.28-.7-.28-.49m4.83.55c.28.74.99 1.98.99 1.74 0-.25-.96-2.2-1.08-2.2-.05 0 0 .2.1.46m-81.78.51-.53 3.69a33 33 0 0 0-.37 3.5c.03.79.05.64.37-2.03.12-.96.34-2.56.5-3.54.17-.98.27-1.95.22-2.14-.04-.2-.13.04-.2.52m77.53 1.17c0 .27.11.92.26 1.46.35 1.26.37.73.02-.78-.14-.64-.27-.95-.28-.68m5.35.68a40 40 0 0 0 1.63 4.25c.01-.32-1.15-3.57-1.49-4.15q-.26-.46-.14-.1m-11.02 2.29c.33.56.8 1.4 1.03 1.85q.72 1.43.83.09c.02-.34-.03-.58-.12-.52q-.15.07-.06-.2c.07-.17.02-.3-.13-.3q-.21 0-.12-.12c.07-.07-.02-.25-.21-.4q-.31-.27-.05-.14.3.15-.07-.27c-.2-.23-.44-.38-.53-.32-.08.05-.25-.08-.37-.3s-.34-.4-.51-.4c-.23 0-.16.24.3 1.03m38.78-.25c0 .38.04.53.1.35a2 2 0 0 0 0-.69c-.06-.18-.1-.03-.1.34m-78.29 1.28q-.02.27-.2.18c-.12-.08-.2.12-.18.52.01.36-.06 1-.17 1.4-.18.71-.12.9.96 3.02a23 23 0 0 1 1.35 3.05c.11.42.36.97.56 1.21l.37.44 1.24-.58a8 8 0 0 1 1.49-.59q.22-.02.13-.2a.25.25 0 0 0-.34-.06q-.17.1-.09-.06c.06-.1-.12-.45-.4-.76-.3-.3-.5-.6-.46-.62.14-.14-.42-1.2-.58-1.1q-.15.06-.04-.24.15-.36-.13-.17-.25.15-.13-.05c.18-.3-.27-1.23-.52-1.08q-.16.1-.06-.1c.16-.26-.39-1.4-.67-1.4q-.18-.02-.08-.2.09-.17-.1-.19t-.1-.2q.1-.17-.1-.19-.19-.01-.1-.2c.08-.1 0-.24-.17-.3-.17-.07-.26-.2-.2-.28.05-.1-.06-.26-.25-.37s-.26-.2-.16-.2.01-.15-.2-.31q-.32-.28-.13-.19c.4.2.27-.06-.15-.29-.31-.17-.39-.14-.39.1m52.26 1.74.6 2.44c.24 1.01.45 1.66.46 1.43.02-.47-.92-4.19-1.1-4.35-.06-.06-.04.16.04.48m-85.66 4c0 1.44.03 2.03.07 1.3s.04-1.9 0-2.62-.07-.13-.07 1.31m85.19.83a2 2 0 0 0-.27.52c0 .06-.15.22-.35.36s-.33.33-.27.42c.06.1 0 .23-.12.31q-.23.14-.08-.13c.07-.15-.2.08-.6.5-.42.43-.8.76-.88.74-.32-.1-.82.82-.9 1.7-.11 1.14-.14 1.14 1.74.46 2.42-.87 3.02-1.3 2.92-2.11-.04-.38-.16-.69-.25-.69-.1 0-.13-.22-.06-.48.07-.3.04-.5-.09-.5q-.19-.02-.1-.54c.15-.76-.32-1.15-.7-.56m1.57-.25c0 .16.12.86.26 1.55.16.77.27 1.04.28.68a7 7 0 0 0-.26-1.55c-.15-.54-.27-.84-.28-.68m-72.82 1.61c0 .04.28.32.63.64l.63.57-.57-.63c-.53-.6-.7-.73-.7-.58M80 121.52c.03 3.3 1.9 11.54 2.82 12.48.19.18.09-.16-.76-2.63a28 28 0 0 1-1.69-7.9c-.21-2.32-.38-3.18-.37-1.95m87.33.83c.06.59.17 1.55.25 2.14l.15 1.07.02-.88c0-.48-.1-1.44-.26-2.14l-.28-1.26zm-7.75 1.14c-.46.3-.49.37-.25.7.15.2.3.44.32.53.04.1.2.13.39.06q.31-.14.2-.44-.12-.31.13-.15c.2.12.2.05 0-.3-.15-.26-.24-.54-.22-.62.05-.18.05-.18-.57.22m-57.24.16c.24.05.59.05.78 0 .18-.05-.02-.09-.44-.08-.43 0-.58.04-.34.08m73.38 1.72c.08.64.13 3.44.12 6.22-.03 4.83-.1 5.68-.76 9q-.16.69.08.12c.81-1.83 1.3-13.58.65-15.73-.22-.74-.22-.72-.09.39m-72.6.82c.35.04.87.04 1.16 0 .3-.05.01-.08-.63-.08s-.88.03-.53.08m64.8 1.8.25 4.97.13 3.11.02-2.72c0-1.5-.1-3.74-.25-4.97l-.26-2.23zm2.43 7.73c-.46 1.13-.8 2.1-.75 2.13a12 12 0 0 0 .9-1.99c.45-1.13.78-2.1.74-2.14s-.44.86-.9 2m-87.43-1.4c0 .28 1.64 4.56 1.71 4.48s-1.47-4.4-1.62-4.56q-.09-.06-.1.08m86.01 4.66c-.3.65-.47.84-.59.66q-.16-.25-.16.42c0 .63.01.65.26.29.41-.6 1.1-2.1 1-2.2-.04-.04-.27.33-.5.83m-81.23 8c.32.9 1.01 2.6 2.8 6.8a313 313 0 0 1 2.03 4.85c.07.2.17.32.23.27s-.62-1.75-1.48-3.77a358 358 0 0 1-2.36-5.62c-.69-1.72-1.57-3.56-1.22-2.54m-31.26 4.52-1.26 1.31 1.32-1.26c1.22-1.17 1.4-1.37 1.26-1.37-.03 0-.63.6-1.32 1.32m36.75 4.07q-.32.09-.34.16c0 .19 1.15 2.69 1.16 2.5 0-.11-.21-.7-.47-1.3-.73-1.62-.28-1.49 1.99.63 2.25 2.1 2.2 1.81.4 2.9l-.76.45-.58-1.22q-.93-1.95.04.54l.4 1 1.28-.75c.71-.42 1.38-.79 1.5-.83.1-.05-.26-.49-.82-.98a52 52 0 0 1-2.14-2.07 9 9 0 0 0-1.23-1.14zm65.34 4.6c-2.77 2.32-2.63 2.1-1.55 2.5 1.06.38 1.16.27.15-.16l-.73-.3.86-.71 2.23-1.9c1.31-1.15 1.39-1.18 1.82-.9.25.16.49.26.53.22s-.16-.22-.45-.39c-.53-.3-.54-.3-2.86 1.65m-71.72-.4c-.7.55-2.74 2.28-4.54 3.83s-4.52 3.88-6.03 5.15a64 64 0 0 0-4.42 4.08 62 62 0 0 1-5.95 5.8c-1.67 1.4-6.3 6.23-6.3 6.57 0 .09.45.07 1.01-.03 1.5-.28 8.34-.26 10.27.03 5.84.86 10.76 2.14 13.91 3.61a9 9 0 0 0 1.79.7c1.84 0 7.92 3.3 13.4 7.3 10.88 7.92 16.32 13.74 22.47 24.02 1.69 2.83 2.56 4.1 3.37 4.92.41.42.68.46.34.05-.13-.16-.2-.29-.15-.29.34 0-.34-2.14-1.07-3.35a78 78 0 0 1-2.41-4.63c-4.65-9.59-14.9-19.34-26.44-25.15a332 332 0 0 1-5.06-2.63c-4.97-2.64-6.45-3.2-11.68-4.51-5.03-1.26-6.1-1.43-9.78-1.56-4.73-.16-5.14-.49-2.63-2.16a23 23 0 0 0 2.19-1.68 65 65 0 0 1 6.13-4.75 40 40 0 0 0 3.7-2.93c1.9-1.73 2.9-2.45 5.84-4.2a54 54 0 0 0 4.14-2.84c1.2-.92 2.3-1.7 2.42-1.75.2-.07-2.9-4.59-3.16-4.6-.05 0-.66.44-1.36 1m75.43-.63c.06.1.22.2.35.2s.45.11.72.25l2.04 1.1c.86.46 1.67.92 1.8 1.03s.3.15.36.1c.14-.15-4.88-2.88-5.3-2.88q-.08.02.03.2m-72.52 2c1.44 2 1.53 2.18 1.13 2.33-.13.05-1.2.82-2.36 1.7a61 61 0 0 1-4.38 2.96 50 50 0 0 0-3.88 2.63l-1.61 1.26-1.57-.42a6 6 0 0 0-2.56-.29c-1.17.16-1.27.3 1.52-2.05 1.07-.9 2.69-2.3 3.6-3.11 4.64-4.15 8.16-7.03 8.5-6.96.12.02.85.9 1.6 1.95m3.14-1.8c0 .27.55 1.39.56 1.13 0-.06-.12-.42-.28-.78-.15-.36-.28-.52-.28-.36m75 2.84c.02.35-4.01 3.35-4.53 3.37-.15 0-1.37-.56-2.7-1.26a21 21 0 0 0-2.51-1.2c-.04.04.91.58 2.12 1.2a93 93 0 0 1 7.74 4.58c.59.4 2.69 1.75 4.67 3 10.79 6.85 13.68 10.12 9.73 11-1.9.43-15.57 5.08-18.49 6.29q-11.8 4.88-19.58 13.04c-2.14 2.24-10.76 12.61-11.92 14.35-2.77 4.13-4.24 8.77-2.7 8.52.57-.1.65-.06.64.3-.03.81.6.6 1.17-.38a56 56 0 0 1 1.73-2.7q2.17-3.18 1.97-3.34c-.05-.05-.23.19-.41.53s-1.06 1.7-1.95 3.03a30 30 0 0 0-1.75 2.8c-.1.35-.68.58-.68.28 0-.32 1.67-3.57 2.32-4.53.41-.6 1.2-2.02 1.77-3.14a22 22 0 0 1 5.15-7 101 101 0 0 0 3.5-3.51c9.21-9.89 18.74-15.53 33.58-19.9 8.47-2.48 10.58-2.9 16.5-3.2 1.42-.06 2.58-.16 2.58-.21 0-.59-3.9-4.58-7.53-7.71-6.76-5.83-20.53-15.4-20.43-14.2m-95.25 8.12-.67.8.82-.76c.45-.43.82-.8.82-.83 0-.22-.4.1-.97.79m-4.59 5.04-1.16 1.22 1.22-1.16c1.13-1.08 1.3-1.28 1.16-1.28-.03 0-.58.55-1.22 1.22m127.38 6.52c.35.46.68.83.73.83.19 0-.31-.7-.82-1.17-.5-.45-.5-.42.1.34m-10.78 4.54c-1.88.45-5.36 1.51-4.98 1.53.14 0 1.1-.24 2.14-.55 3.5-1.06 5.02-1.3 5.69-.91l1.03.58c.42.21.24.3-2.1.96-3.57 1-5.44 1.74-10.87 4.28-8.32 3.88-10.07 5.2-21.15 15.97-3.76 3.65-15.6 18.43-15.6 19.47 0 .06 9.19.12 20.42.12h20.4l.12-.57c.2-1.04 2.67-7.1 3.57-8.78 3.88-7.26 10.69-14.62 19.28-20.85a38 38 0 0 0 2-1.5c.05-.07.23-.16.39-.2.16-.03.32-.14.36-.24s.14-.13.24-.07q.16.09.18.03c0-.29-5.14-2.98-7.34-3.84a63 63 0 0 1-4.73-2.32c-5.14-2.74-6.71-3.51-7.11-3.5-.21.01-1.08.19-1.94.4m-6.33 1.78c-1.68.5-2.97.94-2.53.86.82-.13 3-.74 3.31-.92.38-.21.08-.19-.78.06m-4.18 1.23c-.43.14-.6.26-.39.26s.65-.11.97-.26c.74-.34.44-.34-.58 0m-91.39.32c-.8.1-2.29.25-3.3.33-1.53.14-1.65.17-.69.18.65.01 2.18-.1 3.41-.23l2.24-.25 1.36.55c1.76.71 2.14.7.48-.01-1.73-.75-1.84-.77-3.5-.57m88.35.63c-1.71.6-2.8 1.07-2.48 1.08.06 0 .72-.22 1.46-.5.73-.28 1.75-.63 2.26-.79.5-.15.92-.31.92-.37 0-.15-.23-.09-2.16.58m-97.88.53c-1.66.3-2.54.52-1.95.46 1.52-.13 6.46-1.04 5.64-1.03-.37 0-2.03.26-3.7.57m14.68.27c.2.16.52.28.68.28q.3 0-.18-.28c-.64-.37-.98-.37-.5 0m-19.45.58c-.76.2-.84.25-.4.26.33 0 .94-.11 1.37-.25 1-.33.3-.34-.97 0m21.02 0 2.14 1c.86.39 2 .98 2.53 1.32 1.51.96 1.54.97 1.38.73-.23-.37-2.64-1.73-4.55-2.56-1.7-.74-2.77-1.08-1.5-.48m78.15 0c-.27.15-.4.28-.3.28s.42-.13.69-.28.4-.28.29-.28c-.1 0-.41.13-.68.28m-101.41.48c-.27.09-1.45.36-2.63.6-3.2.66-8.5 1.94-8.9 2.15-.52.28 2.36 5.59 5.6 10.3a93 93 0 0 1 2.76 4.28c2.61 4.33 5.67 8.35 10.9 14.3a175 175 0 0 0 3.12 3.56l.34.44 20.1-.05 20.1-.05-1.25-1.85c-5.21-7.65-11.14-12.8-23.18-20.15-6.2-3.77-8.06-4.64-16.26-7.58a76 76 0 0 1-7.53-3c-1.97-.88-5.1-1.74-6.52-1.8-.24 0 .3-.19 1.2-.4q3.69-.9 3.03-.9c-.22 0-.61.06-.88.15m96.83 1.64a63 63 0 0 0-12.84 8.17 307 307 0 0 0-12.65 12.66c-.62.84-2.28 3.84-2.18 3.94.04.04.48-.7.99-1.62 1.29-2.36 2.32-3.62 4.73-5.83a63 63 0 0 0 3.07-3 61 61 0 0 1 21.51-15.35c1.06-.45 1.63-.8 1.26-.8-.1 0-1.85.83-3.89 1.83m12.61 1.19a36 36 0 0 1-1.42 6.03c-.3.96-.68 2.3-.83 2.96l-.27 1.2 2.04.69c3.66 1.23 3.78 1.9 1.11 6.03l-1.97 3.14c-2.98 4.82-5.76 8.3-6.24 7.81-.14-.14.26-1.61 1.5-5.48 2.33-7.24 2.35-6.98-.67-8.17l-2.41-.95.49-1.38c.83-2.33 5.54-10.2 7.14-11.94 1.01-1.1 1.6-1.08 1.53.06m-79.37.37c.32.28 1.9 1.45 3.5 2.6 8.68 6.2 14.58 12.13 19.33 19.41 3.8 5.81 4.53 6.87 5.5 7.93a6 6 0 0 0 1.18 1.12c.1 0-.33-.53-.95-1.18a28 28 0 0 1-2.38-3.1l-3.15-4.81c-5.26-8.03-13.21-15.66-22.93-22.03l-.68-.44zm-45.9 1.23c-.82.38-1.5.78-1.5.9 0 .57 5.42 10.3 7.38 13.26.29.43.76 1.26 1.04 1.85.3.6.94 1.54 1.44 2.12.5.57 1.8 2.2 2.88 3.63l4.56 6.01 2.6 3.43h1.05c.58 0 1.05-.07 1.05-.15 0-.28-2.68-3.73-4.69-6.03a37 37 0 0 1-4.7-6.28l-2.52-4.09c-2.44-3.94-5.29-9.86-6.44-13.39l-.64-1.94zm157.17.9c-.23.24-.36.52-.28.6q.12.14-.07.05c-.12-.07-.33 0-.46.16s-.95.78-1.8 1.39c-10.86 7.6-20.14 19.12-22.21 27.56l-.13.53h2.88l.13-.65c.96-5.16 10.63-16.93 22.3-27.17 1.96-1.71 1.99-1.78 1.04-2.43-.9-.6-.87-.6-1.4-.05m4.88 29.13c0 .37.04.53.09.34s.05-.5 0-.68-.09-.04-.09.34m-8.55 1.12c.94.03 2.43.03 3.3 0 .89-.04.12-.07-1.7-.07s-2.54.03-1.6.07m6.6-.02c.2.05.5.05.69 0 .19-.04.03-.08-.34-.08-.38 0-.53.04-.34.09" clip-rule="evenodd"/><path fill="#FBCF3A" fill-rule="evenodd" d="M103.76 72.79c0 8.07-4.05 19.07-9.48 25.81-.56.7-1.18 1.57-1.37 1.95s-.69 1.07-1.11 1.56c-3.56 4.08-3.6 4.06-3.49-1.4.13-5.83.16-5.82-2.2-.78a51 51 0 0 0-2.28 5.49c-.62 2.49-1.22 11.19-.95 13.85l.15 1.49 1.84-2.32a23 23 0 0 0 2.27-3.28 22 22 0 0 1 3.37-4.98 22 22 0 0 0 2-2.69c.42-.73 1.4-2.17 2.18-3.2s2.14-2.9 3.03-4.13a93 93 0 0 1 3.5-4.48c1.03-1.23 2.88-3.46 4.1-4.96s3.16-3.8 4.33-5.1 2.95-3.4 3.96-4.67l1.83-2.3-.44-.33c-.25-.19-2.41-1.46-4.82-2.82-4.22-2.4-5.3-3.18-6.07-4.44l-.35-.58zm38.06 24.4c1.15 3.82 1.59 7.67.95 8.3-.4.41-.4.41-1.08-.32-.32-.35-.53-.48-.46-.3q.14.34-.46.93c-.32.33-.62.74-.65.91-.15.8-.55.29-1.72-2.2-1.24-2.61-3.33-6.36-3.67-6.57-.1-.06-.5.4-.9 1-.4.62-1.6 2.35-2.64 3.85s-2.69 4-3.64 5.56a91 91 0 0 1-2.36 3.68c-.34.46-.59.87-.56.9.07.06 4.11-1.05 7.73-2.15 6.88-2.07 7.42-1.36 2.58 3.4a485 485 0 0 0-24.17 25.69c-1.22 1.44-2.8 3.28-3.5 4.08s-1.9 2.2-2.63 3.12c-.74.9-2.41 2.75-3.71 4.09-3.14 3.22-3.05 3-1.69 4.31 2.84 2.75 14.64 11.64 20.44 15.39 2 1.3 10.07 1.69 13.47.65 10.37-3.16 20.63-8 22.04-10.4.19-.32.66-.96 1.05-1.42q9.75-11.6 5.8-31.94l-.47-2.58c0-.05-.17-.1-.38-.1s-.45-.1-.53-.24q-.16-.23-.37.52l-.21.76-.24-.59-.25-.58-1.2.33c-5.65 1.57-10.5 1.17-15.6-1.28-3.33-1.6-4.66-2.72-4.21-3.55.16-.3.14-.41-.08-.5-.54-.2 1.84-5.08 4.2-8.6 1.54-2.3 3.15-3.8 5.1-4.76s1.9-.77.5-2.87c-2.97-4.44-6.36-8.61-6.98-8.61-.08 0 .15.94.5 2.1m-52.76 31c-1.71.19-3.4.35-3.73.36l-.61.02.68 2.28c.72 2.44 2.1 6.26 2.36 6.52.08.08.75-1.14 1.48-2.72s1.8-3.77 2.36-4.87.92-1.98.8-1.96zm45.84 10.27c.01 3.15-6.18 5.55-9.76 3.78-1.42-.7-3.48-2.68-3.48-3.34s.36-.48 1.78.85c1.52 1.44 2 1.73 3.4 2.02 2.68.57 7-1.27 7.38-3.13.25-1.24.32-1.39.5-1.1.1.15.17.56.18.91m-8.8 13.08c1.5.46 2.2.48 4.64.08a8 8 0 0 1 3.65 0c.98.16 2.3.35 2.94.42 1.06.11 3.47.89 3.86 1.24.5.46-4.37 3.96-7.81 5.62l-1.88.9h-4.1c-4.66-.01-6.05-.23-8.34-1.34-1.63-.78-3.78-2.3-3.96-2.8a6 6 0 0 0-.88-1.17c-1.08-1.2-1.05-1.21 3.37-2.1 2.19-.44 4.28-.9 4.66-1a7 7 0 0 1 3.86.15m-10.67 23.86c0 2.4-3.53 9.36-5.56 10.95l-.49.39 1.65 2.69c4.77 7.83 12.8 22.7 14.63 27.08 1.07 2.56 1.01 2.58 1.94-.45 1.25-4.13 1.68-5.21 2.92-7.5.67-1.22 1.65-3.1 2.17-4.18a154 154 0 0 1 5.39-9.9c2.23-3.74 2.51-4.34 2.53-5.47a49 49 0 0 0-1.05-8.62c-.32-1.41-.57-2.61-.57-2.65s-.99.27-2.2.7c-3.26 1.16-3.95 1.31-6 1.32-4.24 0-10.17-1.7-13.62-3.92-1.73-1.1-1.74-1.1-1.74-.44m58.68 20.95c-2.46 3.4-6.64 10.94-6.3 11.37.1.12 1.06.5 2.11.83 3.3 1.05 3.37 1.75.85 7.58-.88 2.04-1.85 4.7-1.71 4.7.19 0 2.02-2.78 4-6.05a72 72 0 0 1 2.99-4.66c1.63-2.08 1.48-2.43-1.45-3.4a9 9 0 0 1-2.09-.97l-.5-.44.31-1.05c.17-.57.37-1.35.44-1.73.06-.37.37-1.47.68-2.43.56-1.72 1.17-4.19 1.05-4.19-.03 0-.2.2-.38.44" clip-rule="evenodd"/><path fill="#43C9E2" fill-rule="evenodd" d="M117.4 76.57c-.47.92-4.2 6.17-5.43 7.63-.5.59-1.53 1.77-2.29 2.63s-2.4 2.82-3.64 4.38c-1.24 1.55-3.1 3.83-4.13 5.06-1.6 1.9-4.72 6.03-7.79 10.3-.76 1.06-.76 1.08-.2.7a56 56 0 0 1 2.92-1.6c2.6-1.33 2.18-.89 6.85-7.07.94-1.23 2.59-3.29 3.67-4.57a807 807 0 0 0 11.59-14.4c1.51-1.98 1.5-1.86.17-2.9-1.39-1.08-1.26-1.07-1.72-.16m18.67 34.13c-.48.1-1.51.37-2.28.59l-1.4.4-1.73 2.07a86 86 0 0 1-5.2 5.38c-1.92 1.82-4.23 4.1-5.14 5.06s-2.63 2.71-3.83 3.9c-1.2 1.17-2.78 2.79-3.52 3.6-.73.8-2.68 2.73-4.33 4.28-2.86 2.7-6.21 6.21-10.43 10.95-1.07 1.2-2.75 3-3.72 4l-1.77 1.8 1.16 1.42 1.17 1.4 3.57-3.5c1.96-1.94 4.64-4.8 5.96-6.37a330 330 0 0 1 13.2-15.06 413 413 0 0 1 15.34-15.89q4.72-4.62 3.87-4.23zm-51.42 9.66a36 36 0 0 0-1.72 2.57 7 7 0 0 1-.88 1.28c-.27.22-.07 2.52.27 3.15.16.29 2.55-1.96 4.65-4.37l1.39-1.6-1.26-1.27c-1.5-1.52-1.13-1.56-2.45.24m13.85 40.57c-2.04.88-2.92 1.33-2.92 1.49 0 .2 1.3 2.73 2.63 5.09 1.75 3.13 3.05 5.8 2.98 6.15-.3 1.55-3.06-1.2-7.52-7.48l-1.57-2.2-2.5 1.9a58 58 0 0 1-4.53 3.1 41 41 0 0 0-6.23 4.47 43 43 0 0 1-3.21 2.43 39 39 0 0 0-3.4 2.68 48 48 0 0 1-3.58 2.83l-1.73 1.2 2.9.12c2.78.11 10.42 1.42 11.05 1.9.11.08.82.31 1.57.5 3.1.81 5.26 1.83 16.25 7.65 2.75 1.46 5.66 3.54 11.2 8.02 7.65 6.18 10.44 9.82 14.57 18.99.82 1.82 1.66 3.63 1.86 4.04.42.83.18 1-.26.2-.16-.3-.3-.45-.3-.33-.03.7.9 1.54 1.65 1.5.94-.07 1.02-.16 1.16-1.23.06-.48.15-1.03.2-1.21.28-1.02.27-1.16-.05-.54-.44.87-1.15.97-1.06.15.05-.4 0-.51-.22-.43-.4.16-1.07-1.03-2.64-4.73a150 150 0 0 0-3.99-8.2 490 490 0 0 0-9.28-16.86c-3.43-6.08-5.05-9.11-4.94-9.23.11-.1.29.1.8.89.22.34.22.34.14-.04-.06-.24.12-.68.5-1.16 3.11-4.04 3.91-6.79 3.59-12.29l-.13-2.16-1.68-.93a149 149 0 0 1-9.3-5.76c-1.09-.8-1.25-.85-2.01-.52m56.73 1.7c-.9.89-5.81 3.73-8.91 5.16l-1.92.88.13 2.19c.37 6.33 1.65 10.16 4.42 13.28.96 1.07 1.15 1.6.66 1.78-.4.15-1.64 1.99-3.08 4.55-.7 1.24-2.01 3.47-2.94 4.97a251 251 0 0 0-6.27 10.5c-.83 1.5-2.3 3.95-3.25 5.44-1.72 2.67-3.96 6.68-3.81 6.83.04.04.31-.38.6-.94 1.43-2.7 11.4-14.65 14.76-17.66 7.3-6.57 13.84-10.19 25.29-14 2.83-.94 5.94-2 6.9-2.35a39 39 0 0 1 3.51-1.07c1.14-.27 1.77-.52 1.81-.71.16-.8-3.87-4.26-8.08-6.97-1.42-.9-4.4-2.83-6.62-4.27a118 118 0 0 0-8.23-4.8c-2.71-1.4-4.25-2.31-4.37-2.58-.22-.46-.33-.5-.6-.23M53.1 195.48c-.84.35-.86.48-.36 1.75.79 2 5.29 10.97 6.48 12.9 4.1 6.68 4.92 7.84 7.87 11.2a68 68 0 0 1 3.03 3.7c2.31 3.13 1.87 2.81 3.87 2.81h1.76l-.64-.92a28 28 0 0 0-1.75-2.19c-5.02-5.67-8.27-10-11.42-15.22a123 123 0 0 0-2.52-4 70 70 0 0 1-2-3.16c-.46-.8-.94-1.6-1.07-1.75-.13-.16-.7-1.46-1.25-2.88a16 16 0 0 0-1.14-2.56c-.07.02-.46.16-.86.32m152.75.44a44 44 0 0 1-2.69 2.17c-12.65 9.77-18.94 17.71-22.13 27.95-.23.72-.46 1.43-.52 1.56q-.11.25.6.25c.52 0 .7-.09.7-.33 0-1.18 3.4-8.5 5.16-11.15 3.68-5.5 11.12-12.76 18-17.58 2.02-1.42 2.82-2.06 2.7-2.17-.35-.32-1.73-.85-1.82-.7" clip-rule="evenodd"/><path fill="#B48531" fill-rule="evenodd" d="M102.48 66.3c.22 1.1.32 1.36.48 1.27s.59 2.12.62 3.24c.02.59.03.6.16.15s.15-.46.28-.1c.38 1.1 1.65 2.07 5.77 4.4 2.3 1.3 4.49 2.58 4.86 2.83.9.61.85.64 1.67-.72.84-1.39 1.1-1.43.37-.06-.28.52-.36.78-.19.56.18-.21.54-.8.8-1.3l.47-.92-1.12-.76a44 44 0 0 0-4.5-2.76c-.41 0-7-4.3-9.05-5.9l-.75-.6zm1.13 8.65c0 .43.04.58.09.34s.04-.6 0-.78c-.05-.18-.1.02-.09.44M88.15 91.17a88 88 0 0 0-2.22 4.8c-.29.75-.86 2.14-1.27 3.08a40 40 0 0 0-3 13.47c-.07 1.6-.23 3.56-.36 4.35a11 11 0 0 0 0 3.4l.25 2.13c.04.34.37.09.9-.68.56-.81.57-.87.43-2.39-.26-2.75.33-11.4.95-13.91.17-.7 1.2-3.17 2.28-5.5 2.36-5.03 2.33-5.04 2.2.79-.12 5.46-.1 5.47 3.46 1.45.4-.45.9-1.16 1.1-1.56l.36-.73-.53.68c-2.42 3.14-3.99 3.82-2.98 1.31 1.3-3.24 1.46-12.71.25-14-.07-.08-.9 1.41-1.82 3.3m50.65-2.08c0 .07.28.77.64 1.56s.86 2.04 1.11 2.78c.4 1.2.63 1.52 1.9 2.73 1.7 1.6 2.41 2.5 5.08 6.42 1.13 1.68 1.93 3.03 1.87 3.2q-.12.3.14.08c.14-.1.66-.3 1.17-.44s.93-.3.93-.34c0-.1-1.5-2.27-2.18-3.17l-1.56-2.14c-1.81-2.51-9.08-11.04-9.1-10.68m-3.68 7.74c-.43.65-.69 1.16-.57 1.14.34-.07 2.1 2.9 3.67 6.2 1.34 2.8 1.74 3.34 1.9 2.54.03-.17.33-.58.65-.9q.58-.6.47-.91c-.1-.28-.08-.29.22-.05q.44.37.12-.02c-.12-.16-1.25-2-2.5-4.09a197 197 0 0 0-2.73-4.44l-.44-.65zm22.73 4.26.89 3.3 1.22.28c.67.15 1.22.23 1.22.16 0-.28-3.39-6.18-3.78-6.58-.4-.41-.37-.2.45 2.84m-14.93 1.99c0 .37.04.53.1.34.04-.19.04-.5 0-.68-.06-.19-.1-.03-.1.34m-46.96 4.04c-2.28 1.36-3.16 3.04-3.44 6.5-.73 9.22 13.3 12.32 17.93 3.96 1.41-2.56 2.06-7.64 1.07-8.36l-2.02-1.48c-1.83-1.36-1.93-1.39-1.44-.43 1.1 2.14 1.33 6.87.42 8.86-2.45 5.38-10.12 6.05-12.6 1.1-1.23-2.47-.93-6.76.7-9.96.2-.4.35-.73.32-.72-.03 0-.46.24-.94.53m50.7 1.88c-.63.46-1.54 1.25-2 1.75l-.86.91.11 1.21c.15 1.48.99 4.34 1.48 5 .2.28.54.86.76 1.3 1.58 3.09 7.16 5.25 11 4.25 2.43-.63 2.93-1.3 2.15-2.86-.38-.76-.43-.76-2.03-.23-6.42 2.15-11.39-3.48-9.63-10.92.34-1.45.4-1.43-.98-.41m17.07 3.89a11 11 0 0 1-1.9 4.14c-.67.87-.68.91-.53 2.08.09.66.14 1.36.11 1.55-.1.88 2.56-1.81 3.38-3.4l.46-.9-.5-1.82-.64-2.3c-.11-.4-.17-.29-.38.65m-28.55.94-.77.83.83-.77c.77-.71.92-.88.77-.88-.03 0-.4.37-.83.82m-4.28 4.28-.97 1.03 1.03-.97c.95-.9 1.1-1.08.96-1.08-.03 0-.49.46-1.02 1.02m-3.3 3.31-1.56 1.61 1.6-1.55c1.5-1.44 1.7-1.66 1.56-1.66-.03 0-.75.72-1.6 1.6m37.7 1.33c-.57.3-1.65.75-2.39 1-1 .32-1.34.52-1.34.78 0 .2-.11.35-.25.35q-.28-.01 0 .16c.7.45 1.8 8.97 1.8 14.05 0 8.83-1.94 14.42-7.4 21.31q-1.45 1.82-.04.77c3.99-2.97 9.15-8.3 11.7-12.06 2.87-4.23 3.83-6.07 6.32-12.16l1.4-3.4-.03-3.65c-.03-4.83-.14-5-1.05-1.52-1.3 5.02-3.36 10.22-5.38 13.68-.96 1.63-1.57 1.97-1.48.82.28-3.57.04-13.44-.44-18.07-.3-2.96-.15-2.74-1.42-2.06m-41.99 3.15-1.16 1.22 1.22-1.16c1.13-1.08 1.3-1.28 1.16-1.28-.03 0-.58.55-1.22 1.22m36.53-1.04c-.22.14-.2.26.04.72.17.31.31.43.32.27 0-.16.06-.49.13-.73q.18-.68-.49-.26m-74.53 3.66c.19.05.5.05.68 0 .2-.05.04-.1-.34-.1-.37 0-.52.05-.34.1m34.98.6-.67.72.73-.67c.68-.62.82-.79.67-.79-.03 0-.36.33-.73.73m-37.75-.35c0 .12.13.46.28.75.15.3.47 1.28.7 2.19 1.14 4.48 2.98 9.65 3.17 8.9.06-.25.4-1.08.75-1.82.74-1.56.85-1.86.58-1.46-.3.42-2.07-4.19-3.07-7.97-.19-.7-2.41-1.24-2.41-.59m31.92 6.72c-.47.48-.81.87-.76.87s.48-.4.95-.87c.48-.48.82-.88.77-.88-.06 0-.49.4-.96.88m20.3 3.01c0 .49.03.68.08.44a3 3 0 0 0 0-.87c-.05-.25-.08-.05-.08.43m-7.3 4.42c.23.05.63.05.87 0 .24-.04.04-.08-.44-.08s-.68.04-.44.08m-30.38 12.53c-1.26 1.51-1.27 1.4.25 2.48l1.75 1.31c4.08 3.16 15.2 9.65 19.66 11.46 1.45.6 1.65.63.94.16-7.9-5.13-21.86-15.96-21.45-16.62.28-.45-.13-.02-1.15 1.2m14.75 13.18c.8 2.1.75 7.56-.1 9.84-.9 2.4-2.95 4.95-3.57 4.43-.21-.17-.3-.15-.4.1-.26.68-.07 1.31.73 2.52l.85 1.26.51-.4c2.05-1.61 5.58-8.56 5.58-10.97 0-.67.01-.66 1.74.44 3.45 2.22 9.38 3.92 13.62 3.92 2.05 0 2.74-.16 6-1.32 1.21-.43 2.2-.75 2.2-.7 0 .04.25 1.24.57 2.65a49 49 0 0 1 1.05 8.62c-.02 1.13-.3 1.73-2.53 5.48a153 153 0 0 0-5.48 10.09 84 84 0 0 1-2.02 3.84c-1.16 2.04-1.65 3.26-2.67 6.63-1.05 3.5-1.17 3.79-1.39 3.44-.37-.6-.16-.02.42 1.15.33.66.66 1.43.74 1.72.12.44.22.27.78-1.28.9-2.54 2.55-5.72 4.6-8.89a134 134 0 0 0 3.68-6.13c3.72-6.65 11.64-18.88 12.22-18.88q.52 0-.8-1.49c-2.94-3.3-4.4-7.81-4.28-13.13.06-2.35.03-2.69-.22-2.58l-3.12 1.15a248 248 0 0 0-4.6 1.73c-6.54 2.54-15.5 1.41-22.82-2.88-1.38-.8-1.48-.83-1.3-.37m22.48 2.5c-2.47.73-2.8.87-1.7.74.95-.1 2.76-.66 3.4-1.04.53-.3.12-.23-1.7.3m-9.2.99c.25.05.64.05.88 0s.05-.08-.43-.08c-.49 0-.68.03-.44.08" clip-rule="evenodd"/><path fill="#A02F23" d="M118.8 152.16c.77-.13 2.02-.4 2.77-.6a7.4 7.4 0 0 1 4.54-.01c1.49.46 2.19.48 4.65.08a8 8 0 0 1 3.07-.1c.64.13 2.04.34 3.12.49 2.17.3 3.75.84 4.1 1.33l.17-.15-.15.19q.16.26-.19.47l-.42.26c-.03.59-4.07 3.33-7.08 4.79l-1.88.9h-4.1c-4.66-.01-6.05-.23-8.34-1.34-1.63-.78-3.78-2.3-3.96-2.8a6 6 0 0 0-.88-1.17c-.97-1.07-.4-1.9 1.05-1.53.2.05.32.03.26-.06-.12-.2 1.59-.46 1.88-.28q.2.12.1-.04c-.06-.11.49-.3 1.3-.43"/><path fill="#B71C91" fill-rule="evenodd" d="M122.44 79.59c0 .03.29.32.63.63l.64.57-.57-.63c-.54-.59-.7-.72-.7-.57m-3.83 1.15c-.22.24-1.2 1.58-2.2 2.96a173 173 0 0 1-7.9 10.23 136 136 0 0 0-4.07 5.16 92 92 0 0 1-2.54 3.3c-1.46 1.74-1.46 1.83-.01 1.71 3.69-.3 8.84 2.44 11.86 6.3 2.99 3.83 6.12 10.4 4.95 10.4-.13 0-.94.33-1.8.75-4.68 2.26-8.27 3.9-8.96 4.08-4.74 1.24-10.7.26-16.91-2.8l-2.12-1.03-.92 1.4c-.5.76-1.63 2.07-2.51 2.91l-1.6 1.53 2-.13c1.1-.07 3.17-.26 4.6-.43 3.49-.41 3.71-.22 2.45 2.08-1.5 2.75-4.96 10.47-4.58 10.24.08-.05 1.06 1.76 2.18 4.02a75 75 0 0 0 2.68 5.07l.66.96-.85.9c-.81.86-.8.85.26-.12.61-.56 1.2-1.02 1.3-1.02s2.05-2 4.33-4.43c2.27-2.43 6.47-6.75 9.32-9.59s7.28-7.29 9.84-9.9c2.57-2.6 5.89-5.85 7.39-7.2 3.34-3 6.35-5.9 6.25-6a86 86 0 0 0-6.43 1.7c-2.28.74-2.38.1-.43-2.88.89-1.36 2.22-3.44 2.96-4.62s2.5-3.7 3.93-5.6c1.55-2.07 2.53-3.56 2.45-3.7-.86-1.47-8.2-10.22-8.7-10.38a18 18 0 0 1-2.57-2.2 50 50 0 0 0-3.15-2.83c-.79-.59-.97-.82-.8-1.02.36-.43.06-.28-.36.18m6.26 1.12c.42.43.8.78.86.78s-.24-.35-.66-.78c-.42-.42-.8-.78-.86-.78s.25.36.66.78m1.66 1.82c0 .03.28.31.63.63l.63.57-.57-.63c-.53-.6-.7-.72-.7-.57m3.3 3.58c.26.35.5.64.54.64.15 0-.34-.73-.66-1q-.3-.23.13.36m5.26 7.45c.23.32.46.58.52.58s-.1-.26-.32-.58a2 2 0 0 0-.51-.58c-.06 0 .08.26.31.58m-6.4 129.75q-.03.89-1.36.92c-.43.02-.7.1-.62.2.51.51 2.28-.47 2.1-1.18q-.1-.46-.12.06" clip-rule="evenodd"/><path fill="#764775" fill-rule="evenodd" d="M112.86 28.09c.34.04.91.04 1.26 0 .35-.05.06-.08-.63-.08-.7 0-.98.03-.63.08m2.92 0c.56.04 1.48.04 2.04 0s.1-.07-1.02-.07-1.59.03-1.02.07m3.5 0c.24.04.63.04.87 0 .24-.05.05-.09-.43-.09s-.68.04-.44.08m-9.15.19c.24.05.6.04.78 0 .19-.05-.01-.1-.44-.09-.43 0-.58.04-.34.09m11.88 0c.24.05.59.04.77 0 .19-.05 0-.1-.44-.09-.42 0-.58.04-.33.09m-9.74.59c.34.04.95.04 1.36 0 .4-.04.12-.08-.63-.08s-1.08.03-.73.08m7.5 0c.29.04.77.04 1.06 0 .3-.05.06-.09-.53-.09s-.83.04-.53.08m-10.03.19c.25.04.6.04.78 0 .19-.05-.01-.1-.44-.09-.43 0-.58.04-.34.09m12.66 0c.24.04.59.04.77 0 .19-.05 0-.1-.44-.09-.42 0-.58.04-.34.09m1.65.19c.18.05.5.05.68 0s.03-.09-.34-.09c-.38 0-.53.04-.34.09m-18.44.45c-.5.21.01.21.68 0q.57-.18.1-.16c-.22 0-.57.07-.78.16m21.16-.06c.19.05.5.05.68 0s.04-.1-.34-.1c-.37 0-.53.05-.34.1m-22.72.54c-.75.34-.4.35.48 0 .38-.14.55-.26.4-.26-.17 0-.56.11-.88.26m-2.68 1.09c-.4.21-.73.43-.73.48a8 8 0 0 0 1.74-.81c.22-.2-.36-.01-1 .33m-1.87 1.16c-.44.32-.8.63-.8.69 0 .09 1.1-.66 1.64-1.12.46-.4-.1-.1-.84.43m39.2-.4c.2.1.52.17.68.17q.26 0-.1-.17a2 2 0 0 0-.68-.16q-.28 0 .1.16m-41.86 1.8-1.55 1.61 1.6-1.55c1.5-1.44 1.7-1.66 1.56-1.66-.03 0-.76.72-1.6 1.6m.58.4-.96 1.02 1.02-.97c.56-.53 1.02-1 1.02-1.02 0-.15-.18.02-1.08.96m-1.75 1.94-.58.63.64-.57c.34-.31.63-.6.63-.63 0-.15-.16-.02-.7.57m55.77.73c.38.2.77.37.88.37s-.11-.16-.49-.37c-.37-.2-.77-.37-.87-.37-.11 0 .1.17.48.37m3.9 1.84c0 .05.26.23.58.4s.58.26.58.2-.26-.23-.58-.4c-.32-.16-.58-.25-.58-.2m-62.55 2.64c-.56 2.04-.3 5.65.75 10.34.38 1.67.63 3.18.57 3.34-.07.17-.02.48.1.7.1.2.24.72.3 1.13.04.4.7 2 1.45 3.53a30 30 0 0 1 1.37 3.01c0 .28 2.8 3.38 4.24 4.7l1.02.94.02-.85c.03-1.26-.04-1.8-.26-2.07q-.16-.23-.05-.25c.11-.02-.64-.81-1.59-1.8-1.94-2.04-3.35-4-4.77-6.63-.61-1.12-.93-1.57-.87-1.2l.1.58-.29-.66c-.16-.36-.25-.77-.2-.92.06-.15.04-.27-.03-.27-.17 0-.7-2.13-.57-2.26.05-.05.14.2.21.54.1.47.18.57.35.4s.16-.3-.05-.56q-.28-.34-.03-.18c.14.08.65.93 1.12 1.88 1.56 3.1 3.82 6.43 5.33 7.86.33.31.6.66.6.78s-.36-.18-.78-.65-.77-.77-.77-.68c0 .27 3.08 3.28 3.21 3.15.07-.06-.15-.3-.49-.55-.33-.23-.56-.47-.5-.53.05-.05.65.38 1.32.97a38 38 0 0 0 5.85 4.1l3.8 2.21a68 68 0 0 1 11.11 8.1c1 .94 1.39 1.5.56.81-.24-.2.13.23.83.94.69.72 1.3 1.31 1.35 1.31s-.2-.3-.57-.68c-.36-.37-.6-.68-.52-.68.64 0 10.16 11.83 9.81 12.18-.04.04-.52-.56-1.06-1.33-2.55-3.65-7.39-9.62-7.6-9.4-.06.05.5.73 1.21 1.5 1.57 1.71 5.94 7.47 7.9 10.4 1.75 2.64 2.36 3.35 1.02 1.2-.25-.41-.4-.84-.32-.96q.1-.2-.07-.1c-.12.08-.2-.08-.2-.38 0-1.5-5.24-10.93-9.06-16.3-2.81-3.94-2.87-4.07-1.4-3.13a11 11 0 0 0 1.4.8c.2.07 1.22.96 2.3 2l1.94 1.86-1.9-1.95c-1.77-1.82-2.27-2.62-1.62-2.62.84 0 5.65 5.93 7.94 9.78 1.2 2 1.73 2.67 3.27 4.13l1.85 1.74-1.87-1.94c-1.46-1.5-2.2-2.5-3.37-4.46-3.17-5.37-8.04-10.62-8.35-9l-.08.43-.03-.43c-.15-2.48 5.08 2.96 8.74 9.08a18 18 0 0 0 3.55 4.6c2.12 2.1 6.93 7.6 8.83 10.1 1.75 2.3 3.6 5 3.52 5.1-.05.04-.33-.3-.63-.76a106 106 0 0 0-5.32-7.06c-2.84-3.38-4.96-5.73-5.06-5.64-.06.06.3.52.8 1.03 2.66 2.74 7.05 8.25 9.48 11.91q2.01 3.05 1.3 1.63c-.17-.33-.24-.67-.17-.76q.1-.12-.13.01-.3.19-.16-.16c.42-1.08-5.04-12.8-8.64-18.57-5.58-8.95-10.8-14.57-17.35-18.7l-3.74-2.38a66 66 0 0 0-5.9-3.04c-7.01-3.23-7.6-3.52-9.34-4.66-4.8-3.12-6.79-5.17-9.79-10.1-2.87-4.74-4.64-6.5-4.66-4.64 0 .24-.08.48-.17.53-.1.07-.1-.23 0-.7.2-.88.12-1.51-.09-.74m.01 3.35c-.04.35-.08.11-.08-.53s.04-.93.08-.64.05.82 0 1.17m-.87 1.8c0 .65.1 1.61.25 2.15l.27.97-.12-.97-.25-2.14-.14-1.17zm1.87 4.48c.12.43.21.96.2 1.17s-.13-.1-.28-.68a37 37 0 0 1-.84-5.1c0-.25.17.51.36 1.7.2 1.17.45 2.48.56 2.91m-3.09-3.4q-.58.16-.1.17c.22 0 .53-.07.69-.17.34-.22.1-.22-.59 0m-2.57 1.18c-.4.2-.73.43-.73.48s.35-.08.77-.3.78-.44.78-.5c0-.12 0-.12-.82.32m88.4 3.93c.48.5.9.92.93.92.15 0-.01-.17-.87-.98l-.92-.87zm-1.74-.58c0 .04.28.32.63.64l.63.57-.57-.63c-.53-.6-.69-.73-.69-.58m-80.06 1.63c-.2.2-.16.5.05.37.1-.07.15.27.11.79-.03.5 0 .8.08.69.07-.13.41.35.77 1.09 1.78 3.64 5 7.69 7.86 9.9 1.6 1.25 1.38.94-.46-.63-3.12-2.65-7.2-8.25-7.85-10.78-.07-.27.25.21.7 1.07.99 1.82 3.1 4.94 3.7 5.47.24.2.04-.16-.45-.8a31 31 0 0 1-3.29-5.21c-.6-1.15-1.15-2.04-1.22-1.96m-16 1.28-.58.63.63-.57c.6-.53.72-.7.57-.7-.03 0-.31.3-.63.64m101.41 1.31a30 30 0 0 0 2.04 1.95c.05 0-.78-.87-1.84-1.95a30 30 0 0 0-2.04-1.94c-.05 0 .78.87 1.84 1.94m-1.85-.87c.37.37.7.68.76.68s-.2-.3-.56-.68-.7-.68-.76-.68c-.05 0 .2.3.56.68m-98.98.14-.58.64.64-.57c.59-.54.72-.7.57-.7-.04 0-.32.29-.63.63m102.59 3.65a25 25 0 0 0 1.84 1.76c.05 0-.7-.8-1.65-1.76a25 25 0 0 0-1.84-1.75c-.05 0 .69.8 1.65 1.75m2.72 1.76c.42.42.8.77.86.77s-.25-.35-.67-.77c-.41-.43-.8-.78-.85-.78-.06 0 .24.35.66.78m.39 1.55c.42.43.8.78.86.78s-.25-.35-.67-.78c-.42-.42-.8-.78-.85-.78-.06 0 .24.36.66.78M72.31 64.7c-.17.33-.26.59-.2.59s.23-.26.4-.59c.16-.32.25-.58.2-.58s-.23.26-.4.58m31.83 1.35c1.21 1.12 3.45 2.6 7.1 4.7 5.22 3 9.17 5.74 12.03 8.35.61.57 1.16 1 1.21.94.12-.12-3.59-3.23-5.55-4.67a87 87 0 0 0-8-5.03 51 51 0 0 1-6.4-4.13c-1.17-.88-1.2-.9-.4-.16m-32.87.7c-.32.72-.26.87.09.22.17-.3.26-.58.22-.63-.05-.04-.18.14-.3.42m31.57.98c-.07.17-.03.85.07 1.51l.2 1.2-.03-1.5c-.02-1.57-.05-1.72-.24-1.2m7.52 3.28c0 .15 1.76 1.15 1.85 1.06.04-.04-.36-.32-.88-.62-.53-.3-.97-.5-.97-.44m-41.15 1.4c-.07.28-.1.55-.05.6s.15-.15.22-.44c.07-.28.09-.55.04-.6s-.14.15-.21.44m107.53.54c0 .14.2.43.43.63l.44.37-.37-.44c-.53-.62-.22-.79.42-.23l.54.48-.47-.54c-.5-.57-1-.7-1-.27m-73.72 1c0 .54.04.73.09.44a4 4 0 0 0 0-.98c-.05-.24-.09 0-.09.54m-14.38.38c-.06.15-.07.48-.02.73q.1.53.11-.19c.08-1.94.38-.14.47 2.83.1 3.5.15 3.75 1.4 9.1 1.12 4.83 1.37 10.23.59 13.22-.4 1.55-.35 1.53 1.17-.42.73-.94 1.13-1.53.88-1.32l-.45.39.14-.45c.66-2.12.01-11.64-1.05-15.41-.4-1.45-.85-3.16-.98-3.8a38 38 0 0 0-1.3-4.77c-.12-.1.06 5.64.21 7.3.05.54-.02.32-.15-.49-.14-.8-.27-2.63-.3-4.07a22 22 0 0 0-.14-2.77c-.15-.25-.46-.2-.58.12m104.88 1.36c.45.91.84 1.62.88 1.58a19 19 0 0 0-1.6-3.22c-.06 0 .27.74.72 1.64m-14.73-.66c.42.5.8.86.86.82.05-.03-.3-.43-.77-.88l-.86-.83zm15.5.47c.24.48.46.84.5.8.09-.09-.7-1.67-.83-1.67-.05 0 .1.4.33.87m-12 1.92c1.38 1.35 2.63 2.42 2.75 2.37s.87.77 1.64 1.81c3.14 4.2 5.54 6.79 10.4 11.2 6.48 5.9 7.5 6.77 7.5 6.4 0-.11-.18-.24-.4-.3-.21-.05-.39-.24-.39-.42q-.01-.3-.22-.18-.22.13-.08-.1c.24-.4-.41-1.15-4.47-5.17-2.16-2.15-5-5.21-6.33-6.82-4.37-5.3-9.15-9.55-10.1-8.97-.08.06-.76-.43-1.5-1.08-.73-.65-.2-.09 1.2 1.26m-63.74-1.2c.27.25.78.67 1.13.94l.64.49-.48.7q-.48.71-.3 1c.2.38-.3.88-.53.52q-.15-.24.11-.08.27.17.1-.1-.17-.26.1-.1.25.17.1-.08c-.1-.17-.23-.15-.51.1-.39.35-.5.57-.2.39.1-.06.23.02.29.17s0 .35-.11.42q-.2.11-.09-.07.1-.2-.17-.17c-.32.05-.41.41-.1.41.35 0 2.26 1.58 4.38 3.63a18 18 0 0 0 2.56 2.2c.41.12 5.78 6.4 7.86 9.2.94 1.26 1.36 1.57 1.36 1q-.01-.15-.24-.04-.27.16.01-.17a.7.7 0 0 1 .62-.25q.38.08.26-.2c-.06-.16-.2-.22-.33-.15q-.18.1.05-.2.27-.34.5-.13c.13.1.28.15.33.1s.74.96 1.52 2.24c1.3 2.12 1.94 3.01 1.35 1.9-1.02-1.91-3.8-6.09-4.06-6.09-.1 0-.24-.08-.33-.17q-.14-.16.08-.04c.36.2.3-.18-.09-.5-.28-.22-.3-.22-.15.03q.24.38-.16.03c-.37-.3-.45-.51-.11-.3q.2.12.13-.14c-.05-.15-.19-.27-.3-.27a.6.6 0 0 1-.37-.18q-.14-.15.08-.03c.36.2.3-.19-.09-.5-.28-.23-.3-.22-.16.03.15.25.13.26-.15.02-.36-.28-.46-.5-.14-.31.33.2.22-.23-.13-.51-.28-.23-.3-.23-.17 0q.17.28-.06.14c-.13-.08-.18-.22-.12-.32.1-.16-1.2-2.13-1.4-2.13q-.07.01.06.24.15.25-.19-.02c-.35-.3-.45-.52-.13-.32.74.45-.53-1.4-1.67-2.43-.41-.38-.62-.51-.47-.3q.33.46-.25-.08c-.55-.49-.75-.83-.24-.4.67.55.23-.18-.53-.89-.45-.42-.61-.53-.36-.23.65.74.41.67-.29-.08-.31-.34-.46-.55-.33-.48.6.35.13-.3-1.17-1.6-.78-.77-1.5-1.34-1.58-1.25q-.13.11-.08-.07c.03-.12-.35-.58-.84-1.02q-1.4-1.22-1.03-.56c.08.13-.09.03-.37-.23-.6-.54-.7-.8-.17-.39.2.15.04-.02-.34-.38a27 27 0 0 0-1.86-1.52c-.64-.48-.95-.67-.67-.42m-30.1 2.01c0 1.29.02 1.79.06 1.11s.04-1.72 0-2.33-.07-.06-.07 1.22m93-.66c.03.11.12.18.19.14.06-.03.32.11.57.33.46.38.46.38 0-.15-.48-.54-.9-.71-.76-.32m2.67 1.03c.48.49.83.92.78.96s-.61-.45-1.25-1.09c-.65-.64-1-1.07-.78-.96s.78.6 1.25 1.1m-68.2-.45c.06.1-.02.41-.2.67-.43.67-.21.6.27-.08.35-.49.36-.58.1-.68q-.27-.1-.17.09m66.85.43c0 .04.28.32.63.64l.64.57-.58-.63c-.53-.6-.69-.72-.69-.58m-62.7.46c-.12.14-.3.21-.39.15-.24-.15-.05-.4.3-.4q.34-.02.09.25m25.33-.13c0 .16.19.51.41.78s.34.38.28.24c-.58-1.12-.69-1.27-.69-1.02m40.61 1.12a76 76 0 0 0 3.98 5.11c2.11 2.52 4.46 4.83 9.76 9.61 3.51 3.16 4.96 4.6 2.45 2.43-7.43-6.4-11.68-10.75-15.24-15.54a25 25 0 0 0-1.73-2.19q-.24-.15.01-.14c.13 0 .48.32.77.72m-62.89.1.58.63-.64-.57c-.59-.53-.72-.7-.57-.7.04 0 .32.3.64.64m-55.53.34c0 .38.04.53.09.34s.05-.5 0-.68-.1-.03-.1.34m128.04-.49c0 .11.17.5.38.88.2.37.37.6.37.49s-.17-.5-.37-.88c-.2-.37-.38-.6-.38-.49M88.62 81.47c0 .38.04.53.09.34.05-.18.05-.49 0-.68-.05-.18-.1-.03-.1.34m36.45.4c.42.42.72.77.66.77s-.44-.35-.86-.78a3 3 0 0 1-.66-.78c.06 0 .44.35.86.78m-57.66.38c0 .48.04.68.08.44a3 3 0 0 0 0-.88c-.04-.24-.08-.04-.08.44m80.53.68c.33.49.65.88.7.88s-.17-.4-.5-.88a4 4 0 0 0-.7-.87c-.06 0 .17.4.5.87m-59.16-.46c0 .17.07.76.18 1.3.33 1.75-.57 3.63-2.86 6-2.49 2.57-5.81 10.51-7.57 18.1-.97 4.2-.61 12.52.8 18.76 1.97 8.66 7.85 23.4 12.22 30.62.38.61.96 1.98 1.3 3.02.33 1.05.78 2.2 1 2.56.5.82.37 2.16-.16 1.72-.44-.36 1.43 2.22 3.57 4.93 2.83 3.58 2.86 3.45.29-1.27-2.6-4.78-2.93-5.44-4.27-8.8-.64-1.6-1.9-4.65-2.82-6.8-1.67-3.92-2.9-7-4.17-10.4-.38-1.02-.84-2.2-1.03-2.64a56 56 0 0 1-4.96-20.04c-.27-4 1.11-14.89 2.3-18.1.56-1.56 2.54-6.08 3.4-7.8.48-.95 1.3-2.75 1.83-3.98a20 20 0 0 1 1.43-2.85l.47-.61-.47-2.02c-.26-1.1-.47-1.87-.48-1.7m94.6-.12c0 .1.12.41.28.68.15.27.28.4.28.3s-.13-.42-.28-.69-.28-.4-.28-.29m-92.9 2.24c0 .29-.1.1-.27-.49a7 7 0 0 1-.25-1.26c.03-.47.53 1.2.53 1.75m-24.03-.4c0 .7.03.99.08.64.04-.35.04-.92 0-1.26-.05-.35-.08-.07-.08.63m.78.4c0 .8.03 1.13.07.73s.05-1.06 0-1.46c-.04-.4-.07-.07-.07.73m83.45 1.07a44 44 0 0 0 1.74 2.63c.08.05.67 1.1 1.31 2.33s2.37 4.26 3.83 6.72c8.1 13.64 10.42 22.56 10.43 39.96 0 2.3.07 3.9.17 3.84s.14-.48.09-.93q-.1-.83.08-.57c.14.19.3.02.61-.66.24-.5.47-.87.53-.81.05.05-.18.6-.5 1.22a4 4 0 0 0-.5 1.23c.16.15 1.93-3.78 2.9-6.4.97-2.65 1.17-3.46.41-1.75-.26.59-.47.96-.48.82 0-.14.13-.57.3-.97.82-1.93.73-5.93-.2-9.29-.27-.96-.89-3.6-1.38-5.84-1.74-7.9-3.96-12.75-9.36-20.49-3.4-4.85-9.9-12.5-10.39-12.2-.09.05-.21-.07-.28-.27a2 2 0 0 0-.52-.74c-.22-.2.32.78 1.2 2.17m33.67-1.17c0 .1.13.41.28.68s.28.4.28.3-.13-.42-.28-.69-.28-.4-.28-.29m-32.57 2.2c.4.66.8 1.2.88 1.2.1 0 .39.49.65 1.07.66 1.43 1.47 2.87 4.7 8.38 2.52 4.32 4.53 8.05 4.52 8.41 0 .08-.55-.9-1.22-2.18a202 202 0 0 0-3.92-6.9 162 162 0 0 1-3.63-6.43 18 18 0 0 0-1.22-2.15c-.26-.28-1.83-2.7-2.15-3.3-.36-.72.73.8 1.39 1.9m46-2c0 .1.13.4.28.68.15.26.28.4.28.29 0-.1-.13-.41-.28-.68s-.28-.4-.28-.3M88.85 87.06c-.37.6-.67 1-.67.85 0-.13.26-.62.57-1.08.38-.57.53-1 .48-1.4l-.07-.55.18.54c.15.45.06.72-.5 1.64m2.26.08c.87 4.04 1.24 9.42.78 11.37-.07.32-.1-.64-.04-2.12.1-2.97-.14-5.38-.87-8.87-.5-2.43-.5-2.46-.36-2.31.05.05.27.92.49 1.93m45.44-.14c.37.63.63 1.22.58 1.3a.14.14 0 0 0 .07.21c.26.1 1.22 2.13 1.1 2.32q-.1.16.07.18c.1 0 .29.27.42.6.14.32.3.54.34.49.14-.14-2.35-5.19-2.84-5.76-.23-.27-.11.03.26.66m49.36-.95c0 .1.17.5.37.87.2.38.38.6.38.5 0-.12-.17-.51-.38-.89-.2-.37-.37-.59-.37-.48m-55.66 1.5c.29.54.1.41-.41-.29q-.44-.6-.13-.35c.19.15.43.43.53.63m55.27-.53c0 .1.12.41.28.68.15.27.28.4.28.3s-.13-.42-.28-.69-.28-.4-.28-.29M67.24 89.84c0 1.56.03 2.2.07 1.41.03-.77.03-2.04 0-2.82-.04-.77-.07-.14-.07 1.41m22.37-2.4c-.07.2-.33.83-.58 1.41a4 4 0 0 0-.39 1.13c.04.04.32-.5.62-1.2q.55-1.3.7-1.04.18.3.17-.07c0-.48-.37-.64-.52-.22m109.34-.22a6 6 0 0 0 .94 1.75c0-.1-.21-.6-.47-1.07-.25-.48-.47-.8-.47-.68m-111.92 3.7c-.62 1.4-1.61 3.53-2.2 4.76a83 83 0 0 0-1.7 3.85 7 7 0 0 1-.72 1.54c-.07-.07.75-2.18 1.66-4.26.22-.5.97-2.1 1.67-3.53a58 58 0 0 0 1.28-2.71c0-.21 1.02-2.3 1.08-2.23.04.04-.44 1.2-1.07 2.59m105.39-1.27c.63.64 1.2 1.17 1.25 1.17s-.42-.53-1.06-1.17-1.2-1.17-1.25-1.17.42.53 1.06 1.17M66.46 90.9c0 1.18.03 1.64.07 1.02s.04-1.58 0-2.14-.07-.05-.07 1.12m85.66-1.26c.17.32.35.58.4.58s-.03-.26-.2-.58-.35-.59-.4-.59.04.27.2.59m-53.78.49c-.23.48-.38.87-.33.87.13 0 .92-1.58.83-1.67-.04-.04-.26.32-.5.8m53.5-.28c0 .07.33.86.73 1.76.41.9 1.08 2.68 1.49 3.97.4 1.28 1.24 3.86 1.86 5.74a139 139 0 0 1 2.23 7.78c1.17 4.65 1.34 5.24 1.16 4-.27-1.92-.27-2.52.01-1.2.16.75.28 1.67.27 2.05-.01.39.11 1.4.28 2.26.16.85.3 1.3.31.97.03-1.08-.54-5.04-1.15-7.98-.34-1.6-.69-3.33-.78-3.84s-.21-1-.27-1.1c-.06-.09-.42-1.2-.8-2.48-.93-3.13-2.27-6.75-2.41-6.52-.06.1-.5-.67-.99-1.7-.9-1.94-1.94-3.91-1.94-3.7m48.47.28c0 .1.17.5.38.87.2.38.37.6.37.49s-.17-.5-.37-.88c-.2-.37-.37-.6-.37-.48m-60.35.15c0 .04.28.32.63.64l.63.57-.57-.63c-.53-.6-.7-.73-.7-.58m54.89 1.56c0 .03.28.32.63.63l.63.58-.57-.64c-.53-.59-.7-.72-.7-.57m-104.09.91c0 .38.04.53.09.34.05-.18.05-.49 0-.68-.05-.18-.09-.03-.09.34m-23.34 1.56c0 .59.03.83.08.54.04-.3.04-.78 0-1.07-.05-.3-.08-.06-.08.53m69.06-.13c.23.42.22.42-.2.05-.22-.2-.4-.45-.4-.55 0-.27.36.02.6.5m60.7-.2c0 .04.29.32.64.63l.63.58-.57-.64c-.53-.59-.7-.72-.7-.57m-130.55.82c0 .43.04.58.09.34.04-.25.04-.6 0-.78-.06-.19-.1 0-.1.44m68.66-.1c.23.32.37.58.32.58-.06 0-.29-.26-.52-.58s-.37-.58-.31-.58.28.26.5.58m-40.2 1.02c-.3.46-.42.73-.27.6.29-.24 1.04-1.43.9-1.43-.05 0-.33.38-.63.83m60.44-.76a74 74 0 0 1 1.68 4.51c.37 1.07.6 1.65.54 1.3-.06-.36-.33-1.28-.6-2.05-.65-1.92-.74-2.29-.36-1.64.42.73.58.69.2-.05-.18-.35-.4-.54-.53-.46q-.22.14-.1-.16c.06-.16-.06-.57-.26-.9-.32-.53-.57-.77-.57-.55m47.12.42c0 .1.17.5.37.88.2.37.38.6.38.48 0-.1-.17-.5-.38-.87-.2-.38-.37-.6-.37-.49m-46.33 4.44c.53 1.59.96 2.99.95 3.11-.01.22-2.24-6.12-2.44-6.97-.26-1.02.64 1.28 1.5 3.86m-88.7-3.37c0 .38.04.53.09.34s.05-.5 0-.68-.1-.03-.1.34m121.44-.39c0 .16.07.47.16.68q.16.37.17.1c0-.16-.07-.47-.17-.68q-.15-.37-.16-.1m-48.47.2c0 .16.08.46.17.68q.16.37.16.1c0-.17-.07-.47-.16-.69q-.16-.36-.17-.1m-49.8 1.26c0 .43.04.58.08.34.05-.24.05-.6 0-.78s-.09.01-.09.44m80.74-.09c-.01.06.36 1.25.83 2.64 2.12 6.32 2.7 9.96 2.78 17.5a92 92 0 0 0 .36 8.32c.72 5.93-.16 14.97-1.75 18.06q-.6 1.11.08.5c.22-.2.33-.48.26-.65q-.1-.3.1-.17c.2.12 1.2-1.06 4.53-5.32.37-.48.57-.8.44-.73a34 34 0 0 0-2.12 2.57 21 21 0 0 1-1.98 2.35c-.04-.04.58-.9 1.4-1.9 1.65-2.05 1.77-2.38 2.46-7.07 1.14-7.7.22-20.06-1.89-25.36-1.53-3.86-4.23-9.1-4.58-8.88q-.15.08-.17-.15c0-.26-.72-1.9-.75-1.7m-103.71.87c0 .43.04.58.08.34.05-.24.05-.6 0-.78s-.09.01-.08.44m71.09.49c.17.32.34.58.4.58s-.04-.26-.2-.58c-.17-.32-.35-.59-.4-.59s.03.27.2.59m-48.35.1c-.01.2-.07.6-.13.87l-.1.49.21-.48c.12-.26.18-.66.13-.88-.08-.38-.08-.38-.1 0m2.13.04c-.35.62-1.41 1.72-1.3 1.35.07-.2.13-.55.14-.78 0-.39.02-.4.16-.05.13.34.18.32.58-.24.47-.66.75-.84.42-.28M68 99.87c0 .43.04.58.09.34.05-.25.04-.6 0-.78-.05-.19-.1 0-.09.44m105.24 1.6c.33 1 .6 1.96.59 2.15s-.28-.5-.6-1.51c-.78-2.48-.83-2.65-.7-2.53.06.05.38.9.7 1.9m-71.34-.48c-.72.77-1.13 1.31-1.01 1.31a7 7 0 0 0 .91-.97c.92-1.1.98-1.3.1-.34m29.5.14c-.22.32-.37.59-.31.59s.28-.27.5-.59c.24-.32.38-.58.33-.58-.06 0-.29.26-.51.58m8.86 0c.17.32.35.59.4.59s-.04-.27-.2-.59c-.17-.32-.35-.58-.4-.58s.03.26.2.58m-72.07.3c0 .42.05.57.1.33.04-.24.04-.59-.01-.78-.05-.18-.09.02-.09.44m80.91.06c.1.2.35.48.53.63q.38.31-.1-.36c-.48-.68-.74-.85-.43-.27m-67.03.82c-.16.52-.28.7-.29.44 0-.41.38-1.49.5-1.37.03.04-.06.45-.21.93m59.9-.2c0 .37.03.52.08.34.05-.19.05-.5 0-.69s-.09-.03-.09.35m48.46.58c0 .37.04.53.09.34s.05-.5 0-.68-.1-.03-.1.34m-101 .2q.02.48.42.52.42.04.06-.06c-.18-.06-.37-.3-.42-.53q-.11-.53-.06.06m11.8.1c-.25.26-.41.51-.37.55.05.04.29-.18.54-.49.55-.68.45-.73-.16-.07m-32.83.58c0 .53.04.73.08.43s.04-.73 0-.97c-.05-.24-.09 0-.08.54m-.79.2c0 .42.04.57.09.33s.04-.6 0-.78c-.05-.19-.1.01-.09.44m74.5-.29c0 .22-.09.35-.2.28q-.16-.09-.07.18c.2.5.46.34.46-.28 0-.32-.04-.58-.1-.58-.05 0-.09.18-.09.4m-60.62 1.35c-.15.7-.28 1.08-.29.84-.02-.51.43-2.52.51-2.28.03.1-.07.75-.22 1.44m76.37-.23c.12.23.18.43.13.43-.18 0-.7-1.14-.68-1.5q.02-.36.17.14c.08.28.25.7.38.93m-58.5-.44c-.33.37-.54.67-.47.67.15 0 .84-.73 1.06-1.12s.06-.27-.59.45m91.26.28c0 .38.04.53.09.34s.05-.5 0-.68-.09-.03-.09.34m-88.85-.25c.34.05.95.05 1.36 0 .4-.04.12-.07-.63-.07s-1.08.03-.73.07m72.44.74-.01.39-.17-.4c-.25-.57-.25-1.06 0-.67.1.16.19.46.18.68m-105.62.48c0 .49.04.68.08.44.05-.24.05-.63 0-.87-.04-.24-.08-.05-.08.44m106.58 4.68c.48 3.45.65 7.54.45 11.29-.13 2.52-.15 2.24-.16-2.73q-.02-8.2-1.04-11.87c-.1-.38-.19-.86-.18-1.07.03-.8.55 1.65.93 4.38m-16.73-2.63c-.02.34-.53-1.15-.54-1.56 0-.21.13 0 .28.49.15.48.27.96.26 1.07m-4.94-.88c.16.32.34.59.4.59s-.04-.27-.2-.59c-.18-.32-.35-.58-.4-.58s.03.26.2.58m9.72.4c.27.55.5 1.1.5 1.22 0 .24-.7-1-.99-1.74-.3-.8-.03-.5.49.53m28.4 1.16c0 1.23.03 1.73.07 1.12.04-.62.04-1.62 0-2.24-.03-.61-.07-.11-.07 1.12m-110.7.45c-.16.98-.38 2.58-.5 3.54-.32 2.67-.34 2.82-.37 2.03-.02-.38.15-1.96.37-3.5l.53-3.69c.06-.48.15-.72.2-.52.04.2-.06 1.16-.22 2.14m109.92-.26c0 1.13.03 1.59.07 1.03s.04-1.48 0-2.05c-.03-.56-.07-.1-.07 1.02m-97.35-1.12c-.3.3-.3.6 0 .5.12-.04.24-.23.27-.4.05-.4.03-.4-.27-.1m60.88.93c.22.43.44.78.5.78s-.08-.35-.3-.78a3 3 0 0 0-.5-.78c-.05 0 .08.35.3.78m-43.2-.33c0 .03.28.32.63.63l.63.58-.57-.64c-.54-.59-.7-.72-.7-.57m47.85 2.47c0 .16-.13-.14-.28-.68a7 7 0 0 1-.26-1.46c.01-.27.14.04.28.68s.26 1.3.26 1.46m-90.05-1.75c0 .37.04.53.09.34s.05-.5 0-.68-.09-.03-.09.34m39.3-.49c0 .11.12.5.26.88.15.37.27.55.27.39s-.11-.56-.26-.88-.27-.5-.27-.39m1.81.09a7 7 0 0 0 1.77 1.19c-.06-.1-.51-.45-1-.78-.48-.33-.83-.52-.77-.41m54.78 3c.34.94.6 1.81.6 1.94s-.35-.7-.76-1.82c-1.05-2.9-1.04-2.88-.73-2.33.16.27.56 1.26.9 2.2m9.02-1.63c0 .38.04.53.1.34.04-.18.04-.5 0-.68-.06-.19-.1-.03-.1.34m-73.66-.06c.24.05.59.05.77 0s0-.08-.44-.08c-.42 0-.58.04-.33.08m11.79 1.91c0 .97.03 1.38.07.93s.04-1.24 0-1.75-.07-.14-.07.82m-30.36.3c0 1.01.03 1.43.07.92s.04-1.34 0-1.85-.07-.1-.07.92m70.58-1.62c.27.05.66.24.88.41q.56.52.02-.11a1.1 1.1 0 0 0-.88-.41l-.5.02zm-39.29 1.56c.03.6.05.63.11.2q.1-.54.31-.4.2.1-.03-.2c-.38-.46-.42-.42-.39.4m50.78.2v.79l-.73-.1c-1.54-.2-2.44 1.66-1.33 2.77.27.27.57.48.69.48s.05.24-.14.53-.25.47-.13.4c.7-.44 2.25-5.06 1.84-5.47q-.2-.24-.2.6m26.9.15c0 .42.05.58.1.33.04-.24.04-.59-.01-.77-.05-.2-.09 0-.08.44m-53.87.34-.77.82.83-.77c.77-.71.91-.88.77-.88-.04 0-.4.37-.83.83m-5.12-.47c-.2.14-.2.19.04.28.16.06.4-.01.52-.17.27-.32-.1-.4-.56-.1m59.77.52c0 .42.05.58.1.33.04-.24.04-.59-.01-.77-.05-.2-.09 0-.09.44m-121.85.1c0 .37.04.52.1.33.04-.19.04-.5 0-.68-.06-.19-.1-.03-.1.34m94.58-.2c0 .16.12.6.27.97.14.38.26.55.26.39s-.12-.6-.26-.97c-.15-.38-.27-.55-.27-.4m10.15.68c0 .53.04.73.09.43s.04-.73 0-.97c-.05-.24-.09 0-.09.54m-61.51.2c0 .42.04.57.09.33s.04-.6 0-.78c-.06-.18-.1.02-.1.44m1.48-.4a5 5 0 0 0 .5.78l.33.4-.2-.4a5 5 0 0 0-.5-.78l-.32-.38zm14.72-.1q-.37.17-.1.17c.16 0 .47-.07.69-.16q.37-.16.1-.17c-.17 0-.47.08-.69.17m25.82.4c-.02.28-.1.59-.17.69q-.11.15.11-.03c.14-.13.22-.43.17-.69-.08-.46-.08-.46-.11.04m-20.48.53-.67.73.73-.67c.68-.62.82-.79.67-.79-.03 0-.36.33-.73.73m-39.25.34c0 .54.04.73.09.44a4 4 0 0 0 0-.98c-.05-.23-.09 0-.09.54m31.77-.68q-.37.16-.1.17c.16 0 .47-.08.69-.17q.37-.16.1-.17c-.17 0-.48.08-.69.17m-57.08.58c0 .38.04.53.09.34.05-.18.05-.49 0-.68-.05-.18-.1-.03-.1.34m29.2-.09c.28.31.56.52.6.47.04-.04-.2-.3-.53-.55l-.6-.47zm12.84.1c0 .37.04.52.09.33.05-.18.05-.49 0-.68-.05-.18-.09-.03-.09.34m78.64 0c0 .37.04.52.09.33.05-.18.05-.49 0-.68-.05-.18-.1-.03-.1.34m-82.37.1c-.74.63-.8 1.54-.17 2.23l.43.46.27-.65c.77-1.9.51-2.9-.53-2.03m58.08 1.53c.27 1.05.49 2.1.48 2.33 0 .23-.22-.42-.46-1.44l-.6-2.43c-.08-.32-.1-.54-.03-.48.06.06.33.96.6 2.02m-74.6-1.25c0 .38.05.53.1.34.05-.18.05-.49 0-.68-.05-.18-.1-.03-.1.34m33.15-.39q-.37.17-.1.17c.16 0 .47-.07.68-.17q.37-.16.1-.16c-.16 0-.47.07-.68.16m22.72.4c0 .37.04.52.09.33.05-.18.05-.49 0-.68-.05-.18-.09-.03-.09.34m9.9-.3c0 .1.12.42.27.68s.28.4.28.3-.12-.42-.28-.69c-.15-.26-.27-.4-.27-.29m-40.99.68c.17.32.35.59.4.59s-.04-.27-.2-.59c-.17-.32-.35-.58-.4-.58s.03.26.2.58m48.37-.47c0 .1.13.65.28 1.23.26.98.25 1.1-.1 1.8-.21.41-.34.75-.29.75.52 0 .85-1.56.57-2.65s-.46-1.52-.46-1.13m9.77 2.44a84 84 0 0 1-.13 3.5l-.09 1.25.2-1.17c.1-.64.15-2.22.12-3.5l-.06-2.34zM81.4 115.1c0 .37.04.52.09.34.04-.19.04-.5 0-.68-.05-.2-.1-.04-.1.34m51.92.29c-.47.48-.81.88-.76.88s.48-.4.96-.88c.47-.48.81-.88.76-.88s-.49.4-.96.88m-5.84 1.6-2.24 2.3 2.29-2.24c2.13-2.08 2.38-2.34 2.24-2.34-.03 0-1.06 1.03-2.3 2.28m-47.54 2.15c-.04.72-.07.13-.07-1.32 0-1.44.03-2.03.07-1.31s.04 1.9 0 2.63m47.15-2.58c-.47.48-.81.87-.76.87s.48-.4.96-.87c.47-.48.81-.88.76-.88s-.48.4-.96.88m22-.03c-.37.37-.2.67.91 1.67.96.85 1.15.95 1.39.71s.11-.43-.9-1.43c-.83-.8-1.25-1.1-1.4-.95m-21.03 3.19-3.2 3.26 3.25-3.2c1.8-1.77 3.27-3.24 3.27-3.27 0-.14-.34.18-3.32 3.21m-30.93-2.79c-.36.44 1.18 2.64 1.85 2.64.56 0 .5-.46-.16-1.06a6 6 0 0 1-1-1.24c-.37-.7-.38-.71-.7-.34m13.32.5c-.16.32-.26.59-.2.59s.23-.27.4-.59c.16-.32.25-.58.2-.58s-.23.26-.4.58m50.95-.2a1.1 1.1 0 0 0-.41.91c.02.53.03.53.11.07.05-.27.27-.68.5-.92q.72-.8-.2-.06m-35.97.83-.58.64.64-.57c.59-.54.72-.7.57-.7-.03 0-.32.29-.63.63m39.66.3-.45.73.48-.56c.43-.51.48-.53.57-.2q.1.4.11-.17.06-1.1-.71.2m-4.86.44c0 .48.04.67.09.43s.05-.63 0-.87-.09-.05-.09.44m6.94 1.84c-.01.36-.12.1-.28-.68-.34-1.63-.33-2.12.02-.87.15.53.26 1.23.26 1.55m-3.89-1.34c-.73.79-2.02 1.76-1.9 1.44.07-.17.05-.65-.03-1.07-.13-.73-.14-.7-.13.34 0 .62.06 1.12.14 1.12.16 0 2.66-2.31 2.5-2.33-.06 0-.32.22-.58.5m2.6-.12c0 .27.06.75.14 1.08.13.52.15.53.15.1 0-.27-.07-.76-.15-1.08-.13-.52-.15-.53-.15-.1m-42.2.44-.58.64.63-.58c.35-.31.64-.6.64-.63 0-.15-.16-.02-.7.57m-5.78-.14c.53 1.04 1.55 1.26 1.15.25-.06-.14-.11-.03-.12.23-.03.48-.03.48-.62-.2-.33-.37-.51-.5-.4-.28m5.59 1.31-1.56 1.6 1.61-1.55c1.5-1.44 1.7-1.66 1.55-1.66-.03 0-.75.73-1.6 1.61m-52.62-.92c0 .21.07.56.17.77.2.5.2-.01 0-.68q-.17-.57-.17-.1m87.07 0c-.32.15-.47.27-.32.28.14 0 .44-.1.66-.21.5-.27 1 .24 1.31 1.35.22.75.18.82-.9 1.55q-.47.3.13.02c1.25-.57 1.35-1.05.52-2.56-.44-.8-.53-.82-1.4-.43m-48.77.63-.67.73.73-.67c.4-.37.73-.7.73-.73 0-.15-.16-.01-.79.67m37.78-.05c.36.38.7.68.75.68s-.2-.3-.56-.68a4 4 0 0 0-.76-.68c-.05 0 .2.3.57.68m-.49.68c.42.43.8.78.86.78s-.25-.35-.67-.78c-.41-.43-.8-.78-.85-.78-.06 0 .24.35.66.78m-66.1 2.29c.3 3.27.65 4.88 1.69 7.9.85 2.47.95 2.81.76 2.63-.93-.94-2.8-9.18-2.82-12.48 0-1.23.16-.37.37 1.95m81.4-1.63c-.34.36-.42.64-.36 1.22l.08.75.03-.77c.02-.48.19-.93.46-1.21.23-.25.38-.45.32-.45s-.29.2-.53.46m5.98 2.84-.02.88-.15-1.07c-.08-.59-.2-1.55-.25-2.14l-.12-1.07.28 1.26c.15.7.27 1.66.26 2.14m6.5-2.23c0 .42.05.58.1.33.04-.24.04-.59-.01-.77s-.09 0-.08.44m-92.89.1c0 .31.07.58.16.58.1 0 .13-.27.08-.59s-.12-.58-.16-.58-.08.26-.08.58m20.58.14c.35.04.92.04 1.27 0 .35-.05.06-.08-.63-.08-.7 0-.98.03-.64.08m14.84 3.9-3.6 3.64 3.66-3.6c3.39-3.34 3.73-3.7 3.6-3.7-.03 0-1.68 1.64-3.66 3.65m8.66-3.03-.58.64.64-.57c.34-.32.63-.6.63-.64 0-.15-.16-.01-.7.58m-5.15.44c-.47.48-.82.88-.76.88s.48-.4.95-.88c.48-.48.82-.87.77-.87-.06 0-.49.4-.96.87m-34.46.25-.67.73.73-.67c.4-.37.73-.7.73-.73 0-.15-.17-.01-.8.67m68.77-.4c.3.05.73.05.97 0s0-.08-.54-.08c-.53 0-.73.04-.43.08m-68.76 1.71c-.8.8-1.4 1.46-1.35 1.46s.75-.66 1.54-1.46c.8-.8 1.4-1.46 1.36-1.46-.06 0-.75.66-1.55 1.46m90.2 5.55c0 5.28-.28 8.24-.88 9.6q-.23.57-.08-.12c.66-3.32.73-4.17.75-9 .02-2.78-.03-5.58-.11-6.22-.13-1.11-.13-1.13.1-.4.15.53.22 2.53.22 6.14m-21.74-6.48c.35.04.92.04 1.27 0s.06-.08-.63-.08c-.7 0-.98.04-.64.08M122.05 126l-1.26 1.31 1.31-1.26c.72-.69 1.31-1.28 1.31-1.31 0-.14-.2.04-1.36 1.26m52.62-.82c-.06.17-.02.4.1.53.17.16.22.09.22-.3 0-.6-.14-.69-.32-.23m11.8.67c-.21.43-.34.78-.3.78.06 0 .29-.35.5-.78s.36-.78.3-.78-.27.35-.5.78m-114.02 0c0 .16.07.47.16.68q.16.37.17.1c0-.16-.08-.47-.17-.68q-.16-.37-.16-.1m44.92 1.32-1.06 1.12 1.12-1.07c1.04-.99 1.2-1.17 1.06-1.17-.03 0-.53.5-1.12 1.12m-34.25-.25c-.47.5-.7.61-.81.44q-.15-.26-.16.1c0 .51.24.42 1.07-.44.42-.43.72-.78.66-.78s-.4.3-.76.68m85.2 6.43v2.72l-.14-3.11-.25-4.97-.11-1.84.26 2.23c.14 1.23.25 3.47.25 4.97M92.57 127c.6.1.8.22.9.6q.15.6.15.1.04-.9-1.13-.85l-.7.03zm82.49.7c0 .54.04.73.08.44.05-.3.05-.74 0-.98-.04-.24-.08 0-.08.54m-84.38-.54c.24.05.59.04.78 0 .18-.05-.02-.1-.44-.09-.43 0-.58.04-.34.09m30.79.59-.67.73.73-.67c.68-.62.82-.79.67-.79-.03 0-.36.33-.73.73m-37.75-.24c-.21.25-.12.28.7.26.9-.03.92-.04.18-.11q-.81-.08-.48-.26.23-.16.06-.18c-.12 0-.33.13-.46.29m2.48.04c.35.04.92.04 1.26 0 .35-.04.07-.08-.63-.08s-.98.04-.63.08m.3.77c.18.05.48.05.67 0s.04-.09-.34-.09c-.37 0-.53.04-.34.1m-4.02.2c-.05.09.36.13.91.1 1.66-.1 1.87-.18.48-.21a4 4 0 0 0-1.39.12m36.65.6-.67.72.73-.67c.68-.62.82-.79.67-.79-.03 0-.36.33-.73.73m47.94-.15c0 .37.04.53.09.34s.05-.5 0-.68c-.05-.2-.09-.04-.09.34m-94.44.15q-.02.23-.23.12-.22-.13-.08.1c.3.5-2.1 5.62-4.61 9.88-2.1 3.53-4.65 6.64-10.07 12.23l-3.4 3.5.67.07c1.86.17 7.03-1.04 10.23-2.41 1.17-.5 2.88-1.2 3.8-1.56.92-.35 2.3-.95 3.06-1.34 2.39-1.2 2.61-.97 2.02 2.05-1.23 6.2-4.87 11.58-12.35 18.2-1.81 1.61-1.81 1.61 1.43.85 1.42-.33 4.12-.86 6-1.18l3.99-.69c.46-.1.54-.06.44.2-.18.47.13.38.66-.2.26-.27.91-.8 1.45-1.15.98-.66 1.68-1.24 7.5-6.2a82 82 0 0 1 3.92-3.18c.9-.6 1.01-.17-.74-3-2.62-4.2-4.8-8.14-6.59-11.94a356 356 0 0 0-3.78-7.7c-1.12-2.19-2.32-4.64-2.67-5.44s-.65-1.35-.65-1.2m44.85 1.84-.58.63.64-.57c.59-.53.72-.7.57-.7-.04 0-.32.3-.63.64m-6.71 1.85-2.24 2.29 2.3-2.24c2.12-2.07 2.37-2.34 2.23-2.34-.03 0-1.06 1.03-2.29 2.3m2.62-1.65-.57.63.63-.57c.59-.53.72-.7.57-.7-.03 0-.32.29-.63.64m53.9 2.48c0 1.02.03 1.43.07.92s.04-1.34 0-1.85c-.04-.5-.07-.09-.07.93m-51.57-.73-.57.63.64-.57c.58-.53.72-.7.57-.7-.04 0-.32.29-.64.64m.2.97-.57.63.63-.57c.59-.53.72-.7.57-.7-.03 0-.32.3-.63.64m-25.55.25c-.33.72-.27.87.09.22.16-.3.26-.59.21-.63-.04-.05-.18.14-.3.41m80.15 1.73a12 12 0 0 1-.9 2c-.04-.05.3-1.01.75-2.15.45-1.13.85-2.03.9-1.99.03.04-.3 1-.75 2.14m-86.6.67c.44 1.21.77 2.23.73 2.27a40 40 0 0 1-1.71-4.48c0-.36.21.12.98 2.21m29.47-1.1-.77.84.83-.77c.77-.72.92-.89.77-.89-.03 0-.4.37-.83.83m-4.48.2-.77.83.83-.77c.77-.71.92-.88.77-.88-.03 0-.4.37-.83.82m-31.38 1.6c.56 1.12 1.04 2 1.08 1.97.09-.09-1.87-4-2-4-.05 0 .36.91.92 2.03m27.98.64-2.43 2.48 2.49-2.43a85 85 0 0 0 2.48-2.48c0-.14-.28.13-2.54 2.43m74.32-1.36c-.34.4-.6.83-.5.83.05 0 .27-.27.51-.59.47-.63.46-.79 0-.24m-90.92.74c-.46.96-.4 1.12.09.21.21-.4.36-.78.31-.82s-.22.23-.4.6m91.48.08c-.3.44-.65.94-.8 1.13l-3.14 3.94c-3.5 4.4-5.1 6.23-5.45 6.23-.43 0-.35-.23.78-2.38a25 25 0 0 0 2.93-8.62q.27-1.9-.77.87a51 51 0 0 1-5.77 11c-1.27 1.87-2.5 3.35-5.57 6.69l-1.4 1.53 1.1.59c.62.32 1.71.78 2.43 1.01 2.93.96 9.8 5.4 9.38 6.07q-.05.14.14.28.22.14.1-.08c-.22-.35.19-.26.48.1.24.29.23.31-.02.16q-.37-.24-.03.16c.3.36.52.45.32.13-.28-.45.4-.07 3.56 2.02 1.84 1.2 3.35 2.18 3.35 2.16l-1-2.15c-2.9-6.19-3.92-10.23-2.84-11.31.46-.46.92-.26 4.23 1.8 4.87 3 10.59 5.53 11.2 4.92.06-.06-.84-1.44-2-3.05-5.5-7.67-10.7-18.59-10.09-21.22q.12-.5-.05-.25c-.22.33-.43-.63-.29-1.37.2-1.05-.2-1.24-.78-.36m-74.4 1.03-1.35 1.4 1.41-1.35c1.31-1.26 1.5-1.46 1.36-1.46-.03 0-.67.63-1.41 1.4m-18.13 1.31c-.6 1.37-.92 1.66-1.09 1.02q-.1-.43-.11.05c-.02.33-.06.34-.22.1s-.19-.24-.19.05c0 .19.18.52.4.74s.58.87.8 1.46c.23.6.5 1 .6.93q.19-.1.06.1c-.22.36.08 1.12.31.78q.2-.3.07.15c-.13.48.06 1.09.3.94q.16-.08.07.16c-.14.39 1.03 3.27 1.53 3.74l.4.39-.27-.39c-.27-.38-.27-.38.16-.02.44.38.59.63.24.41-.1-.07-.2-.04-.2.06 0 .24.5.65.62.52.06-.05.27.1.47.34q.44.51.03.17-.34-.27-.34-.04c0 .4.59.47.98.11.48-.43.51-.82.05-.46-.2.14.04-.15.51-.65l.86-.9-.5-.66c-.9-1.18-5.04-9.68-4.9-10.09.24-.79-.06-.31-.64 1m-21-.53c-.67 1.13-.72 1.23-.37.82.4-.47.73-1.07.6-1.07-.05 0-.15.11-.23.25m100.42 1.12c0 .7.04.98.08.63s.04-.92 0-1.27-.08-.06-.08.64m-88.22.1c0 .1.12.4.28.67.15.27.28.4.28.3s-.13-.42-.28-.69-.28-.4-.28-.29m24.11 1.01-.67.73.73-.67c.68-.62.82-.78.67-.78-.03 0-.36.32-.73.72m-1.55.59-1.07 1.12 1.12-1.07c1.04-.98 1.21-1.17 1.07-1.17-.03 0-.54.5-1.12 1.12m73.3.18c-.05.5-.23 1.04-.4 1.21-.37.35-.37.4.1-1.2.34-1.16.41-1.16.3-.01m-67.95.7-.58.63.64-.57c.34-.32.63-.6.63-.64 0-.15-.16-.01-.7.58m-6.03.97-1.16 1.22 1.21-1.17c.67-.64 1.22-1.18 1.22-1.21 0-.15-.2.03-1.27 1.16m-20.73-.96c0 .22 2.14 4.41 2.25 4.41.08 0-1.99-4.26-2.17-4.46q-.07-.06-.08.05M98.8 145l-1.36 1.4 1.41-1.35c1.31-1.26 1.5-1.47 1.36-1.47-.03 0-.67.64-1.41 1.42m-37.19 1.16-.57.64.63-.57c.6-.54.73-.7.58-.7-.04 0-.32.29-.64.63m36.4.78-.57.64.63-.58c.6-.53.72-.69.57-.69-.03 0-.31.28-.63.63m-9.07 2.6c.43 1.06 1.49 3.58 2.36 5.6a33 33 0 0 1 1.48 3.78c-.06.05-.16-.07-.23-.27s-.98-2.38-2.03-4.85c-2.48-5.84-3.2-7.65-2.64-6.7.16.27.64 1.37 1.06 2.43m6.6-1.23c-.6.56-1.48 1.35-1.94 1.75s-.68.68-.5.61c.2-.06.35-.2.35-.3q.01-.16.16-.1c.09.06.85-.59 1.7-1.44 1.76-1.77 1.87-2.01.24-.52m-35.77-.1-.67.73.72-.67c.68-.63.82-.8.68-.8-.04 0-.37.34-.73.74m23.46.63c.17.32.35.58.4.58s-.04-.26-.2-.58c-.17-.32-.35-.58-.4-.58s.03.26.2.58m17.22 1.5-1.65 1.71 1.7-1.65c1.59-1.53 1.8-1.75 1.66-1.75-.03 0-.8.76-1.7 1.7m.3.89-1.56 1.6 1.6-1.55c1.5-1.44 1.7-1.66 1.56-1.66-.03 0-.75.72-1.6 1.6m-27.39-.83c.05.32.12.58.16.58s.08-.26.08-.58-.08-.59-.17-.59c-.08 0-.12.27-.07.59m20.28 1.26c-.47.48-.81.88-.76.88s.49-.4.96-.88.81-.87.76-.87-.48.4-.96.87m-2.2 1.32c.81 1.89.92 2.03 1.3 1.72.25-.2.15-.46-.72-1.77-1.29-1.96-1.43-1.95-.58.05m5.7.48-1.06 1.12 1.12-1.06c1.04-.99 1.2-1.18 1.06-1.18-.03 0-.53.5-1.12 1.12m-42.92.49-.58.63.64-.57c.59-.53.72-.7.57-.7-.03 0-.32.3-.63.64m62 .2q0 .26.98-.06c.41-.13.38-.15-.25-.12-.4.02-.73.1-.73.17m22.92.54c-.4.22-.73.48-.73.58 0 .25 1-.26 1.35-.68.32-.38.28-.37-.62.1m-18.08.1c.36.26.95.34 2.92.37 1.35.03 1.98.02 1.4-.01a40 40 0 0 1-4.39-.6c-.34-.09-.33-.06.07.23m-67.7.3c-.01.4.48.83.81.7q.23-.1-.1-.12c-.18-.01-.42-.21-.52-.46q-.18-.44-.18-.12m33.6-.02a11 11 0 0 0 1.16 1.75c.14 0-.47-1.03-.9-1.56q-.37-.4-.25-.2m33.61.21c.2.12.9.25 1.56.29l1.2.07-1.02-.17c-.56-.09-1.27-.22-1.56-.28-.46-.1-.48-.1-.18.1m8.3 0c.7.07 1.75.13 2.34.13l1.07-.01-1.27-.14c-.69-.08-1.74-.14-2.33-.14h-1.07zm32.7.67c-.47.48-.81.87-.76.87s.49-.4.96-.87c.47-.49.81-.88.76-.88s-.48.4-.96.88m-68.32-.48q-.35.25.1.1c.3-.08.67.18 1.52 1.05a45 45 0 0 0 2.14 2.05c.83.72.96.92.72 1.07q-.25.17-.09.2c.75 0 .58-.5-.46-1.37a36 36 0 0 1-2.26-2.12c-1.27-1.29-1.24-1.27-1.67-.98m40.3-.01c-.66.14-.66.14-.1.14.32 0 .85-.06 1.17-.14.8-.2-.1-.2-1.07 0m-8.55.07c.04.04 1.04.13 2.22.2 1.48.09 2.05.07 1.85-.07-.26-.17-4.27-.3-4.07-.13m-69.46.26c.19.05.5.05.68 0 .2-.05.04-.1-.34-.1-.37 0-.52.05-.34.1m37.27.25c.15.6 2.1 5.45 2.2 5.45.05 0 .31-.18.58-.4.4-.31.42-.36.1-.27-.22.07.12-.2.75-.6l1.14-.73-2.02-1.9c-1.58-1.48-2.08-1.85-2.34-1.72-.18.1-.36.1-.4.02s-.05 0-.01.15m37.09-.25c.18.05.49.05.68 0s.03-.1-.34-.1c-.38 0-.53.05-.34.1m-35.87 2.47c0 .26-.68-1.2-.85-1.85-.07-.26.1 0 .36.58.27.58.5 1.15.49 1.27m23.36-2.12a7 7 0 0 0 1.07.73c.58.37 1.03.7.99.75-.05.04.1.09.34.1.23.01 1.3.25 2.37.53 3.56.93 7.3 1.17 8.85.56.36-.14.13-.16-.9-.1-2.2.16-8.62-1.07-11.72-2.25-.55-.21-1-.35-1-.32m60.98 2.43c0 .48.03.68.08.44s.05-.63 0-.88c-.04-.24-.08-.04-.08.44m-18.94.6c-.7.65-1.85 1.63-2.56 2.18-1.32 1-1.47 1.3-.69 1.31.24 0 2.05.84 4.03 1.85a28 28 0 0 0 3.21 1.54c-.21-.16-1.5-.87-2.87-1.58a20 20 0 0 1-2.42-1.35c.04-.04 1.17.5 2.51 1.2a21 21 0 0 0 2.7 1.25c.5-.02 4.56-3.02 4.53-3.36-.02-.28.07-.27.73.07 1.34.69.8.26-.94-.75a111 111 0 0 0-6.9-3.53c-.03 0-.63.53-1.33 1.18m2.43-.23c-.04.04-.28-.06-.53-.22-.43-.28-.5-.25-1.82.9l-2.23 1.9-.86.7.73.31c1.02.43.91.54-.15.16-1.08-.4-1.22-.18 1.55-2.5 2.32-1.94 2.33-1.94 2.86-1.64.29.17.5.34.45.39m-75.82 1.27c-1.12.9-3.08 2.56-4.37 3.7-1.28 1.12-3.57 3.1-5.1 4.38a101 101 0 0 0-3.8 3.37c-.57.56-.73.74-.34.39q1.43-1.3 4.7-.42l1.5.41 1.62-1.26a48 48 0 0 1 3.88-2.63 61 61 0 0 0 4.38-2.97 35 35 0 0 1 2.36-1.69c.13-.05.24-.23.24-.4 0-.26.05-.27.25-.06.19.2.19.28 0 .35-.13.05-1.23.84-2.43 1.76a54 54 0 0 1-4.14 2.84c-2.95 1.76-4.11 2.59-5.43 3.9-.67.66-.81.83-.32.4a29 29 0 0 1 5.24-3.77 56 56 0 0 0 4.4-2.96c1.18-.9 2.36-1.76 2.62-1.93l.47-.31-1.71-2.37c-2.03-2.81-1.55-2.72-4.02-.73m9.19.63q.16.22 0 .34c-.1.06-.35-.35-.57-.9-.63-1.62-.67-1.9-.13-.73.28.58.6 1.17.7 1.3m-5.51-.1c.78 1.08 1.38 2 1.33 2.05s-.7-.74-1.42-1.77a11 11 0 0 0-1.5-1.86c-.35 0-4.33 3.28-8.5 7-.91.82-2.53 2.22-3.6 3.12s-2 1.72-2.08 1.83-.2.15-.26.08c-.07-.07 1.1-1.16 2.6-2.43s4.2-3.58 6-5.14c3.38-2.91 5.73-4.84 5.9-4.83.06 0 .74.88 1.53 1.96m73.16-1.54c1.17.5 4.75 2.53 4.65 2.63-.06.06-.22.02-.36-.09s-.94-.57-1.8-1.03l-2.04-1.1a2 2 0 0 0-.72-.26.5.5 0 0 1-.35-.2c-.16-.25-.04-.24.62.05m-69.44 1.3c-.01.25-.56-.87-.56-1.15 0-.16.13 0 .28.36s.29.72.28.78m5.85.16c.16.06.47.25.68.42.39.31.39.31.02-.12-.2-.24-.51-.43-.68-.43q-.4.01-.02.13m-5.05 1.61c.37.8 1.56 3.12 2.66 5.14s2 3.71 2 3.75c0 .21-4.21-5.21-4.75-6.12-.46-.78.25.04 1.64 1.9 1.9 2.56 2.1 2.63.77.28-1.21-2.16-3.11-6.02-3.11-6.33 0-.35.06-.23.8 1.38m6.65-.54c.58.5 1.7 1.2 1.7 1.07 0-.05-.5-.4-1.11-.8s-.88-.52-.59-.27m-33.44 1.17-.57.64.63-.58c.6-.53.73-.69.57-.69-.03 0-.31.29-.63.63m25.03.1c.25.35.49.63.53.63.14 0-.34-.73-.66-.99q-.3-.24.13.36m3.12-.05c0 .1.2.55.47.97.27.43.48.7.49.59 0-.1-.21-.55-.48-.97-.26-.43-.48-.7-.48-.59m-30.48 2.48-1.16 1.22 1.22-1.16c1.13-1.08 1.3-1.27 1.16-1.27-.03 0-.58.55-1.22 1.21m93.34-.92c0 .05.7.44 1.56.88.85.43 1.56.73 1.56.68s-.7-.45-1.56-.88a8 8 0 0 0-1.56-.68m-61.6.88c.16.32.34.58.4.58s-.04-.26-.21-.58c-.17-.33-.35-.59-.4-.59s.04.26.2.59m51.97.98c-1.4.74-2.47 1.34-2.38 1.34.25.01 4.1-1.93 4.61-2.33.71-.55.56-.48-2.24 1m-54.8.38c.23.32.46.58.52.58s-.1-.26-.32-.58a2 2 0 0 0-.52-.59c-.05 0 .1.27.32.59m3.8.39c.17.32.34.58.4.58s-.04-.26-.2-.58c-.17-.32-.35-.59-.4-.59s.03.27.2.59m11.39-.3c0 .05.26.23.58.4.32.16.58.25.58.2s-.26-.23-.58-.4-.59-.26-.59-.2m-22.15.77c-.9.64-1.04.82-.27.38.35-.2.74-.48.85-.61.29-.34.15-.3-.58.23m78.88.06c.31.3 3.8 2.6 3.8 2.5 0-.06-.77-.62-1.7-1.24-1.9-1.27-2.4-1.57-2.1-1.26m-104.23 1.17-1.07 1.12 1.12-1.06a20 20 0 0 0 1.12-1.12c0-.15-.19.02-1.17 1.06m49.25-1.06c0 .18.78.67.86.55.05-.1-.12-.26-.38-.38-.27-.12-.48-.2-.48-.17m-25.55.83c-.73.4-.68.56.05.18.32-.17.58-.34.58-.4 0-.12-.02-.11-.63.22m13.67.86c.33.65.64 1.17.7 1.17.04 0-.18-.53-.5-1.17a6 6 0 0 0-.69-1.16c-.05 0 .17.52.5 1.16m45.4-1.04c-.14.06-.23.42-.2.91.02.78.03.79.1.13.04-.37.22-.79.4-.92.31-.25.17-.3-.3-.12m-32.94 1.27c0 .55.03.97.07.92.17-.18.26-1.93.1-1.93-.1 0-.17.46-.17 1m32.39 2.6c0 1.6.03 2.23.07 1.4.03-.84.03-2.15 0-2.92-.04-.77-.07-.1-.07 1.52m-61.05-2.14c-.4.27-.73.54-.73.59s.35-.14.78-.42q1-.68.72-.66c-.02 0-.37.22-.77.5m61.62 1.84c0 .8.04 1.13.08.73s.04-1.06 0-1.46-.08-.07-.08.73m-63.33-.57-.67.6.73-.52q.95-.7.67-.68c-.03 0-.36.27-.73.6m-9.7.26-.48.6.56-.53c.3-.29.52-.56.47-.6s-.3.2-.56.53m56.48.65c.5.04 1.3.04 1.75 0s.03-.07-.93-.07-1.34.03-.82.07m-28.87.73c.37.38.7.69.76.69.05 0-.2-.31-.56-.69s-.7-.68-.76-.68c-.05 0 .2.3.56.68m1.75-.35c.38.8.26 1.29-.3 1.18q-.5-.1-.31.1c.65.65 1.31-.56.71-1.32-.3-.38-.3-.38-.1.04m11.55.94c0 .75.04 1.03.08.63s.04-1.02 0-1.37c-.04-.34-.08-.01-.08.74m-42.5-.15-.67.73.73-.67c.68-.62.82-.79.67-.79-.04 0-.36.33-.73.73m104.43-.43c.22.17.57.4.78.5l.4.2-.4-.32c-.21-.18-.56-.4-.78-.5l-.39-.2zm-47.16.04c.72.04 1.95.04 2.73 0s.2-.07-1.3-.07-2.15.03-1.43.07m-56.4.68-.57.64.63-.58c.6-.53.72-.69.57-.69-.03 0-.31.29-.63.63m40.85.54c0 .59.04.83.08.53s.04-.77 0-1.07-.08-.05-.08.54m33.08.2c0 .47.04.67.09.43a3 3 0 0 0 0-.87c-.05-.25-.09-.05-.09.43m42.19.67c.36.38.7.69.76.69.05 0-.2-.31-.57-.69s-.7-.68-.75-.68.2.31.56.68m-118.74.25-.68.73.73-.67c.68-.63.82-.8.68-.8-.04 0-.37.34-.73.74m.68.48-1.16 1.22 1.22-1.16c1.13-1.08 1.3-1.27 1.16-1.27-.03 0-.58.54-1.22 1.21m4.87.27-.58.5.63-.42c.35-.23.63-.46.63-.5 0-.15-.08-.1-.68.41m37.43.95-.24.97c-.06.22.02.1.2-.26.16-.36.27-.8.23-.97q-.07-.27-.2.26m-38.02.54-.57.63.63-.57c.59-.54.72-.7.57-.7-.03 0-.32.29-.63.64m116.11-.58c0 .04.29.32.64.64l.63.57-.57-.63c-.53-.6-.7-.73-.7-.58m-43.96.33c0 .16.11.56.26.88.34.75.35.4 0-.49-.14-.37-.26-.55-.26-.39m35.2-.13c0 .03.29.32.64.63l.63.57-.57-.63c-.53-.59-.7-.72-.7-.57m12.95 2.66c.96.97 1.79 1.75 1.84 1.75s-.69-.78-1.65-1.75a25 25 0 0 0-1.84-1.75c-.05 0 .69.79 1.65 1.75m-121.86-.92-.57.63.63-.57c.6-.53.72-.7.57-.7-.03 0-.32.3-.63.64m121.08 1.31a30 30 0 0 0 2.04 1.95c.05 0-.78-.88-1.84-1.95a30 30 0 0 0-2.04-1.94c-.06 0 .77.87 1.84 1.94m-129.64-.34-1.35 1.41 1.4-1.35c1.32-1.26 1.5-1.47 1.36-1.47-.03 0-.66.64-1.4 1.41m119-1.35c0 .03.29.32.63.63l.64.58-.57-.64c-.54-.59-.7-.72-.7-.57M63.56 180.6 62 182.2l1.61-1.55c1.5-1.44 1.7-1.66 1.55-1.66-.03 0-.75.72-1.6 1.6m5.64-.78-.77.82.83-.76c.76-.72.91-.89.76-.89-.03 0-.4.37-.82.83m112.22-.57c0 .03.28.31.63.63l.63.57-.57-.63c-.53-.6-.7-.72-.7-.57m-71.93 1.35c-.3.45-.42.72-.27.6.3-.25 1.04-1.43.9-1.43-.05 0-.33.37-.63.83m74.01-.25c.13.16.32.52.43.78q.19.5.2.16c0-.18-.18-.54-.42-.79q-.39-.39-.21-.15m-36.53 1.17c.21.43.44.78.5.78.04 0-.09-.35-.3-.78a3 3 0 0 0-.5-.78c-.06 0 .08.35.3.78m-38.53.48c-.46.48-.44 1.1.03 1.06q.3 0 0-.11-.53-.22.19-.98c.23-.25.38-.45.32-.45s-.3.22-.54.48m75.44 0c-.06.17-.32.39-.56.49q-.43.17-.13.19c.33 0 1.08-.7.91-.88-.06-.06-.16.04-.22.2m-123.73 1.03-.68.73.73-.67c.68-.63.82-.8.67-.8-.03 0-.36.34-.72.74m.68.48-.97 1.03 1.03-.97c.56-.53 1.02-.99 1.02-1.02 0-.15-.18.02-1.08.96m5.94-.77c0 .08 1.2.13 2.68.1q4.05-.05-.88-.2c-.99-.03-1.8.02-1.8.1m39.74.33c.08.25.35.3.37.06.01-.08-.09-.17-.21-.22q-.2-.05-.16.16m74.42 0c-.5.22.02.22.68 0q.58-.16.1-.15c-.21 0-.56.07-.78.16m-113.13.54c.84.04 2.15.04 2.92 0s.1-.07-1.51-.07c-1.6 0-2.24.03-1.4.07m110.99.14c-.75.35-.4.35.49 0 .37-.14.55-.26.39-.26s-.56.11-.88.26m-29.67.8c.37.44.7.76.76.73.04-.04-.26-.4-.67-.8l-.76-.72zm-74.17-.3c.27.08.66.15.87.15q.48.02-.1-.16a4 4 0 0 0-.87-.15q-.47-.02.1.16m3.8-.03c.2.1.69.22 1.06.3q.7.12.3-.05a6 6 0 0 0-1.07-.3q-.7-.12-.3.05m28.62.45c.31.6.54.75.34.23q-.15-.35.13-.17.25.15.12-.07c-.08-.12-.24-.17-.36-.1q-.2.13-.1-.15c.06-.17 0-.3-.15-.3-.21 0-.21.1.02.56m86.9-.42-1.66.12 1.7.03c1.03.03 1.7-.04 1.7-.16q0-.16-.04-.15c-.03.02-.8.09-1.7.16m-45.84.77c.41.43.8.78.85.78.06 0-.24-.35-.66-.78-.42-.42-.8-.78-.86-.78s.25.36.67.78m42.1-.44c.34.04.87.04 1.16 0 .3-.05 0-.08-.64-.08s-.88.04-.53.08m-112.86.25c.27.08.66.16.88.16q.47.01-.1-.16a4 4 0 0 0-.87-.16q-.48-.01.1.16m110.8-.06c.2.05.5.05.69 0s.03-.09-.35-.09c-.37 0-.52.04-.34.09m-123.98.2c.62.04 1.59.04 2.14 0 .56-.04.06-.07-1.12-.07s-1.64.03-1.02.07m-2.92.2c.3.04.73.04.97 0 .24-.05 0-.1-.54-.09-.53 0-.73.04-.43.08m7 0c.3.04.78.04 1.07 0 .3-.05.06-.09-.53-.09s-.83.04-.54.08m11.44.24c.66.22 1.18.22.68 0a2 2 0 0 0-.78-.16q-.48-.01.1.16m111-.05c.3.04.73.04.97 0 .24-.05 0-.09-.54-.09-.53 0-.73.04-.43.09m-2.58.21c0 .1.26.13.58.08s.58-.12.58-.16-.26-.08-.58-.08-.58.08-.58.16m-123.75.18c.5.04 1.34.04 1.85 0 .5-.04.1-.07-.92-.07s-1.44.03-.93.07m-3.5.19c.18.05.5.05.68 0s.03-.1-.34-.1c-.38 0-.53.05-.34.1m8.27 0c.24.05.6.05.78 0s-.01-.1-.44-.09c-.43 0-.58.04-.34.09m12.8.06c.21.09.52.16.68.16q.27 0-.1-.16c-.21-.1-.52-.17-.68-.17q-.27 0 .1.17m102.28.18c-.8.19-2.2.57-3.11.84-.91.28-3.32 1-5.36 1.58-12.83 3.71-24.72 10.69-31.27 18.36-.82.96-2.33 2.48-3.36 3.37s-1.86 1.71-1.86 1.81.93-.69 2.07-1.74a16 16 0 0 1 2-1.72c-.04.11-1.08 1.11-2.3 2.22-2.6 2.39-3.74 3.78-5 6.1-.5.93-.95 1.67-.99 1.63-.25-.25 2.23-4.17 3.52-5.53.43-.45.7-.83.6-.83-.56 0-3 3.47-4.37 6.21-.9 1.8-3.9 6.28-3.9 5.84-.01-.15-.13-.06-.27.2-.2.36-.47.49-1.1.55l-.83.08.11-1.14c.06-.62.17-1.3.24-1.52q.15-.4-.05-.13c-.15.2-.21.16-.3-.19-.07-.24-.05-.49.04-.55.2-.13.9-2.15.87-2.49-.02-.13.05-.24.16-.24q.16-.02.06-.2c-.07-.1-.02-.19.1-.19s.15-.1.08-.22q-.15-.2-.41.3c-.15.28-.22.6-.16.7q.1.18-.07.2c-.35 0-1 2.3-.8 2.84.25.66.24 1.03-.02.66q-.23-.35-.1.26c.1.42.07.52-.12.4q-.3-.17 0 .13c.63.69.06 1.61-1.14 1.83-.54.1-.75.06-.97-.22q-.4-.46.05-.1c.65.51 2.12-.06 2.08-.82-.02-.37-.03-.36-.15.07-.2.68-1.43.98-1.98.48-.46-.41-.5-.7-.07-.54.27.1.28.07.05-.3-.14-.22-.3-.41-.37-.41-.16 0-.1 1.82.07 2.09.09.13.07.24-.03.24s-.24-.14-.3-.32c-.1-.26-.18-.28-.37-.09s-.16.3.14.52q.32.26.17.28c-.39 0-2.22-2.2-3.71-4.47l-3.27-4.97a61 61 0 0 0-7.03-8.85 20 20 0 0 1-1.74-1.9c.14-.14 4.44 4.52 5.89 6.38 1.46 1.88 3.73 5.21 6.26 9.19 1.21 1.92 1.97 2.87 1.98 2.52 0-.14.1-.2.21-.13s.16.26.1.41q-.1.28.11.15.2-.11.1.06c-.06.1.05.35.25.53.59.53.4-.06-.37-1.11-.72-1-.83-1.1-.67-.58.22.69-.83-.77-2.93-4.08-3.77-5.93-12.02-15.75-13.23-15.72-.11 0 .23.4.76.87.54.47.89.87.77.87-.1 0-.55-.35-.97-.8a69 69 0 0 0-6.9-5.62c-4.77-3.45-5.64-4.13-5.55-4.28.27-.44-3.52-2.41-8.53-4.44l-2.88-1.17-4.03.36c-2.21.2-4.72.5-5.58.66l-2.92.5c-2.26.37-10.64 2.23-10.4 2.3.2.08 2.85-.46 4.81-.97.46-.12.88-.16.94-.1s-.4.2-1.03.34c-2.03.43-3.87.94-3.4.95 1.51.04 4.51.9 7.08 2.05 1.53.67 3.83 1.6 5.12 2.06 9.48 3.38 11.9 4.49 18.1 8.26 12.07 7.37 18.01 12.54 23.2 20.2l1.3 1.9 10.52-.01 10.52-.01 1.51-2.22c3.34-4.9 10.9-14.15 14.19-17.35l4.74-4.6A63 63 0 0 1 186.37 188c1.4-.4 2.62-.8 2.73-.9q.18-.16-.12-.05c-.17.06-.63-.07-1.02-.3-.95-.56-.9-.69.07-.19.42.22.77.35.77.3 0-1-2.97-.77-7.23.55-.92.28-1.8.5-1.94.5-.44-.02 3.3-1.14 5.48-1.63 1.12-.26 1.78-.46 1.46-.46s-1.25.15-2.05.34m-75.9.79c.21.43.43.78.49.78s-.09-.35-.3-.78a3 3 0 0 0-.5-.78c-.05 0 .08.35.3.78m40.07-.73q-.24.83.13.52c.32-.26.36-.57.08-.57-.1 0-.2.02-.2.05m-70.25.54c.67.2 1.18.2.68 0-.21-.1-.56-.17-.78-.17q-.47-.01.1.17m90.22.38q-.37.17-.1.17c.16 0 .47-.07.68-.17q.37-.16.1-.16c-.16 0-.47.07-.68.16m-82.24.3c.27.15.58.28.68.28s-.02-.13-.29-.28a2 2 0 0 0-.68-.28q-.14.02.3.28m80.3.4c-.5.23-.51.25-.1.15.55-.13 1.17-.44.87-.44-.1 0-.46.13-.78.28m8.56.08q-.37.16-.1.17c.16 0 .47-.08.68-.17q.37-.16.1-.16c-.16 0-.47.07-.68.16m3.8.18c-.32.18-2.5.79-3.32.92-.26.05.04-.08.69-.29 2.46-.78 3.19-.95 2.62-.63m-89.74.7c0 .05.35.27.78.49s.78.35.78.3c0-.06-.35-.28-.78-.5s-.78-.35-.78-.3m82.18.23c-.46.16-.8.33-.77.37.05.05.56-.09 1.14-.3s.92-.37.76-.37-.67.14-1.13.3m-92.74.2c.24.04.64.04.88 0 .24-.05.04-.09-.44-.09s-.68.04-.44.09m95.91.16c-.32.15-.76.27-.97.26-.21 0-.04-.12.39-.26 1.02-.34 1.32-.34.58 0m-88.47.89c1.66.71 1.28.72-.48.01l-1.36-.55-2.24.25c-1.23.14-2.76.24-3.4.23-.97-.01-.85-.04.67-.18 1.02-.08 2.51-.24 3.31-.33 1.66-.2 1.77-.18 3.5.57m6.24-.71c0 .05.26.23.58.4.32.16.58.25.58.2s-.26-.23-.58-.4c-.32-.16-.58-.25-.58-.2m18 .69c.17.32.35.58.4.58s-.04-.26-.2-.58c-.17-.32-.35-.59-.4-.59s.04.27.2.59m62.77-.5c0 .06-.41.22-.92.37-.51.16-1.53.51-2.26.79q-2.12.8-1.22.28c.75-.43 4.4-1.62 4.4-1.44m21.02.01c0 .13 2.75 1.5 2.84 1.42.04-.04-.58-.4-1.38-.8a7 7 0 0 0-1.46-.62m-119.31 1c-1.45.26-3.11.51-3.7.56s.29-.16 1.95-.46a39 39 0 0 1 3.7-.57c.37 0-.5.21-1.95.47m84.62.09c-.62.31-1.12.62-1.12.67 0 .09 2.32-1.02 2.51-1.2.26-.23-.42.02-1.4.53m8.03-.3c-.27.14-.4.27-.3.27s.42-.13.69-.28.4-.28.29-.28c-.1 0-.41.13-.68.28m-74.94-.02c0 .06.35.28.78.5s.78.35.78.3c0-.06-.35-.28-.78-.5s-.78-.35-.78-.3m-4.28.6q.47.27.18.28a1.4 1.4 0 0 1-.68-.28c-.48-.37-.14-.37.5 0m22.87.48c.17.32.34.59.4.59s-.04-.27-.2-.59c-.17-.32-.35-.58-.4-.58s.03.26.2.58m34.43.05-.61 1.12c-.27.47-.27.47.04.1.39-.46 1.13-1.85.99-1.85-.05 0-.24.28-.42.63m19.97-.24c-.37.2-.6.37-.49.37s.5-.17.88-.37.6-.38.49-.38-.5.17-.88.38m-96.25.3a5 5 0 0 1-1.36.25c-.45 0-.37-.06.39-.26 1.27-.33 1.97-.32.97 0m21.55.48c1.9.83 4.32 2.19 4.55 2.56.16.25.13.23-1.38-.73-.53-.34-1.67-.93-2.53-1.33-2.42-1.1-2.73-1.26-2.59-1.27.08 0 .95.34 1.95.77m77.04-.5c-.27.16-.58.29-.68.29s.02-.13.29-.28.57-.28.68-.28c.1 0-.03.13-.3.28m-75.7.18c.2.18 1.34.7 1.34.62 0-.12-1.07-.7-1.28-.7q-.12.01-.06.08m64.94.23c-.72.4-.68.56.05.18.32-.16.59-.34.59-.4 0-.12-.03-.1-.64.22m9.68.07c-.1.1-.67.37-1.26.62-7.75 3.25-16.98 9.8-21.17 15.05-.34.43-.66.72-.72.67-.34-.34 5.75-6.12 9.05-8.59 3.6-2.69 15.9-9.46 14.1-7.75m-54.88.8c.16.31.34.58.4.58s-.04-.27-.2-.59c-.17-.32-.35-.58-.4-.58s.03.26.2.58m50.9-.3c-.27.16-.4.28-.3.28s.42-.12.69-.28c.26-.15.4-.28.29-.28-.1 0-.42.13-.68.28m-64.62.77c0 .05.26.23.58.4s.58.26.58.2-.26-.23-.58-.4c-.32-.16-.58-.25-.58-.2m-2.53.37c0 .06.26.29.58.52.32.22.58.37.58.32 0-.06-.26-.29-.58-.52s-.58-.37-.58-.32m17.03.52c.16.32.34.58.4.58s-.04-.26-.2-.58a2 2 0 0 0-.4-.59c-.06 0 .03.27.2.59m46.95-.09c-.72.4-.68.56.05.18.32-.16.59-.34.59-.39 0-.12-.02-.12-.64.21m-103.6.09q-.37.16-.1.16c.17 0 .48-.07.69-.16q.37-.16.1-.17c-.16 0-.47.08-.68.17m117.95.63-.77.83.87-.78c.48-.43.91-.8.96-.83q.06-.05-.1-.05c-.1 0-.54.37-.96.83m-78.03.11c.1.1 1.8 1.33 3.78 2.76s4.57 3.38 5.75 4.34c1.17.97 1.92 1.51 1.65 1.22-.97-1.06-10.79-8.48-11.22-8.48q-.11.01.04.16m109.38.78c.05.06-.06.28-.25.5q-.37.45.2-.06c.62-.55.62-.54.24-.54q-.26.01-.2.1m-91.49.62c.17.32.35.58.4.58s-.04-.26-.2-.58c-.17-.32-.35-.59-.4-.59s.04.27.2.59m-59.19.22q-.13.22.11.08.26-.2.12.3-.13.46.04.22c.13-.18.27-.03.53.54.2.44.44.85.53.9s-.1-.42-.42-1.08c-.64-1.26-.69-1.3-.9-.96m87.44.65c-.17.27-.46.73-.63 1.03l-.31.53.41-.49c.44-.5 1.06-1.55.92-1.55-.04 0-.22.22-.39.48m-27.27.88c.16.32.34.58.4.58s-.04-.26-.2-.58c-.17-.32-.35-.58-.4-.58s.03.26.2.58m-62.27.2c.07.26.2.61.3.77q.2.31.06-.2a4 4 0 0 0-.31-.77q-.19-.3-.05.2m93.98.24-.57.63.63-.57c.35-.32.64-.6.64-.63 0-.15-.17-.02-.7.57m-97.6-.37c0 .21 1.16 2.46 1.27 2.46.05 0-.18-.55-.51-1.22-.64-1.26-.76-1.47-.76-1.24m103.65.43-.59.5.64-.41c.34-.23.63-.46.63-.5 0-.15-.08-.1-.68.41m22 0c-.06.29-.09.56-.04.6.05.05.14-.15.21-.43.08-.29.1-.56.05-.6-.05-.05-.14.14-.21.43m-72.51-.23c0 .05.26.28.58.5.32.24.59.38.59.33 0-.06-.27-.29-.59-.52-.32-.22-.58-.37-.58-.31m45.24.56-.57.63.63-.57c.35-.32.63-.6.63-.64 0-.14-.16-.01-.69.58m62.39.29-.68.73.73-.67c.4-.37.73-.7.73-.73 0-.15-.16-.01-.78.67m-94.1.24c.16.32.34.59.4.59s-.04-.27-.21-.59-.34-.58-.4-.58.04.26.2.58m28.31 1.51-1.65 1.7 1.7-1.65c1.59-1.53 1.8-1.75 1.66-1.75-.03 0-.8.76-1.7 1.7m-90.88-1.41c0 .1.13.41.28.68s.28.4.28.3-.13-.42-.28-.69-.28-.4-.28-.3m91.66 1.8-1.84 1.9 1.9-1.85a51 51 0 0 0 1.9-1.9c0-.14-.25.09-1.96 1.85m62.38-.88-.58.64.64-.57c.59-.54.72-.7.57-.7-.04 0-.32.29-.63.63m-58.79 1.56-.57.63.63-.57c.35-.31.64-.6.64-.63 0-.15-.16-.02-.7.57m25.25-.03c-.12.34-.22.77-.2.94 0 .17.13-.08.27-.56.31-1 .25-1.31-.07-.38m-123.33.18c.16.32.34.58.4.58s-.04-.26-.2-.58a2 2 0 0 0-.4-.59c-.06 0 .03.27.2.59m.97.39c.27.53.54.97.59.97s-.12-.44-.4-.97a4 4 0 0 0-.59-.98c-.05 0 .13.44.4.98m153.28.34-1.26 1.31 1.3-1.26c.73-.7 1.32-1.28 1.32-1.31 0-.15-.2.04-1.37 1.26m1.26-.1-1.16 1.22 1.21-1.17a18 18 0 0 0 1.22-1.21c0-.15-.2.03-1.27 1.16m-88.36-.24c.16.32.34.58.4.58s-.04-.26-.2-.58c-.17-.33-.35-.59-.4-.59s.03.26.2.59m21.02.77c-.17.33-.26.59-.2.59s.23-.26.4-.59c.16-.32.25-.58.2-.58-.06 0-.23.26-.4.58m3.2.15-.67.73.73-.67c.68-.62.82-.79.67-.79-.03 0-.36.33-.73.73m-32.2 1.02c.85.86 1.59 1.56 1.64 1.56.06 0-.6-.7-1.45-1.56a20 20 0 0 0-1.64-1.55c-.06 0 .6.7 1.45 1.55m36.3-.05-1.27 1.32 1.32-1.26a23 23 0 0 0 1.31-1.31c0-.15-.2.03-1.37 1.25m-32.02.64c.85.85 1.6 1.55 1.64 1.55.06 0-.6-.7-1.45-1.55a20 20 0 0 0-1.64-1.56c-.05 0 .6.7 1.45 1.56m54.1-.57a4 4 0 0 0-.43 1.07c.04.04.3-.41.6-1a4 4 0 0 0 .42-1.06c-.04 0-.31.45-.59 1m-49.14.37c.22.43.44.78.5.78s-.08-.35-.3-.78a3 3 0 0 0-.5-.78c-.05 0 .09.35.3.78m-58.78 0c.23.32.46.59.51.59.06 0-.09-.27-.31-.59a2 2 0 0 0-.52-.58c-.05 0 .1.26.32.58m80.57-.05c-1.15 1.29-1.41 1.61-1.31 1.61.06 0 .52-.48 1.02-1.07.93-1.1 1.16-1.51.29-.54m32.46-.14c-.1.38.17.73.4.5q.09-.1-.1-.11c-.11 0-.16-.18-.1-.4.05-.2.06-.38 0-.38s-.14.17-.2.39m28.18 1.4-1.75 1.8 1.8-1.74c1-.96 1.8-1.77 1.8-1.8 0-.14-.23.08-1.85 1.75m-63.64-1.01c-.17.32-.26.58-.2.58.04 0 .22-.26.4-.58.16-.32.25-.59.2-.59-.06 0-.24.27-.4.59m-82.05-.32c0 .21.58 1.29.7 1.29.05 0-.05-.28-.23-.63-.36-.71-.47-.86-.47-.66m136.74 1.53-1.56 1.6 1.6-1.54c1.5-1.45 1.7-1.66 1.56-1.66-.03 0-.75.72-1.6 1.6m10.7-.82-.76.78.67.63.67.63-.57-.63-.57-.64.76-.78c.42-.42.72-.77.66-.77s-.44.35-.86.78m-10.22 1.31-1.65 1.7 1.7-1.65c1.59-1.53 1.8-1.75 1.66-1.75-.03 0-.8.76-1.7 1.7m-76.39-.15c.53.54 1 .98 1.06.98.05 0-.34-.44-.87-.98a8 8 0 0 0-1.05-.97c-.06 0 .33.44.86.97m20.24.2c-.16.32-.26.58-.2.58s.23-.26.4-.58c.16-.32.26-.59.2-.59s-.23.27-.4.59m-15.86 1.75a15 15 0 0 0 1.07 1.95c.06 0-.34-.88-.88-1.95a15 15 0 0 0-1.07-1.95c-.05 0 .34.88.88 1.95m17.52-.97c-.45.53-.77.97-.72.97s.46-.44.91-.97c.45-.54.77-.98.72-.98s-.46.44-.91.98m-22.39-.33c0 .03.29.32.64.63l.63.57-.57-.63c-.54-.59-.7-.72-.7-.57m78.15 1.54-1.55 1.6 1.6-1.54c1.5-1.44 1.7-1.66 1.55-1.66-.03 0-.75.72-1.6 1.6m-80 .15c.42.43.8.78.86.78s-.24-.35-.66-.78-.8-.78-.86-.78.25.35.66.78m27.05.44-.77.83.83-.78a10 10 0 0 0 .83-.82c0-.15-.17 0-.89.77m29.54.29c.55.26.74.47.8.92.06.54.07.53.1-.12.03-.59-.04-.72-.4-.8l-.83-.22c-.22-.07-.07.03.33.22m-51.23.63c.23.32.46.59.51.59s-.09-.27-.32-.59a2 2 0 0 0-.51-.58c-.06 0 .09.26.32.58m85.45-.5c0 .2 1.24 1.86 1.32 1.77.06-.05-.15-.45-.45-.88-.53-.76-.87-1.11-.87-.9m-8.29.94-.77.83.83-.77c.77-.72.92-.89.77-.89-.03 0-.4.38-.83.83m-140.44-.08c.1.2.34.48.53.63q.3.24-.12-.35c-.51-.7-.7-.83-.4-.28m82.73.76-.67.73.73-.67c.4-.37.73-.7.73-.73 0-.15-.16 0-.79.67m66.79.78a31 31 0 0 1 2.8 7.74c.28 1.28.69 2.96.9 3.73.2.76.37 1.66.37 1.98 0 .7.36 1 .69.54.12-.17.36-.32.53-.32 1.63 0-.6-7.73-3.41-11.76-1.13-1.62-2.37-3.22-2.5-3.22-.08 0 .2.59.62 1.31m-151.65-.2-.67.74.73-.68c.68-.62.82-.78.67-.78-.04 0-.36.32-.73.72m2.94-.13c0 .17.12.47.29.68.3.37.3.37.12-.01l-.28-.68q-.13-.38-.13.01m7.97.57c.23.33.46.59.51.59s-.09-.26-.32-.59a2 2 0 0 0-.51-.58c-.06 0 .09.26.32.58m58.04.3c.23.47.46.83.5.79.08-.09-.7-1.67-.83-1.67-.05 0 .1.4.33.87m11.04.04q-1.27 1.4-1.12 1.41c.06 0 .47-.43.92-.97.87-1.03 1.01-1.34.2-.44M65 214.25c.33.48.65.87.7.87.06 0-.17-.4-.5-.87a4 4 0 0 0-.7-.88c-.06 0 .17.4.5.88m56.55-.3c.16.33.34.59.4.59s-.04-.26-.21-.58-.35-.59-.4-.59.04.27.2.59m-.3.98c.22.43.44.78.5.78s-.08-.35-.3-.78a3 3 0 0 0-.5-.78c-.05 0 .09.35.3.78m-62.67-.13c0 .03.28.31.63.63l.63.57-.57-.63c-.53-.6-.7-.72-.7-.57m7.59 1.1c.23.32.46.59.51.59.06 0-.09-.27-.32-.59a2 2 0 0 0-.5-.58c-.06 0 .08.26.3.58m68.51 1.56a13 13 0 0 0-.88 1.95c.06 0 .54-.88 1.08-1.95s.93-1.95.88-1.95-.54.88-1.08 1.95m-12.83-1.46c0 .1.17.5.38.88.2.37.37.59.37.48s-.17-.5-.37-.87c-.2-.38-.38-.6-.38-.5m.78 0c0 .1.17.5.38.88.2.37.37.59.37.48s-.17-.5-.37-.87c-.21-.38-.38-.6-.38-.5m-71.47 1.58c-.49.84-1.4 2.37-2.02 3.38-1.15 1.88-3.2 5.95-3.21 6.35 0 .12.33.27.73.34 1.25.2 1.36.17 1.48-.52.28-1.48 2.67-7.97 3.66-9.93.72-1.43.23-1.14-.64.38m79.78-.74q.12.3-.15.13-.25-.15-.12.07c.2.3.27.28.5-.13.13-.27.12-.36-.08-.36q-.24.02-.15.3m-62.05 2.57c.45.53.86.97.92.97.05 0-.27-.44-.72-.97a7 7 0 0 0-.91-.98c-.06 0 .27.44.71.98m54.9-.88c0 .1.13.41.29.68s.27.4.27.3-.12-.42-.27-.69-.28-.4-.28-.29m1.75.36c0 .21 1.16 2.46 1.27 2.46a5 5 0 0 0-.52-1.21c-.63-1.27-.75-1.47-.75-1.25m9.3.83c-.24.42-.97 1.54-1.62 2.5-.66.97-1.44 2.18-1.73 2.7-.56.97-1.14 1.17-1.22.42q-.05-.45.06-.05c.1.37.66.48.66.14q-.02-.18-.22-.08-.21.13.03-.32.52-1 .3-.17c-.08.26.16-.01.54-.62.37-.6 1.16-1.8 1.74-2.63a40 40 0 0 0 1.4-2.17c.17-.36.36-.61.41-.56s-.1.43-.34.84m-11.45-.44c0 .21.78 1.68.89 1.68.05 0-.1-.37-.32-.82-.45-.9-.57-1.07-.57-.86m1.58 1.78c0 .1.17.5.37.88.2.37.37.59.37.48s-.16-.5-.37-.87c-.2-.38-.37-.6-.37-.49m44.54.63-.67.73.73-.67c.68-.62.82-.79.67-.79-.03 0-.36.33-.73.73m-103.7-.39c0 .03.28.32.63.63l.64.57-.58-.63c-.53-.59-.69-.72-.69-.57m62.1.28c0 .11-.23.18-.49.16-.27-.03-.43.02-.37.12s.23.14.38.08q.27-.09.29.23 0 .35.2-.13c.1-.26.14-.52.08-.57q-.09-.07-.1.1m3.78 1.23a4 4 0 0 0-.43 1.07c.04.04.3-.4.6-1 .28-.58.47-1.06.42-1.06s-.32.45-.6 1m-3.28-.3q-.13.33-.51.23-.35-.08-.28.07c.06.1.22.18.37.18.29 0 .8-.54.64-.7q-.1-.06-.22.23m-55.79.15c0 .03.29.32.64.63l.63.57-.57-.63c-.54-.59-.7-.72-.7-.57m.16 1.45c.42.5.98 1.1 1.22 1.31.25.22-.06-.2-.7-.92-1.3-1.5-1.7-1.8-.52-.4m1.2.1c0 .04.29.33.64.64l.63.57-.57-.63c-.53-.59-.7-.72-.7-.57m138.26.73c0 .48.03.67.08.43a3 3 0 0 0 0-.87c-.05-.24-.09-.05-.09.44m-137.09.64c0 .03.29.32.64.63l.63.58-.57-.64c-.54-.59-.7-.72-.7-.57m-7.59.91c.23.32.46.59.52.59s-.1-.27-.32-.59a2 2 0 0 0-.52-.58c-.05 0 .1.26.32.58m118.07.5c-.34.9-.63.87 8.3.82l8.42-.05-8.34-.05-8.34-.05.12-.49c.13-.54.03-.66-.16-.17" clip-rule="evenodd"/><path fill="#F8F8F5" fill-rule="evenodd" d="M176.36 52.34c0 .03.28.32.63.63l.63.57-.57-.63c-.53-.59-.7-.72-.7-.57M66.24 89.36c0 .43.04.58.09.34.04-.25.04-.6 0-.78-.06-.19-.1 0-.1.44m0 1.46c0 .37.03.52.08.34.05-.19.05-.5 0-.68-.05-.2-.09-.04-.09.34m25.7 19.32c-.33.34-.97 1.24-1.42 1.99s-1.32 2.02-1.93 2.82c-.62.8-1.48 2-1.92 2.65l-.8 1.2.98 1.09c.54.6 1.18 1.15 1.43 1.21s.5.23.55.37c.22.55 6.22 3.13 8.86 3.8 5.55 1.42 9.33 1.02 14.37-1.52a42 42 0 0 1 3.03-1.42c.83-.29.88-.42.37-1.07-.2-.26-.43-.79-.5-1.18-.14-.7-.9-2.35-1.91-4.11l-.48-.84-.34.94a14.5 14.5 0 0 1-3.27 4.83c-7.55 7-20.17-.48-16.86-9.99.27-.77.48-1.4.47-1.4s-.3.28-.63.63m7.63-.45c-.98.4-1.56 1.63-1.27 2.72.72 2.67 4.49 2.33 4.53-.4.03-1.8-1.64-2.99-3.26-2.32m51.74.78c-2.38 1.45-.17 5.19 2.36 3.99.87-.41.89-.25-.36-2.43-1.2-2.1-1.17-2.07-2-1.56m-38.19 1.39c.01.36.06.5.11.32.05-.2.19-.29.32-.2q.19.08-.06-.25l-.34-.46c-.03-.04-.04.22-.03.59m28.53 2.95c-2.63 4.44-3.32 5.94-2.97 6.48 1.42 2.16 8.69 4.95 12.9 4.95 2.45 0 7.82-.98 7.98-1.47.21-.65-.43-.91-1.41-.57-6.61 2.3-13.97-2.77-15.01-10.34-.16-1.17-.27-1.1-1.48.95m67.6 112.84-.68.14.84.03c.52.02.8-.05.72-.17q-.12-.17-.16-.17z" clip-rule="evenodd"/></svg>