<svg xmlns="http://www.w3.org/2000/svg" width="256" height="256" fill="none" viewBox="0 0 256 256"><rect width="256" height="256" fill="#F4F2ED" rx="60"/><path fill="#0F0F0F" d="M228 182.94a12.73 12.73 0 0 1-15.8-6c-9.05-13.57-19.06-26.53-28.68-39.76l-4.17-5.56c-11.46 15.34-22.91 30.08-33.36 45.37a12.2 12.2 0 0 1-15.02 5.9l42.99-57.67-39.98-52.1a13.3 13.3 0 0 1 15.84 5.56c9.29 13.57 19.58 26.53 29.8 40.26 10.3-13.62 20.47-26.63 29.98-40.09a11.95 11.95 0 0 1 14.9-5.56l-15.52 20.57c-6.95 9.18-13.78 18.4-21.01 27.36a5.56 5.56 0 0 0 0 8.28c13.29 17.63 26.46 35.31 40.03 53.44M28 124.5c1.17-5.56 1.89-11.62 3.5-17.3 9.62-34.19 48.82-48.42 75.79-27.24 15.79 12.4 19.74 29.97 18.96 49.77H37.29c-1.45 35.36 24.07 56.71 56.7 45.81a33.9 33.9 0 0 0 21.53-23.96c1.72-5.56 4.5-6.5 9.78-4.9a45.1 45.1 0 0 1-21.57 32.98 52.3 52.3 0 0 1-60.88-7.79 54.8 54.8 0 0 1-13.68-32.13c0-1.9-.73-3.79-1.11-5.56q-.06-4.95-.06-9.68m9.4-2.4h80.45c-.5-25.62-16.68-43.8-38.25-43.97-24.02-.34-41.2 17.46-42.26 43.87z"/></svg>