<svg xmlns="http://www.w3.org/2000/svg" width="256" height="256" fill="none" viewBox="0 0 256 256"><rect width="256" height="256" fill="#242938" rx="60"/><path fill="#A730B8" d="M61.39 100.77a22.5 22.5 0 0 1-9.6 9.57l52.72 52.98 12.71-6.45zm69.55 69.88-12.71 6.45 26.71 26.85a22.5 22.5 0 0 1 9.6-9.57z"/><path fill="#5496BE" d="m191.94 121.73-29.85 15.15 2.2 14.09 33.78-17.14a22.5 22.5 0 0 1-6.13-12.1m-47.18 23.94-70.58 35.8a22.5 22.5 0 0 1 6.13 12.1l66.65-33.81z"/><path fill="#CE3D1A" d="M122.07 57.48 88 124.02l10.05 10.1 36.06-70.45a22.5 22.5 0 0 1-12.05-6.2m-42.92 83.85L61.9 175.04c4.56.77 8.77 2.93 12.06 6.2l15.25-29.8z"/><path fill="#D0188F" d="M51.5 110.49a22.4 22.4 0 0 1-13.4 2.12l10.08 64.49a22.4 22.4 0 0 1 13.38-2.12z"/><path fill="#5B36E9" d="M80.36 193.89q.34 2.25.24 4.53c-.17 3.08-.98 6.1-2.37 8.86l64.42 10.35a23 23 0 0 1-.24-4.53c.18-3.09.98-6.1 2.37-8.86z"/><path fill="#30B873" d="m198.3 134.07-29.74 58.1c4.56.77 8.77 2.94 12.06 6.2l29.73-58.1a22.5 22.5 0 0 1-12.06-6.2"/><path fill="#EBE305" d="M157.74 51.9a22.5 22.5 0 0 1-9.6 9.56l46.04 46.27a22.5 22.5 0 0 1 9.6-9.57z"/><path fill="#F47601" d="m115.71 45.14-58.2 29.53a22.5 22.5 0 0 1 6.12 12.1l58.2-29.53a22.5 22.5 0 0 1-6.12-12.1"/><path fill="#57C115" d="M148.03 61.52a22.4 22.4 0 0 1-13.37 2.23l5.16 33.05 14.07 2.26zm-5.22 54.5 12.2 78.13a22.5 22.5 0 0 1 13.4-2.01l-11.53-73.87z"/><path fill="#DBB210" d="M63.67 87.01q.36 2.3.25 4.6a22.5 22.5 0 0 1-2.34 8.8l33.05 5.32 6.5-12.7zm56.63 9.1-6.5 12.7 78.08 12.55a23 23 0 0 1-.23-4.47c.18-3.1 1-6.14 2.4-8.92z"/><path fill="#FFCA00" d="M136.74 61.92a20.43 20.43 0 1 0 2.2-40.82 20.43 20.43 0 0 0-2.2 40.82"/><path fill="#64FF00" d="M212.97 138.51a20.43 20.43 0 1 0 2.2-40.82 20.43 20.43 0 0 0-2.2 40.82"/><path fill="#00A3FF" d="M163.73 234.73a20.43 20.43 0 1 0 2.2-40.82 20.43 20.43 0 0 0-2.2 40.82"/><path fill="#9500FF" d="M57.07 217.6a20.43 20.43 0 1 0 2.2-40.82 20.43 20.43 0 0 0-2.2 40.82"/><path fill="red" d="M40.38 110.8a20.43 20.43 0 1 0 2.2-40.82 20.43 20.43 0 0 0-2.2 40.81"/></svg>