<svg xmlns="http://www.w3.org/2000/svg" width="256" height="256" fill="none" viewBox="0 0 256 256"><rect width="256" height="256" fill="#242938" rx="60"/><g clip-path="url(#a)"><path fill="#0ACF83" d="M94.35 228a33.34 33.34 0 0 0 33.33-33.33v-33.34H94.35a33.35 33.35 0 0 0 0 66.67"/><path fill="#A259FF" d="M61.01 128a33.35 33.35 0 0 1 33.34-33.33h33.33v66.66H94.35A33.35 33.35 0 0 1 61 128"/><path fill="#F24E1E" d="M61.01 61.33A33.35 33.35 0 0 1 94.35 28h33.33v66.67H94.35A33.35 33.35 0 0 1 61 61.33"/><path fill="#FF7262" d="M127.68 28h33.33a33.35 33.35 0 0 1 33.34 33.33A33.35 33.35 0 0 1 161 94.67h-33.33z"/><path fill="#1ABCFE" d="M194.35 128a33.35 33.35 0 0 1-66.67 0 33.35 33.35 0 0 1 66.67 0"/></g><defs><clipPath id="a"><path fill="#fff" d="M61 28h133.36v200H61z"/></clipPath></defs></svg>