<svg xmlns="http://www.w3.org/2000/svg" width="256" height="256" fill="none" viewBox="0 0 256 256"><rect width="256" height="256" fill="#F4F2ED" rx="60"/><path fill="#000" d="M89.78 193.93c-7.24-5.7-14.96-11.15-20.24-18.84-11.1-13.56-19.65-29.25-25.5-45.74-3.52-10.72-4.73-22.22-9.29-32.53-4.76-7.48.82-15.67 9.02-18.05 3.65-.7 10.07-4.14 2.32-1.68-6.94 5.1-7.62-4.63-.5-5.25 4.87-.64 6.66-4.62 5-8.2-5.22-3.41 12.65-7.15 3.66-12.23-9.37-10.1 13.1-12.05 7.56-.57-1.33 8.82 15.7-1.62 11.75 8.57 4.02 4.9 15.05 1.12 14.77 7.99 5.85.4 7.86 5.32 13.36 5.7 5.69 2.57 16 4.6 17.95 11.01-5.65 4.47-18.73-9.23-19.36 3.14 1.7 18.29 1.27 37.12 7.96 54.54 3.17 10.54 10.84 18.84 17.76 27.05 6.63 8.04 15.61 13.7 24.76 18.47 8.03 3.79 16.68 6.3 25.43 7.87 3.55-2.71 9.82-12.8 15.35-8.55.26 4.78-10.98 10-.53 9.47 6.14-1.85 10.4 4.75 15.46-1.2 4.66 5.51 19.36-3.53 16.05 7.75-4.48 2.89-11.02 1.14-15.51 5.12-7.4-3.7-13.3 3.3-21.5 2.42a158 158 0 0 1-27.58 2.3c-15.14-1.2-30.6-1.7-45-6.97-8.1-2.35-16.02-6.97-23.15-11.6m12.78 5.53c7.92 3.43 15.67 7.04 24.35 8.13 13.77 1.92 28 4.86 41.82 2.17-6.26-2.82-12.72 1.1-18.96-2.01-7.47 1.6-15.5-.41-23.1-1.4-8.63-3.86-17.96-6.5-26.05-11.5-10.11-3.7 5.23 4.74 7.96 5.42 6.32 3.59-6.95-1.84-8.82-3.33-5.3-2.97-5.97-2.35-.53.66 1.1.65 2.18 1.32 3.33 1.87M87.5 188.82c7.68 2.85-.03-5.4-3.55-4.92-1.56-2.7-5.96-4.4-2.86-5.86-5.57 1.94-5.84-7.36-8.46-6.03-5.9-1.87-2.3-8.47-9.32-12.52-.65-4.27-6.99-7.98-9.01-14.42-.9-3.3-7.17-12.77-3.31-3.95 3.28 8.48 9.05 15.75 13.85 23 3.73 6.92 8.13 14.14 14.93 18.45 2.29 2.2 4.5 5.56 7.73 6.25m-22.11-24.28c.26-1.15 1.4 2.51 0 0m31.3 27.7c1.7-.77-2.44-.97 0 0m4.17 1.51c-.43-2.1-1.9 1.17 0 0m5.21 2.18c2.49-2.37-3.82-1.5 0 0m8.94 4.98c1.51-2.23-4.83-.84 0 0m-17.16-11.97c3.85-2.5-4.98-.03 0 0m3.91 1.95c-.1-1.31-1.4.6 0 0m19.56 12.21c3.14 1.98 18.35 4.35 8.83.81-1.6.34-17.67-4.54-8.83-.81m-31.05-24.18c-.3-1.32-4.88-1.46 0 0m9.1 5.3c2.37-1.65-4.91-1.27 0 0m7.66 4.7c3.4-1.28-5.51-1.29 0 0m-20.46-14.03c3.69 2.83 14.87.36 5.65-1.7-4.2-2.23-13.67-3.76-7.22 1.36zm25.65 15.65c1.54-2.62-6.44-1.5 0 0m-7.8-6.2c9.02 2.56-7.58-5.7-2.22-.93l1.19.54zm15.63 9.04c8.55.08-7.71-1.18 0 0m-36.77-23.44c-.33-1.59-2.1.14 0 0m51.22 31.55c.23-2.88-2.78 2.14 0 0m-36.64-22.62c-.52-1.51-2.67-.06 0 0m-13.77-9.92c4.9-.3-6.71-2.16 0 0M67.78 158.4c-.61-2.35-5.34-4.22 0 0m42.82 27.18c-.9-1.03-.42.22 0 0m26.65 16.35c-.09-1.56-1.45.6 0 0m-29.01-18.79c.48-2.02-4.18-.61 0 0m-19.86-12.58c3.65-.4-5.84-2.47 0 0m33.59 20.87c5.69-2.25-5.54-1.1 0 0m-17.47-11.86c6.55.84-7.8-4.46-1.44-.48zm22.77 14c6.12-3.66 4.1 8.57 10.38 1.03 6.2-4.52-5.34 5.6 2.29.81 5.52-3.7 13.67 1.75 18.82 3.53 3.7-.19 7.3 3.2 11.1 1.14 7.31-1.97-14.29-2.92-8.63-6.41-6.69 1.94-11.63-2.32-14.92-6.6-7.5-1.74-16.18-5.58-19.92-12.22-1.53-2.49 2.2.36-1.32-3.72-4.52-4.02-6.78-8.58-9.81-13.47-3.63-1.94-4.05-7.63-4.41-.2.02-4.69-4.38-7.84-5.46-6.53-.02-4.52 4.72-2.26 1.4-5.6-.7-4.68-3.06-9.57-3.76-14.85-1.1-2.55-.16-8.01-3.75-2.24-1.3 6.1-.43-7.5 1.6-3.01 2.67-4.58-.96-4.04-1.1-3.4 1.73-3.87 1.1-9.34-.46-7.25.93-4.1 1.47-15.06-1.39-13.11 1.73-4.28 3.28-19.58-4.22-13.75-3.04.04-8.3 1.1-10.8 2.34 7.81 4.3-.78 1.56-3.95.87-.42 3.98-3.56 2.26-7.5 2.3 6.29.78-3.05 6.42-6.65 4.23-4.68 2.23 4.04 7.81.1 9.54.48 2.6-7.17-.94-6.57 5.06-4.54-1.9-.62 7.13 1.65 4.07 7.72 2.1 5.43 6.86 5.63 11.38-1.26 2.64-6.21-6.2-1.1-5.79-4.03-6.54-4.46-2.36-7.81.68-.78.22 8.54 4.33 2.7 6.36 5.14.8 5.28 5.3 6.33 8.14 3.1 3.23 2.46-3.55 6.16.32-2.34-3.45-12.4-9.72-4.3-7.71-.04-3.47-1.46-6.27 1.02-6.2 2.46-4.45-2.58 10.97 2.96 5.32 1.54-.67 1.92-4.46 4.68.35 4 3.94 1.44 6.8-4.2 3.19 1 3.43 7.55 4.65 6.32 10.02 1.3 4.71 3.13 2.97 4.72 2.7 1.25 4.58 1.95 1.22 2.01-.97 5.72 1.23 4.38 4.6 6.17 6.96 3.93 1.78-5.64-12.04 1.12-4.15 7.11 6.42 2.67 9.1-3.71 8.07 4.03-.33 5.34 5.46 10.39 5.25 4.6 2.2 7.72 10.61-.22 7.1-2.75-2.47-12.5-5.54-4.54-.81 7.36 3.4 13.2 5.44 20.28 9.71 5.08 3.62 7.27 7.77 9.2 8.6-4.27 2.03-12.86-1.63-6.48-2.76-3.98-.72-8.45-2.73-4.64 2.22 3.24 2.7 11.47 2.42 12.95 2.73-1.25 2.76-3.4 2.98.05 3.19-3.85 2.05 1.24 2.37 1.6 3.54m-7.87-22.23c-2.34-2.45-2.95-7.04-.42-3.05 1.3.52 4.17 7.5.42 3.05m25.64 16.28c1.46-.09.04 1.11 0 0m-29.34-22.29c-.09-3.7.85 2.86 0 0m-2.55-3.43c-2.94-5.7 3.72 1.61 0 0m-30.88-21.31c1.73-.47.85 2.96 0 0m24.58 13.32c1.06-4 1.25 3.35 0 0M89.5 141.84c-1.23-2.2 2.56 2.06 0 0m14.9 4.77c-2.8-6.25 1.97-3.41.62 1.03zm-25.7-17.14c-1.25-2.05-3.31-8.07-2.65-9.9.6 2.99 6.37 12.88 2.83 4.09-3.91-7.36 4.67 2.4 5.56 4.23.4 1.83-2.42-.5-.5 3.78-3.5-4.87-2.06 2.7-5.24-2.2M70.74 124c.32-4.77 1.82 3.27 0 0m3.57 1.23c1.7-3.6 2.89 5.02 0 0m-8.6-6.65c-2.95-2.93-5.1-5.64.14-1.82 2.02.08-4.48-6.16.49-1.98 5.22.95 2.58 8.56-.62 3.8m4.52-.11c1.72-1.7.91 1.67 0 0m2.78.89c-2.6-4.88 3.16 2.04 0 0m-5.52-5.28c-8.6-7.65 10.8 4 1.4 1.42zm24.62 14.3c-3.72-2.22-.98-15.7.29-6.48 3.61-1.17-.2 4.76 2.5 4.7-.43 3.74-1.64 5.09-2.79 1.79m9.11 5.4c.37-4.07.77 2.77 0 0m-1.58-1.57c.41-1.73.04 2.04 0 0m-30.47-20.64c-5.52-7.62 16.05 7.7 3.54 1.93-1.3-.34-2.88-.47-3.54-1.93m17.54 9.3c-.52-6.42 1.17 1.06 0 0m13.32 8.54c1.03-3.66.08 2.42 0 0m-30.01-20.75c3.28-.7 13.6 5.76 4.12 1.84-1.05-1.16-3.3-.63-4.12-1.84m28.18 14.04c.35-6.55 1.96-3.91.02.94zm-25.74-16.33c1.34-1.96-3.55-8.86.7-2.47 1.84 1.46 5.33 2.44 2.25 3.06 4.84 4.27-1.18 1.16-2.95-.59m24.35 14.29c.92-7.48.81 4.37 0 0M69.67 99.46c1.02-.43.54 1.36 0 0m6.35 3.78c1.63-3.43 3.01 3.83 0 0m17.91 9.97c-.01-1.32.34 1.91 0 0m-1.03-2.3c-2.5-6.13 2.3 3.25 0 0m-1.53-4.02c-.42-2.54 1.42 3.18 0 0m2.48-4.04c-1.7-3 2.16-13.25 2.59-6.9-1.8 4.95-.52 7.72.74 1.08 2.32-5.22-.5 10.31-3.33 5.82m2.56-15.23c.74-.92.16 1.1 0 0m-4.27 84.02c-1-.88.13.56 0 0m8.79 4.44c4.88 1.25 4.86-.76.44-1.36-2.37-2.2-9.87-4.55-3.16-.27.44 1.12 1.85 1.1 2.72 1.63m-17.35-11.52c2.7 2 10.14 5.69 3.83.76 2.13-2.47-4.06-3.78-2.01-5.43-5.23-3.2-4.12-2.92-.46-2.82-6.28-2.8.9-2.6.57-4.03-2.43-.48-12.03-4.27-6.38.3-5.75-2.92-1.37 1.1-3.1.68-5.88-1.6 5.23 4.47-.94 2.96 3.37 2.67 9.07 6.84 1.43 2.83-1.01 1.45 5.47 3.65 7.06 4.75m9.19 5.28c11.17 3.6-5.48-4.4 0 0m47.02 28.49c.15-2.22-1.52 1.89 0 0m4.84 2.03c2.58-2.5.1 3.98 4.27-.61.04-3.28-.13-5.23-4.79-1.24-1.28.72-1.85 3.75.52 1.85M67.9 152.17c-.8-3.1-5.55-3.1 0 0m5.16 3.39c-1.92-3.18-6.84-2.88 0 0m29.36 17.7c2.87 2.55 13.17 1.87 3.49.32-1.44-2.12-9.11-1.61-3.49-.32m40.37 24.93c4.41-3.7-4.28 1.66 0 0m9.18 6.31c.03-1.19-1.9.52 0 0m.01-1.66c4.89-5.18-4.73.3 0 0m-96.78-61.3c-4.16-5.94-2.59-8.6-6.6-13.46-.76-3.7-6.9-12.13-3.17-3.2 3.4 5.2 4.42 13.28 9.77 16.66m95.25 59.65c8.99-5.8-3.7-2.53 0 0m6.86 2.69c4.5-3.87-2.85-.8 0 0m-90.94-58.27c1.29-1.92-3.33-.25 0 0m89.5 56.43c4.37-2.8-1-2.37-.78.26zm-59.14-37.28c-.15-1.9-2.3.16 0 0m3.65 2.1c-1.16-2.35-1.79.37 0 0m62.5 37.08c5.58-4.03-3.4-.77-1.18.77zm-2.15-1.03c4.55-3.81-4.8 1.69 0 0m10.93 7.28c3.05-2.05-3.71-.67 0 0M69.17 144.22c4.1.92 16.36 10.09 9.12.64-3.7-1.1-1.48-10.16-5.26-8.56 2.54 4.24 2.09 6.05-3.24 3.38-6.7-3.27-3.76 1.61-2.45 2.96-1.79.4 2.35 1.55 1.83 1.58M50.52 129.5c.73-3.03-6.75-16.67-3.54-6.83 1.17 2.06 1.05 5.96 3.54 6.83m34.23 21.1c-2.1-1.75-.1-.24 0 0m5.2 1.22c0-3.21-5.74-1.3 0 0m44.98 28.36c-.86-2.2-3.4-.05 0 0m2.16 1.58c-.32-1.23-1.25.23 0 0m17.83 11.23c1.72-1.27-2.14-.16 0 0m-95.09-61.1c4.91-1.9-5.25-1.36 0 0m71.14 44.8c-.05-3.17-3.13.8 0 0M57.9 127.37c3.15-1.07-2.92-.7 0 0m9.14 4.43c-.05-1.05-.97.4 0 0m111.55 68.4c4.06-.82 13.29 2.06 14.78-1.07-4.92-.12-17.02-3.48-17.6.8l1.08.17zM69.95 132.52c.07-3.22-2.51-.12 0 0M45.9 115.84c-1.09-6.13-4.15-.93 0 0m5.74 1.44c.07-1.97-5.25-1.77 0 0m3.27 1.6c-.94-.76-.74.98 0 0m20.62 13.24c.97-.9-2.3-.66 0 0m-22.8-16.86c-.55-4.63-6.64-.7 0 0m-11.75-7.63c-.17-2.14-1.15.8 0 0m1.74-1.32c-.28-2.53-1.5.32 0 0m9.67 5.77c4.08-1.6-7.45-3.32-.84-.3zm129.3 79.87c2.62-2.4-3.32-.74 0 0m15.63 8.1c1.04-3.1-2.64.4 0 0M53.37 107c.43-3-3.24.6 0 0m-13.74-9.2c-.74-4.24-.64-11.67 6.42-9.16-9.43 1.87 6.53 11.72 4.51 3.94 3.97.2 7.76-2.34 5.68 1.51 7.8-.86 13.22-7.63 20.77-6.69 5.88-.77 12.3-1.36 18.64-3.73 5.2-.37 10.22-5.98 7.36-9.3-7.1-.6-14.53.28-22.38 1.84-8.7 1.81-16.6 5.25-25.37 6.72-8.56 1.15 1.72 3.17-.73 3.62-4.47 1.55 5.32 2.6-.58 4.22-3.65-.69-7.44-1.94-5.88-5.78-8.2 1.06-15.4 4.46-8.92 12.8zm19.74-10.06c1.92-7.08 10.3 5.82 3.15.94-.85-.64-2.26-1.16-3.15-.94m.37-3.43c2.78-2.07 1.48 1.15 0 0m3.52.05c.26-3.25 8.06 1.73 1.3 1.17zm4.82-1.93c1.76-2.06.5 1.82 0 0m1.23-.83c2.93-3.52 16.59-2.24 6.6-.34-2.69-2.02-4.74 1.19-6.6.34m17.82-2.75c-.44-9.6 8.86 3.42 0 0m5.06-.02c1.85-4.85 7.18-1.95.86-.98.13.52-.19 2.5-.86.98m-40.81 25.69c5.52-3.39-5.87-2.94 0 0m4.08 1.13c1.94-2.06-4.2-.83 0 0m-12.03-8.54c3.16-2.42-3.74-.92 0 0m163.1 102.04c.1-2.81-2.4 1.27 0 0m-16.57-11.31c.47-3.24-2.13.28 0 0m21.13 12.4c4.42.02 13.38-1.37 3.77-1.37-1.5.24-8.78.19-3.77 1.37M59.06 103.68c3.57-.25 5.58-3.94-.7-3.73-9.73-1 8.59 3.33-1.24 2.09-1.32.88 1.86 1.88 1.94 1.64m3.14 1.59c-.37-2.3-1.1 1.22 0 0m3.73-9.95c1.55-1.92-2.14-.51 0 0M54.05 75.47c6.38-2.17 15.1-4.61 18.1 1.06-3.06-3.68-1.23-7.31 1.66-1.92 4.1 5.45 6.14-2.48 3.48-4.31 3.03 3.76 6.48 5.55 2.03.24 4.84-5.82-9.68.76-12.98.7-1.6.7-16.4 3.77-12.29 4.23m3.74-7.16c3.64-2.74 12.57 1.63 6.84-2.73-.56-.5-12.56 3.31-6.84 2.73m13.25.55c4.26.1-1.83-5.72 3.24-3.08-.84-2.72-5.9-3.23-8.38-4.31-1.4 2.48 2.85 7.42 5.14 7.39M60.11 56.83c1.48-2-2.58 1.01 0 0m5.42 1.3c6.86-.91-1.75-2.96-1.38-.08zM55.42 50.2c-4.83-6.3 9.08 1.06 4.17-5.54-4.13-3.29-8.1 3.7-4.17 5.54m61.95 33.37c2.21-3.93-9.14-5.3-1.5-1.4.71.24.55 1.67 1.5 1.4"/></svg>