<svg xmlns="http://www.w3.org/2000/svg" width="256" height="256" fill="none" viewBox="0 0 256 256"><rect width="256" height="256" fill="#EE524F" rx="60"/><path fill="#B61B1B" d="M73.87 99.73H50.05V64H97.7v35.73zm.17 81.14H50.2v-35.73h47.65v35.73zM181.7 99.73h-23.83V64h47.65v35.73zm-14.5 106.93h-14.18v-10.64h14.19v-8.87l.82-9.67h-14.19l-.82-20.47v-21.28h56.74v21.28l.83 20.47H196.4l-.82 7.9v7.1h-14.19v14.18z"/><path fill="#414141" d="M166.45 203.31h-15.43v-11.57h15.43v-19.29h-15.43v-46.29h61.73v46.29H197.3v15.43h-15.43v15.43zm-92.59-27H43v-50.15h61.72v50.15zm0-81.02H43V49h61.72v46.29zm108.02 0h-30.86V49h61.73v46.29z"/></svg>