<svg xmlns="http://www.w3.org/2000/svg" width="256" height="256" fill="none" viewBox="0 0 256 256"><rect width="256" height="256" fill="#F4F2ED" rx="60"/><path fill="#EA4335" d="M161 92.39 178.4 75l1.15-7.32c-31.68-28.8-82.04-25.54-110.6 6.82A80 80 0 0 0 52 106.26l6.22-.88L93 99.65l2.69-2.75c15.46-16.98 41.61-19.27 59.47-4.82z"/><path fill="#4285F4" d="M203.16 105.75a78.3 78.3 0 0 0-23.6-38.07l-24.4 24.4a43.4 43.4 0 0 1 15.91 34.4v4.34c12 0 21.72 9.72 21.72 21.72S183.07 174 171.07 174h-43.49l-4.27 4.63v26.05l4.27 4.09h43.5c31.19.24 56.67-24.6 56.92-55.8a56.5 56.5 0 0 0-24.84-47.23"/><path fill="#34A853" d="M84.15 208.78h43.43V174H84.15c-3.1 0-6.1-.67-8.9-1.95l-6.17 1.89-17.5 17.38-1.53 5.92a56.4 56.4 0 0 0 34.1 11.53"/><path fill="#FBBC05" d="M84.15 95.99a56.49 56.49 0 0 0-34.1 101.26l25.2-25.2a21.72 21.72 0 1 1 28.72-28.73l25.2-25.19A56.4 56.4 0 0 0 84.15 96"/></svg>