<svg xmlns="http://www.w3.org/2000/svg" width="256" height="256" fill="none" viewBox="0 0 256 256"><rect width="256" height="256" fill="#F4F2ED" rx="60"/><path fill="#23D96C" fill-rule="evenodd" d="M173.39 40.32a75 75 0 0 0-11.91-5.65c-1.57-.58-3.15-1.2-4.76-1.67a91 91 0 0 0-70.48 6.34 89 89 0 0 0-27.55 22.85A86 86 0 0 0 42.7 93.84a85 85 0 0 0-1.8 35.25 86 86 0 0 0 12.66 33.05 88 88 0 0 0 25.06 25.43 90 90 0 0 0 33.34 13.62v24.93c53.36-7.86 100.62-49.23 104.14-103.54 2.12-32.68-14.57-66.05-42.71-82.26" clip-rule="evenodd"/><path fill="#173647" d="M107.16 231.58v-26.6a94 94 0 0 1-55.23-36.7 90 90 0 0 1-16.29-63.27 91 91 0 0 1 30.9-57.84A95.2 95.2 0 0 1 128.97 24a95 95 0 0 1 33.07 5.87l1.1.4c.75.3 1.32.51 1.9.75a78 78 0 0 1 10.8 5.27c29.21 16.84 47.31 51.63 45.04 86.6-3.49 53.78-49 99.15-108.22 107.88zm21.94-198.2h-.1a85.5 85.5 0 0 0-56.72 21.39 81.7 81.7 0 0 0-27.25 53.07 81 81 0 0 0 16.37 57.19 84.6 84.6 0 0 0 51.5 31.56l3.87.74v23.22c52.06-9.96 91.45-50.52 94.55-98.26 2.04-31.53-14.17-62.84-40.36-77.93l-.04-.03a69 69 0 0 0-11.07-5.26l-1.2-.43q-1.72-.66-3.27-1.13a86 86 0 0 0-26.27-4.13"/><path fill="#173647" fill-rule="evenodd" d="M111.18 71.58a8.4 8.4 0 0 1 7.23 2.72 19 19 0 0 1 3.33 4.94c2.95 6.34 4.69 15.45 1.05 20.55a29 29 0 0 1-10.57-5.04 28 28 0 0 1-7.63-8.73 14 14 0 0 1-1.59-5.98 8.6 8.6 0 0 1 2.44-5.75 9 9 0 0 1 5.74-2.7M89.75 93.24q.73-.06 1.47 0c2.28.04 4.52.53 6.6 1.44 6.55 2.75 13.86 9.45 15.28 15.4-5.62 3.67-15.76 3.37-22.32.62a36 36 0 0 1-5.56-3.29 8 8 0 0 1-2.83-3.88 7.7 7.7 0 0 1-.02-4.76 8 8 0 0 1 2.8-3.9 8 8 0 0 1 4.58-1.63M97.8 139a15 15 0 0 1-6.6 1.45 8.5 8.5 0 0 1-5.07-1.01 8 8 0 0 1-3.48-3.75 7.94 7.94 0 0 1 2.12-9.4 16 16 0 0 1 5.56-3.3c2.41-1 5-1.53 7.62-1.56 4.26-.08 11.58-1 15.13 1.3-.93 5.94-8.72 13.53-15.28 16.28m27.03 14.73a33 33 0 0 1-3.22 5.43c-4.68 5.95-15.55 1.78-15.08-6a13.5 13.5 0 0 1 1.47-5.87c2.81-6.4 10.46-14.28 17.02-15.65 3.74 5.5 2.62 16.14-.2 22.09m11.48-74.65q1.35-2.87 3.23-5.44a8.6 8.6 0 0 1 7.32-2.86 8.8 8.8 0 0 1 5.9 2.75 8.4 8.4 0 0 1 2.3 5.97 14 14 0 0 1-1.47 6.01 27 27 0 0 1-6.9 8.83 27 27 0 0 1-10 5.3c-4.2-5.02-3.18-14.16-.37-20.56m4.1 80.09a19 19 0 0 1-3.22-5.01c-2.8-6.4-2.71-16 1.03-21.03 6.56 1.38 13.44 8.19 16.24 14.6a14 14 0 0 1 1.47 6c.47 6.86-10.37 10.93-15.52 5.44m28.7-19.17a17 17 0 0 1-6.59-1.44c-6.56-2.75-13.75-9.16-15.15-15.11 3.6-2.3 10.26-2.56 14.57-2.48 2.62.04 5.2.57 7.61 1.58a34 34 0 0 1 5.56 3.14c6.56 4.59 2.44 14.77-6 14.31" clip-rule="evenodd"/></svg>