<svg xmlns="http://www.w3.org/2000/svg" width="256" height="256" fill="none" viewBox="0 0 256 256"><rect width="256" height="256" fill="#F03C2E" rx="60"/><g clip-path="url(#a)"><path fill="#fff" d="M224.23 119.1 136.9 31.77a12.87 12.87 0 0 0-18.22 0L100.57 49.9l23 23a15.31 15.31 0 0 1 19.37 19.5l22.17 22.17a15.28 15.28 0 0 1 20.32 14.48 15.34 15.34 0 1 1-29.51-5.84l-20.68-20.67v54.4a15.34 15.34 0 1 1-12.6-.44v-54.91a15.3 15.3 0 0 1-8.32-20.1L91.65 58.8l-59.87 59.82a12.9 12.9 0 0 0 0 18.21l87.32 87.32a12.9 12.9 0 0 0 18.22 0l86.92-86.78a12.9 12.9 0 0 0 0-18.22"/></g><defs><clipPath id="a"><path fill="#fff" d="M28 28h200v200H28z"/></clipPath></defs></svg>