<svg xmlns="http://www.w3.org/2000/svg" width="256" height="256" fill="none" viewBox="0 0 256 256"><rect width="256" height="256" fill="#242938" rx="60"/><path stroke="#2088FF" stroke-linecap="round" stroke-linejoin="round" stroke-width="7.35" d="M76.07 43a33.06 33.06 0 1 1 0 66.13 33.06 33.06 0 0 1 0-66.13m47.76 66.13a22.04 22.04 0 1 1 0 44.09 22.04 22.04 0 0 1 0-44.09m0 58.78a22.04 22.04 0 1 1 0 44.1 22.04 22.04 0 0 1 0-44.1" clip-rule="evenodd"/><path stroke="#79B8FF" stroke-linecap="round" stroke-linejoin="round" stroke-width="7.35" d="M189.96 167.91a22.04 22.04 0 1 1 0 44.09 22.04 22.04 0 0 1 0-44.09" clip-rule="evenodd"/><path stroke="#2088FF" stroke-linecap="round" stroke-linejoin="round" stroke-width="7.35" d="m131.3 126.06-11.27 11.26-5.47-5.46"/><path stroke="#2088FF" stroke-linecap="round" stroke-linejoin="round" stroke-width="7.35" d="M189.96 109.13a22.04 22.04 0 1 1 0 44.09 22.04 22.04 0 0 1 0-44.09" clip-rule="evenodd"/><path stroke="#2088FF" stroke-linecap="round" stroke-linejoin="round" stroke-width="7.35" d="m197.44 126.06-11.28 11.26-5.47-5.46M65.04 64.35a3.67 3.67 0 0 1 5.64-3.1l18.78 11.83a3.67 3.67 0 0 1-.02 6.23L70.65 90.96a3.67 3.67 0 0 1-5.6-3.13zm7.36 44.78v55.1a25.8 25.8 0 0 0 25.7 25.73h3.68"/><path fill="#2088FF" d="M101.6 134.85a3.67 3.67 0 1 0 0-7.35zm-32.88-25.6a25.6 25.6 0 0 0 25.59 25.6v-7.35a18.24 18.24 0 0 1-18.24-18.24zm25.59 25.6h7.28v-7.35h-7.28z"/><path stroke="#2088FF" stroke-linecap="round" stroke-linejoin="round" stroke-width="7.35" d="M146.07 131.17h21.84"/><path fill="#79B8FF" fill-rule="evenodd" d="M116.48 186.28a3.68 3.68 0 1 1 0 7.35 3.68 3.68 0 0 1 0-7.35m14.69 0a3.68 3.68 0 1 1 0 7.36 3.68 3.68 0 0 1 0-7.36" clip-rule="evenodd"/><path stroke="#79B8FF" stroke-linecap="round" stroke-width="7.35" d="m164.26 189.98-3.72.12"/></svg>