<svg xmlns="http://www.w3.org/2000/svg" width="256" height="256" fill="none" viewBox="0 0 256 256"><rect width="256" height="256" fill="#F4F2ED" rx="60"/><path fill="#161614" d="M128 30C72.78 30 28 74.77 28 130c0 44.18 28.65 81.67 68.39 94.9 5 .92 6.83-2.18 6.83-4.82 0-2.38-.1-10.26-.14-18.62-27.82 6.05-33.69-11.8-33.69-11.8-4.55-11.56-11.1-14.63-11.1-14.63-9.07-6.2.68-6.08.68-6.08 10.05.7 15.33 10.3 15.33 10.3 8.92 15.3 23.4 10.88 29.1 8.32.9-6.46 3.5-10.87 6.35-13.37-22.21-2.53-45.56-11.1-45.56-49.42a38.7 38.7 0 0 1 10.3-26.84c-1.03-2.52-4.46-12.7.97-26.47 0 0 8.4-2.69 27.51 10.25A96 96 0 0 1 128 78.36a96 96 0 0 1 25.05 3.36c19.09-12.94 27.47-10.25 27.47-10.25 5.45 13.78 2.02 23.95.98 26.47 6.42 7 10.3 15.92 10.3 26.84 0 38.4-23.4 46.86-45.67 49.34 3.6 3.1 6.79 9.19 6.79 18.52 0 13.38-.12 24.15-.12 27.44 0 2.66 1.8 5.78 6.87 4.8A100 100 0 0 0 228 130c0-55.23-44.77-100-100-100M65.45 172.45c-.22.5-1 .65-1.71.3-.73-.32-1.13-1-.9-1.5s1-.65 1.72-.3c.73.32 1.15 1 .9 1.5m4.92 4.4c-.47.44-1.4.23-2.04-.47s-.78-1.63-.3-2.08c.5-.44 1.4-.23 2.06.46.65.71.78 1.64.28 2.08m3.38 5.6c-.62.43-1.62.04-2.24-.85-.61-.9-.61-1.96.02-2.39.62-.43 1.6-.04 2.23.84.61.9.61 1.97-.01 2.4m5.7 6.51c-.54.6-1.71.44-2.57-.38-.87-.8-1.11-1.95-.56-2.56.55-.6 1.73-.43 2.59.39.86.8 1.13 1.95.54 2.55m7.38 2.2c-.24.78-1.37 1.14-2.5.8s-1.87-1.26-1.64-2.05 1.36-1.16 2.5-.8c1.13.34 1.88 1.25 1.64 2.05m8.4.93c.02.82-.94 1.5-2.13 1.52-1.2.03-2.16-.64-2.17-1.45 0-.83.94-1.51 2.13-1.53 1.2-.02 2.16.64 2.16 1.46m8.24-.32c.14.8-.68 1.63-1.86 1.85-1.17.22-2.24-.28-2.39-1.08-.14-.82.7-1.65 1.86-1.86 1.18-.2 2.24.28 2.39 1.1"/></svg>