<svg xmlns="http://www.w3.org/2000/svg" width="256" height="256" fill="none"><rect width="256" height="256" fill="#242938" rx="60"/><g transform="translate(128 128)"><circle cy="-5" r="50" fill="#179287"/><circle cx="-18" cy="-15" r="10" fill="#fff"/><circle cx="18" cy="-15" r="10" fill="#fff"/><circle cx="-18" cy="-15" r="5" fill="#000"/><circle cx="18" cy="-15" r="5" fill="#000"/><path fill="#179287" d="M-50 30q-10 30 10 40 5-20 10-35Zm30 10q-5 30 15 35 0-20 5-35Zm40 0q5 30-15 35 0-20-5-35Zm30-10q10 30-10 40-5-20-10-35Z"/></g></svg>