<svg xmlns="http://www.w3.org/2000/svg" width="256" height="256" fill="none" viewBox="0 0 256 256"><rect width="256" height="256" fill="#F4F2ED" rx="60"/><path fill="#E24329" d="m128 220 37.56-113.2H90.44z"/><path fill="#FC6D26" d="M128 220 90.44 106.8H37.8z"/><path fill="#FCA326" d="m37.8 106.8-11.42 34.4a7.5 7.5 0 0 0 2.82 8.52L128 220z"/><path fill="#E24329" d="M37.8 106.8h52.64L67.82 38.64c-1.17-3.5-6.24-3.5-7.4 0z"/><path fill="#FC6D26" d="m128 220 37.56-113.2h52.65z"/><path fill="#FCA326" d="m218.2 106.8 11.42 34.4a7.5 7.5 0 0 1-2.83 8.52L128 220z"/><path fill="#E24329" d="M218.2 106.8h-52.64l22.62-68.17c1.17-3.5 6.24-3.5 7.4 0z"/></svg>