<svg xmlns="http://www.w3.org/2000/svg" width="256" height="256" fill="none" viewBox="0 0 256 256"><rect width="256" height="256" fill="#242938" rx="60"/><path fill="#4285F4" d="M41.64 203.03h31.81v-77.28L28 91.67v97.73c0 7.55 6.11 13.64 13.64 13.64"/><path fill="#34A853" d="M182.55 203.03h31.81c7.55 0 13.64-6.12 13.64-13.64V91.66l-45.46 34.1"/><path fill="#FBBC04" d="M182.55 66.66v59.1L228 91.66V73.48c0-16.86-19.25-26.47-32.73-16.36"/><path fill="#EA4335" d="M73.45 125.76v-59.1L128 107.57l54.54-40.9v59.08L128 166.67"/><path fill="#C5221F" d="M28 73.48v18.18l45.45 34.1v-59.1l-12.72-9.54C47.23 47 28 56.62 28 73.48"/></svg>