<svg xmlns="http://www.w3.org/2000/svg" width="256" height="256" fill="none" viewBox="0 0 256 256"><rect width="256" height="256" fill="#242938" rx="60"/><path fill="#fff" d="M222.02 163.68s-.31-1.89-.5-1.87l-34.75 3.3a5.6 5.6 0 0 0-5.1 5.18l-.96 13.5-26.88 1.88-1.83-12.23a5.7 5.7 0 0 0-5.6-4.77h-36.68a5.7 5.7 0 0 0-5.6 4.77l-1.84 12.23-26.88-1.89-.95-13.5a5.6 5.6 0 0 0-5.11-5.16l-34.77-3.31c-.18-.02-.3 1.87-.49 1.87l-.04 7.42 29.44 4.68.96 13.62a5.65 5.65 0 0 0 5.25 5.18l37.03 2.6.41.02a5.7 5.7 0 0 0 5.6-4.77l1.88-12.59h26.9l1.88 12.59a5.67 5.67 0 0 0 6 4.75l37.03-2.6a5.65 5.65 0 0 0 5.25-5.18l.96-13.62 29.44-4.7z"/><path fill="#478CBF" d="M34.08 107.76v55.92l.31.01L69.16 167a3.7 3.7 0 0 1 3.37 3.42l1.07 15.13 30.33 2.14 2.08-13.97a3.7 3.7 0 0 1 3.7-3.15h36.69a3.7 3.7 0 0 1 3.7 3.15l2.09 13.97 30.32-2.14 1.07-15.13a3.7 3.7 0 0 1 3.38-3.42l34.75-3.3.3-.02v-4.46h.02v-51.46h.13c4.6-5.8 8.87-11.9 12.95-18.42-5.43-9.12-12.08-17.26-19.18-24.8-6.6 3.27-13 6.98-19.05 10.92-3.02-2.96-6.43-5.4-9.78-7.93-3.29-2.6-7-4.51-10.51-6.74a211 211 0 0 0 1.77-23.16c-9.07-4.5-18.75-7.49-28.53-9.63a199 199 0 0 0-10.6 20.34c-3.68-.6-7.39-.83-11.1-.87h-.14c-3.72.04-7.43.27-11.12.87A198 198 0 0 0 106.27 28c-9.77 2.14-19.45 5.13-28.52 9.63.21 7.9.73 15.47 1.78 23.16C76 63.02 72.3 64.93 69 67.53c-3.34 2.54-6.76 4.97-9.78 7.93a188 188 0 0 0-19.05-10.92c-7.1 7.54-13.75 15.68-19.18 24.8a202 202 0 0 0 12.95 18.42z"/><path fill="#478CBF" d="m190.83 174.05-1.08 15.21a3.7 3.7 0 0 1-3.47 3.43l-37.02 2.6-.27.02a3.7 3.7 0 0 1-3.7-3.16l-2.13-14.2h-30.21l-2.12 14.2a3.73 3.73 0 0 1-3.97 3.15l-37.03-2.61a3.7 3.7 0 0 1-3.47-3.43l-1.08-15.21-31.26-2.97.06 7.66c0 32.56 41.88 48.21 93.91 48.4h.13c52.03-.19 93.9-15.84 93.9-48.4l.06-7.66z"/><path fill="#fff" d="M99.73 130.46c0 11.41-9.38 20.66-20.95 20.66s-20.95-9.25-20.95-20.66 9.38-20.65 20.95-20.65 20.95 9.24 20.95 20.65"/><path fill="#414042" d="M94.69 131.68a13.8 13.8 0 0 1-13.91 13.71 13.8 13.8 0 0 1-13.9-13.7c0-7.58 6.22-13.72 13.9-13.72s13.9 6.14 13.9 13.71"/><path fill="#fff" d="M128.06 153c-3.73 0-6.75-2.7-6.75-6.04v-19.02c0-3.34 3.02-6.05 6.75-6.05s6.74 2.71 6.74 6.05v19.02c0 3.33-3.02 6.04-6.75 6.04m28.34-22.54c0 11.41 9.38 20.66 20.95 20.66s20.94-9.25 20.94-20.66-9.38-20.65-20.94-20.65c-11.58 0-20.95 9.24-20.95 20.65"/><path fill="#414042" d="M161.43 131.68a13.8 13.8 0 0 0 13.9 13.71 13.8 13.8 0 0 0 13.9-13.7 13.8 13.8 0 0 0-13.9-13.72 13.8 13.8 0 0 0-13.9 13.71"/></svg>