<svg xmlns="http://www.w3.org/2000/svg" width="256" height="256" fill="none" viewBox="0 0 256 256"><rect width="256" height="256" fill="#F4F2ED" rx="60"/><path fill="#02303A" d="M212.67 66.8a30.14 30.14 0 0 0-41.87-.66 2.8 2.8 0 0 0-.9 2.04 2.8 2.8 0 0 0 .83 2.08l3.8 3.8a2.9 2.9 0 0 0 3.75.26 17.26 17.26 0 0 1 22.55 26.04c-23.91 23.91-55.86-43.1-128.27-8.64a9.83 9.83 0 0 0-4.39 13.8l12.44 21.5a9.8 9.8 0 0 0 13.3 3.64l.3-.25-.24.18 5.5-3.07a128 128 0 0 0 17.36-12.94 3.02 3.02 0 0 1 4.74.82 2.85 2.85 0 0 1-.66 3.43 129 129 0 0 1-18.28 13.78h-.2l-5.5 3.1a15.8 15.8 0 0 1-21.28-5.87l-11.76-20.27c-22.55 16.04-36.22 46.73-28.91 85.54a2.85 2.85 0 0 0 2.8 2.35h13.37a2.9 2.9 0 0 0 2.85-2.53 19.6 19.6 0 0 1 38.87 0 2.9 2.9 0 0 0 2.83 2.53h13.03a2.9 2.9 0 0 0 2.85-2.53 19.6 19.6 0 0 1 38.88 0 2.86 2.86 0 0 0 2.98 2.53h12.88a2.9 2.9 0 0 0 2.87-2.83c.29-18.17 5.18-39 19.16-49.47 48.22-36.16 35.5-67.13 24.32-78.37m-49.31 54.64-9.22-4.63a5.78 5.78 0 1 1 9.22 4.65z"/></svg>