<svg xmlns="http://www.w3.org/2000/svg" width="256" height="256" fill="none" viewBox="0 0 256 256"><rect width="256" height="256" fill="#F4F2ED" rx="60"/><path fill="url(#a)" d="M220.72 116.46c-.35-3.2-.7-7.11-2.13-11.37a69 69 0 0 0-5.33-13.86 88 88 0 0 0-9.59-14.92 39 39 0 0 0-5.32-5.68c2.84-11.37-3.56-20.96-3.56-20.96-10.65-.71-17.76 3.2-20.25 5.33-.35 0-.7-.36-1.42-.71a98 98 0 0 0-5.68-2.13c-2.13-.71-3.9-1.07-6.04-1.78-2.13-.36-4.26-.71-6.04-1.07h-1.07C149.68 34.4 136.19 28 136.19 28c-14.92 9.6-17.76 22.74-17.76 22.74v.7c-.72.36-1.78.36-2.5.72-1.06.35-2.12.7-3.54 1.06-1.07.36-2.13.71-3.56 1.42-2.13 1.07-4.61 2.13-6.74 3.2-2.14 1.07-4.27 2.49-6.4 3.9-.36 0-.36-.35-.36-.35-20.95-7.81-39.43 1.78-39.43 1.78-1.77 22.02 8.17 36.23 10.3 38.72-.35 1.42-1.06 2.84-1.42 4.26-1.42 4.98-2.84 10.3-3.55 15.63 0 .71-.35 1.42-.35 2.14C41.68 133.5 36 153.04 36 153.04c15.99 18.48 34.81 19.54 34.81 19.54a90 90 0 0 0 8.17 12.08 45 45 0 0 1 3.91 4.62c-5.68 16.7.71 30.55.71 30.55 17.76.71 29.49-7.82 31.97-9.95 1.78.71 3.56 1.07 5.33 1.78a86 86 0 0 0 16.7 2.49h6.75c8.52 12.07 23.09 13.85 23.09 13.85 10.66-11.01 11.01-22.03 11.01-24.51v-.71c2.13-1.42 4.26-3.2 6.4-4.97a75 75 0 0 0 11-12.8c.36-.35.72-.7.72-1.41 12.08.7 20.25-7.47 20.25-7.47-2.13-12.43-9.24-18.47-10.66-19.53h-.35v-14.92c-.36-1.42-.36-2.84-.72-3.91-1.42-5.33-3.2-10.3-6.03-14.92a55 55 0 0 0-9.95-12.08c-3.91-3.55-8.17-6.04-12.79-8.17s-9.24-3.2-14.21-3.9c-2.49-.36-4.62-.36-7.1-.36h-3.56c-1.06 0-2.48.35-3.55.35a35 35 0 0 0-13.14 4.98 49 49 0 0 0-10.3 8.52 34 34 0 0 0-6.4 11.01 46 46 0 0 0-2.49 11.73v5.68c.36 1.78.71 3.9 1.07 5.68a40 40 0 0 0 4.62 9.6 32 32 0 0 0 7.1 6.75 25 25 0 0 0 8.17 3.9c2.84.71 5.33 1.07 8.17 1.07h4.62c.36 0 .71 0 1.07-.36.7 0 1.06-.35 1.77-.35 1.07-.36 2.13-.71 3.2-1.42 1.07-.36 1.78-1.07 2.84-1.78.36 0 .36-.35.71-.7a1.88 1.88 0 0 0 .36-2.85c-.71-.71-1.78-1.07-2.49-.36-.35 0-.35.36-.7.36-.72.35-1.43.71-2.5 1.06-.7.36-1.77.36-2.48.72h-5.68a20 20 0 0 1-6.04-1.78c-2.14-.71-3.91-2.13-5.69-3.55s-3.2-3.56-4.26-5.33a19 19 0 0 1-2.49-6.75c-.35-1.07-.35-2.49-.35-3.55v-1.78c0-.71 0-1.42.35-2.13a28 28 0 0 1 7.82-14.57c1.06-1.06 2.13-1.77 3.2-2.84 1.06-.7 2.48-1.42 3.55-2.13 1.42-.71 2.84-1.06 3.9-1.42 1.43-.36 2.85-.71 4.27-.71h4.26c1.42 0 3.2.35 4.62.7 3.2.72 6.04 1.79 8.88 3.56 5.68 3.2 10.3 8.17 13.5 13.86a41 41 0 0 1 3.2 9.23c0 .71.35 1.78.35 2.49v5.68c0 1.07 0 1.78-.36 2.84 0 .72-.35 1.78-.35 2.5 0 .7-.36 1.77-.71 2.48a21 21 0 0 1-1.78 4.97 65 65 0 0 1-5.33 9.6c-4.26 5.68-9.94 10.65-16.7 13.5a50 50 0 0 1-10.3 3.19c-1.77.35-3.55.35-5.32.7h-2.49c.36 0 0 0 0 0h-2.84a58 58 0 0 1-11.37-2.12 56 56 0 0 1-10.66-4.26 58 58 0 0 1-17.76-14.57 34 34 0 0 1-6.04-9.6 67 67 0 0 1-4.26-10.65 40 40 0 0 1-1.78-11.01v-6.75c0-1.78.36-3.9.36-5.68.35-1.78.71-3.91 1.06-5.69.36-1.77.72-3.9 1.43-5.68 1.06-3.55 2.48-7.1 3.9-10.66 3.2-6.75 7.1-12.79 12.08-17.4a39 39 0 0 1 3.9-3.56 30 30 0 0 1 4.27-2.84 27 27 0 0 1 4.27-2.49l2.13-1.06c.35 0 .7-.36 1.06-.36s.71-.35 1.07-.35c1.42-.71 3.2-1.07 4.62-1.78.35 0 .7-.35 1.06-.35s.71-.36 1.07-.36c.7-.35 1.77-.35 2.48-.71.36 0 .72-.36 1.43-.36.35 0 .7 0 1.42-.35.35 0 .7 0 1.42-.36h1.42c.35 0 .7 0 1.42-.35.35 0 1.06 0 1.42-.36h6.03s.36 0 0 0h6.4q4.8 0 9.6 1.07c6.03 1.07 11.72 3.2 17.05 5.68a55 55 0 0 1 13.85 9.24l.71.71.71.71c.36.36 1.07.71 1.42 1.42.36.71 1.07.71 1.42 1.42.36.71 1.07 1.07 1.43 1.42a36 36 0 0 1 4.61 5.69 64 64 0 0 1 7.1 11.01c0 .36.36.36.36.71 0 .36.36.36.36.71.35.36.35.71.7 1.42.36.36.36.71.72 1.42.35.36.35.71.7 1.42.72 1.78 1.43 3.2 1.78 4.62.72 2.49 1.43 4.62 1.78 6.4.36.7 1.07 1.42 1.78 1.06.7 0 1.42-.7 1.42-1.42 1.42-4.26 1.42-6.75 1.06-9.23"/><defs><linearGradient id="a" x1="129.04" x2="129.04" y1="282.05" y2="50.68" gradientUnits="userSpaceOnUse"><stop stop-color="#FFF100"/><stop offset="1" stop-color="#F05A28"/></linearGradient></defs></svg>