<svg xmlns="http://www.w3.org/2000/svg" width="256" height="256" fill="none" viewBox="0 0 256 256"><rect width="256" height="256" fill="#242938" rx="60"/><path fill="#E535AB" d="m47.86 176.2 7.34 4.23L137 38.77l-7.34-4.24z"/><path fill="#E535AB" d="M209.77 164.88H46.18v8.47h163.59z"/><path fill="#E535AB" d="m49.42 169.64 81.82 47.24 4.24-7.34-81.82-47.24zM120.5 46.51l81.82 47.24 4.24-7.34-81.82-47.24z"/><path fill="#E535AB" d="m49.44 86.38 4.24 7.34 81.82-47.24-4.24-7.34z"/><path fill="#E535AB" d="m119.02 38.77 81.8 141.66 7.33-4.24-81.79-141.66zM61.15 80.76h-8.48v94.48h8.48z"/><path fill="#E535AB" d="M203.33 80.76h-8.48v94.48h8.48z"/><path fill="#E535AB" d="m126.1 206.88 3.7 6.41 71.16-41.09-3.7-6.41z"/><path fill="#E535AB" d="M214.57 178a17.85 17.85 0 0 1-24.36 6.54 17.85 17.85 0 0 1-6.54-24.36 17.85 17.85 0 0 1 24.36-6.54 17.8 17.8 0 0 1 6.54 24.36M72.28 95.82a17.85 17.85 0 0 1-24.36 6.54A17.85 17.85 0 0 1 41.38 78a17.85 17.85 0 0 1 24.36-6.54 17.86 17.86 0 0 1 6.54 24.36M41.43 178c-4.9-8.53-2-19.4 6.54-24.36 8.53-4.9 19.4-2 24.36 6.54A17.84 17.84 0 0 1 41.43 178m142.29-82.18c-4.9-8.52-2-19.4 6.54-24.36A17.87 17.87 0 0 1 214.62 78a17.84 17.84 0 0 1-30.9 17.82M128 228a17.8 17.8 0 0 1-17.83-17.82A17.8 17.8 0 0 1 128 192.35a17.8 17.8 0 0 1 17.82 17.83c0 9.8-7.96 17.82-17.82 17.82m0-164.35a17.8 17.8 0 0 1-17.83-17.83A17.8 17.8 0 0 1 128 28a17.8 17.8 0 0 1 17.82 17.82A17.8 17.8 0 0 1 128 63.65"/></svg>