<svg xmlns="http://www.w3.org/2000/svg" width="256" height="256" fill="none" viewBox="0 0 256 256"><rect width="256" height="256" fill="#D34A47" rx="60"/><path fill="#fff" d="m154.43 231.37 2.11-35.17 5.83-9.95s-13.27 5.42-35.47 5.42c-22.21 0-35.28-5.32-35.28-5.32l6.54 10.85 2.3 34.17c0 3.66 12.09 6.63 26.99 6.63s26.98-2.97 26.98-6.63m-6.66-164.25 4.43-17.51 24.54-25.82-6.47-5.5-25.97 27.5-5.15 20.92q-5.8-.2-11.62-.2c-27.35 0-49.53 3.12-49.53 6.97s22.18 6.96 49.53 6.96 49.54-3.12 49.54-6.96c0-2.83-12.03-5.27-29.3-6.36"/><path fill="#fff" d="M145.2 76.93s-.96.21-3.79.23c-2.82 0-4.82-.02-5.62-.75-.22-.2-.33-.58-.33-.85 0-.5.35-.79.8-.97l.43.67q-.28.1-.29.22c0 .38 2.89.64 5.1.6 2.2-.02 4.88-.2 4.88-.57q-.01-.18-.56-.3l.43-.67c.57.17 1.07.52 1.07 1.11 0 1.01-1.29 1.17-2.12 1.28m31.49-53.09c.62-.7-.32-2.53-2.1-4.07-1.76-1.53-3.7-2.2-4.32-1.48-.62.7.32 2.53 2.1 4.07 1.76 1.53 3.7 2.2 4.32 1.48m-23.44 121.62c-.58-5.6 12.24-13.7 8.95-13.96-7.08.4-10.6 8.3-14.17 16.57-1.3 3.03-5.78 15.95-8.7 14.36-2.94-1.59 3.8-12.22 5.68-18.53-2.18 1.6-10.16 7.8-12.21 2-3.3 2.8-10.37 4.32-9.58-3.05-1.75 3.11-5.7 7.46-10.44 5.65-6.22-2.37 3.6-22.19 6.05-21.19s-.5 5.51-1.26 7.27c-1.7 3.86-3.65 8.7-2.34 9.7 2.23 1.7 8.32-6.44 8.45-6.61 1.14-1.5 4.39-11.35 7-10.22s-6.52 14.12-3.1 16.7c.68.52 3.5-.32 5.22-2.17 1.1-1.2.72-3.86 4.42-12.68s7-19.8 9.53-18.96c2.54.83.45 6.47-.46 8.57-4.27 9.86-11.65 26.16-8.17 24.92s5.3-1.3 8.7-5.3c3.41-3.98 3.25-10.55 5.53-10.41 2.27.14 1.89 2.24 1.34 3.85 2.23-2.56 10.6-7.95 12.62-2.61 2.39 6.32-11.97 15.44-8.4 14.98 3.5-.46 9.15-4.04 11.57-7.3l6.65-59.74s-6.7 5.53-49.24 5.53-48.54-5.42-48.54-5.42L84 131.95c3-8.54 10.14-25.8 21.38-25.22 5.12.26 11.94 10.1 6.1 10.44-2.48.14-2.73-4.91-5.66-5.66-2.12-.53-5.06 1.19-6.97 3.05-3.8 3.72-11.95 18.37-10.88 25.68 1.38 9.31 12.86-3.24 14.8-6.97 1.37-2.62 2.3-10.4 5.28-9.58 3 .81-.26 8.84-2.42 15.94-2.44 7.96-3.72 16.37-6.78 15.4-3.05-.97 1.93-11.25 1.75-13.05-2.88 2.65-8.16 9.35-14.93 6.03l3.52 33.87s9.33 7.38 37.47 7.38c28.13 0 37.82-7.27 37.82-7.27l4.36-39.22c-3.57 3.47-14.87 9.65-15.59 2.69"/></svg>