<svg xmlns="http://www.w3.org/2000/svg" width="256" height="256" fill="none" viewBox="0 0 256 256"><rect width="256" height="256" fill="#F4F2ED" rx="60"/><path fill="#FBC707" d="m128 60.5-51.26-5.68L38 38h45zm0 0 52.44-4.5L218 38h-45z"/><path fill="#F68712" d="m128 195.5 48.91 1.76L218 218h-45z"/><path fill="#F25C19" d="M128 195.5H78.7L38 218h45z"/><path fill="#FFF200" d="M60.5 128v47.35L38 218v-45zm0 0-3.72-46.96L38 38v45z"/><path fill="#F1471D" d="m195.5 128 4.9-49.3L218 38v45zm0 0 4.1 52.83L218 218v-45z"/><path fill="#FAB20B" d="m38 38 90 22.5-14.48 57.33L60.5 128z"/><path fill="#F47216" d="m218 38-22.5 90-60.46-10.96L128 60.5z"/><path fill="#F25C19" d="m218 218-90-22.5 10.17-59.67 57.33-7.82z"/><path fill="#F89C0E" d="m38 218 22.5-90 54.2 12.13L128 195.5z"/><path fill="#F68712" d="M128 60.5 60.5 128l67.5 67.5 67.5-67.5z"/></svg>