<svg xmlns="http://www.w3.org/2000/svg" width="256" height="256" fill="none"><rect width="256" height="256" fill="#242938" rx="60"/><g transform="translate(128 128)"><circle r="68" stroke="#0F1689" stroke-width="14"/><circle r="22" fill="#0F1689"/><g fill="#0F1689"><path d="M-5-68H5v46H-5zM-5 22H5v46H-5zM-68-5h46V5h-46zM22-5h46V5H22z"/></g><g fill="#0F1689"><path d="m44.548-51.619 7.07 7.071L19.093-12.02l-7.071-7.07zM-19.092 12.02l7.071 7.072-32.527 32.527-7.07-7.071zM-44.548-51.619l32.527 32.527-7.07 7.071-32.528-32.527zM19.092 12.02l32.527 32.528-7.071 7.07L12.02 19.093z"/></g><g fill="#0F1689"><circle cy="-78" r="12"/><circle cy="78" r="12"/><circle cx="-78" r="12"/><circle cx="78" r="12"/></g><g fill="#0F1689" transform="rotate(45)"><circle cy="-78" r="12"/><circle cy="78" r="12"/><circle cx="-78" r="12"/><circle cx="78" r="12"/></g></g></svg>