<svg xmlns="http://www.w3.org/2000/svg" width="256" height="256" fill="none" viewBox="0 0 256 256"><rect width="256" height="256" fill="#300" rx="60"/><path fill="#FF9A00" d="M123.73 152.33H84.05l-8.1 25.07a1.87 1.87 0 0 1-2.03 1.5H53.87c-1.18 0-1.5-.65-1.18-1.93L87.04 78.1c.32-1.06.64-2.24 1.07-3.52.42-2.24.64-4.58.64-6.93-.11-.53.32-1.07.85-1.17h27.62c.86 0 1.29.32 1.4.85l38.93 109.87c.32 1.17 0 1.7-1.07 1.7h-22.3c-.74.11-1.49-.42-1.7-1.17zm-33.49-21.65h27.1c-.65-2.24-1.5-4.9-2.46-7.68a321 321 0 0 1-2.88-9.17c-1.07-3.31-2.03-6.51-3.1-9.82a234 234 0 0 1-2.87-9.49c-.86-2.99-1.6-5.76-2.35-8.32h-.21c-.96 4.59-2.14 9.17-3.63 13.76-1.6 5.12-3.2 10.45-4.9 15.79-1.5 5.44-3.1 10.45-4.7 14.93m91.09-45.55a13.2 13.2 0 0 1-9.49-3.73 14 14 0 0 1-3.63-9.81 12.6 12.6 0 0 1 3.84-9.5 13.7 13.7 0 0 1 9.5-3.73c4.16 0 7.36 1.28 9.7 3.73a13.5 13.5 0 0 1 3.52 9.5 13.5 13.5 0 0 1-3.73 9.81 12.5 12.5 0 0 1-9.7 3.73m-11.94 92.59V95.59c0-1.07.42-1.5 1.38-1.5h21.12c.96 0 1.39.54 1.39 1.5v82.13c0 1.17-.43 1.7-1.39 1.7H171c-1.07 0-1.6-.63-1.6-1.7"/></svg>