<svg xmlns="http://www.w3.org/2000/svg" width="256" height="256" fill="none" viewBox="0 0 256 256"><rect width="256" height="256" fill="url(#a)" rx="60"/><rect width="256" height="256" fill="url(#b)" rx="60"/><path fill="#fff" d="M128 28c-27.15 0-30.56.12-41.22.6-10.65.5-17.92 2.18-24.28 4.65a49 49 0 0 0-17.7 11.53A49 49 0 0 0 33.25 62.5c-2.48 6.36-4.17 13.63-4.65 24.28S28 100.84 28 128s.12 30.56.6 41.22c.5 10.65 2.18 17.92 4.65 24.28a49 49 0 0 0 11.53 17.71 49 49 0 0 0 17.71 11.54c6.36 2.47 13.63 4.16 24.28 4.65 10.66.48 14.07.6 41.23.6s30.56-.12 41.22-.6c10.65-.49 17.92-2.18 24.29-4.65a49 49 0 0 0 17.7-11.54 49 49 0 0 0 11.54-17.71c2.46-6.36 4.15-13.63 4.65-24.27.47-10.67.6-14.07.6-41.23s-.12-30.57-.6-41.23c-.5-10.65-2.2-17.92-4.65-24.27a49 49 0 0 0-11.54-17.72 49 49 0 0 0-17.71-11.53c-6.37-2.47-13.65-4.16-24.3-4.65-10.66-.48-14.05-.6-41.22-.6zm-8.96 18.02H128c26.7 0 29.86.1 40.4.58 9.76.44 15.05 2.07 18.58 3.44 4.66 1.81 7.99 3.98 11.49 7.48s5.66 6.83 7.48 11.5c1.37 3.52 3 8.81 3.44 18.56.48 10.54.59 13.71.59 40.4s-.1 29.85-.59 40.4c-.44 9.74-2.07 15.04-3.44 18.56a31 31 0 0 1-7.48 11.49 31 31 0 0 1-11.5 7.47c-3.52 1.38-8.81 3-18.56 3.45-10.54.48-13.71.58-40.41.58s-29.87-.1-40.4-.58c-9.76-.45-15.05-2.08-18.58-3.45-4.67-1.81-8-3.98-11.5-7.48a31 31 0 0 1-7.48-11.5c-1.37-3.51-3-8.8-3.45-18.55-.47-10.55-.57-13.71-.57-40.42 0-26.7.1-29.85.57-40.4.45-9.74 2.08-15.03 3.45-18.56 1.81-4.67 3.98-8 7.48-11.5s6.83-5.67 11.5-7.48c3.53-1.38 8.82-3 18.57-3.45 9.23-.42 12.8-.54 31.44-.56zm62.35 16.6a12 12 0 1 0 0 24.01 12 12 0 0 0 0-24M128 76.66a51.36 51.36 0 1 0 0 102.71 51.36 51.36 0 0 0 0-102.71m0 18.02a33.33 33.33 0 1 1 0 66.66 33.33 33.33 0 0 1 0-66.66"/><defs><radialGradient id="a" cx="0" cy="0" r="1" gradientTransform="matrix(0 -253.715 235.975 0 68 275.72)" gradientUnits="userSpaceOnUse"><stop stop-color="#FD5"/><stop offset=".1" stop-color="#FD5"/><stop offset=".5" stop-color="#FF543E"/><stop offset="1" stop-color="#C837AB"/></radialGradient><radialGradient id="b" cx="0" cy="0" r="1" gradientTransform="rotate(78.68 -32.69 -16.94)scale(113.412 467.488)" gradientUnits="userSpaceOnUse"><stop stop-color="#3771C8"/><stop offset=".13" stop-color="#3771C8"/><stop offset="1" stop-color="#60F" stop-opacity="0"/></radialGradient></defs></svg>