<svg xmlns="http://www.w3.org/2000/svg" width="256" height="256" fill="none" viewBox="0 0 256 256"><rect width="256" height="256" fill="#fff" rx="60"/><path fill="#469EA2" d="m42 177.46 86.29 49.82 86.28-49.82V77.82L128.3 28 42 77.82z"/><path fill="#6ACAD1" d="M119.45 39.92 56.8 76.07q.15 1.7 0 3.4l62.56 36.15a14.9 14.9 0 0 1 17.77 0l62.56-36.16q-.15-1.69 0-3.39l-62.46-36.15a14.95 14.95 0 0 1-17.77 0m86.29 49.5L143.08 126a15.1 15.1 0 0 1-8.84 15.4l.1 71.91q1.53.68 2.88 1.64l62.56-36.15a15.1 15.1 0 0 1 8.84-15.41V91.07q-1.5-.7-2.88-1.64m-154.9.42q-1.36.97-2.88 1.64v72.32a14.8 14.8 0 0 1 8.83 15.4l62.56 36.17q1.35-.97 2.88-1.65v-72.31a14.8 14.8 0 0 1-8.84-15.41z"/><path fill="#469EA2" d="m128.29 38.79 77.14 44.58v89.06L128.3 217l-77.15-44.58V83.26zm0-10.58L42 78.03v99.64l86.29 49.82 86.28-49.82V78.03z"/><path fill="#469EA2" d="M128.9 144.59h-1.23a16.1 16.1 0 0 1-16.13-16.13v-1.23a16.1 16.1 0 0 1 16.13-16.13h1.23a16.1 16.1 0 0 1 16.13 16.13v1.23a16.1 16.1 0 0 1-16.13 16.13m0 66.26h-1.23a16.1 16.1 0 0 0-14.07 8.21l14.69 8.43 14.69-8.43a16.1 16.1 0 0 0-14.08-8.22m85.78-49.82h-.62a16.1 16.1 0 0 0-16.13 16.12v1.23a15.6 15.6 0 0 0 2.06 7.81l14.69-8.52zm-14.7-91.43a16 16 0 0 0-2.05 7.8v1.24a16.1 16.1 0 0 0 16.13 16.13h.62V78.03zm-71.7-41.4-14.68 8.43a16.2 16.2 0 0 0 14.07 8.32h1.23a16.1 16.1 0 0 0 14.08-8.22zm-71.6 41.3L42 78.03v16.74h.62a16.1 16.1 0 0 0 16.12-16.13v-1.23a17 17 0 0 0-2.05-7.91m-14.06 91.53H42v16.64l14.69 8.52a16 16 0 0 0 2.05-7.8v-1.24a16.1 16.1 0 0 0-16.12-16.12"/><path fill="#083B54" fill-opacity=".15" d="M128.29 228v-99.74L42 78.44v99.74z"/><path fill="#083B54" fill-opacity=".05" d="M214.68 177.26V77.6l-86.3 49.83v99.74z"/></svg>