<svg xmlns="http://www.w3.org/2000/svg" width="256" height="256" fill="none" viewBox="0 0 256 256"><rect width="256" height="256" fill="#242938" rx="60"/><path fill="#fff" d="M101.63 182.62s-7.68 4.67 5.35 6.01c15.73 2 24.04 1.67 41.4-1.67 0 0 4.68 3.01 11.03 5.35-39.08 16.7-88.5-1-57.78-9.7m-5-21.7s-8.35 6.34 4.67 7.67c17.03 1.67 30.39 2 53.43-2.66 0 0 3.01 3.34 8.02 5-47.09 14.03-99.85 1.34-66.12-10.01m92.17 38.06s5.67 4.68-6.35 8.35c-22.38 6.68-93.84 8.69-113.88 0-7-3 6.35-7.35 10.69-8.01 4.34-1 6.68-1 6.68-1-7.68-5.35-51.1 11.02-22.04 15.73 79.8 13.02 145.6-5.68 124.9-15.03zm-83.5-60.78s-36.4 8.69-13.02 11.69c10.02 1.33 29.72 1 48.09-.33 15.03-1.34 30.09-4.01 30.09-4.01s-5.35 2.34-9.02 4.67c-37.1 9.7-108.23 5.35-87.86-4.67 17.37-8.35 31.73-7.35 31.73-7.35m65.12 36.4c37.41-19.37 20.04-38.07 8.02-35.73-3.01.67-4.34 1.34-4.34 1.34s1-2 3.34-2.67c23.7-8.35 42.4 25.05-7.68 38.07 0 0 .33-.34.66-1m-61.44 52.76c36.07 2.34 91.17-1.33 92.5-18.37 0 0-2.66 6.68-29.72 11.7-30.72 5.67-68.8 5-91.16 1.33 0 0 4.67 4 28.38 5.34"/><path fill="#F58219" d="M147.69 28s20.7 21.04-19.7 52.76c-32.4 25.71-7.36 40.4 0 57.1-19.04-17.03-32.73-32.06-23.38-46.08 13.72-20.7 51.45-30.72 43.08-63.78M137 123.84c9.68 11.02-2.67 21.04-2.67 21.04s24.71-12.69 13.36-28.39c-10.35-15.02-18.37-22.37 25.05-47.42 0 0-68.46 17.03-35.73 54.77z"/></svg>