<svg xmlns="http://www.w3.org/2000/svg" width="256" height="256" fill="none" viewBox="0 0 256 256"><rect width="256" height="256" fill="#F0DB4F" rx="60"/><path fill="#323330" d="m67.31 213.93 19.6-11.85c3.77 6.7 7.21 12.37 15.46 12.37 7.9 0 12.89-3.1 12.89-15.12v-81.8h24.05v82.14c0 24.91-14.6 36.26-35.91 36.26-19.25 0-30.42-9.97-36.09-22m85.07-2.58 19.59-11.34c5.16 8.42 11.86 14.61 23.71 14.61 9.97 0 16.33-4.98 16.33-11.86 0-8.25-6.53-11.17-17.53-15.98l-6.01-2.58c-17.36-7.38-28.87-16.66-28.87-36.25 0-18.05 13.75-31.8 35.23-31.8 15.29 0 26.29 5.33 34.2 19.25l-18.74 12.03c-4.12-7.39-8.59-10.31-15.46-10.31-7.05 0-11.52 4.47-11.52 10.3 0 7.23 4.47 10.15 14.78 14.62l6.01 2.57c20.45 8.77 31.97 17.7 31.97 37.8 0 21.66-17.01 33.52-39.87 33.52-22.34 0-36.77-10.66-43.82-24.58"/></svg>