<svg xmlns="http://www.w3.org/2000/svg" width="256" height="256" fill="none" viewBox="0 0 256 256"><rect width="256" height="256" fill="#242938" rx="60"/><g clip-path="url(#a)"><path fill="#D33833" fill-rule="evenodd" d="M198.4 124.42c0 39.6-31.39 71.72-70.11 71.72s-70.11-32.11-70.11-71.72 31.39-71.71 70.11-71.71 70.11 32.1 70.11 71.71" clip-rule="evenodd"/><path fill="#EF3D3A" d="M61.04 142.18s-5.08-74.78 63.83-76.92l-4.8-8.01-37.4 12.55-10.68 12.3-9.35 17.9-5.34 20.83 1.6 13.89"/><path fill="#231F20" d="M80.27 75.5a70 70 0 0 0-19.91 49.2c0 19.21 7.6 36.6 19.9 49.18a67 67 0 0 0 48.03 20.35 67 67 0 0 0 48.02-20.35 70 70 0 0 0 19.91-49.19c0-19.22-7.61-36.6-19.91-49.19a67 67 0 0 0-48.02-20.35A67 67 0 0 0 80.27 75.5m-3.11 101.42A74.5 74.5 0 0 1 56 124.7a74.5 74.5 0 0 1 21.16-52.23 71.3 71.3 0 0 1 51.13-21.66 71.3 71.3 0 0 1 51.13 21.66 74.5 74.5 0 0 1 21.16 52.23 74.5 74.5 0 0 1-21.16 52.23 71.3 71.3 0 0 1-51.13 21.66 71.3 71.3 0 0 1-51.13-21.66"/><path fill="#F0D6B7" fill-rule="evenodd" d="m157.8 124.82-10.68 1.6-14.42 1.6-9.35.27-9.08-.26-6.95-2.14-6.14-6.68-4.8-13.62-1.08-2.94-6.4-2.14-3.75-6.14-2.67-8.81 2.94-7.75 6.94-2.4 5.61 2.67 2.67 5.88 3.21-.54 1.07-1.33-1.07-6.15-.27-7.74 1.6-10.69-.06-6.1 4.87-7.79 8.55-6.14 14.96-6.4 16.56 2.4 14.42 10.41 6.68 10.68 4.27 7.75 1.07 19.23-3.2 16.56-5.88 14.7-5.61 7.74" clip-rule="evenodd"/><path fill="#335061" fill-rule="evenodd" d="m148.72 171.03-38.2 1.6v6.41l3.21 22.44-1.6 1.87-26.7-9.09-1.88-3.2-2.67-30.18-6.14-18.16-1.34-4.28 21.37-14.69 6.68-2.67 5.87 7.21 5.08 4.54 5.87 1.87 2.67.8 3.2 13.9 2.41 2.93 6.15-2.14-4.28 8.28 23.24 10.96z" clip-rule="evenodd"/><path fill="#6D6B6D" fill-rule="evenodd" d="m85.42 77.81 6.94-2.4 5.61 2.67 2.67 5.88 3.21-.54.8-3.2-1.6-6.15 1.6-14.69-1.34-8.01 4.81-5.61 10.42-8.28-2.94-4-14.69 7.2-6.14 4.81-3.47 7.48-5.35 7.21-1.6 8.55z" clip-rule="evenodd"/><path fill="#DCD9D8" fill-rule="evenodd" d="M96.37 52.7s4-9.88 20.03-14.68c16.03-4.81.8-3.48.8-3.48l-17.36 6.68-6.67 6.68-2.94 5.34zm-8.01 23.24s-5.61-18.7 15.76-21.37l-.8-3.2-14.7 3.47-4.27 13.9 1.07 9.07z" clip-rule="evenodd"/><path fill="#F7E4CD" fill-rule="evenodd" d="m96.9 100.78 3.5-3.39s1.58.19 1.85 2.06c.26 1.87 1.06 18.7 12.55 27.77 1.05.83-8.55-1.33-8.55-1.33l-8.54-13.36m48.34-16.83s.63-8.09 2.8-7.47a3 3 0 0 1 2.19 2.8s-5.3 3.43-4.99 4.68" clip-rule="evenodd"/><path fill="#F7E4CD" d="M168.22 66.06s-4.4.93-4.8 4.8c-.41 3.89 4.8.8 5.6.54m-33.12-5.07s-5.87.8-5.87 4.54 6.67 3.47 8.54 1.87"/><path fill="#F7E4CD" fill-rule="evenodd" d="M99.58 83.69s-10.15-6.15-11.22-.27-3.47 10.15 1.6 16.3l-3.47-1.07-3.2-8.28-1.07-8.02 6.14-6.4 6.94.53 4 3.2zm4.8-16.83s4.54-23.5 27.52-28.04c18.9-3.74 28.84.8 32.58 5.07 0 0-16.83-20.03-32.85-13.89s-27.78 17.36-27.51 24.57c.45 12.29.26 12.3.26 12.3m61.97-20.31s-7.75-.27-8.01 6.68c0 0 0 1.07.53 2.14 0 0 6.14-6.95 9.88-3.2" clip-rule="evenodd"/><path fill="#F7E4CD" fill-rule="evenodd" d="M132.43 56.1s-1.33-10.66-10.42-4.46c-5.87 4-5.34 9.61-4.27 10.68s.78 3.22 1.59 1.74c.81-1.47.55-6.28 3.48-7.62 2.94-1.33 7.76-2.82 9.62-.34" clip-rule="evenodd"/><path fill="#49728B" fill-rule="evenodd" d="m107.32 128.3-25.1 11.21s10.41 41.4 5.07 54.22l-3.74-1.33-.27-15.76-6.94-29.92-2.94-8.28 26.18-17.62zm2.58 22.9 3.56 4.34v16.02h-4.27s-.53-11.22-.53-12.55c0-1.34.53-6.14.53-6.14m.81 21.1-12.03.53 3.48 2.4 8.54 1.34" clip-rule="evenodd"/><path fill="#335061" fill-rule="evenodd" d="m151.13 171.3 9.88-.27 2.4 24.57-10.15 1.34z" clip-rule="evenodd"/><path fill="#335061" fill-rule="evenodd" d="m153.8 171.3 14.95-.8s6.15-15.5 6.15-16.3 5.34-22.43 5.34-22.43l-12.02-12.56-2.4-2.13-6.41 6.4v24.84z" clip-rule="evenodd"/><path fill="#49728B" fill-rule="evenodd" d="m160.47 169.43-9.34 1.86 1.33 7.48c3.47 1.6 9.35-2.67 9.35-2.67m-1.07-53.42 18.7 13.9.53-6.42-14.15-13.08z" clip-rule="evenodd"/><path fill="#fff" fill-rule="evenodd" d="m119.26 223.92-5.53-22.44-2.75-16.56-.45-12.29 25.03-1.33h15.57l-1.42 28.04 2.4 21.64-.26 4-20.3 1.6z" clip-rule="evenodd"/><path fill="#DCD9D8" fill-rule="evenodd" d="M147.65 171.03s-1.33 27.78 2.67 47.54c0 0-8 5.08-19.76 6.41l22.44-.8 2.67-1.6-3.2-43.8-.81-9.35" clip-rule="evenodd"/><path fill="#fff" fill-rule="evenodd" d="m163.87 193.47 10.41-2.94 19.77-1.07 2.94-9.08-5.35-15.76-6.14-.8-8.55 2.67-8.2 4-4.35-.8-3.4 1.34" clip-rule="evenodd"/><path fill="#DCD9D8" fill-rule="evenodd" d="M163.68 188.12s6.94-3.2 8.01-2.94l-2.94-14.69 3.48-1.33s2.4 13.89 2.4 15.49c0 0 14.96.8 16.3.8 0 0 3.2-6.14 2.4-12.55l2.93 8.54.27 4.81-4.27 6.41-4.81 1.07-8.01-.27-2.67-3.47-9.35 1.34-2.94 1.07" clip-rule="evenodd"/><path fill="#fff" d="m153.18 169.16-5.87-14.96-6.15-8.81s1.34-3.74 3.2-3.74h6.15l5.88 2.14-.54 9.88z"/><path fill="#DCD9D8" fill-rule="evenodd" d="M154.33 164.08s-7.48-14.42-7.48-16.56c0 0 1.34-3.2 3.2-2.4 1.88.8 5.88 2.94 5.88 2.94v-5.08l-9.08-1.87-6.14.8 10.42 24.58 2.13.26" clip-rule="evenodd"/><path fill="#fff" d="m121.67 128.83-7.4-.8-6.95-2.14v2.4l3.4 3.74 10.68 4.81"/><path fill="#DCD9D8" fill-rule="evenodd" d="M109.73 129.63s8.28 3.47 10.95 2.67l.26 3.2-7.47-1.6-4.55-3.2z" clip-rule="evenodd"/><path fill="#D33833" fill-rule="evenodd" d="M163.84 142.56a51 51 0 0 1-12.21-1.68c.24-1.47-.22-2.91.15-3.97 1-.72 2.67-.71 4.19-.88a7.3 7.3 0 0 0-4.65-.53c-.04-1.02-.5-1.65-.77-2.45 2.54-.9 8.56-6.87 11.94-4.9 1.62.94 2.3 6.3 2.43 8.92.1 2.16-.2 4.34-1.08 5.49" clip-rule="evenodd"/><path stroke="#D33833" stroke-width="2.5" d="M163.84 142.56a51 51 0 0 1-12.21-1.68c.24-1.47-.22-2.91.15-3.97 1-.72 2.67-.71 4.19-.88a7.3 7.3 0 0 0-4.65-.53c-.04-1.02-.5-1.65-.77-2.45 2.54-.9 8.56-6.87 11.94-4.9 1.62.94 2.3 6.3 2.43 8.92.1 2.16-.2 4.34-1.08 5.49Z"/><path fill="#D33833" fill-rule="evenodd" d="m142.17 135.15-.04 1.03c-1.42.94-3.7.92-5.26 1.7 2.3.1 4.1.66 5.65 1.43l-.1 2.6c-2.6 1.77-4.96 4.41-8.01 6.08-1.45.79-6.51 2.81-8.05 2.45-.87-.2-.95-1.28-1.3-2.3-.74-2.17-2.44-5.63-2.59-8.91-.19-4.14-.6-11.08 3.85-10.23 3.6.69 7.79 2.35 10.58 3.87 1.7.93 2.68 2.08 5.27 2.28" clip-rule="evenodd"/><path stroke="#D33833" stroke-width="2.5" d="m142.17 135.15-.04 1.03c-1.42.94-3.7.92-5.26 1.7 2.3.1 4.1.66 5.65 1.43l-.1 2.6c-2.6 1.77-4.96 4.41-8.01 6.08-1.45.79-6.51 2.81-8.05 2.45-.87-.2-.95-1.28-1.3-2.3-.74-2.17-2.44-5.63-2.59-8.91-.19-4.14-.6-11.08 3.85-10.23 3.6.69 7.79 2.35 10.58 3.87 1.7.93 2.68 2.08 5.27 2.28Z"/><path fill="#D33833" fill-rule="evenodd" d="M144.74 140.09c-.4-2.25-.85-2.9-.67-4.87 6-4 7.14 6.9.67 4.87" clip-rule="evenodd"/><path stroke="#D33833" stroke-width="2.5" d="M144.74 140.09c-.4-2.25-.85-2.9-.67-4.87 6-4 7.14 6.9.67 4.87Z"/><path fill="#EF3D3A" fill-rule="evenodd" d="M153.45 141.92s-1.87-2.67-.53-3.47c1.33-.8 2.67 0 3.47-1.34s0-2.14.27-3.74c.26-1.6 1.6-1.87 2.93-2.14 1.34-.26 5.08-.8 5.61.54l-1.6-4.81-3.2-1.07-10.16 5.88-.53 2.94v5.87m-24.31 10.15q-.48-6.25-1.03-12.5c-.57-6.21 1.49-5.13 6.88-5.13.82 0 5.07.99 5.37 1.6 1.46 2.98-2.43 2.32 1.68 4.56 3.47 1.9 9.6-1.15 8.2-5.35-.78-.94-4.09-.3-5.27-.91l-6.26-3.25c-2.66-1.37-8.8-3.38-11.62-1.46-7.17 4.88.45 17.07 3 22.16" clip-rule="evenodd"/><path fill="#231F20" fill-rule="evenodd" d="M132.43 56.1c-7.28-1.7-10.9 3.05-13.1 7.96-1.97-.47-1.19-3.15-.69-4.52 1.3-3.58 6.55-8.35 10.85-7.7 1.84.27 4.34 1.96 2.94 4.26m35.47 8.29.35.01c1.64 3.42 3.07 7.04 5.14 10.06-1.39 3.24-10.52 6.1-10.38.29 1.97-.87 5.38-.18 7.14-1.28-1.02-2.78-2.48-5.15-2.25-9.08m-31.74.09c1.56 2.86 2.07 5.87 4.29 8.03 1 .97 2.94 2.16 1.98 4.87-.23.64-1.87 2.06-2.82 2.34-3.47 1.02-11.55.21-8.82-4.11 2.87.13 6.73 1.86 8.87-.22-1.65-2.64-4.58-7.84-3.5-10.91m30.44 29.08c-5.22 3.36-11.04 7-19.6 6.16-1.83-1.6-2.53-5.13-.75-7.47.92 1.6.34 4.52 2.92 4.96 4.85.83 10.5-2.97 14-4.3 2.16-3.65-.19-5-2.14-7.35-4-4.81-9.35-10.78-9.16-17.99 1.62-1.17 1.76 1.79 1.99 2.33 2.08 4.88 7.33 11.12 11.16 15.3.94 1.03 2.5 2.02 2.67 2.7.5 1.97-1.3 4.34-1.09 5.66m-68.85-3.53c-1.64-.94-2.03-5.05-3.95-5.17-2.75-.17-2.25 5.34-2.24 8.56-1.89-1.72-2.22-7-.83-9.71-1.58-.78-2.29.85-3.17 1.43 1.13-8.2 12-3.8 10.19 4.89m72.18 6.94c-2.44 4.63-5.87 9.73-13 9.88-.15-1.5-.26-3.77 0-4.67 5.45-.53 8.82-3.3 13-5.2m-34.18 2.99c4.55 2.4 12.91 2.65 19.1 2.47.33 1.36.32 3.03.33 4.68-7.95.4-17.35-1.57-19.43-7.15m-.87 4.47c3.15 7.9 13.97 6.99 23.08 6.77-.4 1.02-1.27 2.23-2.35 2.67-2.92 1.2-10.98 2.1-15.04-.06-2.57-1.37-4.22-4.46-5.63-6.27-.69-.87-4.07-3.11-.06-3.11" clip-rule="evenodd"/><path fill="#81B0C4" fill-rule="evenodd" d="M166.22 148.01c-3.7 6.33-7.22 12.82-11.6 18.4 1.83-5.4 2.62-14.44 2.9-21.33 3.84-1.8 7.13.4 8.7 2.93" clip-rule="evenodd"/><path fill="#231F20" fill-rule="evenodd" d="M186.09 170.74c-4.13.83-7.04 4.84-11.07 4.59 2.22-3.13 6.1-4.45 11.07-4.59m1.82 6.46c-3.37.37-7.32.91-10.74.63 1.62-2.47 7.85-1.62 10.74-.62m1.17 5.58c-3.79.08-8.5 0-12.1-.3 2.14-2.29 9.65-.85 12.1.3" clip-rule="evenodd"/><path fill="#DCD9D8" fill-rule="evenodd" d="M159.1 198.05c.54 4.76 2.43 9.57 2.19 14.78-2.1.7-3.3 1.33-6.1 1.32-.2-4.42-.8-11.19-.62-15.41 1.38.1 3.42-.99 4.53-.69" clip-rule="evenodd"/><path fill="#F0D6B7" fill-rule="evenodd" d="M153 127.96c-1.91 1.24-3.53 2.8-5.36 4.12-4.04.2-6.25-.28-9.23-2.6.05-.2.35-.11.36-.34 4.33 1.93 9.84-.79 14.22-1.18" clip-rule="evenodd"/><path fill="#81B0C4" fill-rule="evenodd" d="M130.23 157.51c1.2-5.16 5.86-7.83 10.1-10.68 4.37 5.56 7.03 12.7 9.96 19.58-6.92-2.08-13.99-5.47-20.06-8.9" clip-rule="evenodd"/><path fill="#231F20" fill-rule="evenodd" d="M154.57 198.74c-.17 4.22.42 10.99.62 15.41 2.8 0 4-.61 6.1-1.32.24-5.2-1.65-10.02-2.2-14.78-1.1-.3-3.14.78-4.52.69m-43.68-24c1.85 17 4.53 31.3 9.45 46.36 10.9 3.31 24.05 3.6 33.69.62-1.77-8.5-1-18.85-2.03-27.92-.78-6.82-.38-13.68-1.45-20.63-11.68-2.43-28.2-.57-39.66 1.57m42.42-1.47c-.1 7.3.33 14.51.88 21.82 2.8-.42 4.71-.7 7.32-1.27-.85-7.04-.74-14.96-2.47-21.19-1.99.02-3.74-.02-5.73.64m14.23-1.17c-1.33-.3-2.88-.02-4.16 0 .6 5.96 2.05 12.53 2.56 18.78 2 .06 3.07-.88 4.72-1.2.09-5.48-.48-13.04-3.12-17.58m21.54 19.68c4.17-1.02 6.8-6.12 5.63-11.37-.79-3.53-2.18-10.16-3.67-12.42-1.1-1.67-4.1-3.85-6.48-2.32-3.89 2.48-10.73 3.2-13.56 6.22 1.42 4.72 1.86 11.22 2.45 17.2 4.85.3 10.82-1.33 14.85.4-2.81.92-6.47.93-8.9 2.26 1.99.96 6.64.76 9.68.03m-38.79-25.37c-2.92-6.88-5.59-14.02-9.96-19.58-4.24 2.85-8.9 5.52-10.1 10.68 6.07 3.43 13.14 6.82 20.06 8.9m7.22-21.33c-.27 6.89-1.06 15.93-2.9 21.33 4.39-5.58 7.92-12.07 11.61-18.4-1.57-2.52-4.86-4.73-8.7-2.93m-8.18-2.9c-1.66-.19-3.07 1.9-5.23 1-.5.54-.94 1.14-1.44 1.67 4.76 5.74 6.93 13.9 10.6 20.64 1.98-6.48 1.76-13.59 2.2-20.66-2.72.17-4.23-2.46-6.13-2.66m-5.26-6.96c-.18 1.97.28 2.62.67 4.87 6.47 2.02 5.34-8.87-.67-4.87m-7.17-2.35a40 40 0 0 0-10.58-3.87c-4.46-.85-4.04 6.09-3.85 10.23.15 3.28 1.85 6.74 2.6 8.92.34 1.01.42 2.1 1.29 2.3 1.53.35 6.6-1.67 8.05-2.46 3.05-1.67 5.42-4.31 8.01-6.09l.1-2.59a14 14 0 0 0-5.65-1.43c1.56-.78 3.84-.76 5.26-1.7q0-.51.04-1.03c-2.59-.2-3.57-1.35-5.27-2.28m-26.62-4.83c-2.31 2.34 6.49 5.54 9.29 5.72-.02-1.49.85-2.89.67-3.96-3.32-.58-7.7-.2-9.96-1.76m28.49 1.1c-.01.23-.31.14-.36.33 2.97 2.33 5.18 2.8 9.23 2.6 1.83-1.32 3.45-2.87 5.35-4.1-4.38.38-9.89 3.1-14.22 1.17m26.15 7.93c-.13-2.61-.81-7.97-2.43-8.91-3.38-1.98-9.4 3.98-11.94 4.9.27.8.73 1.42.77 2.44a7.3 7.3 0 0 1 4.65.53c-1.52.17-3.19.16-4.19.88-.37 1.06.09 2.5-.15 3.97a51 51 0 0 0 12.2 1.68c.89-1.15 1.19-3.33 1.09-5.5m-58.53-6.76c-.73-.52-5.64-6.91-6.31-6.65-8.9 3.5-17.2 9.57-24.63 15.3 7.08 15.2 9.94 33.82 10.44 51.76 8.12 3.8 15.24 9.26 26.25 9.83-1.27-9-2.44-17.05-3.16-25.54-2.77-1.16-6.73.06-9.32-.36-.02-3.12 3.95-1.36 4.28-3.46.25-1.59-2.19-1.7-1.4-4.2 2.03.73 3.1 2.35 5.25 2.97 1.97-4.32-.03-11.95.26-15.56.05-.68.34-3.75 1.85-3.2 1.35.47-.07 8.17.07 11.58.14 3.14-.38 6.19.9 8.16a304 304 0 0 1 32.95-2.7c-2.53-1.09-5.54-2.12-8.83-3.98-1.8-1-7.43-3.1-7.94-4.8-.83-2.7 2.16-4.15 2.67-6.47-5.37 2.93-6.42-2.8-7.7-6.87a53 53 0 0 1-2.08-8.55c-4.62-2.2-9.57-4.44-13.55-7.26m53.83-5.87c7.4-3.6 8.74 13.42 5.84 18.9.44 1.63 1.99 2.26 2.62 3.73-4.14 7.4-8.73 14.31-12.94 21.63 3.13-1.95 7.61-.35 11.3-1.81 1.36-.53 2.33-3.62 3.35-6.1 2.81-6.8 5.77-15.36 7.08-21.85.3-1.48 1.1-4.7.92-6.02-.32-2.35-3.52-4.1-5.14-5.56-3-2.69-4.89-5.06-8.01-7.57-1.27 1.87-3.99 3.13-5.02 4.65M89.45 58.76c-3.53 3.88-2.79 11.16-2.36 16.33 6.38-4.01 14.84.32 14.76 7.14 3.05-.08 1.14-3.8.59-6.2-1.8-7.83 3.03-16.34.22-23.5a19.3 19.3 0 0 0-13.21 6.23m25.25-22.54c-7.99 2.26-18.23 8.07-21.51 15.25 2.54-.37 4.3-1.66 6.81-1.81.95-.07 2.2.4 3.28.12 2.17-.54 4-5.4 5.64-7.21 1.6-1.77 3.52-2.53 4.83-4.14.84-.4 2.1-.38 2.14-1.65-.36-.39-.75-.68-1.19-.56m41.6 2.13c-8.3-4.68-22.34-8.2-31.16-3.8-7.12 3.55-16.74 9.42-20.02 16.86 3.07 7.18-.9 13.76-1.16 21.05-.13 3.88 1.83 7.27 1.98 11.49-1.05 1.73-4.25 1.94-6.47 1.82-.75-3.73-2.06-7.93-5.9-8.35-5.45-.6-9.43 3.9-9.67 8.61-.3 5.54 4.25 14.72 10.7 14.08 2.48-.25 3.1-2.74 5.8-2.72 1.47 2.94-2.26 3.86-2.65 5.95-.1.55.31 2.66.55 3.65 1.17 4.84 3.78 11.1 6.34 14.78 3.26 4.66 9.67 5.37 16.55 5.83 1.23-2.66 5.76-2.44 8.72-1.74-3.54-1.4-6.83-4.8-9.56-7.81-3.13-3.45-6.3-7.15-6.46-11.66 5.92 8.2 10.8 15.38 21.57 18.99 8.14 2.73 17.65-1.25 23.9-5.64 2.6-1.83 4.15-4.73 6-7.38 6.9-9.93 10.12-24.1 9.41-37.85-.29-5.67-.28-11.31-2.18-15.13-1.98-3.98-8.7-7.55-12.64-3.94-.73-3.88 3.27-6.28 7.97-4.88-3.35-4.33-6.87-9.52-11.63-12.21m15.44 127.86c6.48-3.22 18.59-8.67 22.65.01 1.5 3.2 3.26 8.61 4.04 11.91 1.1 4.66-1.2 14.46-5.99 16.03-4.23 1.38-9.16 1.3-14.26.27a8 8 0 0 1-1.74-2.28c-3.64-.14-7.04.2-9.92 1.7.27 2.69-1.55 3.12-3.25 3.67-1.27 5.02 2.53 11.57 1.62 16.14-.65 3.26-4.66 3.77-7.6 4.38-.1 1.8.12 3.32.32 4.85-.67 2.49-3.7 3.9-6.56 4.25-9.42 1.13-23.73 1.64-32.79-1.62-2.53-6.2-4.52-13.75-6.63-20.83-8.83.94-15.98-3.82-22.72-6.94-2.34-1.08-5.56-1.67-6.44-3.53-.84-1.8-.5-5.25-.7-8.5-.54-8.31-1-16.34-3.2-24.85-.98-3.82-2.7-7.2-3.9-10.87-1.1-3.41-3.04-7.63-3.54-11.03-.75-5.04 4-5.32 7.03-7.51 4.7-3.38 8.38-5.25 13.46-8.3 1.5-.9 6.05-3.19 6.56-4.24 1.03-2.09-1.76-5.03-2.5-6.67a20 20 0 0 1-1.97-7.33 14.2 14.2 0 0 1-9.45-6.08c-3.23-4.73-5.47-13.5-2.67-20.16.22-.52 1.31-1.56 1.47-2.36.32-1.59-.6-3.7-.65-5.39-.3-8.66 1.46-16.12 7.3-18.73 2.36-9.43 10.83-12.57 18.82-17.26 2.98-1.75 6.27-2.87 9.67-4.12 12.18-4.48 30.88-3.64 41 4.01 4.28 3.24 11.14 10.1 13.59 15.05 6.47 13.1 6.01 34.97 1.49 50.9-.61 2.13-1.5 5.27-2.73 7.84-.86 1.8-3.53 5.38-3.2 6.97.33 1.63 6.09 6 7.32 7.2 2.22 2.14 6.45 4.99 6.79 7.7.37 2.88-1.27 6.82-2.1 9.6a377 377 0 0 1-8.62 26.12" clip-rule="evenodd"/><path fill="#F7E4CD" fill-rule="evenodd" d="M128.5 102c.36-.47 2.3-1.18 5 .12 0 0-3.2.53-2.94 5.88l-1.34-.27s-1.38-4.85-.71-5.74" clip-rule="evenodd"/><path fill="#1D1919" fill-rule="evenodd" d="M151.93 147.93a1.47 1.47 0 1 1-2.94 0 1.47 1.47 0 0 1 2.94 0m1.47 6.81a1.47 1.47 0 1 1-2.94 0 1.47 1.47 0 0 1 2.94 0" clip-rule="evenodd"/></g><defs><clipPath id="a"><path fill="#fff" d="M56 28h144.87v200H56z"/></clipPath></defs></svg>