<svg xmlns="http://www.w3.org/2000/svg" width="256" height="256" fill="none" viewBox="0 0 256 256"><rect width="256" height="256" fill="#99424F" rx="60"/><path fill="#fff" d="M213.35 126.5a26 26 0 0 0-19.4-25.08L218.86 28H95.46l24.96 73.65a26 26 0 0 0-18.7 24.9c0 8.69 4.34 16.39 10.94 21.14a69 69 0 0 1-9.03 10.36 68 68 0 0 1-21.26 13.72c-6.94-4.69-9.95-12.97-7.23-20.38a25.91 25.91 0 1 0-33.53-24.72c0 7.06 2.9 13.55 7.53 18.18q-.6 1.2-1.22 2.49c-3.88 8-8.28 17.02-9.96 27.16-3.36 20.26 2.14 36.53 15.4 45.74A42.4 42.4 0 0 0 77.92 228c15.22 0 30.69-7.64 45.62-15.06 10.66-5.26 21.66-10.76 32.49-13.43 4-.98 8.16-1.56 12.56-2.2 8.92-1.27 18.13-2.6 26.4-7.41a37.4 37.4 0 0 0 18.19-25.77c1.45-8.28 0-16.62-3.7-23.91a26 26 0 0 0 3.87-13.72m-11.29 0a14.6 14.6 0 0 1-14.59 14.59 14.6 14.6 0 0 1-9.03-26.06l.06-.06q.7-.53 1.5-1.04s.06 0 .06-.06c.23-.11.46-.29.7-.4.05 0 .1-.06.17-.06q.36-.18.8-.35.46-.18.82-.35c.06 0 .11-.05.17-.05.23-.06.47-.18.7-.24.06 0 .17-.05.23-.05l.8-.18h.07l.87-.17c.05 0 .17 0 .23-.06.23 0 .46-.06.7-.06h.28c.3 0 .58-.06.93-.06h.75c.23 0 .4 0 .64.06h.11q.7.08 1.4.23a14.7 14.7 0 0 1 11.63 14.37m-90.44-86.92h91.08l-20.9 61.67c-.87.17-1.74.46-2.61.75l-22-44.87-22.06 44.58a21 21 0 0 0-2.73-.63zm41.4 81.88a25.7 25.7 0 0 0-7.82-13.9l11.99-24.2 12.1 24.72a26 26 0 0 0-7.24 13.38zM124 112.3l.8-.18h.18c.23-.05.47-.05.7-.11h.23c.23 0 .4-.06.64-.06h2.25c.23 0 .4.06.58.06.12 0 .18 0 .3.06.22.05.4.05.63.11q.08-.02.23.06l.81.17h.06q.34.08.7.23c.05 0 .11.06.23.06.17.06.4.12.58.23.05 0 .11.06.17.06.23.12.46.18.7.3h.05c.3.1.52.22.75.4h.06c.23.11.47.29.7.4.05 0 .05.06.11.06.23.12.4.29.64.4l.06.06q1.03.8 1.97 1.68l.05.06a14.6 14.6 0 0 1 4 10.08 14.6 14.6 0 0 1-14.6 14.59 14.6 14.6 0 0 1-14.58-14.6 14.5 14.5 0 0 1 11-14.12m-56.98-.4a14.6 14.6 0 0 1 14.6 14.59 14.6 14.6 0 0 1-14.6 14.59 14.6 14.6 0 0 1-14.6-14.6 14.6 14.6 0 0 1 14.6-14.59m134.69 50.2a25.6 25.6 0 0 1-12.57 17.77c-6.31 3.65-14.07 4.8-22.24 5.97-4.45.63-9.14 1.33-13.66 2.43-12.04 2.95-23.63 8.74-34.86 14.3-14.36 7.12-27.9 13.84-40.47 13.84-6.55 0-12.4-1.85-17.95-5.73-12.74-8.8-12.1-25.3-10.6-34.34 1.39-8.45 5.27-16.39 8.97-23.97.24-.47.41-.87.64-1.33q1.91.69 4 1.04c-2.2 12.27 4.05 24.95 16.21 31.2l2.2 1.17 2.37-.87a79 79 0 0 0 27.8-17.26q7.02-6.59 12.04-14.3a25.97 25.97 0 0 0 29.07-19.1h9.73a25.9 25.9 0 0 0 25.07 19.39c4.8 0 9.27-1.33 13.09-3.59a26.3 26.3 0 0 1 1.16 13.38"/></svg>