<svg xmlns="http://www.w3.org/2000/svg" width="256" height="256" fill="none" viewBox="0 0 256 256"><rect width="256" height="256" fill="url(#a)" rx="60"/><path fill="#fff" d="M79.24 68.74c-9.99 14.62-8.74 33.63-1.14 49.15l.56 1.1.38.7.22.4q.21.36.38.73l.73 1.27.42.7.84 1.34.38.57q.58.9 1.22 1.8l.04.05.19.28q.55.77 1.13 1.51l.42.55 1.03 1.29.4.48q.7.84 1.43 1.67l.03.03.06.06q.7.8 1.46 1.57l.47.48 1.16 1.16.48.47q.78.75 1.6 1.48l.3.26 1.45 1.25.6.49 1.2.94.65.5 1.85 1.35.14.1 1.32.89.57.39 2.06 1.28.57.33 1.55.88.86.45 1.1.57.26.13.46.22 1.75.83.38.19q1.01.45 2.05.86l.5.2 1.93.73.24.09q1.07.38 2.15.72l.52.16c.76.22 1.47.5 2.23.64 48.29 8.99 62.32-29.54 62.32-29.54-11.78 15.64-32.7 19.76-52.5 15.17q-1.12-.3-2.22-.63l-.55-.2q-1.06-.32-2.13-.7l-.29-.1-1.88-.71-.53-.22q-1.02-.4-2.02-.85l-.4-.18-1.72-.82-.49-.24-1.32-.69-.88-.47q-.8-.44-1.59-.9l-.53-.3q-1.05-.63-2.07-1.3-.28-.17-.55-.37l-1.47-1-.47-.33-1.4-1.02-.61-.48-1.25-1-.56-.45-1.56-1.32-.2-.15q-.83-.75-1.63-1.52l-.46-.45-1.18-1.18-.46-.47q-.75-.76-1.45-1.56l-.07-.07q-.76-.84-1.47-1.7l-.38-.47-1.06-1.33-.39-.49-1.22-1.65c-11-15.28-14.93-36.36-6.16-53.67zm31-12.32c-7.22 10.59-6.83 24.75-1.2 35.95a47 47 0 0 0 3.2 5.43c1.08 1.58 2.28 3.46 3.71 4.72l1.62 1.72.43.43q.81.8 1.66 1.56l.06.06a50 50 0 0 0 1.95 1.65l.44.34a47 47 0 0 0 2.08 1.55q.46.33.92.62l.44.3 1.5.93.2.13 1.33.75q.24.14.47.25l.95.5q.08.02.14.06.96.48 1.93.91l.43.18q.78.34 1.59.66l.68.25 1.45.52.66.21c.7.22 1.38.5 2.1.62 37.29 6.3 45.9-22.94 45.9-22.94-7.76 11.38-22.78 16.8-38.82 12.57q-1.06-.29-2.11-.62l-.64-.2q-.75-.24-1.47-.51l-.67-.25q-.81-.3-1.59-.66-.22-.08-.43-.18-.99-.44-1.94-.92l-.98-.5-.56-.3-1.24-.71-.3-.2q-.75-.44-1.49-.92l-.45-.3-.96-.66a52 52 0 0 1-2.02-1.5l-.45-.36c-7.02-5.65-12.59-13.36-15.23-22.1-2.77-9.08-2.17-19.26 2.65-27.52zm26.06-9.2c-4.25 6.38-4.67 14.3-1.7 21.35a29.7 29.7 0 0 0 17.9 16.46l.4.13q.66.23 1.33.4c20.59 4.04 26.17-10.77 27.66-12.95-4.9 7.18-13.11 8.9-23.2 6.4a29 29 0 0 1-5.36-1.99 30 30 0 0 1-5.08-3.16c-9.04-6.97-14.65-20.27-8.76-31.1M90.84 182.68l-1.4 4.95zM98 193.41h-1.54zm-.38 7.39-9.2.03zm1.93-7.37-1.54-.01zm-1.1 6.74 1.6-6.12zm33.9-28.18-3 14.05zm-7.7 0-2.26 10.5zm7.17-.63h-6.39c-.35 0-.7.28-.78.63l-4.54 21a.84.84 0 0 1-.78.62h-4.52c-4.47 0-3.96-3.09-3.02-7.33l.03-.13.54-2.89.23-1.2 2.07-10.07a.5.5 0 0 0-.52-.63h-6.56a.8.8 0 0 0-.78.63L103.85 186c-1.63 7.42-1.2 14.5 7.64 14.71h14.11c.35 0 .7-.27.78-.62l5.98-28.1c.07-.35-.16-.63-.51-.63zm25.5 22.33c.35 0 .56.28.51.63l-.62 3.03zm-.73 6.7.62-3.04zm-.78.64-11.77.05z"/><path fill="#fff" d="M140.22 189.78c0-.33.38-.9.73-.9l-.8-.01c-.37 3.61.07.91.07.91m4.4 11.3h-.12zm12.7-7.4c.35 0 .56.3.51.64l-.72 3.53zm-9.68 7.41h-.02zm-1.56-.01h-.1zm-.48 0h-.15zm-.47 0H145zm.87 0h-.38zm1.62.02h-1.54zm8.2-.06-8.18.05zm.75-.65.52-2.54zm-11.14.7h-.3.34zm-.94 0h-.45zm.49 0h-.38zm-93.49-11.23 1-4.4-1.14 5.03-.13.63zm11.88-18.57h-7.02a.85.85 0 0 0-.78.63l-1.34 5.86a.5.5 0 0 0 .5.63h7.08c.36 0 .7-.29.78-.63l1.29-5.88c.07-.34-.15-.63-.51-.63zm-1.53 9.77-2.07 9.52zM41.46 212.6l5.78.05c-1.7 0-4.53-.03-5.78-.05"/><path fill="#fff" d="m53.46 181.06-1 4.4zm7.88-.63h-7.08a.85.85 0 0 0-.78.63l-1.99 8.8-.28 1.26-1.89 8.98q-.13.63-.34 1.25s-1.32 3.93-3.54 3.88l-2.2-.04a.85.85 0 0 0-.8.62l-1.46 6.16a.5.5 0 0 0 .5.64l5.78.05c5.55 0 8.48-3.08 10.35-11.92l4.26-19.66c.07-.35-.16-.63-.51-.63zm100.48 20.3c-.35 0-.56-.29-.5-.64l5.31-24.92zm7.4-.64 2.15-10.64z"/><path fill="#fff" d="M161.4 200.4c-.05-.17-.03-.6.05-.94l2.52-11.83-2.66 12.46c-.07.35.16.63.51.63h.65c-.36 0-1.04-.14-1.08-.31m7.4.18c-.2.08-.64.14-1 .14h.65a.8.8 0 0 0 .77-.63l.13-.63c-.07.35-.37 1.04-.56 1.12zm1.5-5.8.94-4.7zm20.99-17.94.3 1.2c.07.35-.15.63-.5.64m-21.73 20.77.94-4.69zM191 175.57l.29 1.24zm-19.75 14.5.26-1.25 1.01-4.75-1.15 5.38zm-4.53-15.31-.22 1.04-2.53 11.83 2.67-12.46z"/><path fill="#fff" d="m191.59 178.05-.3-1.21-.43-1.9c-.58-2.22-2.26-3.51-5.93-3.51l-16.86-.02a.8.8 0 0 0-.78.63l-.26 1.24-.37 1.87-5.2 24.29c-.07.35-.1.76-.05.94.05.2.73.32 1.08.32h5.33c.36 0 .8-.06 1-.14s.48-.76.56-1.12l2.03-10.01 2.16-10.14a.84.84 0 0 1 .78-.63h16.77c.36 0 .58-.29.5-.64zm21.59-10.95h-6.66a1.4 1.4 0 0 0-1.01.53l-11.87 17.4c-.2.29-.43.25-.51-.1l-.88-3.83a.85.85 0 0 0-.78-.63h-7.63c-.36 0-.57.28-.47.62l3.4 11.98c.1.34.1.9.02 1.25l-1.51 5.8a.5.5 0 0 0 .07.44.5.5 0 0 0 .41.18h7.56c.36 0 .72-.28.8-.62l1.52-5.8q.18-.62.55-1.14l19.29-25.58c.21-.29.1-.52-.26-.51l-2.02.01zm-60.63 15a.8.8 0 0 1-.76.66h-9.68c-.33 0-.5-.23-.45-.51v-.05l.05-.16c.95-2.46 2.8-4.07 6.34-4.07 3.99 0 4.76 1.94 4.5 4.13m-2.84-11.17c-12.42 0-15.36 7.54-17.01 15.15-1.66 7.75-1.51 15 11.34 15h3.6l8.18-.05a.8.8 0 0 0 .77-.63l1.24-6.07c.07-.35-.16-.64-.51-.64h-11.56c-4.59 0-5.96-1.22-5.45-4.8h18.46a.74.74 0 0 0 .73-.64c2.74-10.34 1.96-17.31-9.79-17.31M91 182.06l-.17.62-1.4 4.94-1.4 4.94a.9.9 0 0 1-.81.62h-7.39c-5.6 0-6.96-4.38-5.6-10.84 1.37-6.6 4.04-10.71 9.55-11.13 7.53-.56 9.03 4.73 7.22 10.85m5.06 10.74s3.48-8.45 4.27-13.33c1.08-6.53-2.19-16-14.82-16-12.57 0-18.02 9.04-20.1 18.9-2.08 9.9.64 18.59 13.13 18.52l19.07-.07a.9.9 0 0 0 .8-.63l1.61-6.12a.5.5 0 0 0-.07-.44.5.5 0 0 0-.41-.19l-3.08-.02c-.3 0-.47-.2-.44-.45l.04-.14z"/><path fill="#fff" d="M158.27 187.15a.42.42 0 1 1-.85 0 .42.42 0 1 1 .85 0"/><defs><linearGradient id="a" x1="0" x2="256" y1="0" y2="256" gradientUnits="userSpaceOnUse"><stop stop-color="#FF5C00"/><stop offset="1" stop-color="#FF0F00"/></linearGradient></defs></svg>