<svg xmlns="http://www.w3.org/2000/svg" width="256" height="256" fill="none" viewBox="0 0 256 256"><rect width="256" height="256" fill="#F4F2ED" rx="60"/><path fill="#CB3C33" d="M118.5 182.43c0 26.44-21.15 47.85-47.25 47.85S24 208.87 24 182.43c0-26.42 21.15-47.85 47.25-47.85s47.26 21.43 47.26 47.85"/><path fill="#9558B2" d="M232.05 182.43c0 26.44-21.16 47.85-47.26 47.85s-47.25-21.41-47.25-47.85c0-26.42 21.16-47.85 47.25-47.85 26.1 0 47.26 21.43 47.26 47.85"/><path fill="#389826" d="M175.29 82.85c0 26.43-21.16 47.85-47.26 47.85s-47.25-21.42-47.25-47.85S101.93 35 128.03 35s47.26 21.43 47.26 47.85"/></svg>