<svg xmlns="http://www.w3.org/2000/svg" width="256" height="256" fill="none" viewBox="0 0 256 256"><rect width="256" height="256" fill="#A9CBD4" rx="60"/><g clip-path="url(#a)"><path fill="#000" d="M163 138.68a26 26 0 0 0-19.53 8.87l-12.24-8.66a33 33 0 0 0 2.05-11.44c0-3.95-.72-7.73-1.98-11.25l12.2-8.57a26 26 0 0 0 19.5 8.82 26.07 26.07 0 0 0 26.04-26.04A26.07 26.07 0 0 0 163 64.37a26.07 26.07 0 0 0-24.96 33.44l-12.22 8.57A33.6 33.6 0 0 0 105 94.28V79.55a26.1 26.1 0 0 0 20.68-25.48 26.07 26.07 0 0 0-26.04-26.04A26.07 26.07 0 0 0 73.6 54.07a26.05 26.05 0 0 0 20.21 25.36v14.92A33.7 33.7 0 0 0 66 127.45a33.66 33.66 0 0 0 28.05 33.13v15.75a26.1 26.1 0 0 0-20.45 25.43 26.07 26.07 0 0 0 26.04 26.04 26.07 26.07 0 0 0 26.04-26.04 26.1 26.1 0 0 0-20.45-25.42v-15.76a33.6 33.6 0 0 0 20.47-11.9l12.32 8.72A26.07 26.07 0 0 0 163 190.77a26.07 26.07 0 0 0 26.05-26.05A26.07 26.07 0 0 0 163 138.68m0-60.9a12.64 12.64 0 0 1 0 25.25 12.64 12.64 0 0 1-12.63-12.62c0-6.96 5.66-12.63 12.63-12.63m-76-23.7a12.64 12.64 0 0 1 25.25-.01c0 6.96-5.65 12.63-12.61 12.63A12.64 12.64 0 0 1 87 54.07m25.25 147.68c0 6.96-5.66 12.62-12.62 12.62A12.64 12.64 0 0 1 87 201.76c0-6.96 5.66-12.63 12.63-12.63 6.96 0 12.62 5.67 12.62 12.63m-12.62-56.7c-9.71 0-17.61-7.9-17.61-17.61s7.9-17.61 17.6-17.61c9.72 0 17.62 7.9 17.62 17.6 0 9.72-7.9 17.62-17.61 17.62M163 177.35a12.64 12.64 0 0 1-12.63-12.63 12.64 12.64 0 0 1 25.25 0c0 6.96-5.66 12.63-12.62 12.63"/></g><defs><clipPath id="a"><path fill="#fff" d="M66 28h123.04v200H66z"/></clipPath></defs></svg>