<svg xmlns="http://www.w3.org/2000/svg" width="256" height="256" fill="none" viewBox="0 0 256 256"><g clip-path="url(#a)"><path fill="#F4F2ED" d="M196 0H60A60 60 0 0 0 0 60v136a60 60 0 0 0 60 60h136a60 60 0 0 0 60-60V60a60 60 0 0 0-60-60"/><g clip-path="url(#b)"><path fill="url(#c)" d="M128 198.98a70.98 70.98 0 1 0 0-141.96 70.98 70.98 0 0 0 0 141.96"/><path fill="#000" d="M198.91 126.04a71 71 0 0 1-70.91 69.6 71 71 0 0 1-70.92-69.03q-.04.69-.06 1.39a70.99 70.99 0 0 0 141.96 0q-.01-.98-.06-1.96" opacity=".3"/><path fill="#fff" d="M128 57.02A71 71 0 0 0 57 128l.07 1.96A71 71 0 0 1 128 60.36a71 71 0 0 1 70.91 69.03l.07-1.39A70.97 70.97 0 0 0 128 57.02" opacity=".1"/><path fill="#000" d="M56.1 79.65a176 176 0 0 0-19.19.95c-.75.08-.66 1.2.1 1.16 0 0 41.79-1.97 75.28 11.49 1.2 5.11 4.35 12.95 6.22 17.11-2.54 1.75-5.26 3.52-7.5 6.32-2.35 2.95-4.13 7.01-4.6 13.23-.96 12.6 9.85 23.64 23.22 23.98 12.4.66 20.84.75 31.1 6.07 4.8 2.66 9.26 8.11 12.6 14.78a57 57 0 0 1 5.94 21.95c.04.73 1.11.74 1.17.01v-.07c.43-5.68-.41-14.48-3.81-22.84-2.86-7-7.57-13.68-14.81-17.86 10.4 2.84 16.37 8.13 19.8 12.96 3.93 5.54 4.5 10.47 4.5 10.44.09.7 1.1.68 1.16-.02 0 0 .52-6.04-3.65-12.7s-13.02-13.94-31.48-16.65a120 120 0 0 0-16.56-1.23c-14.47.2-21.77-8.05-22.9-16.51-.57-4.23.42-8.52 2.88-11.84 2.46-3.31 6.37-5.7 11.75-6.11 8.85-.73 19.64 4.05 30.25 8.99 0 1.22.1 2.46 1 3.58.6.75 1.68 1.27 2.78 1.8 1.1.51 2.24.98 2.69 1.24 1.02.59 4.43 2.78 6.44 5.4.26.33.78.29.98-.09 0-.02.31-.37.72-.7.4-.34.91-.73 1.41-1.09 1-.72 1.94-1.33 1.94-1.33.5-.32.26-1.08-.33-1.07 0 0-.14 0-.6-.08s-1.19-.27-2.22-.66c-.96-.36-2.1-1.13-2.97-1.82q-.67-.54-1.09-.93l-.07-.07a1 1 0 0 0 .26-.9 2 2 0 0 0-.3-.68c-.25-.4-.57-.77-.79-.99l-.16-.22-.37-.57-.98-1.59c-.69-1.12-1.3-2.17-1.36-2.27 0 0-.15-.31-.44-.5l-.14-.08c-.32-.1-.58-.08-.91-.06q-.52.03-1.05.1-.88.12-1.1.17a10 10 0 0 1-4.62-5.4c-.2-.64-1.15-.47-1.14.2 0 .23-.34.9-.26 1.94-1.37-.83-2.55-2.14-3.58-4.84a.58.58 0 0 0-1.09-.01 5 5 0 0 0-.33 2.46c-1.3-.61-3.44-1.96-3.9-4.64a.58.58 0 0 0-1.11-.13c-.39.9-.42 1.65-.35 2.25-2.43-1.04-9.11-3.47-19.09-3.52a7 7 0 0 1-4.7-2.59 16 16 0 0 1-2.9-5.36c-.67-2-1.07-4.05-1.25-5.75s-.1-3.11.02-3.51a.6.6 0 0 0-.28-.7s-12.2-6.4-36.03-9.23a206 206 0 0 0-24.2-1.37m27.84 12.7q-5.46.03-11.63.46C50.43 94.36 28.4 102 28.4 102c-.7.24-.39 1.3.34 1.11 0 0 44.93-11.27 82.47-4.66h.1c.4 0 .68-.37.56-.75l-.98-3.17a.6.6 0 0 0-.45-.4s-10.75-1.9-26.49-1.79m26.68 6.75c-3.86-.02-15.74.47-33.6 6.05-22.4 7.01-35.15 16.98-35.15 16.98-.56.44.02 1.31.64.97 0 0 33.18-18.5 70.53-19.55.4-.02.66-.4.54-.77l-1.07-3.25a.6.6 0 0 0-.52-.4q-.01-.02-1.36-.03m24.43-.06c-.57.01-.8.75-.32 1.07l.11.06c10.25 4.16 19.13 9.67 26.02 17.24l.02.02q.2.18.45.17l1.67-.11a.58.58 0 0 0 .42-.96s-9.68-11.73-28.14-17.44l-.03-.02h-.02zm29.17 24.7c.34.07.97 1.31 1.55 2.2l.15.2v.02l.2.27c.03.19.09.3-.35.21-.04-.19-.1-.25-.1-.25s-1.05-.62-1.37-1.06-.38-1.22-.22-1.51q.06-.1.14-.08" opacity=".3"/><path fill="#fff" stroke="#fff" stroke-linejoin="round" stroke-width="2.99" d="M56.1 77.89c-11.5.01-19.12.94-19.12.94s42.08-2.02 75.8 11.63c1.14 5.13 4.59 13.66 6.44 17.77-5.3 3.67-11.3 7.13-12.23 19.38-.94 12.25 9.6 23.02 22.66 23.36 12.4.66 20.97.75 31.36 6.13 9.91 5.49 18.04 22.19 18.84 37.21.87-11.14-3.31-35.11-22.83-42.4 27.28 4.78 29.68 25 29.68 25s2.04-23.34-34.64-28.72a120 120 0 0 0-16.47-1.22c-29.4.39-30.46-33.9-8.31-35.63 9.18-.76 20.13 4.2 30.85 9.18-.04 1.33.02 2.52.89 3.6.87 1.1 4.23 2.3 5.3 2.9 1.08.63 4.51 2.81 6.62 5.55.46-.85 4.27-3.34 4.27-3.34s-.91.02-3.04-.77a16 16 0 0 1-4.7-3.34c-.07-.14-.1-.36.39-.45.38-.32-.48-1.36-.85-1.73-.38-.38-2.9-4.67-2.96-4.77s-.08-.2-.26-.32c-.56-.18-3 .26-3 .26s-3.76-1.85-5.06-5.83c.02.7-.64 1.46 0 3.06-1.95-.82-3.64-2.24-4.97-5.73-.79 1.98 0 3.25 0 3.25s-4.6-1.3-5.35-5.55c-.8 1.91 0 3.06 0 3.06s-7.52-3.92-20.02-3.98c-8.37-.77-10.1-15.49-9.33-17.97 0 0-12.07-6.36-35.83-9.17a205 205 0 0 0-24.13-1.37Zm27.84 12.7q-5.44.03-11.59.45c-21.78 1.55-43.76 9.17-43.76 9.17s44.99-11.32 82.72-4.67l-.98-3.17s-10.7-1.9-26.38-1.78Zm26.68 6.74c-3.8-.01-15.63.47-33.42 6.03-22.32 6.99-34.97 16.88-34.97 16.88s33.26-18.57 70.8-19.62l-1.08-3.25zm24.44-.05c10.3 4.19 19.27 9.74 26.23 17.39l1.68-.11s-9.58-11.62-27.91-17.28Zm28.4 22.34 2.05 1.5c.26-.44 1.3 2.38 1.93 3.16.02.15-1.05 1.4-1.42 1.33-.03-.16-1.7-.64-1.7-.64s-1.9-1.14-2.16-1.52c-.27-.37 1.17-3.59 1.3-3.83Z"/><path fill="#fff" d="M56.1 77.89c-11.5.01-19.12.94-19.12.94s42.08-2.02 75.8 11.63c1.14 5.13 4.59 13.66 6.44 17.77-5.3 3.67-11.3 7.13-12.23 19.38-.94 12.25 9.6 23.02 22.66 23.36 12.4.66 20.97.75 31.36 6.13 9.91 5.49 18.04 22.19 18.84 37.21.87-11.14-3.31-35.11-22.83-42.4 27.28 4.78 29.68 25 29.68 25s2.04-23.34-34.64-28.72a120 120 0 0 0-16.47-1.22c-29.4.39-30.46-33.9-8.31-35.63 9.18-.76 20.13 4.2 30.85 9.18-.04 1.33.02 2.52.89 3.6.87 1.1 4.23 2.3 5.3 2.9 1.08.63 4.51 2.81 6.62 5.55.46-.85 4.27-3.34 4.27-3.34s-.91.02-3.04-.77a16 16 0 0 1-4.7-3.34c-.07-.14-.1-.36.39-.45.38-.32-.48-1.36-.85-1.73-.38-.38-2.9-4.67-2.96-4.77s-.08-.2-.26-.32c-.56-.18-3 .26-3 .26s-3.76-1.85-5.06-5.83c.02.7-.64 1.46 0 3.06-1.95-.82-3.64-2.24-4.97-5.73-.79 1.98 0 3.25 0 3.25s-4.6-1.3-5.35-5.55c-.8 1.91 0 3.06 0 3.06s-7.52-3.92-20.02-3.98c-8.37-.77-10.1-15.49-9.33-17.97 0 0-12.07-6.36-35.83-9.17a205 205 0 0 0-24.13-1.37m27.84 12.7q-5.44.03-11.59.45c-21.78 1.55-43.76 9.17-43.76 9.17s44.99-11.32 82.72-4.67l-.98-3.17s-10.7-1.78-26.38-1.78m26.68 6.74c-3.8-.01-15.63.47-33.42 6.03-22.32 6.99-34.97 16.88-34.97 16.88s33.26-18.57 70.8-19.62l-1.08-3.25zm24.44-.05c10.3 4.19 19.27 9.74 26.23 17.39l1.68-.11s-9.58-11.62-27.91-17.28m29.16 24.11c.34.07.97 1.31 1.55 2.2l.15.21v.02l.2.27c.03.18.08.3-.35.2-.04-.19-.1-.24-.1-.24s-1.05-.63-1.37-1.07-.38-1.22-.22-1.5q.06-.11.14-.09"/></g></g><defs><clipPath id="a"><path fill="#fff" d="M0 0h256v256H0z"/></clipPath><clipPath id="b"><path fill="#fff" d="M28 28h200v200H28z"/></clipPath><linearGradient id="c" x1="98.33" x2="144.69" y1="166.42" y2="120.06" gradientUnits="userSpaceOnUse"><stop stop-color="#249EFF"/><stop offset="1" stop-color="#2777FF"/></linearGradient></defs></svg>