<svg xmlns="http://www.w3.org/2000/svg" width="256" height="256" fill="none" viewBox="0 0 256 256"><rect width="256" height="256" fill="#326CE5" rx="60"/><path fill="#fff" stroke="#fff" stroke-width=".11" d="M128.07 30a6 6 0 0 0-5.59 6.31v1.6q.25 2.74.79 5.41.78 5.13.56 10.32a6 6 0 0 1-1.86 2.95l-.13 2.4q-5.18.44-10.26 1.6a73 73 0 0 0-37.15 21.2l-2.05-1.45a4.4 4.4 0 0 1-3.37-.35 53 53 0 0 1-7.66-6.9 47 47 0 0 0-3.72-3.98l-1.27-1a7 7 0 0 0-3.95-1.5 5.5 5.5 0 0 0-4.53 2.02 6 6 0 0 0 1.4 8.39l1.18.93q2.28 1.52 4.7 2.76a49 49 0 0 1 8.52 5.97c.68.97 1.07 2.1 1.14 3.28l1.86 1.7a73.5 73.5 0 0 0-11.59 51.26l-2.39.68a8 8 0 0 1-2.44 2.46q-5 1.33-10.19 1.68-2.74.05-5.46.42l-1.5.34h-.18a5.72 5.72 0 0 0-.58 11.2c1.03.24 2.1.2 3.12-.13h.1l1.54-.17a46 46 0 0 0 5.1-1.86 53 53 0 0 1 9.92-2.9c1.18.07 2.3.47 3.26 1.15l2.56-.42a74 74 0 0 0 32.77 40.98l-1.05 2.17c.48 1 .66 2.11.52 3.21a55 55 0 0 1-5.15 9.32A48 48 0 0 0 82 215.6l-.73 1.53a5.72 5.72 0 0 0 5.55 8.55 5.7 5.7 0 0 0 4.72-3.7l.7-1.44q.98-2.56 1.64-5.2c1.51-3.74 2.33-7.74 4.4-10.21a4.6 4.6 0 0 1 2.44-1.2l1.28-2.33a73.6 73.6 0 0 0 52.44.13l1.13 2.18c1.17.17 2.2.8 2.9 1.75q2.4 4.59 3.9 9.55.68 2.66 1.65 5.22l.71 1.45a5.72 5.72 0 0 0 10.13 1.12 5.7 5.7 0 0 0 .14-5.99l-.75-1.53a47 47 0 0 0-3.05-4.53 61 61 0 0 1-5.12-9.02 4.4 4.4 0 0 1 .58-3.42q-.54-1.1-.95-2.29a74 74 0 0 0 32.62-41.13l2.43.43a4.5 4.5 0 0 1 3.18-1.18c3.39.65 6.7 1.7 9.91 2.9q2.51 1.15 5.1 1.97c.42.1 1.01.2 1.47.31h.12a5.71 5.71 0 1 0 2.53-11.07l-1.66-.39a48 48 0 0 0-5.46-.43 52 52 0 0 1-10.18-1.68 6.4 6.4 0 0 1-2.46-2.45l-2.3-.69a73.8 73.8 0 0 0-11.83-51.13l2.01-1.86a4.5 4.5 0 0 1 1.06-3.23 54 54 0 0 1 8.45-5.94q2.44-1.24 4.7-2.76l1.25-1a5.72 5.72 0 1 0-7.07-8.88l-1.26 1a48 48 0 0 0-3.73 3.97 53 53 0 0 1-7.45 7.02c-1.1.45-2.29.58-3.45.38l-2.16 1.53a74.6 74.6 0 0 0-47.23-22.78c0-.85-.1-2.13-.12-2.53a4.5 4.5 0 0 1-1.86-2.84q-.18-5.18.64-10.3.55-2.68.79-5.4v-1.7a6 6 0 0 0-5.6-6.32zm-7.11 44.08-1.71 29.8h-.13a5.1 5.1 0 0 1-2.83 4.3 4.8 4.8 0 0 1-5.12-.45L86.72 90.4a58.5 58.5 0 0 1 28.19-15.35q3-.64 6.03-.97zm14.23 0a59 59 0 0 1 34.05 16.42l-24.22 17.2a5.02 5.02 0 0 1-8.14-3.85zm-57.34 27.54 22.35 19.95v.12a5.02 5.02 0 0 1-1.97 8.61v.09l-28.68 8.25a58.5 58.5 0 0 1 8.3-37.03Zm100.29 0a59.6 59.6 0 0 1 8.55 36.92l-28.73-8.28v-.11a5 5 0 0 1-3.56-3.71c-.4-1.8.2-3.67 1.58-4.9l22.19-19.86zm-54.65 21.5h9.15l5.59 7.1-2.03 8.87-8.22 3.95-8.24-3.95-1.93-8.87zm29.3 24.22a4 4 0 0 1 1.15 0l29.59 4.99a58 58 0 0 1-23.68 29.8l-11.44-27.68a5.02 5.02 0 0 1 4.35-6.99zm-49.68.12a5.03 5.03 0 0 1 4.53 6.98v.11l-11.37 27.46a58.7 58.7 0 0 1-23.53-29.5l29.32-4.97q.5-.04 1 0zm24.78 11.95a5 5 0 0 1 4.58 2.63h.1l14.46 26.08-5.77 1.7a59 59 0 0 1-32.07-1.65l14.5-26.08a5 5 0 0 1 4.27-2.52z"/></svg>