<svg xmlns="http://www.w3.org/2000/svg" width="256" height="256" fill="none" viewBox="0 0 256 256"><rect width="256" height="256" fill="#242938" rx="60"/><path fill="#FF2D20" fill-rule="evenodd" d="M215.85 78.31q.1.37.1.75v39.2a2.9 2.9 0 0 1-1.42 2.48l-32.45 18.94v37.55c0 1.02-.53 1.96-1.4 2.48l-67.74 39.53q-.23.13-.49.2l-.19.09a3 3 0 0 1-1.44 0l-.22-.1q-.24-.07-.47-.19l-67.71-39.53a2.9 2.9 0 0 1-1.42-2.48V59.63q0-.38.1-.75l.1-.24q.07-.23.18-.44.09-.14.2-.26.1-.17.24-.33.13-.11.28-.21.15-.14.3-.25h.01l33.86-19.77a2.8 2.8 0 0 1 2.82 0l33.86 19.77q.17.11.32.24.14.1.27.22.14.16.25.33l.2.26q.1.21.18.44l.1.24q.1.37.1.75v73.45l28.2-16.47V79.06q0-.37.1-.75l.1-.24q.08-.23.19-.44l.19-.26.25-.33.28-.21q.15-.14.3-.25h.01l33.86-19.77a2.8 2.8 0 0 1 2.82 0l33.86 19.77q.17.11.32.24l.27.22q.14.16.25.33l.2.26.18.44zm-5.55 38.3V84l-11.85 6.92-16.37 9.55v32.6zm-33.86 58.96v-32.62l-16.1 9.33-45.98 26.6v32.93zm-129.8-111v111l62.08 36.24v-32.92l-32.43-18.6-.01-.02h-.02l-.3-.24-.27-.2v-.02q-.13-.14-.24-.3-.11-.13-.2-.27l-.01-.02q-.08-.16-.15-.35-.08-.16-.13-.33-.05-.2-.06-.42-.03-.15-.04-.32V81.04l-16.37-9.56-11.85-6.9zm31.04-21.4-28.2 16.46 28.2 16.47 28.2-16.47zm14.68 102.76 16.36-9.56v-71.8L96.87 71.5 80.5 81.05v71.8zm86.9-83.34-28.2 16.47 28.2 16.47 28.2-16.47zm-2.82 37.9-16.37-9.56L148.22 84v32.6l16.37 9.55 11.85 6.92zm-64.9 73.45 41.37-23.95 20.68-11.97-28.18-16.46-32.46 18.95-29.58 17.27z" clip-rule="evenodd"/></svg>