<svg xmlns="http://www.w3.org/2000/svg" width="256" height="256" fill="none" viewBox="0 0 256 256"><rect width="256" height="256" fill="#242938" rx="60"/><path fill="#fff" d="M67.9 193.68h-2.15c-.86 8.85-2.06 19.61-17.18 19.61h-6.96c-4.03 0-4.2-.6-4.2-3.47v-46.08c0-2.95 0-4.17 8.07-4.17h2.83v-2.6c-3.09.26-10.82.26-14.34.26-3.35 0-10.05 0-12.97-.26v2.6h1.98c6.6 0 6.78.96 6.78 4.08v45.57c0 3.12-.17 4.07-6.78 4.07H21v2.7h44.58z"/><path fill="#fff" d="M66.43 156.88c-.34-1.04-.51-1.39-1.63-1.39s-1.37.35-1.71 1.4l-13.83 35.4c-.6 1.48-1.63 4.17-6.96 4.17v2.17h13.31v-2.17c-2.66 0-4.3-1.22-4.3-2.95 0-.44.1-.61.27-1.22l2.92-7.46h17l3.44 8.85c.17.35.34.78.34 1.04 0 1.74-3.26 1.74-4.9 1.74v2.17h16.93v-2.17h-1.2c-4.04 0-4.47-.61-5.07-2.35zM63 163.04l7.64 19.62H55.36z"/><path fill="#fff" d="M135.23 157.49h-52.3l-1.55 19.44h2.06c1.2-13.97 2.5-16.84 15.46-16.84 1.55 0 3.78 0 4.64.18 1.8.34 1.8 1.3 1.8 3.3v45.56c0 2.95 0 4.16-9.02 4.16H92.9v2.7c3.52-.27 12.2-.27 16.14-.27 3.96 0 12.8 0 16.32.27v-2.7h-3.43c-9.02 0-9.02-1.21-9.02-4.16v-45.57c0-1.73 0-2.95 1.55-3.3.94-.17 3.26-.17 4.9-.17 12.88 0 14.16 2.87 15.37 16.84h2.14z"/><path fill="#fff" d="M181.27 213.2h-2.15c-2.15 13.29-4.12 19.62-18.81 19.62h-11.34c-4.03 0-4.2-.6-4.2-3.47v-23.09h7.64c8.33 0 9.27 2.78 9.27 10.16h2.15V193.5h-2.15c0 7.37-.94 10.06-9.27 10.06h-7.65v-20.74c0-2.86.18-3.47 4.21-3.47h11c13.14 0 15.37 4.77 16.75 16.84h2.14l-2.4-19.44h-48.1v2.6h1.97c6.62 0 6.79.95 6.79 4.08v45.3c0 3.13-.17 4.08-6.78 4.08h-1.98v2.7h49.3z"/><path fill="#fff" d="m207.12 182.57 11.77-17.36c1.8-2.77 4.72-5.55 12.36-5.64v-2.6h-20.44v2.6c3.44.09 5.33 2 5.33 4 0 .86-.17 1.04-.77 1.99l-9.8 14.58-10.99-16.66c-.17-.26-.6-.96-.6-1.3 0-1.05 1.89-2.52 5.5-2.6v-2.61c-2.92.26-9.2.26-12.46.26-2.66 0-7.99-.09-11.16-.26v2.6h1.63c4.72 0 6.35.6 7.99 3.04l15.71 24.04-14 20.92c-1.2 1.73-3.78 5.72-12.37 5.72v2.7h20.45v-2.7c-3.95-.08-5.41-2.43-5.41-3.99 0-.78.25-1.13.85-2.08l12.11-18.14 13.58 20.66c.17.34.42.69.42.95 0 1.04-1.88 2.52-5.58 2.6v2.7c3-.27 9.28-.27 12.46-.27 3.6 0 7.55.1 11.16.27v-2.7h-1.63c-4.47 0-6.27-.43-8.07-3.12z"/><path fill="teal" d="M66.77 20a48 48 0 0 0 4.72 7.05q-1.12-.16-2.32-.16-2.37 0-5.11.85c3.2 2.68 5.9 4.64 8.29 6.15a16 16 0 0 0-12.32.86 78 78 0 0 0 8.77 4.83c-3.9-.72-7.95-.4-12.36 2.52a83 83 0 0 0 7.67 3.01c-3.67.13-7.3 1.26-10.86 4.64a83 83 0 0 0 8.05 1.6 16 16 0 0 0-8.34 4.67q3.13.68 5.7 1.06a16.4 16.4 0 0 0-5.97 5.06q3.6.27 6.47.28a16 16 0 0 0-6.44 5.5c3.45.17 6.33.15 8.82 0a16 16 0 0 0-7.4 6.28c4.28.06 7.68-.15 10.53-.5a15.8 15.8 0 0 0-9.5 6.97c3.46.05 6.35-.08 8.84-.31a15.8 15.8 0 0 0-7.37 8.45c3.13-.6 5.75-1.23 8-1.9A16 16 0 0 0 59 94.65q3.13-.7 5.64-1.44a16 16 0 0 0-3.33 7.1 88 88 0 0 0 6-2.45 16 16 0 0 0-3.56 7.7c3.2-1.28 5.81-2.5 8-3.67a16 16 0 0 0-4.1 8.79c3.9-1.73 6.9-3.33 9.33-4.83a15.8 15.8 0 0 0-5.69 10.28c5.1-2.26 8.67-4.3 11.43-6.19a16 16 0 0 0-1.51 8.74 68 68 0 0 0 10.37-9.54c-.15 1.74-.03 3.63.49 5.73 3.54-6.08 7.05-7.86 10.7-9.89-5.8 2.92-4.94 5.12-4.94 7.67 4.42-4.66 10.59-9.6 12.47-12.7a29 29 0 0 0-4.21 10.55c-12.9 6.82-20.76 8.6-29.57 11.34 3.42 1.25 7.08 2.48 5.56 4.22l-4.03 4.02c2.58-.8 5.2-1.94 7.5-.38-.23 2.12-2.9 3.19-5.19 4.42 4.02-1.45 4.89-1.11 5.95-.77.53 2.53-1.3 3.9-2.5 5.57 10.13-7.7 23.34-13.78 32.65-16.32 13.09-4.4 29.96-9 34.55-20.17l4.6-18.43c5.39-5.82 10.34-11.86 12.69-19.2 14.98-2.9 27.1-1.85 39.74-1.53l-38.6-6.53c-10.94-14.98-27.25-4.8-32.62 10-1.36 3.72-9.1 3.72-11.34-.02-8.87-19.09-35.8-39.27-58.7-46.71"/><path fill="#fff" d="m155.18 59.07-.1.16a3.2 3.2 0 0 1-1.97 1.51q-1.4.44-3.48.34l-.87-.04.63.6c.32.32.4.56.41.78q0 .31-.3.7c-.4.53-1.23 1.1-2 1.68l-.26.18.18.25c.64.99.94 1.74 1 2.32.07.59-.06 1-.33 1.36-.54.72-1.72 1.21-2.78 1.81l-.2.1.05.24c.09.55-.06 1-.46 1.45q-.6.7-1.94 1.26l-.24.1.04.26c.18 1.18.53 2.22 1.28 2.87q1.03.9 3.03.5c.23 1.26.56 2.4 1.32 3.17.77.76 1.99.99 3.62.57q.57 1.31 1.52 1.93c.67.45 1.55.63 2.27.86l.43-.46a10 10 0 0 1-2.35-.96 3.4 3.4 0 0 1-1.36-1.83l-.1-.31-.31.1c-1.68.51-2.6.28-3.25-.36s-1-1.79-1.22-3.13l-.06-.35-.35.1c-1.38.36-2.2.17-2.76-.32-.52-.46-.83-1.27-1-2.28.8-.37 1.48-.78 1.93-1.28q.63-.77.59-1.73c.97-.54 2.15-1 2.83-1.91.36-.48.54-1.1.45-1.83a6 6 0 0 0-.96-2.35c.69-.5 1.44-1.01 1.91-1.61.26-.33.46-.7.45-1.12 0-.24-.22-.45-.35-.67 1.2.01 2.29-.07 3.19-.36q1.44-.46 2.18-1.63c1.42 0 2.89.32 4.37.51 1.53.2 3.08.25 4.55-.4l-.28-.6c-1.3.57-2.69.54-4.17.35s-3.03-.54-4.59-.53z"/><path fill="#fff" stroke="#fff" stroke-width=".66" d="M160.69 58.82a2.8 2.8 0 1 1-5.6 0 2.8 2.8 0 0 1 5.6 0Z"/><path fill="#fff" d="M169.04 56.2c-2.51 3.27-3.14 2.42-4.67 2.97l-.26.1.04.27c.6 3.29 2.54 4.33 4.05 5.52l.09-.26.4-.08c-1.52-1.2-3.18-2.2-3.79-5 1.11-.26 2.18.08 4.55-3.01zm-96.7-22.32c4.75 2.94 12.56 5.98 17.58 9.15a92 92 0 0 1 7.16 5.02c1.93 1.5 3.36 3.07 3.88 3.58.52.5.88.27.53-.4-.35-.66-2.07-2.19-4.01-3.72a92 92 0 0 0-7.21-5.04 82 82 0 0 0-17.93-8.6m-.85-6.82c1.99.46 4.93 2.16 8.2 3.97a152 152 0 0 1 17.84 11.83c1.9 1.63 2.85 2.68 3.22 2.68h.17a.4.4 0 0 0 .28-.2.4.4 0 0 0 .02-.3q-.02-.08-.06-.13a3 3 0 0 0-.51-.53 38 38 0 0 0-2.29-1.85 168 168 0 0 0-8.23-5.83A153 153 0 0 0 80 30.43c-1.17-.43-6.9-3.46-8.51-3.38m-2.72 12.53c6.1 2.48 14.76 5.4 20.54 9.04a92 92 0 0 1 7.84 5.55c1 .8 1.85 1.53 2.48 2.1s.97 1.1 1.18 1.25c.42.3.75.1.55-.38-.15-.35-.64-.77-1.28-1.35q-.97-.9-2.52-2.13a92 92 0 0 0-7.9-5.61c-6.25-3.98-13.74-7.47-20.89-8.47m-4.69 5.52c4.75 0 14.56 4.35 18.69 6.53 6.7 3.57 12.8 8.17 16.16 11.38.38.35.92.04.5-.46-3.13-3.62-9.6-7.9-16.35-11.5s-13.74-5.95-19-5.95m-2.74 6.26c7.14 1.04 15.7 3.92 21.92 7.04a74 74 0 0 1 8.96 5.34 29 29 0 0 1 4.57 4.05c.43.49.95.51.55-.35-.4-.87-2.33-2.56-4.74-4.26s-5.53-3.59-9.04-5.37c-7.01-3.56-15-6.36-22.22-6.46m2.36 5.32c-1.78-.16-3.37.2-5 .4 6.34-.59 15.21 2.33 21.12 5.05 6.96 3.26 12.74 7.74 15.51 10.6.44.44.74-.13.52-.42-2.58-3.3-8.72-7.5-15.75-10.8-5.28-2.46-11.08-4.37-16.4-4.83m-4.5 5.71c6.23.46 14.59 1.96 20.44 4.64a53 53 0 0 1 12.6 8.35c.34.31.95.1.47-.47-2.05-2.38-6.82-5.68-12.78-8.47a42.6 42.6 0 0 0-20.74-4.05m5.61 5.19c-1.32-.04-1.94.2-3.2.34 4.23.19 10.96 1.32 14.67 2.58a35 35 0 0 1 11.05 6.16c.43.38.76-.13.47-.45-2.11-2.37-6.4-4.64-11.3-6.34a41 41 0 0 0-11.7-2.29m-.18 6.15c9.06.6 14.53 2.2 18.73 5.96.31.28.8-.1.47-.47-4.3-4.67-12.78-5.97-19.2-5.5m6.98 5.44c-2.75-.22-5.05.38-7.55 1.21 7.32-1.16 10.37-.6 15.91 2 .63.3.6-.4.32-.57a19.5 19.5 0 0 0-8.69-2.64m-.26 5.1a12 12 0 0 0-6.61 2.6c7.25-2.8 9.25-2.24 14.8-.67.72.21.5-.5.21-.6a17 17 0 0 0-8.4-1.33m14.37 4.49c-3.87-.42-8.23.05-12.05.75s-7.11 2.11-8.97 3.62c6.36-2.68 7.52-2.68 9.09-2.97 3.76-.69 7.5-.96 11.89-.75.4.02.37-.61.04-.65m2.24 3.13c-4.19-.16-8.52.88-12.26 1.95s-6.53 2.53-8.36 4.02c3.7-1.78 7.16-3 8.53-3.4 3.7-1.05 7.42-1.96 12.13-1.9.37 0 .6-.65-.04-.67m3.42 2.58a69 69 0 0 0-11.7 2.97c-3.6 1.22-6.17 2.68-7.84 4.42a44 44 0 0 1 8.05-3.81 80 80 0 0 1 11.61-2.93c.57-.1.11-.69-.12-.65m2.01 3.29c-7.92 1.26-13.04 4.67-16.3 8.06 5.05-3.8 8.56-5.85 16.44-7.42.5-.1.35-.72-.14-.65m3.86 2.9c-7.96 1.22-12.56 6.06-14.47 9.26 5.04-5.03 8.96-7.77 14.6-8.61.58-.09.43-.74-.13-.65m2.4 2.52c-1.24.15-2.93 1.03-4.53 2.05a9 9 0 0 0-3.52 3.83 18 18 0 0 1 3.88-3.28 17 17 0 0 1 4.33-1.95c.59-.17.14-.69-.16-.65"/><path fill="#fff" stroke="#fff" stroke-width=".66" d="M160.69 58.82a2.8 2.8 0 1 1-5.6 0 2.8 2.8 0 0 1 5.6 0Z"/><path fill="#37C871" stroke="#fff" stroke-width=".66" d="M160.69 58.82a2.8 2.8 0 1 1-5.6 0 2.8 2.8 0 0 1 5.6 0Z"/></svg>