<svg xmlns="http://www.w3.org/2000/svg" width="256" height="256" fill="none" viewBox="0 0 256 256"><g clip-path="url(#a)"><path fill="#F4F2ED" d="M196 0H60A60 60 0 0 0 0 60v136a60 60 0 0 0 60 60h136a60 60 0 0 0 60-60V60a60 60 0 0 0-60-60"/><g clip-path="url(#b)"><path fill="url(#c)" d="M215.67 153.57c0 8.94-7.57 16.25-16.82 16.25H57.51c-9.25 0-16.82-7.31-16.82-16.25v-51.74c0-8.93 7.57-16.25 16.82-16.25h141.34c9.25 0 16.82 7.32 16.82 16.25z"/><mask id="d" width="200" height="85" x="28" y="85" maskUnits="userSpaceOnUse"><path fill="#fff" d="M28.07 85.38h199.91V170H28.07"/></mask><g mask="url(#d)"><path fill="#FAF9F8" fill-rule="evenodd" d="M219.44 116.24c0-6.33.99-10.07.99-16.89 0-10.56-3.94-13.97-12.64-13.97h-6.4v7.47h1.96c4.44 0 5.42 1.47 5.42 6.83 0 5.03-.5 10.06-.5 15.91 0 7.47 2.47 10.4 7.4 11.53v.5c-4.93 1.13-7.4 4.05-7.4 11.52 0 5.85.5 10.56.5 15.92 0 5.52-1.15 6.98-5.42 6.98v.16h-1.97v7.8h6.4c8.7 0 12.65-3.41 12.65-13.97 0-6.98-.99-10.55-.99-16.89 0-3.4 2.14-6.98 8.54-7.3v-8.45c-6.4-.17-8.54-3.74-8.54-7.15m-72.72 9.9c-5.1-1.94-9.7-3.08-9.7-6.33 0-2.43 1.98-3.9 5.6-3.9 3.6 0 6.89 1.47 10.5 4.07l6.56-8.61c-4.1-3.09-9.68-6.34-17.23-6.34-11.17 0-18.72 6.34-18.72 15.27 0 7.96 7.06 12.02 12.97 14.3 5.09 1.94 10.02 3.57 10.02 6.81 0 2.44-1.97 4.07-6.4 4.07-4.11 0-8.22-1.63-12.65-5.04l-6.4 9.42c4.92 4.06 12.48 6.82 18.71 6.82 13.14 0 20.2-6.82 20.2-15.75s-7.06-12.67-13.46-14.78m39.72 0c-4.92-1.94-9.52-3.08-9.52-6.33 0-2.43 1.97-3.9 5.58-3.9s6.9 1.47 10.51 4.07l6.57-8.61c-4.1-3.09-9.69-6.34-17.24-6.34-11.16 0-18.72 6.34-18.72 15.27 0 7.96 7.06 12.02 12.97 14.3 5.1 1.94 10.02 3.57 10.02 6.81 0 2.44-1.97 4.07-6.4 4.07-4.1 0-8.21-1.63-12.65-5.04l-6.56 9.42c4.92 4.06 12.47 6.82 18.71 6.82 13.14 0 20.2-6.82 20.2-15.75s-7.06-12.67-13.47-14.78m-97.51-.8c.98-6.5 4.92-9.59 9.52-9.59 5.9 0 8.2 4.06 8.2 9.59zm30.2 2.92c.17-13.15-7.05-23.39-20.85-23.39-11.98 0-23.47 9.91-23.14 25.5 0 16.08 10.67 25.5 24.79 25.5 5.9 0 12.47-2.11 17.56-5.52l-4.92-8.6a20.6 20.6 0 0 1-10.67 3.08c-6.57 0-11.66-3.09-12.97-10.56h29.71c.17-1.14.5-3.41.5-6.01" clip-rule="evenodd"/></g><mask id="e" width="200" height="85" x="28" y="85" maskUnits="userSpaceOnUse"><path fill="#fff" d="M28.07 85.38h199.91V170H28.07"/></mask><g mask="url(#e)"><path fill="#FAF9F8" fill-rule="evenodd" d="M74.32 144.5c-1.15 0-2.63-.97-2.63-4.06V85.38H48.38c-8.87 0-12.8 3.41-12.8 13.97 0 6.98.98 10.88.98 16.9 0 3.4-2.14 6.97-8.54 7.3V132c6.4.16 8.54 3.73 8.54 7.14 0 6.01-.99 9.58-.99 16.57 0 10.55 3.94 13.97 12.64 13.97h6.4v-7.48h-1.96c-4.1 0-5.42-1.62-5.42-6.98s.5-9.9.5-15.92c0-7.47-2.47-10.4-7.4-11.53v-.48c4.93-1.14 7.4-4.07 7.4-11.54 0-5.84-.5-10.55-.5-15.91s1.15-6.82 5.42-6.82h4.43v46.6c0 9.92 3.45 16.41 13.46 16.41 3.12 0 5.58-.49 7.39-1.13l-1.64-10.56c-.99.16-1.48.16-1.97.16" clip-rule="evenodd"/></g></g></g><defs><clipPath id="a"><path fill="#fff" d="M0 0h256v256H0z"/></clipPath><clipPath id="b"><path fill="#fff" d="M28 85h200v85H28z"/></clipPath><linearGradient id="c" x1="8789.49" x2="8789.49" y1="85.58" y2="8508.85" gradientUnits="userSpaceOnUse"><stop stop-color="#2E4F82"/><stop offset="1" stop-color="#182E4D"/></linearGradient></defs></svg>