<svg xmlns="http://www.w3.org/2000/svg" width="256" height="256" fill="none" viewBox="0 0 256 256"><rect width="256" height="256" fill="#fff" rx="60"/><rect width="256" height="256" fill="#0A66C2" rx="60"/><path fill="#fff" d="M184.72 217.69h29.27a4 4 0 0 0 4-4l.01-61.85c0-32.32-6.97-57.16-44.74-57.16a39.3 39.3 0 0 0-35.2 19.22.32.32 0 0 1-.6-.16v-12.08a4 4 0 0 0-4-4h-27.78a4 4 0 0 0-4 4v112.02a4 4 0 0 0 4 4h29.27a4 4 0 0 0 4-4v-55.37c0-15.66 2.97-30.82 22.38-30.82 19.14 0 19.38 17.91 19.38 31.83v54.37a4 4 0 0 0 4 4M38 59.63a21.73 21.73 0 0 0 21.63 21.62 21.73 21.73 0 0 0 21.63-21.63A21.73 21.73 0 0 0 59.63 38 21.73 21.73 0 0 0 38 59.63m6.96 158.06h29.3a4 4 0 0 0 4-4V101.66a4 4 0 0 0-4-4h-29.3a4 4 0 0 0-4 4v112.03a4 4 0 0 0 4 4"/></svg>