<svg xmlns="http://www.w3.org/2000/svg" width="256" height="256" fill="none" viewBox="0 0 256 256"><rect width="256" height="256" fill="#F4F2ED" rx="60"/><path fill="#ECEFF1" d="m85.95 199.93 24.53 13.62h37.1l34.7-26.06 15.55-40.86-35.9-43.22-10.17-24.28-49.66 1.77.6 13.62-9.57 17.77-14.96 29.01-2.99 24.28z"/><path fill="#263238" d="M187.06 114.66c-9.57-13.62-17.35-21.91-21.53-39.09-4.2-17.17 1.2-12.43-2.4-27.24a46 46 0 0 0-7.78-17.17c-3.59-4.14-7.77-6.51-10.17-7.1-5.38-2.96-17.95-7.7-33.5.59-16.16 8.29-14.36 26.05-11.37 62.17 0 2.37-.6 5.33-1.8 7.7-2.39 5.33-6.58 10.07-10.17 14.22-4.19 5.92-8.37 11.84-11.37 18.35-7.18 13.62-13.76 30.8-11.96 37.3 2.99-.58 40.68 56.26 40.68 57.45 2.4-.6 12.57-.6 21.54-.6 12.57-.59 19.75-1.18 29.92 1.19 0-1.78-.6-3.56-.6-5.33 0-3.55.6-6.51 1.2-10.66.6-2.96 1.2-5.92 1.8-9.47-6 5.32-16.76 11.25-26.93 13.02-8.98 1.78-23.93-1.18-31.12-10.06.6 0 1.8 0 2.4-.6 1.8-.59 3.59-1.18 4.19-2.36 1.8-2.97.6-5.93-.6-7.7s-10.17-8.3-14.36-11.84c-4.19-3.56-6.58-5.34-8.98-7.7l-4.78-4.74c-1.2-1.19-1.8-2.37-2.4-2.96-1.2-2.96-1.79-6.52-1.2-11.25.6-6.52 3-11.85 6-17.77 1.19-2.37 4.18-7.1 4.18-7.1s-10.17 24.87-4.79 32.57c0 0 .6-7.7 3-15.4 1.79-5.33 4.78-13.03 8.37-17.17 3.6-4.15 12.56-19.54 13.16-29.02 0-4.14.6-8.29.6-11.25-2.4-2.37 39.5-8.29 41.88-1.78.6 2.37 8.98 23.69 13.77 34.94 2.39 5.33 5.38 10.07 7.18 15.99 1.79 6.51 2.99 15.4 2.99 24.28 0 1.77 0 4.74-.6 7.7 1.2 0 24.53-24.87-3-45.6 0 0 16.76 7.7 17.36 23.1.6 12.43-4.79 22.5-5.99 24.27.6 0 12.57 5.33 13.17 5.33 2.4 0 7.18-1.78 7.18-1.78.6-1.77 2.39-6.5 2.39-8.28 4.19-13.62-5.98-35.53-15.56-49.15"/><path fill="#ECEFF1" d="M111.08 75.57c4.3 0 7.78-5.3 7.78-11.84s-3.49-11.84-7.78-11.84-7.78 5.3-7.78 11.84 3.48 11.84 7.78 11.84M138 76.76c5.62 0 10.17-6.1 10.17-13.62S143.62 49.52 138 49.52s-10.17 6.1-10.17 13.62 4.55 13.62 10.17 13.62"/><path fill="#212121" d="M115.42 64.54c-.5-3.9-2.76-6.82-5.05-6.53s-3.75 3.68-3.26 7.57 2.76 6.82 5.06 6.53 3.75-3.68 3.25-7.57m21.98 8.66c3.3 0 5.99-3.44 5.99-7.7 0-4.24-2.68-7.7-5.98-7.7s-5.99 3.46-5.99 7.7c0 4.26 2.68 7.7 5.99 7.7"/><path fill="#FFC107" d="M216.98 195.78c-2.4-1.18-6.58-2.96-10.17-8.29-1.8-2.96-1.2-11.25-4.19-14.8-1.8-2.37-4.19-1.19-4.79-1.19-5.38 1.19-17.95 9.48-26.32 0-1.2-1.18-3-2.96-5.98-2.96-3 0-4.2 1.19-5.39 3.56-1.2 2.36-1.2 4.14-1.2 10.06 0 4.74 0 10.07-.6 14.21-1.2 10.07-2.99 16-2.99 21.91 0 6.52 1.8 10.66 4.2 12.44 1.79 1.78 4.78 2.96 11.36 2.96s10.77-2.37 14.96-6.52c2.99-2.95 5.38-4.14 13.76-10.06 6.58-4.15 16.75-9.48 18.55-11.25 1.2-1.19 2.99-1.78 2.99-5.33 0-2.96-2.4-4.15-4.19-4.74m-120.26 1.78c-5.98-9.48-6.58-11.25-10.77-17.18-3.6-5.92-11.37-17.17-16.16-17.17-3.59 0-5.38 1.78-7.77 4.15-2.4 2.37-4.79 7.7-8.98 10.66-3.59 2.96-13.76 2.36-16.15 5.92-2.4 3.55 2.4 8.88 2.4 17.76 0 3.56-3 5.92-3.6 8.3-.6 2.95-1.2 4.73 0 7.1 2.4 3.55 5.39 4.74 25.73 8.88 10.77 2.37 20.94 8.3 27.52 8.88 6.58.6 17.95 0 17.95-15.99.6-9.47-4.79-11.84-10.17-21.31m11.37-107.18c-3.6-2.37-6.59-4.74-6.59-8.3 0-3.55 2.4-4.73 5.99-7.69.6-.6 7.18-6.51 13.76-6.51s14.36 4.14 17.35 5.33c5.39 1.18 10.77 2.36 10.17 6.5-.6 5.93-1.2 7.11-7.18 10.08-4.19 1.18-11.96 7.7-17.35 7.7-2.4 0-5.98 0-8.37-.6-1.8-.6-4.8-3.55-7.78-6.51"/><path fill="#634703" d="M106.89 85.64c1.2 1.18 3 2.37 4.79 2.96 1.2.6 2.99 1.19 2.99 1.19h5.38c3 0 7.18-1.19 11.37-3.56 4.19-1.77 4.79-2.96 7.78-4.14 3-1.78 5.98-3.56 4.79-4.15s-2.4 0-6.59 2.37c-3.59 2.37-6.58 3.55-10.17 5.33-1.8.6-4.19 1.78-5.98 1.78h-5.39c-1.79 0-2.99-.6-4.78-1.19-1.2-.59-1.8-1.18-2.4-1.18-1.2-.6-3.59-2.96-4.78-3.55 0 0-1.2 0-.6.59zm17.95-13.03c.6 1.19 1.8 1.19 2.4 1.78s1.19.6 1.19.6c.6-.6 0-1.78-.6-1.78 0-1.19-2.99-1.19-2.99-.6m-9.57 1.19c0 .59 1.2 1.18 1.2.59.6-.6 1.19-1.18 1.79-1.18 1.2-.6.6-1.19-1.2-1.19-1.2.6-1.2 1.19-1.8 1.78"/><path fill="#455A64" d="M173.3 178.6v1.78c1.2 2.37 4.2 2.97 6.58 2.97 3.6 0 7.18-2.37 8.98-4.74 0-.6.6-1.19 1.2-1.78 1.2-1.77 1.8-2.96 2.39-3.55 0 0-.6-.6-.6-1.19-.6-1.18-2.4-2.36-4.79-2.96a27 27 0 0 0-5.98-1.18c-5.38-.6-8.37 1.18-10.17 2.96 0 0 .6 0 .6.6a5.4 5.4 0 0 1 1.8 4.14c.6 1.18 0 1.77 0 2.96"/></svg>