<svg xmlns="http://www.w3.org/2000/svg" width="256" height="256" fill="none" viewBox="0 0 256 256"><rect width="256" height="256" fill="#242938" rx="60"/><g clip-path="url(#a)"><path fill="navy" d="M204.45 128.02A76.5 76.5 0 0 0 128 51.57a76.5 76.5 0 0 0-76.45 76.45A76.5 76.5 0 0 0 128 204.47a76.5 76.5 0 0 0 76.45-76.45"/><path fill="#fff" d="M182.07 96.34a22.4 22.4 0 0 0-44.78 0 22.4 22.4 0 0 0 22.39 22.39 22.4 22.4 0 0 0 22.39-22.39"/><path fill="navy" d="M226.84 51.55a22.4 22.4 0 0 0-44.77 0 22.4 22.4 0 0 0 44.77 0"/><path fill="#fff" d="M82.5 160.59h24.78v5.64H76.11v-50.16h6.4zm54.37 5.64v-5.03c-3.38 4.75-6.74 6.6-12.04 6.6-7.01 0-11.49-3.84-11.49-9.83v-27.8h5.7v25.54c0 4.33 2.9 7.1 7.44 7.1 5.98 0 9.84-4.82 9.84-12.2v-20.43h5.7v36.05zm47.08.97c-1.86.48-2.75.6-3.93.6-3.72 0-5.52-1.64-5.92-5.3-4.05 3.73-7.7 5.3-12.25 5.3-7.28 0-11.82-4.1-11.82-10.65q.01-7.06 6.33-9.63c2.2-.9 3.44-1.17 11.55-2.2 4.55-.55 5.98-1.59 5.98-4v-1.51c0-3.45-2.89-5.37-8.04-5.37-5.37 0-7.99 1.99-8.47 6.4h-5.79c.15-3.57.82-5.64 2.47-7.5 2.4-2.68 6.74-4.2 11.97-4.2 8.88 0 13.56 3.44 13.56 9.84v21.2c0 1.8 1.1 2.84 3.1 2.84.34 0 .62 0 1.25-.15zm-10.06-18.8c-1.92.89-3.17 1.16-9.23 1.99-6.12.88-8.68 2.83-8.68 6.6 0 3.66 2.62 5.8 7.1 5.8 3.38 0 6.19-1.1 8.53-3.24 1.71-1.58 2.28-2.74 2.28-4.69z"/><path stroke="gray" stroke-dasharray="8.63 8.63" stroke-miterlimit="10" stroke-width="2.29" d="M216.09 83.12A99 99 0 0 1 226.86 128c0 54.57-44.29 98.86-98.86 98.86S29.14 182.57 29.14 128 73.43 29.14 128 29.14a99 99 0 0 1 49.88 13.5"/></g><defs><clipPath id="a"><path fill="#fff" d="M28 28h200v200H28z"/></clipPath></defs></svg>