<svg xmlns="http://www.w3.org/2000/svg" width="256" height="256" fill="none" viewBox="0 0 256 256"><rect width="256" height="256" fill="#F4F2ED" rx="60"/><path fill="#2B90D9" d="M218.32 148.04c-2.76 14-24.8 29.33-50.09 32.3-13.2 1.55-26.18 2.97-40.03 2.35a239 239 0 0 1-40.52-5.32q0 3.26.4 6.16c2.95 21.99 22.17 23.3 40.38 23.92 18.37.62 34.74-4.46 34.74-4.46l.75 16.34s-12.85 6.79-35.75 8.04c-12.63.68-28.3-.31-46.56-5.07-39.6-10.3-46.42-51.82-47.46-93.95-.32-12.5-.12-24.3-.12-34.16 0-43.07 28.7-55.7 28.7-55.7 14.47-6.53 39.3-9.28 65.1-9.49h.64c25.82.2 50.66 2.96 65.13 9.5 0 0 28.7 12.62 28.7 55.69 0 0 .36 31.78-4 53.85"/><path fill="#fff" d="M188.48 97.53v52.16h-21.01V99.07c0-10.68-4.57-16.1-13.7-16.1-10.1 0-15.16 6.43-15.16 19.14v27.7h-20.89v-27.7c0-12.7-5.06-19.13-15.15-19.13-9.14 0-13.7 5.41-13.7 16.09v50.62H67.86V97.53q0-16 8.3-25.4c5.72-6.26 13.2-9.47 22.5-9.47 10.75 0 18.89 4.06 24.27 12.19l5.24 8.63 5.23-8.63c5.38-8.13 13.53-12.2 24.28-12.2 9.3 0 16.78 3.22 22.5 9.49q8.3 9.4 8.3 25.4"/></svg>