<svg xmlns="http://www.w3.org/2000/svg" width="256" height="256" fill="none" viewBox="0 0 256 256"><rect width="256" height="256" fill="#F4F2ED" rx="60"/><path fill="#007FFF" fill-rule="evenodd" d="M192.03 157.67a5.2 5.2 0 0 0 2.62-4.5l.09-30.14a5.2 5.2 0 0 1 2.61-4.5l16.34-9.39a5.2 5.2 0 0 1 7.8 4.52v54.8a5.2 5.2 0 0 1-2.61 4.51l-61.66 35.42a5.2 5.2 0 0 1-5.18 0l-48.39-27.67a5.2 5.2 0 0 1-2.62-4.52v-27.63q0-.06.06-.04.06.03.07-.04v-.03q0-.03.03-.05l39.85-22.9q.05-.05-.02-.07l-.03-.02-.01-.03.08-27.08a5.2 5.2 0 0 0-7.81-4.53l-29.62 17.06a5.2 5.2 0 0 1-5.2 0L68.7 93.74a5.2 5.2 0 0 0-7.8 4.5v48.96a5.2 5.2 0 0 1-7.8 4.53l-16.48-9.43a5.2 5.2 0 0 1-2.63-4.53l.15-85.57a5.2 5.2 0 0 1 7.8-4.5l56.48 32.43a5.2 5.2 0 0 0 5.19 0l56.47-32.44a5.2 5.2 0 0 1 7.8 4.52v85.6a5.2 5.2 0 0 1-2.6 4.51l-29.58 17.03a5.22 5.22 0 0 0 .02 9.04l16.31 9.29a5.2 5.2 0 0 0 5.17-.01zm3.42-76.78a5.21 5.21 0 0 0 7.89 4.46l15.62-9.37a5.2 5.2 0 0 0 2.53-4.47v-19.1a5.22 5.22 0 0 0-7.88-4.46l-15.63 9.38a5.2 5.2 0 0 0-2.53 4.46z" clip-rule="evenodd"/></svg>