<svg xmlns="http://www.w3.org/2000/svg" width="256" height="256" fill="none" viewBox="0 0 256 256"><rect width="256" height="256" fill="#F4F4ED" rx="60"/><path fill="#49D" d="m33 133.19 53.8-21.74a140 140 0 0 1 18.36-19.91c4.45-2.36 12.82-1.08 28.15-20.12C148.16 52.86 152.88 37 159.83 37c11 0 19.1 23.76 31.39 59.74a780 780 0 0 0 30.78 80.8c-12.82-11.95-23.76-24.84-36.25-24.5-11.6.26-24.5 14.03-38.6 31.72-11.21 14.17-26.06 23.9-31.87 23.69 0 0-14.98-42.39-27.54-49.27a17.8 17.8 0 0 0-16.13 1.34L33 133.13z"/><path fill="url(#a)" d="M153.15 41.86c-4.52 6.08-9.99 17.21-19.84 29.57-15.33 19.03-23.63 17.75-28.15 20.11a133 133 0 0 0-18.36 19.91l22.27 16.27C127.97 101.94 138.1 74 146 55.9a92 92 0 0 1 7.15-14.04"/><path fill="url(#b)" d="M159.9 37c-14.72 0-24.77 77.49-79.11 120.76 15.26-2.5 28.49 35.37 34.56 50.69 27-4.59 48.6-56.23 70.4-55.42 12.49.47 23.43 12.56 36.25 24.5C192.7 115.98 179 37 159.9 37"/><defs><linearGradient id="a" x1="132.92" x2="120.84" y1="118.47" y2="79.45" gradientUnits="userSpaceOnUse"><stop stop-color="#512"/><stop offset=".23" stop-color="#523"/><stop offset=".36" stop-color="#534"/><stop offset=".51" stop-color="#645"/><stop offset=".66" stop-color="#568"/><stop offset=".84" stop-color="#29D"/></linearGradient><linearGradient id="b" x1="220.04" x2="98.54" y1="142.86" y2="113.03" gradientUnits="userSpaceOnUse"><stop offset=".08" stop-color="#C33"/><stop offset=".19" stop-color="#DE5239"/><stop offset=".31" stop-color="#F06E3E"/><stop offset=".42" stop-color="#FA8042"/><stop offset=".5" stop-color="#FE8643"/><stop offset=".58" stop-color="#FA7F42"/><stop offset=".7" stop-color="#EF6C3E"/><stop offset=".83" stop-color="#DC4C37"/><stop offset=".92" stop-color="#CF3633"/></linearGradient></defs></svg>