<svg xmlns="http://www.w3.org/2000/svg" width="256" height="256" fill="none" viewBox="0 0 256 256"><rect width="256" height="256" fill="#F4F2ED" rx="60"/><path fill="url(#a)" d="M53.33 27q-.53 1.24-.98 3.15l-.23 1-.21 1.08-.2 1.15-.2 1.23-.19 1.3-.17 1.38-.17 1.44-.15 1.51-.07.78-.13 1.61-.12 1.67-.11 1.73-.05.88 10.7 5.18c-.16-6.25.04-12.15.6-17.58l.12-.97-.08.88-.1 1.47-.03.7-.06 1.6-.02.9-.02 1.99v1.68l.03 1.83.03 1.3.07 2.1.06 1.49.08 1.55.04.8c2-1.62 4.38-3.75 6.87-6.08l1.66-1.59.84-.8 1.67-1.63 1.65-1.64 1.61-1.63 1.55-1.6a34 34 0 0 0-5.27-7.94l-.57-.6q-.56-.58-1.1-1.06l-.53-.45-.5-.42-.5-.37-.46-.34-.44-.3-.6-.37-.55-.3-.6-.3-.45-.2-.83-.3-.6-.18-.59-.17-.44-.11-.49-.11-.25-.05-.54-.1-.56-.08c-2.96-.37-6.78.02-8.42 3.89"/><path fill="url(#b)" d="M63.85 83.69q-.74-5.34-1.35-10.51-.49-4.29-.83-8.47l-.19-2.5v-.2q-.35-5.07-.48-9.92l-10.68-5.16-.03.66-.07 1.36q-.16 3.84-.21 8.14-.04 4.83.06 10.1.12 4.88.39 10.05.2 3.3.43 6.68l.2 2.6 14.29 7.24-.5-3.37z"/><path fill="url(#c)" d="m84.52 166.68.22.76 1.42 4.82.62 2.07.68 2.2.23.78.14.39 2.3 7.37c2.04-.42 4.52.34 7.15 1.49l1.06.47a11.7 11.7 0 0 0-7.8-4.24c8.74-5.83 14.5-13.35 13.7-22.32q-.14-1.2-.36-2.45c-.13 3.3-1.45 5.73-5.28 8.33l-.47.3c3.96-6.95 5.05-11.68 4.58-17.79q-.17-2.16-.56-4.64c-1.27 9.1-6.15 14.98-13.3 18.47z"/><path fill="url(#d)" d="m79.4 156-.9-3.4-1.83-6.9a673 673 0 0 1-4.97-20.35q-1.22-5.24-2.32-10.53l-.72-3.48-1.4-6.96c-.24-1.27-.47-2.5-.69-3.78q-.6-3.21-1.14-6.47l-.08-.35-14.2-7.25.04.45v.23c.3 3.22.57 6.49.95 9.77q.55 5 1.3 10.06.62 4.27 1.34 8.53l.3 1.72a205 205 0 0 0 4.8 20.3q.92 3.11 1.85 5.95l.55 1.6 1.13 3.16q2.05 5.54 4.49 10.78l14.36 7.28c-.76-2.64-1.47-5.33-2.25-8.05l-.4-1.52z"/><path fill="url(#e)" d="M68.1 159.56q2.6 5.56 5.71 10.73l1.16 1.87a16 16 0 0 0-4.76-.94l-.83-.05-.4-.01-.8-.02h-1.13l-1 .03-.84.05-1.18.1H64c7.27 2.51 13.63 5.6 17.65 10.27-1.6 1.76-4.58 3.1-8.34 4.19 2.8.3 4.93.18 6.46-.07l.63-.12.28-.06.52-.13.44-.13.54-.19.28-.11c-2.3 1.92-3.75 5.2-4.95 8.88l-.41 1.3-.2.67c3.05-5 6.08-8.3 9.03-9.56a941 941 0 0 0 11.3 34.7l1.95 5.64 2 5.7a4.3 4.3 0 0 0 .68-4.05l-1.34-3.78-1.52-4.42-2.36-7-1.93-5.88-2.14-6.63-2.04-6.46-1.88-6.06-1.38-4.54-1.12-3.74-.43-1.5-.43-1.4-1.2-4.18-1.24-4.3-.55-2-.02-.02-14.37-7.28q.05.18.12.34z"/><path fill="url(#f)" d="m67.05 94.06.25 1.4q.28 1.42.54 2.86l1.55 7.98.57 2.77.83 3.93.43 2q.64 2.97 1.36 6.06l.97 4.18.98 4.08.5 2.08 1.04 4.22 1.05 4.1a556 556 0 0 0 2.95 11.15l1.5 5.44 1.12 4 1.17 4.08.6 2.07q0 .13.06.22l4.34-4-.1.05-.24.11c5.14-4.85 9.55-14.59 10.56-23.35.46-4.04.42-8.34-.14-13.03-.4-3.5-1.11-7.17-2.09-11.15q-1.27-5.15-3.19-10.92a22 22 0 0 1-3.3 4.78l-.75.82-.26.27-.55.54c3.8-5.9 4.25-12.23 3.12-18.8a24 24 0 0 1-4.29 7.43q-.44.52-.96 1.03-.08.06-.17.16l-.1.08a26 26 0 0 0 3.02-6.95l.09-.43q.21-.98.35-1.97l.15-1.28q.08-1.13.03-2.31l-.1-1.45q0-.15-.04-.32l-.15-.92-.08-.44q-.45-2.58-.95-4.6l-.3-1.22-.3-1.03-.36-1.22-.47-1.43q-.07-.22-.16-.4l-.28-.73-.27-.6-.23-.5q-.06.3-.19.58l-.13.3c-.9 2.1-2.97 4.97-4.87 7q-.05.02-.07.09l-.39.4-.2.21.08-.14-13.65 12.5c.11.1.12.17.12.22"/><path fill="url(#g)" d="m61.77 51.84.2 3.12.17 2.21.09 1.15.2 2.38.11 1.22.03.4.04.19q.17 1.83.38 3.76l.3 2.64.35 2.75.57 4.28q.39 2.92.87 6.07l.25 1.6q.36 2.43.8 4.99l.9 5.26 13.65-12.5c2.85-5.16 3.47-8.37 3.43-12.35q-.01-1.2-.1-2.5l-.06-.86c-.22-3.5-.64-7.2-1.23-10.78a93 93 0 0 0-2.03-9.65 51 51 0 0 0-1.57-4.9q-.74-1.8-1.5-3.4l-1.55 1.58-.8.8-1.63 1.63-1.66 1.63-1.68 1.62-.83.8-1.66 1.54a131 131 0 0 1-6.04 5.32"/><path fill="url(#h)" d="M193.2 29.68q-.66.27-1.43.67l-.8.44q-.82.48-1.75 1.08l-.95.63-1 .7-1.05.76-1.1.81-.55.43-1.16.91-1.2.96-1.23 1.02-1.28 1.08-1.3 1.12-1.35 1.18-1.37 1.24q-.36.3-.7.63l4.5 12.68c4.87-5.2 9.76-9.82 14.56-13.77l1.69-1.37.12-.09-1.16.95-1.14.98-1.24 1.12-1.17 1.1-.98.94-.7.7-1.54 1.53-1.25 1.28-1.8 1.9-.96 1.03-1 1.1-1.56 1.73-1.1 1.23q1.7.16 3.66.28l2.02.1 2.11.1 2.2.06 2.24.05 2.29.03h1.14l2.3.01h1.14l2.27-.02 1.11-.02 2.18-.05c1.8-5.34 2.2-9.63 2.06-12.83l-.04-.81-.07-.77-.05-.36-.1-.69-.1-.63-.06-.3-.12-.57-.13-.5-.13-.47-.13-.41-.24-.67-.2-.46-.46-.96-.27-.52-.23-.4-.26-.44-.3-.47-.33-.5-.37-.51c-2.06-2.77-5.56-5.88-10.18-3.97"/><path fill="url(#i)" d="M156.63 83.68q3.65-4.9 7.26-9.53a271 271 0 0 1 15.56-18.18l-4.51-12.63-.54.5-1.14 1.04a272 272 0 0 0-10.56 10.36l-2.69 2.78-1.36 1.43a415 415 0 0 0-7.68 8.4q-2.48 2.8-4.95 5.72l-1.91 2.25L149.86 93l2.27-3.12z"/><path fill="url(#j)" d="m107.33 166.91-.86 1.58-2.26 4.22-1.14 2.16-1.2 2.3c-.23.42-.45.8-.64 1.24l-1.25 2.43-2.75 5.34c2.24 1.45 3.73 4.58 5.04 8.1.3-3.41-.62-6.8-2.9-9.62 11.67 2.25 22.29.78 28.76-7.09q.85-1.05 1.66-2.25c-2.74 2.57-5.74 3.47-10.9 2.5l-.6-.11c8.73-2.46 13.36-5.4 17.83-10.69a66 66 0 0 0 3.24-4.18c-8.25 6.31-16.86 7.17-25.37 4.3z"/><path fill="url(#k)" d="m111.24 155.04 2.42-4.25 4-7.01q2.93-5.05 5.99-10.14t6.19-10.2q3.2-5.19 6.5-10.3c2.16-3.39 4.4-6.76 6.6-10.1q1.19-1.79 2.44-3.59 2.08-3.06 4.22-6.11l.22-.35-5.68-17.13-.32.4-.18.2c-2.33 2.81-4.7 5.67-7 8.61a334 334 0 0 0-6.96 9.13q-2.86 3.94-5.7 7.93l-1.1 1.63a231 231 0 0 0-12.27 20.15 262 262 0 0 0-3.25 6.26c-.83 1.7-1.63 3.46-2.42 5.17a162 162 0 0 0-4.96 12.25l5.78 17.27 1.13-2.05 2.3-4.13 1.15-2.09z"/><path fill="url(#l)" d="M99.78 148.14a129 129 0 0 0-3.94 13.17l-.55 2.42a17 17 0 0 0-2.3-3.6l-.58-.7-.3-.34-.59-.66-.6-.62-.58-.6-.84-.8-.77-.7-.83-.74-.75-.62c3.84 7.8 6.52 15.34 6.04 22.3-2.69.14-6.15-1.16-10.04-3.27a29 29 0 0 0 4.5 4.52l.59.44.27.2.53.35.48.3.45.25.4.21.35.17.3.13.14.06c-3.26-.28-6.88 1.1-10.6 2.98l-1.25.65-1.26.68c6.43-1.6 11.5-1.85 14.88-.52a839 839 0 0 0-5.02 9.64l-2.52 4.99a1243 1243 0 0 0-11.56 23.55l-2.6 5.47-2.6 5.54a4.9 4.9 0 0 0 3.76-2.73l2.95-6.25 2.7-5.61 3.47-7.05 3.06-6.13 3.03-5.99 2.88-5.61 4-7.69 2.83-5.37.98-1.84.84-1.55.76-1.45 1.17-2.16 2.39-4.38 1.22-2.24 1.13-2.04v-.04l-5.77-17.27q-.11.19-.18.36z"/><path fill="url(#m)" d="m150.96 94.58-.9 1.32-1.85 2.74-2.96 4.47-2.12 3.18-.54.82-2.42 3.76-2.48 3.88q-2.46 3.87-4.99 8l-1.27 2.1c-2.03 3.32-4.12 6.8-6.22 10.35l-2.42 4.13a635 635 0 0 0-5.92 10.33l-3.68 6.56-1.13 2.04-2.29 4.17-2.44 4.49 6.67.23-.4-.14c8 .17 19.28-4.16 27.06-10.42A63 63 0 0 0 150.9 146a102 102 0 0 0 7.17-10.62q3.08-5.17 6.11-11.33-2.9 1-6.46 1.21l-1.25.07-.85.01h-.44c7.73-1.72 13.13-6.46 17.44-12.65a27 27 0 0 1-9.35 2.58q-.77.06-1.6.06-.11-.02-.25-.01l-.16-.01a30 30 0 0 0 7.96-3.2l.41-.27q.95-.62 1.86-1.31l1.13-.92q1.3-1.11 2.44-2.5l.5-.57.21-.29.61-.86.29-.42a76 76 0 0 0 2.94-4.55l.35-.58q.66-1.14 1.18-2.11l.4-.77.62-1.25.34-.73.18-.42.3-.76q.14-.34.24-.64l.08-.27q-.27.17-.6.32l-.33.12c-2.4.98-6.36 1.65-9.5 1.77q-.05-.01-.12.02h-.63l-.33.03.17-.06-20.92-.78q.01.24-.08.28"/><path fill="url(#n)" d="m180.26 56.38-2.32 2.67-1.63 1.91-1.69 2.02-2.04 2.47-.12.18a291 291 0 0 0-3.6 4.5l-1.88 2.42-.96 1.26-2.7 3.57-1.77 2.37q-1.34 1.8-2.73 3.73l-.94 1.3-2.84 3.97-1.94 2.77-2 2.86 20.93.79c6.39-1.9 9.44-3.98 12.57-7.22a62 62 0 0 0 1.9-2.09l.64-.74c2.6-2.99 5.2-6.3 7.57-9.66 2.3-3.23 4.4-6.46 6.03-9.38a58 58 0 0 0 2.63-5.19 63 63 0 0 0 1.5-3.93l-2.17.03-2.23.03h-4.57l-1.14-.01-2.28-.04-2.25-.05q-.56 0-1.1-.03l-2.16-.08-1.04-.04-2.02-.11q-1.96-.12-3.65-.28"/><defs><linearGradient id="a" x1="55.99" x2="90.69" y1="41.49" y2="30.18" gradientUnits="userSpaceOnUse"><stop stop-color="#F69923"/><stop offset=".31" stop-color="#F79A23"/><stop offset=".84" stop-color="#E97826"/></linearGradient><linearGradient id="b" x1="53.25" x2="95.82" y1="231.88" y2="62.87" gradientUnits="userSpaceOnUse"><stop offset=".32" stop-color="#9E2064"/><stop offset=".63" stop-color="#C92037"/><stop offset=".75" stop-color="#CD2335"/><stop offset="1" stop-color="#E97826"/></linearGradient><linearGradient id="c" x1="91.43" x2="119.4" y1="226.55" y2="90.36" gradientUnits="userSpaceOnUse"><stop stop-color="#282662"/><stop offset=".1" stop-color="#662E8D"/><stop offset=".79" stop-color="#9F2064"/><stop offset=".95" stop-color="#CD2032"/></linearGradient><linearGradient id="d" x1="60.55" x2="122.45" y1="222.64" y2="72.12" gradientUnits="userSpaceOnUse"><stop offset=".32" stop-color="#9E2064"/><stop offset=".63" stop-color="#C92037"/><stop offset=".75" stop-color="#CD2335"/><stop offset="1" stop-color="#E97826"/></linearGradient><linearGradient id="e" x1="76.02" x2="125.86" y1="215.68" y2="153.58" gradientUnits="userSpaceOnUse"><stop stop-color="#282662"/><stop offset=".1" stop-color="#662E8D"/><stop offset=".79" stop-color="#9F2064"/><stop offset=".95" stop-color="#CD2032"/></linearGradient><linearGradient id="f" x1="79.86" x2="125.37" y1="248.89" y2="33.48" gradientUnits="userSpaceOnUse"><stop offset=".32" stop-color="#9E2064"/><stop offset=".63" stop-color="#C92037"/><stop offset=".75" stop-color="#CD2335"/><stop offset="1" stop-color="#E97826"/></linearGradient><linearGradient id="g" x1="66.76" x2="109.58" y1="302.14" y2="52.84" gradientUnits="userSpaceOnUse"><stop offset=".32" stop-color="#9E2064"/><stop offset=".63" stop-color="#C92037"/><stop offset=".75" stop-color="#CD2335"/><stop offset="1" stop-color="#E97826"/></linearGradient><linearGradient id="h" x1="180.3" x2="225.33" y1="45.93" y2="33.93" gradientUnits="userSpaceOnUse"><stop stop-color="#F69923"/><stop offset=".31" stop-color="#F79A23"/><stop offset=".84" stop-color="#E97826"/></linearGradient><linearGradient id="i" x1="113.92" x2="205.54" y1="239.48" y2="71.61" gradientUnits="userSpaceOnUse"><stop offset=".32" stop-color="#9E2064"/><stop offset=".63" stop-color="#C92037"/><stop offset=".75" stop-color="#CD2335"/><stop offset="1" stop-color="#E97826"/></linearGradient><linearGradient id="j" x1="88.54" x2="129.91" y1="203.46" y2="133.97" gradientUnits="userSpaceOnUse"><stop stop-color="#282662"/><stop offset=".1" stop-color="#662E8D"/><stop offset=".79" stop-color="#9F2064"/><stop offset=".95" stop-color="#CD2032"/></linearGradient><linearGradient id="k" x1="104.58" x2="197.49" y1="227.59" y2="70.31" gradientUnits="userSpaceOnUse"><stop offset=".32" stop-color="#9E2064"/><stop offset=".63" stop-color="#C92037"/><stop offset=".75" stop-color="#CD2335"/><stop offset="1" stop-color="#E97826"/></linearGradient><linearGradient id="l" x1="82.4" x2="133.36" y1="213.61" y2="137.79" gradientUnits="userSpaceOnUse"><stop stop-color="#282662"/><stop offset=".1" stop-color="#662E8D"/><stop offset=".79" stop-color="#9F2064"/><stop offset=".95" stop-color="#CD2032"/></linearGradient><linearGradient id="m" x1="80.94" x2="188.05" y1="227.74" y2="56.1" gradientUnits="userSpaceOnUse"><stop offset=".32" stop-color="#9E2064"/><stop offset=".63" stop-color="#C92037"/><stop offset=".75" stop-color="#CD2335"/><stop offset="1" stop-color="#E97826"/></linearGradient><linearGradient id="n" x1="81.3" x2="149.89" y1="159.73" y2="46.67" gradientUnits="userSpaceOnUse"><stop offset=".32" stop-color="#9E2064"/><stop offset=".63" stop-color="#C92037"/><stop offset=".75" stop-color="#CD2335"/><stop offset="1" stop-color="#E97826"/></linearGradient></defs></svg>