<svg xmlns="http://www.w3.org/2000/svg" width="256" height="256" fill="none" viewBox="0 0 256 256"><g clip-path="url(#a)"><path fill="#F4F2ED" d="M196 0H60A60 60 0 0 0 0 60v136a60 60 0 0 0 60 60h136a60 60 0 0 0 60-60V60a60 60 0 0 0-60-60"/><g clip-path="url(#b)"><path fill="#fff" d="M127.5 215a87.5 87.5 0 1 0 0-175 87.5 87.5 0 0 0 0 175"/><path fill="#69B53F" d="M127.5 201.33a73.83 73.83 0 1 0 0-147.66 73.83 73.83 0 0 0 0 147.66"/><path fill="#F8F8F8" d="M79.65 83.07v61.52a27.43 27.43 0 0 0 27.34 27.34h41.02a27.43 27.43 0 0 0 27.34-27.34v-34.18a20.66 20.66 0 0 0-20.5-20.5c-5.06 0-9.92 1.9-13.68 5.4a20.7 20.7 0 0 0-13.67-5.4 20.66 20.66 0 0 0-20.5 20.5v34.18h13.66v-34.18a6.86 6.86 0 0 1 6.84-6.84 6.86 6.86 0 0 1 6.84 6.84v34.18H148v-34.18a6.86 6.86 0 0 1 6.83-6.84 6.86 6.86 0 0 1 6.84 6.84v34.18a13.6 13.6 0 0 1-13.47 13.67H107a13.6 13.6 0 0 1-13.67-13.47V83.07z"/></g></g><defs><clipPath id="a"><path fill="#fff" d="M0 0h256v256H0z"/></clipPath><clipPath id="b"><path fill="#fff" d="M40 40h175v175H40z"/></clipPath></defs></svg>