<svg xmlns="http://www.w3.org/2000/svg" width="256" height="256" fill="none" viewBox="0 0 256 256"><rect width="256" height="256" fill="#242938" rx="60"/><path fill="#86B300" d="M50.23 54q-4.54 0-8.62 1.54a24.7 24.7 0 0 0-12.08 9.45A25.4 25.4 0 0 0 25 79.72v96.3q0 10.56 7.33 18.25 7.55 7.48 17.9 7.48 10.57 0 17.9-7.48a25.2 25.2 0 0 0 7.55-18.25v-17.5c.05-3.8 3.88-2.8 5.82 0 3.63 6.4 11.32 11.9 20.27 11.86 8.96-.03 16.4-4.54 20.27-11.87 1.47-1.77 5.62-4.78 6.04 0v17.51q0 10.56 7.33 18.25 7.55 7.48 17.9 7.48 10.57 0 17.9-7.48a25.2 25.2 0 0 0 7.55-18.25v-96.3q0-8.13-4.74-14.73a23.6 23.6 0 0 0-11.86-9.45 26 26 0 0 0-8.63-1.54q-11.64 0-19.62 9.23L108.3 93.8c-.58.44-2.48 3.8-6.53 3.8-4.04 0-5.73-3.36-6.3-3.8L69.63 63.23Q61.87 54 50.23 54m159.56 0q-9.06 0-15.53 6.6-6.25 6.38-6.25 15.6 0 9.24 6.25 15.84a21.3 21.3 0 0 0 15.53 6.37q9.05 0 15.52-6.37a21.8 21.8 0 0 0 6.47-15.83q0-9.24-6.47-15.61A21 21 0 0 0 209.8 54m.21 48.8q-9.06 0-15.53 6.6a21.8 21.8 0 0 0-6.46 15.83v54.31a21.8 21.8 0 0 0 6.47 15.83 21.3 21.3 0 0 0 15.52 6.38q9.06 0 15.31-6.38a21.8 21.8 0 0 0 6.47-15.83v-54.3a21.8 21.8 0 0 0-6.47-15.83 20.3 20.3 0 0 0-15.3-6.6"/></svg>