<svg xmlns="http://www.w3.org/2000/svg" width="256" height="256" fill="none" viewBox="0 0 256 256"><rect width="256" height="256" fill="#023430" rx="60"/><path fill="#10AA50" d="M171.17 107.6c-10.53-46.49-32.5-58.86-38.1-67.61A99 99 0 0 1 126.95 28c-.3 4.13-.84 6.73-4.35 9.86-7.05 6.29-36.98 30.68-39.5 83.49-2.34 49.24 36.2 79.6 41.3 82.74 3.91 1.93 8.68.04 11-1.73 18.59-12.75 43.98-46.75 35.8-94.77"/><path fill="#B8C4C2" d="M128.54 177.87c-.96 12.19-1.66 19.27-4.12 26.24 0 0 1.61 11.6 2.75 23.89h4.02q1.44-13 4.38-25.73c-5.2-2.56-6.82-13.7-7.03-24.4"/><path fill="#12924F" d="M135.57 202.28c-5.26-2.43-6.78-13.81-7.02-24.4a500 500 0 0 0 1.14-52.55c-.28-9.2.13-85.16-2.27-96.28a92 92 0 0 0 5.65 10.93c5.6 8.76 27.57 21.13 38.1 67.61 8.2 47.94-17.04 81.85-35.6 94.69"/></svg>