<svg xmlns="http://www.w3.org/2000/svg" width="256" height="256" fill="none" viewBox="0 0 256 256"><rect width="256" height="256" fill="#F4F2ED" rx="60"/><g clip-path="url(#a)"><path fill="#00678C" fill-rule="evenodd" d="M203.8 178.21c-9.79-.27-17.38.73-23.75 3.4-1.83.74-4.77.74-5.02 3.05.98.97 1.1 2.55 1.96 3.9 1.47 2.43 4.04 5.71 6.37 7.41l7.83 5.6c4.78 2.92 10.16 4.62 14.81 7.54 2.7 1.7 5.39 3.9 8.08 5.72 1.37.98 2.2 2.56 3.92 3.17v-.37c-.86-1.1-1.1-2.67-1.96-3.9l-3.67-3.52a58 58 0 0 0-12.73-12.29c-3.92-2.67-12.49-6.32-14.08-10.82l-.24-.28c2.69-.27 5.87-1.22 8.44-1.94 4.17-1.1 7.96-.86 12.24-1.95l5.88-1.7v-1.1c-2.2-2.18-3.8-5.1-6.12-7.17a163 163 0 0 0-20.2-14.97c-3.8-2.43-8.7-4.01-12.73-6.08-1.47-.73-3.92-1.1-4.78-2.3-2.2-2.68-3.43-6.21-5.02-9.38L153 119.06c-2.2-4.74-3.56-9.49-6.25-13.87-12.6-20.68-26.32-33.2-47.37-45.5-4.53-2.55-9.92-3.65-15.64-4.99l-9.19-.49c-1.96-.85-3.91-3.16-5.63-4.26-6.98-4.38-24.97-13.87-30.12-1.36-3.3 7.9 4.9 15.7 7.69 19.7 2.08 2.8 4.77 5.97 6.24 9.13.83 2.07 1.1 4.26 1.96 6.45 1.96 5.35 3.8 11.32 6.37 16.3a62 62 0 0 0 4.52 7.55c.98 1.37 2.7 1.95 3.06 4.14-1.71 2.43-1.83 6.08-2.81 9.13-4.41 13.74-2.7 30.78 3.55 40.9 1.96 3.04 6.58 9.73 12.85 7.18 5.51-2.2 4.28-9.13 5.88-15.21.37-1.46.12-2.44.85-3.41v.27l5.02 10.1c3.8 5.96 10.41 12.17 15.92 16.3 2.93 2.2 5.26 5.97 8.93 7.3v-.36h-.24c-.74-1.1-1.84-1.59-2.82-2.44a59 59 0 0 1-6.36-7.3 157 157 0 0 1-13.71-22.14c-1.96-3.77-3.68-7.9-5.26-11.68-.75-1.46-.75-3.65-1.97-4.37-1.83 2.67-4.52 4.99-5.88 8.27-2.32 5.23-2.56 11.68-3.42 18.37-.5.12-.27 0-.5.27-3.9-.97-5.26-4.99-6.72-8.4-3.68-8.63-4.3-22.5-1.1-32.48.85-2.55 4.53-10.58 3.06-13.01-.74-2.32-3.19-3.65-4.54-5.48a49 49 0 0 1-4.4-7.78c-2.94-6.82-4.4-14.36-7.59-21.17-1.47-3.17-4.04-6.45-6.12-9.37-2.33-3.29-4.9-5.6-6.73-9.5-.62-1.35-1.47-3.52-.5-4.98.25-.97.74-1.36 1.72-1.58 1.59-1.37 6.12.36 7.71 1.09 4.53 1.83 8.32 3.53 12.12 6.08 1.71 1.22 3.55 3.53 5.76 4.14h2.57c3.92.85 8.32.27 11.99 1.36a79 79 0 0 1 17.63 8.4 108 108 0 0 1 38.2 41.61c1.46 2.8 2.08 5.35 3.43 8.27 2.57 5.97 5.75 12.05 8.32 17.9 2.57 5.71 5.02 11.55 8.69 16.3 1.84 2.55 9.18 3.89 12.48 5.23 2.45 1.09 6.25 2.07 8.45 3.4 4.16 2.56 8.33 5.48 12.24 8.28 1.96 1.46 8.08 4.5 8.45 6.93zM78.96 72.49q-2.55-.02-5.02.6v.28h.24c.98 1.94 2.7 3.28 3.92 4.99l2.82 5.84.24-.27c1.72-1.22 2.58-3.17 2.58-6.08-.74-.86-.86-1.7-1.47-2.56-.74-1.22-2.33-1.83-3.31-2.8" clip-rule="evenodd"/></g><defs><clipPath id="a"><path fill="#fff" d="M38 38h180v180H38z"/></clipPath></defs></svg>