<svg xmlns="http://www.w3.org/2000/svg" width="256" height="256" fill="none" viewBox="0 0 256 256"><rect width="256" height="256" fill="#F4F2ED" rx="60"/><path fill="#E0234E" d="M146.73 18c-1.56 0-3 .34-4.34.8a12.5 12.5 0 0 1 5.17 7.41c.06.4.17.69.22 1.09q.1.51.12 1.02c.22 5.02-1.28 5.65-2.34 8.62a12.5 12.5 0 0 0 .78 11.23 7 7 0 0 0 .67 1.26c-2.12-14.43 9.61-16.6 11.78-21.1.17-3.94-3-6.57-5.5-8.4a12 12 0 0 0-6.56-1.93m17.67 3.25c-.22 1.31-.05.97-.1 1.66-.06.45-.06 1.02-.12 1.48q-.15.68-.39 1.37c-.1.45-.28.91-.44 1.37l-.61 1.3c-.17.24-.28.46-.45.7l-.33.5q-.42.61-.84 1.15c-.33.34-.6.74-1 1.02v.06c-.33.29-.66.63-1.05.91-1.17.92-2.5 1.6-3.73 2.46-.38.28-.77.5-1.1.85q-.58.42-1.06.91c-.4.35-.67.69-1 1.09-.28.34-.62.74-.84 1.14q-.43.6-.78 1.2c-.22.45-.38.85-.6 1.3-.17.46-.34.86-.45 1.32q-.24.75-.4 1.43c-.05.22-.05.51-.1.74s-.06.45-.11.68c0 .46-.06.97-.06 1.43q-.01.51.06 1.02 0 .68.16 1.43.1.68.28 1.37c.17.46.28.91.45 1.37.1.28.27.57.39.8l-12.79-5.08c-2.17-.63-4.28-1.2-6.45-1.71l-3.5-.86a101 101 0 0 0-10.11-1.54c-.12 0-.17-.05-.28-.05a97 97 0 0 0-17.23-.23 103 103 0 0 0-17.68 2.85l-2.5.69c-.83.34-1.61.74-2.39 1.08l-1.83.85c-.12.06-.23.06-.28.12-.56.28-1.06.51-1.56.8q-.23.08-.39.17c-.6.28-1.22.63-1.72.91-.39.17-.78.4-1.11.57-.17.12-.4.23-.5.29q-.76.42-1.45.85-.75.43-1.33.86c-.4.28-.78.51-1.11.8-.06.05-.11.05-.17.11-.33.23-.72.51-1.06.8l-.1.11-.84.69c-.11.05-.22.17-.33.23-.28.22-.56.5-.84.74-.05.11-.16.17-.22.23-.33.34-.67.62-1 .96-.06 0-.06.06-.11.12-.34.28-.67.63-1 .97-.06.06-.06.11-.11.11q-.42.42-.84.91c-.1.12-.28.23-.39.35q-.42.51-.94 1.02c-.06.12-.17.17-.22.29-.45.46-.84.91-1.28 1.37l-.17.17c-.89.97-1.83 1.94-2.83 2.8a42 42 0 0 1-6.45 4.68q-1.67.93-3.5 1.7a39 39 0 0 1-3.62 1.37c-2.33.51-4.72 1.48-6.78 1.66-.44 0-.94.1-1.39.17q-.73.16-1.39.34l-1.33.51q-.67.27-1.33.63c-.4.28-.84.51-1.23.8q-.6.44-1.1.97c-.4.28-.79.68-1.12 1.02-.33.4-.67.75-.95 1.15-.27.45-.6.85-.83 1.3q-.43.62-.78 1.32c-.22.51-.44.97-.6 1.48q-.27.7-.5 1.49-.19.67-.29 1.36c0 .06-.05.12-.05.18-.11.5-.11 1.2-.17 1.54-.05.4-.11.74-.11 1.14a6 6 0 0 0 .67 2.85v.06c.16.34.39.68.6 1.02q.33.52.73 1.03c.28.28.61.63.95.91q.48.5 1.05.91c1.34 1.2 1.67 1.6 3.4 2.51.27.17.55.29.88.46.06 0 .11.06.17.06a12 12 0 0 0 .78 3.02c.16.34.27.68.44 1.03.06.11.11.23.17.28q.33.67.67 1.26l.83 1.2c.28.34.61.74.94 1.08.34.34.67.63 1.06.97 0 0 .06.05.11.05q.5.45 1 .8.58.42 1.22.75.61.35 1.28.62.53.24 1.11.4c.06.06.12.06.23.12l.72.17c-.17 3.08-.22 5.99.22 7.01.5 1.14 2.95-2.34 5.4-6.33-.34 3.94-.56 8.56 0 9.93.6 1.42 3.94-3.03 6.83-7.93 39.4-9.36 75.37 18.6 79.15 58.06-.72-6.16-8.12-9.58-11.5-8.72-1.67 4.22-4.5 9.64-9.07 13 .4-3.76.23-7.64-.55-11.4a37 37 0 0 1-6.9 14.37 15.4 15.4 0 0 1-13.33-6.16c-.23-.17-.28-.52-.45-.74q-.26-.6-.44-1.2-.25-.6-.34-1.2-.06-.59-.05-1.25v-.86q.09-.6.28-1.2.14-.6.38-1.2c.23-.4.4-.8.67-1.2.95-2.73.95-4.96-.78-6.27q-.48-.33-1.05-.57l-.72-.23c-.17-.05-.28-.11-.45-.17a9 9 0 0 0-1.17-.28 4 4 0 0 0-1.16-.17 9 9 0 0 0-1.23-.12c-.27 0-.55.06-.83.06-.45 0-.83.06-1.22.17a8 8 0 0 0-2.34.63l-1.1.51c-.34.17-.68.4-1.07.57-12.95 8.67-5.22 28.98 3.62 34.85-3.34.63-6.73 1.37-7.67 2.11l-.11.12a52 52 0 0 0 7.5 3.82 186 186 0 0 0 9 2.74v.05q6.93 1.45 14.01 1.03c24.62-1.77 44.8-20.99 48.47-46.32l.33 1.49c.17 1.02.4 2.1.5 3.2v.05c.11.51.17 1.03.22 1.48v.23q.1.78.12 1.48.09.95.1 1.88v.92c0 .28.06.63.06.91 0 .34-.05.69-.05 1.03v.8c0 .4-.06.74-.06 1.14q.01.32-.05.74c0 .4-.06.8-.06 1.25q-.07.26-.06.52l-.16 1.3q.01.27-.06.52c-.05.57-.16 1.09-.22 1.66v.11l-.33 1.6v.17l-.34 1.54c0 .06-.05.17-.05.23q-.15.76-.4 1.54v.17q-.26.84-.44 1.6-.06.09-.05.1l-.5 1.72-.61 1.65c-.23.57-.4 1.15-.62 1.66l-.66 1.65h-.06c-.22.52-.44 1.09-.72 1.6q-.09.24-.17.4c-.05.06-.05.11-.1.17a54 54 0 0 1-15.63 19.16q-.66.45-1.33.97c-.11.12-.28.18-.39.29q-.57.42-1.22.85l.16.35h.06l2.33-.34h.06q2.16-.36 4.33-.8c.4-.06.84-.17 1.23-.29l.78-.17c.39-.06.77-.17 1.16-.23.34-.11.67-.17 1-.28a103 103 0 0 0 16.12-5.48A89.5 89.5 0 0 1 120.72 238a89 89 0 0 0 18.95-3.37 89.3 89.3 0 0 0 52.53-43.06 92 92 0 0 1-14.96 36.68 88 88 0 0 0 14.84-12.67 91.3 91.3 0 0 0 23.4-48.48 93 93 0 0 1 1.62 27.5c40.13-57.44 3.33-117-12.06-132.68-.06-.11-.12-.17-.12-.28-.05.05-.05.05-.05.1 0-.05 0-.05-.06-.1q-.01 1.02-.1 2.05a78 78 0 0 1-.56 3.82 93 93 0 0 1-.95 3.77 48 48 0 0 1-1.33 3.65 50 50 0 0 1-1.67 3.47 44 44 0 0 1-4.28 6.33 42 42 0 0 1-2.61 2.86c-.56.51-1.06.97-1.62 1.42l-1.27 1.14c-1 .8-2 1.54-3.12 2.23a38 38 0 0 1-3.28 1.94 95 95 0 0 1-3.5 1.6 39 39 0 0 1-7.33 2.05c-1.28.23-2.56.34-3.78.46q-1.34.1-2.67.11c-1.28 0-2.56-.11-3.78-.23a28 28 0 0 1-3.78-.57q-1.9-.36-3.72-.97h-.06a39.4 39.4 0 0 0 17.84-5.99q1.6-1.1 3.11-2.28 1.5-1.2 2.84-2.57c.94-.85 1.78-1.82 2.61-2.8a56 56 0 0 0 2.33-3.07c.12-.17.23-.4.34-.57q.85-1.37 1.61-2.74a40 40 0 0 0 3.95-10.84c.22-1.3.44-2.56.55-3.82.11-1.31.22-2.62.22-3.88q-.01-1.36-.1-2.73-.19-1.96-.45-3.83-.33-1.94-.83-3.82c-.4-1.2-.78-2.45-1.23-3.65s-1-2.4-1.55-3.54q-.9-1.73-1.9-3.36a63 63 0 0 0-2.22-3.14q-1.23-1.46-2.55-2.9c-.45-.46-.95-.98-1.45-1.43-2.5-2-5.11-3.88-7.72-5.6-.4-.22-.73-.4-1.12-.56a21 21 0 0 0-5.28-2.4"/></svg>