<svg xmlns="http://www.w3.org/2000/svg" width="256" height="256" fill="none" viewBox="0 0 256 256"><rect width="256" height="256" fill="#F4F2ED" rx="60"/><path fill="url(#a)" d="m172.79 97.4-.08-.03-.12-.06a.6.6 0 0 1-.14-.49l4.03-24.65 18.9 18.91-19.66 8.37-.17.03h-.08l-.1-.09a9 9 0 0 0-2.58-1.98m27.42-1.5 20.22 20.22c4.2 4.2 6.3 6.3 7.07 8.73q.16.53.28 1.1l-48.32-20.47-.07-.03c-.2-.08-.42-.17-.42-.37s.23-.29.42-.37l.06-.02zm26.75 36.53c-1.05 1.96-3.08 4-6.52 7.44l-22.8 22.8-29.48-6.15-.16-.03c-.26-.04-.53-.09-.53-.32a9 9 0 0 0-3.42-6.22c-.12-.12-.09-.31-.05-.48v-.08l5.55-34.04.02-.11c.04-.26.08-.56.32-.56a9 9 0 0 0 6.05-3.47q.06-.08.14-.14c.17-.08.36 0 .54.07zM192.4 167.9l-37.48 37.49 6.41-39.43.01-.06.03-.15c.06-.12.2-.18.32-.23l.06-.02a10 10 0 0 0 3.63-2.7c.13-.15.28-.29.47-.31h.15zm-45.42 45.42-4.22 4.23-46.71-67.51-.05-.07q-.14-.15-.14-.32.01-.12.12-.22l.05-.06.39-.64.1-.19.02-.01q.09-.2.27-.31c.1-.06.26-.04.38-.01l51.74 10.67q.22.03.4.17.09.1.1.23a9.2 9.2 0 0 0 5.36 6.13c.15.07.09.23.02.4q-.06.12-.08.24zm-8.82 8.82c-3.12 3.09-4.95 4.72-7.03 5.38-2.04.64-4.24.64-6.29 0-2.43-.78-4.53-2.87-8.73-7.08l-46.9-46.9 12.24-19a1 1 0 0 1 .21-.25c.13-.1.32-.06.48 0 2.81.84 5.83.7 8.54-.44.14-.05.28-.09.4.01l.14.17zm-73.48-53.13-10.76-10.76 21.25-9.06.17-.04c.18 0 .28.18.38.34q.32.5.67.96l.07.08c.07.09.02.18-.04.26zM49.16 153.5l-13.62-13.62c-2.31-2.31-4-4-5.16-5.44l41.4 8.59.15.03c.26.04.54.08.54.32 0 .26-.31.38-.57.48l-.12.06zM28 127.43q.07-1.31.47-2.58c.77-2.43 2.87-4.52 7.07-8.73L52.96 98.7Q65 116.16 77.1 133.58c.14.19.3.4.14.55-.76.84-1.52 1.76-2.06 2.76a1 1 0 0 1-.26.32q-.1.05-.22 0h-.01zm29.63-33.4 23.42-23.42c2.2.97 10.22 4.35 17.38 7.38 5.43 2.3 10.37 4.38 11.93 5.06.15.06.3.12.36.28q.05.15 0 .31a10.5 10.5 0 0 0 2.73 9.53c.16.16 0 .39-.14.58l-.07.1-23.78 36.85q-.08.16-.23.26c-.12.08-.3.04-.45 0q-1.38-.36-2.83-.38c-.86 0-1.78.16-2.72.33-.11.01-.2.03-.29-.03q-.14-.1-.23-.26zm28.15-28.15 30.33-30.33c4.2-4.2 6.3-6.3 8.73-7.06 2.05-.65 4.25-.65 6.3 0 2.42.76 4.53 2.86 8.72 7.06l6.58 6.58-21.57 33.4a1 1 0 0 1-.22.25c-.13.09-.3.05-.47 0a11 11 0 0 0-10.01 1.93c-.14.15-.35.06-.53-.02-2.81-1.22-24.72-10.48-27.86-11.81m65.24-19.17 19.91 19.91-4.8 29.72v.08q0 .1-.04.2c-.05.1-.16.12-.26.15a10 10 0 0 0-3.17 1.65l-.23-.04-30.34-12.9-.06-.02c-.2-.08-.42-.17-.42-.37-.18-1.7-.73-3.32-1.62-4.77-.15-.24-.3-.5-.18-.74zM130.5 91.59l28.44 12.05c.16.08.33.14.4.3q.05.15 0 .3-.14.65-.16 1.38v.8c0 .2-.2.27-.39.35l-.05.02a39932 39932 0 0 1-63.36 26.99c-.1 0-.19 0-.28-.1-.15-.15 0-.37.15-.57l.07-.1 23.38-36.2.04-.06c.14-.22.3-.47.54-.47l.24.04q.78.12 1.47.14c3.55 0 6.83-1.73 8.82-4.68q.07-.12.18-.2c.14-.11.34-.06.5.01M97.93 139.5l64.05-27.31s.1 0 .18.09c.35.35.65.58.94.8l.14.09c.13.07.26.16.27.29l-.01.13-5.49 33.7-.02.14c-.04.26-.07.56-.32.56a9 9 0 0 0-7.16 4.42l-.03.04q-.1.2-.26.3c-.1.05-.25.03-.36 0l-51.08-10.53c-.06-.01-.8-2.71-.85-2.72"/><defs><radialGradient id="a" cx="0" cy="0" r="1" gradientTransform="matrix(0 199.78 -230.653 0 21.3 125.18)" gradientUnits="userSpaceOnUse"><stop stop-color="#20C6B7"/><stop offset="1" stop-color="#4D9ABF"/></radialGradient></defs></svg>