<svg xmlns="http://www.w3.org/2000/svg" width="256" height="256" fill="none" viewBox="0 0 256 256"><rect width="256" height="256" fill="#F4F2ED" rx="60"/><path fill="#000" d="M121.45 28.05c-.43.04-1.8.18-3.03.28-28.4 2.56-55.01 17.89-71.87 41.44a99 99 0 0 0-17.65 43.7c-.8 5.5-.9 7.12-.9 14.56s.1 9.08.9 14.57c5.43 37.56 32.16 69.11 68.4 80.8a106 106 0 0 0 21.12 4.38c3.03.33 16.13.33 19.16 0 13.43-1.49 24.8-4.8 36.03-10.54 1.72-.88 2.05-1.11 1.82-1.3-.16-.12-7.49-9.96-16.29-21.84l-15.99-21.6-20.04-29.67a2831 2831 0 0 0-20.17-29.64c-.08-.01-.16 13.16-.2 29.25-.06 28.18-.08 29.3-.43 29.97-.5.96-.9 1.35-1.72 1.78-.63.31-1.17.37-4.12.37h-3.39l-.9-.56a4 4 0 0 1-1.3-1.43l-.42-.88.04-39.2.06-39.22.6-.76c.32-.4.98-.94 1.45-1.2.8-.38 1.12-.42 4.5-.42 3.99 0 4.65.15 5.69 1.29.3.31 11.14 16.66 24.13 36.34l39.45 59.77 15.83 23.99.8-.53c7.1-4.62 14.6-11.18 20.55-18.03a99.6 99.6 0 0 0 23.54-51.12c.8-5.5.9-7.12.9-14.57s-.1-9.07-.9-14.56c-5.43-37.56-32.16-69.11-68.4-80.8-6.4-2.07-13.2-3.5-20.83-4.36-1.87-.2-14.8-.41-16.42-.26m40.94 60.5c.94.46 1.7 1.36 1.97 2.3.16.5.2 11.38.16 35.87l-.06 35.16-6.2-9.5-6.21-9.5v-25.56c0-16.52.07-25.8.2-26.26.3-1.09.99-1.95 1.93-2.46.8-.4 1.1-.45 4.16-.45 2.9 0 3.4.04 4.05.4"/></svg>