<svg xmlns="http://www.w3.org/2000/svg" width="256" height="256" fill="none" viewBox="0 0 256 256"><rect width="256" height="256" fill="#242938" rx="60"/><path fill="#F3D400" d="M128.73 46S120 53.29 111.1 60.53c-9.15-.31-27.09 1.85-36.81 5.6-8.96-6-16.83-12.63-16.83-12.63s-6.72 12.23-10.95 19.4c-6.27 3.53-12.57 7.5-18.18 12.75A969 969 0 0 1 14 79.45c8.64 18.44 14.45 36.9 30.26 47.99 25.17-42.02 142.11-38.15 167.8-.24 16.6-9.15 23.06-28.85 29.59-47.03-.72.25-9.6 3.4-15.36 5.72-3.44-3.96-11.54-10.04-16.15-12.98-4.37-8.46-10.73-19.89-10.73-19.89s-7.53 5.93-16.26 12.39c-11.79-2.3-26.05-5.1-38.05-4.4C136.93 53.9 128.73 46 128.73 46"/><path fill="#FFE953" d="m22.94 118.63 20.76 53.15c36.05 50.3 128.12 53.79 168.26.98 9.5-22.63 22.32-54.44 22.32-54.44-10.3 16.13-27.06 27.26-37.38 33.26-7.34 4.25-24.26 6.81-24.26 6.81l-44.43-24.33-44.68 23.85s-16.7-2.84-24.26-6.57c-15.25-8.61-25.51-18.79-36.33-32.71"/></svg>