<svg xmlns="http://www.w3.org/2000/svg" width="256" height="256" fill="none" viewBox="0 0 256 256"><rect width="256" height="256" fill="#242938" rx="60"/><path fill="url(#a)" fill-rule="evenodd" d="m89.03 129.9 48.72 84.4-22.39.2-13-22.67-13.1 22.55H78.12l-5.7-9.85 18.67-32.09-13.25-23.06z" clip-rule="evenodd"/><path fill="url(#b)" fill-rule="evenodd" d="m106.62 95.13-48.73 84.4-11.38-19.3 13.13-22.6-26.08-.06-5.56-9.64 5.68-9.86 37.12.12 13.35-23z" clip-rule="evenodd"/><path fill="url(#c)" fill-rule="evenodd" d="M110.36 162.6h97.45l-11.01 19.5-26.14-.08 12.98 22.62-5.57 9.64H166.7l-18.46-32.2-26.6-.06z" clip-rule="evenodd"/><path fill="url(#d)" fill-rule="evenodd" d="m167.08 125.61-48.73-84.4 22.4-.21 13 22.68 13.1-22.56h11.13l5.7 9.85-18.67 32.1 13.25 23.05z" clip-rule="evenodd"/><path fill="url(#e)" fill-rule="evenodd" d="m89.03 129.9 48.72 84.4-22.39.2-13-22.67-13.1 22.55H78.12l-5.7-9.85 18.67-32.1-13.25-23.05z" clip-rule="evenodd"/><path fill="url(#f)" fill-rule="evenodd" d="M145.55 92.72H48.1l11.01-19.5 26.14.07-12.98-22.62 5.57-9.64H89.2l18.46 32.2 26.6.06z" clip-rule="evenodd"/><path fill="url(#g)" fill-rule="evenodd" d="m149.38 160.74 48.73-84.4 11.38 19.29-13.13 22.6 26.08.07 5.56 9.64-5.68 9.85-37.12-.11-13.35 23z" clip-rule="evenodd"/><defs><linearGradient id="a" x1="73.76" x2="109.44" y1="132.54" y2="194.26" gradientUnits="userSpaceOnUse"><stop stop-color="#699AD7"/><stop offset=".24" stop-color="#7EB1DD"/><stop offset="1" stop-color="#7EBAE4"/></linearGradient><linearGradient id="b" x1="96.69" x2="61.08" y1="83.23" y2="144.99" gradientUnits="userSpaceOnUse"><stop stop-color="#699AD7"/><stop offset=".24" stop-color="#7EB1DD"/><stop offset="1" stop-color="#7EBAE4"/></linearGradient><linearGradient id="c" x1="105.02" x2="176.3" y1="177.14" y2="177.1" gradientUnits="userSpaceOnUse"><stop stop-color="#699AD7"/><stop offset=".24" stop-color="#7EB1DD"/><stop offset="1" stop-color="#7EBAE4"/></linearGradient><linearGradient id="d" x1="182.35" x2="146.67" y1="122.96" y2="61.25" gradientUnits="userSpaceOnUse"><stop stop-color="#699AD7"/><stop offset=".24" stop-color="#7EB1DD"/><stop offset="1" stop-color="#7EBAE4"/></linearGradient><linearGradient id="e" x1="77.45" x2="112.5" y1="130.44" y2="192.4" gradientUnits="userSpaceOnUse"><stop stop-color="#415E9A"/><stop offset=".23" stop-color="#4A6BAF"/><stop offset="1" stop-color="#5277C3"/></linearGradient><linearGradient id="f" x1="150.87" x2="79.69" y1="82.41" y2="81.79" gradientUnits="userSpaceOnUse"><stop stop-color="#415E9A"/><stop offset=".23" stop-color="#4A6BAF"/><stop offset="1" stop-color="#5277C3"/></linearGradient><linearGradient id="g" x1="155.65" x2="191.78" y1="170.49" y2="109.16" gradientUnits="userSpaceOnUse"><stop stop-color="#415E9A"/><stop offset=".23" stop-color="#4A6BAF"/><stop offset="1" stop-color="#5277C3"/></linearGradient></defs></svg>