<svg xmlns="http://www.w3.org/2000/svg" width="256" height="256" fill="none" viewBox="0 0 256 256"><rect width="256" height="256" fill="#242938" rx="60"/><path fill="#81CD39" d="M119.88 31.12a16.6 16.6 0 0 1 16.24 0l74.17 41.9a15.3 15.3 0 0 1 7.7 13.14v84.05c.04 5.57-3.37 10.87-8.28 13.43l-73.9 41.7a16.2 16.2 0 0 1-16.42-.46L97.2 212.06c-1.5-.9-3.21-1.62-4.28-3.08.95-1.27 2.63-1.43 4-1.98 3.08-.99 5.92-2.56 8.75-4.09.72-.49 1.59-.3 2.28.14 6.31 3.62 12.58 7.35 18.91 10.94 1.36.78 2.72-.26 3.88-.9 24.18-13.67 48.4-27.28 72.57-40.96a2.4 2.4 0 0 0 1.32-2.36V86.6a2.6 2.6 0 0 0-1.54-2.6q-36.83-20.74-73.65-41.5c-.87-.6-2.02-.6-2.9 0C102 56.31 77.46 70.18 52.91 84a2.6 2.6 0 0 0-1.55 2.58v83.19c-.1.98.44 1.9 1.33 2.33q9.83 5.56 19.67 11.1c3.7 2 8.23 3.17 12.3 1.65a9.3 9.3 0 0 0 6.03-8.76c.04-27.57-.01-55.13.03-82.7-.09-1.22 1.07-2.23 2.26-2.11a411 411 0 0 1 9.45 0c1.31-.02 2.22 1.3 2.05 2.53 0 27.74.04 55.47-.02 83.21.01 7.4-3.02 15.44-9.86 19.05-8.43 4.37-18.84 3.44-27.16-.74-7.2-3.6-14.08-7.84-21.16-11.7A15.4 15.4 0 0 1 38 170.2V86.16a15.3 15.3 0 0 1 7.98-13.32z"/><path fill="#81CD39" d="M141.37 89.34c10.75-.7 22.25-.41 31.92 4.88 7.49 4.06 11.64 12.57 11.77 20.89-.21 1.12-1.38 1.74-2.46 1.66-3.11 0-6.23.04-9.35-.02-1.32.05-2.09-1.17-2.25-2.34-.9-3.98-3.07-7.92-6.82-9.84-5.75-2.88-12.41-2.73-18.68-2.67-4.58.24-9.5.64-13.38 3.33-2.98 2.04-3.88 6.15-2.82 9.47 1 2.38 3.75 3.14 6 3.85 12.95 3.39 26.67 3.05 39.37 7.5 5.26 1.83 10.4 5.36 12.2 10.86 2.36 7.38 1.33 16.2-3.92 22.13-4.26 4.87-10.46 7.53-16.65 8.97-8.23 1.83-16.76 1.88-25.12 1.07-7.86-.9-16.03-2.96-22.1-8.32-5.19-4.5-7.72-11.52-7.47-18.3.06-1.14 1.2-1.93 2.3-1.84q4.71-.04 9.42 0c1.25-.08 2.18 1 2.24 2.18.58 3.8 2 7.77 5.31 10.02 6.38 4.12 14.4 3.84 21.7 3.95 6.05-.27 12.85-.35 17.78-4.35 2.61-2.28 3.38-6.1 2.68-9.38-.76-2.78-3.67-4.07-6.16-4.91-12.78-4.05-26.66-2.58-39.31-7.15-5.14-1.82-10.11-5.25-12.09-10.53-2.75-7.48-1.5-16.72 4.3-22.44 5.66-5.7 13.83-7.9 21.6-8.68"/></svg>