<svg xmlns="http://www.w3.org/2000/svg" width="256" height="256" fill="none" viewBox="0 0 256 256"><g clip-path="url(#a)"><path fill="#242938" d="M196 0H60A60 60 0 0 0 0 60v136a60 60 0 0 0 60 60h136a60 60 0 0 0 60-60V60a60 60 0 0 0-60-60"/><g clip-path="url(#b)"><path fill="#fff" d="m50.53 47.55 96.83-7.15c11.9-1.02 14.95-.34 22.43 5.1l30.91 21.78c5.1 3.74 6.8 4.76 6.8 8.84v119.42c0 7.49-2.72 11.92-12.24 12.6l-112.44 6.8c-7.14.34-10.54-.68-14.28-5.44l-22.77-29.6c-4.08-5.45-5.77-9.53-5.77-14.3V59.45c0-6.12 2.72-11.22 10.53-11.9"/><path fill="#000" fill-rule="evenodd" d="m147.36 40.4-96.83 7.15C42.72 48.23 40 53.33 40 59.45V165.6c0 4.77 1.7 8.85 5.77 14.3l22.77 29.6c3.74 4.76 7.14 5.78 14.28 5.44l112.45-6.8c9.5-.68 12.23-5.11 12.23-12.6V76.13c0-3.87-1.53-4.98-6.03-8.28L169.8 45.5c-7.48-5.44-10.53-6.12-22.43-5.1m-62 33.77c-9.18.61-11.26.75-16.48-3.49L55.62 60.14c-1.35-1.37-.67-3.07 2.73-3.41l93.09-6.8c7.81-.68 11.88 2.04 14.94 4.42l15.97 11.57c.68.34 2.38 2.38.33 2.38l-96.13 5.78zm-10.7 120.36V93.14c0-4.42 1.36-6.47 5.43-6.81l110.41-6.46c3.75-.34 5.44 2.04 5.44 6.46v100.7c0 4.43-.69 8.18-6.8 8.52l-105.66 6.12c-6.11.34-8.82-1.7-8.82-7.14m104.3-95.95c.67 3.06 0 6.12-3.07 6.47l-5.09 1.01v74.86c-4.42 2.38-8.5 3.74-11.9 3.74-5.43 0-6.79-1.7-10.86-6.8l-33.3-52.4v50.69l10.53 2.39s0 6.12-8.5 6.12l-23.43 1.36c-.68-1.37 0-4.77 2.37-5.44l6.12-1.7v-67.02l-8.49-.7c-.68-3.05 1.02-7.48 5.77-7.82l25.15-1.7 34.65 53.08v-46.95l-8.84-1.02c-.68-3.75 2.04-6.47 5.44-6.8z" clip-rule="evenodd"/></g></g><defs><clipPath id="a"><path fill="#fff" d="M0 0h256v256H0z"/></clipPath><clipPath id="b"><path fill="#fff" d="M40 40h175v175H40z"/></clipPath></defs></svg>