<svg xmlns="http://www.w3.org/2000/svg" width="256" height="256" fill="none" viewBox="0 0 256 256"><g clip-path="url(#a)"><path fill="#242938" d="M196 0H60A60 60 0 0 0 0 60v136a60 60 0 0 0 60 60h136a60 60 0 0 0 60-60V60a60 60 0 0 0-60-60"/><g clip-path="url(#b)"><path fill="#CB3837" d="M23 88h210v68.57H128V168H81.33v-11.43H23zm11.67 57.14H58v-34.28h11.67v34.28h11.66V99.43H34.67zM93 99.43v57.14h23.33v-11.43h23.34V99.43zm23.33 11.43H128v22.85h-11.67zm35-11.43v45.71h23.34v-34.28h11.66v34.28H198v-34.28h11.67v34.28h11.66V99.43z"/><path fill="#fff" d="M34.67 145.14H58v-34.28h11.67v34.28h11.66V99.43H34.67zM93 99.43v57.14h23.33v-11.43h23.34V99.43zm35 34.28h-11.67v-22.85H128zm23.33-34.28v45.71h23.34v-34.28h11.66v34.28H198v-34.28h11.67v34.28h11.66V99.43z"/></g></g><defs><clipPath id="a"><path fill="#fff" d="M0 0h256v256H0z"/></clipPath><clipPath id="b"><path fill="#fff" d="M23 88h210v80H23z"/></clipPath></defs></svg>