<svg xmlns="http://www.w3.org/2000/svg" width="256" height="256" fill="none" viewBox="0 0 256 256"><rect width="256" height="256" fill="#F4F2ED" rx="60"/><path fill="#00DC82" d="M138.79 189.33h68.77a12.5 12.5 0 0 0 10.78-6.16 12.2 12.2 0 0 0-.01-12.34l-46.19-79.28a12.4 12.4 0 0 0-10.77-6.17 12.5 12.5 0 0 0-10.77 6.17l-11.81 20.28-23.1-39.66A12.4 12.4 0 0 0 104.93 66a12.5 12.5 0 0 0-10.78 6.17l-57.47 98.66a12.24 12.24 0 0 0 4.55 16.85 12.5 12.5 0 0 0 6.22 1.65h43.17c17.1 0 29.72-7.44 38.4-21.97l21.07-36.17 11.29-19.36 33.87 58.15h-45.16zM89.9 169.96l-30.13-.01 45.16-77.52 22.53 38.76-15.08 25.9c-5.77 9.43-12.32 12.87-22.48 12.87"/></svg>