<svg xmlns="http://www.w3.org/2000/svg" width="256" height="256" fill="none" viewBox="0 0 256 256"><g clip-path="url(#a)"><path fill="#242938" d="M196 0H60A60 60 0 0 0 0 60v136a60 60 0 0 0 60 60h136a60 60 0 0 0 60-60V60a60 60 0 0 0-60-60"/><g clip-path="url(#b)"><mask id="c" width="201" height="201" x="28" y="28" maskUnits="userSpaceOnUse"><path fill="#fff" d="M28.08 28.08h200v200h-200z"/></mask><g mask="url(#c)"><path fill="#6C31E3" d="M177.34 213.78c-1.22 9.14-10.16 16.25-19.03 13.79-12.65-3.48-27.3-8.9-40.47-9.92l-20.2-1.56a13.3 13.3 0 0 1-8.59-3.99L54.3 176.28a13.3 13.3 0 0 1-2.62-14.72s21.49-47.27 22.3-49.73c.79-2.46 3.76-23.9 5.48-35.4a13 13 0 0 1 4.3-7.92l41.13-37.03a13.3 13.3 0 0 1 19.37 1.68l34.53 43.9a14.5 14.5 0 0 1 2.97 8.75c0 8.32.7 25.4 5.31 36.4 4.5 10.67 12.7 22.27 17 27.94a6.8 6.8 0 0 1 .5 7.5 584 584 0 0 1-17.5 27.58c-5.86 8.7-8.55 19.49-9.76 28.55z"/><path fill="url(#d)" d="M92.8 214.84c16.18-32.82 15.7-56.33 8.83-73.05-6.33-15.47-18.08-25.2-27.34-31.25-.24.9-.5 1.72-.86 2.54l-21.76 48.51a13.3 13.3 0 0 0 2.58 14.73l34.8 35.82a13 13 0 0 0 3.75 2.74z"/><path fill="url(#e)" d="M136.75 148.23a52 52 0 0 1 12.81 2.97c13.28 4.96 25.4 16.1 35.35 37.62q1.03-1.82 2.2-3.6a601 601 0 0 0 17.5-27.57 6.6 6.6 0 0 0-.52-7.5c-4.3-5.7-12.5-17.27-16.99-27.93-4.6-11.02-5.27-28.13-5.31-36.4 0-3.17-1.02-6.26-2.97-8.76l-34.57-43.9q-.28-.34-.59-.67a37.5 37.5 0 0 1 .78 21.1 77 77 0 0 1-6.87 16.13l-2.81 5.55a67 67 0 0 0-7.58 27.73c-.47 11.48 1.88 25.94 9.57 45.23"/><path fill="url(#f)" d="M136.75 148.23c-7.7-19.3-10.08-33.75-9.57-45.27a67 67 0 0 1 7.58-27.73c.9-1.88 1.87-3.71 2.81-5.51 2.77-5.43 5.47-10.55 6.88-16.17a37.5 37.5 0 0 0-.79-21.1 13.3 13.3 0 0 0-18.78-.93L83.7 68.55a13.3 13.3 0 0 0-4.25 7.93l-5 33.2-.2.9c9.3 6.05 21.1 15.78 27.38 31.25a58 58 0 0 1 3.05 9.69c10.94-2.66 21.76-4.3 32.07-3.25z"/><path fill="url(#g)" d="M158.31 227.6c8.87 2.43 17.81-4.68 19.03-13.82 1-8.7 3.57-17.16 7.57-24.96-10-21.48-22.07-32.66-35.3-37.62-14.07-5.23-29.38-3.51-44.93.28 3.48 15.78 1.4 36.44-11.88 63.36a14 14 0 0 0 4.89 1.28s9.53.79 20.94 1.6c11.32.79 28.28 6.69 39.68 9.85z"/><path fill="url(#h)" fill-rule="evenodd" d="M127.26 102.22c-.51 11.4.93 24.53 8.63 43.79l-2.42-.2c-6.91-20.12-8.4-30.47-7.9-42.03a68 68 0 0 1 7.98-28.12c.93-1.92 3.12-5.51 4.1-7.35 2.77-5.35 4.65-8.2 6.25-13.12 2.22-6.84 1.76-10.12 1.48-13.32 1.8 11.68-4.96 21.87-10.04 32.18a69 69 0 0 0-8.08 28.13z" clip-rule="evenodd"/><path fill="url(#i)" fill-rule="evenodd" d="M103.9 142.6c.94 2.12 1.8 3.84 2.34 6.46l-2.07.42a47 47 0 0 0-2.65-7.8c-6.96-16.41-18.09-24.85-27.23-31.06 11.01 5.94 22.34 15.23 29.57 31.99z" clip-rule="evenodd"/><path fill="url(#j)" fill-rule="evenodd" d="M106.36 151.09c3.83 17.97-.47 40.7-13.13 62.85 10.59-21.96 15.7-43.01 11.45-62.5z" clip-rule="evenodd"/><path fill="url(#k)" fill-rule="evenodd" d="M150.07 149.48c20.74 7.78 28.75 24.85 34.73 39.07-7.43-14.89-17.66-31.37-35.47-37.5-13.6-4.61-25.04-4.07-44.65.39l-.43-1.96c20.78-4.72 31.64-5.27 45.82 0" clip-rule="evenodd"/></g></g></g><defs><radialGradient id="d" cx="0" cy="0" r="1" gradientTransform="matrix(-23.04624 -87.8908 58.56191 -15.35578 91.05 211.6)" gradientUnits="userSpaceOnUse"><stop stop-color="#fff" stop-opacity=".4"/><stop offset="1" stop-opacity=".1"/></radialGradient><radialGradient id="e" cx="0" cy="0" r="1" gradientTransform="matrix(19.54316 -148.04565 109.37711 14.43861 168.6 174.17)" gradientUnits="userSpaceOnUse"><stop stop-color="#fff" stop-opacity=".6"/><stop offset="1" stop-color="#fff" stop-opacity=".1"/></radialGradient><radialGradient id="f" cx="0" cy="0" r="1" gradientTransform="matrix(26.96376 -124.60703 85.14232 18.42398 96.5 147.92)" gradientUnits="userSpaceOnUse"><stop stop-color="#fff" stop-opacity=".8"/><stop offset="1" stop-color="#fff" stop-opacity=".4"/></radialGradient><radialGradient id="g" cx="0" cy="0" r="1" gradientTransform="matrix(-37.4997 -63.67202 73.19479 -43.10814 158.98 228.08)" gradientUnits="userSpaceOnUse"><stop stop-color="#fff" stop-opacity=".3"/><stop offset="1" stop-opacity=".3"/></radialGradient><radialGradient id="h" cx="0" cy="0" r="1" gradientTransform="rotate(102.24 43.07 99.15)scale(66.3511 44.7431)" gradientUnits="userSpaceOnUse"><stop stop-color="#fff" stop-opacity="0"/><stop offset="1" stop-color="#fff" stop-opacity=".2"/></radialGradient><radialGradient id="i" cx="0" cy="0" r="1" gradientTransform="matrix(34.37726 34.76341 -74.04538 73.22287 71.35 114)" gradientUnits="userSpaceOnUse"><stop stop-color="#fff" stop-opacity=".2"/><stop offset="1" stop-color="#fff" stop-opacity=".4"/></radialGradient><radialGradient id="j" cx="0" cy="0" r="1" gradientTransform="matrix(3.51535 50.78127 -107.83692 7.46504 111.99 138.93)" gradientUnits="userSpaceOnUse"><stop stop-color="#fff" stop-opacity=".2"/><stop offset="1" stop-color="#fff" stop-opacity=".3"/></radialGradient><radialGradient id="k" cx="0" cy="0" r="1" gradientTransform="rotate(-152.29 114.8 69.25)scale(87.3639 274.845)" gradientUnits="userSpaceOnUse"><stop stop-color="#fff" stop-opacity=".2"/><stop offset=".5" stop-color="#fff" stop-opacity=".2"/><stop offset="1" stop-color="#fff" stop-opacity=".3"/></radialGradient><clipPath id="a"><path fill="#fff" d="M0 0h256v256H0z"/></clipPath><clipPath id="b"><path fill="#fff" d="M28 28h200v200H28z"/></clipPath></defs></svg>