<svg xmlns="http://www.w3.org/2000/svg" width="256" height="256" fill="none" viewBox="0 0 256 256"><g clip-path="url(#a)"><rect width="256" height="256" fill="url(#b)" rx="60"/><path fill="#fff" d="M143.43 232.02c-.55-2.2.54-4.94-.55-7.13-.55-2.2-2.2-2.2-2.74-3.84-2.19-4.4-4.92-9.33-4.92-14.82 0-4.39-1.65-8.78-2.2-13.17v-6.58c0-1.1 0-2.2-.54-3.3 0-.54 0-1.64-.55-1.64l.55-1.64c0-.55 4.92-.55 6.57-.55 2.73 0 4.92 0 7.66.55 5.47 0 9.85 0 15.33-.55 11.5-1.65 16.42-6.59 19.16-8.23 10.4-7.13 15.33-19.75 15.33-19.75 1.64-3.84 1.64-10.98 5.47-13.72 4.38-3.84 11.5-3.3 16.42-5.49 2.74-1.1 4.93-2.2 8.22-1.64 2.19.54 6.02 3.29 7.11-.55l-1.64-1.65c4.38-.55 0-9.87-1.64-12.07-2.74-2.74-6.57-4.39-10.95-5.48-5.48-1.65-10.4-3.3-15.33-2.2-8.76 1.65-8.21-3.3-13.14-3.3-6.02 0-16.97.56-19.16 6.6-1.1 2.73-1.64 2.73-3.28 4.93-1.1 1.65 0 3.3-.55 5.49s-1.64 9.87-2.74 12.62c-1.64 4.38-3.83 9.87-7.66 9.87-5.47.55-9.85 1.1-14.23-.55a97 97 0 0 0-9.31-3.29c-10.4-4.39-12.04-8.78-12.04-8.78-1.1-1.64-3.84-4.94-4.93-8.78-1.1-4.38-3.29-7.68-3.83-9.87a229 229 0 0 1-4.38-9.88c-2.2-4.94-4.93-8.78-7.12-10.42-3.28-2.75-6.02-7.13-12.59-6.04-1.1 0-5.47.55-8.76 3.3-2.19 1.64-2.74 5.48-4.92 8.77-1.1 1.65-3.29 7.14-4.93 11.53-1.1 3.29-1.64 5.48-3.29 6.58-1.1 1.1-2.19 2.2-3.83 1.65l-3.28-1.65c-1.65-1.1-4.93-7.13-7.12-10.97-1.64-3.84-5.47-9.33-7.66-12.07-3.29-4.4-4.93-5.5-9.86-5.5-9.85 0-10.95 5.5-15.33 13.72-2.18 3.85-2.73 9.33-6.56 13.72-1.65 2.2-8.76 12.62-13.69 14.27v75.71-.55c.55-1.1.55-2.2 1.1-2.74 2.18-3.84 6.56-7.68 8.75-12.07 1.1-2.2 2.74-4.39 3.84-7.13.54-1.65 1.1-4.94 2.19-6.59 1.09-2.2 3.28-2.74 5.47-3.29 3.83-.55 6.57 4.94 10.95 7.13 1.64 1.1 10.4 3.84 13.14 4.4 4.38 1.09 8.76 1.64 13.13 2.74 2.2.54 4.38.54 7.12 1.1 2.2 0 10.4.54 10.4 1.09-3.83 2.2-6.57 7.68-8.2 12.07-1.65 4.39-2.75 9.33-4.39 13.17-2.19 4.39-6.57 6.58-6.02 12.07 0 2.2.55 4.39 0 6.58-.55 2.75-1.64 4.4-2.19 7.14-1.1 3.29-2.19 13.71-3.28 16.46l8.75-1.1c1.1-2.2 1.65-12.07 2.2-13.17a36 36 0 0 1 7.11-12.62c3.29-3.84 3.29-8.23 4.93-12.62 2.19-4.94 4.92-8.23 7.66-12.62 4.93-7.68 8.21-18.1 18.07-20.3 1.1 0 7.11 4.4 9.85 7.13 3.28 3.3 6.57 6.59 8.76 10.98 3.83 8.23 7.66 20.3 8.76 26.33.55 3.84 1.1 3.84 3.83 7.14 1.1 1.1 3.28 5.48 4.38 7.13.55 1.65 2.19 5.48 2.74 7.68.54 1.1 2.19 4.94 3.28 8.23h8.21c-3.28-9.33-6.02-18.65-7.11-27.98"/></g><defs><linearGradient id="b" x1="127.7" x2="127.7" y1=".12" y2="257.04" gradientUnits="userSpaceOnUse"><stop stop-color="#F29100"/><stop offset="1" stop-color="#EC670F"/></linearGradient><clipPath id="a"><rect width="256" height="256" fill="#fff" rx="60"/></clipPath></defs></svg>