<svg xmlns="http://www.w3.org/2000/svg" width="256" height="256" fill="none" viewBox="0 0 256 256"><rect width="256" height="256" fill="#F4F2ED" rx="60"/><path fill="url(#a)" d="M61.85 48.77c-31 33.7-23.49 96.48 16.78 140.24s98.03 51.91 129.03 18.22c31-33.7 23.51-96.49-16.75-140.24S92.86 15.09 61.85 48.77m28.12 14c24.36-26.47 69.15-20.72 100.05 12.86s36.2 82.26 11.83 108.73c-24.36 26.48-69.16 20.73-100.06-12.85S65.6 89.24 89.97 62.77"/><path fill="#FF7F2A" stroke="#D45500" stroke-width="6.29" d="M196.29 60.74h-16.77a4.6 4.6 0 0 0-4.6 4.59V82.1a4.6 4.6 0 0 0 4.6 4.6h16.77a4.6 4.6 0 0 0 4.59-4.6V65.33a4.6 4.6 0 0 0-4.6-4.6ZM79.32 94.93h-39.5A10.8 10.8 0 0 0 29 105.75v39.5c0 5.97 4.84 10.82 10.82 10.82h39.5c5.97 0 10.82-4.84 10.82-10.82v-39.5c0-5.97-4.85-10.82-10.82-10.82Zm138.08 80.04h-23.87a6.54 6.54 0 0 0-6.53 6.53v23.87c0 3.6 2.92 6.53 6.53 6.53h23.87c3.6 0 6.53-2.93 6.53-6.53V181.5c0-3.6-2.93-6.53-6.53-6.53Z"/><defs><radialGradient id="a" cx="0" cy="0" r="1" gradientTransform="rotate(-47.38 272.92 -1.63)scale(300.774 999.837)" gradientUnits="userSpaceOnUse"><stop stop-color="#008CBE"/><stop offset="1" stop-color="#B2FFFF"/></radialGradient></defs></svg>