<svg xmlns="http://www.w3.org/2000/svg" width="256" height="256" fill="none" viewBox="0 0 256 256"><rect width="256" height="256" fill="#F4F2ED" rx="60"/><path fill="#ED1844" fill-rule="evenodd" d="M200.68 40H54.67C45.5 40 38 47.5 38 56.67v39.2h40.44v-6.42a9 9 0 0 1 9.01-9.01h80.42a9 9 0 0 1 9.01 9.01v6.42h40.44v-39.2c0-9.17-7.5-16.67-16.67-16.67zm-23.15 126.1a9 9 0 0 1-9.01 9.02H88.1a9 9 0 0 1-9.01-9.02v-6.42H38.65v39.2c0 9.17 7.5 16.68 16.67 16.68h146.01c9.17 0 16.67-7.5 16.67-16.68v-39.2h-40.44zM38.62 107.6v40.44h40.13V107.6zm138.91 0v40.44h40.13V107.6z" clip-rule="evenodd"/></svg>