<svg xmlns="http://www.w3.org/2000/svg" width="256" height="256" fill="none" viewBox="0 0 256 256"><rect width="256" height="256" fill="#000" rx="60"/><path fill="#fff" d="M55.34 153.89a5.06 5.06 0 0 1-2.07-9.7l22.22-9.89a5.07 5.07 0 0 1 4.12 9.26l-22.21 9.89q-.99.44-2.06.44m-10.27 26.76a5.06 5.06 0 0 1-2.07-9.7l22.22-9.89a5.07 5.07 0 1 1 4.12 9.26l-22.21 9.89q-.99.44-2.06.44m142.64-85.7a5.06 5.06 0 0 1-2.06-9.7l22.23-9.89a5.07 5.07 0 0 1 4.11 9.26l-22.22 9.89a5 5 0 0 1-2.06.44m-10.26 26.75a5.06 5.06 0 0 1-2.06-9.69l22.21-9.89a5.04 5.04 0 0 1 7.12 4.5 5.1 5.1 0 0 1-3 4.75l-22.22 9.9a5 5 0 0 1-2.05.44"/><path fill="#E00" d="M127.1 206.13a77.8 77.8 0 0 1-49.63-17.98 5.07 5.07 0 0 1 6.45-7.81 67.92 67.92 0 0 0 111.17-49.49 4.95 4.95 0 0 1 5.28-4.85 5.06 5.06 0 0 1 4.84 5.28 78.27 78.27 0 0 1-78.1 74.85m-72.78-76.27h-.23a5.07 5.07 0 0 1-4.83-5.3A78.06 78.06 0 0 1 176.99 67.9a5.07 5.07 0 0 1-6.46 7.82 67.92 67.92 0 0 0-111.14 49.3 5.07 5.07 0 0 1-5.06 4.84"/></svg>