<svg xmlns="http://www.w3.org/2000/svg" width="256" height="256" fill="none" viewBox="0 0 256 256"><rect width="256" height="256" fill="#ED225D" rx="60"/><path fill="#fff" d="M176.53 145.88a28 28 0 0 0-7.28-9.9 32 32 0 0 0-10.97-6.16 43 43 0 0 0-13.65-2.12q-2.7 0-6.02.28t-5.73 1l1-21.65h40.88V92.05h-57.02l-1.7 54.75q2.26-1.13 5.17-2.12a79 79 0 0 1 5.94-1.77q3.04-.76 6.23-1.2 3.18-.42 6.01-.42 4.1 0 8.07.92 3.96.91 7.14 3.25a17.5 17.5 0 0 1 5.17 6.15q1.97 3.82 1.98 9.63 0 4.52-1.49 8.13a17 17 0 0 1-4.03 6.01 18 18 0 0 1-5.94 3.68 20 20 0 0 1-7.22 1.28q-6.79 0-11.75-3.61a19.7 19.7 0 0 1-7.07-9.55l-.19.07-12.29 11.51a33 33 0 0 0 9.65 10.14q8.63 5.87 21.23 5.87 7.5 0 14.14-2.4a32.7 32.7 0 0 0 19.46-18.04 37 37 0 0 0 2.9-14.93q0-7.65-2.62-13.52M48.74 124.3v9.49h.42a25 25 0 0 1 3.32-4.04 22 22 0 0 1 5.03-3.68 31 31 0 0 1 15.14-3.75q7.21 0 13.3 2.76a32 32 0 0 1 10.47 7.58 34 34 0 0 1 6.8 11.31q2.4 6.51 2.4 14.01t-2.34 14.08a35 35 0 0 1-6.65 11.46 32 32 0 0 1-10.47 7.78 32 32 0 0 1-13.94 2.9q-7.2 0-13.23-2.97a22.5 22.5 0 0 1-9.26-8.06h-.29v43.01H32.46V124.31zm39.61 33.68q0-3.96-1.2-7.85a22 22 0 0 0-3.6-7 18 18 0 0 0-6.1-5.03 18.5 18.5 0 0 0-8.62-1.9q-4.68 0-8.35 1.97a21.4 21.4 0 0 0-10.26 12.17 23.8 23.8 0 0 0 0 15.78q1.35 3.9 3.96 7a20 20 0 0 0 6.3 5.03 18 18 0 0 0 8.35 1.9 18 18 0 0 0 14.71-7.07q2.4-3.1 3.61-7.07 1.2-3.97 1.2-7.93m123.72-56.02 10.78-3.26 2.12 6.52-10.74 3.66 6.67 9.46-5.62 4.07-7.02-9.29-6.84 9.05-5.46-4.16 6.67-9.13-10.82-3.9 2.12-6.53 10.87 3.5V90.71h7.27z"/></svg>