<svg xmlns="http://www.w3.org/2000/svg" width="256" height="256" fill="none" viewBox="0 0 256 256"><rect width="256" height="256" fill="#004065" rx="60"/><path fill="#fff" d="M88.76 227.96c-3.55-.22-6.58-1.1-9-2.62-.83-.51-1.01-.8-1.01-1.64 0-.43.04-.6.28-1a6 6 0 0 1 2.04-1.76c.9-.5 3.47-1.54 4.34-1.75a9 9 0 0 0 3.72-1.78 7.5 7.5 0 0 0 2.35-3.36c.1-.3.47-1.09.83-1.74a45 45 0 0 0 5.45-27.3c-.07-.57-.2-1.8-.26-2.74a60 60 0 0 0-2.18-12.43 10 10 0 0 1-.36-1.85 76 76 0 0 0-2.06-12.39c-.52-2.08-.56-2.62-.57-8.66-.02-6.27-.1-7.67-.53-9.76-.2-.96-.57-2.3-.64-2.3a28 28 0 0 1-10 3.8 16 16 0 0 0-1.53.39c-.81.26-2.02.33-2.85.15a5 5 0 0 1-3.2-2.11c-.55-.87-1.1-1.08-1.94-.74-.2.08-.85.53-1.45 1-1.14.9-1.6 1.14-2.1 1.14-.4 0-.7-.2-1.09-.7-.65-.86-4.72-3.9-7.48-5.6-.56-.33-1.24-.79-1.52-1a14.5 14.5 0 0 0-5.5-2.52l-.91-.2-.22-.38c-.22-.36-.22-.39-.2-2.03.03-2.12-.01-2.28-.84-2.96-.32-.26-.67-.6-.78-.75-.34-.47-.9-.55-2-.29-1.77.43-2.11.12-3.15-2.97a23 23 0 0 0-.72-1.9 4.2 4.2 0 0 0-2.3-2.15c-1.13-.49-2.6-2.16-3.36-3.82-.83-1.8-1.17-3.75-1.37-7.84-.1-2.21-.23-3.68-.4-4.88-.61-4.4-.56-10.66.14-15.8l.18-1.3.77-1.47a116 116 0 0 0 5.1-11.1c0-.14-.94-.7-1.75-1.03-1.48-.63-3.08-.96-6.98-1.44-1.3-.16-2.83-.38-3.4-.49-3.32-.63-5.36-1.75-6.74-3.7a3 3 0 0 1-.47-1.15c-.41-2.03.42-4.1 2.6-6.49a51 51 0 0 1 5.74-4.84c1.48-.82 2.92-1.12 6.48-1.35a25 25 0 0 0 4.93-.67c1.02-.27 1.95-.43 3.3-.56 2.72-.25 3.96-.58 4.87-1.3.47-.37.9-1 1.05-1.54a4.8 4.8 0 0 1 2.23-2.5c.24-.14 1.15-.56 2.02-.94 1.8-.79 2.43-1.12 3.1-1.67.27-.21.57-.42.67-.46a5.3 5.3 0 0 1 2.91-.2c.77.16 1.52.46 3.38 1.34 1.56.75 3.04 1.28 3.54 1.28.4 0 2.92 1.4 4.78 2.66 2.04 1.37 5.73 4.65 6.33 5.63.19.31.43 1.28.65 2.64.22 1.37.43 2.09.8 2.68.25.43.5.68 1.63 1.56 1.07.84 2.23 2.8 2.73 4.62.53 1.94.68 4 .56 8.03a63 63 0 0 0 0 4.95 16 16 0 0 1-.01 2.86c-.2 1.52-.63 2.87-1.37 4.25-.23.43-.41.91-.47 1.25-.16.85-.47 1.54-1.54 3.41-1.47 2.56-1.63 3.06-1.49 4.8.05.54.06 1.29.02 1.66a16 16 0 0 0-.07 3.43c.23.78.79 1.1 1.75 1.04.32-.02.64-.06.72-.09.37-.12.88-1.52 1.34-3.66.34-1.58.66-2.7.89-3.17l.96-2.36a60 60 0 0 1 4.38-9.08 35 35 0 0 1 8.02-9.55 27 27 0 0 1 5.69-3.66c.7-.33 1.5-.81 2.23-1.32 1.34-.93 4.1-3.19 5.3-4.34a41 41 0 0 0 9.16-12.88 7 7 0 0 1 1.82-2.74c.9-.9 1.9-1.75 4.1-3.5 2.84-2.22 3.91-3.24 4.99-4.72l.57-.78 1.8-.35c3.37-.66 7.32-1.64 8.45-2.1.33-.14 1.57-.7 2.75-1.26a25 25 0 0 1 5.09-1.94c.7-.16 1.15-.2 2.76-.25 3.07-.1 5.17-.3 8-.71 1.58-.24 1.3-.28 4.26.54 1.98.55 4.82 1.47 6.24 2.02 1.13.44 2.81 1.46 4.6 2.8 4.64 3.44 8.1 8.44 9.4 13.59a28 28 0 0 0 2.64 5.75c1.73 2.91 3.6 5.34 8.46 11 2.77 3.23 4.03 4.76 5.15 6.26a38 38 0 0 1 4.92 8.25c.21.5.73 1.5 1.16 2.2a78 78 0 0 0 14.83 17.77c.89.8 1.49 1.5 2.13 2.53 1.19 1.9 1.9 4.02 2.68 7.99a54 54 0 0 0 1.06 4.67c.31 1.08.32 1.08.88 1.68 1.45 1.56 1.77 3.2.78 4.04-.35.3-1 .55-1.39.55-.16 0-.17.04-.12.65.03.35.21 1.27.4 2.04s.4 1.7.46 2.07a4.3 4.3 0 0 1-.65 3.16c-.16.22-.44.82-.62 1.33a80 80 0 0 1-6.42 13.35l-1.45 2.48a3.9 3.9 0 0 1-2.98 1.85c-.44 0-.54-.03-.82-.24-.46-.34-.62-.71-.78-1.8-.08-.53-.25-1.59-.4-2.36-.38-2.1-.52-3.14-.58-4.3q-.16-3.34 1.5-5.5c.48-.62.58-.86.88-2.19.4-1.83.57-4.03.47-6.2a22 22 0 0 0-1.18-6.11 3.7 3.7 0 0 1-.3-1.97 12 12 0 0 0-2.72-7.99c-.14-.07-.86.57-1.08.95a8 8 0 0 0-.62 2.64c-.08.63-.22 1.4-.3 1.7a32 32 0 0 0-.75 3.96 80 80 0 0 0 1.4 30.85 42 42 0 0 1 .57 2.67c.12.95.1 2.94-.04 4.67-.28 3.19-.32 4.23-.22 5.38.14 1.74.23 2 .8 2.65 1.3 1.42 1.78 2.8 1.77 5.02 0 1.5-.13 2.28-.86 5.44a60 60 0 0 0-.65 3.21l-.44 2.63c-1.4 8-.67 16.24 2.12 23.93.29.8.42 1.35.53 2.15.3 2.09.85 4.45 1.54 6.6l.35 1.06-.27.4a9.3 9.3 0 0 1-5.75 3.76c-.78.18-.98.2-2.34.2-1.62 0-2.1-.08-3.29-.52-.56-.21-.58-.21-1.92-.18-3.05.07-3.87.04-4.3-.13a2.5 2.5 0 0 1-1.28-1.08c-.38-.7-.24-2.05.34-3.34.14-.33.7-1.34 1.21-2.26 1.32-2.32 1.75-3.48 1.75-4.77 0-.22.11-.77.25-1.23a65 65 0 0 0 1.64-30.96c-.42-2.35-.53-3.2-.89-7.13-.46-5.15-.8-7.36-1.46-9.65-.26-.9-.3-.98-.84-1.62a43 43 0 0 1-8.24-14.7 38 38 0 0 0-1.15-2.89 106 106 0 0 1-4.74-12.81c-.1-.36-.22-.65-.25-.65q-.06.02-.2.2l-.88 1.25a44.4 44.4 0 0 0-8.09 20.9 55 55 0 0 0 .05 9.98c.06 1.07.19 2.1.43 3.51.6 3.51.66 4.65.27 6.03a6 6 0 0 1-1.4 2.38c-.24.23-1.4 1.63-2.56 3.1l-3.85 4.84c-4.55 5.73-6.84 9.47-8.27 13.54-.6 1.71.1 2.8 2.73 4.15 2.38 1.24 2.91 1.68 3.68 3.03a24 24 0 0 1 2.8 8.11c.15 1.03.27 3.92.18 4.44-.06.33-.06.34-.7.57l-1.76.67c-2.8 1.08-4.38 1.26-5.8.68-.77-.32-1.24-.8-2.45-2.51-1.5-2.12-4.64-6.1-4.94-6.26-.23-.12-.64 1.2-.96 3.07-.4 2.3-.75 3.15-1.61 3.87-.59.5-1.06.7-2.51 1.11a37 37 0 0 1-10.24 1.39c-2.42 0-3.78-.1-6.09-.47-1.02-.16-1.04-.16-1.33-.47-1.19-1.22-.77-2.85 1.12-4.37 1.15-.92 1.78-1.24 4.02-2.06a12.6 12.6 0 0 0 5.95-4.55c.4-.57 1.13-2.02 1.14-2.22 0-.07.18-.32.4-.56.52-.56.8-1.02.95-1.6.36-1.28-.06-2.53-1.16-3.51l-1.48-1.4a76 76 0 0 0-6.03-5.03c-.77-.57-2.78-2.01-4.47-3.21-4.71-3.35-6.5-4.7-8.59-6.52a9 9 0 0 1-2.22-2.62c-1.9-3.33-2.07-7.65-.53-13.65a6 6 0 0 1 .9-2.07c.71-1.2 1.18-2.32 1.52-3.66.34-1.36.38-3.37.12-5.01-.3-1.87-.21-2.63.66-5.34.54-1.66.78-2.58.87-3.32l.06-.5-.42-.05c-.66-.1-4.18-.07-5.16.03a34 34 0 0 0-4.61.79l-.49.12-.06 2.2c-.1 3.88-.5 8.35-1.06 11.72-.11.68-.14.74-.49 1.08-.86.82-2.03 2.53-2.56 3.75-.52 1.2-.8 2.22-.94 3.58-.1.87-.12.94-.44 1.4a5 5 0 0 0-.84 1.83c-.14.5-.16 1.03-.2 3.62-.04 4.22-.04 4.14.03 6.36.06 1.6.04 2.25-.07 3.22a24 24 0 0 1-2.52 8.39 26 26 0 0 0-1.95 6.37c-.5 2.57-.71 4.24-1.24 9.95-.33 3.7-.48 5.05-.74 6.88-.42 2.88-1.18 6.15-1.57 6.69-.52.72-.64 1.64-.5 3.75.18 2.49 0 3.25-.88 4.06-.57.52-1.15.79-2.57 1.18-3.3.9-6.95 1.3-10 1.12m67.46-43.04c.32-.12.78-.64.88-.98.02-.1.3-.5.59-.9a28 28 0 0 0 5.17-10.68c.4-1.67.56-2.79.67-4.66.1-1.4.08-1.81-.09-3.96a247 247 0 0 0-3.74-27.52c-.24-1.24-.43-2-.51-2.06-.18-.15-.59 0-1.09.38-.73.57-1.04 1.37-1.33 3.38a8 8 0 0 1-.57 2.4 13 13 0 0 0-.7 3.07c-.47 3.14-1.05 4.35-2.45 5.11-.46.25-.61.39-.78.7a9 9 0 0 0-.97 3.44c-.39 3-.6 3.9-1.14 4.8l-.33.55.14.93c.24 1.54.13 2.63-.32 3.38-.44.72-.93.96-2.2 1.06-1.47.12-2.25.59-3.84 2.33-.49.52-1.11 1.14-1.4 1.37-1 .8-2.47 2.93-2.89 4.19a4 4 0 0 0 .05 2.66c.28.7.53 1.05 1.5 2.15.4.44 1.33 1.6 2.08 2.55 1.5 1.92 2.48 2.96 3.38 3.59a8 8 0 0 0 4.22 1.48c1.28.11 1.11.07 2.67.69.68.26 1.39.52 1.58.57.5.14 1.06.13 1.42-.02"/></svg>