<svg xmlns="http://www.w3.org/2000/svg" width="256" height="256" fill="none" viewBox="0 0 256 256"><rect width="256" height="256" fill="#001E36" rx="60"/><path fill="#31A8FF" d="M57.6 178.04V68.28c0-.75.32-1.17 1.07-1.17 1.81 0 3.52 0 5.97-.11 2.56-.1 5.23-.1 8.1-.21 2.89-.11 5.98-.11 9.29-.22s6.5-.1 9.7-.1c8.75 0 16 1.06 21.98 3.3A38 38 0 0 1 128 78.52a34 34 0 0 1 7.79 12.16 41 41 0 0 1 2.45 13.87q0 13.75-6.4 22.72a36.6 36.6 0 0 1-17.17 13.01c-7.26 2.67-15.26 3.63-24 3.63-2.56 0-4.27 0-5.34-.11-1.06-.1-2.56-.1-4.58-.1v34.23c.1.75-.43 1.39-1.18 1.5H58.88c-.85 0-1.28-.43-1.28-1.39m23.25-90.35v35.84c1.5.11 2.88.22 4.16.22h5.66c4.16 0 8.32-.64 12.26-1.92 3.42-.96 6.4-2.99 8.75-5.66 2.24-2.66 3.3-6.29 3.3-10.98.11-3.31-.74-6.62-2.45-9.5a15.5 15.5 0 0 0-7.46-6.08 31 31 0 0 0-12.59-2.13c-2.77 0-5.23 0-7.25.1-2.14-.1-3.63 0-4.38.11m123.95 29.34a38 38 0 0 0-10.24-3.63 56 56 0 0 0-11.95-1.39c-2.13-.1-4.37.22-6.4.75a5.5 5.5 0 0 0-3.3 2.13 5.7 5.7 0 0 0-.86 2.88c0 .96.43 1.92 1.07 2.78a12 12 0 0 0 3.63 2.88 98 98 0 0 0 7.57 3.52 77 77 0 0 1 16.43 7.78 25 25 0 0 1 8.42 8.86 23 23 0 0 1 2.46 10.98 25 25 0 0 1-4.16 14.19 26.7 26.7 0 0 1-11.95 9.5c-5.23 2.23-11.63 3.4-19.3 3.4-4.91 0-9.71-.42-14.51-1.38a43 43 0 0 1-10.88-3.41c-.75-.43-1.28-1.18-1.18-2.03v-18.56c0-.32.11-.75.43-.96s.64-.1.96.1a46 46 0 0 0 13.23 5.23 50 50 0 0 0 12.58 1.6c4.06 0 6.94-.53 8.86-1.49a5 5 0 0 0 2.88-4.48c0-1.5-.86-2.88-2.56-4.27s-5.23-2.98-10.46-5.01a65 65 0 0 1-15.14-7.68 28 28 0 0 1-8.11-9.07 23 23 0 0 1-2.45-10.88 25 25 0 0 1 3.62-12.9 26.3 26.3 0 0 1 11.2-9.82c5.02-2.56 11.31-3.73 18.88-3.73 4.38 0 8.86.32 13.23.96 3.2.43 6.3 1.28 9.17 2.45.43.11.86.54 1.07.96.1.43.21.86.21 1.28v17.39c0 .43-.21.85-.53 1.07-.96.21-1.5.21-1.92 0"/></svg>