<svg xmlns="http://www.w3.org/2000/svg" width="256" height="256" fill="none" viewBox="0 0 256 256"><rect width="256" height="256" fill="#242938" rx="60"/><path fill="#fff" d="M49.16 100.25h28.4q12.52.1 18.13 7.2 5.62 7.1 3.71 19.4a37 37 0 0 1-3.28 11.03 33 33 0 0 1-6.79 9.75q-5.3 5.5-11.34 7-6.05 1.47-12.5 1.48H52.75l-4.03 20.14H34zm12.4 12.08-6.36 31.8q.64.1 1.27.1h1.49q10.17.11 16.96-2 6.78-2.24 9.11-15.48 1.9-11.13-3.81-12.83-5.63-1.7-14.1-1.59-1.27.1-2.44.1h-2.23zM116.19 80h14.62l-4.13 20.25h13.14q10.81.2 16.12 4.45 5.4 4.24 3.18 16.11l-7.1 35.3h-14.85l6.79-33.71q1.06-5.3-.64-7.53-1.7-2.22-7.31-2.22l-11.77-.1-8.69 43.56h-14.63zm58.63 20.25h28.41q12.5.1 18.13 7.2t3.7 19.4a37 37 0 0 1-3.28 11.03 33 33 0 0 1-6.78 9.75q-5.31 5.5-11.34 7-6.04 1.47-12.51 1.48h-12.72l-4.03 20.14h-14.73zm12.4 12.08-6.35 31.8q.63.1 1.27.1h1.48q10.18.11 16.96-2 6.78-2.24 9.12-15.48 1.9-11.13-3.82-12.83-5.61-1.7-14.1-1.59-1.27.1-2.43.1h-2.23z"/></svg>