<svg xmlns="http://www.w3.org/2000/svg" width="256" height="256" fill="none" viewBox="0 0 256 256"><g clip-path="url(#a)"><path fill="#F4F2ED" d="M196 0H60A60 60 0 0 0 0 60v136a60 60 0 0 0 60 60h136a60 60 0 0 0 60-60V60a60 60 0 0 0-60-60"/><g clip-path="url(#b)"><path fill="url(#c)" fill-rule="evenodd" d="M121.46 124.78c15.18-14.44 10.55-32.3-3.19-53.94S76.87 41.5 71.7 46.42c-5.16 4.91-6.31 40.02 7.43 61.66s27.15 31.14 42.33 16.7" clip-rule="evenodd"/><path fill="url(#d)" fill-rule="evenodd" d="M134.58 126.78c11.23 17.68 26.24 11.21 44.82-6.47s26.29-51.54 22.47-57.55-32.84-5.7-51.42 11.98-27.09 34.37-15.87 52.04" clip-rule="evenodd"/><path fill="url(#e)" fill-rule="evenodd" d="M128.44 117.06c18.64 2.28 25.97-14.92 29.4-42.72 3.41-27.8-10.67-57.19-17-57.97-6.34-.77-27.64 24.28-31.06 52.08-3.43 27.8.03 46.33 18.66 48.6" clip-rule="evenodd"/><path fill="url(#f)" fill-rule="evenodd" d="M123.76 240c39.08 0 70.78-11.34 70.78-62.76s-31.7-93.62-70.78-93.62c-39.09 0-70.76 42.2-70.76 93.62S84.67 240 123.76 240" clip-rule="evenodd"/><path fill="#EAADCC" d="M159.5 166.74c5.59 0 10.11-2.1 10.11-4.7 0-2.59-4.52-4.69-10.1-4.69s-10.11 2.1-10.11 4.7c0 2.59 4.52 4.7 10.1 4.7m-74.86-2.86c5.54.68 10.29-.86 10.6-3.43s-3.91-5.21-9.46-5.9c-5.54-.67-10.29.86-10.6 3.44-.32 2.57 3.92 5.21 9.46 5.89"/><path stroke="#000" stroke-linecap="round" stroke-linejoin="round" stroke-width="6" d="M130.23 160.38a13.6 13.6 0 0 1-10.54 3.03q-5.98-.69-8.86-4.96"/><path fill="#000" fill-rule="evenodd" d="M91.08 135.94a10.08 10.08 0 0 1 7.75 16.98 10.1 10.1 0 0 1-14.3.5 10.06 10.06 0 0 1-.5-14.27 10 10 0 0 1 7.05-3.2" clip-rule="evenodd"/><path fill="#fff" fill-rule="evenodd" d="M91.61 144.38a3.3 3.3 0 1 0-6.58.24 3.3 3.3 0 0 0 6.58-.24" clip-rule="evenodd"/><path fill="#000" fill-rule="evenodd" d="M152.34 138.5a10.09 10.09 0 1 1 .7 20.19 10.08 10.08 0 0 1-7.75-16.98 10 10 0 0 1 7.05-3.2" clip-rule="evenodd"/><path fill="#fff" stroke="#fff" stroke-width="3" d="M100.13 145.73a8.7 8.7 0 1 1-17.38.6 8.7 8.7 0 0 1 17.38-.6Zm2.81-.1a11.51 11.51 0 1 0-23.01.82 11.51 11.51 0 0 0 23.01-.82Zm58.44 2.67a8.69 8.69 0 1 1-17.37.6 8.69 8.69 0 0 1 17.37-.6Zm2.82-.1a11.52 11.52 0 1 0-23.02.82 11.52 11.52 0 0 0 23.02-.82Z"/><path fill="#fff" fill-rule="evenodd" d="M152.87 146.95a3.29 3.29 0 1 0-6.58.23 3.29 3.29 0 0 0 6.58-.23" clip-rule="evenodd"/><path stroke="#ECB732" stroke-linecap="round" stroke-width="11" d="m70.16 182 34.8 36.16m-4.7-31.93-22.1 23.48M176.9 182l-34.8 36.16m4.7-31.93 22.1 23.48"/><path stroke="#FFC73B" stroke-linecap="round" stroke-width="11" d="m137.88 102.17-23.05 23.01m18.34 0-23.04-23"/></g></g><defs><linearGradient id="c" x1="7650.74" x2="13921.9" y1="-5867.43" y2="11695.8" gradientUnits="userSpaceOnUse"><stop stop-color="#52CE63"/><stop offset="1" stop-color="#51A256"/></linearGradient><linearGradient id="d" x1="6131.59" x2="-11449.7" y1="7642.74" y2="13929.1" gradientUnits="userSpaceOnUse"><stop stop-color="#52CE63"/><stop offset="1" stop-color="#51A256"/></linearGradient><linearGradient id="e" x1="7781.96" x2="4321.49" y1="952.47" y2="29199.5" gradientUnits="userSpaceOnUse"><stop stop-color="#8AE99C"/><stop offset="1" stop-color="#52CE63"/></linearGradient><linearGradient id="f" x1="23250" x2="19508.6" y1="13116.7" y2="74634.6" gradientUnits="userSpaceOnUse"><stop stop-color="#FFE56C"/><stop offset="1" stop-color="#FFC63A"/></linearGradient><clipPath id="a"><path fill="#fff" d="M0 0h256v256H0z"/></clipPath><clipPath id="b"><path fill="#fff" d="M53 16h150v224H53z"/></clipPath></defs></svg>