<svg xmlns="http://www.w3.org/2000/svg" width="256" height="256" fill="none" viewBox="0 0 256 256"><g clip-path="url(#a)"><path fill="#242938" d="M196 0H60A60 60 0 0 0 0 60v136a60 60 0 0 0 60 60h136a60 60 0 0 0 60-60V60a60 60 0 0 0-60-60"/><path fill="#6B9543" d="m178.27 69.9 4.83-26.06a100 100 0 0 0-23.68-11.46l-17.84 19.76a76 76 0 0 0-26.3-.15l-17.62-20A100 100 0 0 0 73.8 43.15l4.5 26.12a75 75 0 0 0-16.55 20.26L35 90.68a97 97 0 0 0-6.03 25.39l23.47 12.8a74 74 0 0 0 5.69 25.42l-15.8 21.42a99 99 0 0 0 16.31 20.5l24.76-10.16a76 76 0 0 0 23.64 11.45l7.08 25.57a100 100 0 0 0 26.37.16l7.4-25.47a75 75 0 0 0 23.78-11.15l24.61 10.46a98 98 0 0 0 16.57-20.3l-15.51-21.62a74 74 0 0 0 6.02-25.33L227 117.3a98 98 0 0 0-5.71-25.47l-26.75-1.48a75 75 0 0 0-16.28-20.45z"/><path fill="#E9F4CA" d="M129.51 186.8c34.58 0 62.62-27.73 62.62-61.94s-28.04-61.94-62.62-61.94S66.9 90.65 66.9 124.86s28.04 61.94 62.62 61.94"/><path fill="#C8D987" d="M85.25 154.01c16.34 27.97 49.35 37.32 41.46-20.6a16.3 16.3 0 0 0-6.86-11.16C70.8 88.1 67.4 123.5 85.25 154m30.66-16.22c1.4-.34 2.47.25 2.96 1.63 6.5 18.02-5.17 24.57-13.34 20.53-7.5-3.7-7.5-17.72 10.38-22.16m-4.25-10.72c.95 1.12.93 2.34-.06 3.34-12.81 13.12-25.1 6.1-24.6-2.14.53-9.01 12.1-15.76 24.66-1.2"/><path fill="#C8D987" d="M118.75 163.1c7.26-4.15 6.9-18.21-.8-31.41s-19.84-20.54-27.1-16.39-6.91 18.22.79 31.42 19.84 20.53 27.1 16.38m7.37-90.74c-32.65.02-57.35 23.63-2.7 45.82a16.7 16.7 0 0 0 13.2-.3c54.42-24.92 25.11-45.55-10.52-45.53zM125 106.75c-.4 1.35-1.45 1.98-2.9 1.73-19.03-3.44-18.94-16.72-11.32-21.7 6.98-4.56 19.27 2.44 14.22 19.99zm11.51 1.7c-1.45.26-2.52-.35-2.9-1.72-5.1-17.53 7.2-24.55 14.17-20 7.62 4.97 7.76 18.25-11.27 21.7z"/><path fill="#C8D987" d="M129.3 111.55c15.4 0 27.9-6.73 27.9-15.03s-12.5-15.03-27.9-15.03c-15.42 0-27.9 6.73-27.9 15.03s12.49 15.03 27.9 15.03m47.88 36.66c16.3-27.99 7.99-60.94-38.78-25.22a16.2 16.2 0 0 0-6.34 11.47c-5.4 59.09 27.32 44.3 45.12 13.77zm-29.55-18.15c-1-1.03-1.02-2.25-.06-3.35 12.52-14.57 24.1-7.85 24.65 1.16.52 8.26-11.77 15.28-24.6 2.19m-7.26 9c.5-1.37 1.57-1.96 2.96-1.63 17.88 4.4 17.9 18.45 10.42 22.15-8.15 4.03-19.84-2.48-13.38-20.52"/><path fill="#C8D987" d="M167.57 146.37c7.7-13.2 8.06-27.27.8-31.42-7.27-4.14-19.4 3.2-27.11 16.39-7.7 13.2-8.06 27.26-.8 31.41s19.4-3.18 27.11-16.38"/></g><defs><clipPath id="a"><path fill="#fff" d="M0 0h256v256H0z"/></clipPath></defs></svg>