<svg xmlns="http://www.w3.org/2000/svg" width="256" height="256" fill="none" viewBox="0 0 256 256"><rect width="256" height="256" fill="#F4F2ED" rx="60"/><g clip-path="url(#a)"><path fill="#000" d="M171.47 169.03c1.15-9.54.8-10.93 7.9-9.39l1.81.16c5.47.25 12.61-.88 16.88-2.82 9.03-4.2 14.4-11.2 5.48-9.36-20.32 4.2-21.8-2.69-21.8-2.69 21.47-31.85 30.45-72.28 22.7-82.17-21.12-27-57.7-14.23-58.3-13.9l-.2.04a69 69 0 0 0-13.57-1.4c-9.2-.15-16.18 2.4-21.48 6.42 0 0-65.23-26.87-62.2 33.8.65 12.9 18.5 97.73 39.8 72.07 7.8-9.38 15.32-17.3 15.32-17.3a19.7 19.7 0 0 0 12.9 3.28l.36-.3q-.15 1.83.15 3.64c-5.48 6.13-3.87 7.2-14.83 9.46-11.1 2.29-4.58 6.36-.33 7.43 5.16 1.3 17.1 3.12 25.17-8.17l-.32 1.28c2.15 1.73 2 12.38 2.32 19.99s.82 14.71 2.37 18.9 3.38 14.97 17.79 11.95c12.04-2.58 21.26-6.3 22.1-40.85"/><path stroke="#000" stroke-width="15.11" d="M171.47 169.03c1.15-9.54.8-10.93 7.9-9.39l1.81.16c5.47.25 12.61-.88 16.88-2.82 9.03-4.2 14.4-11.2 5.48-9.36-20.32 4.2-21.8-2.69-21.8-2.69 21.47-31.85 30.45-72.28 22.7-82.17-21.12-27-57.7-14.23-58.3-13.9l-.2.04a69 69 0 0 0-13.57-1.4c-9.2-.15-16.18 2.4-21.48 6.42 0 0-65.23-26.87-62.2 33.8.65 12.9 18.5 97.73 39.8 72.07 7.8-9.38 15.32-17.3 15.32-17.3a19.7 19.7 0 0 0 12.9 3.28l.36-.3q-.15 1.83.15 3.64c-5.48 6.13-3.87 7.2-14.83 9.46-11.1 2.29-4.58 6.36-.33 7.43 5.16 1.3 17.1 3.12 25.17-8.17l-.32 1.28c2.15 1.73 2 12.38 2.32 19.99s.82 14.71 2.37 18.9 3.38 14.97 17.79 11.95c12.04-2.58 21.26-6.3 22.1-40.85"/><path fill="#336791" d="M203.48 147.69c-20.32 4.19-21.8-2.7-21.8-2.7 21.47-31.85 30.45-72.28 22.7-82.17-21.12-27-57.7-14.22-58.3-13.9l-.2.04q-6.71-1.35-13.56-1.41c-9.2-.14-16.17 2.41-21.48 6.43 0 0-65.23-26.88-62.2 33.8.65 12.9 18.5 97.73 39.8 72.07 7.85-9.44 15.37-17.37 15.37-17.37a19.7 19.7 0 0 0 12.9 3.3l.36-.31q-.15 1.83.15 3.64c-5.48 6.13-3.87 7.2-14.83 9.46-11.1 2.29-4.58 6.36-.33 7.43 5.16 1.3 17.1 3.12 25.17-8.17l-.32 1.28c2.15 1.73 3.66 11.2 3.4 19.8-.25 8.59-.42 14.48 1.27 19.1 1.69 4.6 3.37 14.97 17.79 11.95 12.04-2.58 18.28-9.28 19.16-20.44.62-7.93 2-6.76 2.1-13.85l1.13-3.36c1.29-10.76.21-14.22 7.63-12.6l1.8.16c5.47.24 12.62-.88 16.81-2.83 9.04-4.2 14.4-11.2 5.49-9.35z"/><path stroke="#fff" stroke-linecap="round" stroke-linejoin="round" stroke-width="5.03" d="M146.07 48.6c-2.25.7 36.31-14.1 58.23 13.9 7.74 9.9-1.23 50.33-22.7 82.18m-53.5 9.1c-.56 20.01.14 40.17 2.1 45 1.95 4.84 6.15 14.42 20.57 11.34 12.04-2.58 16.43-7.58 18.33-18.61l4.45-35.28zM110.82 53.47s-65.28-26.7-62.24 33.98c.64 12.91 18.49 97.74 39.8 72.07 7.77-9.37 14.8-16.7 14.8-16.7z"/><path stroke="#fff" stroke-linecap="round" stroke-linejoin="bevel" stroke-width="5.03" d="M181.61 144.66s1.41 6.9 21.8 2.69c8.9-1.84 3.54 5.16-5.48 9.35-7.42 3.45-24.04 4.33-24.31-.42-.7-12.27 8.75-8.54 8.06-11.62-.62-2.77-4.85-5.48-7.63-12.26-2.44-5.9-33.47-51.26 8.6-44.53 1.55-.31-10.97-40.08-50.34-40.65s-38.13 48.4-38.13 48.4"/><path stroke="#fff" stroke-linejoin="round" stroke-width="5.03" d="M117.08 148.87c-5.48 6.13-3.87 7.2-14.83 9.46-11.1 2.29-4.58 6.36-.33 7.43 5.16 1.3 17.1 3.12 25.17-8.18 2.46-3.45-.01-8.93-3.39-10.32-1.63-.68-3.8-1.52-6.6 1.62z"/><path stroke="#fff" stroke-linecap="round" stroke-linejoin="round" stroke-width="5.03" d="M116.72 148.76c-.56-3.6 1.18-7.89 3.05-12.9 2.8-7.53 9.25-15.05 4.09-38.94-3.85-17.79-29.67-3.7-29.67-1.3 0 2.42 1.16 12.24-.43 23.67-2.08 14.92 9.5 27.53 22.83 26.25"/><path fill="#fff" stroke="#fff" stroke-width="1.68" d="M110.58 95.27c-.12.82 1.5 3.02 3.63 3.32 2.11.3 3.92-1.42 4.04-2.25s-1.51-1.73-3.63-2.03-3.94.14-4.04.96Z"/><path fill="#fff" stroke="#fff" stroke-width=".84" d="M175.01 93.59c.11.82-1.51 3.02-3.63 3.32-2.11.3-3.94-1.42-4.04-2.25s1.51-1.73 3.63-2.03c2.11-.3 3.94.14 4.04.96Z"/><path stroke="#fff" stroke-linecap="round" stroke-linejoin="round" stroke-width="5.03" d="M182.58 87.89c.35 6.47-1.4 10.86-1.62 17.74-.32 10 4.77 21.45-2.9 32.91"/></g><defs><clipPath id="a"><path fill="#fff" d="M38 38h180v180H38z"/></clipPath></defs></svg>