<svg xmlns="http://www.w3.org/2000/svg" width="256" height="256" fill="none" viewBox="0 0 256 256"><rect width="256" height="256" fill="#FF6C37" rx="60"/><path fill="#EEE" d="m169.06 88.61-50.54 50.54-14.25-14.25c49.7-49.7 54.61-45.39 64.8-36.29"/><path fill="#FF6C37" d="M118.52 140.35c-.36 0-.6-.12-.84-.36l-14.37-14.25a1.16 1.16 0 0 1 0-1.68c50.54-50.54 55.81-45.75 66.47-36.17.24.24.36.48.36.84s-.12.6-.36.84l-50.54 50.42c-.12.24-.48.36-.72.36m-12.58-15.45 12.58 12.58 48.74-48.75c-8.86-7.9-14.85-10.3-61.31 36.17"/><path fill="#EEE" d="m133.01 153.65-13.77-13.78 50.54-50.54c13.53 13.65-6.7 35.81-36.77 64.32"/><path fill="#FF6C37" d="M133.01 154.84c-.36 0-.6-.12-.84-.36l-13.77-13.77c-.24-.24-.24-.48-.24-.84s.12-.6.36-.84l50.54-50.54c.48-.48 1.2-.48 1.68 0a14.6 14.6 0 0 1 4.67 11.14c-.24 13.3-15.33 30.18-41.44 54.85a2 2 0 0 1-.96.36m-12.1-14.97c7.67 7.79 10.9 10.9 12.1 12.1 20.12-19.16 39.64-38.8 39.76-52.34a12.8 12.8 0 0 0-3.11-8.62z"/><path fill="#EEE" d="m104.5 125.26 10.19 10.18q.36.36 0 .72c-.12.12-.12.12-.24.12l-21.08 4.55a2.1 2.1 0 0 1-2.28-1.68c-.12-.6.12-1.2.48-1.55l12.22-12.22c.24-.24.6-.36.72-.12"/><path fill="#FF6C37" d="M93.01 142.03a3.1 3.1 0 0 1-3.11-3.24c0-.83.36-1.67.95-2.27l12.22-12.22c.72-.6 1.68-.6 2.4 0l10.18 10.18c.71.6.71 1.68 0 2.4-.24.24-.48.36-.84.48l-21.08 4.55c-.24 0-.48.12-.72.12m11.14-15.45L92.4 138.3c-.24.24-.36.6-.12.96.12.36.48.48.84.36l19.76-4.31z"/><path fill="#EEE" d="M195.77 60.59a19.34 19.34 0 0 0-27.43.6 19.34 19.34 0 0 0 .6 27.42 19.35 19.35 0 0 0 23.48 2.64l-13.66-13.66z"/><path fill="#FF6C37" d="M182.36 95.2a20.6 20.6 0 1 1 14.25-35.45c.24.24.36.48.36.84s-.12.6-.36.84l-16.17 16.16 12.7 12.7c.47.48.47 1.2 0 1.68l-.24.24a20.4 20.4 0 0 1-10.55 2.99m0-38.68a18 18 0 0 0-18.09 18.2c0 10.06 8.14 18.2 18.2 18.08 2.76 0 5.51-.6 8.03-1.91l-12.58-12.46a1.1 1.1 0 0 1-.35-.84c0-.36.11-.6.35-.83l16.05-16.05a17.8 17.8 0 0 0-11.62-4.2"/><path fill="#EEE" d="m196.13 60.95-.24-.24-17.13 16.88 13.54 13.54c1.31-.84 2.63-1.8 3.7-2.88a19.2 19.2 0 0 0 .13-27.3"/><path fill="#FF6C37" d="M192.42 92.44c-.36 0-.6-.11-.84-.35l-13.66-13.66a1.1 1.1 0 0 1-.35-.84c0-.36.11-.6.35-.83l17.01-17.01c.48-.48 1.2-.48 1.68 0l.36.24a20.7 20.7 0 0 1 .12 29.1 20 20 0 0 1-3.96 3.12c-.35.12-.6.23-.71.23M180.44 77.6l12.1 12.1a18.24 18.24 0 0 0 3.23-27.3z"/><path fill="#EEE" d="M171.1 90.77a7.37 7.37 0 0 0-10.42 0l-45.15 45.15 7.54 7.54 47.79-41.91a7.4 7.4 0 0 0 .72-10.42 2 2 0 0 1-.48-.36"/><path fill="#FF6C37" d="M122.95 144.66c-.36 0-.6-.12-.84-.36l-7.54-7.54a1.16 1.16 0 0 1 0-1.68l45.15-45.15a8.53 8.53 0 0 1 12.1 0 8.53 8.53 0 0 1 0 12.1l-.36.36-47.79 41.91q-.18.36-.72.36m-5.75-8.74 5.87 5.87 46.95-41.2a6.23 6.23 0 0 0 .72-8.74 6.23 6.23 0 0 0-8.75-.72c-.11.12-.23.24-.47.36z"/><path fill="#EEE" d="M80.91 187.3c-.48.24-.71.72-.6 1.2l2.04 8.62a2.3 2.3 0 0 1-1.56 3 2.4 2.4 0 0 1-2.63-.72l-13.17-13.06 43-43 14.84.25 10.06 10.06c-2.4 2.03-16.88 16.04-51.98 33.65"/><path fill="#FF6C37" d="M79.96 201.31c-.96 0-1.92-.36-2.52-1.08L64.4 187.18a1.1 1.1 0 0 1-.36-.84c0-.36.12-.6.36-.84l43-43c.23-.23.6-.35.83-.35l14.85.24c.36 0 .6.12.84.36l10.06 10.06c.24.24.36.6.36.95 0 .36-.12.6-.48.84l-.84.72c-12.7 11.14-29.94 22.28-51.38 32.94l2.04 8.5a3.8 3.8 0 0 1-1.8 4.07 4 4 0 0 1-1.91.48m-13.18-14.97 12.34 12.22c.36.6 1.08.84 1.67.48.6-.36.84-1.08.48-1.68l-2.03-8.62a2.2 2.2 0 0 1 1.2-2.52c21.2-10.66 38.32-21.68 50.9-32.57l-8.87-8.87-13.77-.24z"/><path fill="#EEE" d="m54.8 196.64 10.3-10.3 15.33 15.33L56 200a1.9 1.9 0 0 1-1.67-2.16c0-.48.12-.96.48-1.2"/><path fill="#FF6C37" d="m80.43 202.75-24.55-1.68c-1.8-.12-3-1.67-2.87-3.47.12-.72.36-1.44.96-1.92l10.3-10.3c.48-.48 1.2-.48 1.67 0l15.33 15.33c.36.36.48.84.24 1.32q-.36.72-1.08.72m-15.32-14.73-9.47 9.46c-.36.24-.36.84 0 1.08.12.12.24.24.48.24l21.2 1.43zm38.68-39.17c-.72 0-1.2-.6-1.2-1.2q0-.5.36-.83l11.62-11.62c.48-.48 1.2-.48 1.68 0l7.54 7.55c.36.36.48.72.36 1.2-.12.35-.48.71-.96.83l-19.16 4.07zm11.62-11.13-7.9 7.9 12.93-2.75z"/><path fill="#EEE" d="m122.83 143.58-13.17 2.88a1.78 1.78 0 0 1-1.68-3l7.3-7.3z"/><path fill="#FF6C37" d="M109.42 147.66c-1.68 0-3-1.32-3-3 0-.84.36-1.55.84-2.15l7.3-7.3c.49-.49 1.2-.49 1.69 0l7.54 7.54c.36.36.48.72.36 1.2-.12.35-.48.71-.96.83l-13.17 2.88zm5.99-9.94-6.47 6.46c-.24.24-.24.48-.12.72q.18.36.72.36l11.02-2.4zm80.84-65.28c-.24-.71-1.08-1.07-1.8-.83-.72.23-1.08 1.07-.84 1.8 0 .11.12.23.12.35a4.5 4.5 0 0 1-.48 4.55c-.47.6-.35 1.44.12 1.92.6.48 1.44.36 1.92-.24a7 7 0 0 0 .96-7.55"/></svg>