<svg xmlns="http://www.w3.org/2000/svg" width="256" height="256" fill="none" viewBox="0 0 256 256"><rect width="256" height="256" fill="#F4F2ED" rx="60"/><path fill="url(#a)" fill-rule="evenodd" d="M36.4 203.25a8.3 8.3 0 0 1-6.62-3.02 8.8 8.8 0 0 1-1.5-7.51L58.25 61.79a12.85 12.85 0 0 1 12-9.79H219.6a8.3 8.3 0 0 1 6.63 3.02 8.8 8.8 0 0 1 1.5 7.52l-30 130.93a12.86 12.86 0 0 1-12 9.78z" clip-rule="evenodd"/><path fill="url(#b)" fill-rule="evenodd" d="M70.26 53.69h149.33a6.52 6.52 0 0 1 6.49 8.47l-30 130.93a11.25 11.25 0 0 1-10.36 8.48H36.41a6.5 6.5 0 0 1-6.49-8.48l30-130.93a11.2 11.2 0 0 1 10.34-8.47" clip-rule="evenodd"/><path fill="#2C5591" fill-rule="evenodd" d="M128.29 167.22h36.32a7.99 7.99 0 0 1 0 15.95h-36.32a7.99 7.99 0 0 1 0-15.95m23.56-35.46a12.6 12.6 0 0 1-4.22 4.28l-67.41 48.38a8.74 8.74 0 0 1-10.27-14.11l60.79-44.02v-.9l-38.2-40.6a8.74 8.74 0 0 1 12.73-11.95l45.83 48.75a8.3 8.3 0 0 1 .75 10.17" clip-rule="evenodd"/><path fill="#fff" fill-rule="evenodd" d="M150.14 130.07a12.5 12.5 0 0 1-4.21 4.29l-67.39 48.38a8.75 8.75 0 0 1-10.28-14.11l60.8-44.02v-.9l-38.2-40.64a8.74 8.74 0 0 1 12.74-11.94l45.82 48.76a8.3 8.3 0 0 1 .72 10.18m-22.85 36.21h36.32a7.57 7.57 0 0 1 0 15.12h-36.32a7.56 7.56 0 0 1 0-15.12" clip-rule="evenodd"/><defs><linearGradient id="a" x1="180.31" x2="65.59" y1="174.35" y2="71.88" gradientUnits="userSpaceOnUse"><stop stop-color="#5391FE"/><stop offset="1" stop-color="#3E6DBF"/></linearGradient><linearGradient id="b" x1="64.44" x2="178" y1="70.51" y2="172.56" gradientUnits="userSpaceOnUse"><stop stop-color="#5391FE"/><stop offset="1" stop-color="#3E6DBF"/></linearGradient></defs></svg>