<svg xmlns="http://www.w3.org/2000/svg" width="256" height="256" fill="none" viewBox="0 0 256 256"><rect width="256" height="256" fill="#00005B" rx="60"/><path fill="#99F" d="M54 182.68V72.81c0-.74.32-1.17 1.07-1.17 1.81 0 3.52 0 5.97-.1 2.56-.11 5.23-.11 8.1-.22 2.89-.1 5.98-.1 9.29-.21s6.5-.11 9.7-.11c8.75 0 16 1.07 21.98 3.3a38 38 0 0 1 14.29 8.75 34 34 0 0 1 7.79 12.16 41 41 0 0 1 2.45 13.87q0 13.76-6.4 22.72a36.6 36.6 0 0 1-17.17 13.01c-7.26 2.67-15.26 3.63-24 3.63-2.56 0-4.27 0-5.34-.1-1.06-.11-2.56-.11-4.58-.11v34.24c.1.74-.43 1.38-1.18 1.49H55.28c-.85 0-1.28-.43-1.28-1.39zm23.25-90.35v35.84c1.5.11 2.88.22 4.16.22h5.66c4.16 0 8.32-.64 12.26-1.92 3.42-.96 6.4-2.99 8.75-5.66 2.24-2.66 3.3-6.29 3.3-10.98.11-3.31-.74-6.62-2.45-9.5a15.5 15.5 0 0 0-7.46-6.08 31 31 0 0 0-12.59-2.13c-2.77 0-5.23 0-7.25.1-2.14-.1-3.63 0-4.38.11m72.75 6.3h18.67a2.4 2.4 0 0 1 2.24 1.7c.32.86.53 1.71.64 2.67a35 35 0 0 1 .74 7.15 40 40 0 0 1 11.42-9.18 33 33 0 0 1 16.21-4.16c.75-.1 1.39.43 1.5 1.18v21.22c0 .86-.54 1.18-1.71 1.18-3.84-.11-7.79.21-11.52 1.06a44 44 0 0 0-8.96 2.88 17 17 0 0 0-5.44 3.95v54.4c0 1.07-.43 1.5-1.39 1.5h-21.01c-.86.1-1.6-.43-1.71-1.29v-59.52c0-2.56 0-5.22-.1-8-.11-2.77-.11-5.54-.22-8.32 0-2.45-.21-4.8-.43-7.25a1 1 0 0 1 .75-1.17c0-.11.21-.11.32 0"/></svg>