<svg xmlns="http://www.w3.org/2000/svg" width="256" height="256" fill="none" viewBox="0 0 256 256"><rect width="256" height="256" fill="#E6522C" rx="60"/><path fill="#fff" d="M128.35 228c-17.9 0-32.41-11.96-32.41-26.7h64.83c0 14.74-14.51 26.7-32.42 26.7m53.55-35.55H74.8v-19.42h107.1zm-.38-29.42H75.1q-.54-.6-1.06-1.22C63.1 148.5 60.51 141.55 58 134.47c-.04-.24 13.3 2.72 22.75 4.85 0 0 4.87 1.12 11.98 2.42-6.83-8-10.89-18.19-10.89-28.59 0-22.84 17.52-42.8 11.2-58.93 6.15.5 12.73 12.98 13.17 32.5 6.54-9.04 9.28-25.54 9.28-35.66 0-10.47 6.9-22.64 13.8-23.06-6.15 10.14 1.6 18.84 8.5 40.41 2.58 8.1 2.25 21.74 4.24 30.4.66-17.97 3.75-44.18 15.15-53.23-5.03 11.4.74 25.66 4.69 32.51 6.36 11.06 10.22 19.44 10.22 35.28a44 44 0 0 1-10.54 28.45 263 263 0 0 0 12.72-2.68l24.44-4.77s-3.55 14.6-17.2 28.66"/></svg>