<svg xmlns="http://www.w3.org/2000/svg" width="256" height="256" fill="none" viewBox="0 0 256 256"><rect width="256" height="256" fill="#242938" rx="60"/><path fill="#EFCCA3" d="M208.86 99.95c-.37-8.4.75-15.84-2.98-22.14C196.93 62.16 174.56 53 129.82 53v1.34h-.93.93V53c-44.74 0-68.23 9.16-77.18 25-3.54 6.5-3.17 13.74-3.72 22.14-.38 6.68-3.36 13.74-2.06 21.38 1.5 9.92 2.06 19.85 3.55 29 1.12 7.45 11.18 13.75 12.11 20.81 2.61 19.47 22.37 28.44 67.11 28.44v1.52h-1.12 1.31v-1.52c44.74 0 63.75-8.97 66.18-28.44.93-7.25 10.25-13.36 11.37-20.8 1.49-9.16 2.05-19.09 3.54-29.01 1.3-7.64-1.68-14.89-2.05-21.57"/><path fill="#CCAC8D" d="M129.07 106.82c8.02.2 13.61 5.35 18.83 10.12 6.15 5.53 16.6 9.35 20.88 14.12 4.29 4.77 9.88 9.54 11.93 16.99s2.61 16.98 2.61 19.46 1.3 1.91 5.03 0c8.77-4.39 18.46-16.22 18.46-16.22-1.12 7.44-10.63 14.12-11.56 21.19-2.24 19.46-20.7 28.82-66.36 28.82h-.19 1.12"/><path fill="#CCAC8D" d="M158.53 91.93c1.68 5.92 7.64 25.96-3.92 19.28 0 0 4.85 2.86 7.83 13.74 3.17 10.88 10.81 12.22 10.81 12.22s12.5 2.48 21.82-5.73c7.83-6.87 9.13-19.08 5.77-28.44-3.35-9.16-9.32-12.02-18.08-13.93-8.76-2.1-26.28-3.82-24.23 2.86"/><path fill="#fff" d="M176.42 110.64a4.34 4.34 0 0 0 4.3-4.4 4.34 4.34 0 0 0-4.3-4.38 4.34 4.34 0 0 0-4.28 4.39 4.34 4.34 0 0 0 4.28 4.39"/><path fill="#EFCCA3" d="M155.73 112.93s14.73 10.3 22.74 20.42c8.02 10.12 7.83 12.03 7.83 12.03l-5.78 2.67s-8.2-15.84-18.26-21.76c-10.26-5.92-11.37-10.88-11.37-10.88z"/><path fill="#CCAC8D" d="M129.63 106.82c-8.01.2-13.98 5.35-19.38 10.12-6.16 5.53-16.97 9.35-21.26 14.12-4.28 4.77-10.06 9.54-12.11 16.99a94 94 0 0 0-2.8 19.46c0 2.49.37 2.68-5.03 0-8.76-4.2-18.46-16.22-18.46-16.22 1.12 7.44 10.63 14.12 11.56 21.19 2.61 19.46 21.07 28.82 66.74 28.82h.93"/><path fill="#56332B" d="M172.88 139.08c-8.95-11.26-23.3-21.76-43.25-21.76h-.18c-19.95 0-34.3 10.5-43.25 21.76-9.32 11.64-8.58 16.22-8.58 27.29 0 40.08 13.8 28.63 22.93 33.59 9.32 4.77 19.02 3.24 28.9 3.24h.18c10.07 0 19.58 1.34 28.9-3.43 9.13-4.77 22.93 7.06 22.93-33.02.18-11.07.74-16.03-8.58-27.67"/><path fill="#442823" d="M128.7 127.24s-1.3 18.52-3.91 22.14l4.84-1.14z"/><path fill="#442823" d="M130 127.24s1.31 18.52 3.92 22.14l-4.85-1.14z"/><path fill="#56332B" d="M114.35 122.85c-1.87-4.39 4.84-11.45 15.47-11.64 10.63 0 17.34 7.06 15.47 11.64s-8.57 5.92-15.47 6.11c-6.71-.19-13.6-1.53-15.47-6.1"/><path fill="#7F4A41" d="M130.2 152.82c3.16 0 8.75 2.29 13.79 5.91-4.85-5.53-10.63-9.35-13.8-9.35-3.35 0-10.44 4.2-15.47 10.3 5.22-4.19 11.93-6.86 15.47-6.86"/><path fill="#442823" d="M128.89 186.6c-7.09 0-13.98-2.3-20.32-4-1.3-.39-2.61.56-3.92.18-11.74-3.81-21.25-10.3-27.03-18.51v1.9c0 40.09 13.8 28.83 22.93 33.6 9.32 4.77 19.02 3.24 28.9 3.24h.18c10.07 0 19.58 1.34 28.9-3.43 9.13-4.77 22.93 6.87 22.93-33.21 0-1.53 0-3.06.18-4.4-5.4 8.98-15.28 16.04-27.59 20.24-1.12.38-3.73-.57-4.84-.38-6.71 2.29-12.68 4.77-20.32 4.77"/><path fill="#442823" d="M111.18 165.03s-4.66 14.32-1.5 20.62l-4.28-1.91s3.17-14.5 5.78-18.7m36.91-.01s4.66 14.32 1.49 20.62l4.29-1.91s-3.36-14.5-5.78-18.7"/><path fill="#CCAC8D" d="M99.25 91.93c-1.68 5.92-7.65 25.96 3.91 19.28 0 0-4.84 2.86-7.83 13.74-2.98 10.88-10.8 12.22-10.8 12.22s-12.5 2.48-21.82-5.73c-7.83-6.87-9.13-19.08-5.78-28.44 3.36-9.35 9.32-12.02 18.08-13.93 8.77-2.1 26.1-3.82 24.24 2.86"/><path fill="#331712" d="M133.7 122.96c.8-.21 1.13-1.62.75-3.16-.39-1.53-1.35-2.6-2.14-2.39-.8.21-1.14 1.63-.75 3.16s1.34 2.6 2.14 2.39m-9.58-.03c.79.25 1.8-.77 2.25-2.28.46-1.51.2-2.94-.6-3.19-.78-.25-1.79.77-2.24 2.28s-.2 2.94.6 3.19"/><path fill="#fff" d="M82.28 110.64a4.34 4.34 0 0 0 4.3-4.4 4.34 4.34 0 0 0-4.3-4.38 4.34 4.34 0 0 0-4.28 4.39 4.34 4.34 0 0 0 4.28 4.39"/><path fill="#7F4A41" d="M134.48 113.88c0-.19-4.29 1.91-5.4 2.1-1.12-.19-5.41-2.29-5.41-2.1z"/><path fill="#EFCCA3" d="M101.86 112.93s-14.73 10.3-22.75 20.42-7.82 12.03-7.82 12.03l5.77 2.67s8.2-15.84 18.27-21.76 11.37-10.88 11.37-10.88z"/><path fill="#CCAC8D" d="M69.6 82.4s-5.03 14.12-16.21 20.03c0 0 17.52-2.1 16.22-20.04m117.63.01s5.03 14.12 16.21 20.03c0 0-17.52-2.1-16.21-20.04m-31.88 26.34s-11-11.83-25.73-12.21h.38c-14.92.38-25.73 12.21-25.73 12.21 12.86-9.16 23.86-8.97 25.73-8.97-.19 0 12.49-.2 25.35 8.97M142.5 83.92s-5.6-8.02-13.05-8.2h.37c-5.6.18-12.86 8.2-12.86 8.2 6.34-6.3 12.86-6.1 12.86-6.1s6.15-.2 12.68 6.1M78 142.51s-8.77 4.4-15.1 1.72h-.19c-5.6-3.24-8.39-12.98-8.39-12.98s5.6 17.18 23.68 11.26m102.15 0s8.76 4.4 15.1 1.72c7.46-3.24 8.58-12.98 8.58-12.98s-5.6 17.18-23.68 11.26"/><path fill="#CCAC8D" d="M88.06 81.44c4.85-.96 12.86-1.15 19.2.95 8.02 2.86 1.5 13.36 3.17 13.93 1.68.58 3.92-7.25 18.83-6.48 15.1.76 16.78 7.63 18.83 6.48s-2.05-19.08 20.5-14.88c0 0-23.67-6.5-22.55 11.07 0 0-13.61-10.7-32.62-1.15.18 0 5.03-16.41-25.36-9.92m82.59 0c.37 0 .55.19.74.19s-.19-.2-.74-.2M81.54 57.96S61.4 83.92 58.42 93.84c-2.98 10.12-5.22 51.53-7.83 57.45l-9.32-40.84 17.15-42.56zm94.7 0s20.13 25.96 23.11 35.88c2.99 10.12 5.22 51.53 7.83 57.45l9.32-40.84-17.15-42.56z"/><path fill="#56332B" d="M175.3 57.96s21.63 18.52 27.97 39.9 3.73 47.32 8.57 50.57c6.9 4.58 14.73-22.71 17.34-25.58 4.1-4.58 17.7-16.22 18.64-18.32.93-2.1-27.59-33.97-40.08-40.27-15.1-7.25-33.74-7.82-32.43-6.3"/><path fill="#442823" d="M193.76 69.41s25.54 33.4 25.17 75.01l10.25-21.38c-.19 0-9.14-27.29-35.42-53.63"/><path fill="#56332B" d="M81.54 57.96S59.9 76.48 53.58 97.86s-3.73 47.32-8.58 50.57c-6.9 4.58-14.73-22.71-17.34-25.58-4.1-4.58-17.7-16.22-18.64-18.32-.93-2.1 27.6-33.97 40.08-40.27 15.1-7.25 33.74-7.82 32.44-6.3"/><path fill="#442823" d="M63.08 69.41s-25.54 33.4-25.16 75.01l-10.07-21.38s8.95-27.29 35.23-53.63"/><path fill="#CCAC8D" d="M49.29 145.18s1.86 10.31 4.84 13.55c2.99 3.25.94-2.48.94-2.48s-3.17-1.71-2.61-14.88-3.17 3.81-3.17 3.81m159.01 0s-1.86 10.31-4.85 13.55-.93-2.48-.93-2.48 3.17-1.71 2.61-14.88 3.17 3.81 3.17 3.81"/><path fill="#442823" d="M110.25 138.89c.82 0 1.49-.69 1.49-1.53a1.5 1.5 0 0 0-1.5-1.53 1.5 1.5 0 0 0-1.48 1.53c0 .84.66 1.52 1.49 1.52m-8.58 9.17c.82 0 1.5-.69 1.5-1.53a1.5 1.5 0 0 0-1.5-1.53c-.82 0-1.5.69-1.5 1.53s.68 1.53 1.5 1.53m-2.8-9.16c.83 0 1.5-.69 1.5-1.53a1.5 1.5 0 0 0-1.5-1.53 1.5 1.5 0 0 0-1.49 1.53c0 .84.67 1.52 1.5 1.52m47.72.01c.82 0 1.49-.69 1.49-1.53a1.5 1.5 0 0 0-1.5-1.53 1.5 1.5 0 0 0-1.48 1.53c0 .84.66 1.52 1.49 1.52m8.57 9.17c.83 0 1.5-.69 1.5-1.53a1.5 1.5 0 0 0-1.5-1.53c-.82 0-1.49.69-1.49 1.53s.67 1.53 1.5 1.53m2.79-9.16c.82 0 1.49-.69 1.49-1.53a1.5 1.5 0 0 0-1.5-1.53 1.5 1.5 0 0 0-1.48 1.53c0 .84.67 1.52 1.49 1.52"/><path fill="#000" stroke="#242938" stroke-opacity=".8" stroke-width=".32" d="M78.97 125.64c9.17 0 16.6-7.47 16.6-16.67s-7.43-16.68-16.6-16.68c-9.16 0-16.6 7.47-16.6 16.67s7.44 16.68 16.6 16.68Z"/><path fill="#fff" d="M86.08 108.36c2.42 0 4.39-1.9 4.39-4.26a4.3 4.3 0 0 0-4.39-4.25 4.3 4.3 0 0 0-4.38 4.25 4.3 4.3 0 0 0 4.38 4.26"/><path fill="#000" stroke="#242938" stroke-opacity=".8" stroke-width=".32" d="M179.35 125.93c9.17 0 16.6-7.46 16.6-16.67 0-9.2-7.43-16.67-16.6-16.67-9.16 0-16.6 7.46-16.6 16.67 0 9.2 7.44 16.67 16.6 16.67Z"/><path fill="#fff" d="M170.06 105.66a2.84 2.84 0 0 0 2.87-2.8c0-1.55-1.28-2.8-2.87-2.8a2.84 2.84 0 0 0-2.87 2.8c0 1.55 1.28 2.8 2.87 2.8"/><path fill="#fff" d="M170.63 108.01c2.42 0 4.39-1.9 4.39-4.25a4.3 4.3 0 0 0-4.39-4.25 4.3 4.3 0 0 0-4.38 4.25 4.3 4.3 0 0 0 4.38 4.25"/></svg>