<svg xmlns="http://www.w3.org/2000/svg" width="256" height="256" fill="none" viewBox="0 0 256 256"><g clip-path="url(#a)"><path fill="#242938" d="M196 0H60A60 60 0 0 0 0 60v136a60 60 0 0 0 60 60h136a60 60 0 0 0 60-60V60a60 60 0 0 0-60-60"/><g clip-path="url(#b)"><path fill="url(#c)" d="M50.45 66.88 40.17 180.41l59.59 34.42 12.5-14.39 87.33-61.98 13.87-28.26-33.4-27.9L114.15 40z"/><path fill="url(#d)" d="m73.05 130.07-25.69 38.01 64.22 32.54L174.42 73.9l-4.28-33.73-38.36 33.73z"/><path fill="#09C4EF" d="m213.46 110.38-33.4-27.57v59.25l19.7-3.6z"/><path fill="url(#e)" d="m160.2 214.83-69.69-20.2 2.57-13.2 88.87-62.66 11.3-4.28 21.58 82.53z"/><path fill="#000" d="M181.44 73.56H73.22v108.22h108.22z"/><path fill="#fff" stroke="#000" d="M103.53 87.95h-20.2v44.69h9.58v-13.36h10.28l2.22-.34 2.57-.69 2.57-1.02 1.71-1.03 1.71-1.37 1.72-1.89 1.7-2.73.86-2.57.35-3.26-.17-3.25-.69-2.91-1.03-2.57-1.2-1.88-1.54-1.54-1.54-1.2L110.9 90l-1.54-.68-1.2-.52-1.54-.34-1.71-.34z"/><path fill="#000" stroke="#000" d="M101.82 96.68h-8.74v13.7h9.08l1.71-.52 1.71-.68 1.37-1.2 1.03-1.71.51-1.71v-2.23l-.34-1.2-.68-1.37-1.03-1.2-1.2-.85-1.54-.69z"/><path fill="#fff" d="M123.9 161.57H83.5v6.51h40.4z"/><path fill="#fff" stroke="#000" d="M169.8 110.37c0 5.04-2.22 10.36-5.96 14.57-4.19 4.72-10.3 8.04-17.33 8.04-13.35 0-23.63-9.58-23.63-22.43 0-6.44 2.08-12.3 6.12-16.56s10.03-6.9 17.87-6.9c6.68 0 12.63 2.81 16.8 7.14 4.16 4.31 6.55 10.12 6.13 16.13Z"/><path fill="#000" d="M160.38 109.86c-.17 7.7-4.97 14.22-14.9 14.22-8.13 0-12.67-6.94-12.67-14.22s5.05-13.52 13.18-13.52c8.14 0 14.56 5.65 14.39 13.52"/><path fill="#000" stroke="#000" d="m157.3 101.47 6.5-7.36 7.88 8.73v13.36l-7.88 8.73-6.33-6.16z"/></g></g><defs><linearGradient id="c" x1="113.8" x2="97.53" y1="40" y2="215" gradientUnits="userSpaceOnUse"><stop stop-color="#2CD788"/><stop offset=".38" stop-color="#24D68E"/><stop offset="1" stop-color="#1ED593"/></linearGradient><linearGradient id="d" x1="169.62" x2="64.32" y1="40.34" y2="174.76" gradientUnits="userSpaceOnUse"><stop stop-color="#ADE46C"/><stop offset=".89" stop-color="#59DC7E"/><stop offset="1" stop-color="#1FD593"/></linearGradient><linearGradient id="e" x1="99.25" x2="215" y1="215" y2="197.02" gradientUnits="userSpaceOnUse"><stop stop-color="#BAE768"/><stop offset=".99" stop-color="#FBF849"/><stop offset="1" stop-color="#FAF748"/></linearGradient><clipPath id="a"><path fill="#fff" d="M0 0h256v256H0z"/></clipPath><clipPath id="b"><path fill="#fff" d="M40 40h175v175H40z"/></clipPath></defs></svg>