<svg xmlns="http://www.w3.org/2000/svg" width="256" height="256" fill="none" viewBox="0 0 256 256"><rect width="256" height="256" fill="#242938" rx="60"/><path fill="url(#a)" d="M127.28 29c-50.77 0-47.6 22.02-47.6 22.02l.05 22.8h48.46v6.86h-67.7S28 76.99 28 128.22s28.36 49.42 28.36 49.42h16.92v-23.78s-.91-28.35 27.9-28.35h48.06s27 .43 27-26.1V55.55S180.34 29 127.28 29m-26.72 15.34a8.7 8.7 0 1 1 .02 17.42 8.7 8.7 0 0 1-.02-17.42"/><path fill="url(#b)" d="M128.72 227.96c50.77 0 47.6-22.02 47.6-22.02l-.05-22.81H127.8v-6.85h67.7s32.5 3.69 32.5-47.54-28.36-49.42-28.36-49.42h-16.92v23.78s.91 28.35-27.9 28.35h-48.06s-27-.43-27 26.1v43.86s-4.1 26.55 48.96 26.55m26.72-15.34a8.7 8.7 0 1 1-.02-17.42 8.7 8.7 0 0 1 .02 17.42"/><defs><linearGradient id="a" x1="47.22" x2="146.33" y1="46.9" y2="145.02" gradientUnits="userSpaceOnUse"><stop stop-color="#387EB8"/><stop offset="1" stop-color="#366994"/></linearGradient><linearGradient id="b" x1="108.06" x2="214.49" y1="109.91" y2="210.52" gradientUnits="userSpaceOnUse"><stop stop-color="#FFE052"/><stop offset="1" stop-color="#FFC331"/></linearGradient></defs></svg>