<svg xmlns="http://www.w3.org/2000/svg" width="256" height="256" fill="none" viewBox="0 0 256 256"><rect width="256" height="256" fill="#F4F2ED" rx="60"/><path fill="#EE4C2C" d="m180.98 90.42-13.41 13.4c21.94 21.95 21.94 57.3 0 78.83-21.94 21.94-57.3 21.94-78.83 0-21.94-21.94-21.94-57.3 0-78.83l34.74-34.74 4.88-4.87V38L75.94 90.42a74.55 74.55 0 0 0 0 105.64c29.26 29.25 76.39 29.25 105.04 0 29.25-29.46 29.25-76.39 0-105.64"/><path fill="#EE4C2C" d="M154.77 87.16a9.75 9.75 0 1 0 0-19.5 9.75 9.75 0 0 0 0 19.5"/></svg>