<svg xmlns="http://www.w3.org/2000/svg" width="256" height="256" fill="none" viewBox="0 0 256 256"><rect width="256" height="256" fill="#242938" rx="60"/><path fill="#41CD52" fill-rule="evenodd" d="M99.59 90.26c-8.71 0-14.72 2.74-18.02 8.3-3.23 5.55-4.88 14.34-4.88 26.53 0 12.11 1.58 20.84 4.73 26.03s9.23 7.85 18.17 7.85q13.38-.02 18.1-7.71c3.07-5.12 4.65-13.84 4.65-26.03 0-12.26-1.58-21.12-4.8-26.67-3.24-5.56-9.24-8.3-17.95-8.3" clip-rule="evenodd"/><path fill="#41CD52" fill-rule="evenodd" d="M178.84 169.77q-11.91 0-16.32-5.12-4.44-5.13-4.46-19.43v-30.74h-10.73v-12.24h10.73V83.02h15.19v19.22h19.34v12.3h-19.34v29.11q.02 8.12 1.28 10.68c.83 1.78 3.02 2.63 6.42 2.63l11.49-.43.68 11.53q-9.3 1.71-14.28 1.71m-43.75 13.8-14.43 6.34-12.47-19.29c-1.81.5-4.6.79-8.53.79q-21.9 0-30.53-11.1c-5.74-7.4-8.61-19.15-8.61-35.09 0-16 2.95-27.9 8.76-35.65q8.73-11.65 30.38-11.67 21.66-.02 30.3 11.6 8.7 11.52 8.68 35.65-.01 15.9-3.55 25.62c-2.42 6.55-6.27 11.53-11.71 14.94zM217.37 51H47.75L17 79.96v124.82h190.93l30.75-28.96V51z" clip-rule="evenodd"/></svg>