<svg xmlns="http://www.w3.org/2000/svg" width="256" height="256" fill="none" viewBox="0 0 256 256"><rect width="256" height="256" fill="#242938" rx="60"/><g fill-rule="evenodd" clip-path="url(#a)" clip-rule="evenodd"><path fill="url(#b)" d="M127.85 185.24c-55 0-99.6-29.87-99.6-66.7 0-36.85 44.6-66.71 99.6-66.71s99.6 29.86 99.6 66.7-44.6 66.7-99.6 66.7M143.09 77.9c-41.8 0-75.7 20.41-75.7 45.6 0 25.18 33.9 45.6 75.7 45.6s72.67-13.96 72.67-45.6c0-31.63-30.86-45.6-72.67-45.6"/><path fill="url(#c)" d="M179.93 155.14s6.03 1.82 9.53 3.6c1.22.61 3.32 1.84 4.84 3.45a13 13 0 0 1 2.2 3.18l23.76 40.05-38.4.02-17.95-33.72s-3.67-6.32-5.94-8.15c-1.88-1.53-2.69-2.07-4.56-2.07h-9.12v43.91l-33.97.02V93.25h68.23s31.08.56 31.08 30.13c0 29.56-29.7 31.76-29.7 31.76m-14.78-37.56-20.56-.01-.02 19.07h20.59s9.53-.03 9.53-9.7c0-9.87-9.53-9.36-9.53-9.36"/></g><defs><linearGradient id="b" x1="28.25" x2="151.61" y1="51.83" y2="236.03" gradientUnits="userSpaceOnUse"><stop stop-color="#CBCED0"/><stop offset="1" stop-color="#84838B"/></linearGradient><linearGradient id="c" x1="110.32" x2="222.49" y1="93.25" y2="203.17" gradientUnits="userSpaceOnUse"><stop stop-color="#276DC3"/><stop offset="1" stop-color="#165CAA"/></linearGradient><clipPath id="a"><path fill="#fff" d="M28 51h200v154.97H28z"/></clipPath></defs></svg>