<svg xmlns="http://www.w3.org/2000/svg" width="256" height="256" fill="none" viewBox="0 0 256 256"><rect width="256" height="256" fill="#F4F2ED" rx="60"/><path fill="#F60" d="M196.81 112.43h-49.85a4.53 4.53 0 0 1-4.54-4.53V55.97a6.97 6.97 0 0 0-6.96-6.97h-17.8a6.97 6.97 0 0 0-6.97 6.97v51.62a4.87 4.87 0 0 1-4.84 4.86l-16.34.08a4.87 4.87 0 0 1-4.9-4.87l.1-51.68A6.96 6.96 0 0 0 77.76 49H59.97A6.97 6.97 0 0 0 53 55.97v145.42a6.2 6.2 0 0 0 6.18 6.19h137.63a6.2 6.2 0 0 0 6.19-6.19v-82.77a6.2 6.2 0 0 0-6.19-6.19m-23.38 54.6a8.1 8.1 0 0 1-8.1 8.11h-14.07a8.1 8.1 0 0 1-8.12-8.1v-14.07c0-4.47 3.64-8.1 8.12-8.1h14.06a8.1 8.1 0 0 1 8.11 8.1z"/></svg>