<svg xmlns="http://www.w3.org/2000/svg" width="256" height="256" fill="none" viewBox="0 0 256 256"><rect width="256" height="256" fill="#D30001" rx="60"/><path fill="#fff" d="m227.87 116.78.13.13s-1.5 1.06-3.09 2.38c-50.09-37.03-80.68-19.57-90.3-14.9-43.65 24.36-31.03 84.15-30.78 85.34v.02H34.18s2.65-26.1 21.17-56.96c18.52-30.87 50.08-54.24 75.75-56.53 49.48-4.96 94.07 37.87 96.78 40.52m-121.39 55.34 9.53 3.43c.44 3.46 1.06 6.73 1.72 9.71l.4 1.76-10.59-3.8a90 90 0 0 1-1.06-11.1m-74.07-28.58 10.14 3.7c-1.23 2.86-2.8 6.53-3.95 9.4l-.46 1.19-10.14-3.7c.88-2.39 2.73-6.8 4.4-10.59m78.04-3.52 6.35 5.02q-1.06 4.12-1.6 8.26l-.25 2.06-7.14-5.64c.7-3.18 1.5-6.44 2.64-9.7m15.61-24.6 3.97 5.99a52 52 0 0 0-4.27 4.96l-.94 1.3-4.23-6.35a49 49 0 0 1 5.47-5.9m-63.14-13.06 6.26 5.47a87 87 0 0 0-4.57 5.18l-1.42 1.78-6.8-5.82c2.03-2.2 4.24-4.4 6.53-6.6m87.39-.35 1.94 5.82q-3.07.96-6.14 2.37l-1.53.72-2.03-6.09a63 63 0 0 1 7.76-2.82m20.63-2.12q3.4.2 6.95.8l1.79.35-.36 5.47q-3.48-.75-6.98-.98l-1.75-.08zm-72.4-24.34 3.97 6.09a74 74 0 0 0-5.08 2.84l-1.7 1.04-4.06-6.17c2.38-1.42 4.67-2.65 6.88-3.8m72.58-3.35c5.25 1.5 7.5 2.53 8.41 3.01l.15.08-.36 5.9q-2.81-1.14-5.67-2.17l-2.88-1zM137.44 67l1.76 5.38h-.88q-2.88-.01-5.76.19l-1.91.16-1.68-5.2q4.36-.53 8.47-.53"/></svg>