<svg xmlns="http://www.w3.org/2000/svg" width="256" height="256" fill="none" viewBox="0 0 256 256"><rect width="256" height="256" fill="#F4F2ED" rx="60"/><path fill="#050606" d="M90.58 29a6 6 0 0 0-3.43 1.36c-3.1-1.15-6.12-1.55-8.82.8-4.17-.52-5.52.54-6.55 1.8-.91-.03-6.84-.9-9.56 2.98-6.83-.78-8.99 3.85-6.54 8.16-1.4 2.07-2.84 4.11.42 8.06-1.15 2.2-.44 4.58 2.28 7.47-.72 3.08.7 5.26 3.22 6.96-.47 4.23 4.05 6.69 5.4 7.56.52 2.46 1.6 4.79 6.76 6.07.85 3.68 3.95 4.31 6.96 5.08-9.93 5.53-18.45 12.8-18.39 30.66l-1.45 2.48c-11.39 6.64-21.63 27.96-5.61 45.29 1.04 5.42 2.8 9.31 4.36 13.63 2.34 17.38 17.59 25.51 21.6 26.47 5.9 4.3 12.18 8.38 20.67 11.24 8 7.92 16.68 10.93 25.4 10.93h.4c8.72 0 17.4-3.01 25.4-10.93 8.5-2.85 14.77-6.94 20.66-11.24 4.03-.96 19.28-9.1 21.61-26.47 1.56-4.32 3.32-8.21 4.37-13.64 16.01-17.32 5.77-38.65-5.62-45.28l-1.45-2.49c.06-17.85-8.46-25.12-18.39-30.65 3-.77 6.11-1.4 6.96-5.08 5.16-1.28 6.24-3.6 6.76-6.07 1.35-.88 5.87-3.33 5.4-7.56 2.53-1.7 3.94-3.88 3.22-6.97 2.72-2.88 3.43-5.27 2.28-7.46 3.26-3.95 1.81-6 .42-8.06 2.44-4.32.29-8.94-6.55-8.16-2.71-3.89-8.64-3-9.55-2.99-1.03-1.25-2.39-2.31-6.55-1.8-2.7-2.34-5.71-1.94-8.83-.79-3.69-2.8-6.14-.55-8.93.3-4.47-1.4-5.5.51-7.69 1.3-4.88-1-6.36 1.16-8.7 3.43l-2.72-.05c-7.36 4.15-11.01 12.6-12.3 16.96-1.3-4.35-4.95-12.81-12.3-16.96l-2.72.04c-2.34-2.27-3.83-4.41-8.7-3.43-2.2-.78-3.22-2.7-7.7-1.3-1.83-.55-3.52-1.7-5.5-1.65"/><path fill="#63C54D" d="M76.08 47.28c19.52 9.64 30.87 17.44 37.08 24.09-3.18 12.22-19.79 12.78-25.86 12.44 1.24-.56 2.28-1.22 2.65-2.24-1.52-1.04-6.93-.11-10.7-2.14 1.45-.3 2.13-.57 2.8-1.6-3.56-1.08-7.4-2.02-9.66-3.83 1.22.02 2.36.26 3.95-.8-3.2-1.64-6.6-2.95-9.24-5.47 1.64-.04 3.43-.01 3.94-.6a35 35 0 0 1-7.42-5.77c2.3.27 3.28.04 3.84-.35-2.2-2.16-5-4-6.34-6.66 1.72.56 3.29.78 4.42-.05-.75-1.63-3.97-2.58-5.82-6.37 1.8.16 3.72.38 4.1 0-.83-3.27-2.27-5.11-3.68-7.02 3.86-.05 9.72.02 9.45-.3l-2.39-2.33c3.78-.98 7.64.15 10.44.99 1.26-.95-.02-2.15-1.55-3.39q4.8.63 8.72 2.1c1.4-1.21-.91-2.42-2.03-3.64 4.96.9 7.06 2.17 9.14 3.44 1.52-1.4.09-2.57-.93-3.78 3.74 1.32 5.66 3.03 7.69 4.72.68-.89 1.74-1.54.46-3.68a19 19 0 0 1 6.13 5.13c1.64-1 .98-2.38.99-3.64 2.76 2.15 4.5 4.44 6.65 6.67.43-.3.8-1.32 1.14-2.93 6.58 6.1 15.87 21.5 2.39 27.61-11.48-9.06-25.18-15.65-40.36-20.6m103.38 0c-19.51 9.64-30.86 17.44-37.08 24.09 3.19 12.22 19.8 12.78 25.87 12.44-1.25-.56-2.28-1.22-2.65-2.24 1.52-1.04 6.93-.11 10.7-2.14-1.45-.3-2.13-.57-2.8-1.6 3.56-1.08 7.4-2.02 9.65-3.83-1.22.02-2.35.26-3.94-.8 3.19-1.64 6.6-2.95 9.24-5.47-1.65-.04-3.43-.01-3.95-.6a35 35 0 0 0 7.43-5.77c-2.3.27-3.28.04-3.84-.35 2.2-2.16 5-4 6.33-6.66-1.71.56-3.28.78-4.41-.05.75-1.63 3.96-2.58 5.82-6.37-1.81.16-3.72.38-4.1 0 .83-3.27 2.27-5.11 3.68-7.02-3.86-.05-9.72.01-9.45-.3l2.39-2.33c-3.78-.98-7.64.15-10.44.99-1.26-.95.02-2.16 1.55-3.39q-4.8.62-8.72 2.1c-1.4-1.22.91-2.43 2.03-3.64-4.96.9-7.06 2.17-9.15 3.43-1.5-1.38-.08-2.57.94-3.77-3.74 1.32-5.66 3.03-7.69 4.72-.68-.89-1.74-1.54-.46-3.68a19 19 0 0 0-6.13 5.12c-1.64-1-.98-2.37-1-3.63-2.75 2.15-4.5 4.44-6.64 6.67-.43-.3-.8-1.32-1.14-2.94-6.58 6.12-15.87 21.52-2.39 27.62 11.47-9.07 25.17-15.66 40.36-20.6"/><path fill="#C51850" d="M151.38 171.77c.07 11.41-10.35 20.71-23.26 20.77s-23.43-9.14-23.5-20.55v-.22c-.07-11.4 10.34-20.7 23.25-20.76s23.44 9.14 23.5 20.55zm-36.45-59c9.68 6.07 11.43 19.86 3.9 30.78-7.54 10.92-21.5 14.85-31.19 8.77-9.68-6.08-11.43-19.87-3.9-30.79 7.54-10.92 21.5-14.85 31.19-8.77m26.14-1.1c-9.69 6.07-11.43 19.86-3.9 30.78 7.54 10.92 21.5 14.85 31.18 8.77 9.7-6.08 11.44-19.87 3.9-30.8-7.53-10.91-21.49-14.84-31.18-8.76m-73.97 11.1c10.46-2.69 3.53 41.46-4.97 37.84-9.37-7.22-12.38-28.35 4.97-37.84m120.88-.55c-10.46-2.69-3.53 41.46 4.98 37.84 9.36-7.22 12.37-28.34-4.98-37.84M152.9 89.28c18.05-2.92 33.07 7.35 32.46 26.1-.6 7.2-39.11-25.03-32.46-26.1m-49.87-.55c-18.06-2.92-33.08 7.36-32.47 26.1.6 7.2 39.11-25.03 32.47-26.1m24.86-4.37c-10.77-.27-21.1 7.66-21.14 12.26-.02 5.58 8.52 11.3 21.22 11.45 12.96.09 21.23-4.58 21.27-10.34.05-6.54-11.79-13.47-21.35-13.37m.83 114.6c9.4-.4 22 2.9 22.03 7.26.15 4.24-11.44 13.82-22.65 13.64-11.61.48-23-9.12-22.85-12.44-.17-4.88 14.14-8.69 23.47-8.46m-34.76-25.88c6.69 7.72 9.74 21.28 4.16 25.28-5.28 3.05-18.1 1.8-27.22-10.75-6.14-10.53-5.35-21.24-1.03-24.39 6.45-3.76 16.42 1.33 24.1 9.86m67.33-2.45c-7.23 8.12-11.26 22.93-5.98 27.7 5.04 3.7 18.59 3.19 28.6-10.12 7.27-8.93 4.83-23.85.68-27.82-6.17-4.57-15.02 1.28-23.3 10.24"/></svg>