<svg xmlns="http://www.w3.org/2000/svg" width="256" height="256" fill="none" viewBox="0 0 256 256"><rect width="256" height="256" fill="#242938" rx="60"/><path fill="#00D8FF" d="M128 146.95a18.66 18.66 0 1 0 0-37.31 18.66 18.66 0 0 0 0 37.31"/><path stroke="#00D8FF" stroke-width="8.91" d="M128 90.36c25.05 0 48.32 3.6 65.86 9.64C215 107.28 228 118.3 228 128.3c0 10.4-13.77 22.12-36.47 29.64-17.17 5.69-39.75 8.66-63.53 8.66-24.38 0-47.46-2.79-64.82-8.72C41.23 150.38 28 138.51 28 128.3c0-9.9 12.41-20.85 33.25-28.11 17.61-6.14 41.46-9.82 66.75-9.82Z" clip-rule="evenodd"/><path stroke="#00D8FF" stroke-width="8.91" d="M94.98 109.44c12.52-21.7 27.25-40.06 41.25-52.24 16.86-14.68 32.91-20.43 41.57-15.44 9.01 5.2 12.28 22.99 7.46 46.41-3.65 17.7-12.36 38.75-24.24 59.35-12.18 21.12-26.12 39.73-39.93 51.8-17.47 15.27-34.36 20.8-43.2 15.7-8.59-4.95-11.87-21.17-7.75-42.86 3.47-18.32 12.2-40.81 24.84-62.72Z" clip-rule="evenodd"/><path stroke="#00D8FF" stroke-width="8.91" d="M95.01 147.58c-12.55-21.68-21.1-43.62-24.66-61.83-4.29-21.94-1.25-38.71 7.39-43.72 9-5.21 26.05.84 43.93 16.71 13.52 12 27.4 30.07 39.32 50.64 12.21 21.1 21.37 42.48 24.93 60.46 4.5 22.77.86 40.16-7.98 45.28-8.57 4.96-24.26-.3-41-14.7-14.13-12.16-29.25-30.95-41.93-52.84Z" clip-rule="evenodd"/></svg>