<svg xmlns="http://www.w3.org/2000/svg" width="256" height="256" fill="none" viewBox="0 0 256 256"><rect width="256" height="256" fill="#242938" rx="60"/><path fill="#FF0090" d="M45.39 153.54c-9.74-51.78 16-101.72 75.07-108.36-8.15-8.7-19.28-8.77-24.4-7.71-9.04 2.88-8.75 8.73-19 16.28-10.2 5.83-15.32 1.37-22.75 7.4-7.41 6-2.24 19.75-5.35 22.42-3.08 5.35-12.65 10.12-14.4 16.87-1.43 8.64 3.91 14.8 3.7 22.21.62 6.17-6.14 9.66-5.16 14.66 2.9 8.17 8.51 13.1 11.16 15.36.6.43 1.24 1.48 1.13.87"/><path fill="url(#a)" d="M150.5 81.86a3.9 3.9 0 1 1 0-7.82 3.9 3.9 0 0 1 0 7.82M47.67 159.18c-9.36-45 19.6-82.6 75.68-64.09 32.9 19.25 74.3 18 76.17 5.56 4.61-14.92-20.98-45.67-59.24-53.69-75.9-14.8-116.8 67.22-92.61 112.22"/><path fill="url(#b)" d="M172.17 164.2c11.27 1.22 21.96-1.48 31.88-9.56-14.98 16.7-33.7 25.1-55.2 27.39 10.27 8.72 20.16 12.65 29.62 10.97-26.3 7.25-48.33-.73-75.14-27.43-1.4 7.19 6.2 18.38 14.01 25.53-45.38-19.68-49.36-80.97 5.98-96.05-57.37-27.57-89.81 26-73.87 69.89 15.6 33.8 57.15 59.83 102.7 54.11 22.12-2.71 55.16-17.96 68.65-54.11-9.5 8.53-26.51 15.97-34.1 16.54 25.68-12.83 39.54-34.64 35.65-64.45-5.32 12.67-12.34 22.4-21.11 29.07 18.64-29.07 15.44-44.1 1.64-60.6 9.87 27.14-2.9 57.28-30.71 78.7"/><path fill="url(#c)" d="M158.99 195.48c-1.95-.36 4.41 2.58-7.9-.68s-24.83-6.4-47.76-29.23c-1.4 7.19 6.2 18.38 14.01 25.53 21.12 14.73 6.76 7.84 38.93 18.96 2.59-5.14 2.72-9.7 2.72-14.58"/><path fill="url(#d)" d="M118.08 79.84s2.8-4.13 3.88-6c1.34-2.28 3.39-6.44 3.39-6.44s-21.53-7.02-26.82-7.88c-16.43 4.26-16.49 11.15-7.3 21.68 1.02 1.17 26.85-1.36 26.85-1.36"/><defs><radialGradient id="a" cx="0" cy="0" r="1" gradientTransform="matrix(143.203 0 0 102.44 166.22 88.34)" gradientUnits="userSpaceOnUse"><stop stop-color="#F80090"/><stop offset="1" stop-color="#4D008E"/></radialGradient><radialGradient id="b" cx="0" cy="0" r="1" gradientTransform="matrix(145.151 0 0 109.801 167.48 91.4)" gradientUnits="userSpaceOnUse"><stop stop-color="#57008E"/><stop offset=".29" stop-color="#5C008E"/><stop offset="1" stop-color="#F80090"/></radialGradient><linearGradient id="c" x1="113.35" x2="139" y1="165.57" y2="208.72" gradientUnits="userSpaceOnUse"><stop stop-color="#F70090"/><stop offset=".67" stop-color="#E50090"/><stop offset=".83" stop-color="#D6008F" stop-opacity=".2"/><stop offset="1" stop-color="#C10090" stop-opacity="0"/></linearGradient><linearGradient id="d" x1="111.21" x2="107.49" y1="75.26" y2="68.12" gradientUnits="userSpaceOnUse"><stop stop-color="#B2008F" stop-opacity=".15"/><stop offset=".4" stop-color="#F70090" stop-opacity=".4"/><stop offset=".65" stop-color="#F60090" stop-opacity=".89"/><stop offset="1" stop-color="#FF0090"/></linearGradient></defs></svg>