<svg xmlns="http://www.w3.org/2000/svg" width="256" height="256" fill="none" viewBox="0 0 256 256"><g clip-path="url(#a)"><path fill="#242938" d="M196 0H60A60 60 0 0 0 0 60v136a60 60 0 0 0 60 60h136a60 60 0 0 0 60-60V60a60 60 0 0 0-60-60"/><g clip-path="url(#b)"><path fill="#E00" d="M156.49 137.52c11.37 0 27.84-2.37 27.84-15.94q0-1.57-.27-3.1l-6.74-29.51c-1.54-6.47-2.9-9.48-14.28-15.13-8.83-4.55-28.03-11.93-33.76-11.93-5.37 0-6.92 6.83-13.2 6.83-6.1 0-10.56-5.1-16.29-5.1-5.46 0-9.01 3.74-11.74 11.39 0 0-7.64 21.59-8.65 24.78a6 6 0 0 0-.18 1.73c-.09 8.38 32.95 35.89 77.27 35.98m29.57-10.38c1.55 7.46 1.55 8.29 1.55 9.2 0 12.75-14.29 19.85-33.13 19.85-42.59 0-79.8-24.95-79.8-41.44-.01-2.29.45-4.55 1.36-6.65-15.3.73-35.13 3.46-35.13 20.95 0 28.7 67.89 64.04 121.58 64.04 41.23 0 51.6-18.68 51.6-33.43 0-11.57-10.01-24.69-28.03-32.52"/><path fill="#000" d="M186.06 127.14c1.55 7.47 1.55 8.29 1.55 9.2 0 12.75-14.29 19.85-33.13 19.85-42.59 0-79.8-24.95-79.8-41.44-.01-2.29.45-4.55 1.36-6.65l3.36-8.3a6 6 0 0 0-.18 1.74c0 8.38 33.04 35.89 77.27 35.89 11.37 0 27.84-2.37 27.84-15.94q0-1.56-.27-3.1z"/></g></g><defs><clipPath id="a"><path fill="#fff" d="M0 0h256v256H0z"/></clipPath><clipPath id="b"><path fill="#fff" d="M40 61h175v133H40z"/></clipPath></defs></svg>