<svg xmlns="http://www.w3.org/2000/svg" width="256" height="256" fill="none" viewBox="0 0 256 256"><rect width="256" height="256" fill="#F4F2ED" rx="60"/><g clip-path="url(#a)"><path fill="#A41E11" d="M220.16 174.47c-10.67 5.56-65.96 28.3-77.73 34.43s-18.3 6.08-27.6 1.63-68.14-28.2-78.74-33.27c-5.3-2.54-8.08-4.67-8.08-6.68v-20.22s76.6-16.68 88.97-21.11c12.37-4.44 16.65-4.6 27.18-.75 10.53 3.86 73.45 15.21 83.84 19.02v19.94c0 2-2.4 4.24-7.83 7.02z"/><path fill="#D82C20" d="M220.16 154.25c-10.67 5.56-65.96 28.3-77.73 34.43s-18.3 6.07-27.6 1.63-68.14-28.2-78.74-33.28c-10.6-5.06-10.82-8.55-.4-12.62l81.28-31.48c12.37-4.43 16.65-4.6 27.18-.74s65.48 25.73 75.87 29.6 10.8 6.94.13 12.5z"/><path fill="#A41E11" d="M220.16 141.5c-10.67 5.57-65.96 28.3-77.73 34.43-11.77 6.14-18.3 6.08-27.6 1.63s-68.14-28.2-78.74-33.27c-5.3-2.54-8.08-4.67-8.08-6.68v-20.22s76.6-16.67 88.97-21.11 16.65-4.6 27.18-.74 73.45 15.2 83.84 19.02v19.93c0 2-2.4 4.24-7.83 7.02z"/><path fill="#D82C20" d="M220.16 121.28c-10.67 5.57-65.96 28.3-77.73 34.44s-18.3 6.07-27.6 1.63-68.14-28.2-78.74-33.28c-10.6-5.07-10.82-8.55-.4-12.63l81.28-31.47c12.37-4.43 16.65-4.6 27.18-.74s65.48 25.73 75.88 29.53 10.8 6.95.13 12.52"/><path fill="#A41E11" d="M220.16 107.31c-10.67 5.57-65.96 28.3-77.73 34.44s-18.3 6.07-27.6 1.63-68.14-28.2-78.74-33.27c-5.3-2.54-8.08-4.67-8.08-6.68V83.2s76.6-16.68 88.97-21.11c12.37-4.44 16.65-4.6 27.18-.75C154.69 65.2 217.6 76.55 228 80.36v19.94c0 2-2.4 4.24-7.83 7.02"/><path fill="#D82C20" d="M220.16 87.09c-10.67 5.57-65.96 28.3-77.73 34.43-11.77 6.14-18.3 6.08-27.6 1.64S46.69 94.95 36.09 89.88s-10.82-8.55-.4-12.63l81.28-31.47c12.37-4.44 16.65-4.6 27.18-.74s65.48 25.73 75.88 29.53 10.8 6.95.13 12.51z"/><path fill="#fff" d="m133 78.76-6.27-10.42-20.01-1.8 14.93-5.4-4.48-8.26 13.98 5.46 13.18-4.32-3.57 8.55 13.44 5.04-17.33 1.8zM99.6 99.5l46.34-7.12-14 20.53zm-12.48-7.48c13.68 0 24.77-4.3 24.77-9.6s-11.09-9.6-24.77-9.6-24.77 4.3-24.77 9.6 11.1 9.6 24.77 9.6"/><path fill="#7A0C00" d="m202.11 81.01-27.4 10.83-.03-21.67z"/><path fill="#AD2115" d="m174.7 91.84-2.96 1.17-27.4-10.83 30.35-12z"/></g><defs><clipPath id="a"><path fill="#fff" d="M28 28h200v200H28z"/></clipPath></defs></svg>