<svg xmlns="http://www.w3.org/2000/svg" width="256" height="256" fill="none" viewBox="0 0 256 256"><rect width="256" height="256" fill="#764ABC" rx="60"/><path fill="#fff" d="M166.58 165.6a14.3 14.3 0 0 0-1.53-28.5h-.5c-7.9.25-14 6.87-13.75 14.75a14.6 14.6 0 0 0 4.07 9.42c-8.65 17.05-21.89 29.52-41.74 39.96-13.49 7.13-27.48 9.67-41.48 7.89-11.46-1.53-20.36-6.62-25.96-15.02-8.15-12.47-8.91-25.96-2.04-39.44 4.84-9.68 12.47-16.8 17.3-20.37-1.01-3.3-2.54-8.9-3.3-12.98-36.9 26.73-33.09 62.87-21.89 79.92 8.4 12.73 25.45 20.62 44.29 20.62 5.09 0 10.18-.51 15.27-1.79 32.57-6.36 57.26-25.7 71.26-54.46"/><path fill="#fff" d="M211.37 134.04c-19.34-22.65-47.84-35.12-80.42-35.12h-4.07a14 14 0 0 0-12.47-7.64h-.51c-7.9.26-14 6.87-13.75 14.76a14.3 14.3 0 0 0 14.25 13.75h.51a14.3 14.3 0 0 0 12.48-8.66h4.58c19.34 0 37.66 5.6 54.2 16.55 12.73 8.4 21.9 19.34 26.98 32.57 4.33 10.7 4.08 21.13-.5 30.04-7.13 13.49-19.1 20.87-34.87 20.87a65 65 0 0 1-24.94-5.35 149 149 0 0 1-11.46 9.16c10.95 5.1 22.15 7.9 32.83 7.9 24.44 0 42.5-13.5 49.38-26.99 7.38-14.76 6.87-40.2-12.22-61.84"/><path fill="#fff" d="M82.08 169.93a14.3 14.3 0 0 0 14.25 13.74h.51c7.9-.26 14-6.87 13.75-14.76a14.3 14.3 0 0 0-14.26-13.75h-.5c-.51 0-1.28 0-1.79.26-10.43-17.3-14.76-36.14-13.23-56.5 1.02-15.27 6.1-28.5 15.02-39.45 7.38-9.42 21.63-14 31.3-14.25 26.98-.51 38.43 33.08 39.2 46.57 3.3.77 8.9 2.55 12.72 3.82C176 54.38 150.55 33 126.11 33c-22.9 0-44.03 16.54-52.43 40.98-11.7 32.57-4.07 63.88 10.18 88.56a11.4 11.4 0 0 0-1.78 7.39"/></svg>