<svg xmlns="http://www.w3.org/2000/svg" width="256" height="256" fill="none" viewBox="0 0 256 256"><rect width="256" height="256" fill="#242938" rx="60"/><path fill="#36C" d="M43.93 127.95a120 120 0 0 0 4.51 32.89 121 121 0 0 0 13.32 29.89q.72 1.19 1 2.53a3.6 3.6 0 0 1 0 1.97q-.31.8-1 1.4l-1.4 1.03-8.31 4.69a137 137 0 0 1-11.12-18.74 123 123 0 0 1-7.41-18.74 117 117 0 0 1-4.2-18.74 144 144 0 0 1 0-38.79q1.32-9.52 4.2-18.74a125 125 0 0 1 7.41-18.74Q45.71 61.08 51.75 53l8.3 4.78 1.41 1.03q.67.6 1 1.4a3.6 3.6 0 0 1 0 1.97q-.29 1.34-1 2.53a121 121 0 0 0-17.53 63.24m33.85 32.89q-.03-2.87 1.1-5.53a14 14 0 0 1 3.11-4.5 15.4 15.4 0 0 1 7.77-3.86c2.95-.54 6-.23 8.75.87a14.7 14.7 0 0 1 8.02 7.5 13.2 13.2 0 0 1 0 11.05 15 15 0 0 1-3.21 4.5c-1.37 1.28-3 2.3-4.8 3a16.7 16.7 0 0 1-11.82 0 14 14 0 0 1-7.88-7.62 13 13 0 0 1-1.04-5.41m108.16-44.22-5.4 8.8-17.53-9.36-3.4-2.16a14 14 0 0 1-2.71-2.44c.86 2.29 1.2 4.71 1 7.13v18.73h-10.02V118.6a19 19 0 0 1 1.2-7.13 18 18 0 0 1-5.8 4.5l-17.43 9.37-5.4-8.8 17.32-9.38a24 24 0 0 1 7.51-2.71 18.5 18.5 0 0 1-7.51-2.63l-17.93-9.46 5.41-8.8 17.53 9.36 3.3 2.25q1.5 1.12 2.7 2.53a18 18 0 0 1-.9-7.21V71.74h10.02v18.74q.13 1.87 0 3.74-.25 1.76-1 3.38a22 22 0 0 1 5.9-4.6l17.43-9.36 5.4 8.8-17.32 9.37-3.6 1.69a14 14 0 0 1-3.6.94q1.84.3 3.6.93 1.9.72 3.6 1.78zm25.74 11.33c.03-11.1-1.49-22.15-4.51-32.88-2.99-10.7-7.43-21-13.22-30.64a8 8 0 0 1-1-2.53 4 4 0 0 1 0-1.97q.31-.82 1-1.4l1.4-1.03 8.62-4.5a143 143 0 0 1 11.01 18.74 124 124 0 0 1 7.41 18.74q2.89 9.21 4.2 18.74a140 140 0 0 1 1.41 18.73q-.04 9.41-1.3 18.74-1.33 9.52-4.2 18.74a122 122 0 0 1-7.42 18.74 143 143 0 0 1-11.02 18.74l-8.4-4.69-1.4-1.03q-.7-.58-1.01-1.4a4 4 0 0 1 0-1.97q.29-1.34 1-2.53a123 123 0 0 0 13.12-30.26 120 120 0 0 0 4.3-33.08"/></svg>