<svg xmlns="http://www.w3.org/2000/svg" width="256" height="256" fill="none" viewBox="0 0 256 256"><rect width="256" height="256" fill="#242938" rx="60"/><path fill="#fff" fill-rule="evenodd" d="M187.9 168.73a378 378 0 0 1 1.36 34.63H148.8c0-1.95.04-3.73.07-5.54.11-5.62.23-11.48-.69-23.32-1.2-17.33-8.66-21.18-22.38-21.18H62.16V121.8h65.57c17.33 0 26-5.28 26-19.24 0-12.27-8.67-19.7-26-19.7H62.16V52h72.79c39.23 0 58.73 18.53 58.73 48.13 0 22.15-13.72 36.59-32.26 39 15.65 3.12 24.8 12.03 26.48 29.6" clip-rule="evenodd"/><path fill="#fff" fill-rule="evenodd" d="M187.9 168.73a378 378 0 0 1 1.36 34.63H148.8c0-1.95.04-3.73.07-5.54.11-5.62.23-11.48-.69-23.32-1.2-17.33-8.66-21.18-22.38-21.18H62.16V121.8h65.57c17.33 0 26-5.28 26-19.24 0-12.27-8.67-19.7-26-19.7H62.16V52h72.79c39.23 0 58.73 18.53 58.73 48.13 0 22.15-13.72 36.59-32.26 39 15.65 3.12 24.8 12.03 26.48 29.6" clip-rule="evenodd"/><path fill="#fff" d="M62.16 203.36v-23.5h42.78c7.15 0 8.7 5.3 8.7 8.46v15.04z"/><path stroke="#fff" stroke-opacity=".8" stroke-width=".32" d="M62 203.36v.16h51.8v-15.2c0-1.6-.4-3.76-1.7-5.51-1.31-1.77-3.54-3.11-7.16-3.11H62z"/></svg>