<svg xmlns="http://www.w3.org/2000/svg" width="256" height="256" fill="none" viewBox="0 0 256 256"><g clip-path="url(#a)"><path fill="#F4F2ED" d="M196 0H60A60 60 0 0 0 0 60v136a60 60 0 0 0 60 60h136a60 60 0 0 0 60-60V60a60 60 0 0 0-60-60"/><g clip-path="url(#b)"><path fill="url(#c)" d="M212.06 108.42 93.44 40.8l79.48 121.15 16.19-10.9z"/><path fill="url(#d)" d="m164.95 80.68-14.98-37.16-32.86 33.2 13.29 120.4 31.89 17.09 49.77-29.73z"/><path fill="url(#e)" d="m93.44 40.8-50.5 34.92L61.8 194.9l48.56 19.07 62.81-52.02z"/><path fill="#000" d="M178.23 75.48H76.77v104.05h101.46z"/><path fill="#fff" d="M126.05 161.2H87.88v6.68h38.17zm2.65-72.84h14.99c12.08 0 20.29 8.42 20.29 19.07 0 10.9-8.21 19.57-20.3 19.57l-14.97.5zm8.46 7.92v23.54h6.53c6.76 0 11.6-4.7 11.6-11.4 0-6.93-4.6-11.64-11.6-11.64zm-47.59-7.92h17.4c4.83 0 8.45 1.48 11.1 3.96 2.18 2.23 3.15 5.2 3.15 8.92v.25c0 3.22-.73 5.7-2.17 7.68a13 13 0 0 1-5.8 4.46l9.42 13.87h-9.9l-7.98-11.9h-7v11.9h-8.46zm16.91 19.07c1.94 0 3.63-.5 4.83-1.48a5 5 0 0 0 1.7-3.97v-.25c0-1.98-.49-3.22-1.7-4.2a8.7 8.7 0 0 0-4.83-1.5h-8.21v11.16h8.21z"/></g></g><defs><linearGradient id="c" x1="201.16" x2="69.2" y1="140.18" y2="66.33" gradientUnits="userSpaceOnUse"><stop stop-color="#DD1265"/><stop offset=".48" stop-color="#DD1265"/><stop offset=".94" stop-color="#FDB60D"/></linearGradient><linearGradient id="d" x1="123.67" x2="177.69" y1="55.93" y2="201.39" gradientUnits="userSpaceOnUse"><stop offset=".14" stop-color="#087CFA"/><stop offset=".48" stop-color="#DD1265"/><stop offset=".96" stop-color="#087CFA"/></linearGradient><linearGradient id="e" x1="85.01" x2="125" y1="60.43" y2="199" gradientUnits="userSpaceOnUse"><stop offset=".28" stop-color="#DD1265"/><stop offset=".97" stop-color="#FDB60D"/></linearGradient><clipPath id="a"><path fill="#fff" d="M0 0h256v256H0z"/></clipPath><clipPath id="b"><path fill="#fff" d="M42.94 40.8h169.11v173.4H42.95z"/></clipPath></defs></svg>