<svg xmlns="http://www.w3.org/2000/svg" width="256" height="256" fill="none" viewBox="0 0 256 256"><g clip-path="url(#a)"><rect width="256" height="256" fill="#D33847" rx="60"/><g filter="url(#b)"><path fill="#fff" fill-rule="evenodd" d="M60.17 154.5a32 32 0 0 0 5.53 16.9l-10.48 10.08c-1.11 1.16-.2 2.13 1.1 3.5l9.07 9.5c1.26 1.4 2.1 2.26 3.26 1.13l11.37-10.9c2.74 1.24 9.26 3.59 18.93 3.08l7.21-4.97c.54-.38 1.48-.92 2.11-1.21l6.55-3.07-5.13 4.98c-.49.47-1.33 1.17-1.86 1.54l-6.2 4.27 12.45 31.3a2.4 2.4 0 0 0 1.44 1.37q.48.16.95.07.46-.1.8-.4l24.55-22.22q.44-.4.53-1.02l4.18-31.97a186 186 0 0 0 20.1-19.15c38.12-41.8 42.4-76.91 41.56-94.12-.27-5.66-1.11-8.85-1.14-8.98a2.4 2.4 0 0 0-1.65-1.65c-2.02-.54-50.2-12.54-109.38 44.2-.07.08-7.75 7.7-15.88 18.65l-31.52 5.9q-.57.13-.94.55L26.3 137.22q-.3.35-.37.82-.06.48.1.97a2.4 2.4 0 0 0 1.37 1.43l30.99 11.87 4.85-5.48c.43-.48 1.2-1.21 1.73-1.64l5.5-4.4-3.76 6.03q-.64 1.02-1.43 1.92zm64.2-60.27c9.6-9.22 23.9-9.85 31.93-1.4s6.75 22.77-2.86 31.99-23.9 9.84-31.93 1.4c-8.03-8.46-6.75-22.78 2.85-32" clip-rule="evenodd"/></g><g filter="url(#c)"><path fill="url(#d)" fill-opacity=".1" fill-rule="evenodd" d="M124.3 94.33c9.6-9.22 23.9-9.84 31.94-1.4 8.03 8.46 6.75 22.77-2.86 31.99s-23.9 9.84-31.93 1.4-6.75-22.77 2.85-31.99" clip-rule="evenodd"/></g></g><defs><filter id="b" width="217.03" height="215.61" x="-.09" y="23.82" color-interpolation-filters="sRGB" filterUnits="userSpaceOnUse"><feFlood flood-opacity="0" result="BackgroundImageFix"/><feColorMatrix in="SourceAlpha" result="hardAlpha" values="0 0 0 0 0 0 0 0 0 0 0 0 0 0 0 0 0 0 127 0"/><feOffset dx="-8.66"/><feGaussianBlur stdDeviation="8.66"/><feColorMatrix values="0 0 0 0 0 0 0 0 0 0 0 0 0 0 0 0 0 0 0.15 0"/><feBlend in2="BackgroundImageFix" result="effect1_dropShadow_195_25"/><feBlend in="SourceGraphic" in2="effect1_dropShadow_195_25" result="shape"/></filter><filter id="c" width="80" height="79.93" x="90.18" y="69.66" color-interpolation-filters="sRGB" filterUnits="userSpaceOnUse"><feFlood flood-opacity="0" result="BackgroundImageFix"/><feColorMatrix in="SourceAlpha" result="hardAlpha" values="0 0 0 0 0 0 0 0 0 0 0 0 0 0 0 0 0 0 127 0"/><feOffset dx="-8.66"/><feGaussianBlur stdDeviation="8.66"/><feColorMatrix values="0 0 0 0 0 0 0 0 0 0 0 0 0 0 0 0 0 0 0.15 0"/><feBlend in2="BackgroundImageFix" result="effect1_dropShadow_195_25"/><feBlend in="SourceGraphic" in2="effect1_dropShadow_195_25" result="shape"/></filter><linearGradient id="d" x1="108.99" x2="157.27" y1="138.25" y2="92.47" gradientUnits="userSpaceOnUse"><stop/><stop offset="1" stop-color="#fff"/></linearGradient><clipPath id="a"><rect width="256" height="256" fill="#fff" rx="60"/></clipPath></defs></svg>