<svg xmlns="http://www.w3.org/2000/svg" width="256" height="256" fill="none" viewBox="0 0 256 256"><rect width="256" height="256" fill="#242938" rx="60"/><path fill="url(#a)" d="M203.7 94.3c0-11.7-3.1-22.6-8.4-32.1-14.3-14.7-45.3-18.1-53-.1-7.9 18.5 13.3 39 22.6 37.4 11.8-2.1-2.1-29.1-2.1-29.1 18 34 13.9 23.6-18.7 54.8s-66 97.1-70.9 99.9c-.2.1-.4.2-.7.3h127.9c2.3 0 3.7-2.4 2.7-4.4l-33.4-66.2c-.7-1.4-.2-3.2 1.2-4a65 65 0 0 0 32.8-56.5"/><path fill="url(#b)" d="M203.7 94.3c0-11.7-3.1-22.6-8.4-32.1-14.3-14.7-45.3-18.1-53-.1-7.9 18.5 13.3 39 22.6 37.4 11.8-2.1-2.1-29.1-2.1-29.1 18 34 13.9 23.6-18.7 54.8s-66 97.1-70.9 99.9c-.2.1-.4.2-.7.3h127.9c2.3 0 3.7-2.4 2.7-4.4l-33.4-66.2c-.7-1.4-.2-3.2 1.2-4a65 65 0 0 0 32.8-56.5"/><path fill="url(#c)" d="M73.2 225.1c4.9-2.8 38.2-68.7 70.8-99.9s36.8-20.8 18.7-54.8c0 0-69 96.8-94 144.7"/><path fill="url(#d)" d="M82.9 138.3c46.6-85.7 52.7-94.4 77-94.4 12.8 0 25.6 5.8 34 16A65.1 65.1 0 0 0 139.5 29H60.3a3 3 0 0 0-3 3v159.7c4.7-12.1 12.7-29.5 25.6-53.4"/><path fill="url(#e)" d="M144 125.2c-32.6 31.2-65.9 97.1-70.8 99.9s-13 3.1-17.3-1.7c-4.6-5.2-11.8-13.5 27.1-85C129.6 52.7 135.7 44 160 44c12.8 0 25.6 5.8 34 16 .5.7.9 1.5 1.4 2.3-14.3-14.7-45.3-18.1-53-.1-7.9 18.5 13.3 39 22.6 37.4 11.8-2.1-2.1-29.1-2.1-29.1 17.9 33.8 13.7 23.4-18.9 54.7"/><path fill="url(#f)" d="M86.7 142.2c46.6-85.7 52.7-94.4 77-94.4 10.5 0 21.1 3.9 29.1 11-8.3-9.5-20.7-14.8-33-14.8-24.3 0-30.4 8.6-77 94.4-38.9 71.5-31.7 79.8-27.1 85 .7.7 1.4 1.4 2.2 1.9-3.9-6-5.7-19.7 28.8-83.1" opacity=".3"/><defs><linearGradient id="a" x1="107.72" x2="161.15" y1="134.56" y2="147.05" gradientUnits="userSpaceOnUse"><stop stop-color="#FF6533"/><stop offset=".16" stop-color="#FF5633"/><stop offset=".43" stop-color="#FF4333"/><stop offset=".71" stop-color="#FF3733"/><stop offset="1" stop-color="#F33"/></linearGradient><linearGradient id="b" x1="99.36" x2="195.12" y1="116.85" y2="191.09" gradientUnits="userSpaceOnUse"><stop stop-color="#BF3338"/><stop offset="1" stop-color="#F33"/></linearGradient><linearGradient id="c" x1="102.49" x2="116.37" y1="131.46" y2="146.04" gradientUnits="userSpaceOnUse"><stop stop-color="#FF6533"/><stop offset=".16" stop-color="#FF5633"/><stop offset=".43" stop-color="#FF4333"/><stop offset=".71" stop-color="#FF3733"/><stop offset="1" stop-color="#F33"/></linearGradient><linearGradient id="d" x1="127.72" x2="123.56" y1="156.55" y2="96.87" gradientUnits="userSpaceOnUse"><stop stop-color="#FF6533"/><stop offset=".16" stop-color="#FF5633"/><stop offset=".43" stop-color="#FF4333"/><stop offset=".71" stop-color="#FF3733"/><stop offset="1" stop-color="#F33"/></linearGradient><linearGradient id="e" x1="109.69" x2="129.4" y1="130.44" y2="143.85" gradientUnits="userSpaceOnUse"><stop stop-color="#FBB040"/><stop offset="1" stop-color="#FB8840"/></linearGradient><linearGradient id="f" x1="129.88" x2="109.76" y1="54.65" y2="276" gradientUnits="userSpaceOnUse"><stop stop-color="#fff"/><stop offset="1" stop-color="#fff" stop-opacity="0"/></linearGradient></defs></svg>