<svg xmlns="http://www.w3.org/2000/svg" width="256" height="256" fill="none" viewBox="0 0 256 256"><rect width="256" height="256" fill="#F4F2ED" rx="60"/><path fill="#304060" d="M81.32 62.28c0 10.65-8.36 19.29-18.66 19.29S44 72.93 44 62.28 52.36 43 62.66 43s18.66 8.63 18.66 19.28m0 65.72c0 10.65-8.36 19.28-18.66 19.28S44 138.65 44 128s8.36-19.28 18.66-19.28 18.66 8.63 18.66 19.28m0 65.72c0 10.64-8.36 19.28-18.66 19.28S44 204.36 44 193.72s8.36-19.29 18.66-19.29 18.66 8.64 18.66 19.28M146.44 128c0 10.65-8.35 19.28-18.66 19.28S109.1 138.65 109.1 128s8.36-19.28 18.67-19.28c10.3 0 18.66 8.63 18.66 19.28m.01-65.72c0 10.65-8.35 19.29-18.66 19.29s-18.67-8.64-18.67-19.29S117.48 43 127.79 43s18.66 8.63 18.66 19.28M211.56 128c0 10.65-8.36 19.28-18.67 19.28-10.3 0-18.65-8.63-18.65-19.28s8.35-19.28 18.65-19.28c10.31 0 18.67 8.63 18.67 19.28m0-65.72c0 10.65-8.36 19.29-18.67 19.29-10.3 0-18.65-8.64-18.65-19.29S182.59 43 192.89 43c10.31 0 18.67 8.63 18.67 19.28m0 131.44c0 10.64-8.36 19.28-18.67 19.28-10.3 0-18.65-8.64-18.65-19.28s8.35-19.29 18.65-19.29c10.31 0 18.67 8.64 18.67 19.28m-65.12.01c0 10.64-8.35 19.28-18.66 19.28s-18.67-8.64-18.67-19.28 8.36-19.29 18.67-19.29c10.3 0 18.66 8.64 18.66 19.28"/></svg>