<svg xmlns="http://www.w3.org/2000/svg" width="256" height="256" fill="none" viewBox="0 0 256 256"><rect width="256" height="256" fill="#E43717" rx="60"/><g fill-rule="evenodd" clip-path="url(#a)" clip-rule="evenodd"><path fill="url(#b)" d="M177.45 156.48 74.7 217.5l133.06-9.03L218 74.3z"/><path fill="url(#c)" d="m207.97 208.38-11.44-78.94-31.15 41.14z"/><path fill="url(#d)" d="m208.12 208.38-83.79-6.58-49.2 15.53z"/><path fill="url(#e)" d="m75.25 217.35 20.93-68.58-46.06 9.85z"/><path fill="url(#f)" d="m165.37 170.8-19.26-75.44L91 147.03z"/><path fill="url(#g)" d="m213.63 96.43-52.1-42.56-14.51 46.9z"/><path fill="url(#h)" d="m189.26 38.7-30.64 16.93-19.33-17.16z"/><path fill="url(#i)" d="m38 181.62 12.84-23.4-10.39-27.9z"/><path fill="#fff" d="m39.76 129.44 10.45 29.63 45.4-10.18 51.83-48.17 14.62-46.46L139.03 38 99.88 52.65C87.54 64.13 63.6 86.83 62.74 87.25c-.86.44-15.8 28.7-22.98 42.19"/><path fill="url(#j)" d="M76.45 76.2c26.73-26.5 61.2-42.17 74.43-28.82 13.22 13.34-.8 45.77-27.54 72.28s-60.77 43.02-74 29.68.37-46.64 27.1-73.14"/><path fill="url(#k)" d="m75.25 217.32 20.77-68.8 68.97 22.17c-24.94 23.38-52.68 43.15-89.74 46.63"/><path fill="url(#l)" d="m147.53 100.59 17.7 70.13c20.84-21.9 39.53-45.45 48.69-74.58z"/><path fill="url(#m)" d="M213.74 96.5c7.08-21.39 8.72-52.07-24.7-57.76l-27.41 15.14z"/><path fill="#9E1209" d="M38 181.32c.98 35.3 26.45 35.82 37.3 36.13l-25.06-58.52z"/><path fill="url(#n)" d="M147.63 100.7c16 9.83 48.27 29.6 48.92 29.96 1.02.57 13.9-21.74 16.83-34.35z"/><path fill="url(#o)" d="m95.99 148.53 27.76 53.56c16.42-8.9 29.28-19.75 41.05-31.37z"/><path fill="url(#p)" d="m50.13 159-3.94 46.84c7.43 10.14 17.64 11.02 28.35 10.23-7.75-19.28-23.23-57.85-24.41-57.07"/><path fill="url(#q)" d="m161.46 54 55.16 7.74c-2.94-12.47-11.98-20.52-27.4-23.04z"/></g><defs><linearGradient id="b" x1="196.15" x2="158.17" y1="233.82" y2="166.78" gradientUnits="userSpaceOnUse"><stop stop-color="#FB7655"/><stop offset=".41" stop-color="#E42B1E"/><stop offset=".99" stop-color="#900"/><stop offset="1" stop-color="#900"/></linearGradient><linearGradient id="c" x1="215.06" x2="166.12" y1="177.51" y2="144.67" gradientUnits="userSpaceOnUse"><stop stop-color="#871101"/><stop offset=".99" stop-color="#911209"/><stop offset="1" stop-color="#911209"/></linearGradient><linearGradient id="d" x1="175.91" x2="126.97" y1="235.86" y2="203.02" gradientUnits="userSpaceOnUse"><stop stop-color="#871101"/><stop offset=".99" stop-color="#911209"/><stop offset="1" stop-color="#911209"/></linearGradient><linearGradient id="e" x1="73.16" x2="80.74" y1="153.73" y2="203.04" gradientUnits="userSpaceOnUse"><stop stop-color="#fff"/><stop offset=".23" stop-color="#E57252"/><stop offset=".46" stop-color="#DE3B20"/><stop offset=".99" stop-color="#A60003"/><stop offset="1" stop-color="#A60003"/></linearGradient><linearGradient id="f" x1="125.34" x2="128.13" y1="107.69" y2="158.01" gradientUnits="userSpaceOnUse"><stop stop-color="#fff"/><stop offset=".23" stop-color="#E4714E"/><stop offset=".56" stop-color="#BE1A0D"/><stop offset=".99" stop-color="#A80D00"/><stop offset="1" stop-color="#A80D00"/></linearGradient><linearGradient id="g" x1="171.64" x2="180.01" y1="61.19" y2="97.25" gradientUnits="userSpaceOnUse"><stop stop-color="#fff"/><stop offset=".18" stop-color="#E46342"/><stop offset=".4" stop-color="#C82410"/><stop offset=".99" stop-color="#A80D00"/><stop offset="1" stop-color="#A80D00"/></linearGradient><linearGradient id="h" x1="146.09" x2="182.15" y1="48.48" y2="30.45" gradientUnits="userSpaceOnUse"><stop stop-color="#fff"/><stop offset=".54" stop-color="#C81F11"/><stop offset=".99" stop-color="#BF0905"/><stop offset="1" stop-color="#BF0905"/></linearGradient><linearGradient id="i" x1="41.55" x2="44.51" y1="141.16" y2="170.88" gradientUnits="userSpaceOnUse"><stop stop-color="#fff"/><stop offset=".31" stop-color="#DE4024"/><stop offset=".99" stop-color="#BF190B"/><stop offset="1" stop-color="#BF190B"/></linearGradient><linearGradient id="j" x1="21.14" x2="160.66" y1="178.91" y2="35.45" gradientUnits="userSpaceOnUse"><stop stop-color="#BD0012"/><stop offset=".07" stop-color="#fff"/><stop offset=".17" stop-color="#fff"/><stop offset=".27" stop-color="#C82F1C"/><stop offset=".33" stop-color="#820C01"/><stop offset=".46" stop-color="#A31601"/><stop offset=".72" stop-color="#B31301"/><stop offset=".99" stop-color="#E82609"/><stop offset="1" stop-color="#E82609"/></linearGradient><linearGradient id="k" x1="128.01" x2="85.98" y1="193.38" y2="183.01" gradientUnits="userSpaceOnUse"><stop stop-color="#8C0C01"/><stop offset=".54" stop-color="#990C00"/><stop offset=".99" stop-color="#A80D0E"/><stop offset="1" stop-color="#A80D0E"/></linearGradient><linearGradient id="l" x1="200.19" x2="162.86" y1="142.94" y2="109.48" gradientUnits="userSpaceOnUse"><stop stop-color="#7E110B"/><stop offset=".99" stop-color="#9E0C00"/><stop offset="1" stop-color="#9E0C00"/></linearGradient><linearGradient id="m" x1="213.91" x2="195.31" y1="81.55" y2="61.67" gradientUnits="userSpaceOnUse"><stop stop-color="#79130D"/><stop offset=".99" stop-color="#9E120B"/><stop offset="1" stop-color="#9E120B"/></linearGradient><linearGradient id="p" x1="62.23" x2="47.08" y1="217.28" y2="165.86" gradientUnits="userSpaceOnUse"><stop stop-color="#8B2114"/><stop offset=".43" stop-color="#9E100A"/><stop offset=".99" stop-color="#B3100C"/><stop offset="1" stop-color="#B3100C"/></linearGradient><linearGradient id="q" x1="178.49" x2="212.47" y1="46.9" y2="61.9" gradientUnits="userSpaceOnUse"><stop stop-color="#B31000"/><stop offset=".44" stop-color="#910F08"/><stop offset=".99" stop-color="#791C12"/><stop offset="1" stop-color="#791C12"/></linearGradient><radialGradient id="n" cx="0" cy="0" r="1" gradientTransform="translate(168.67 110.12)scale(45.7496)" gradientUnits="userSpaceOnUse"><stop stop-color="#A80D00"/><stop offset=".99" stop-color="#7E0E08"/><stop offset="1" stop-color="#7E0E08"/></radialGradient><radialGradient id="o" cx="0" cy="0" r="1" gradientTransform="translate(105.31 170.41)scale(60.818)" gradientUnits="userSpaceOnUse"><stop stop-color="#A30C00"/><stop offset=".99" stop-color="#800E08"/><stop offset="1" stop-color="#800E08"/></radialGradient><clipPath id="a"><path fill="#fff" d="M38 38h180v179.5H38z"/></clipPath></defs></svg>