<svg xmlns="http://www.w3.org/2000/svg" width="256" height="256" fill="none" viewBox="0 0 256 256"><rect width="256" height="256" fill="#E43717" rx="60"/><path fill="#fff" d="m226.57 125.55-8.39-5.2q-.1-1.22-.24-2.44l7.23-6.73a2.88 2.88 0 0 0-.96-4.82l-9.23-3.44q-.34-1.2-.72-2.39l5.75-7.98a2.88 2.88 0 0 0-1.87-4.54l-9.73-1.58q-.57-1.11-1.17-2.18l4.09-8.98a2.9 2.9 0 0 0-2.73-4.1l-9.88.35-1.56-1.9 2.27-9.6a2.9 2.9 0 0 0-3.48-3.49l-9.61 2.27-1.9-1.55.35-9.88a2.88 2.88 0 0 0-4.1-2.74l-8.96 4.1q-1.08-.6-2.18-1.18l-1.59-9.73a2.88 2.88 0 0 0-4.54-1.87l-7.98 5.75-2.37-.72-3.44-9.23a2.88 2.88 0 0 0-4.82-.96l-6.73 7.23q-1.21-.15-2.44-.24l-5.2-8.41a2.9 2.9 0 0 0-4.91 0l-5.2 8.4q-1.23.11-2.45.25l-6.73-7.23a2.9 2.9 0 0 0-4.81.96l-3.44 9.23q-1.2.35-2.37.72l-8-5.75A2.9 2.9 0 0 0 88 37.82l-1.58 9.73q-1.1.57-2.18 1.17l-8.96-4.09a2.9 2.9 0 0 0-4.1 2.73l.35 9.89q-.96.76-1.9 1.55l-9.6-2.27a2.9 2.9 0 0 0-3.5 3.48l2.26 9.62-1.55 1.89-9.88-.34a2.9 2.9 0 0 0-2.74 4.09l4.1 8.98q-.6 1.08-1.18 2.18L37.8 88a2.9 2.9 0 0 0-1.87 4.54l5.75 7.98-.72 2.4-9.23 3.43a2.9 2.9 0 0 0-.96 4.82L38 117.9q-.14 1.21-.24 2.44l-8.4 5.2a2.9 2.9 0 0 0 0 4.91l8.4 5.2q.1 1.22.24 2.45l-7.23 6.72a2.9 2.9 0 0 0 .96 4.82l9.23 3.44q.34 1.2.72 2.39l-5.75 7.99a2.88 2.88 0 0 0 1.9 4.53l9.72 1.59q.57 1.1 1.17 2.17l-4.09 8.97a2.9 2.9 0 0 0 2.74 4.09l9.86-.35q.77.96 1.56 1.9l-2.26 9.61a2.88 2.88 0 0 0 3.48 3.46l9.62-2.25q.94.8 1.9 1.56l-.35 9.88a2.88 2.88 0 0 0 4.1 2.72l8.96-4.09q1.08.6 2.18 1.18l1.58 9.72a2.88 2.88 0 0 0 4.54 1.9l7.99-5.76q1.18.38 2.39.73l3.44 9.23a2.88 2.88 0 0 0 4.82.96l6.72-7.23q1.22.14 2.45.25l5.2 8.39a2.9 2.9 0 0 0 4.91 0l5.2-8.4q1.22-.1 2.45-.24l6.72 7.23a2.88 2.88 0 0 0 4.82-.96l3.44-9.23q1.2-.35 2.39-.73l7.99 5.76a2.9 2.9 0 0 0 4.54-1.9l1.58-9.72 2.18-1.18 8.97 4.1a2.9 2.9 0 0 0 4.09-2.73l-.35-9.88 1.9-1.56 9.61 2.25a2.9 2.9 0 0 0 3.49-3.46l-2.26-9.61q.8-.94 1.56-1.9l9.88.35a2.88 2.88 0 0 0 2.73-4.1l-4.1-8.96q.6-1.08 1.18-2.17l9.72-1.59a2.88 2.88 0 0 0 1.87-4.54l-5.74-7.98q.37-1.19.72-2.39l9.23-3.44a2.88 2.88 0 0 0 .96-4.82L218 138.1q.13-1.22.24-2.45l8.4-5.2a2.88 2.88 0 0 0 0-4.9zm-56.19 69.76a5.95 5.95 0 1 1 .02 0zm-2.85-19.3a5.4 5.4 0 0 0-6.42 4.16l-2.98 13.91a73.2 73.2 0 0 1-60.97-.28l-2.98-13.92a5.4 5.4 0 0 0-6.42-4.16l-12.3 2.63a74 74 0 0 1-6.34-7.49h59.82c.68 0 1.13-.12 1.13-.74v-21.2c0-.62-.45-.74-1.12-.74h-17.5v-13.4h18.9c1.74 0 9.24.5 11.63 10.09.75 2.94 2.4 12.53 3.54 15.61 1.12 3.44 5.7 10.32 10.57 10.32h29.81q.51 0 1.08-.1a75 75 0 0 1-6.76 7.95l-12.58-2.7zm-82.75 19a5.96 5.96 0 0 1-2.48-11.64 5.94 5.94 0 1 1 2.48 11.65M62.03 103.1a5.94 5.94 0 1 1-10.86 4.85 5.94 5.94 0 0 1 10.86-4.85m-6.98 16.5 12.81-5.69a5.4 5.4 0 0 0 2.75-7.14l-2.64-5.97h10.36v46.63H57.5a73 73 0 0 1-2.37-27.92zm56.2-4.52v-13.76h24.65c1.28 0 9 1.47 9 7.24 0 4.8-5.92 6.52-10.8 6.52h-22.93zm89.64 12.38q0 2.74-.2 5.43h-7.52c-.75 0-1.05.5-1.05 1.23v3.44c0 8.1-4.57 9.88-8.58 10.32-3.82.43-8.05-1.6-8.56-3.94-2.26-12.67-6-15.36-11.93-20.06 7.36-4.67 15-11.57 15-20.84 0-9.95-6.82-16.22-11.46-19.3-6.54-4.3-13.77-5.16-15.72-5.16h-77.6a73.6 73.6 0 0 1 40.9-23.12l9.16 9.6a5.4 5.4 0 0 0 7.67.17l10.24-9.79a73.3 73.3 0 0 1 50.08 35.74L184.3 107a5.4 5.4 0 0 0 2.76 7.15l13.49 6q.35 3.6.35 7.26zm-77.6-80.07a5.9 5.9 0 0 1 8.39.2 5.96 5.96 0 0 1-.2 8.4 5.9 5.9 0 0 1-8.39-.2 5.96 5.96 0 0 1 .2-8.4m69.57 56a5.95 5.95 0 1 1 10.84 4.83 5.95 5.95 0 0 1-10.84-4.84"/></svg>