<svg xmlns="http://www.w3.org/2000/svg" width="256" height="256" fill="none" viewBox="0 0 256 256"><rect width="256" height="256" fill="#CD6799" rx="60"/><g clip-path="url(#a)"><path fill="#fff" d="M200.1 139.16a41.4 41.4 0 0 0-18.1 4.2c-1.86-3.69-3.73-6.97-4.06-9.38-.36-2.81-.8-4.53-.36-7.89s2.41-8.14 2.37-8.5c-.03-.37-.44-2.09-4.45-2.12s-7.49.77-7.89 1.82a44 44 0 0 0-1.68 5.95c-.69 3.66-8.03 16.69-12.23 23.52-1.35-2.67-2.52-5-2.77-6.87-.37-2.8-.8-4.52-.37-7.88s2.41-8.14 2.38-8.51-.44-2.08-4.46-2.12c-4.01-.03-7.48.77-7.88 1.83s-.84 3.54-1.68 5.95c-.84 2.4-10.6 24.17-13.15 29.8a168 168 0 0 1-3.25 6.75l-.14.29c-.7 1.35-1.1 2.08-1.1 2.08v.03c-.55 1-1.13 1.9-1.42 1.9-.22 0-.62-2.62.07-6.2 1.46-7.56 4.93-19.32 4.9-19.72 0-.22.65-2.26-2.27-3.32-2.85-1.06-3.87.7-4.13.7s-.43.61-.43.61 3.17-13.21-6.06-13.21c-5.77 0-13.73 6.31-17.67 12-2.49 1.36-7.78 4.24-13.44 7.35-2.15 1.2-4.38 2.4-6.46 3.54l-.44-.48c-11.17-11.94-31.84-20.37-30.96-36.4.33-5.84 2.34-21.17 39.69-39.8 30.74-15.14 55.2-10.94 59.43-1.63 6.06 13.28-13.1 37.97-44.87 41.54-12.12 1.35-18.47-3.32-20.08-5.07-1.68-1.83-1.93-1.94-2.55-1.57-1.03.55-.37 2.19 0 3.14.95 2.48 4.85 6.86 11.46 9.02 5.84 1.9 20.04 2.95 37.24-3.7 19.24-7.44 34.28-28.14 29.86-45.48-4.41-17.6-33.62-23.4-61.26-13.58-16.43 5.84-34.24 15.04-47.06 27.01C29.61 99 27.2 111.38 28.18 116.56c3.54 18.4 28.92 30.38 39.07 39.25q-.78.45-1.39.77c-5.07 2.52-24.42 12.63-29.24 23.33-5.48 12.12.87 20.8 5.07 21.98 13.04 3.61 26.43-2.89 33.63-13.62 7.19-10.74 6.31-24.68 2.99-31.07l-.15-.22 3.98-2.34a196 196 0 0 1 7.34-4.12c-1.24 3.4-2.15 7.44-2.59 13.29-.55 6.86 2.26 15.77 5.95 19.27 1.64 1.54 3.58 1.57 4.82 1.57 4.3 0 6.24-3.57 8.4-7.8 2.63-5.2 5-11.22 5-11.22s-2.96 16.29 5.07 16.29c2.93 0 5.88-3.8 7.2-5.74v.04l.22-.37.47-.76V175c1.17-2.04 3.8-6.68 7.7-14.38 5.04-9.93 9.9-22.34 9.9-22.34s.44 3.03 1.93 8.06c.88 2.96 2.7 6.21 4.16 9.35-1.16 1.65-1.9 2.56-1.9 2.56l.04.03c-.95 1.25-1.97 2.6-3.1 3.91-3.98 4.75-8.73 10.19-9.38 11.76-.77 1.86-.59 3.2.87 4.3 1.06.8 2.96.92 4.9.8 3.57-.25 6.1-1.12 7.33-1.67a25 25 0 0 0 6.32-3.32c3.9-2.89 6.28-7.01 6.06-12.45-.1-3-1.1-6-2.3-8.8l1.06-1.54c6.17-9.01 10.95-18.9 10.95-18.9s.44 3.02 1.94 8.06c.73 2.56 2.22 5.33 3.54 8.03-5.8 4.71-9.38 10.19-10.66 13.77-2.3 6.64-.51 9.63 2.88 10.33 1.54.33 3.73-.4 5.33-1.1a24 24 0 0 0 6.76-3.47c3.9-2.88 7.66-6.9 7.44-12.34a23 23 0 0 0-1.67-7.3c4.92-2.04 11.28-3.17 19.38-2.22 17.38 2.04 20.81 12.88 20.16 17.45-.66 4.56-4.31 7.04-5.52 7.81-1.2.77-1.6 1.02-1.5 1.57.15.8.74.77 1.76.62 1.42-.25 9.13-3.69 9.45-12.08.55-10.74-9.67-22.46-27.74-22.35m-134.06 45.2c-5.77 6.28-13.8 8.65-17.27 6.65-3.72-2.16-2.26-11.43 4.82-18.08 4.31-4.05 9.86-7.8 13.55-10.1.84-.52 2.08-1.25 3.58-2.16l.4-.22.87-.55c2.6 9.5.11 17.85-5.95 24.46m41.99-28.55c-2 4.9-6.2 17.42-8.76 16.72-2.2-.58-3.54-10.07-.44-19.46 1.57-4.7 4.9-10.33 6.83-12.52 3.14-3.5 6.6-4.67 7.44-3.25 1.06 1.86-3.83 15.44-5.07 18.51m34.65 16.58c-.84.44-1.65.73-2.01.5-.26-.14.36-.72.36-.72s4.35-4.68 6.06-6.8c.99-1.24 2.16-2.7 3.4-4.34v.48c0 5.58-5.4 9.34-7.81 10.88m26.72-6.1c-.62-.44-.5-1.9 1.57-6.46.8-1.8 2.7-4.79 5.95-7.67.37 1.17.62 2.3.59 3.36-.04 7.05-5.08 9.67-8.1 10.77"/></g><defs><clipPath id="a"><path fill="#fff" d="M28 53h200v149.91H28z"/></clipPath></defs></svg>