<svg xmlns="http://www.w3.org/2000/svg" width="256" height="256" fill="none" viewBox="0 0 256 256"><rect width="256" height="256" fill="#242938" rx="60"/><path fill="#380D09" fill-rule="evenodd" d="M65.19 102.42c1.74 2.4 16.45 6.94 38.4 11.67 21.94 4.2 44.76 20.8 62.5 15.69 12.01-3.47 25.03-34.4 25.03-38.99v-.47c0-3.2-2.4-5.78-6.48-7.92-16.74-8.55-19.91-11.7-26.12-10-32.2 8.9-89.08 4.35-93.33 30.02m0 62.78c1.74 2.45 16.45 6.95 38.4 11.68 24.51 4.47 45.83 19.04 63.6 13.91 12-3.47 23.93-32.6 23.93-37.21v-.45c0-3.2-2.4-5.78-6.48-7.91-12.77-6.8-29.64-14.27-35.84-12.57-32.27 8.88-75.4 10.83-83.61 32.56" clip-rule="evenodd"/><path fill="#555" fill-rule="evenodd" d="M65 115.92v.45z" clip-rule="evenodd"/><path fill="#DE3423" fill-rule="evenodd" d="M167.13 40.14c-29.66 8.57-76.73 13.4-102.09 13.4v48.43q.02.25.18.45c17.3 0 70.73-5.66 102.96-14.52a122 122 0 0 0 16.5-5.48c3.94-1.77 6.48-3.64 6.48-5.58V28c-.04 4.6-12.02 8.68-24.03 12.14m0 62.79c-17.75 5.12-41.71 8.93-63.54 11.16-14.66 1.5-28.35 2.28-38.55 2.28v48.38q.02.26.18.46c17.3 0 70.73-5.66 102.96-14.52a123 123 0 0 0 16.5-5.48c3.94-1.78 6.48-3.64 6.48-5.58V90.8c-.04 4.6-12.02 8.67-24.03 12.14m0 62.82c-17.75 5.12-41.71 8.92-63.54 11.16-14.68 1.5-28.39 2.28-38.58 2.28V228c17.12 0 70.82-5.61 103.13-14.51 11.91-3.28 22.98-7.02 22.98-11.07v-48.84c0 4.64-11.98 8.67-23.99 12.18" clip-rule="evenodd"/></svg>