<svg xmlns="http://www.w3.org/2000/svg" width="256" height="256" fill="none" viewBox="0 0 256 256"><rect width="256" height="256" fill="#F4F2ED" rx="60"/><g clip-path="url(#a)"><path fill="#F89939" d="M181.4 165.65c24.43-24.42 28.5-59.96 9.07-79.38-19.41-19.41-54.95-15.35-79.38 9.07s-17.36 71.09-9.06 79.38c6.7 6.7 54.95 15.36 79.38-9.07"/><path fill="#3499CD" d="M81.18 130.36c-14.17-14.17-34.79-16.53-46.06-5.26-11.26 11.27-8.9 31.9 5.26 46.06 14.18 14.17 41.25 10.07 46.06 5.26 3.9-3.88 8.92-31.89-5.26-46.06"/><path fill="#010101" d="M130.07 159.67q-3.75 3.45-6.58 5.1a11 11 0 0 1-5.4 1.64 5.8 5.8 0 0 1-4.77-2.3q-1.8-2.28-1.8-6.15 0-5.8 2.5-13.92a88 88 0 0 1 6.11-14.98l7.02-2.6q.33-.1.5-.1.8 0 1.3 1.17.52 1.17.52 3.16 0 5.64-2.6 10.91t-8.12 11.27a61 61 0 0 0-.22 3.95q0 2.4.88 3.81.89 1.42 2.35 1.41 1.5 0 3.18-1.07 1.68-1.08 5.13-4.48zm-10.57-10.8a34 34 0 0 0 5.69-8.74q2.18-4.84 2.18-8.33 0-1.02-.3-1.64-.3-.63-.78-.63-1.02 0-2.97 5.1-1.95 5.07-3.82 14.24"/><path fill="#010101" d="M150.74 159.67q-3.51 3.45-6.3 5.1a12 12 0 0 1-6.16 1.64q-3.75 0-6.07-2.4-2.3-2.4-2.3-6.33 0-5.86 4.06-10.6t9-4.73q2.58 0 4.12 1.33a4.4 4.4 0 0 1 1.55 3.48q0 5.7-12.15 9.28 1.1 5.38 5.77 5.38 1.82 0 3.48-.97 1.65-.99 5-4.36zm-14.48-5.11q7.07-2 7.07-7.35 0-2.65-1.93-2.65-1.82 0-3.48 2.78t-1.66 7.22"/><path fill="#010101" d="M180.24 159.67q-4.43 4.2-6.33 5.47a6.6 6.6 0 0 1-3.64 1.27q-4.36 0-4.12-7.7a29 29 0 0 1-5.1 5.82 7.6 7.6 0 0 1-4.82 1.88q-2.43 0-4.13-2.28a9 9 0 0 1-1.7-5.6q0-4.13 2.28-7.9a19 19 0 0 1 5.84-6.07q3.57-2.32 6.3-2.32 3.45 0 4.84 3.17l5.64-3.11h1.55l-2.44 8.09q-1.88 6.1-1.88 8.37 0 2.37 1.69 2.37 1.06 0 2.37-1.14 1.3-1.15 3.65-3.5zm-20.22 1.52q2.76 0 5.2-4.71t2.45-8.69a3.8 3.8 0 0 0-.69-2.42 2.2 2.2 0 0 0-1.85-.87q-2.76 0-5.23 4.7t-2.48 8.64q0 1.5.74 2.42.72.93 1.86.93"/><path fill="#010101" d="M200.87 159.67q-6.93 6.8-10.69 6.8a3.5 3.5 0 0 1-2.84-1.43 5.4 5.4 0 0 1-1.16-3.52q0-3.9 4.17-10.44-2.04 1.05-4.48 1.46a32 32 0 0 1-5.63 7.13h-.64v-2.49q2.16-2.24 3.9-4.8-2.38-1.06-2.38-3.12a9 9 0 0 1 1.45-4.55q1.45-2.42 4-2.42 2.15 0 2.15 2.21 0 1.74-1.25 4.98 4.59-.5 8.02-7.02l2.5-.11-2.56 7.07a129 129 0 0 0-2.07 6.1 10 10 0 0 0-.47 2.85q0 1.17.54 1.85.54.7 1.45.7 1 0 1.9-.68.91-.68 4.1-3.75z"/><path fill="#010101" d="M228 159.67q-6.38 6.75-10.94 6.74a3.8 3.8 0 0 1-2.98-1.3 5 5 0 0 1-1.14-3.48q0-2.95 2.44-9.03 1.3-3.26 1.3-4.14 0-.9-.7-.89-.38 0-1.02.39-.58.38-1.35 1.08-.7.63-1.55 1.54-.75.77-1.6 1.77l-1.55 1.8a6 6 0 0 0-1.27 2.62q-.42 2.34-.55 4.31-.09 1.46-.09 3.95l-6.1 1.44q-.3-3.74-.3-5.56 0-4.44 1.03-8.42 1.04-3.99 3.33-8.95l6.74-1.3a64 64 0 0 0-2.79 9q4.52-5.05 7.19-7 2.66-1.95 4.73-1.94a3 3 0 0 1 2.34 1.06q.94 1.06.94 2.66 0 2.64-2.37 8.73-1.63 4.17-1.63 5.41 0 1.67 1.35 1.67 2.03 0 6.54-5.34z"/><path fill="#fff" d="M140.52 128.72q.07.75.37 1.13.55.7 1.92.7.81 0 1.43-.35t.62-1.1a.9.9 0 0 0-.5-.85 6 6 0 0 0-1.25-.41l-1.16-.3a6 6 0 0 1-1.64-.61q-.95-.6-.95-1.65 0-1.23.89-2 .9-.76 2.4-.76 1.96 0 2.83 1.16.55.72.53 1.57h-1.38a1.7 1.7 0 0 0-.35-.9q-.5-.58-1.75-.58-.83 0-1.26.32a1 1 0 0 0-.42.84q0 .57.56.9.33.2.96.37l.97.23a8 8 0 0 1 2.11.74q.85.56.85 1.77 0 1.16-.88 2t-2.68.85q-1.95 0-2.76-.88a3.4 3.4 0 0 1-.86-2.19zm10.81-6.22q1.47 0 2.4.71.92.72 1.1 2.47h-1.42a2.6 2.6 0 0 0-.59-1.34q-.45-.53-1.49-.53-1.4 0-2 1.36a5 5 0 0 0-.39 2.19q0 1.3.56 2.2.55.9 1.74.9.9 0 1.44-.56t.73-1.53h1.43q-.25 1.73-1.22 2.54-.97.8-2.5.8a3.3 3.3 0 0 1-2.72-1.25 4.8 4.8 0 0 1-1.02-3.12q0-2.3 1.12-3.57a3.6 3.6 0 0 1 2.83-1.27m4.97.29h1.49v8.66h-1.49zm0-3.28h1.49v1.66h-1.49zm3.67 0h1.4v6.94l3.76-3.7H167l-3.33 3.26 3.52 5.44h-1.87l-2.71-4.38-1.23 1.12v3.26h-1.4zm8.36 3.28h1.48v8.66h-1.48zm0-3.28h1.48v1.66h-1.48zm4 .81h1.48v2.43h1.39v1.2h-1.4v5.67q0 .45.31.62.17.08.57.08h.23l.29-.02v1.15q-.26.08-.53.11t-.59.03q-1.02 0-1.39-.52t-.36-1.36v-5.77h-1.18v-1.19h1.18z"/></g><defs><clipPath id="a"><path fill="#fff" d="M28 74h200v107.86H28z"/></clipPath></defs></svg>