<svg xmlns="http://www.w3.org/2000/svg" width="256" height="256" fill="none" viewBox="0 0 256 256"><g clip-path="url(#a)"><rect width="256" height="256" fill="#59B943" rx="60"/><path fill="#fff" fill-rule="evenodd" d="M233.78-6H256v267h-2.07a1.97 1.97 0 0 0 1.97-1.96V33.74a1.8 1.8 0 0 0-1.14-2.32 1.83 1.83 0 0 0-2.32 1.14l-82.68 92.58a2.5 2.5 0 0 1-3.7 0l-42.2-43.42a2.5 2.5 0 0 1 0-3.14l13.93-17.83a2.52 2.52 0 0 1 4.1 0l23.62 26.07a2.5 2.5 0 0 0 3 .66q.5-.23.86-.66l65.82-90A1.81 1.81 0 0 0 233.78-6M1.97-6H0v1.96A1.96 1.96 0 0 1 1.97-6M0 259.04V261h1.97A1.97 1.97 0 0 1 0 259.04m168.97-96a19.6 19.6 0 0 0-13.35 4.72 19.3 19.3 0 0 0-6.6 12.75.6.6 0 0 0 .34.43q.15.06.29.06h38.72a.6.6 0 0 0 .47-.2.6.6 0 0 0 .16-.5 18.7 18.7 0 0 0-6.45-12.72 19 19 0 0 0-13.58-4.54M26.14 216a63.7 63.7 0 0 0 45.2 15.7h-.08c29.84 0 44.25-15.23 44.25-35.17 0-25.02-23.28-30.6-41.64-34.99-11.95-2.86-21.82-5.22-21.82-12.13 0-6.6 5.67-11.07 15.74-11.07a48 48 0 0 1 30.24 10.36 2.44 2.44 0 0 0 3.54-.39l9.69-13.43a2.43 2.43 0 0 0 0-3.37 62.2 62.2 0 0 0-41.34-13.83c-26.14 0-41.89 15.24-41.89 33.54 0 24.6 22.4 29.9 40.62 34.22 12.48 2.95 23 5.44 23 13.37 0 6.28-6.3 12.25-19.21 12.25a48.5 48.5 0 0 1-33.07-12.88 2.5 2.5 0 0 0-2.75.14q-.39.3-.64.72l-9.84 13.74a2.43 2.43 0 0 0 0 3.22m183.8-21.68q.15-.41.14-.85l-.08-2.52c0-26.78-16.62-45.07-41.1-45.07a42 42 0 0 0-30.46 12.37 41.7 41.7 0 0 0-12.06 30.5 41.4 41.4 0 0 0 12.38 31.2 41.6 41.6 0 0 0 31.47 11.84 52.6 52.6 0 0 0 32.29-10.05 2.2 2.2 0 0 0 .47-2.91l-7.09-10.29a2.13 2.13 0 0 0-3.15-.47 36.4 36.4 0 0 1-20.15 6.6 22.2 22.2 0 0 1-15.36-4.54 22 22 0 0 1-8.27-13.68.7.7 0 0 1 .16-.52.7.7 0 0 1 .47-.27h58.27a2.1 2.1 0 0 0 2.06-1.34" clip-rule="evenodd"/></g><defs><clipPath id="a"><rect width="256" height="256" fill="#fff" rx="60"/></clipPath></defs></svg>