<svg xmlns="http://www.w3.org/2000/svg" width="256" height="256" fill="none" viewBox="0 0 256 256"><rect width="256" height="256" fill="#584674" rx="60"/><path fill="#fff" d="M136.18 51.18a17 17 0 0 1 6.14 5.96l73.45 125.74a16.55 16.55 0 0 1-14.41 24.83h-17.24q.33-6.85 0-13.73h17.16a2.74 2.74 0 0 0 2.45-4.07c-1.33-1.44-72.54-125.7-74.45-126.75a2.77 2.77 0 0 0-3.79.98l-16.83 28.83a129.3 129.3 0 0 1 59.14 114.6h-44.36a86 86 0 0 0-37.12-76.8l-8.33 14.41a69.9 69.9 0 0 1 28.83 62.38H54.46a17 17 0 0 1-8.14-2.16 16.36 16.36 0 0 1-6.1-22.49l10.5-18.01a39 39 0 0 1 12.1 6.84l-10.6 18.02a2.74 2.74 0 0 0 2.24 4H92.7a57.4 57.4 0 0 0-33.27-43.86l21.95-37.94a99.8 99.8 0 0 1 55.72 81.87h16.65a116.1 116.1 0 0 0-63.97-96.07l23.71-40.62a16.83 16.83 0 0 1 22.7-5.96"/></svg>