<svg xmlns="http://www.w3.org/2000/svg" width="256" height="256" fill="none" viewBox="0 0 256 256"><rect width="256" height="256" fill="#242938" rx="60"/><path fill="#2F406A" d="M191.96 91.98v72l-63.87 35.85-.58.52v27.14l.58.51 89.92-49.73V78h-.85L191.8 91.58v.56"/><path fill="#2379BD" d="m63.62 164.4 64.52 35.65V228L37 178V78h.92l25.43 14.1.27.82v71.8"/><path fill="#03AFEF" d="M63.78 92.56 37 77.84 127.75 28l90.26 49.63-26.09 13.96-64.28-34.92-63.96 35.78"/><path fill="#2F406A" d="m126.94 155.85-.7-.66v-26.72l.7-.35v-.66l24.49-13.38h.76v27.58l-25.4 14.09"/><path fill="#2379BD" d="M101.14 143.09v-29.01h.7l25.03 13.75v28.65l-25.95-13.4"/><path fill="#03AFEF" d="m126.66 99.68-25.1 14.55 25.53 14.4 25.1-14.34-25.53-14.77"/><path fill="#2F406A" d="m95.9 174.2-.67-.66v-27.15l.67-.36v-.66l23.29-13.57h.72v27.96l-24.17 14.29"/><path fill="#2379BD" d="M69.91 160.8v-29h.71l25.24 13.76v28.64z"/><path fill="#03AFEF" d="M95.07 117.3 69.9 131.8l25.53 14.55 25.1-14.34L95 117.24"/><path fill="#2F406A" d="m159.85 174.84-.7-.66v-26.74l.7-.35v-.66l24.5-13.37h.75v27.55l-25.4 14.07"/><path fill="#2379BD" d="M134.58 161.43v-29h.81l25.03 13.76v28.65l-25.95-13.4"/><path fill="#03AFEF" d="m159.89 117.87-24.79 14.24 25.21 14.24 24.8-14.03z"/><path fill="#2F406A" d="m128.84 192.56-.7-.67v-27.14l.7-.36v-.67l24.49-13.57h.76v27.96l-25.41 14.29"/><path fill="#2379BD" d="M102.82 179.1v-28.95h.72l25.23 13.76v28.65z"/><path fill="#03AFEF" d="m128.27 135.6-25.45 14.34 25.88 14.14 25.39-14.14z"/><path fill="#2F406A" d="m126.94 117.87-.7-.67V90.1l.7-.36v-.67l24.49-13.6h.76v28.03z"/><path fill="#2379BD" d="M101.14 104.55V75.47h.7l25.03 13.8v28.6l-25.95-13.43"/><path fill="#03AFEF" d="m126.66 61.54-25.1 14.24 25.53 14.25 25.1-14.04z"/><path fill="#2F406A" d="m95.9 135.6-.67-.68V107.3l.67-.36v-.68l23.29-13.7h.72v28.24l-24.17 14.43"/><path fill="#2379BD" d="M69.91 122.2V93.19h.71l25.24 13.76v28.64z"/><path fill="#03AFEF" d="M95.07 78.63 69.9 92.8l25.53 14.31 25.1-14L95 78.69"/><path fill="#2F406A" d="m159.85 136.86-.7-.68v-27.53l.7-.36v-.68l24.5-13.79h.75v28.41l-25.4 14.52"/><path fill="#2379BD" d="M135.1 123.4V93.82h.78l23.9 13.93v29.11z"/><path fill="#03AFEF" d="M159.89 79.27 135.1 93.51l25.21 14.24 24.8-14.04z"/><path fill="#2F406A" d="m128.84 153.95-.7-.68v-27.49l.7-.37v-.68l24.49-13.82h.76v28.48z"/><path fill="#2379BD" d="M102.82 140.45v-29.54h.72l25.23 14.02v29.02z"/><path fill="#03AFEF" d="m128.3 96.99-25.48 14.21 25.85 14.27 25.42-14.06z"/></svg>