<svg xmlns="http://www.w3.org/2000/svg" width="256" height="256" fill="none" viewBox="0 0 256 256"><rect width="256" height="256" fill="#F4F2ED" rx="60"/><path fill="#76B3E1" d="M224 76.85s-64-47.09-113.5-36.22l-3.63 1.2c-7.25 2.42-13.29 6.04-16.9 10.87l-2.42 3.63-18.12 31.4 31.4 6.03c13.28 8.45 30.19 12.08 45.89 8.45l55.54 10.87z"/><path fill="url(#a)" d="M224 76.85s-64-47.09-113.5-36.22l-3.63 1.2c-7.25 2.42-13.29 6.04-16.9 10.87l-2.42 3.63-18.12 31.4 31.4 6.03c13.28 8.45 30.19 12.08 45.89 8.45l55.54 10.87z" opacity=".3"/><path fill="#518AC8" d="m89.96 76.85-4.83 1.21c-20.53 6.04-26.56 25.36-15.7 42.27 12.08 15.7 37.44 24.15 57.97 18.1l74.86-25.35s-64-47.1-112.3-36.23"/><path fill="url(#b)" d="m89.96 76.85-4.83 1.21c-20.53 6.04-26.56 25.36-15.7 42.27 12.08 15.7 37.44 24.15 57.97 18.1l74.86-25.35s-64-47.1-112.3-36.23" opacity=".3"/><path fill="url(#c)" d="M188.98 131.2a54.3 54.3 0 0 0-57.96-18.12l-74.87 24.15L32 179.5l135.25 22.94 24.15-43.47c4.83-8.46 3.62-18.12-2.42-27.78"/><path fill="url(#d)" d="M164.83 173.46a54.3 54.3 0 0 0-57.96-18.12L32 179.5s64 48.3 113.5 36.22l3.63-1.2c20.53-6.04 27.78-25.36 15.7-41.06"/><defs><linearGradient id="a" x1="60.38" x2="210.72" y1="38.21" y2="111.27" gradientUnits="userSpaceOnUse"><stop offset=".1" stop-color="#76B3E1"/><stop offset=".3" stop-color="#DCF2FD"/><stop offset="1" stop-color="#76B3E1"/></linearGradient><linearGradient id="b" x1="142.85" x2="116.53" y1="73.96" y2="161.62" gradientUnits="userSpaceOnUse"><stop stop-color="#76B3E1"/><stop offset=".5" stop-color="#4377BB"/><stop offset="1" stop-color="#1F3B77"/></linearGradient><linearGradient id="c" x1="49.39" x2="201.42" y1="112.11" y2="215.48" gradientUnits="userSpaceOnUse"><stop stop-color="#315AA9"/><stop offset=".5" stop-color="#518AC8"/><stop offset="1" stop-color="#315AA9"/></linearGradient><linearGradient id="d" x1="117.98" x2="56.63" y1="124.55" y2="349.52" gradientUnits="userSpaceOnUse"><stop stop-color="#4377BB"/><stop offset=".5" stop-color="#1A336B"/><stop offset="1" stop-color="#1A336B"/></linearGradient></defs></svg>