<svg xmlns="http://www.w3.org/2000/svg" width="256" height="256" fill="none" viewBox="0 0 256 256"><rect width="256" height="256" fill="#242938" rx="60"/><path fill="#5FB832" d="M209.55 171.82c-24.62 32.8-77.2 21.73-110.91 23.32 0 0-5.97.33-11.98 1.32 0 0 2.27-.97 5.17-1.97 23.68-8.19 34.86-9.83 49.25-17.22 27.03-13.85 53.94-44.01 59.41-75.35-10.29 30.14-41.58 56.08-70.08 66.61-19.5 7.2-54.77 14.2-54.77 14.2.01.03-1.4-.73-1.43-.75-23.98-11.67-24.68-63.62 18.89-80.37 19.1-7.34 37.37-3.3 58.01-8.22 22.03-5.24 47.53-21.75 57.9-43.33 11.62 34.48 25.58 88.4.53 121.76m.42-132.44a92 92 0 0 1-10.63 18.85A99.5 99.5 0 0 0 127.87 28C72.8 28 28 72.8 28 127.87A99.6 99.6 0 0 0 59.96 201l2.2 1.94a8.54 8.54 0 0 1 10.74-13.26 8.54 8.54 0 0 1-10.74 13.27l1.49 1.32a99.4 99.4 0 0 0 64.22 23.46c52.64 0 95.87-40.96 99.57-92.67 2.74-25.31-4.74-57.46-17.47-95.69"/></svg>