<svg xmlns="http://www.w3.org/2000/svg" width="256" height="256" fill="none" viewBox="0 0 256 256"><g clip-path="url(#a)"><path fill="#D9D9D9" d="M60 0A60 60 0 0 0 0 60v136a60 60 0 0 0 60 60h108.46c-1.78-5.24-3.17-13.55-3.96-23.02-.67-8.16-.9-17.17-.52-25.87l-.16-2.12s-1.88-12.62-4.57-22.97c-1.2-4.6-2.56-8.76-3.98-11.17-.74-1.24.08-6.35 2.13-13.92 1.2 2.07 6.26 10.94 7.28 13.8a65 65 0 0 1 1.38 4.15s-2.78-14.28-7.33-22.6c1-3.37 2.2-7.1 3.54-11.07 1.58 2.77 5.17 9.12 6.46 12.13q.19.43.3.76.29.77.49 1.37c.73 2.12.9 2.8.9 2.8s-.26-1.4-.77-3.53c-.21-.9-.48-1.97-.77-3.1-1.15-4.4-2.9-10.18-5.13-14.7 5.74-29.8 24.18-68.81 44.06-89.87a83 83 0 0 1 5.16-5.04c11.62-10.3 23.39-13.78 33.11-5.12 7.04 6.27 9.91 14.92 9.92 24.89V60a60 60 0 0 0-60-60z"/><path fill="url(#b)" d="M60 0A60 60 0 0 0 0 60v136a60 60 0 0 0 60 60h108.46c-1.78-5.24-3.17-13.55-3.96-23.02-.67-8.16-.9-17.17-.52-25.87l-.16-2.12s-1.88-12.62-4.57-22.97c-1.2-4.6-2.56-8.76-3.98-11.17-.74-1.24.08-6.35 2.13-13.92 1.2 2.07 6.26 10.94 7.28 13.8a65 65 0 0 1 1.38 4.15s-2.78-14.28-7.33-22.6c1-3.37 2.2-7.1 3.54-11.07 1.58 2.77 5.17 9.12 6.46 12.13q.19.43.3.76.29.77.49 1.37c.73 2.12.9 2.8.9 2.8s-.26-1.4-.77-3.53c-.21-.9-.48-1.97-.77-3.1-1.15-4.4-2.9-10.18-5.13-14.7 5.74-29.8 24.18-68.81 44.06-89.87a83 83 0 0 1 5.16-5.04c11.62-10.3 23.39-13.78 33.11-5.12 7.04 6.27 9.91 14.92 9.92 24.89V60a60 60 0 0 0-60-60z"/><path fill="#003B57" d="M246.08 36.91c-9.72-8.66-21.5-5.18-33.11 5.12a83 83 0 0 0-5.16 5.04c-19.88 21.06-38.32 60.07-44.06 89.87 2.24 4.52 3.98 10.3 5.13 14.7.3 1.13.56 2.2.77 3.1.5 2.13.78 3.52.78 3.52s-.18-.67-.91-2.8l-.48-1.36-.3-.76c-1.3-3.01-4.9-9.36-6.47-12.13-1.35 3.98-2.54 7.7-3.54 11.06 4.56 8.33 7.33 22.6 7.33 22.6s-.24-.92-1.38-4.15c-1.02-2.85-6.08-11.72-7.28-13.79-2.05 7.57-2.87 12.68-2.13 13.92 1.42 2.41 2.78 6.57 3.98 11.17a257 257 0 0 1 4.57 22.97l.16 2.12c-.37 8.7-.15 17.71.52 25.87.9 10.79 2.58 20.06 4.72 25.02l1.46-.8c-3.15-9.77-4.43-22.58-3.87-37.35.85-22.58 6.05-49.81 15.66-78.2 16.24-42.84 38.78-77.22 59.4-93.64-18.8 16.96-44.24 71.84-51.85 92.16-8.53 22.76-14.57 44.12-18.21 64.58 6.28-19.18 26.6-27.43 26.6-27.43s9.96-12.27 21.6-29.8c-6.97 1.58-18.42 4.3-22.26 5.91-5.66 2.37-7.19 3.18-7.19 3.18s18.34-11.15 34.06-16.2c21.63-34.02 45.2-82.36 21.46-103.5M28.52 49q-4.6 0-7.46 2.68a9.2 9.2 0 0 0-2.88 7.01q0 2.24.71 4.1.72 1.88 2.2 3.45 1.5 1.56 5.94 4.26 5.44 3.29 7.15 5.35a6.8 6.8 0 0 1 1.7 4.35q.01 3.03-2.06 4.86-2.1 1.82-5.56 1.82a9 9 0 0 1-6.37-2.53q-2.73-2.51-2.76-6.7H18v10.13h1.13q.52-1.44 1.45-1.45.45 0 2.1.59 4.01 1.4 6.6 1.39 4.45 0 7.62-3.12a10.2 10.2 0 0 0 3.17-7.54q0-3.41-2.08-6.07-2.07-2.64-8.08-6.19-5.18-3.06-6.73-5.01a6.8 6.8 0 0 1-1.57-4.31q0-2.55 1.89-4.1 1.87-1.52 4.94-1.52 3.47 0 5.76 2.04 2.27 2.04 2.66 5.68h1.13v-8.78h-1.05q-.2.67-.36.86-.15.2-.62.2a8 8 0 0 1-1.94-.45q-2.98-1-5.5-1m36.98 0q-5.6 0-10.18 2.6a19.3 19.3 0 0 0-7.29 7.21 19 19 0 0 0-2.68 9.8 18.6 18.6 0 0 0 4.67 12.45 19.6 19.6 0 0 0 11.2 6.78q1.47.75 4.26 3.95a33 33 0 0 0 5.32 5.17 16 16 0 0 0 4.68 2.3q2.5.75 5.4.74 3.53 0 6.32-1.23l-.42-1.02q-1.62.57-3.44.57-2.46 0-4.96-1.61t-6.21-6.15a21 21 0 0 0-2.42-2.72 19.7 19.7 0 0 0 11.69-6.82A18.8 18.8 0 0 0 86 68.6q0-8.25-5.93-13.92T65.5 49m23.08 0 .06 1.2q3.73 0 4.2 2.17.15.78.17 2.86L93 81.65q-.03 2.95-.85 3.78-.82.81-2.82 1.02l-.06 1.2h24.77l.64-6h-1.13q-.49 2.45-2.25 3.47-1.77 1-6.29 1h-2.34q-4.09 0-4.7-2.92-.13-.58-.13-1.26l.1-26.71q0-2.97.78-3.94.8-.95 2.86-1.1L101.5 49zM65.9 50.45a12.6 12.6 0 0 1 10.3 4.93q3.97 4.96 3.97 13.56 0 8.14-4.01 13.04-4.03 4.9-10.66 4.9-6.38 0-10.34-5.06T51.2 68.68q0-8.3 3.99-13.28 4-4.95 10.7-4.95m56.96 5.68q-.9 0-1.4.6-.53.6-.34 1.5.19.86.97 1.5.78.65 1.69.65a1.6 1.6 0 0 0 1.35-.65q.48-.64.3-1.5a2.6 2.6 0 0 0-.94-1.5q-.75-.6-1.62-.6m16.34 4.05q-1.54 5.84-6.67 6.35l.04 1.12h4l-.09 13.2q0 3.38.24 4.52.6 2.75 3.63 2.76 4.4 0 9.23-5.29l-.97-.82q-3.48 3.48-6.17 3.49-1.65 0-2.05-1.86-.1-.45-.1-1.06l.04-14.94h6.1l-.06-1.79h-6.02v-5.68zm23.56 4.98q-5.1 0-8.33 4.87a13.7 13.7 0 0 0-1.97 10.82 9.3 9.3 0 0 0 3 5.38 8.6 8.6 0 0 0 5.71 1.9c2.14 0 5.1-.53 6.36-1.6q1.87-1.62 3.47-5.2l-.85-.88a9.3 9.3 0 0 1-7.72 4.65q-5.34 0-6.56-5.76-.15-.75-.23-1.57 6.35-.99 9.6-3.52c2.17-1.7 4.34-3.5 3.93-5.4a4.4 4.4 0 0 0-1.74-2.67c-.93-.67-3.33-1.02-4.67-1.02m-37.25.13-7.35 1.67v1.3l2.54-.32q1.84 0 2.19 1.64.11.56.13 1.53l-.08 11.85q-.02 2.46-.57 2.88-.56.43-2.96.43l-.04 1.12h11.65l-.02-1.12q-2.43 0-3.13-.37t-.92-1.37q-.15-.75-.16-2.5l.04-16.74zm35.39 2.2q1.06 0 2.08.8a3 3 0 0 1 1.23 1.76q1 4.72-8.53 6.55-.29-3.45 1.25-6.27 1.53-2.83 3.97-2.84"/></g><defs><linearGradient id="b" x1="147.61" x2="147.61" y1="5.24" y2="241.76" gradientUnits="userSpaceOnUse"><stop stop-color="#97D9F6"/><stop offset=".92" stop-color="#0F80CC"/><stop offset="1" stop-color="#0F80CC"/></linearGradient><clipPath id="a"><rect width="256" height="256" fill="#fff" rx="60"/></clipPath></defs></svg>