<svg xmlns="http://www.w3.org/2000/svg" width="256" height="256" fill="none" viewBox="0 0 256 256"><rect width="256" height="256" fill="url(#a)" rx="60"/><path fill="#fff" d="m11.49 129.08 50.3 20.38v14.27L2.24 136.14v-8.37zm50.3-16.74L11.56 133l-9.32 1.02v-8.45l59.56-27.5zM241.37 132l-51.76-20.17v-13.9l62.17 27.5v8.53zm-51.76 17.75 51.9-20.6 10.27-1.53v8.45l-62.17 27.59z"/><path fill="#B956A6" fill-rule="evenodd" d="M176.08 61.1c-.3 4.57-2.35 9.33-1.78 13.77 3.6 6.36 11.5 7.37 18.03 7.8 4.52.81 4.46-2.18 4.16-5.54l.05-16.13c-6.82.03-13.64-.06-20.46.1m-53.8 12.77c-11.11 1.88-22.37 7.2-31.61 13.58-7.44 5.8 6.38 11.4 11.4 12.34 10.09.12 19.04-6.68 25.66-13.75 2.17-2.97 4.87-7.51 2.15-10.96-2.07-1.8-5.1-1.36-7.6-1.21m23.63 16.15a68 68 0 0 0-25.5 10.75c-5.65 1.77-10.3 7.96-3.3 11.06 7.33 5.84 15.83 4.41 22.58.47 6.19-3.68 12.87-8.22 15.73-15.14 2.7-7.58-4.27-7.86-9.5-7.14m25.91 29.39c-1.7 7.1-8.85 10.33-12.66 15.96-3.11 4.1-1.67 8.94 1.87 12.17 1.73 3.58 4.75 5.58 8 2.47 8.35-5.67 10.66-16.73 10.31-26.32.62-3.95-3.92-.38-7.52-4.28m-31.78 13.34c-11.1 1.9-22.18 7.3-31.43 13.68-7.18 5.78 6.34 11.18 11.4 12.04 10.27.01 19.44-6.61 25.94-14.13 2.26-2.99 5-8.8.52-11.17-2-.84-4.32-.6-6.43-.42" clip-rule="evenodd"/><path fill="#FCCC44" fill-rule="evenodd" d="M90.67 87.45c-8.53 3.42-16.76 7.56-24.89 11.9-1.5 5.62-.3 12.57-.69 18.73-.03 25.31-.01 50.63-.02 75.94H83.9c3.8-3.57 8.56-6.2 12.7-9.44 15.88-11.4 31.77-22.84 47.65-34.21 1.16.52.42-6.87-2.15-1.74-6.07 5.72-14.12 10.42-22.65 9.96-4.84-1.6-12.64-4.3-12.7-10.23 3.41-4-6.28 2.1-8.93 2.98-8.62 4.14-17.04 8.76-25.68 12.82 2.07-2.22 5.96-4.3 8.71-6.52 19.67-14.12 39.34-28.3 59.06-42.4 3.8-2.67 7.46-5.57 11.37-8.06.36 1.38 1.03-6.6-1.88-1.69-5.93 5.88-13.92 10.25-22.36 10.31-4.74-1.44-14.84-4.88-12.6-11 1.1-2.15-10.18 4.58-5.2.78 5.31-3.88 10.66-7.69 16-11.52 2.7-.2 2.13-10.24-1.54-3.77-6.16 5.42-14.26 10.38-22.75 9.2-4.77-1.37-10.5-4.03-12.23-9.02-.57-1.2 3.21-3.06 1.96-3.02m35.34 6.2c-.48 1.35.85-.5 0 0" clip-rule="evenodd"/><path fill="#62777F" fill-rule="evenodd" d="M179.9 80.75c-2.66 12.72-5.58 26.03-8.08 38.66 7.2 9.06 7.9-5.73 9.15-9.91 2.03-8.74 4.44-15.34 4.7-24.4.54-3.08-3.1-4.95-5.77-4.35m8.25 9.97c-.22 1.3.33.25 0 0m-8.39 28.52c.35.74.35-.75 0 0" clip-rule="evenodd"/><path fill="#4E5E67" fill-rule="evenodd" d="M184.62 82.19c2.24 12.6-5.2 27.91-7.62 39.8 5.52-4.07 9.78-22.5 10.87-29.71.28-.83.63-2.9.7-2.98.35-1.75 3.58-4.72 3.76-6.62 1.88-1.33-9.25-1.55-7.71-.5m-4.58 37.05c-.35.74-.35-.75 0 0" clip-rule="evenodd"/><path fill="#DC9624" fill-rule="evenodd" d="M90.85 87.66c-3.1 3.12-1.94 2.36.38-.23zm33.66 1.55c-3.6 5.41-16.6 9.94-18.24 10.3 7.82-1.47 15.11-6.34 20.24-12.03-.82.36-1.3 1.21-2 1.73m-35.8 1.76c1.95 4.67 9.01 7.77 12.45 8.5-4.69-1.51-10.2-4.2-12.44-8.5m37.02 2.7c-.98 1.16-4.48 2.89-6.32 4.59-3.95 2.91-8.04 5.62-11.94 8.6 2.48-.1 9.77-5.55 6.03-.02 3.17 5.45 10.06 9.24 16.35 8.9 8.3-1.31 15.95-5.9 21.45-12.28-6.68 6.6-15.5 12.83-25.28 11.97-4.72-1.1-17.65-7.77-9-12.45 3.05-2.5 8.3-3.82 8.9-8.22-.13-.55.9-1.09-.2-1.1m-23.66 6.12c3.14.41 3.14-.41 0 0m49 7.52c-12.48 8.7-24.78 17.73-37.15 26.58-14.02 10.04-27.98 20.1-42 30.13 5.28-1.77 10.56-5.24 15.8-7.64 7.2-3.81 14.8-6.83 21.55-11.46 13.34-7.85 27.44-15.33 37.7-27.35 2.24-2.62 4.49-6.85 4.59-9.7-.33.1-.08-1.13-.49-.56m-42.46 39.12c-2.25 2.54-3.16 4.35-.83 1.13-.04.37 1.9-2 .83-1.13m34.16 1.22c-5.92 6.23-14.67 10.73-22.87 11.03 9.49.07 18.05-5.56 24.47-12.2-.42-.51-1.27 1.18-1.6 1.17m1.8 1.96c-19.87 14.46-40.42 29.46-60.36 43.88 3.14.98 9.98 1.44 13.1-2.58 6.64-4.58 14.1-7.95 20.77-12.6 9.65-6.25 19.98-13.1 25.46-23.62.26-1.4 2.2-3.95 1.03-5.08m-37.81.91c.92 3.9 12.45 8.36 11.2 7.5-4.25-1.48-8.47-3.8-11.2-7.5" clip-rule="evenodd"/><defs><linearGradient id="a" x1="0" x2="256" y1="256" y2="0" gradientUnits="userSpaceOnUse"><stop stop-color="#DB7093"/><stop offset="1" stop-color="#F3B661"/></linearGradient></defs></svg>