<svg xmlns="http://www.w3.org/2000/svg" width="256" height="256" fill="none" viewBox="0 0 256 256"><g clip-path="url(#a)"><path fill="#F4F2ED" d="M196 0H60A60 60 0 0 0 0 60v136a60 60 0 0 0 60 60h136a60 60 0 0 0 60-60V60a60 60 0 0 0-60-60"/><g clip-path="url(#b)"><path fill="url(#c)" d="M194.6 127.92c0-2.05-1.52-3.23-3.38-2.64L63.4 165.8a5.3 5.3 0 0 0-3.37 4.78V212c0 2.05 1.51 3.24 3.37 2.64l127.82-40.52a5.3 5.3 0 0 0 3.38-4.79z"/><path fill="#FF9800" d="M60.03 126.6a5.3 5.3 0 0 0 3.37 4.78l127.84 40.54c1.86.59 3.37-.6 3.37-2.64v-41.43a5.3 5.3 0 0 0-3.37-4.78L63.4 82.53c-1.86-.59-3.37.6-3.37 2.64z"/><path fill="#FF9800" d="M194.6 42.8c0-2.05-1.52-3.24-3.38-2.65L63.4 80.68a5.3 5.3 0 0 0-3.37 4.78v41.43c0 2.05 1.51 3.23 3.37 2.64L191.22 89a5.3 5.3 0 0 0 3.38-4.78z"/></g></g><defs><clipPath id="a"><path fill="#fff" d="M0 0h256v256H0z"/></clipPath><clipPath id="b"><path fill="#fff" d="M40 40h175v175H40z"/></clipPath><linearGradient id="c" x1="7476.84" x2="8041.22" y1="5387.54" y2="3500.4" gradientUnits="userSpaceOnUse"><stop stop-color="#FF9700"/><stop offset=".53" stop-color="#F48E00"/><stop offset="1" stop-color="#D06F00"/></linearGradient></defs></svg>