<svg xmlns="http://www.w3.org/2000/svg" width="256" height="256" fill="none" viewBox="0 0 256 256"><rect width="256" height="256" fill="#242938" rx="60"/><g clip-path="url(#a)"><path fill="url(#b)" d="M144.76 223.2c-5.06 6.37-15.33 2.87-15.45-5.26L127.53 98.9h80.03c14.5 0 22.59 16.74 13.57 28.1z"/><path fill="url(#c)" fill-opacity=".2" d="M144.76 223.2c-5.06 6.37-15.33 2.87-15.45-5.26L127.53 98.9h80.03c14.5 0 22.59 16.74 13.57 28.1z"/><path fill="#3ECF8E" d="M112.2 31.67c5.07-6.38 15.33-2.89 15.45 5.25l.78 119.03H49.4c-14.5 0-22.58-16.74-13.57-28.1z"/></g><defs><linearGradient id="b" x1="127.53" x2="198.66" y1="125.3" y2="155.13" gradientUnits="userSpaceOnUse"><stop stop-color="#249361"/><stop offset="1" stop-color="#3ECF8E"/></linearGradient><linearGradient id="c" x1="95.99" x2="128.43" y1="82.12" y2="143.19" gradientUnits="userSpaceOnUse"><stop/><stop offset="1" stop-opacity="0"/></linearGradient><clipPath id="a"><path fill="#fff" d="M32 28h192.92v200H32z"/></clipPath></defs></svg>