<svg xmlns="http://www.w3.org/2000/svg" width="256" height="256" fill="none" viewBox="0 0 256 256"><rect width="256" height="256" fill="#FF3E00" rx="60"/><g clip-path="url(#a)"><path fill="#fff" d="M193.03 61.8c-16.62-23.95-49.72-30.97-73.52-15.87L77.56 72.78a47.7 47.7 0 0 0-21.66 32.19 50 50 0 0 0 5.03 32.49 46 46 0 0 0-7.17 18 51.3 51.3 0 0 0 8.7 38.74c16.78 23.95 49.73 30.97 73.52 15.87l41.95-26.7a47.7 47.7 0 0 0 21.66-32.18 50 50 0 0 0-5.03-32.5 46 46 0 0 0 7.17-18 50.3 50.3 0 0 0-8.7-38.9"/><path fill="#FF3E00" d="M115.39 196.5a33.25 33.25 0 0 1-35.7-13.28 31 31 0 0 1-5.33-23.34c.3-1.37.6-2.6.91-3.97l.76-2.44 2.14 1.53a56 56 0 0 0 16.47 8.24l1.53.45-.15 1.53c-.16 2.14.45 4.42 1.67 6.25a10.1 10.1 0 0 0 10.84 4.12c.91-.3 1.83-.6 2.59-1.06l41.8-26.7a8.6 8.6 0 0 0 3.96-5.8 9.5 9.5 0 0 0-1.52-7.01 10 10 0 0 0-10.84-3.97c-.91.3-1.83.61-2.59 1.07l-16.01 10.22c-2.6 1.68-5.5 2.9-8.55 3.66a33.25 33.25 0 0 1-35.7-13.27 30.8 30.8 0 0 1-5.18-23.34 29 29 0 0 1 13.12-19.37l41.95-26.7a33 33 0 0 1 8.54-3.81 33.25 33.25 0 0 1 35.7 13.27 31 31 0 0 1 5.34 23.34c-.31 1.37-.61 2.6-1.07 3.96l-.76 2.45-2.14-1.53a56 56 0 0 0-16.47-8.24l-1.53-.45.15-1.53c.16-2.14-.46-4.42-1.68-6.25a10 10 0 0 0-10.83-3.97c-.91.3-1.83.6-2.59 1.07l-41.8 26.7a8.6 8.6 0 0 0-3.96 5.79 9.5 9.5 0 0 0 1.52 7.02 10 10 0 0 0 10.83 3.96c.92-.3 1.83-.6 2.6-1.07l16.01-10.22c2.6-1.67 5.5-2.9 8.55-3.81a33.25 33.25 0 0 1 35.7 13.27 31 31 0 0 1 5.33 23.34 29 29 0 0 1-13.12 19.37l-41.95 26.7a33 33 0 0 1-8.54 3.81"/></g><defs><clipPath id="a"><path fill="#fff" d="M53 38h149.64v180H53z"/></clipPath></defs></svg>