<svg xmlns="http://www.w3.org/2000/svg" width="256" height="256" fill="none" viewBox="0 0 256 256"><rect width="256" height="256" fill="#242938" rx="60"/><path fill="#000" d="M17 120h220.64v73.1c0 17.19-14.03 30.35-32.35 30.35H49.35C31.03 223.45 17 210.29 17 193.1z"/><path fill="#FFB13B" stroke="#000" stroke-width="28.7" d="M61.63 108.9a18.3 18.3 0 0 0-24.71 0 15.7 15.7 0 0 0 0 23.18 18.3 18.3 0 0 0 24.71 0h131.22a18.3 18.3 0 0 0 24.72 0 15.7 15.7 0 0 0 0-23.17 18.3 18.3 0 0 0-24.72 0z"/><path fill="#FFB13B" stroke="#000" stroke-width="28.73" d="M89.59 68.8c0-9.05-7.82-16.39-17.48-16.39s-17.48 7.34-17.48 16.4c0 9.04 7.83 16.38 17.48 16.38l92.79 87c0 9.05 7.82 16.39 17.47 16.39s17.48-7.34 17.48-16.4c0-9.04-7.83-16.38-17.48-16.38z"/><path fill="#FFB13B" stroke="#000" stroke-width="28.7" d="M139.6 58.98a15.7 15.7 0 0 0 0-23.18 18.3 18.3 0 0 0-24.72 0 15.7 15.7 0 0 0 0 23.18V182a15.7 15.7 0 0 0 0 23.18 18.3 18.3 0 0 0 24.72 0 15.7 15.7 0 0 0 0-23.18z"/><path fill="#FFB13B" stroke="#000" stroke-width="28.73" d="M182.37 85.19c9.65 0 17.48-7.34 17.48-16.39s-7.83-16.39-17.48-16.39-17.47 7.34-17.47 16.4l-92.79 87c-9.65 0-17.48 7.33-17.48 16.38s7.83 16.39 17.48 16.39 17.48-7.34 17.48-16.4z"/><path fill="#FFB13B" d="M61.63 108.9a18.3 18.3 0 0 0-24.71 0 15.7 15.7 0 0 0 0 23.18 18.3 18.3 0 0 0 24.71 0h131.22a18.3 18.3 0 0 0 24.72 0 15.7 15.7 0 0 0 0-23.17 18.3 18.3 0 0 0-24.72 0z"/><path fill="#FFB13B" d="M89.59 68.8c0-9.05-7.82-16.39-17.48-16.39s-17.48 7.34-17.48 16.4c0 9.04 7.83 16.38 17.48 16.38l92.79 87c0 9.05 7.82 16.39 17.47 16.39s17.48-7.34 17.48-16.4c0-9.04-7.83-16.38-17.48-16.38z"/><path fill="#FFB13B" d="M139.6 58.98a15.7 15.7 0 0 0 0-23.18 18.3 18.3 0 0 0-24.72 0 15.7 15.7 0 0 0 0 23.18V182a15.7 15.7 0 0 0 0 23.18 18.3 18.3 0 0 0 24.72 0 15.7 15.7 0 0 0 0-23.18z"/><path fill="#FFB13B" d="M182.37 85.19c9.65 0 17.48-7.34 17.48-16.39s-7.83-16.39-17.48-16.39-17.47 7.34-17.47 16.4l-92.79 87c-9.65 0-17.48 7.33-17.48 16.38s7.83 16.39 17.48 16.39 17.48-7.34 17.48-16.4z"/><path fill="#000" fill-opacity=".9" d="M17 121h220.64v73.1c0 17.19-14.03 30.35-32.35 30.35H49.35C31.03 224.45 17 211.29 17 194.1z"/><path fill="#fff" d="M50.03 172.14a26 26 0 0 1-8.38-18.95c0-14.8 12.8-26.81 28.59-26.81s28.6 12 28.6 26.8H82.08c0-6.13-5.31-11.1-11.85-11.1s-11.84 4.97-11.84 11.1c0 3.07 1.33 5.84 3.46 7.84 2.15 2.02 3.94 2.6 8.38 3.27 7.9.77 15.04 3 20.22 7.85a26 26 0 0 1 8.37 18.96c0 14.8-12.8 26.8-28.6 26.8-15.77 0-28.58-12-28.58-26.8H58.4c0 6.13 5.3 11.1 11.84 11.1s11.85-4.97 11.85-11.1a10.7 10.7 0 0 0-3.47-7.84c-2.15-2.02-5.23-2.7-8.38-3.26-7.66-1.1-15.04-3.01-20.21-7.87m105.99-45.75-20.23 91.53h-16.75l-20.2-91.53h16.74l11.85 53.6 11.84-53.6zm28.59 37.92h28.59v26.8c0 14.8-12.8 26.81-28.59 26.81s-28.59-12-28.59-26.81v-37.91c0-14.8 12.8-26.8 28.6-26.8 15.78 0 28.58 12 28.58 26.8h-16.75c0-6.13-5.3-11.1-11.84-11.1s-11.84 4.97-11.84 11.1v37.9c0 6.14 5.3 11.11 11.84 11.11s11.83-4.97 11.84-11.1V180h-11.84z"/></svg>