<svg xmlns="http://www.w3.org/2000/svg" width="256" height="256" fill="none" viewBox="0 0 256 256"><rect width="256" height="256" fill="#F05138" rx="60"/><path fill="#fff" d="m202.68 158.04.72-2.9c10.62-42.22-15.2-92.4-59.11-118.7 19.3 26.05 27.74 57.66 20.26 85.17a85 85 0 0 1-2.4 7.24 18 18 0 0 0-3.87-2.18s-43.67-27.02-90.96-74.55c-1.2-1.2 25.33 37.88 55.25 69.49-14.23-7.97-53.56-36.68-78.66-59.36a126 126 0 0 0 10.62 14.72c20.75 26.54 48.02 59.11 80.59 84.2-22.92 14-55.26 15.2-87.35 0a131 131 0 0 1-22.44-13.26 134.4 134.4 0 0 0 60.08 51.63c30.4 13.03 60.8 12.3 83.25.24 0 0 .24 0 .24-.24.96-.48 1.93-1.2 2.9-1.69 10.85-5.55 32.08-11.1 43.66 11.1 3.38 5.07 9.41-23.89-12.78-50.91"/></svg>