<svg xmlns="http://www.w3.org/2000/svg" width="256" height="256" fill="none" viewBox="0 0 256 256"><rect width="256" height="256" fill="#F4F2ED" rx="60"/><path fill="#1A171B" d="M128 228c55.23 0 100-44.77 100-100S183.23 28 128 28 28 72.77 28 128s44.77 100 100 100"/><path fill="#F4F2ED" d="M171.72 65c-10.16.36-19.03 5.95-25.63 13.7-7.3 8.5-12.17 18.56-15.67 28.85-6.27-5.14-11.1-11.79-21.16-14.69a25.9 25.9 0 0 0-23.44 4.28c-3.55 2.66-6 6.68-7.17 10.45-3.01 9.8 3.18 18.54 5.99 21.67l6.14 6.58c1.27 1.3 4.32 4.66 2.82 9.5-1.6 5.24-7.94 8.64-14.43 6.64-2.9-.89-7.06-3.05-6.13-6.09.39-1.24 1.28-2.17 1.75-3.25.44-.92.65-1.62.78-2.02 1.19-3.88-.43-8.91-4.58-10.2-3.87-1.18-7.83-.24-9.36 4.74-1.74 5.66.97 15.94 15.47 20.41 17 5.22 31.38-4.03 33.42-16.1 1.29-7.57-2.13-13.18-8.38-20.4l-5.1-5.64c-3.08-3.09-4.14-8.35-.95-12.38 2.7-3.41 6.54-4.87 12.83-3.16 9.17 2.5 13.27 8.86 20.1 14-2.83 9.25-4.67 18.53-6.34 26.85l-1.01 6.2c-4.88 25.6-8.6 39.66-18.29 47.73-1.95 1.39-4.74 3.46-8.94 3.6-2.2.08-2.92-1.44-2.95-2.1-.05-1.54 1.25-2.25 2.12-2.95 1.3-.7 3.25-1.88 3.12-5.63-.14-4.43-3.81-8.27-9.12-8.1-3.97.14-10.03 3.88-9.8 10.73.23 7.07 6.83 12.37 16.76 12.03 5.31-.18 17.18-2.34 28.87-16.24 13.6-15.93 17.4-34.19 20.27-47.55l3.2-17.65q2.65.32 5.73.4c16.95.36 25.43-8.42 25.55-14.8.09-3.87-2.53-7.67-6.2-7.58-2.62.07-5.92 1.82-6.71 5.45-.78 3.56 5.39 6.77.57 9.9-3.42 2.21-9.56 3.77-18.2 2.5l1.57-8.68c3.2-16.47 7.16-36.74 22.17-37.23 1.1-.06 5.1.05 5.19 2.7.03.88-.2 1.1-1.23 3.13a7.2 7.2 0 0 0-1.4 4.46c.14 4.21 3.34 6.97 7.97 6.8 6.2-.2 7.97-6.22 7.87-9.32-.25-7.27-7.92-11.87-18.07-11.54"/></svg>