<svg xmlns="http://www.w3.org/2000/svg" width="256" height="256" fill="none" viewBox="0 0 256 256"><rect width="256" height="256" fill="#F4F2ED" rx="60"/><path fill="#FFC131" d="M164.9 99.42a20 20 0 0 1-5.8 14.13 19.73 19.73 0 0 1-28.03 0 20.07 20.07 0 0 1 0-28.26 19.73 19.73 0 0 1 28.03 0 20 20 0 0 1 5.8 14.13"/><path fill="#24C8DB" d="M111.76 136.66a19.9 19.9 0 0 0-19.82 19.98 19.9 19.9 0 0 0 19.82 19.99 19.9 19.9 0 0 0 19.81-19.99 19.9 19.9 0 0 0-19.81-19.98"/><path fill="#FFC131" fill-rule="evenodd" d="M186.16 163.46a75 75 0 0 1-26.12 10.72 54 54 0 0 0 2.6-24.17 53 53 0 0 0 20.8-13.46 54 54 0 0 0 12.5-21.49 54 54 0 0 0-8.28-47.74c-5-6.74-11.5-12.2-18.99-15.93a52.8 52.8 0 0 0-48.05.47 53 53 0 0 0-18.68 16.31 88 88 0 0 0-29 8.54 76.4 76.4 0 0 1 18.5-31.1 75.6 75.6 0 0 1 30.67-18.97 75 75 0 0 1 68.87 11.9 76 76 0 0 1 22.64 28.18 76.9 76.9 0 0 1-2.71 70.42 76 76 0 0 1-24.75 26.32M73.84 90.6l18.55 2.27q.63-5.43 2.35-10.63a75 75 0 0 0-20.9 8.36" clip-rule="evenodd"/><path fill="#24C8DB" fill-rule="evenodd" d="M70.6 92.6a75 75 0 0 1 26.3-10.8 54 54 0 0 0-2.98 24.25 53 53 0 0 0-20.68 13.55 54 54 0 0 0-12.4 21.51 54 54 0 0 0 8.43 47.65 53 53 0 0 0 19 15.86 52.8 52.8 0 0 0 47.99-.53 53 53 0 0 0 18.64-16.29 88 88 0 0 0 29-8.45 76.4 76.4 0 0 1-18.52 31.07 75.6 75.6 0 0 1-30.64 18.94 75 75 0 0 1-68.83-11.9 76 76 0 0 1-22.64-28.14 76.9 76.9 0 0 1 2.64-70.37A76 76 0 0 1 70.6 92.6m112.32 72.86-.37.18z" clip-rule="evenodd"/></svg>