<svg xmlns="http://www.w3.org/2000/svg" width="256" height="256" fill="none" viewBox="0 0 256 256"><rect width="256" height="256" fill="#fff" rx="60"/><rect width="256" height="256" fill="#1D9BF0" rx="60"/><path fill="#fff" d="M199.57 91.41c.11 1.59.11 3.18.11 4.78 0 48.8-37.15 105.07-105.07 105.07v-.03A104.5 104.5 0 0 1 38 184.68q4.38.52 8.79.53a74 74 0 0 0 45.86-15.84 37 37 0 0 1-34.5-25.64 37 37 0 0 0 16.68-.64 36.9 36.9 0 0 1-29.63-36.2v-.47a37 37 0 0 0 16.76 4.63 37 37 0 0 1-11.43-49.31 104.8 104.8 0 0 0 76.11 38.58 36.95 36.95 0 0 1 62.94-33.68 74 74 0 0 0 23.45-8.97 37 37 0 0 1-16.24 20.43A74 74 0 0 0 218 72.28a75 75 0 0 1-18.43 19.13"/></svg>