<svg xmlns="http://www.w3.org/2000/svg" width="256" height="256" fill="none" viewBox="0 0 256 256"><rect width="256" height="256" fill="#007ACC" rx="60"/><path fill="#fff" d="m56.61 128.85-.08 10.48h33.32v94.68h23.57v-94.68h33.32v-10.28c0-5.69-.12-10.44-.28-10.56-.13-.16-20.4-.25-44.99-.2l-44.74.12zm149.96-10.75a32 32 0 0 1 16 9.23c2.36 2.52 5.86 7.11 6.14 8.21.08.33-11.05 7.8-17.8 11.99-.24.16-1.22-.9-2.31-2.52-3.3-4.8-6.75-6.87-12.03-7.23-7.76-.53-12.76 3.53-12.72 10.32 0 1.99.29 3.17 1.1 4.8 1.7 3.53 4.88 5.64 14.83 9.95 18.33 7.88 26.17 13.08 31.05 20.48 5.44 8.25 6.66 21.41 2.96 31.2-4.06 10.65-14.14 17.88-28.32 20.28-4.39.77-14.8.65-19.5-.2-10.29-1.83-20.04-6.9-26.05-13.57-2.36-2.6-6.95-9.39-6.67-9.88a20 20 0 0 1 2.36-1.5c1.14-.65 5.45-3.13 9.5-5.49l7.36-4.26 1.55 2.27c2.15 3.3 6.86 7.8 9.71 9.3 8.17 4.31 19.38 3.7 24.9-1.25 2.37-2.16 3.34-4.4 3.34-7.68 0-2.97-.37-4.27-1.9-6.5-2-2.85-6.06-5.25-17.6-10.24-13.21-5.7-18.9-9.23-24.1-14.84-3-3.25-5.85-8.45-7.03-12.8-.97-3.61-1.22-12.67-.45-16.33 2.73-12.76 12.36-21.66 26.25-24.3 4.51-.85 15-.53 19.43.57"/></svg>