<svg xmlns="http://www.w3.org/2000/svg" width="256" height="256" fill="none" viewBox="0 0 256 256"><g clip-path="url(#a)"><path fill="#242938" d="M196 0H60A60 60 0 0 0 0 60v136a60 60 0 0 0 60 60h136a60 60 0 0 0 60-60V60a60 60 0 0 0-60-60"/><path fill="#F47421" d="M127.5 206.25a78.75 78.75 0 1 0 0-157.5 78.75 78.75 0 0 0 0 157.5"/><path stroke="#fff" stroke-width="8.55" d="M127.5 165.7a38.2 38.2 0 1 0 0-76.4 38.2 38.2 0 0 0 0 76.4Z"/><path fill="#F47421" d="M73.95 142.27a14.77 14.77 0 1 0 0-29.54 14.77 14.77 0 0 0 0 29.54"/><path fill="#000" d="M157.25 127.5h17.5z"/><path stroke="#F47421" stroke-width="3.24" d="M157.25 127.5h17.5"/><path fill="#fff" d="M73.95 138.01a10.51 10.51 0 1 0 0-21.02 10.51 10.51 0 0 0 0 21.02"/><path fill="#F47421" d="M141.49 73.74a14.77 14.77 0 1 0 25.57 14.77 14.77 14.77 0 0 0-25.57-14.77"/><path fill="#000" d="m112.63 153.26-8.75 15.16z"/><path stroke="#F47421" stroke-width="3.24" d="m112.63 153.26-8.75 15.16"/><path fill="#fff" d="M145.17 75.87a10.51 10.51 0 1 0 18.21 10.51 10.51 10.51 0 0 0-18.21-10.51"/><path fill="#F47421" d="M167.06 166.5a14.77 14.77 0 1 0-25.57 14.76 14.77 14.77 0 0 0 25.57-14.77"/><path fill="#000" d="m112.63 101.74-8.75-15.16z"/><path stroke="#F47421" stroke-width="3.24" d="m112.63 101.74-8.75-15.16"/><path fill="#fff" d="M163.38 168.62a10.51 10.51 0 1 0-18.21 10.51 10.51 10.51 0 0 0 18.2-10.51"/></g><defs><clipPath id="a"><path fill="#fff" d="M0 0h256v256H0z"/></clipPath></defs></svg>