<svg xmlns="http://www.w3.org/2000/svg" width="256" height="256" fill="none" viewBox="0 0 256 256"><rect width="256" height="256" fill="#F4F2ED" rx="60"/><path fill="#4C4C4C" d="M216.04 167.81V74.74l-80.66-46.53v35.78l31.65 18.2c1.24.62 1.24 2.48 0 3.1l-37.65 21.72a3.6 3.6 0 0 1-3.51 0L88.22 85.08c-1.24-.62-1.24-2.48 0-3.1l31.65-18.2V28L39.2 74.54v93.27-.41.41l31.02-17.78v-36.61c0-1.24 1.45-2.28 2.69-1.45l37.64 21.72a3.8 3.8 0 0 1 1.86 3.1v43.43c0 1.24-1.45 2.28-2.69 1.45l-31.64-18.2-31.02 17.79 80.66 46.53 80.66-46.53-31.02-17.79-31.65 18.2c-1.03.62-2.69-.2-2.69-1.45V136.8c0-1.24.62-2.48 1.86-3.1l37.65-21.72c1.03-.62 2.69.2 2.69 1.45v36.6z"/><path fill="#000" d="m127.52 228 80.66-46.53-31.02-17.8-31.65 18.2c-1.03.63-2.68-.2-2.68-1.44V137a3.4 3.4 0 0 1 1.86-3.1l37.64-21.72c1.03-.62 2.69.2 2.69 1.45v36.6l31.02 17.8v-93.3l-88.52 51.09z"/><path fill="gray" d="M135.17 28v35.78l31.65 18.2c1.24.62 1.24 2.48 0 3.1l-37.64 21.72a3.6 3.6 0 0 1-3.52 0L88.22 85.08c-1.24-.62-1.24-2.48 0-3.1l31.65-18.2V28L39.2 74.54l88.52 51.08 88.52-51.08z"/><path fill="#4C4C4C" d="m109.32 181.67-31.64-18.2-31.03 17.79 80.66 46.53V125.62L39 74.74v93.28-.41.41l31.02-17.79v-36.6c0-1.24 1.45-2.28 2.7-1.45l37.64 21.72a3.8 3.8 0 0 1 1.86 3.1v43.43c-.21 1.03-1.66 1.86-2.9 1.24"/></svg>