<svg xmlns="http://www.w3.org/2000/svg" width="256" height="256" fill="none" viewBox="0 0 256 256"><rect width="256" height="256" fill="#0E1128" rx="60"/><path fill="#fff" fill-rule="evenodd" d="M191.14 143.12c-1.82 8.73-9.9 31.12-35.7 43.25l-10.35-11.6-17.47 17.5a65 65 0 0 1-28.57-7.08 64.4 64.4 0 0 1-22.44-18.97q2.8.87 5.71 1.07c2.86.05 5.96-1 5.96-5.78v-47.2a7.76 7.76 0 0 0-6.2-7.87 8 8 0 0 0-3.61.09c-8.1 1.86-14.56 21.95-14.56 21.95a63.7 63.7 0 0 1 22.22-48.97 65 65 0 0 1 32.78-15.05c-8.83 5-13.8 13.18-13.8 20.04 0 11.03 6.68 9.7 8.66 8.07v63.7q.5 1.2 1.3 2.24a9.4 9.4 0 0 0 7.73 3.9c6.68 0 15.35-7.6 15.35-7.6v-51.56c0-5.24-3.97-11.58-7.94-13.76 0 0 7.36-1.3 13.04 3.04q1.6-1.95 3.4-3.72c13.25-12.95 25.74-16.64 36.14-18.49 0 0-18.91 14.8-18.91 34.65 0 14.76.38 50.77.38 50.77 7.02 6.74 17.45-3 26.88-12.62" clip-rule="evenodd"/><path fill="#fff" fill-rule="evenodd" d="M128.47 23a106 106 0 0 0-58.6 17.7 105 105 0 0 0-38.84 47.12 104.6 104.6 0 0 0-6 60.66 105 105 0 0 0 28.86 53.76 105.6 105.6 0 0 0 54 28.74 106 106 0 0 0 60.94-5.98 105.4 105.4 0 0 0 47.33-38.67 104.66 104.66 0 0 0-13.11-132.58A105.7 105.7 0 0 0 128.47 23m0 205.79c-20.03 0-39.6-5.91-56.25-17a101 101 0 0 1-37.3-45.23 100.4 100.4 0 0 1-5.75-58.24 100.7 100.7 0 0 1 27.7-51.6 101.4 101.4 0 0 1 51.85-27.59c19.64-3.89 40-1.9 58.5 5.74A101 101 0 0 1 212.66 72a100.5 100.5 0 0 1-12.6 127.27 101.5 101.5 0 0 1-71.59 29.52" clip-rule="evenodd"/></svg>