<svg xmlns="http://www.w3.org/2000/svg" width="256" height="256" fill="none" viewBox="0 0 256 256"><rect width="256" height="256" fill="#242938" rx="60"/><path fill="#536B8A" d="m159.9 222.62 67.76-188.4c1.14-3.19-.67-5.52-4.05-5.19l-53.28 5.13c-3.37.33-7.03 3.2-8.14 6.4l-62.7 180.05c-1.13 3.2.72 5.8 4.12 5.8h51.86c1.7 0 3.54-1.3 4.11-2.89z"/><g filter="url(#a)"><path fill="#000" d="m152.18 223.52-28.2-81.49 4.02-2.51 28.71 83.1z"/></g><path fill="#5D87BF" d="m32.39 29.03 53.27 5.13c3.38.33 7.04 3.2 8.16 6.4l64.04 182.95c.55 1.6-.37 2.9-2.07 2.9h-52.18a9.4 9.4 0 0 1-8.23-5.78L28.35 34.23c-1.15-3.2.66-5.53 4.04-5.2"/><defs><filter id="a" width="58.5" height="109.77" x="111.09" y="126.64" color-interpolation-filters="sRGB" filterUnits="userSpaceOnUse"><feFlood flood-opacity="0" result="BackgroundImageFix"/><feBlend in="SourceGraphic" in2="BackgroundImageFix" result="shape"/><feGaussianBlur result="effect1_foregroundBlur_148_1050" stdDeviation="6.44"/></filter></defs></svg>