<svg xmlns="http://www.w3.org/2000/svg" width="256" height="256" fill="none" viewBox="0 0 256 256"><rect width="256" height="256" fill="url(#a)" rx="60"/><path fill="#201C2C" d="M130.99 28q-10.9 0-21.82 2.74a105 105 0 0 0-20.78 7.36 111 111 0 0 0-18.65 11.13A94 94 0 0 0 54.42 63.5a70 70 0 0 0-10.48 16.72l-.02.06A48 48 0 0 0 40 99c0 5.06.6 9.56 2 13.51l.05.12a24.4 24.4 0 0 0 6.54 9.71l.07.07a27 27 0 0 0 10.38 5.29 51 51 0 0 0 12.47 1.4c1.44 0 2.83-.6 3.85-1.65a5.7 5.7 0 0 0 1.6-3.99c0-2.08-.7-3.53-1.42-4.72l.25.47q-.45-1-.8-2.06v-.01q-.58-1.93-.96-3.9a49 49 0 0 1-.4-6.86c0-13.14 2.92-23.58 8.54-31.92 4.28-6.28 10.21-10.9 17.04-14.73l3.7 162.76a5.7 5.7 0 0 0 1.65 3.9 5.4 5.4 0 0 0 3.82 1.61h35.09c1.11 0 2.2-.35 3.11-1a5.6 5.6 0 0 0 2-2.66l67.68-187.5a5.8 5.8 0 0 0-.63-5.18 5.3 5.3 0 0 0-4.48-2.42h-17c-1.14 0-2.25.36-3.17 1.04a5.6 5.6 0 0 0-2 2.75l-41.1 123.5-1.69-122.47a5.8 5.8 0 0 0-1.43-3.73 5.4 5.4 0 0 0-3.48-1.8q-2.5-.26-5.02-.4-2.64-.13-5.27-.12z" opacity=".15"/><path fill="#201C2C" d="m108.38 222.36-3.92-171.9Q87.33 57.1 77.7 71.24q-9.53 14.13-9.53 35.14 0 4.8.48 7.87.6 2.94 1.19 4.79.6 1.72 1.07 2.7.6.99.6 1.72-6.3 0-11.18-1.23a21 21 0 0 1-8.21-4.18 18.5 18.5 0 0 1-5-7.49q-1.67-4.66-1.67-11.54 0-8.35 3.45-16.47a64 64 0 0 1 9.63-15.36 89 89 0 0 1 14.4-13.39 106 106 0 0 1 17.72-10.56 99 99 0 0 1 19.74-7 85 85 0 0 1 25.58-2.47q2.38.12 4.75.37l2.15 154.8 51.26-154.07h17l-67.67 187.5z" opacity=".3"/><path fill="#fff" d="m108.38 216.81-3.92-171.9Q87.33 51.56 77.7 65.69q-9.53 14.13-9.53 35.14 0 4.8.48 7.87.6 2.94 1.19 4.79.6 1.71 1.07 2.7.6.98.6 1.72-6.3 0-11.18-1.23-4.88-1.36-8.21-4.18a18.5 18.5 0 0 1-5-7.49q-1.67-4.66-1.67-11.55 0-8.34 3.45-16.46a64 64 0 0 1 9.63-15.36 89 89 0 0 1 14.4-13.39q8.33-6.15 17.72-10.57a99 99 0 0 1 19.74-7 85 85 0 0 1 25.58-2.46q2.38.12 4.75.37l2.15 154.8 51.26-154.07h17l-67.67 187.5z"/><defs><linearGradient id="a" x1="128" x2="128" y1="0" y2="256" gradientUnits="userSpaceOnUse"><stop stop-color="#AD65D6"/><stop offset="1" stop-color="#7B37B2"/></linearGradient></defs></svg>