<svg xmlns="http://www.w3.org/2000/svg" width="256" height="256" fill="none" viewBox="0 0 256 256"><rect width="256" height="256" fill="#F4F2ED" rx="60"/><path fill="#019833" stroke="#000" stroke-width="4" d="M135.5 39.46a19 19 0 0 0-26.89 0l-75.2 75.3a19 19 0 0 0 0 26.86l74.78 74.88a19 19 0 0 0 26.88 0l75.2-75.3a19 19 0 0 0 0-26.86z"/><path fill="#fff" stroke="#000" stroke-width="4" d="m161.77 40.71-2.69 2.69v9.87l2.35 2.35h12.43v9.54l-82.19 83.42V55.74h13.66l2.8-2.8v-10l-2.58-2H33.67l-2.35 2.36v10.2l2.39 2.4h12.5v160.42a12.14 12.14 0 0 0 20.86 8.44L235 51.25V43.4l-2.69-2.69z"/></svg>