<svg xmlns="http://www.w3.org/2000/svg" width="256" height="256" fill="none" viewBox="0 0 256 256"><rect width="256" height="256" fill="#242938" rx="60"/><mask id="a" width="200" height="200" x="28" y="28" maskUnits="userSpaceOnUse"><path fill="#fff" d="m64.67 197.17-33.34-25A8.3 8.3 0 0 1 28 165.5v-75a8.3 8.3 0 0 1 3.33-6.67l33.34-25a7.6 7.6 0 0 0-2.3 6.67v125a7.6 7.6 0 0 0 2.3 6.67"/><path fill="#fff" d="M224.29 62.7a8.4 8.4 0 0 0-10.37.97l-.59.58-66.5 63.75-36.79 35.3L76 195.9l-.58.59a8 8 0 0 1-5.75 2.33c-1.8 0-3.56-.58-5-1.67l-33.34-25a8.33 8.33 0 0 0 11.34-1.25l37-42.95 30.37-35.25 53.21-61.8a8.2 8.2 0 0 1 6.3-2.91c1.63 0 3.24.47 4.61 1.38z"/><path fill="#fff" d="m224.29 193.29-50 33.33a8.44 8.44 0 0 1-10.96-1.5l-53.29-61.83-30.37-35.33-37-42.92a8.37 8.37 0 0 0-11.34-1.2l33.34-25a8.4 8.4 0 0 1 8.1-1.08q1.5.62 2.65 1.74l.58.58 34.04 32.63 36.8 35.29 66.5 63.75.57.58a8 8 0 0 0 5.75 2.33 8.3 8.3 0 0 0 4.63-1.37"/><path fill="#fff" d="M228 69.67v116.66a8.4 8.4 0 0 1-3.71 6.96l-50 33.33a8.4 8.4 0 0 0 3.7-6.96V36.33a8.4 8.4 0 0 0-3.83-6.95L224.3 62.7a8.4 8.4 0 0 1 3.71 6.96"/></mask><g mask="url(#a)"><path fill="#5E438F" d="m64.67 197.17-33.34-25A8.3 8.3 0 0 1 28 165.5v-75a8.3 8.3 0 0 1 3.33-6.67l33.34-25a7.6 7.6 0 0 0-2.3 6.67v125a7.6 7.6 0 0 0 2.3 6.66"/><g filter="url(#b)"><path fill="url(#c)" d="M224.29 62.7a8.4 8.4 0 0 0-10.37.97l-.59.58-35.42 33.96L146.83 128l-36.79 35.3L76 195.9l-.58.59a8 8 0 0 1-5.75 2.33c-1.8 0-3.56-.58-5-1.67l-33.34-25a8.33 8.33 0 0 0 11.34-1.25l18.66-21.66 18.34-21.3 30.37-35.24 53.2-61.8a8.2 8.2 0 0 1 6.3-2.91 8.4 8.4 0 0 1 4.63 1.38z"/></g><g filter="url(#d)"><path fill="url(#e)" d="m224.29 193.29-50 33.34a8.44 8.44 0 0 1-10.96-1.5l-53.29-61.84-30.37-35.33-18.34-21.25-18.66-21.67a8.37 8.37 0 0 0-11.34-1.2l33.34-25a8.4 8.4 0 0 1 8.1-1.08q1.5.61 2.65 1.74l.58.58 34.04 32.63 36.8 35.29 31.12 29.84 35.37 33.91.58.59a8 8 0 0 0 5.75 2.32 8.3 8.3 0 0 0 4.63-1.37"/></g><g filter="url(#f)"><path fill="url(#g)" d="M228 69.67v116.66a8.4 8.4 0 0 1-3.71 6.96l-50 33.33a8.4 8.4 0 0 0 3.7-6.96V36.33a8.4 8.4 0 0 0-3.83-6.96l50.13 33.34a8.4 8.4 0 0 1 3.71 6.96"/></g></g><defs><linearGradient id="c" x1="190.5" x2="41.99" y1="28" y2="177.47" gradientUnits="userSpaceOnUse"><stop stop-color="#7252AA"/><stop offset="1" stop-color="#7252AA"/></linearGradient><linearGradient id="e" x1="46.75" x2="186.33" y1="64.46" y2="220.71" gradientUnits="userSpaceOnUse"><stop stop-color="#AE7FE2"/><stop offset="1" stop-color="#9A70D4"/></linearGradient><linearGradient id="g" x1="200.49" x2="200.49" y1="25.35" y2="226.46" gradientUnits="userSpaceOnUse"><stop stop-color="#D59DFF"/><stop offset="1" stop-color="#C18EF1"/></linearGradient><filter id="b" width="203.32" height="181.2" x="26.15" y="24.11" color-interpolation-filters="sRGB" filterUnits="userSpaceOnUse"><feFlood flood-opacity="0" result="BackgroundImageFix"/><feColorMatrix in="SourceAlpha" result="hardAlpha" values="0 0 0 0 0 0 0 0 0 0 0 0 0 0 0 0 0 0 127 0"/><feOffset dy=".25"/><feGaussianBlur stdDeviation=".25"/><feColorMatrix values="0 0 0 0 0 0 0 0 0 0 0 0 0 0 0 0 0 0 0.24 0"/><feBlend in2="BackgroundImageFix" result="effect1_dropShadow_217_156"/><feColorMatrix in="SourceAlpha" result="hardAlpha" values="0 0 0 0 0 0 0 0 0 0 0 0 0 0 0 0 0 0 127 0"/><feOffset dy="1.3"/><feGaussianBlur stdDeviation="2.59"/><feColorMatrix values="0 0 0 0 0 0 0 0 0 0 0 0 0 0 0 0 0 0 0.22 0"/><feBlend in2="effect1_dropShadow_217_156" result="effect2_dropShadow_217_156"/><feBlend in="SourceGraphic" in2="effect2_dropShadow_217_156" result="shape"/></filter><filter id="d" width="203.32" height="181.19" x="26.15" y="53.28" color-interpolation-filters="sRGB" filterUnits="userSpaceOnUse"><feFlood flood-opacity="0" result="BackgroundImageFix"/><feColorMatrix in="SourceAlpha" result="hardAlpha" values="0 0 0 0 0 0 0 0 0 0 0 0 0 0 0 0 0 0 127 0"/><feOffset dy=".25"/><feGaussianBlur stdDeviation=".25"/><feColorMatrix values="0 0 0 0 0 0 0 0 0 0 0 0 0 0 0 0 0 0 0.24 0"/><feBlend in2="BackgroundImageFix" result="effect1_dropShadow_217_156"/><feColorMatrix in="SourceAlpha" result="hardAlpha" values="0 0 0 0 0 0 0 0 0 0 0 0 0 0 0 0 0 0 127 0"/><feOffset dy="1.3"/><feGaussianBlur stdDeviation="2.59"/><feColorMatrix values="0 0 0 0 0 0 0 0 0 0 0 0 0 0 0 0 0 0 0.22 0"/><feBlend in2="effect1_dropShadow_217_156" result="effect2_dropShadow_217_156"/><feBlend in="SourceGraphic" in2="effect2_dropShadow_217_156" result="shape"/></filter><filter id="f" width="84.92" height="228.34" x="158.62" y="13.83" color-interpolation-filters="sRGB" filterUnits="userSpaceOnUse"><feFlood flood-opacity="0" result="BackgroundImageFix"/><feColorMatrix in="SourceAlpha" result="hardAlpha" values="0 0 0 0 0 0 0 0 0 0 0 0 0 0 0 0 0 0 127 0"/><feOffset/><feGaussianBlur stdDeviation=".13"/><feColorMatrix values="0 0 0 0 0 0 0 0 0 0 0 0 0 0 0 0 0 0 0.24 0"/><feBlend in2="BackgroundImageFix" result="effect1_dropShadow_217_156"/><feColorMatrix in="SourceAlpha" result="hardAlpha" values="0 0 0 0 0 0 0 0 0 0 0 0 0 0 0 0 0 0 127 0"/><feOffset/><feGaussianBlur stdDeviation="7.77"/><feColorMatrix values="0 0 0 0 0 0 0 0 0 0 0 0 0 0 0 0 0 0 0.3 0"/><feBlend in2="effect1_dropShadow_217_156" result="effect2_dropShadow_217_156"/><feBlend in="SourceGraphic" in2="effect2_dropShadow_217_156" result="shape"/></filter></defs></svg>