<svg xmlns="http://www.w3.org/2000/svg" width="256" height="256" fill="none" viewBox="0 0 256 256"><rect width="256" height="256" fill="#242938" rx="60"/><path fill="#FCC72B" d="m178.09 92.32-47.81 69.13a4.12 4.12 0 0 1-7.49-2.51l1.92-38.17-30.9-6.55a4.1 4.1 0 0 1-3.22-4.45q.12-1.02.7-1.86l47.82-69.14a4.11 4.11 0 0 1 7.48 2.52l-1.91 38.17L175.57 86a4.1 4.1 0 0 1 3.22 4.45q-.13 1.01-.7 1.86"/><path fill="#729B1B" d="M128.02 219.45a9.7 9.7 0 0 1-6.85-2.83L76 171.44a9.68 9.68 0 0 1 13.69-13.69l38.33 38.33 83.5-83.5a9.68 9.68 0 0 1 13.7 13.68l-90.36 90.36a9.6 9.6 0 0 1-6.84 2.83"/><path fill="#729B1B" fill-opacity=".5" d="M127.98 219.45a9.7 9.7 0 0 0 6.85-2.83L180 171.44a9.67 9.67 0 0 0-13.69-13.69l-38.33 38.33-83.51-83.5a9.68 9.68 0 0 0-13.69 13.68l90.36 90.36a9.7 9.7 0 0 0 6.84 2.83"/></svg>