<svg xmlns="http://www.w3.org/2000/svg" width="256" height="256" fill="none" viewBox="0 0 256 256"><rect width="256" height="256" fill="#F4F2ED" rx="60"/><path fill="url(#a)" d="m227.09 57.6-93.83 167.8a5.1 5.1 0 0 1-8.88.04L28.67 57.62A5.1 5.1 0 0 1 34 50.07l93.93 16.8q.91.15 1.81-.01l91.97-16.76a5.1 5.1 0 0 1 5.37 7.5"/><path fill="url(#b)" d="m172.69 28.05-69.44 13.6a2.55 2.55 0 0 0-2.06 2.36l-4.27 72.14a2.55 2.55 0 0 0 3.12 2.63l19.33-4.46a2.55 2.55 0 0 1 3.07 3l-5.74 28.12a2.55 2.55 0 0 0 3.24 2.95l11.94-3.62a2.55 2.55 0 0 1 3.24 2.95l-9.13 44.18c-.57 2.76 3.1 4.27 4.64 1.9l1.02-1.58L188.24 79.3a2.55 2.55 0 0 0-2.77-3.65l-19.9 3.84a2.55 2.55 0 0 1-2.93-3.2l12.99-45.03a2.55 2.55 0 0 0-2.94-3.21"/><defs><linearGradient id="a" x1="26.35" x2="143.13" y1="44.08" y2="202.67" gradientUnits="userSpaceOnUse"><stop stop-color="#41D1FF"/><stop offset="1" stop-color="#BD34FE"/></linearGradient><linearGradient id="b" x1="122.55" x2="143.68" y1="31.74" y2="176.66" gradientUnits="userSpaceOnUse"><stop stop-color="#FFEA83"/><stop offset=".08" stop-color="#FFDD35"/><stop offset="1" stop-color="#FFA800"/></linearGradient></defs></svg>