<svg xmlns="http://www.w3.org/2000/svg" width="256" height="256" fill="none" viewBox="0 0 256 256"><rect width="256" height="256" fill="#F4F2ED" rx="60"/><path fill="#2489CA" d="M33.72 100.2s-4.74-3.4.94-7.96L47.9 80.4s3.79-3.98 7.8-.51l122.14 92.48v44.34s-.06 6.97-9 6.2z"/><path fill="#1070B3" d="m65.2 128.8-31.48 28.6s-3.24 2.41 0 6.71l14.61 13.3s3.48 3.73 8.6-.51l33.38-25.31z"/><path fill="#0877B9" d="m120.47 129.03 57.75-44.1-.38-44.1s-2.47-9.63-10.7-4.62l-76.83 69.93z"/><path fill="#3C99D4" d="M168.84 222.97c3.36 3.43 7.42 2.3 7.42 2.3l45-22.17c5.76-3.92 4.95-8.8 4.95-8.8V61.9c0-5.82-5.96-7.83-5.96-7.83l-39-18.8c-8.52-5.27-14.1.94-14.1.94s7.18-5.16 10.69 4.62v175.08c0 1.2-.26 2.38-.77 3.45-1.03 2.07-3.25 4-8.6 3.2z"/></svg>