<svg xmlns="http://www.w3.org/2000/svg" width="256" height="256" fill="none" viewBox="0 0 256 256"><g clip-path="url(#a)"><path fill="#F4F2ED" d="M196 0H60A60 60 0 0 0 0 60v136a60 60 0 0 0 60 60h136a60 60 0 0 0 60-60V60a60 60 0 0 0-60-60"/><g clip-path="url(#b)"><path fill="url(#c)" d="M124.46 43.98a10.7 10.7 0 0 0-3.22 14.82c17.69 27.4 21.86 48.06 20.05 66.17-7.32 34.68-23.23 41.71-37.14 41.71-13.58 0-9.95-22.35.26-28.89 6.1-3.8 13.9-6.28 19.89-6.28 5.94 0 10.75-4.8 10.75-10.71s-4.81-10.72-10.75-10.72c-7 0-13.86 1.47-20.27 3.97 1.31-6.17 1.8-12.85.1-19.94-2.57-10.77-9.96-21.06-22.8-31.04a10.76 10.76 0 0 0-15.1 1.86 10.7 10.7 0 0 0 1.9 15.05c10.46 8.12 13.91 14.14 15.1 19.09 1.17 4.95.22 10.26-2.15 17.56-3.03 9.83-6.55 18.61-8.1 27.03-.76 4.14-.82 8.65-1.02 12.26-7.53-7.35-10.48-17.04-10.48-31.2a10.73 10.73 0 0 0-21.49 0c0 19.34 5.66 37.75 20.83 50.03 13.72 13.08 48.63 8.25 48.63 29.24 0 5.93 8.67 8.81 14.6 8.81 6.1 0 13.75-4.07 13.75-8.8 0-23.83 25.1-38.3 66.43-38.25a10.73 10.73 0 1 0 .04-21.44q-4.23.01-8.3.26c4.62-10.87 6.67-22.83 6.25-35.75a10.74 10.74 0 0 0-11.1-10.36 10.73 10.73 0 0 0-10.4 11.07c.57 16.91-.07 32.02-12.67 39.99-3.59 2.26-7.75 4.22-11.7 4.22a108 108 0 0 0 6.33-26.64c.6-6.06.67-13.26-.02-18.85-1.07-8.66-2.37-18.49.92-25.89 2.95-6.37 9.57-9.04 19.29-9.04a10.73 10.73 0 1 0 0-21.44 37.8 37.8 0 0 0-31.6 16.78 181 181 0 0 0-11.96-21.46 10.75 10.75 0 0 0-14.86-3.22"/></g></g><defs><clipPath id="a"><path fill="#fff" d="M0 0h256v256H0z"/></clipPath><clipPath id="b"><path fill="#fff" d="M40 40h175v175H40z"/></clipPath><linearGradient id="c" x1="39.99" x2="209.16" y1="42.28" y2="205.5" gradientUnits="userSpaceOnUse"><stop stop-color="#62A0EA"/><stop offset="1" stop-color="#1A5FB4"/></linearGradient></defs></svg>