<svg xmlns="http://www.w3.org/2000/svg" width="256" height="256" fill="none" viewBox="0 0 256 256"><g clip-path="url(#a)"><path fill="#242938" d="M196 0H60A60 60 0 0 0 0 60v136a60 60 0 0 0 60 60h136a60 60 0 0 0 60-60V60a60 60 0 0 0-60-60"/><g clip-path="url(#b)"><path fill="#1697F6" d="m129.35 102.95-34.89 60.57 33.04 57.37 43.76-75.94L215 69h-66.1z"/><path fill="#AEDDFF" d="m83.76 144.95 2.3 3.99 32.63-56.67L132.1 69H40z"/><path fill="#1867C0" d="M148.9 69c16.54 54.54-21.4 151.9-21.4 151.9l-33.04-57.38z"/><path fill="#7BC6FF" d="M132.1 69c-69.68 0-46.05 79.94-46.05 79.94z"/></g></g><defs><clipPath id="a"><path fill="#fff" d="M0 0h256v256H0z"/></clipPath><clipPath id="b"><path fill="#fff" d="M40 69h175v152H40z"/></clipPath></defs></svg>