<svg xmlns="http://www.w3.org/2000/svg" width="256" height="256" fill="none" viewBox="0 0 256 256"><g clip-path="url(#a)"><path fill="#654FF0" d="M157.28 0v1.38a29.35 29.35 0 1 1-58.7 0V0H0v256h256V0z"/><path fill="#fff" d="M59.47 137.96h16.96l11.58 61.69h.21l13.92-61.69h15.88l12.57 62.44h.25l13.2-62.44h16.64l-21.62 90.64h-16.84l-12.47-61.69h-.33l-13.34 61.7H78.92zm120.34 0h26.74l26.57 90.64h-17.5l-5.78-20.17h-30.47l-4.46 20.17h-17.05zm10.18 22.34-7.4 33.26h23.03l-8.5-33.26z"/></g><defs><clipPath id="a"><rect width="256" height="256" fill="#fff" rx="60"/></clipPath></defs></svg>