<svg xmlns="http://www.w3.org/2000/svg" width="256" height="256" fill="none" viewBox="0 0 256 256"><rect width="256" height="256" fill="#4353FF" rx="60"/><path fill="#fff" d="M169.1 103.44s-13.81 43.28-14.83 46.95c-.4-3.6-10.48-81.39-10.48-81.39-23.55 0-36.07 16.74-42.74 34.44 0 0-16.8 43.41-18.17 47.02-.07-3.4-2.59-46.62-2.59-46.62C78.86 82.14 59.06 69 43 69l19.33 117.8c24.63-.07 37.9-16.74 44.85-34.5 0 0 14.76-38.32 15.38-40.02.13 1.64 10.61 74.52 10.61 74.52 24.7 0 38.05-15.58 45.19-32.66L213 69c-24.43 0-37.3 16.67-43.9 34.44"/></svg>