<svg xmlns="http://www.w3.org/2000/svg" width="256" height="256" fill="none" viewBox="0 0 256 256"><rect width="256" height="256" fill="#242938" rx="60"/><path fill="#fff" d="m128.22 18 97.22 55v110l-97.22 55L31 183V73z"/><path fill="#8ED6FB" d="m208.08 179.2-76.65 43.36V188.8l47.76-26.27zm5.24-4.74V83.78l-28.04 16.19v58.28zM48.05 179.2l76.65 43.35V188.8l-47.76-26.27zm-5.24-4.75V83.78l28.05 16.19v58.28zm3.28-96.55 78.61-44.47v32.65l-50.36 27.7-.39.22zm163.95 0-78.61-44.47v32.65l50.36 27.7.39.22z"/><path fill="#1C78C0" d="m124.7 181.11-47.12-25.9v-51.34l47.12 27.21zm6.73 0 47.12-25.9v-51.34l-47.12 27.21zM80.78 97.93l47.3-26.01 47.3 26.01-47.3 27.32z"/></svg>