<svg xmlns="http://www.w3.org/2000/svg" width="256" height="256" fill="none" viewBox="0 0 256 256"><g clip-path="url(#a)"><path fill="#F4F2ED" d="M196 0H60A60 60 0 0 0 0 60v136a60 60 0 0 0 60 60h136a60 60 0 0 0 60-60V60a60 60 0 0 0-60-60"/><path fill="#00ADEF" d="M40 65.66 110.97 56l.03 68.45-70.93.4zm70.94 66.68.05 68.51-70.93-9.75v-59.22zm8.6-77.6L213.64 41v82.58l-94.1.75zm94.12 78.24-.02 82.22-94.1-13.29-.13-69.08z"/></g><defs><clipPath id="a"><path fill="#fff" d="M0 0h256v256H0z"/></clipPath></defs></svg>