<svg xmlns="http://www.w3.org/2000/svg" width="256" height="256" fill="none" viewBox="0 0 256 256"><rect width="256" height="256" fill="#F4F2ED" rx="60"/><path fill="url(#a)" d="M132.16 63.16A35.2 35.2 0 0 0 97 28c-20.44 0-32.66 15.32-32.66 30.14h20.1c0-4.17 3.9-10.05 12.56-10.05 8.3 0 15.06 6.76 15.06 15.07S106 78.23 90.72 78.23H36v20.1h54.7c25.82 0 41.46-15.78 41.46-35.17m0 0A35.2 35.2 0 0 0 97 28c-20.44 0-32.66 15.32-32.66 30.14h20.1c0-4.17 3.9-10.05 12.56-10.05 8.3 0 15.06 6.76 15.06 15.07S106 78.23 90.72 78.23H36v20.1h54.7c25.82 0 41.46-15.78 41.46-35.17"/><path fill="url(#b)" d="M176.73 192.84A35.2 35.2 0 0 1 141.57 228c-20.43 0-32.65-15.32-32.65-30.14h20.1c0 4.17 3.9 10.05 12.55 10.05 8.31 0 15.07-6.76 15.07-15.07s-7.64-15.07-21.36-15.07h-60.7v-20.1h60.7c25.81 0 41.45 15.78 41.45 35.17m0 0A35.2 35.2 0 0 1 141.57 228c-20.43 0-32.65-15.32-32.65-30.14h20.1c0 4.17 3.9 10.05 12.55 10.05 8.31 0 15.07-6.76 15.07-15.07s-7.64-15.07-21.36-15.07h-60.7v-20.1h60.7c25.81 0 41.45 15.78 41.45 35.17"/><path fill="url(#c)" d="M182 59c-22.16 0-37.8 16.85-37.8 39.02H162C162 87 170 79 182 79s18 8 18 19.02-7.8 20.09-29 20.09H36v20.1h138c31.4 0 46-20.2 46-40.2C220 75.86 205 59 182 59"/><path fill="url(#d)" d="M62.34 157.68H36v20.26h26.34z"/><defs><linearGradient id="a" x1="52" x2="168" y1="45" y2="228" gradientUnits="userSpaceOnUse"><stop offset=".08" stop-color="#54C8F1"/><stop offset=".57" stop-color="#41A2EF"/><stop offset="1" stop-color="#3386EE"/></linearGradient><linearGradient id="b" x1="52" x2="168" y1="45" y2="228" gradientUnits="userSpaceOnUse"><stop offset=".08" stop-color="#54C8F1"/><stop offset=".57" stop-color="#41A2EF"/><stop offset="1" stop-color="#3386EE"/></linearGradient><linearGradient id="c" x1="52" x2="168" y1="45" y2="228" gradientUnits="userSpaceOnUse"><stop offset=".08" stop-color="#54C8F1"/><stop offset=".57" stop-color="#41A2EF"/><stop offset="1" stop-color="#3386EE"/></linearGradient><linearGradient id="d" x1="52" x2="168" y1="45" y2="228" gradientUnits="userSpaceOnUse"><stop offset=".08" stop-color="#54C8F1"/><stop offset=".57" stop-color="#41A2EF"/><stop offset="1" stop-color="#3386EE"/></linearGradient></defs></svg>