<svg xmlns="http://www.w3.org/2000/svg" width="256" height="256" fill="none" viewBox="0 0 256 256"><rect width="256" height="256" fill="#0073AA" rx="60"/><path fill="#fff" d="M42.21 128a85.8 85.8 0 0 0 48.35 77.2L49.64 93.08A85.5 85.5 0 0 0 42.21 128m143.69-4.33c0-10.6-3.8-17.95-7.07-23.66-4.34-7.07-8.42-13.05-8.42-20.12 0-7.89 5.98-15.23 14.4-15.23.38 0 .75.05 1.12.07A85.5 85.5 0 0 0 128 42.21a85.7 85.7 0 0 0-71.68 38.67c2.02.06 3.91.1 5.52.1 8.98 0 22.87-1.09 22.87-1.09 4.62-.27 5.17 6.52.55 7.07 0 0-4.65.55-9.82.82l31.24 92.92 18.77-56.3-13.37-36.63c-4.61-.27-9-.81-9-.81-4.61-.27-4.07-7.34.55-7.07 0 0 14.17 1.09 22.6 1.09 8.97 0 22.86-1.09 22.86-1.09 4.63-.27 5.17 6.52.55 7.07 0 0-4.66.54-9.82.81l31 92.22 8.56-28.6c3.7-11.86 6.53-20.38 6.53-27.72"/><path fill="#fff" d="m129.5 135.5-25.73 74.79a85.8 85.8 0 0 0 52.71-1.37 8 8 0 0 1-.6-1.18zm73.77-48.66q.57 4.09.58 8.82c0 8.7-1.63 18.49-6.53 30.73l-26.2 75.75A85.7 85.7 0 0 0 213.78 128a85 85 0 0 0-10.51-41.16"/><path fill="#fff" d="M128 28C72.86 28 28 72.86 28 128s44.86 100 100 100 100-44.86 100-100S183.13 28 128 28m0 195.41c-52.61 0-95.41-42.8-95.41-95.42 0-52.6 42.8-95.4 95.4-95.4s95.42 42.8 95.42 95.4c0 52.62-42.8 95.42-95.41 95.42"/></svg>