<svg xmlns="http://www.w3.org/2000/svg" width="256" height="256" fill="none" viewBox="0 0 256 256"><rect width="256" height="256" fill="#F4F2ED" rx="60"/><path fill="url(#a)" d="M79.42 40.6 103 83.1l-21.64 38.96a12.5 12.5 0 0 0 0 12.16L103 173.27l-23.57 42.5a25 25 0 0 1-10.58-9.95l-37.5-65.15a25.1 25.1 0 0 1 0-25l37.5-65.17a25 25 0 0 1 10.58-9.9"/><path fill="url(#b)" d="M81.35 122.1a12.5 12.5 0 0 0 0 12.12l21.64 39.05-23.57 42.5a25 25 0 0 1-10.58-9.95l-37.5-65.15q-4.47-7.7 50-18.52z" opacity=".7"/><path fill="url(#c)" d="m81.83 44.88 21.16 38.23-3.52 6.1-18.65-31.59c-5.39-8.8-13.61-4.23-23.9 13.56l1.54-2.64L68.84 50.5a25 25 0 0 1 10.49-9.9l2.45 4.28z" opacity=".5"/><path fill="url(#d)" d="m187.14 50.5 37.5 65.16a25 25 0 0 1 0 25l-37.5 65.16a25 25 0 0 1-21.64 12.5H128l46.63-84.1a12.5 12.5 0 0 0 0-12.11L128 38h37.5a25 25 0 0 1 21.65 12.5"/><path fill="url(#e)" d="m163.57 218.04-37.02.34 44.82-84.54a13 13 0 0 0 0-12.22L126.55 38H135l47.03 83.24a13 13 0 0 1-.05 12.89 7542 7542 0 0 0-30.15 52.9q-13.68 24.09 11.73 31"/><path fill="url(#f)" d="M90.48 218.33c-3.84 0-7.7-.92-11.06-2.55l46.26-83.43a8.6 8.6 0 0 0 0-8.37L79.42 40.6A25 25 0 0 1 90.48 38H128l46.65 84.1a12.5 12.5 0 0 1 0 12.12L128 218.32z"/><path fill="url(#g)" d="M171.37 123.98 123.67 38h4.32l46.65 84.1a12.5 12.5 0 0 1 0 12.12l-46.65 84.1h-4.33l47.7-85.97a8.6 8.6 0 0 0 0-8.37" opacity=".6"/><path fill="url(#h)" d="M125.68 123.98 79.42 40.6a26 26 0 0 1 4.81-1.83 6770 6770 0 0 1 45.2 83.34 12.5 12.5 0 0 1 0 12.11l-45.92 83.15c-1.63-.49-2.5-.82-4.04-1.54l46.16-83.43a8.6 8.6 0 0 0 0-8.37z" opacity=".6"/><defs><linearGradient id="a" x1="65.49" x2="-11.31" y1="215.78" y2="92.26" gradientUnits="userSpaceOnUse"><stop stop-color="#EB6F07"/><stop offset="1" stop-color="#FAB743"/></linearGradient><linearGradient id="b" x1="89.31" x2="49.76" y1="200.51" y2="159.84" gradientUnits="userSpaceOnUse"><stop stop-color="#D96504"/><stop offset="1" stop-color="#D96504" stop-opacity="0"/></linearGradient><linearGradient id="c" x1="76.27" x2="97.2" y1="44.83" y2="78.45" gradientUnits="userSpaceOnUse"><stop stop-color="#EB6F07"/><stop offset="1" stop-color="#EB720A" stop-opacity="0"/></linearGradient><linearGradient id="d" x1="178" x2="109.23" y1="218.33" y2="75.03" gradientUnits="userSpaceOnUse"><stop stop-color="#EE6F05"/><stop offset="1" stop-color="#FAB743"/></linearGradient><linearGradient id="e" x1="107.56" x2="217.67" y1="218.38" y2="190.43" gradientUnits="userSpaceOnUse"><stop stop-color="#D96504" stop-opacity=".8"/><stop offset=".5" stop-color="#D96504" stop-opacity=".2"/><stop offset="1" stop-color="#D96504" stop-opacity="0"/></linearGradient><linearGradient id="f" x1="127.81" x2="57.64" y1="218.33" y2="76.83" gradientUnits="userSpaceOnUse"><stop stop-color="#FFA95F"/><stop offset="1" stop-color="#FFEBC8"/></linearGradient><linearGradient id="g" x1="127.92" x2="186.44" y1="39.98" y2="49.18" gradientUnits="userSpaceOnUse"><stop stop-color="#fff" stop-opacity=".5"/><stop offset="1" stop-color="#fff" stop-opacity=".1"/></linearGradient><linearGradient id="h" x1="72.36" x2="144.69" y1="224.87" y2="214.21" gradientUnits="userSpaceOnUse"><stop stop-color="#fff" stop-opacity=".5"/><stop offset="1" stop-color="#fff" stop-opacity=".1"/></linearGradient></defs></svg>