<svg xmlns="http://www.w3.org/2000/svg" width="256" height="256" fill="none" viewBox="0 0 256 256"><g clip-path="url(#a)"><path fill="#F4F2ED" d="M196 0H60A60 60 0 0 0 0 60v136a60 60 0 0 0 60 60h136a60 60 0 0 0 60-60V60a60 60 0 0 0-60-60"/><g clip-path="url(#b)"><path fill="#3398C2" d="M128.04 28a100 100 0 0 1 99.93 97.29c1.48 57.68-45.51 104-102.26 102.68-53.06-1.2-95.27-43.54-97.6-95.33C25.5 75.23 71.43 27.95 128.04 28"/><path fill="#FEFEFE" d="M91.21 98.03q.99-3.8 2.8-7.32a9.2 9.2 0 0 1 5.3-4.75 11 11 0 0 0 4.53-2.9 27.3 27.3 0 0 1 16.8-8.1c1.06-.1 1.61-.5 2.02-1.5.98-2.39 2.2-4.68 3.83-6.71 2.13-2.7 4.7-4.7 8.4-4.49a7.4 7.4 0 0 1 5.7 3 39 39 0 0 1 3.9 6.8c.38.77.69 1.05 1.63.85 3.45-.76 6.25.75 7.73 3.96a37 37 0 0 1 2.97 11.8c.88 8.46.3 16.8-2.56 24.9a56 56 0 0 1-6.92 13.33c-.35.5-.44.83.04 1.35 7.72 8.66 11.5 18.76 11.06 30.39v.83c.55.03.97-.3 1.38-.53 3.4-1.75 6.51-3.98 9.95-5.7 4.83-2.43 9.88-4.13 15.36-4.09 8.1.07 13.32 7.96 9.92 15-1.33 2.77-3.51 4.74-6.51 5.4-5.47 1.21-10.32 3.69-14.95 6.73-7.63 5.06-15.98 8.83-24.72 11.71-.6.2-1.14.44-1.65.83-2.33 1.75-5.07 2.47-7.91 2.87-8.64 1.2-17.32 1.72-26.02 2.1-3.58.15-7.15-.33-10.32-2.23-.85-.53-1.59-1.52-2.46-1.66-.85-.14-1.82.65-2.76.87-5.57 1.25-10.8.2-15.63-2.73-2.86-1.73-4.22-4.46-4.07-7.83a3.3 3.3 0 0 0-.74-2.27c-2.32-3.23-3.45-6.92-4.09-10.82-1.24-7.67 1.49-14 6.56-19.56.48-.53.65-1.05.65-1.75 0-7.67 1.46-14.97 5.4-21.66a43 43 0 0 1 8.22-9.86c.61-.54.68-.91.26-1.62a30 30 0 0 1-2.88-7.17c-.62-.44-.22-1.11-.47-1.66-.04-.41 0-.83-.13-1.24v-2.74c.1-.4.1-.8.1-1.22.1-.2.07-.46.28-.6"/><path fill="#3298C3" d="M91.14 103.83c.18.54-.04 1.15.29 1.68-.1.07-.1.5-.22.2a5 5 0 0 1-.41-1.88c-.04-2.1-.24-4.22.34-6.3q.04.26.1.5l-.07.57c-.2.37.02.81-.17 1.18v2.87c.14.37-.05.8.14 1.18"/><path fill="#3398C2" d="M152.57 159.78c0 2.01-.46 3.97-.72 5.94-.21 1.72-.04 1.92 1.71 1.62 3.94-.68 7.5-2.34 10.93-4.29 3.68-2.1 7.18-4.48 11.1-6.05a25 25 0 0 1 9.45-2.03c2.86 0 4.85 1.55 5.2 4 .33 2.28-.92 4.45-3.2 4.93-6.5 1.37-12.13 4.59-17.61 8.15-7.35 4.75-15.35 8.17-23.68 10.8-.3.09-.7.15-.9.34-1.96 2.08-4.56 2.43-7.19 2.78-7.36.96-14.77 1.4-22.2 1.83-2.14.13-4.29.2-6.43-.21-3.4-.68-4.85-1.95-5.37-4.75-.46-2.52.72-4.9 3.23-6.54l.97-.6a11 11 0 0 1-3.32-3.05c-.41-.57-.63-.21-.77.27l-1.24 4.74a22 22 0 0 1-1.08 3.08c-1.27 2.9-3.58 4.31-6.64 4.6-3.13.27-6.08-.42-8.87-1.8-1.93-.94-2.5-2.36-1.86-4.44.33-1.11.96-2.08 1.72-3.26-2.64.53-3.8-1-4.72-2.87a19.8 19.8 0 0 1-1.92-12.82c.67-3.54 2.76-6.43 5.25-8.92 1.46-1.46 1.9-2.86 1.86-4.92-.33-11.87 4.15-21.62 13.38-29.15.8-.68 1.61-1.38 2.47-2 .52-.36.58-.6.15-1.15-2.38-3-4.24-6.25-5.1-10.03-.96-4.26.49-7.95 2.63-11.5.31-.47.79-.71 1.32-.91a19 19 0 0 0 7.01-4.48 21.7 21.7 0 0 1 16.92-6.48c.83.05 1.2-.2 1.46-.98a37 37 0 0 1 3.85-8.17 11 11 0 0 1 2.16-2.58q2.44-2 4.09.64c2.01 3.21 3.56 6.67 5.13 10.12.4.88.7 1.18 1.62.59a17 17 0 0 1 3.47-1.58c.97-.33 1.53-.1 1.95.9a34 34 0 0 1 2.26 9.2c.1.88.3 1.73.2 2.6-.07 1.9.02 3.8.04 5.73 0 .85-.31 1.71-.05 2.58-.2 5.2-1.57 10.12-3.58 14.88-1.88 4.46-4.61 8.41-7.35 12.38-1.07 1.52-1.04 1.55.35 2.8 6.82 6.13 10.58 13.85 11.85 22.86q.04.52.02 1.09c-.28.83.03 1.64.04 2.45.08 1.23-.2 2.46.01 3.66"/><path fill="#2B95C1" d="M151.26 99.67c-.26-.21-.2-.52-.2-.8V92.2c0-.28-.06-.59.2-.81q.44 4.14 0 8.28"/><path fill="#2693BF" d="M152.57 159.78c-.44-1.69-.09-3.39-.2-5.07-.02-.35-.13-.75.2-1.03.28 2.03.24 4.06 0 6.1"/><path fill="#3398C2" d="M90.97 99.78c.03-.4-.17-.83.17-1.18 0 .39.03.81-.17 1.18m.17 4.05c-.33-.35-.15-.79-.17-1.18.22.37.17.78.17 1.18"/></g></g><defs><clipPath id="a"><path fill="#fff" d="M0 0h256v256H0z"/></clipPath><clipPath id="b"><path fill="#fff" d="M28 28h200v200H28z"/></clipPath></defs></svg>