<svg xmlns="http://www.w3.org/2000/svg" width="256" height="256" fill="none" viewBox="0 0 256 256"><g clip-path="url(#a)"><path fill="#242938" d="M196 0H60A60 60 0 0 0 0 60v136a60 60 0 0 0 60 60h136a60 60 0 0 0 60-60V60a60 60 0 0 0-60-60"/><path fill="#B3E1CE" d="M129.33 191.8c36.82 0 66.67-29.75 66.67-66.46s-29.85-66.46-66.67-66.46-66.66 29.75-66.66 66.46 29.84 66.47 66.66 66.47"/><path stroke="#444" stroke-linecap="round" stroke-width="12" d="M129.97 128.09 65.33 56.22m64.64 71.87 64.63-71.87m-64.63 71.87v74.35"/><path fill="#009A5B" stroke="#444" stroke-width="8" d="M129.33 146.61A18.64 18.64 0 0 0 148 128a18.64 18.64 0 0 0-18.67-18.61A18.64 18.64 0 0 0 110.67 128a18.64 18.64 0 0 0 18.66 18.61Z"/></g><defs><clipPath id="a"><path fill="#fff" d="M0 0h256v256H0z"/></clipPath></defs></svg>