<svg xmlns="http://www.w3.org/2000/svg" width="256" height="256" fill="none" viewBox="0 0 256 256"><rect width="256" height="256" fill="#F4F2ED" rx="60"/><path fill="#F7A41D" d="M92.12 71.88 70.94 97.76 60.35 81.3z"/><path fill="#F7A41D" d="m92.12 71.88-15.3 12.94-5.88 12.94h-7.06v60h10.6l-12.95 5.89-9.41 20H38V71.88z"/><path fill="#F7A41D" d="m74.47 157.76-22.35 25.89-9.41-12.94zm29.41-85.88 7.06 16.47-29.41 9.41z"/><path fill="#F7A41D" d="M103.88 71.88h64.7v25.88H81.54l22.35-14.11zm70.59 85.88-22.35 25.89-8.24-15.3z"/><path fill="#F7A41D" d="m174.47 157.76-18.82 10.6-3.53 15.29h-64.7v-25.89z"/><path fill="#F7A41D" d="M214.47 46 99.17 183.65 41.54 210.7l115.3-138.83zm-10.59 25.88-1.17 21.18-21.18 5.88z"/><path fill="#F7A41D" d="M218 71.88v111.77h-55.3l16.48-14.12 5.88-11.77h7.06V98.95h-10.59l11.76-10.59 10.6-16.47z"/><path fill="#F7A41D" d="m185.06 157.76 5.88 17.65-28.23 8.24z"/></svg>